<?xml version="1.0" encoding="iso-8859-1"?>
<!-- Generator: Adobe Illustrator 19.0.0, SVG Export Plug-In . SVG Version: 6.00 Build 0)  -->
<svg version="1.1" id="Layer_1" xmlns="http://www.w3.org/2000/svg" xmlns:xlink="http://www.w3.org/1999/xlink" x="0px" y="0px"
	 viewBox="0 0 24 24" style="enable-background:new 0 0 24 24;" xml:space="preserve">
<g>
	<g>
		<path d="M14.001,23c-3.309,0-6-2.691-6-6s2.691-6,6-6s6,2.691,6,6S17.31,23,14.001,23z M14.001,12c-2.757,0-5,2.243-5,5
			s2.243,5,5,5s5-2.243,5-5S16.758,12,14.001,12z"/>
	</g>
	<g>
		<path d="M19.501,17.5c-0.276,0-0.5-0.224-0.5-0.5v-3c0-2.757-2.243-5-5-5s-5,2.243-5,5v3c0,0.276-0.224,0.5-0.5,0.5
			s-0.5-0.224-0.5-0.5v-3c0-3.309,2.691-6,6-6s6,2.691,6,6v3C20.001,17.276,19.777,17.5,19.501,17.5z"/>
	</g>
	<g>
		<path d="M20.501,20h-1.5c-0.276,0-0.5-0.224-0.5-0.5s0.224-0.5,0.5-0.5h1.5c1.379,0,2.5-1.122,2.5-2.5v-8
			c0-1.268-2.206-2.75-3.592-3.008c-1.327-0.248-1.682-1.226-1.941-1.941c-0.105-0.29-0.205-0.564-0.343-0.721
			C16.661,2.303,15.522,2,14.001,2c-0.276,0-0.5-0.224-0.5-0.5s0.224-0.5,0.5-0.5c1.299,0,3.025,0.203,3.876,1.17
			c0.262,0.298,0.398,0.675,0.531,1.04c0.26,0.717,0.456,1.163,1.185,1.299c1.755,0.328,4.408,2.086,4.408,3.992v8
			C24.001,18.43,22.431,20,20.501,20z"/>
	</g>
	<g>
		<path d="M19.502,5.5c-0.031,0-0.062-0.003-0.093-0.008c-1.327-0.248-1.682-1.226-1.941-1.941c-0.105-0.29-0.205-0.564-0.343-0.721
			C16.661,2.303,15.522,2,14.001,2c-0.276,0-0.5-0.224-0.5-0.5s0.224-0.5,0.5-0.5c1.299,0,3.025,0.203,3.876,1.17
			c0.262,0.298,0.398,0.675,0.531,1.04c0.26,0.717,0.456,1.163,1.185,1.299c0.271,0.051,0.45,0.312,0.399,0.583
			C19.947,5.332,19.737,5.5,19.502,5.5z"/>
	</g>
	<g>
		<path d="M3.501,21h-1c-1.379,0-2.5-1.122-2.5-2.5L0,9.695c-0.007-1.229-0.011-1.971,1.097-3.49C2.28,4.582,7.473,4.5,8.501,4.5
			c0.637-0.127,0.833-0.574,1.093-1.291c0.133-0.364,0.27-0.742,0.531-1.04C10.976,1.203,12.702,1,14.001,1
			c0.276,0,0.5,0.224,0.5,0.5S14.277,2,14.001,2c-1.521,0-2.66,0.303-3.124,0.83c-0.138,0.156-0.237,0.431-0.343,0.721
			c-0.26,0.715-0.614,1.693-1.941,1.941C6.315,5.5,2.592,5.853,1.905,6.794C0.991,8.048,0.994,8.528,1,9.69l0.001,8.81
			c0,0.827,0.673,1.5,1.5,1.5h1c0.456,0,1.389-0.348,1.513-0.564C5.014,19.16,5.225,19,5.501,19h3.5c0.276,0,0.5,0.224,0.5,0.5
			S9.277,20,9.001,20H5.836C5.358,20.685,3.98,21,3.501,21z"/>
	</g>
	<g>
		<path d="M5.501,18c-0.276,0-0.5-0.224-0.5-0.5v-10c0-0.276,0.224-0.5,0.5-0.5s0.5,0.224,0.5,0.5v10
			C6.001,17.776,5.777,18,5.501,18z"/>
	</g>
	<g>
		<path d="M17.001,7h-6c-0.108,0-0.214-0.035-0.3-0.1l-2-1.5C8.48,5.234,8.436,4.921,8.601,4.7c0.168-0.221,0.481-0.265,0.7-0.1
			L11.168,6h5.666l1.867-1.4c0.22-0.166,0.533-0.122,0.7,0.1c0.165,0.221,0.12,0.534-0.101,0.7l-2,1.5
			C17.215,6.965,17.109,7,17.001,7z"/>
	</g>
	<g>
		<path d="M7.501,5.5c-0.276,0-0.5-0.224-0.5-0.5V4h-2v1c0,0.276-0.224,0.5-0.5,0.5s-0.5-0.224-0.5-0.5V3.5
			c0-0.276,0.224-0.5,0.5-0.5h3c0.276,0,0.5,0.224,0.5,0.5V5C8.001,5.276,7.777,5.5,7.501,5.5z"/>
	</g>
	<g>
		<path d="M14.001,21c-2.206,0-4-1.794-4-4s1.794-4,4-4s4,1.794,4,4S16.207,21,14.001,21z M14.001,14c-1.654,0-3,1.346-3,3
			s1.346,3,3,3s3-1.346,3-3S15.655,14,14.001,14z"/>
	</g>
	<g>
		<circle cx="3.001" cy="9" r="1"/>
	</g>
	<g>
		<path d="M16.501,5h-5c-0.276,0-0.5-0.224-0.5-0.5s0.224-0.5,0.5-0.5h5c0.276,0,0.5,0.224,0.5,0.5S16.777,5,16.501,5z"/>
	</g>
</g>
<g>
</g>
<g>
</g>
<g>
</g>
<g>
</g>
<g>
</g>
<g>
</g>
<g>
</g>
<g>
</g>
<g>
</g>
<g>
</g>
<g>
</g>
<g>
</g>
<g>
</g>
<g>
</g>
<g>
</g>
</svg>
