<?xml version="1.0" encoding="UTF-8" standalone="no"?>
<svg
   xmlns:dc="http://purl.org/dc/elements/1.1/"
   xmlns:cc="http://creativecommons.org/ns#"
   xmlns:rdf="http://www.w3.org/1999/02/22-rdf-syntax-ns#"
   xmlns:svg="http://www.w3.org/2000/svg"
   xmlns="http://www.w3.org/2000/svg"
   xmlns:sodipodi="http://sodipodi.sourceforge.net/DTD/sodipodi-0.dtd"
   xmlns:inkscape="http://www.inkscape.org/namespaces/inkscape"
   inkscape:version="1.0 (4035a4fb49, 2020-05-01)"
   sodipodi:docname="Preferences 1.svg"
   id="svg112"
   xml:space="preserve"
   style="enable-background:new 0 0 24 24;"
   viewBox="0 0 24 24"
   y="0px"
   x="0px"
   version="1.1"><metadata
   id="metadata118"><rdf:RDF><cc:Work
       rdf:about=""><dc:format>image/svg+xml</dc:format><dc:type
         rdf:resource="http://purl.org/dc/dcmitype/StillImage" /></cc:Work></rdf:RDF></metadata><defs
   id="defs116" /><sodipodi:namedview
   inkscape:current-layer="svg112"
   inkscape:window-maximized="1"
   inkscape:window-y="1108"
   inkscape:window-x="0"
   inkscape:cy="11.652408"
   inkscape:cx="10.598046"
   inkscape:zoom="25.279067"
   showgrid="false"
   id="namedview114"
   inkscape:window-height="1026"
   inkscape:window-width="1920"
   inkscape:pageshadow="2"
   inkscape:pageopacity="0"
   guidetolerance="10"
   gridtolerance="10"
   objecttolerance="10"
   borderopacity="1"
   bordercolor="#666666"
   pagecolor="#ffffff" />
<g
   id="Mail">
</g>
<g
   id="Open_Mail">
</g>
<g
   id="Mail_Attachmet">
</g>
<g
   id="Mails">
</g>
<g
   id="Trash">
</g>
<g
   id="Trash_Full">
</g>
<g
   transform="matrix(1.042353,0,0,1.042353,0,-0.03212991)"
   id="Preferences_1">
	<g
   id="g16">
		<g
   id="g10">
			<path
   id="path8"
   d="M 7.785,22.241 C 7.532,22.241 7.278,22.19 7.036,22.089 6.155,21.718 5.321,21.236 4.557,20.657 4.087,20.301 3.812,19.761 3.8,19.177 3.79,18.6 4.038,18.06 4.483,17.694 4.842,17.398 4.896,16.871 4.607,16.468 4.273,16.005 3.986,15.505 3.753,14.982 3.556,14.54 3.067,14.315 2.631,14.478 2.083,14.685 1.49,14.629 0.998,14.332 0.498,14.031 0.168,13.523 0.093,12.94 0.031,12.467 0,11.982 0,11.5 0,11.018 0.031,10.533 0.093,10.058 0.168,9.476 0.498,8.969 0.998,8.667 1.491,8.37 2.083,8.316 2.621,8.518 3.06,8.683 3.554,8.461 3.754,8.017 3.986,7.496 4.274,6.996 4.608,6.532 4.897,6.13 4.844,5.603 4.485,5.308 4.039,4.94 3.79,4.4 3.801,3.823 3.813,3.238 4.088,2.699 4.558,2.343 5.322,1.764 6.156,1.282 7.037,0.911 7.582,0.682 8.19,0.713 8.703,0.995 c 0.504,0.277 0.848,0.762 0.942,1.33 0.077,0.462 0.505,0.766 1.004,0.72 0.561,-0.059 1.144,-0.059 1.702,0 0.497,0.047 0.928,-0.258 1.005,-0.72 0.095,-0.567 0.438,-1.052 0.942,-1.33 0.513,-0.283 1.121,-0.313 1.666,-0.084 0.881,0.371 1.715,0.853 2.479,1.432 0.47,0.356 0.745,0.896 0.757,1.48 0.01,0.577 -0.238,1.117 -0.683,1.483 -0.359,0.296 -0.413,0.823 -0.124,1.226 0.334,0.463 0.621,0.963 0.854,1.486 0.198,0.442 0.687,0.666 1.122,0.504 0.549,-0.206 1.141,-0.15 1.633,0.146 0.5,0.301 0.83,0.809 0.905,1.392 0.062,0.473 0.093,0.958 0.093,1.44 0,0.482 -0.031,0.967 -0.093,1.442 -0.075,0.582 -0.405,1.089 -0.905,1.391 -0.493,0.298 -1.083,0.353 -1.623,0.149 l 0.165,-0.472 -0.175,0.468 c -0.436,-0.163 -0.924,0.062 -1.123,0.505 -0.232,0.521 -0.52,1.021 -0.854,1.485 -0.289,0.402 -0.236,0.929 0.123,1.224 0.445,0.367 0.694,0.907 0.684,1.484 -0.012,0.585 -0.287,1.124 -0.757,1.48 -0.764,0.579 -1.598,1.061 -2.479,1.432 -0.545,0.229 -1.153,0.198 -1.666,-0.084 -0.504,-0.277 -0.848,-0.762 -0.942,-1.33 -0.077,-0.462 -0.508,-0.772 -1.004,-0.72 -0.561,0.059 -1.144,0.059 -1.702,0 -0.499,-0.051 -0.928,0.258 -1.005,0.72 -0.095,0.567 -0.438,1.052 -0.942,1.33 -0.285,0.158 -0.6,0.237 -0.917,0.237 z M 2.919,13.428 c 0.73,0 1.428,0.433 1.747,1.146 0.206,0.461 0.459,0.901 0.754,1.311 0.6,0.836 0.471,1.945 -0.301,2.581 -0.207,0.171 -0.323,0.423 -0.318,0.691 0.006,0.277 0.137,0.534 0.36,0.703 0.698,0.529 1.459,0.969 2.264,1.307 0.26,0.11 0.551,0.097 0.795,-0.039 0.238,-0.131 0.394,-0.351 0.438,-0.619 0.165,-0.992 1.061,-1.663 2.096,-1.549 0.49,0.051 1.001,0.051 1.493,0 1.035,-0.103 1.93,0.559 2.095,1.549 0.045,0.268 0.2,0.488 0.438,0.619 0.244,0.135 0.535,0.148 0.795,0.039 0.805,-0.338 1.565,-0.778 2.264,-1.307 0.224,-0.169 0.354,-0.426 0.36,-0.704 0.005,-0.268 -0.11,-0.52 -0.317,-0.69 -0.772,-0.636 -0.901,-1.745 -0.302,-2.581 0.295,-0.41 0.548,-0.85 0.753,-1.31 0.416,-0.924 1.466,-1.377 2.384,-1.034 l 0.009,0.003 c 0.257,0.095 0.532,0.07 0.76,-0.068 0.237,-0.143 0.395,-0.384 0.43,-0.662 C 21.972,12.381 22,11.939 22,11.5 22,11.061 21.972,10.619 21.915,10.187 21.88,9.908 21.723,9.667 21.485,9.524 21.256,9.386 20.98,9.359 20.73,9.455 19.795,9.803 18.748,9.352 18.334,8.427 18.128,7.966 17.875,7.526 17.58,7.116 16.98,6.28 17.109,5.171 17.881,4.535 18.088,4.364 18.204,4.112 18.199,3.844 18.193,3.567 18.062,3.31 17.839,3.141 17.141,2.612 16.38,2.172 15.575,1.834 15.315,1.724 15.024,1.737 14.78,1.873 14.542,2.004 14.386,2.224 14.342,2.492 14.177,3.483 13.28,4.147 12.246,4.041 11.756,3.99 11.245,3.99 10.753,4.041 9.724,4.148 8.824,3.481 8.658,2.49 8.613,2.222 8.458,2.002 8.22,1.871 7.976,1.736 7.685,1.723 7.425,1.833 6.62,2.171 5.859,2.611 5.161,3.14 4.938,3.31 4.807,3.566 4.801,3.844 4.796,4.112 4.911,4.364 5.118,4.534 5.891,5.169 6.02,6.279 5.42,7.115 5.125,7.525 4.872,7.965 4.667,8.425 4.252,9.35 3.205,9.803 2.281,9.458 2.017,9.359 1.742,9.386 1.515,9.523 1.278,9.666 1.12,9.907 1.085,10.185 1.028,10.619 1,11.061 1,11.5 c 0,0.439 0.028,0.881 0.085,1.313 0.035,0.279 0.192,0.52 0.43,0.663 0.229,0.138 0.504,0.164 0.755,0.069 0.213,-0.079 0.432,-0.117 0.649,-0.117 z" />
		</g>
		<g
   id="g14">
			<path
   id="path12"
   d="M 11.5,16 C 9.019,16 7,13.981 7,11.5 7,9.019 9.019,7 11.5,7 13.981,7 16,9.019 16,11.5 16,13.981 13.981,16 11.5,16 Z m 0,-8 C 9.57,8 8,9.57 8,11.5 8,13.43 9.57,15 11.5,15 13.43,15 15,13.43 15,11.5 15,9.57 13.43,8 11.5,8 Z" />
		</g>
	</g>
</g>
<g
   id="Preferences_2">
</g>
<g
   id="Mouse">
</g>
<g
   id="Computer">
</g>
<g
   id="Notebook">
</g>
<g
   id="Mobile_Phone">
</g>
<g
   id="Print">
</g>
<g
   id="Calculator">
</g>
<g
   id="Tag">
</g>
<g
   id="Paperclip">
</g>
<g
   id="Heart">
</g>
<g
   id="Lock">
</g>
<g
   id="Lock_Open">
</g>
<g
   id="Key_1">
</g>
<g
   id="Star">
</g>
<g
   id="Add">
</g>
<g
   id="Remove">
</g>
<g
   id="Error">
</g>
<g
   id="Check_1">
</g>
<g
   id="Time">
</g>
<g
   id="Question_Mark">
</g>
<g
   id="Error_Mark">
</g>
<g
   id="Sand-Glass">
</g>
<g
   id="Battery_Full">
</g>
<g
   id="Battery_Charge">
</g>
<g
   id="Battery_Half">
</g>
<g
   id="Battery_Low">
</g>
<g
   id="No_Battery">
</g>
<g
   id="Key_2">
</g>
<g
   id="Link">
</g>
<g
   id="Brake_Link">
</g>
<g
   id="Pencil">
</g>
<g
   id="At">
</g>
<g
   id="Reply">
</g>
<g
   id="Accessible">
</g>
<g
   id="Up_Arrow">
</g>
<g
   id="Brush">
</g>
<g
   id="Design_Mug">
</g>
<g
   id="Design">
</g>
<g
   id="Server">
</g>
<g
   id="Database">
</g>
<g
   id="Save">
</g>
<g
   id="Female">
</g>
<g
   id="Male">
</g>
<g
   id="Book">
</g>
<g
   id="Power">
</g>
<g
   id="Reload">
</g>
<g
   id="Map">
</g>
<g
   id="Loction_1">
</g>
<g
   id="Location_2">
</g>
<g
   id="Globe">
</g>
<g
   id="Suitcase">
</g>
<g
   id="Callendar">
</g>
<g
   id="Cloud_Off">
</g>
<g
   id="File_1">
</g>
<g
   id="File_2">
</g>
<g
   id="Folder">
</g>
<g
   id="Open_Folder">
</g>
<g
   id="Cloud">
</g>
<g
   id="Upload_Cloud">
</g>
<g
   id="Download_Cloud">
</g>
<g
   id="Eye">
</g>
<g
   id="Invisible">
</g>
<g
   id="Assignment">
</g>
<g
   id="Note_Book">
</g>
<g
   id="Webpage">
</g>
<g
   id="Mailbox">
</g>
<g
   id="Drive">
</g>
<g
   id="Disc">
</g>
<g
   id="Wifi_1">
</g>
<g
   id="Wifi_2">
</g>
<g
   id="Archive">
</g>
<g
   id="Archive_File">
</g>
<g
   id="News">
</g>
<g
   id="Home">
</g>
<g
   id="Collaboration">
</g>
<g
   id="Announcement">
</g>
<g
   id="Watch">
</g>
<g
   id="Clock">
</g>
<g
   id="Volume">
</g>
<g
   id="Mute">
</g>
<g
   id="Hand">
</g>
<g
   id="Layers">
</g>
<g
   id="Bell">
</g>
<g
   id="Speach_Bubble">
</g>
<g
   id="Speach_Bubbles">
</g>
<g
   id="Zoom_In">
</g>
<g
   id="Zoom_Out">
</g>
<g
   id="Search">
</g>
<g
   id="Back_Arrow">
</g>
<g
   id="Close">
</g>
<g
   id="Check_2">
</g>
<g
   id="Left_Arrow_2">
</g>
<g
   id="Right_Arrow_2">
</g>
</svg>
