<svg width="48" height="48" viewBox="0 0 24 24" fill="none" xmlns="http://www.w3.org/2000/svg" aria-labelledby="controlCentreIconTitle" stroke="#000" stroke-width="1.5" stroke-linecap="round" stroke-linejoin="round" color="#000"><path d="M4 6.5A3.5 3.5 0 0 1 7.5 3h9A3.5 3.5 0 0 1 20 6.5v0a3.5 3.5 0 0 1-3.5 3.5h-9A3.5 3.5 0 0 1 4 6.5v0ZM20 17.5a3.5 3.5 0 0 1-3.5 3.5h-9A3.5 3.5 0 0 1 4 17.5v0A3.5 3.5 0 0 1 7.5 14h9a3.5 3.5 0 0 1 3.5 3.5v0Z"/><circle cx="16.5" cy="17.5" r="1"/><circle cx="7.5" cy="6.5" r="1"/></svg>