<?xml version="1.0" encoding="UTF-8" standalone="no"?>
<svg
   xmlns:dc="http://purl.org/dc/elements/1.1/"
   xmlns:cc="http://creativecommons.org/ns#"
   xmlns:rdf="http://www.w3.org/1999/02/22-rdf-syntax-ns#"
   xmlns:svg="http://www.w3.org/2000/svg"
   xmlns="http://www.w3.org/2000/svg"
   xmlns:sodipodi="http://sodipodi.sourceforge.net/DTD/sodipodi-0.dtd"
   xmlns:inkscape="http://www.inkscape.org/namespaces/inkscape"
   height="78.870003"
   width="98.000008"
   data-name="Layer 1"
   viewBox="0 0 98.000008 78.870003"
   x="0px"
   y="0px"
   version="1.1"
   id="svg34"
   sodipodi:docname="scanner.svg"
   inkscape:version="1.0 (4035a4fb49, 2020-05-01)">
  <metadata
     id="metadata40">
    <rdf:RDF>
      <cc:Work
         rdf:about="">
        <dc:format>image/svg+xml</dc:format>
        <dc:type
           rdf:resource="http://purl.org/dc/dcmitype/StillImage" />
        <dc:title>Artboard 21</dc:title>
      </cc:Work>
    </rdf:RDF>
  </metadata>
  <defs
     id="defs38" />
  <sodipodi:namedview
     inkscape:document-rotation="0"
     pagecolor="#ffffff"
     bordercolor="#666666"
     borderopacity="1"
     objecttolerance="10"
     gridtolerance="10"
     guidetolerance="10"
     inkscape:pageopacity="0"
     inkscape:pageshadow="2"
     inkscape:window-width="1920"
     inkscape:window-height="1048"
     id="namedview36"
     showgrid="false"
     inkscape:zoom="7.088"
     inkscape:cx="49"
     inkscape:cy="40.643318"
     inkscape:window-x="0"
     inkscape:window-y="0"
     inkscape:window-maximized="1"
     inkscape:current-layer="svg34" />
  <title
     id="title2">Artboard 21</title>
  <path
     d="M 87.1,62.32 V 16.55 A 5.76,5.76 0 0 0 81.34,10.79 H 16.55 a 5.76,5.76 0 0 0 -5.76,5.76 v 45.77 a 5.76,5.76 0 0 0 5.76,5.76 h 64.79 a 5.76,5.76 0 0 0 5.76,-5.76 z m -5,0 a 0.76,0.76 0 0 1 -0.76,0.76 H 16.55 A 0.76,0.76 0 0 1 15.79,62.32 V 16.55 a 0.76,0.76 0 0 1 0.76,-0.76 h 64.79 a 0.76,0.76 0 0 1 0.76,0.76 z"
     id="path4" />
  <path
     d="m 25.6,20.95 a 2.5,2.5 0 0 0 -2.5,2.48 v 32 a 2.5,2.5 0 0 0 5,0 v -32 a 2.5,2.5 0 0 0 -2.5,-2.48 z"
     id="path6" />
  <path
     d="m 37.27,48.69 a 2.5,2.5 0 0 0 2.5,-2.5 V 23.43 a 2.5,2.5 0 0 0 -5,0 v 22.76 a 2.5,2.5 0 0 0 2.5,2.5 z"
     id="path8" />
  <path
     d="M 2.5,14.34 A 2.5,2.5 0 0 0 5,11.84 V 6.54 A 1.54,1.54 0 0 1 6.53,5 h 5.31 a 2.5,2.5 0 1 0 0,-5 H 6.53 A 6.54,6.54 0 0 0 0,6.54 v 5.31 a 2.5,2.5 0 0 0 2.5,2.49 z"
     id="path10" />
  <path
     d="M 11.84,73.86 H 6.53 A 1.54,1.54 0 0 1 5,72.32 v -5.3 a 2.5,2.5 0 0 0 -5,0 v 5.31 a 6.54,6.54 0 0 0 6.53,6.54 h 5.31 a 2.5,2.5 0 1 0 0,-5 z"
     id="path12" />
  <path
     d="m 95.5,64.52 a 2.5,2.5 0 0 0 -2.5,2.5 v 5.31 a 1.54,1.54 0 0 1 -1.53,1.54 h -5.31 a 2.5,2.5 0 0 0 0,5 h 5.31 A 6.54,6.54 0 0 0 98,72.32 v -5.3 a 2.5,2.5 0 0 0 -2.5,-2.5 z"
     id="path14" />
  <path
     d="m 91.47,0 h -5.31 a 2.5,2.5 0 0 0 0,5 h 5.31 A 1.54,1.54 0 0 1 93,6.54 v 5.31 a 2.5,2.5 0 1 0 5,0 V 6.54 A 6.54,6.54 0 0 0 91.47,0 Z"
     id="path16" />
  <path
     d="m 48.95,48.69 a 2.5,2.5 0 0 0 2.5,-2.5 V 23.43 a 2.5,2.5 0 0 0 -5,0 v 22.76 a 2.5,2.5 0 0 0 2.5,2.5 z"
     id="path18" />
  <path
     d="m 60.62,48.69 a 2.5,2.5 0 0 0 2.5,-2.5 V 23.43 a 2.5,2.5 0 0 0 -5,0 v 22.76 a 2.5,2.5 0 0 0 2.5,2.5 z"
     id="path20" />
  <path
     d="m 72.29,20.95 a 2.5,2.5 0 0 0 -2.5,2.5 v 31.98 a 2.5,2.5 0 0 0 5,0 v -32 a 2.5,2.5 0 0 0 -2.5,-2.48 z"
     id="path22" />
  <circle
     cx="37.27"
     cy="55.459999"
     r="2.5799999"
     id="circle24" />
  <circle
     cx="48.950001"
     cy="55.459999"
     r="2.5799999"
     id="circle26" />
  <circle
     cx="60.619999"
     cy="55.459999"
     r="2.5799999"
     id="circle28" />
</svg>
