<svg xmlns="http://www.w3.org/2000/svg" height="76.045" width="92.001"><path transform="translate(-4 -11.957)" d="M5.781 11.969A2 2 0 0 0 4 14v52a2 2 0 1 0 4 0V14a2 2 0 0 0-2.219-2.031Zm8 0A2 2 0 0 0 12 14v40a2 2 0 1 0 4 0V14a2 2 0 0 0-2.219-2.031zm13 0A2 2 0 0 0 25 14v40a2 2 0 1 0 4 0V14a2 2 0 0 0-2.219-2.031zm11 0A2 2 0 0 0 36 14v40a2 2 0 1 0 4 0V14a2 2 0 0 0-2.219-2.031zm9 0A2 2 0 0 0 45 14v40a2 2 0 1 0 4 0V14a2 2 0 0 0-2.219-2.031zm8 0A2 2 0 0 0 53 14v40a2 2 0 1 0 4 0V14a2 2 0 0 0-2.219-2.031zm9 0A2 2 0 0 0 62 14v30.281c-2.812 2.73-4.556 6.506-4.563 10.719-.012 8.25 6.66 15.012 14.97 15 2.052-.003 4-.408 5.78-1.156L88.72 87a2.002 2.002 0 1 0 3.469-2L81.656 66.812a15.083 15.083 0 0 0 5.781-11.843 14.719 14.719 0 0 0-.187-2.344A2 2 0 0 0 88 51V14a2 2 0 0 0-2.219-2.031A2 2 0 0 0 84 14v31.438a15.015 15.015 0 0 0-7-4.72V14a2 2 0 0 0-2.219-2.031A2 2 0 0 0 73 14v26.031c-.189-.007-.372-.031-.563-.031-2.314.003-4.484.565-6.437 1.5V14a2 2 0 0 0-2.219-2.031zm30 0A2 2 0 0 0 92 14v52a2 2 0 1 0 4 0V14a2 2 0 0 0-2.219-2.031ZM72.437 44c6.164-.009 11.01 4.86 11 10.969C83.428 61.078 78.57 65.99 72.407 66c-6.164.01-10.979-4.891-10.97-11 .01-6.11 4.837-10.99 11-11z" style="color:#000;font-style:normal;font-variant:normal;font-weight:400;font-stretch:normal;font-size:medium;line-height:normal;font-family:Sans;-inkscape-font-specification:Sans;text-indent:0;text-align:start;text-decoration:none;text-decoration-line:none;letter-spacing:normal;word-spacing:normal;text-transform:none;writing-mode:lr-tb;direction:ltr;baseline-shift:baseline;text-anchor:start;display:inline;overflow:visible;visibility:visible;opacity:1;fill:#000;fill-opacity:1;stroke:none;stroke-width:4;marker:none;enable-background:accumulate"/></svg>