<svg xmlns="http://www.w3.org/2000/svg" height="78.87" width="98" data-name="Layer 1"><path d="M87.1 62.32V16.55a5.76 5.76 0 0 0-5.76-5.76H16.55a5.76 5.76 0 0 0-5.76 5.76v45.77a5.76 5.76 0 0 0 5.76 5.76h64.79a5.76 5.76 0 0 0 5.76-5.76zm-5 0a.76.76 0 0 1-.76.76H16.55a.76.76 0 0 1-.76-.76V16.55a.76.76 0 0 1 .76-.76h64.79a.76.76 0 0 1 .76.76z"/><path d="M25.6 20.95a2.5 2.5 0 0 0-2.5 2.48v32a2.5 2.5 0 0 0 5 0v-32a2.5 2.5 0 0 0-2.5-2.48zM37.27 48.69a2.5 2.5 0 0 0 2.5-2.5V23.43a2.5 2.5 0 0 0-5 0v22.76a2.5 2.5 0 0 0 2.5 2.5zM2.5 14.34a2.5 2.5 0 0 0 2.5-2.5v-5.3A1.54 1.54 0 0 1 6.53 5h5.31a2.5 2.5 0 1 0 0-5H6.53A6.54 6.54 0 0 0 0 6.54v5.31a2.5 2.5 0 0 0 2.5 2.49zM11.84 73.86H6.53A1.54 1.54 0 0 1 5 72.32v-5.3a2.5 2.5 0 0 0-5 0v5.31a6.54 6.54 0 0 0 6.53 6.54h5.31a2.5 2.5 0 1 0 0-5zM95.5 64.52a2.5 2.5 0 0 0-2.5 2.5v5.31a1.54 1.54 0 0 1-1.53 1.54h-5.31a2.5 2.5 0 0 0 0 5h5.31A6.54 6.54 0 0 0 98 72.32v-5.3a2.5 2.5 0 0 0-2.5-2.5zM91.47 0h-5.31a2.5 2.5 0 0 0 0 5h5.31A1.54 1.54 0 0 1 93 6.54v5.31a2.5 2.5 0 1 0 5 0V6.54A6.54 6.54 0 0 0 91.47 0ZM48.95 48.69a2.5 2.5 0 0 0 2.5-2.5V23.43a2.5 2.5 0 0 0-5 0v22.76a2.5 2.5 0 0 0 2.5 2.5zM60.62 48.69a2.5 2.5 0 0 0 2.5-2.5V23.43a2.5 2.5 0 0 0-5 0v22.76a2.5 2.5 0 0 0 2.5 2.5zM72.29 20.95a2.5 2.5 0 0 0-2.5 2.5v31.98a2.5 2.5 0 0 0 5 0v-32a2.5 2.5 0 0 0-2.5-2.48z"/><circle cx="37.27" cy="55.46" r="2.58"/><circle cx="48.95" cy="55.46" r="2.58"/><circle cx="60.62" cy="55.46" r="2.58"/></svg>