<svg xmlns="http://www.w3.org/2000/svg" height="14" width="20" data-name="Layer 1"><path d="M9 11H8V3h1zm8-8h-1v8h1zM7 3H5v8h2zm6 0h-3v8h3zM4 3H3v8h1zm11 0h-1v8h1zM6 13.5a.5.5 0 0 0-.5-.5h-2A2.503 2.503 0 0 1 1 10.5v-1a.5.5 0 0 0-1 0v1A3.504 3.504 0 0 0 3.5 14h2a.5.5 0 0 0 .5-.5Zm14-3v-1a.5.5 0 0 0-1 0v1a2.503 2.503 0 0 1-2.5 2.5h-2a.5.5 0 0 0 0 1h2a3.504 3.504 0 0 0 3.5-3.5Zm0-6v-1A3.504 3.504 0 0 0 16.5 0h-2a.5.5 0 0 0 0 1h2A2.503 2.503 0 0 1 19 3.5v1a.5.5 0 0 0 1 0zm-19 0v-1A2.503 2.503 0 0 1 3.5 1h2a.5.5 0 0 0 0-1h-2A3.504 3.504 0 0 0 0 3.5v1a.5.5 0 0 0 1 0z"/></svg>