<?xml version="1.0" encoding="UTF-8" standalone="no"?>
<svg
   xmlns:dc="http://purl.org/dc/elements/1.1/"
   xmlns:cc="http://creativecommons.org/ns#"
   xmlns:rdf="http://www.w3.org/1999/02/22-rdf-syntax-ns#"
   xmlns:svg="http://www.w3.org/2000/svg"
   xmlns="http://www.w3.org/2000/svg"
   xmlns:sodipodi="http://sodipodi.sourceforge.net/DTD/sodipodi-0.dtd"
   xmlns:inkscape="http://www.inkscape.org/namespaces/inkscape"
   inkscape:version="1.0 (4035a4fb49, 2020-05-01)"
   height="76.045288"
   width="92.000923"
   sodipodi:docname="noun_barcode scanner_1522424.svg"
   id="svg10"
   viewBox="0 0 92.000923 76.045288"
   y="0px"
   x="0px"
   version="1.1">
  <metadata
     id="metadata16">
    <rdf:RDF>
      <cc:Work
         rdf:about="">
        <dc:format>image/svg+xml</dc:format>
        <dc:type
           rdf:resource="http://purl.org/dc/dcmitype/StillImage" />
      </cc:Work>
    </rdf:RDF>
  </metadata>
  <defs
     id="defs14" />
  <sodipodi:namedview
     inkscape:current-layer="svg10"
     inkscape:window-maximized="1"
     inkscape:window-y="0"
     inkscape:window-x="0"
     inkscape:cy="45.050038"
     inkscape:cx="36.43989"
     inkscape:zoom="5.0119729"
     showgrid="false"
     id="namedview12"
     inkscape:window-height="1048"
     inkscape:window-width="1920"
     inkscape:pageshadow="2"
     inkscape:pageopacity="0"
     guidetolerance="10"
     gridtolerance="10"
     objecttolerance="10"
     borderopacity="1"
     bordercolor="#666666"
     pagecolor="#ffffff" />
  <g
     id="g4"
     transform="translate(-3.9995373,-964.3189)">
    <path
       id="path2"
       transform="translate(0,952.36218)"
       d="M 5.78125,11.96875 A 2.0001996,2.0001996 0 0 0 4,14 v 52 a 2.0001996,2.0001996 0 1 0 4,0 V 14 A 2.0001996,2.0001996 0 0 0 5.78125,11.96875 Z m 8,0 A 2.0001996,2.0001996 0 0 0 12,14 v 40 a 2.0001996,2.0001996 0 1 0 4,0 V 14 a 2.0001996,2.0001996 0 0 0 -2.21875,-2.03125 z m 13,0 A 2.0001996,2.0001996 0 0 0 25,14 v 40 a 2.0001996,2.0001996 0 1 0 4,0 V 14 a 2.0001996,2.0001996 0 0 0 -2.21875,-2.03125 z m 11,0 A 2.0001996,2.0001996 0 0 0 36,14 v 40 a 2.0001996,2.0001996 0 1 0 4,0 V 14 a 2.0001996,2.0001996 0 0 0 -2.21875,-2.03125 z m 9,0 A 2.0001996,2.0001996 0 0 0 45,14 v 40 a 2.0001996,2.0001996 0 1 0 4,0 V 14 a 2.0001996,2.0001996 0 0 0 -2.21875,-2.03125 z m 8,0 A 2.0001996,2.0001996 0 0 0 53,14 v 40 a 2.0001996,2.0001996 0 1 0 4,0 V 14 a 2.0001996,2.0001996 0 0 0 -2.21875,-2.03125 z m 9,0 A 2.0001996,2.0001996 0 0 0 62,14 V 44.28125 C 59.188035,47.011128 57.443766,50.787448 57.4375,55 c -0.01218,8.2498 6.660232,15.0125 14.96875,15 2.052456,-0.0032 4.000701,-0.408051 5.78125,-1.15625 L 88.71875,87 A 2.0020131,2.0020131 0 1 0 92.1875,85 L 81.65625,66.8125 C 85.172151,64.053229 87.430372,59.751633 87.4375,54.96875 87.4387,54.163944 87.37189,53.396044 87.25,52.625 A 2.0001996,2.0001996 0 0 0 88,51 V 14 A 2.0001996,2.0001996 0 0 0 85.78125,11.96875 2.0001996,2.0001996 0 0 0 84,14 V 45.4375 C 82.191432,43.258886 79.768396,41.597122 77,40.71875 V 14 A 2.0001996,2.0001996 0 0 0 74.78125,11.96875 2.0001996,2.0001996 0 0 0 73,14 V 40.03125 C 72.811064,40.024492 72.628188,39.999717 72.4375,40 70.123015,40.003482 67.952735,40.565473 66,41.5 V 14 a 2.0001996,2.0001996 0 0 0 -2.21875,-2.03125 z m 30,0 A 2.0001996,2.0001996 0 0 0 92,14 v 52 a 2.0001996,2.0001996 0 1 0 4,0 V 14 A 2.0001996,2.0001996 0 0 0 93.78125,11.96875 Z M 72.4375,44 c 6.163452,-0.009 11.00902,4.85935 11,10.96875 C 83.4284,61.07785 78.569859,65.9906 72.40625,66 66.242808,66.01 61.42848,61.109 61.4375,55 c 0.0091,-6.1094 4.836428,-10.99072 11,-11 z"
       style="color:#000000;font-style:normal;font-variant:normal;font-weight:normal;font-stretch:normal;font-size:medium;line-height:normal;font-family:Sans;-inkscape-font-specification:Sans;text-indent:0;text-align:start;text-decoration:none;text-decoration-line:none;letter-spacing:normal;word-spacing:normal;text-transform:none;writing-mode:lr-tb;direction:ltr;baseline-shift:baseline;text-anchor:start;display:inline;overflow:visible;visibility:visible;opacity:1;fill:#000000;fill-opacity:1;stroke:none;stroke-width:4;marker:none;enable-background:accumulate" />
  </g>
</svg>
