<?xml version="1.0" encoding="UTF-8" standalone="no"?>
<svg
   xmlns:dc="http://purl.org/dc/elements/1.1/"
   xmlns:cc="http://creativecommons.org/ns#"
   xmlns:rdf="http://www.w3.org/1999/02/22-rdf-syntax-ns#"
   xmlns:svg="http://www.w3.org/2000/svg"
   xmlns="http://www.w3.org/2000/svg"
   xmlns:sodipodi="http://sodipodi.sourceforge.net/DTD/sodipodi-0.dtd"
   xmlns:inkscape="http://www.inkscape.org/namespaces/inkscape"
   inkscape:version="1.0 (4035a4fb49, 2020-05-01)"
   height="30.923599"
   width="34.935799"
   sodipodi:docname="noun_barcode scanner_783551.svg"
   id="svg8"
   version="1.1"
   y="0px"
   x="0px"
   viewBox="0 0 34.935799 30.923599">
  <metadata
     id="metadata14">
    <rdf:RDF>
      <cc:Work
         rdf:about="">
        <dc:format>image/svg+xml</dc:format>
        <dc:type
           rdf:resource="http://purl.org/dc/dcmitype/StillImage" />
      </cc:Work>
    </rdf:RDF>
  </metadata>
  <defs
     id="defs12" />
  <sodipodi:namedview
     inkscape:current-layer="svg8"
     inkscape:window-maximized="1"
     inkscape:window-y="0"
     inkscape:window-x="0"
     inkscape:cy="17.629378"
     inkscape:cx="30.697445"
     inkscape:zoom="14.766667"
     showgrid="false"
     id="namedview10"
     inkscape:window-height="1048"
     inkscape:window-width="1920"
     inkscape:pageshadow="2"
     inkscape:pageopacity="0"
     guidetolerance="10"
     gridtolerance="10"
     objecttolerance="10"
     borderopacity="1"
     bordercolor="#666666"
     pagecolor="#ffffff" />
  <path
     id="path2"
     d="m 5.5423,25.2516 h 2 V 5.7456 h -2 z m 4.227,0 h 2 V 5.7456 h -2 z m 4.316,0 h 4 V 5.7456 h -4 z m 6.351,0 h 2 V 5.7456 h -2 z m 4.563,0 h 4 V 5.7456 h -4 z m 6.9141,5.672 h -4.423 v -2 h 4.423 c 0.563,0 1.022,-0.543 1.022,-1.211 v -5.217 h 2 v 5.217 c 0,1.771 -1.355,3.211 -3.022,3.211 z M 8.428,30.4324 H 3.211 C 1.441,30.4324 0,29.0764 0,27.4104 v -4.424 h 2 v 4.424 c 0,0.564 0.543,1.022 1.211,1.022 H 8.428 Z M 2.0003,8.428 h -2 V 3.211 C 3e-4,1.441 1.3553,0 3.0223,0 h 4.423 V 2 H 3.0223 C 2.4593,2 2.0003,2.544 2.0003,3.211 Z M 34.9358,7.9368 h -2 v -4.423 c 0,-0.564 -0.543,-1.023 -1.211,-1.023 h -5.217 v -2 h 5.217 c 1.771,0 3.211,1.356 3.211,3.023 z"
     fill-rule="evenodd"
     fill="#000000" />
</svg>
