<svg xmlns="http://www.w3.org/2000/svg" height="30.924" width="34.936"><path d="M5.542 25.252h2V5.746h-2zm4.227 0h2V5.746h-2zm4.316 0h4V5.746h-4zm6.351 0h2V5.746h-2zm4.563 0h4V5.746h-4zm6.914 5.672H27.49v-2h4.423c.563 0 1.022-.543 1.022-1.211v-5.217h2v5.217c0 1.77-1.355 3.21-3.022 3.21zm-23.485-.492H3.211C1.441 30.432 0 29.076 0 27.41v-4.424h2v4.424c0 .564.543 1.022 1.211 1.022h5.217ZM2 8.428H0V3.211C0 1.441 1.355 0 3.022 0h4.423v2H3.022C2.46 2 2 2.544 2 3.211Zm32.936-.491h-2V3.514c0-.564-.543-1.023-1.211-1.023h-5.217v-2h5.217c1.77 0 3.21 1.356 3.21 3.023z" fill-rule="evenodd"/></svg>