<?xml version="1.0" encoding="iso-8859-1"?>
<!-- Generator: Adobe Illustrator 18.0.0, SVG Export Plug-In . SVG Version: 6.00 Build 0)  -->
<!DOCTYPE svg PUBLIC "-//W3C//DTD SVG 1.1//EN" "http://www.w3.org/Graphics/SVG/1.1/DTD/svg11.dtd">
<svg version="1.1" id="Layer_1" xmlns="http://www.w3.org/2000/svg" xmlns:xlink="http://www.w3.org/1999/xlink" x="0px" y="0px"
	 viewBox="0 0 24 24" style="enable-background:new 0 0 24 24;" xml:space="preserve">
<g>
	<g>
		<g>
			<path d="M14.5,24h-8c-0.247,0-0.457-0.18-0.494-0.424l-2-13c-0.022-0.145,0.02-0.291,0.114-0.402C4.216,10.063,4.354,10,4.5,10
				h12c0.146,0,0.284,0.063,0.38,0.174c0.095,0.111,0.137,0.257,0.114,0.402l-2,13C14.957,23.82,14.747,24,14.5,24z M6.929,23h7.143
				l1.846-12H5.083L6.929,23z"/>
			<path d="M18.5,11h-16C2.223,11,2,10.776,2,10.5v-2C2,8.223,2.223,8,2.5,8h16C18.776,8,19,8.223,19,8.5v2
				C19,10.776,18.776,11,18.5,11z M3,10h15V9H3V10z"/>
		</g>
		<path d="M16.5,9C16.223,9,16,8.776,16,8.5C16,5.467,13.532,3,10.5,3S5,5.467,5,8.5C5,8.776,4.776,9,4.5,9S4,8.776,4,8.5
			C4,4.916,6.916,2,10.5,2S17,4.916,17,8.5C17,8.776,16.776,9,16.5,9z"/>
		<path d="M8.5,22c-0.068,0-0.137-0.014-0.203-0.043c-0.252-0.112-0.366-0.408-0.254-0.66l8-18c0.042-0.094,0.111-0.173,0.2-0.226
			l5-3c0.234-0.141,0.544-0.066,0.686,0.171c0.143,0.237,0.065,0.544-0.172,0.686l-4.864,2.919L8.957,21.703
			C8.874,21.889,8.691,22,8.5,22z"/>
	</g>
	<path d="M15.5,17h-10C5.223,17,5,16.776,5,16.5S5.223,16,5.5,16h10c0.276,0,0.5,0.224,0.5,0.5S15.776,17,15.5,17z"/>
</g>
<g>
</g>
<g>
</g>
<g>
</g>
<g>
</g>
<g>
</g>
<g>
</g>
<g>
</g>
<g>
</g>
<g>
</g>
<g>
</g>
<g>
</g>
<g>
</g>
<g>
</g>
<g>
</g>
<g>
</g>
</svg>
