<svg width="45" height="45" viewBox="0 0 45 45" fill="none" xmlns="http://www.w3.org/2000/svg">
<path d="M4 11H15V34H4V11Z" fill="black"/>
<path d="M17 11H28V34H17V11Z" fill="black"/>
<path d="M30 11H41V34H30V11Z" fill="black"/>
<path d="M13.34 18.5V26.56C13.34 28.32 12.5133 29.2 10.86 29.2H8.48C6.82667 29.2 6 28.32 6 26.56V18.5C6 16.74 6.82667 15.86 8.48 15.86H10.86C12.5133 15.86 13.34 16.74 13.34 18.5ZM10.62 26.88V18.16C10.62 18.0533 10.58 17.96 10.5 17.88C10.4333 17.8 10.3467 17.76 10.24 17.76H9.1C8.99333 17.76 8.9 17.8 8.82 17.88C8.75333 17.96 8.72 18.0533 8.72 18.16V26.88C8.72 26.9867 8.75333 27.08 8.82 27.16C8.9 27.24 8.99333 27.28 9.1 27.28H10.24C10.3467 27.28 10.4333 27.24 10.5 27.16C10.58 27.08 10.62 26.9867 10.62 26.88Z" fill="white"/>
<path d="M26.34 18.5V26.56C26.34 28.32 25.5133 29.2 23.86 29.2H21.48C19.8267 29.2 19 28.32 19 26.56V18.5C19 16.74 19.8267 15.86 21.48 15.86H23.86C25.5133 15.86 26.34 16.74 26.34 18.5ZM23.62 26.88V18.16C23.62 18.0533 23.58 17.96 23.5 17.88C23.4333 17.8 23.3467 17.76 23.24 17.76H22.1C21.9933 17.76 21.9 17.8 21.82 17.88C21.7533 17.96 21.72 18.0533 21.72 18.16V26.88C21.72 26.9867 21.7533 27.08 21.82 27.16C21.9 27.24 21.9933 27.28 22.1 27.28H23.24C23.3467 27.28 23.4333 27.24 23.5 27.16C23.58 27.08 23.62 26.9867 23.62 26.88Z" fill="white"/>
<path d="M39.34 11.9995V17.5574C39.34 19.3174 38.5133 20.1974 36.86 20.1974H34.48C32.8267 20.1974 32 19.3174 32 17.5574V12.0228C32 10.2628 32.6864 12.1628 34.48 11.9995C36.2736 11.8362 36.62 19.1596 36.86 12.4996C38.5133 12.4996 39.34 10.2395 39.34 11.9995ZM36.62 17.8774L36.86 12.4996C36.86 12.3929 36.7 13.0796 36.62 12.9996C36.5533 12.9196 36.24 15.2415 36.24 11.9994L35.5 12.0228C35.12 15.2883 34.72 12.0228 34.72 12.0228C34.72 12.0228 34.82 12.551 34.82 12.6577L34.72 17.8774C34.72 17.9841 34.7533 18.0774 34.82 18.1574C34.9 18.2374 34.9933 18.2774 35.1 18.2774H36.24C36.3467 18.2774 36.4333 18.2374 36.5 18.1574C36.58 18.0774 36.62 17.9841 36.62 17.8774Z" fill="white"/>
<path d="M31.9805 23.0601H38.5805L36.5 33.5H34L35.4605 25.2001H31.9805V23.0601Z" fill="white"/>
<path d="M30 11H41V16H30V11Z" fill="black"/>
<path d="M30 29H41V34H30V29Z" fill="black"/>
</svg>
