<svg width="90" height="90" viewBox="0 0 90 90" fill="none" xmlns="http://www.w3.org/2000/svg">
<path d="M73.4121 46.816L69.1008 39.3486L63.55 42.5534L67.8614 50.0207C68.9547 51.9144 68.2256 53.6012 67.8613 54.232C67.4971 54.8629 66.4139 56.3452 64.2273 56.3452H48.7304V53.1104L37.629 59.5198L48.7304 65.9292V62.6885H64.2273C68.0614 62.6885 71.4949 60.7241 73.412 57.4037C75.3291 54.0833 75.3291 50.1365 73.4121 46.816Z" fill="black"/>
<path d="M35.8144 13.5118L31.5031 20.9792L37.0537 24.1839L41.3651 16.7165C42.4584 14.8228 44.2707 14.6183 44.9991 14.6184C45.7275 14.6184 47.5398 14.8228 48.6332 16.7165L56.397 30.1639L53.6104 31.7663L64.7006 38.1757V25.3569L61.9365 26.9592L54.1782 13.5118C52.2612 10.1913 48.8304 8.20894 44.9963 8.20898C41.1621 8.20896 37.7314 10.1913 35.8144 13.5118Z" fill="black"/>
<path d="M25.7709 62.6884H34.4021V56.3451H25.7709C23.5843 56.3451 22.5011 54.8628 22.1369 54.232C21.7727 53.6012 21.0436 51.9219 22.1369 50.0282L29.9056 36.577L32.6857 38.1756V25.3568L21.5795 31.7662L24.3525 33.3686L16.5874 46.816C14.6703 50.1364 14.6697 54.0831 16.5868 57.4036C18.5038 60.7241 21.9368 62.6884 25.7709 62.6884Z" fill="black"/>
<path d="M39.1815 45.4432V43.0213L45.2539 33.4545H47.342V36.8068H46.1062L42.2781 42.8651V42.9787H50.9073V45.4432H39.1815ZM46.163 48V44.7045L46.2198 43.6321V33.4545H49.1033V48H46.163Z" fill="black"/>
<path d="M20.7173 85V70.4545H23.7926V82.4645H30.0284V85H20.7173ZM37.2212 85H32.065V70.4545H37.2638C38.7269 70.4545 39.9864 70.7457 41.0423 71.3281C42.0981 71.9058 42.9102 72.7367 43.4783 73.821C44.0513 74.9053 44.3377 76.2027 44.3377 77.7131C44.3377 79.2282 44.0513 80.5303 43.4783 81.6193C42.9102 82.7083 42.0934 83.544 41.0281 84.1264C39.9674 84.7088 38.6985 85 37.2212 85ZM35.1403 82.3651H37.0934C38.0025 82.3651 38.7672 82.2041 39.3874 81.8821C40.0124 81.5554 40.4812 81.0511 40.7937 80.3693C41.1109 79.6828 41.2695 78.7973 41.2695 77.7131C41.2695 76.6383 41.1109 75.7599 40.7937 75.0781C40.4812 74.3963 40.0148 73.8944 39.3945 73.5724C38.7743 73.2505 38.0096 73.0895 37.1005 73.0895H35.1403V82.3651ZM46.6158 85V70.4545H52.3544C53.4576 70.4545 54.3975 70.6652 55.174 71.0866C55.9505 71.5033 56.5424 72.0833 56.9496 72.8267C57.3615 73.5653 57.5675 74.4176 57.5675 75.3835C57.5675 76.3494 57.3591 77.2017 56.9425 77.9403C56.5258 78.679 55.9221 79.2543 55.1314 79.6662C54.3454 80.0781 53.3937 80.2841 52.2763 80.2841H48.6186V77.8196H51.7791C52.371 77.8196 52.8587 77.7178 53.2422 77.5142C53.6304 77.3059 53.9193 77.0194 54.1087 76.6548C54.3028 76.2855 54.3999 75.8617 54.3999 75.3835C54.3999 74.9006 54.3028 74.4792 54.1087 74.1193C53.9193 73.7547 53.6304 73.473 53.2422 73.2741C52.8539 73.0705 52.3615 72.9688 51.7649 72.9688H49.6911V85H46.6158ZM59.565 85V70.4545H69.3661V72.9901H62.6403V76.456H68.8619V78.9915H62.6403V82.4645H69.3945V85H59.565Z" fill="black"/>
</svg>
