<svg width="90" height="90" viewBox="0 0 90 90" fill="none" xmlns="http://www.w3.org/2000/svg">
<path d="M78.2671 18.9669H66.3671V10.8002C66.3671 10.3335 66.1337 9.86686 65.6671 9.4002L65.4337 9.16686C65.2004 8.93353 64.7337 8.7002 64.2671 8.7002H21.5671H21.3337H16.6671H12.7004C11.5337 8.7002 9.90039 8.7002 9.90039 10.5669C9.90039 10.8002 9.90039 11.2669 10.1337 11.7335L11.7671 13.8335C16.9004 20.1335 19.7004 27.8335 19.7004 36.0002V69.8335C19.7004 76.1335 24.8337 81.2669 31.1337 81.2669H54.7004C61.0004 81.2669 66.1337 76.1335 66.1337 69.8335V22.4669H76.4004V50.2335C76.4004 51.1669 77.1004 52.1002 78.2671 52.1002C79.2004 52.1002 80.1337 51.4002 80.1337 50.2335V20.6002C79.9004 19.6669 79.2004 18.9669 78.2671 18.9669ZM34.1671 66.1002H29.0337C28.1004 66.1002 27.1671 65.4002 27.1671 64.2335C27.1671 63.3002 27.8671 62.3669 29.0337 62.3669H34.1671C35.1004 62.3669 36.0337 63.0669 36.0337 64.2335C36.0337 65.4002 35.3337 66.1002 34.1671 66.1002ZM34.1671 54.4335H29.0337C28.1004 54.4335 27.1671 53.7335 27.1671 52.5669C27.1671 51.6335 27.8671 50.7002 29.0337 50.7002H34.1671C35.1004 50.7002 36.0337 51.4002 36.0337 52.5669C36.0337 53.5002 35.3337 54.4335 34.1671 54.4335ZM34.1671 42.5335H29.0337C28.1004 42.5335 27.1671 41.8335 27.1671 40.6669C27.1671 39.7335 27.8671 38.8002 29.0337 38.8002H34.1671C35.1004 38.8002 36.0337 39.5002 36.0337 40.6669C36.0337 41.8335 35.3337 42.5335 34.1671 42.5335ZM34.1671 30.6335H29.0337C28.1004 30.6335 27.1671 29.9335 27.1671 28.7669C27.1671 27.8335 27.8671 26.9002 29.0337 26.9002H34.1671C35.1004 26.9002 36.0337 27.6002 36.0337 28.7669C36.0337 29.9335 35.3337 30.6335 34.1671 30.6335Z" fill="black"/>
</svg>
