<svg width="45" height="45" viewBox="0 0 45 45" fill="none" xmlns="http://www.w3.org/2000/svg">
<mask id="mask0_4261_17080" style="mask-type:alpha" maskUnits="userSpaceOnUse" x="0" y="0" width="45" height="45">
<rect width="45" height="45" fill="#D9D9D9"/>
</mask>
<g mask="url(#mask0_4261_17080)">
<path d="M17.25 17.25L21.4219 10.3594L18.6562 5.76563C18.2812 5.14063 17.7425 4.82813 17.04 4.82813C16.3363 4.82813 15.7969 5.14063 15.4219 5.76563L10.8281 13.4063L17.25 17.25ZM35.3906 30L31.2187 23.0625L37.7344 19.3125L40.7344 24.3281C41.0781 24.8594 41.2656 25.4531 41.2969 26.1094C41.3281 26.7656 41.1875 27.375 40.875 27.9375C40.5625 28.5625 40.1013 29.0625 39.4913 29.4375C38.8825 29.8125 38.2187 30 37.5 30H35.3906ZM30 43.125L22.5 35.625L30 28.125V31.875H38.9062L36.1875 37.3125C35.8437 37.9375 35.375 38.4375 34.7812 38.8125C34.1875 39.1875 33.5312 39.375 32.8125 39.375H30V43.125ZM11.8594 39.375C11.2344 39.375 10.6638 39.2113 10.1475 38.8838C9.6325 38.555 9.25 38.125 9 37.5937C8.75 37.0937 8.63312 36.57 8.64937 36.0225C8.66437 35.4762 8.8125 34.9687 9.09375 34.5L10.6875 31.875H18.75V39.375H11.8594ZM7.21875 34.0312L4.17187 27.9375C3.89062 27.375 3.75813 26.7737 3.77438 26.1337C3.78938 25.4925 3.96875 24.8906 4.3125 24.3281L5.0625 23.0625L1.875 21.1406L12.1406 18.5625L14.7187 28.875L11.4844 26.9063L7.21875 34.0312ZM32.5313 18L22.2656 15.4219L25.5 13.5L19.6406 3.75H26.25C26.9062 3.75 27.5237 3.91375 28.1025 4.24125C28.68 4.57 29.1406 5.01562 29.4844 5.57812L31.9219 9.65625L35.1094 7.6875L32.5313 18Z" fill="black"/>
</g>
</svg>
