<svg width="57" height="57" viewBox="0 0 57 57" fill="none" xmlns="http://www.w3.org/2000/svg">
<path fill-rule="evenodd" clip-rule="evenodd" d="M25.9022 32.7085C25.9112 32.7095 25.9192 32.7095 25.9272 32.7095C26.1422 32.7095 26.3212 32.5435 26.3332 32.3285L27.6212 11.5875C27.6352 11.3635 27.4642 11.1715 27.2402 11.1565C27.0112 11.1485 26.8232 11.3135 26.8102 11.5375L25.5212 32.2785C25.5082 32.5025 25.6792 32.6945 25.9022 32.7085" fill="black"/>
<path fill-rule="evenodd" clip-rule="evenodd" d="M28.2325 49.291C21.3115 49.291 15.7015 46.801 15.7015 43.73C15.7015 43.338 15.7865 42.985 15.9065 42.577L17.5195 35.909C19.4865 38.006 23.8765 39.093 28.2325 39.093C32.5905 39.093 36.9825 38.005 38.9485 35.906L40.5715 42.575C40.6905 42.944 40.7635 43.338 40.7635 43.73C40.7635 46.801 35.1535 49.291 28.2325 49.291M22.8645 29.984L22.6725 32.135H22.6735C22.6635 32.224 22.6515 32.354 22.6515 32.437C22.6515 34.372 24.8945 35.671 28.2325 35.671C31.5705 35.671 33.8135 34.372 33.8135 32.437C33.8135 32.355 33.8015 32.227 33.7905 32.135L33.5995 29.984C36.4405 30.696 38.3345 31.952 38.3345 33.386C38.3345 35.609 33.8125 37.411 28.2325 37.411C22.6525 37.411 18.1305 35.609 18.1305 33.386C18.1305 31.952 20.0245 30.697 22.8645 29.984M24.3465 32.283L24.5835 29.637L24.6125 29.298L26.3065 10.247C26.8055 10.45 27.4285 10.583 28.2325 10.583C29.0365 10.583 29.6595 10.45 30.1585 10.247L31.8745 29.556L31.8805 29.637L32.1155 32.283C32.1155 32.283 32.1335 32.384 32.1335 32.437C32.1335 33.296 30.3865 33.992 28.2325 33.992C26.0785 33.992 24.3325 33.296 24.3325 32.437C24.3325 32.384 24.3465 32.283 24.3465 32.283M28.2325 7.68298C29.2055 7.68298 29.9945 7.95498 29.9945 8.29198C29.9945 8.62898 29.2055 8.90298 28.2325 8.90298C27.2595 8.90298 26.4705 8.62898 26.4705 8.29198C26.4705 7.95498 27.2595 7.68298 28.2325 7.68298M42.1905 42.122L39.9815 33.046C39.7395 30.637 36.9785 29.018 33.4445 28.234L31.6745 8.30698C31.6745 8.30198 31.6755 8.29598 31.6755 8.29198C31.6755 7.23598 30.7745 6.00098 28.2325 6.00098C25.6905 6.00098 24.7895 7.23598 24.7895 8.29198C24.7895 8.29598 24.7905 8.30198 24.7905 8.30698L23.0195 28.234C19.4855 29.018 16.7255 30.637 16.4835 33.047L14.2805 42.145C14.1545 42.586 14.0215 43.108 14.0215 43.73C14.0215 47.859 20.1305 50.972 28.2325 50.972C36.3345 50.972 42.4435 47.859 42.4435 43.73C42.4435 43.202 42.3585 42.661 42.1905 42.122" fill="black"/>
<path fill-rule="evenodd" clip-rule="evenodd" d="M19.2801 38.138C19.0661 38.085 18.8421 38.219 18.7901 38.436L17.1821 45.01C17.1301 45.228 17.2641 45.448 17.4821 45.5C17.5131 45.509 17.5451 45.512 17.5771 45.512C17.7611 45.512 17.9281 45.388 17.9721 45.202L19.5791 38.628C19.6321 38.41 19.4981 38.19 19.2801 38.138" fill="black"/>
</svg>
