<svg width="90" height="90" viewBox="0 0 90 90" fill="none" xmlns="http://www.w3.org/2000/svg">
<path d="M34.9322 39.9979C34.1222 40.7629 34.0853 42.0398 34.8503 42.8491L43.4753 51.9829C43.8715 52.4029 44.4072 52.6147 44.9428 52.6147C45.4403 52.6147 45.9372 52.4322 46.3272 52.0635C47.1372 51.2985 47.174 50.0216 46.409 49.2123L37.7828 40.0785C37.0191 39.2685 35.7422 39.2316 34.9322 39.9979H34.9322Z" fill="black"/>
<path d="M65.2158 19.3498C69.2984 19.3498 72.6076 16.0403 72.6076 11.9579L72.6083 9.83984H17.2803V11.9579C17.2803 16.0405 20.5897 19.3498 24.6721 19.3498H42.9265V27.1304C30.5897 27.1329 20.5889 37.1354 20.5889 49.4728V77.0872C20.5889 78.781 21.962 80.1535 23.6552 80.1535H66.2312C67.9249 80.1535 69.2974 78.7803 69.2974 77.0872L69.298 49.4728C69.298 37.1347 59.2974 27.1336 46.9604 27.1304V19.3498H65.2158ZM61.8145 50.5978C61.8145 59.9152 54.2614 67.4682 44.9441 67.4682C35.6273 67.4682 28.0737 59.915 28.0737 50.5978C28.0737 41.281 35.6275 33.7258 44.9441 33.7258C54.2616 33.7258 61.8145 41.2789 61.8145 50.5978Z" fill="black"/>
</svg>
