<?xml version="1.0" encoding="UTF-8"?>
<svg width="60px" height="40px" viewBox="0 0 60 40" version="1.1" xmlns="http://www.w3.org/2000/svg" xmlns:xlink="http://www.w3.org/1999/xlink">
    <title>brown</title>
    <g id="brown" stroke="none" stroke-width="1" fill="none" fill-rule="evenodd">
        <polygon id="path2141" fill="#D4AA00" fill-rule="nonzero" points="16.05753 30.14887 18.377428 29.56854 25.95466 29.55174 26.605549 38.88989 25.611486 40.96723 16.171105 41.06553"></polygon>
        <polygon id="path2143" fill="#FFCC00" fill-rule="nonzero" points="16.05753 30.14887 25.195454 30.23027 25.611489 40.96731 16.171107 41.06561"></polygon>
        <polygon id="path2153" fill="#A02C2C" fill-rule="nonzero" points="5.092323 30.14887 7.41222 29.56854 14.989451 29.55174 15.640341 38.88989 14.646278 40.96723 5.205897 41.06553"></polygon>
        <polygon id="path2155" fill="#D35F5F" fill-rule="nonzero" points="5.092323 30.14887 14.230247 30.23027 14.64628 40.96731 5.2059 41.06561"></polygon>
        <ellipse id="ellipse2442" fill="#A05A2C" fill-rule="nonzero" cx="55.9315857" cy="38.019043" rx="2.16666914" ry="2.36402865"></ellipse>
        <path d="M55.0283092,41.4703263 C51.8641141,45.2257921 49.0501178,46.2139367 42.8561602,46.2139367 C36.662192,46.2139367 32.6992613,41.9159049 31.8684094,37.1971619 C30.8838851,31.6057292 34.3089887,23.4246777 39.788346,20.53646 C41.8990357,19.4239069 45.0436595,18.7784235 48.8088126,20.3264059 C54.5700936,22.6950781 57.3412255,38.7251965 55.0283092,41.4703263 L55.0283092,41.4703263 Z" id="path2444" fill="#A05A2C" fill-rule="nonzero"></path>
        <path d="M50.1411081,41.1882219 C47.9365615,43.9211564 45.9760364,44.6402505 41.6606289,44.6402505 C37.3452321,44.6402505 34.5841961,41.5124785 34.0053333,38.0785463 C33.3194164,34.0095442 35.7057306,28.0560074 39.5232558,25.9541964 C40.9937914,25.1445543 43.1846808,24.6748259 45.8079046,25.8013346 C49.8218385,27.5250634 51.752536,39.1905358 50.1411081,41.1882219 L50.1411081,41.1882219 Z" id="path2446" fill="#C87137" fill-rule="nonzero"></path>
        <polygon id="path2448" fill="#A02C2C" fill-rule="nonzero" points="34.9013482 27.2140918 37.2702193 26.8868696 44.805242 27.6857848 44.4471718 37.039743 43.2352669 38.9979987 33.8391587 38.0794511"></polygon>
        <polygon id="path2450" fill="#C83737" fill-rule="nonzero" points="34.9013482 27.2140918 43.9774167 28.2785753 43.2352669 38.9980254 33.8391587 38.0794778"></polygon>
        <ellipse id="ellipse2452" fill="#FFE680" fill-rule="nonzero" transform="translate(38.933340, 33.649918) rotate(7.151184) translate(-38.933340, -33.649918) " cx="38.9333404" cy="33.6499176" rx="2.95942212" ry="3.58701581"></ellipse>
        <ellipse id="ellipse2454" fill="#FF9955" fill-rule="nonzero" transform="translate(39.289804, 30.808751) rotate(7.151184) translate(-39.289804, -30.808751) " cx="39.2898042" cy="30.8087507" rx="2.51983059" ry="1.12290666"></ellipse>
        <path d="M37.1288992,35.5426888 C37.1103973,36.8103967 33.410343,38.0269486 30.5212376,36.1615049 C27.8634591,34.4454249 27.7998683,31.9554157 27.9224192,30.8514205 C28.2459132,27.9374382 34.885413,23.3316475 36.7640058,23.6426651 C37.8985986,23.8304998 35.8028922,25.631575 34.9601371,26.6403871 C32.2072718,30.2999545 31.6336495,30.9568406 33.5196858,31.8791826 C36.168577,33.1745888 37.2069172,30.1800431 37.1288992,35.5426888 Z" id="path2456" fill="#A05A2C" fill-rule="nonzero"></path>
        <ellipse id="ellipse2458" fill="#FFFFFF" fill-rule="nonzero" transform="translate(35.457237, 44.127714) rotate(-14.566304) translate(-35.457237, -44.127714) " cx="35.4572371" cy="44.1277138" rx="4.20484414" ry="3.37359827"></ellipse>
        <path d="M51.3405858,37.3970666 C51.9621526,38.5020874 52.2609739,39.0574164 55.1500686,37.1919728 C58.5770545,33.4909655 53.5573993,23.8946628 51.1752454,22.5026993 C50.1773312,21.9310672 48.9725917,23.9524378 48.2363347,24.0326322 C49.8407575,27.4372811 53.3508521,31.8635031 50.9622385,34.4201041 C50.2555524,35.1764875 51.6316535,36.2879444 51.3405858,37.3970666 Z" id="path2462" fill="#A05A2C" fill-rule="nonzero"></path>
        <path d="M55.3896412,17.1229965 C54.5967984,24.130043 47.9156854,26.9223001 43.1976108,26.9866203 C38.9026088,27.0451847 31.9697313,23.8930949 32.6646318,17.2073105 C33.3565913,10.5498286 36.9803922,6.52569087 43.8546947,6.52569087 C50.7290293,6.52569087 56.1453947,10.4438203 55.3896412,17.1229965 Z" id="path2464" fill="#28170B" fill-rule="nonzero" opacity="0.306615"></path>
        <path d="M34.4274435,10.8633744 C34.4274435,10.8633744 32.3106684,8.12014083 32.7219341,6.66747727 C32.9495607,5.86329163 33.9079686,5.20006675 34.743601,5.18433695 C36.2553967,5.15586758 38.4995032,7.72801443 38.4995032,7.72801443" id="path2466" fill="#A05A2C" fill-rule="nonzero"></path>
        <path d="M34.8337682,10.2827011 C34.8337682,10.2827011 33.3153845,8.32603249 33.6106445,7.28970284 C33.7741027,6.71600245 34.4617522,6.24275762 35.0612985,6.23143511 C36.1459683,6.21094401 37.7557278,8.04554405 37.7557278,8.04554405" id="path2468" fill="#C87137" fill-rule="nonzero"></path>
        <path d="M54.7034248,16.2740502 C53.910582,23.2810978 47.2294476,26.0733538 42.511373,26.1376762 C38.2163924,26.1962405 31.2835042,23.0441486 31.9784047,16.3583663 C32.6703642,9.70088336 36.2941651,5.67674673 43.1684783,5.67674673 C50.0427915,5.67674673 55.4591676,9.5948751 54.7034248,16.2740502 L54.7034248,16.2740502 Z" id="path2470" fill="#A05A2C" fill-rule="nonzero"></path>
        <circle id="circle2472" fill="#000000" fill-rule="nonzero" cx="38.0916598" cy="14.0919272" r="1.17867121"></circle>
        <circle id="circle2474" fill="#000000" fill-rule="nonzero" cx="46.3519239" cy="14.1315372" r="1.17867121"></circle>
        <path d="M41.7885271,16.5419402 C40.8451454,16.6300541 39.3510494,16.2568285 38.7347979,16.9765236 C35.9557305,20.2220479 38.2304025,24.0541297 42.330461,23.5638075 C48.5683845,22.8178268 46.4334819,18.6813164 44.8589402,16.8536263 C44.0934117,15.9650122 42.9563377,16.4328637 41.7885271,16.5419402 L41.7885271,16.5419402 Z" id="path2476" fill="#D38D5F" fill-rule="nonzero"></path>
        <path d="M41.2236638,15.9164421 C40.280282,16.0045559 38.9041702,16.397231 38.7596845,17.333643 C38.55749,18.6441983 40.1240962,20.2456415 41.4500284,20.2641755 C42.9313121,20.2848804 44.8868748,18.5172476 44.5459269,17.0755846 C44.2759921,15.9341793 42.3914744,15.8073655 41.2236638,15.9164421 Z" id="path2478" stroke="#000000" stroke-width="0.5" fill="#000000" fill-rule="nonzero"></path>
        <path d="M41.4500284,20.2641755 C41.4478894,21.3844822 41.711493,22.2916292 42.2564107,22.7289654" id="path2480" stroke="#000000" stroke-width="0.5"></path>
        <path d="M52.235574,12.0199705 C52.235574,12.0199705 54.8465951,9.83947525 54.760556,8.35976472 C54.7129645,7.54060967 53.9349552,6.70155815 53.1372784,6.50920388 C51.6941642,6.16120605 48.9974034,8.15068283 48.9974034,8.15068283" id="path2482" fill="#A05A2C" fill-rule="nonzero"></path>
        <path d="M51.9692753,11.3771597 C51.9692753,11.3771597 53.8398363,9.8236909 53.7766626,8.7676712 C53.7416908,8.18307181 53.1829235,7.58355541 52.6106166,7.44551217 C51.5752388,7.19576893 49.6429906,8.61284258 49.6429906,8.61284258" id="path2484" fill="#C87137" fill-rule="nonzero"></path>
        <path d="M43.7719924,22.3153351 C42.7414272,22.7546916 41.6588964,22.8828016 40.5172023,22.6554617" id="path2486" stroke="#000000" stroke-width="0.5"></path>
        <ellipse id="path1900" fill="#FFE680" fill-rule="nonzero" transform="translate(10.382941, 35.269027) rotate(7.151184) translate(-10.382941, -35.269027) " cx="10.3829412" cy="35.2690268" rx="2.9594221" ry="3.5870159"></ellipse>
        <ellipse id="path1902" fill="#FF9955" fill-rule="nonzero" transform="translate(10.739405, 32.427860) rotate(7.151184) translate(-10.739405, -32.427860) " cx="10.739405" cy="32.4278602" rx="2.5198307" ry="1.1229067"></ellipse>
        <ellipse id="path1900" fill="#FFE680" fill-rule="nonzero" transform="translate(20.382941, 35.269027) rotate(7.151184) translate(-20.382941, -35.269027) " cx="20.3829412" cy="35.2690268" rx="2.9594221" ry="3.5870159"></ellipse>
        <ellipse id="path1902" fill="#FF9955" fill-rule="nonzero" transform="translate(20.739405, 32.427860) rotate(7.151184) translate(-20.739405, -32.427860) " cx="20.739405" cy="32.4278602" rx="2.5198307" ry="1.1229067"></ellipse>
    </g>
</svg>