<?xml version="1.0" encoding="UTF-8"?>
<svg width="60px" height="40px" viewBox="0 0 60 40" version="1.1" xmlns="http://www.w3.org/2000/svg" xmlns:xlink="http://www.w3.org/1999/xlink">
    <title>white</title>
    <g id="white" stroke="none" stroke-width="1" fill="none" fill-rule="evenodd">
        <ellipse id="ellipse1936" fill="#FFFFFF" fill-rule="nonzero" cx="50.333397" cy="39.24754" rx="2.1666691" ry="2.3640287"></ellipse>
        <path d="M49.430118,39.09718 C46.265924,42.85265 43.451931,43.84079 37.257973,43.84079 C31.064005,43.84079 27.101068,39.54276 26.270212,34.82403 C25.285695,29.23259 28.710803,21.05154 34.190169,18.16331 C36.300852,17.05076 39.445475,16.40528 43.210623,17.95327 C48.971903,20.32194 51.743039,36.35206 49.430118,39.09718 L49.430118,39.09718 Z" id="path1938" fill="#FFFFFF" fill-rule="nonzero"></path>
        <path d="M44.542911,38.81507 C42.338377,41.54801 40.377835,42.26711 36.062438,42.26711 C31.74704,42.26711 28.986019,39.13934 28.407149,35.7054 C27.721231,31.6364 30.107535,25.68286 33.925069,23.58106 C35.395602,22.77141 37.586494,22.30168 40.209715,23.42819 C44.223654,25.15192 46.154338,36.8174 44.542911,38.81507 Z" id="path1940" fill="#F2F2F2" fill-rule="nonzero"></path>
        <g id="g2139" transform="translate(32.170498, 26.829715)" fill-rule="nonzero">
            <polygon id="path2124" fill="#0088AA" points="1.64763348 0.765855698 4.01651854 0.43862532 11.5515339 1.23754277 11.1934598 10.5914995 9.98156294 12.5497616 0.585462061 11.6312119"></polygon>
            <polygon id="path2126" fill="#00AAD4" points="1.64763348 0.765855698 10.7237094 1.83033626 9.98156294 12.5497841 0.585462061 11.6312344"></polygon>
            <path d="M3.92321079,3.40498968 C3.40658804,3.35178156 2.8453708,4.68861404 2.66966829,6.39095703 C2.55494819,7.50263606 2.6307701,8.5469105 2.8680996,9.12389729 C2.58489694,9.30688177 2.37137425,9.66463593 2.29409325,10.0856366 L4.15345364,10.2775478 C4.16378122,9.84974196 4.02789222,9.45600368 3.78812909,9.21902017 C4.13832381,8.7026459 4.42585148,7.69579705 4.54059917,6.58406111 C4.6249854,5.76647513 4.6073457,4.9722055 4.49156107,4.37600445 C4.37577645,3.77980341 4.1713327,3.43051548 3.92321079,3.40498968 L3.92321079,3.40498968 Z" id="path2128" fill="#87CDDE"></path>
            <path d="M8.24364318,4.00218315 C7.72702235,3.94899161 7.16581113,5.28581935 6.99010968,6.98815051 C6.87538975,8.09983028 6.9512121,9.14410489 7.18854212,9.72109076 C6.90533946,9.90407524 6.69181677,10.2618294 6.61453576,10.6828301 L8.47389503,10.8747413 C8.48422217,10.4469423 8.34833739,10.0532095 8.10858061,9.8162249 C8.45877315,9.29983901 8.74629667,8.29298679 8.86104056,7.18125458 C8.94542723,6.36366366 8.92778671,5.56938969 8.81200023,4.9731878 C8.69621375,4.37698592 8.49176739,4.02770132 8.24364318,4.00218315 L8.24364318,4.00218315 Z" id="path2130" fill="#D7EEF4"></path>
            <path d="M5.41037659,10.5327243 C5.92316159,10.5859023 6.4802027,9.2490784 6.65459923,7.54675692 C6.76846926,6.43508415 6.69321375,5.39081116 6.45764996,4.81381667 C6.73874858,4.63083009 6.95068414,4.27307628 7.02739024,3.85207737 L5.18183409,3.66016613 C5.17158278,4.08797152 5.30646255,4.48170971 5.5444455,4.71869378 C5.19685062,5.23507019 4.911458,6.24191864 4.79756262,7.35365285 C4.7138023,8.1712431 4.73131179,8.96551651 4.84623868,9.56171828 C4.96116557,10.1579201 5.16409421,10.5072051 5.41037659,10.5327243 L5.41037659,10.5327243 Z" id="path2132" fill="#AFDDE9"></path>
        </g>
        <path d="M40.939367,36.33273 C41.560949,37.43775 46.662787,36.68427 49.551883,34.81883 C52.978864,31.11782 47.959223,21.52152 45.57705,20.12956 C44.579141,19.55793 43.374397,21.5793 42.638145,21.65949 C44.872492,25.70606 46.305477,32.51555 40.934142,32.63324 C39.261423,32.66994 39.830452,35.72932 40.939242,36.33273 L40.939367,36.33273 Z" id="path1954" fill="#FFFFFF" fill-rule="nonzero"></path>
        <path d="M49.791455,14.74985 C48.998614,21.7569 42.317486,24.54915 37.599413,24.61347 C33.304418,24.67197 26.371545,21.51995 27.066448,14.83417 C27.758403,8.17668 31.382205,4.15255 38.256512,4.15255 C45.13083,4.15255 50.547196,8.07068 49.791455,14.74985 L49.791455,14.74985 Z" id="path1956" fill="#AAEEFF" fill-rule="nonzero" opacity="0.306615"></path>
        <path d="M29.291164,8.13333 C29.291164,8.13333 27.470645,5.62276 27.877311,4.33418 C28.102437,3.62082 28.977486,3.05304 29.725471,3.06126 C31.078695,3.07616 33.017686,5.43703 33.017686,5.43703" id="path1958" fill="#FFFFFF" fill-rule="nonzero"></path>
        <path d="M29.670147,7.6247 C29.670147,7.6247 28.363984,5.83375 28.655751,4.91451 C28.817283,4.40564 29.445093,4.00062 29.981757,4.00648 C30.952653,4.01648 32.343817,5.70126 32.343817,5.70126" id="path1960" fill="#E6E6E6" fill-rule="nonzero"></path>
        <path d="M49.105239,13.90091 C48.312399,20.90796 41.631261,23.70022 36.913196,23.76454 C32.618193,23.82304 25.685317,20.671 26.38022,13.98522 C27.072179,7.32775 30.695979,3.30361 37.570296,3.30361 C44.444604,3.30361 49.86098,7.22173 49.105239,13.90091 L49.105239,13.90091 Z" id="path1962" fill="#FFFFFF" fill-rule="nonzero"></path>
        <path d="M36.249904,15.45638 C35.306516,15.54448 33.797075,13.99634 33.069583,14.60338 C30.137141,17.05034 32.811679,22.00068 36.593813,21.25135 C42.719783,20.03765 40.89151,16.80308 39.094886,14.56506 C38.360642,13.65043 37.417714,15.34731 36.249904,15.45638 L36.249904,15.45638 Z" id="path1964" fill="#CCCCCC" fill-rule="nonzero"></path>
        <circle id="circle1966" fill="#000000" fill-rule="nonzero" cx="32.493469" cy="11.7188" r="1.1786712"></circle>
        <circle id="circle1968" fill="#000000" fill-rule="nonzero" cx="40.753731" cy="11.75839" r="1.1786712"></circle>
        <path d="M35.625484,13.5433 C34.682094,13.6314 33.305973,14.02409 33.161499,14.9605 C32.959307,16.27105 34.525914,17.8725 35.851839,17.89103 C37.33312,17.91173 39.288681,16.1441 38.947737,14.70245 C38.677811,13.56104 36.793284,13.43422 35.625484,13.5433 L35.625484,13.5433 Z" id="path1970" stroke="#000000" stroke-width="0.166063" fill="#000000" fill-rule="nonzero"></path>
        <path d="M35.851839,17.89103 C35.850039,19.01134 36.113313,19.91849 36.658221,20.35583" id="path1972" stroke="#000000" stroke-width="0.313822"></path>
        <path d="M47.007175,9.44803 C47.007175,9.44803 48.827692,6.93745 48.42102,5.64887 C48.195893,4.93552 47.320846,4.36775 46.572861,4.37597 C45.219637,4.39087 43.280645,6.75173 43.280645,6.75173" id="path1974" fill="#FFFFFF" fill-rule="nonzero"></path>
        <path d="M46.628183,8.93939 C46.628183,8.93939 47.934355,7.14845 47.642571,6.22922 C47.481057,5.72035 46.853237,5.31532 46.316574,5.32117 C45.345677,5.33117 43.954514,7.01595 43.954514,7.01595" id="path1976" fill="#E6E6E6" fill-rule="nonzero"></path>
        <path d="M38.173798,19.94219 C37.14324,20.38155 36.060702,20.50965 34.919018,20.28232" id="path1978" stroke="#000000" stroke-width="0.313822"></path>
        <polygon id="path2141" fill="#D4AA00" fill-rule="nonzero" points="20.05753 30.14887 22.377428 29.56854 29.95466 29.55174 30.605549 38.88989 29.611486 40.96723 20.171105 41.06553"></polygon>
        <polygon id="path2143" fill="#FFCC00" fill-rule="nonzero" points="20.05753 30.14887 29.195454 30.23027 29.611489 40.96731 20.171107 41.06561"></polygon>
        <path d="M22.603968,32.52772 C22.0846214,32.5304334 21.6705662,33.9199012 21.679127,35.63126 C21.6847365,36.7488317 21.8725263,37.7788809 22.170586,38.32697 C21.9087252,38.5393759 21.7349523,38.9180361 21.703438,39.34491 L23.572654,39.33591 C23.5368729,38.9094754 23.3593901,38.5326491 23.095509,38.32285 C23.3880844,37.7717811 23.5655614,36.7398354 23.559973,35.62221 C23.5558625,34.8002894 23.4528283,34.0125313 23.2735396,33.4322561 C23.094251,32.8519809 22.8533964,32.5267285 22.603968,32.52806 L22.603968,32.52772 Z" id="path2145" fill="#FFE680" fill-rule="nonzero"></path>
        <path d="M26.963582,32.65639 C26.4442382,32.6591161 26.0301872,34.0485802 26.038748,35.75993 C26.0443598,36.8774953 26.2321498,37.9075354 26.530208,38.45562 C26.2683438,38.6680302 26.0945708,39.046699 26.063061,39.47358 L27.932274,39.46458 C27.8964915,39.0381563 27.7190144,38.6613394 27.455142,38.45154 C27.7477156,37.9004558 27.9251881,36.868498 27.919594,35.75087 C27.9154819,34.9289488 27.812446,34.1411923 27.633156,33.5609208 C27.453866,32.9806493 27.2130105,32.6554023 26.963582,32.65674 L26.963582,32.65639 Z" id="path2147" fill="#FFF6D5" fill-rule="nonzero"></path>
        <path d="M24.849741,39.45396 C25.3652696,39.4516311 25.7751744,38.062619 25.765317,36.35142 C25.758863,35.2339456 25.5716363,34.2038365 25.275331,33.65555 C25.5350993,33.4433684 25.707294,33.0648798 25.738237,32.63807 L23.882747,32.64507 C23.9186042,33.071495 24.0950833,33.4484289 24.357194,33.65842 C24.0672032,34.2092108 23.8918484,35.240927 23.898284,36.35846 C23.9030175,37.180317 24.0059227,37.9680921 24.1843586,38.5484598 C24.3627945,39.1288275 24.6021423,39.4542399 24.849741,39.4531 L24.849741,39.45396 Z" id="path2149" fill="#FFEEAA" fill-rule="nonzero"></path>
        <polygon id="path2153" fill="#A02C2C" fill-rule="nonzero" points="9.092323 30.14887 11.41222 29.56854 18.989451 29.55174 19.640341 38.88989 18.646278 40.96723 9.205897 41.06553"></polygon>
        <polygon id="path2155" fill="#D35F5F" fill-rule="nonzero" points="9.092323 30.14887 18.230247 30.23027 18.64628 40.96731 9.2059 41.06561"></polygon>
        <path d="M11.638761,32.52772 C11.1194136,32.5304297 10.7053572,33.9198986 10.713918,35.63126 C10.7195275,36.7488317 10.9073173,37.7788809 11.205377,38.32697 C10.943517,38.5393766 10.7697449,38.9180366 10.738231,39.34491 L12.607445,39.33591 C12.5716641,38.9094756 12.3941817,38.5326495 12.130301,38.32285 C12.4228764,37.7717811 12.6003534,36.7398354 12.594765,35.62221 C12.5906545,34.8002899 12.4876204,34.0125324 12.308332,33.4322573 C12.1290435,32.8519822 11.8881892,32.5267294 11.638761,32.52806 L11.638761,32.52772 Z" id="path2157" fill="#DE8787" fill-rule="nonzero"></path>
        <path d="M15.998374,32.65639 C15.4790302,32.6591161 15.0649792,34.0485802 15.07354,35.75993 C15.0791518,36.8774953 15.2669418,37.9075354 15.565,38.45562 C15.3031358,38.6680302 15.1293628,39.046699 15.097853,39.47358 L16.967067,39.46458 C16.931284,39.0381558 16.7538061,38.6613388 16.489933,38.45154 C16.7825073,37.9004575 16.9599807,36.8684994 16.954387,35.75087 C16.9502749,34.9289482 16.8472388,34.1411913 16.6679486,33.5609196 C16.4886584,32.980648 16.2478027,32.6554015 15.998374,32.65674 L15.998374,32.65639 Z" id="path2159" fill="#F4D7D7" fill-rule="nonzero"></path>
        <path d="M13.884533,39.45396 C14.4000616,39.4516311 14.8099664,38.062619 14.800109,36.35142 C14.7936552,35.2339463 14.6064289,34.2038374 14.310124,33.65555 C14.569892,33.4433681 14.7420863,33.0648795 14.773029,32.63807 L12.917539,32.64507 C12.9533962,33.071495 13.1298753,33.4484289 13.391986,33.65842 C13.1019952,34.2092108 12.9266404,35.240927 12.933076,36.35846 C12.9378095,37.180317 13.0407147,37.9680921 13.2191506,38.5484598 C13.3975865,39.1288275 13.6369343,39.4542399 13.884533,39.4531 L13.884533,39.45396 Z" id="path2161" fill="#E9AFAF" fill-rule="nonzero"></path>
    </g>
</svg>