<svg xmlns="http://www.w3.org/2000/svg" viewBox="0 0 24 24" class="icon" aria-hidden="true" focusable="false"><path d="M3 3c-.55 0-1 .45-1 1v5.5c0 1.69 1.03 3.13 2.5 3.72v6.28c0 .83.67 1.5 1.5 1.5s1.5-.67 1.5-1.5v-6.28c1.47-.59 2.5-2.03 2.5-3.72V4c0-.55-.45-1-1-1s-1 .45-1 1v4c0 .28-.22.5-.5.5S7 8.28 7 8V4c0-.55-.45-1-1-1s-1 .45-1 1v4c0 .28-.22.5-.5.5S4 8.28 4 8V4c0-.55-.45-1-1-1zm13.13 5c-.12 0-.208.08-.228.19l-.16 1.19-.77.44-1.13-.45c-.09-.04-.2 0-.26.1l-.9 1.56a.23.23 0 00.05.29l.95.74-.03.44.03.44-.95.74a.23.23 0 00-.05.29l.9 1.56c.06.1.17.14.26.1l1.14-.45.76.44.16 1.19c.02.11.109.19.229.19h1.8c.11 0 .201-.08.221-.19l.19-1.19.74-.44 1.12.45c.1.04.22 0 .27-.1l.9-1.56a.24.24 0 00-.03-.29l-.97-.74.03-.44-.03-.44.97-.74a.24.24 0 00.03-.29l-.9-1.56a.216.216 0 00-.27-.1l-1.12.45-.74-.44-.19-1.19a.225.225 0 00-.22-.19H16.13zm.901 2.92c.87 0 1.57.71 1.57 1.58 0 .87-.7 1.57-1.57 1.57-.87 0-1.58-.7-1.58-1.57 0-.87.71-1.58 1.58-1.58z"/><path d="M0 0h24v24H0z" fill="none"/></svg>