<svg xmlns="http://www.w3.org/2000/svg" width="24" height="24">
  <rect width="24" height="24" ry="5" fill="red"/>
  <path d="M15 2l-1 1v5l5 11v2l-1 1H6l-1-1v-2l5-11V3L9 2z" fill="#fff"/>
  <path d="M12 14l-1 1v4l1 1 2-1v-2-2l-2-1zm0-1l2 1 1 3-1 3-2 1-2-1v-3-3l2-1z" style="line-height:1.25;-inkscape-font-specification:sans-serif" font-weight="400" font-size="10.6" font-family="sans-serif"/>
  <rect width="1" height="8" x="8" y="13" ry="0"/>
  <rect width="3" height="1" x="15" y="19" ry="0"/>
  <rect width="1" height="3" x="16" y="18" ry="0"/>
</svg>
