<svg xmlns="http://www.w3.org/2000/svg" width="24" height="24"><rect width="24" height="24" ry="5" fill="#f60"/><path d="M15 2l-1 1v5l5 11v2l-1 1H6l-1-1v-2l5-11V3L9 2z" fill="#fff"/><g style="line-height:1.25"><path d="M10.762 19.09h3.778V20H9.46v-.91q.616-.639 1.677-1.71 1.067-1.077 1.34-1.388.52-.584.723-.986.21-.407.21-.798 0-.638-.45-1.04-.446-.402-1.164-.402-.509 0-1.077.177-.562.177-1.205.536v-1.093q.653-.263 1.221-.397.568-.134 1.04-.134 1.243 0 1.983.622.739.621.739 1.661 0 .493-.188.938-.182.44-.67 1.04-.133.155-.851.9-.718.739-2.026 2.073z" style="-inkscape-font-specification:sans-serif" aria-label="2" font-weight="400" font-size="10.974" font-family="sans-serif" stroke-width=".274"/></g></svg>