<svg xmlns="http://www.w3.org/2000/svg" width="24" height="24">
  <rect width="24" height="24" ry="5" fill="red"/>
  <path d="M15 2l-1 1v5l5 11v2l-1 1H6l-1-1v-2l5-11V3L9 2z" fill="#fff"/>
  <g style="line-height:1.25">
    <path d="M12 16l-1 1-1 1 1 1h2l1-1-1-1-1-1zm-1 0l-1-1v-1-1l2-1 2 1v2l-1 1h1l1 2-1 1-2 1-2-1-1-1 1-2h1zm0-2v1h2v-1-1h-2v1z" style="-inkscape-font-specification:sans-serif" aria-label="8" font-weight="400" font-size="10.6" font-family="sans-serif" stroke-width=".3"/>
  </g>
</svg>
