<svg xmlns="http://www.w3.org/2000/svg" width="24" height="24"><rect width="24" height="24" ry="5" fill="red"/><path d="M15 2l-1 1v5l5 11v2l-1 1H6l-1-1v-2l5-11V3L9 2z" fill="#fff"/><g style="line-height:1.25"><path d="M12 16.188q-.744 0-1.172.398-.424.398-.424 1.095t.424 1.095q.428.398 1.172.398t1.172-.398q.429-.403.429-1.095 0-.697-.429-1.095-.423-.398-1.172-.398zm-1.043-.444q-.672-.165-1.049-.625-.372-.46-.372-1.12 0-.925.656-1.462Q10.853 12 12 12q1.152 0 1.808.537.656.537.656 1.462 0 .66-.378 1.12-.371.46-1.038.625.754.176 1.173.687.423.512.423 1.25 0 1.12-.687 1.72Q13.276 20 12 20t-1.963-.6q-.681-.598-.681-1.719 0-.738.423-1.25.424-.511 1.178-.687zm-.382-1.647q0 .599.371.935.377.335 1.054.335.671 0 1.048-.335.383-.336.383-.935 0-.6-.383-.935-.377-.336-1.048-.336-.677 0-1.054.336-.371.336-.371.935z" style="-inkscape-font-specification:sans-serif" aria-label="8" font-weight="400" font-size="10.577" font-family="sans-serif" stroke-width=".264"/></g></svg>