<svg xmlns="http://www.w3.org/2000/svg" width="24" height="24"><rect width="24" height="24" ry="5" fill="red"/><path d="M15 2l-1 1v5l5 11v2l-1 1H6l-1-1v-2l5-11V3L9 2z" fill="#fff"/><g style="line-height:1.25"><path d="M9.836 19.69v-.95q.393.186.795.284.403.098.79.098 1.033 0 1.576-.692.547-.697.625-2.112-.3.444-.76.681-.46.238-1.017.238-1.157 0-1.833-.697-.672-.703-.672-1.916 0-1.188.703-1.906.702-.718 1.87-.718 1.337 0 2.04 1.028.707 1.022.707 2.975 0 1.823-.868 2.912Q12.93 20 11.468 20q-.392 0-.795-.078-.403-.077-.837-.232zm2.076-3.27q.703 0 1.11-.48.414-.48.414-1.316 0-.832-.413-1.312-.408-.486-1.11-.486-.703 0-1.116.486-.408.48-.408 1.312 0 .836.408 1.317.413.48 1.115.48z" style="-inkscape-font-specification:sans-serif" aria-label="9" font-weight="400" font-size="10.577" font-family="sans-serif" stroke-width=".264"/></g></svg>