<svg id="logo_fr_rgb" data-name="logo fr rgb" xmlns="http://www.w3.org/2000/svg" viewBox="0 0 297.3 272.1"><defs><style>.cls-1{fill:#fff}.cls-2{fill:#0073af}.cls-3{fill:#c7c7c6}.cls-6{fill:#1fa138}.cls-7{fill:#e4072f}</style></defs><g id="fillet"><path class="cls-1" d="M251 5c-4 2-8 5-11 10l-1 3a24 24 0 0 0-9-5 17 17 0 0 0-5-1 15 15 0 0 0-9 3 38 38 0 0 0-12 14L61 38c-18 2-32 16-32 33l-2 52a38 38 0 0 0-18 17 51 51 0 0 0-6 26c1 16 9 27 22 31v42c0 17 15 30 34 30h3l138-9c20-1 36-17 36-34v-75a123 123 0 0 0 20-54l1-1 1-1a24 24 0 0 0 5-7 24 24 0 0 0 3 0 25 25 0 0 0 6-1 17 17 0 0 0 13-11 28 28 0 0 0-2-23 21 21 0 0 0-3-4c8-3 12-10 14-18a11 11 0 0 0 0-3 23 23 0 0 0-9-18 18 18 0 0 0-11-3 28 28 0 0 0-4 0 16 16 0 0 0-8-4 19 19 0 0 0-11 2Z"/><path class="cls-1" d="M251 5c-4 2-8 5-11 10l-1 3a24 24 0 0 0-9-5 17 17 0 0 0-5-1 15 15 0 0 0-9 3 38 38 0 0 0-12 14L61 38c-18 2-32 16-32 33l-2 52a38 38 0 0 0-18 17 51 51 0 0 0-6 26c1 16 9 27 22 31v42c0 17 15 30 34 30h3l138-9c20-1 36-17 36-34v-75a123 123 0 0 0 20-54l1-1 1-1a24 24 0 0 0 5-7 24 24 0 0 0 3 0 25 25 0 0 0 6-1 17 17 0 0 0 13-11 28 28 0 0 0-2-23 21 21 0 0 0-3-4c8-3 12-10 14-18a11 11 0 0 0 0-3 23 23 0 0 0-9-18 18 18 0 0 0-11-3 28 28 0 0 0-4 0 16 16 0 0 0-8-4 19 19 0 0 0-11 2Z"/><path class="cls-2" d="M259 3a14 14 0 0 1 3 0 16 16 0 0 1 8 4 28 28 0 0 1 4 0 18 18 0 0 1 11 3 23 23 0 0 1 9 18 11 11 0 0 1 0 3c-2 8-6 14-14 18a21 21 0 0 1 3 4 28 28 0 0 1 2 23 17 17 0 0 1-13 11 25 25 0 0 1-6 1 24 24 0 0 1-3 0 24 24 0 0 1-5 7l-1 1-1 1a123 123 0 0 1-20 54v75c0 17-16 33-36 34l-138 9h-3c-19 0-34-13-34-30v-42c-13-4-21-15-22-31a51 51 0 0 1 6-26 38 38 0 0 1 18-17l2-52c0-17 14-31 32-33l143-9a38 38 0 0 1 12-14 15 15 0 0 1 9-3 17 17 0 0 1 5 1 24 24 0 0 1 9 5l1-3c3-5 7-8 11-10a21 21 0 0 1 8-2m0-3a24 24 0 0 0-9 2c-5 2-9 6-12 11a27 27 0 0 0-7-3 20 20 0 0 0-6-1 18 18 0 0 0-11 4 42 42 0 0 0-12 13L61 35c-20 2-35 18-35 36l-2 50a41 41 0 0 0-5 3 40 40 0 0 0-13 14v1a54 54 0 0 0-6 27c1 16 9 28 22 33v40c0 18 16 33 37 33h3l138-9c21-1 39-18 39-37v-74a127 127 0 0 0 19-53l1-1h1v-1h1a27 27 0 0 0 4-6h1a29 29 0 0 0 6-1c8-2 13-6 16-13a31 31 0 0 0-3-26v-1a29 29 0 0 0 12-19 15 15 0 0 0 0-3 26 26 0 0 0-10-20 21 21 0 0 0-13-4 27 27 0 0 0-3 0 19 19 0 0 0-8-4 17 17 0 0 0-4 0Z"/><path class="cls-2" d="m177 196-127 9-14 1a39 39 0 0 1-8-1v34c0 15 14 27 31 27h2l138-9c19-1 34-15 34-31v-57c-11 15-25 24-56 27Z"/><path class="cls-3" d="m28 198-3-1v7l3 1ZM233 156v13l3-5v-13l-3 5Z"/><path d="m177 189-128 9-13 1a29 29 0 0 1-8-1v7a39 39 0 0 0 8 1l14-1 127-9c31-3 44-12 56-27v-13c-12 18-23 30-56 33Z" style="fill:#124174"/><path class="cls-1" d="M42 232h-3v-17h4c3 0 4 1 4 5s-1 5-4 5h-1Zm0-10c2 0 2 0 2-2s0-3-2-3v6ZM55 227a5 5 0 0 1-1 3 4 4 0 0 1-2 1 3 3 0 0 1-3-1 4 4 0 0 1 0-3v-4a5 5 0 0 1 0-3 4 4 0 0 1 3-2 3 3 0 0 1 2 2 4 4 0 0 1 1 2Zm-4 1 1 1 1-2v-5l-1-2-1 2ZM63 230h-2v-1l-2 2a1 1 0 0 1-2-1v-12h2v10l1 1 1-2v-9h2ZM68 218v1l2-2v3a2 2 0 0 0-2 0 3 3 0 0 0 0 2v8h-3v-12ZM78 229h-2v-16h2ZM84 229v-2a4 4 0 0 1-2 2c-2 0-2-1-2-3s1-3 4-5v-1l-1-2-1 2h-2c0-2 1-4 3-4a3 3 0 0 1 3 1v7a22 22 0 0 0 1 5Zm0-7-2 4 1 1 1-1ZM97 228h-2v-14h-3v-2l8-1v2l-3 1ZM102 222v2l2 2a1 1 0 0 0 0-1 3 3 0 0 0 1-1v-1h2a4 4 0 0 1-1 3 4 4 0 0 1-2 2 3 3 0 0 1-3-1 4 4 0 0 1-1-3v-5a5 5 0 0 1 1-3 4 4 0 0 1 2-1 3 3 0 0 1 3 1 5 5 0 0 1 1 3v2Zm3-3-1-2-2 2v1h3ZM111 214v2l3-2v3a2 2 0 0 0-1 0 2 2 0 0 0-1 0 3 3 0 0 0-1 2v8h-2v-12ZM117 214v2c1-2 2-2 3-2v2a2 2 0 0 0-1 0 2 2 0 0 0-1 1 3 3 0 0 0-1 2v7l-2 1v-13ZM123 220v2c0 2 1 2 2 2a1 1 0 0 0 0-1 3 3 0 0 0 1-1l2-1v1a4 4 0 0 1-1 3 4 4 0 0 1-2 1 3 3 0 0 1-3-1 4 4 0 0 1-1-3v-4a5 5 0 0 1 1-3 4 4 0 0 1 2-2 3 3 0 0 1 3 1 4 4 0 0 1 1 3v3Zm3-3-1-2-2 2v1h3ZM132 225l-1 3-1 1 1-3h-1v-3h2ZM141 225h-2v-17h2ZM145 219v2l1 2a1 1 0 0 0 1-1 3 3 0 0 0 0-1v-1h2v1a4 4 0 0 1 0 2 4 4 0 0 1-3 2 3 3 0 0 1-3-1 4 4 0 0 1 0-3v-5a5 5 0 0 1 0-3 4 4 0 0 1 3-1 3 3 0 0 1 3 1 4 4 0 0 1 0 3v2Zm2-3-1-2-1 2v1h2ZM156 215l-2-2a1 1 0 0 0-1 1l2 2 3 4a3 3 0 0 1-4 4c-2 0-3-1-3-3l2-1a4 4 0 0 0 0 1 1 1 0 0 0 1 1 1 1 0 0 0 2-1l-2-2-3-4a3 3 0 0 1 3-4c2 0 3 1 4 3ZM168 223v-1a4 4 0 0 1-3 1c-1 0-2-1-2-3s1-3 5-5v-1l-1-2-1 2h-2c0-2 1-3 3-4a3 3 0 0 1 3 1v7a22 22 0 0 0 0 5Zm0-6c-2 1-2 2-2 3l1 1 1-1ZM175 211l2-1a1 1 0 0 1 1 0l1 3v9h-3v-9a3 3 0 0 0 0-1l-1 1v9l-3 1v-13h3ZM183 207l-2 1v-3h2Zm0 15h-2v-12l2-1ZM187 211c1-2 2-2 3-2l1 1 3-1a1 1 0 0 1 1 0l1 2v10h-3v-9a3 3 0 0 0 0-1l-2 1v9h-2v-9a3 3 0 0 0 0-1l-2 1v10h-2v-13h2ZM202 221v-2a4 4 0 0 1-3 2c-1 0-2-1-2-3s1-3 5-5v-1l-1-2-1 2h-2c0-2 1-4 3-4a3 3 0 0 1 2 1l1 3v4a22 22 0 0 0 0 4Zm0-7c-2 1-2 2-2 4v1l2-1ZM213 220h-3v-1l-2 1a1 1 0 0 1-2 0v-12h2v10h1l1-1v-9l3-1ZM221 219h-2l-1-3-2 4h-2l2-7-2-6h2l2 3 1-3h2l-2 6ZM82 247v2l1 2a1 1 0 0 0 1-1 3 3 0 0 0 0-1l2-1v1a4 4 0 0 1 0 3 4 4 0 0 1-3 1 3 3 0 0 1-3-1 4 4 0 0 1-1-3v-4a5 5 0 0 1 1-3 4 4 0 0 1 3-2 3 3 0 0 1 2 1 5 5 0 0 1 1 3v3Zm2-3-1-2-1 2v1h2ZM93 242h-2v6l1 2a3 3 0 0 0 1 0v2a6 6 0 0 1-2 0 2 2 0 0 1-2 0v-10h-2v-2h2v-3h2v3h2ZM101 252h-2v-17h2ZM105 246v2l1 1a1 1 0 0 0 1 0 3 3 0 0 0 0-2h2a4 4 0 0 1 0 3 4 4 0 0 1-3 1 3 3 0 0 1-3-1 4 4 0 0 1 0-3v-4a5 5 0 0 1 0-3 4 4 0 0 1 3-1 3 3 0 0 1 3 1 4 4 0 0 1 0 3v2Zm2-4-1-1-1 2v1h2ZM116 242l-2-2a1 1 0 0 0-1 1l2 2 3 4a3 3 0 0 1-3 4c-2 0-4-1-4-4h2a4 4 0 0 0 0 1 1 1 0 0 0 2 1 1 1 0 0 0 1-2l-2-1-3-4a3 3 0 0 1 3-4c2 0 3 1 4 3ZM126 239l2-2a1 1 0 0 1 2 1v12h-2v-9a3 3 0 0 0 0-1l-1-1-1 1v10h-2v-17h2ZM139 245a5 5 0 0 1-1 3 4 4 0 0 1-3 1 3 3 0 0 1-2-1 5 5 0 0 1-1-3v-4a5 5 0 0 1 1-3 4 4 0 0 1 2-1 3 3 0 0 1 3 1 4 4 0 0 1 1 3Zm-5 1 1 1 1-1v-6l-1-1-1 1ZM143 238l2-2 2 1 2-1a1 1 0 0 1 2 0v12h-2v-10h-1l-1 1v9l-2 1v-10a3 3 0 0 0 0-1h-1l-1 1v10h-3v-13h3ZM155 237l3-2 1 1 3-1a1 1 0 0 1 1 0l1 3v9h-2v-9l-1-1-1 1v10h-3v-9a3 3 0 0 0 0-1v-1l-2 1v10h-2v-12l2-1ZM168 241v2l1 2a1 1 0 0 0 1-1 3 3 0 0 0 0-1v-1h2v1a4 4 0 0 1 0 2 4 4 0 0 1-3 2 3 3 0 0 1-3-1 4 4 0 0 1 0-3v-4a5 5 0 0 1 0-3 4 4 0 0 1 3-2 3 3 0 0 1 3 1 4 4 0 0 1 0 3v3Zm2-3-1-2-1 2v1h2ZM179 237l-2-1a1 1 0 0 0-1 1l2 2c2 2 3 2 3 4a3 3 0 0 1-4 3c-2 1-3-1-3-3l2-1a4 4 0 0 0 0 2 1 1 0 0 0 1 0 1 1 0 0 0 2-1l-2-2c-2-2-3-2-3-4a3 3 0 0 1 3-3c2 0 3 0 4 3Z"/><path class="cls-2" d="M286 25a15 15 0 0 0-6-8c-3-3-7-3-10-2l-4 1a7 7 0 0 0-5-5 9 9 0 0 0-5 0 16 16 0 0 0-2 1c-3 1-5 4-7 7a36 36 0 0 0-4 13l-1 9h-1l-1-4a28 28 0 0 0-3-9 16 16 0 0 0-9-8 8 8 0 0 0-7 2c-6 4-10 9-11 16a11 11 0 0 0 2 10l4 3a31 31 0 0 0-5 1c-5 1-9 4-11 9a18 18 0 0 0-1 5v1a16 16 0 0 0 1 5 27 27 0 0 0 1 4c2 5 6 8 11 8a48 48 0 0 0 8 0 55 55 0 0 0 5-2 26 26 0 0 0 1 4c1 3 4 5 6 6a18 18 0 0 0 4 1c4 1 9 1 13-1h1l3-2a16 16 0 0 0 4-9v-4l1 1a17 17 0 0 0 12 2 9 9 0 0 0 7-7 20 20 0 0 0-1-16c-3-5-7-7-12-8h-4l-1-1 1-1h2l10-3a22 22 0 0 0 9-5c3-2 5-7 5-7a12 12 0 0 0 0-7Zm-4 7a16 16 0 0 1-11 9l-11 3a38 38 0 0 0-10 4h-1c-1 1-2 1-1 3l6 1a36 36 0 0 1 9 0c4 1 8 2 10 6a17 17 0 0 1 1 14c0 3-2 4-5 5a14 14 0 0 1-12-4 4 4 0 0 1-1 0 2 2 0 0 0-2-1 2 2 0 0 0 0 2 17 17 0 0 1-1 7c-1 5-4 8-9 9a20 20 0 0 1-11-2 8 8 0 0 1-2-1 6 6 0 0 1-2-6 2 2 0 0 1 1-1 20 20 0 0 0 5-4 3 3 0 0 0 1-1 1 1 0 0 0-1-2 2 2 0 0 0-2 1c-5 5-13 7-21 7-3 0-6-2-8-6s-3-9 0-14 7-7 12-6a52 52 0 0 1 6 1v1l4 2a2 2 0 0 0 2 0v-3a69 69 0 0 1-12-8l-1-2a8 8 0 0 1-2-9 28 28 0 0 1 9-12 5 5 0 0 1 6-1 13 13 0 0 1 8 9l2 6a19 19 0 0 0 3 8 2 2 0 0 0 2 1 2 2 0 0 0 1-2l1-7a57 57 0 0 1 2-14 21 21 0 0 1 5-8 9 9 0 0 1 7-3 4 4 0 0 1 4 4 2 2 0 0 0 3 1l4-1a24 24 0 0 1 4 0 8 8 0 0 1 6 3 12 12 0 0 1 3 7 9 9 0 0 1-1 4Z"/><path d="M230 59a2 2 0 0 0 0-3 7 7 0 0 0 0-1l-5-4-8-6a5 5 0 0 1-1-7 45 45 0 0 1 3-6 17 17 0 0 1 5-6 4 4 0 0 1 4 0 14 14 0 0 1 6 5 31 31 0 0 1 3 9 15 15 0 0 0 5 9l4 3a13 13 0 0 0 6 2 48 48 0 0 0 5 1 28 28 0 0 1 9 1c3 1 6 3 7 6a16 16 0 0 1 0 9c0 3-2 5-6 5a13 13 0 0 1-2 0 13 13 0 0 1-8-4 2 2 0 0 0-4 1 7 7 0 0 0-1 2l1 5c0 3-1 5-4 7a17 17 0 0 1-13 1 4 4 0 0 1-3-4 9 9 0 0 1 2-5 16 16 0 0 0 3-12 29 29 0 0 0 4 0 5 5 0 0 0 4-5 2 2 0 0 0-1-2 5 5 0 0 0-4-1 1 1 0 0 0-1 2 1 1 0 0 0 1 1l1-1c1 0 2 1 1 2a2 2 0 0 1-1 1 14 14 0 0 1-3 1 2 2 0 0 1-2-2 11 11 0 0 1 1-6h1l-1-2a4 4 0 0 0-2 1 8 8 0 0 0 1 11 43 43 0 0 1-4 4 29 29 0 0 1-18 7c-5 0-7-1-9-6a16 16 0 0 1 2-12c1-3 4-5 8-4a52 52 0 0 1 10 3s3 1 4 0Z" style="fill:#78bde3"/><path class="cls-6" d="m271 41-11 3a38 38 0 0 0-10 4h-1c-1 1-2 1-1 3a6 6 0 0 1-3-5 70 70 0 0 1 4-22 19 19 0 0 1 5-7 6 6 0 0 1 4-2c3 0 5 2 5 5v2l1 1 7-1a14 14 0 0 1 7 1 5 5 0 0 1 3 5 13 13 0 0 1-3 8 26 26 0 0 1-7 5"/><path class="cls-7" d="M238 67h-1a8 8 0 0 1-1-11 4 4 0 0 1 2-1l1 2h-1a11 11 0 0 0-1 6 2 2 0 0 0 2 2 14 14 0 0 0 2 0 2 2 0 0 0 2-2l-1-1h-1a1 1 0 0 1-1-1 1 1 0 0 1 1-2 5 5 0 0 1 4 1 2 2 0 0 1 1 2 5 5 0 0 1-4 5 29 29 0 0 1-4 0M240 98a37 37 0 0 1-5 0c-4 23-13 44-29 62a5 5 0 0 0 1 0c12-9 21-20 27-33a100 100 0 0 0 7-29h-1"/><path class="cls-6" d="M179 51v4l-1 6-1 5a42 42 0 0 1-1 6 33 33 0 0 1-3 5 20 20 0 0 1-3 4 15 15 0 0 1-4 3 15 15 0 0 1-11 1 12 12 0 0 1-5-3 14 14 0 0 1-3-4 25 25 0 0 1-1-5 37 37 0 0 1-1-5l-1-6a80 80 0 0 1 0-8l1-8h14l-1 9a72 72 0 0 0-1 9l1 1v5a14 14 0 0 0 1 2 6 6 0 0 0 1 2 2 2 0 0 0 1 0 2 2 0 0 0 1-1 8 8 0 0 0 2-2 23 23 0 0 0 0-3l1-3v-8l1-3v-1l-1-5v-3l14-1v7M141 47v10h-13l-1 6 10-1v8h-9l-1 7 14-1v10l-24 2 1-40 23-1zM103 78h11v10l-22 1 1-39 11-1-1 29zM76 65a6 6 0 0 1-3 1 10 10 0 0 1-2 1l-3 1 1-10h2a11 11 0 0 1 2 0 5 5 0 0 1 2 1 4 4 0 0 1 1 1 3 3 0 0 1 0 2 4 4 0 0 1 0 3m-1 16a6 6 0 0 1-2 1 10 10 0 0 1-2 1 24 24 0 0 1-3 0v-9h3a12 12 0 0 1 2 0 4 4 0 0 1 2 1 4 4 0 0 1 1 1 3 3 0 0 1 0 2 4 4 0 0 1-1 3m14-5a8 8 0 0 0-1-3 8 8 0 0 0-3-2 11 11 0 0 0-3-1 10 10 0 0 0 3-1 9 9 0 0 0 2-2 9 9 0 0 0 1-3 9 9 0 0 0 0-3 11 11 0 0 0 0-4 9 9 0 0 0-2-3 10 10 0 0 0-3-2 15 15 0 0 0-3-1 21 21 0 0 0-4 0 30 30 0 0 0-4 0l-14 1-1 39 15-1h3a31 31 0 0 0 4-1 26 26 0 0 0 4-1 13 13 0 0 0 3-2 10 10 0 0 0 3-3 9 9 0 0 0 1-4 10 10 0 0 0-1-3M159 142v4l-1 6-1 5a43 43 0 0 1-2 6 33 33 0 0 1-2 5 21 21 0 0 1-3 4 15 15 0 0 1-4 3 14 14 0 0 1-5 2 14 14 0 0 1-6-1 13 13 0 0 1-5-3 15 15 0 0 1-3-4 25 25 0 0 1-2-5 39 39 0 0 1-1-5v-6a79 79 0 0 1 0-8l1-8 13-1-1 10a73 73 0 0 0 0 9v1l1 3v2a13 13 0 0 0 1 2 5 5 0 0 0 1 2 1 1 0 0 0 1 0 2 2 0 0 0 1 0 8 8 0 0 0 1-3 23 23 0 0 0 1-3 64 64 0 0 0 1-11v-12l13-1a61 61 0 0 1 1 7M121 137v10l-13 1v5h10v7l-10 1v7l14-1v10l-24 2v-41l23-1zM183 143c0 1 0 2-3 4a32 32 0 0 1-6 5l-1-10a20 20 0 0 1 5-1h1a6 6 0 0 1 3 0 2 2 0 0 1 1 2m1 12c7-4 10-8 10-12a10 10 0 0 0-5-9c-7-5-27 1-27 1l-1 39 13-1v-13l15 14 8-8-13-11"/><path class="cls-6" d="M75 153c1-4 3-6 5-6a5 5 0 0 1 1 0c3 0 5 3 5 10a32 32 0 0 1-1 10c0 4-2 6-4 6a6 6 0 0 1-1 0c-3 0-5-3-6-9a34 34 0 0 1 1-11m-10-4a33 33 0 0 0-3 16c1 11 6 16 16 16a32 32 0 0 0 4 0 17 17 0 0 0 13-9 30 30 0 0 0 4-17 22 22 0 0 0-5-12 13 13 0 0 0-6-4 17 17 0 0 0-5-1 26 26 0 0 0-4 0 18 18 0 0 0-9 4 19 19 0 0 0-5 7M58 109a6 6 0 0 1-2 1 10 10 0 0 1-2 1h-3v-8l3-1a10 10 0 0 1 2 0 4 4 0 0 1 1 1 4 4 0 0 1 2 1 3 3 0 0 1 0 2 4 4 0 0 1-1 3m0 15a6 6 0 0 1-2 2 10 10 0 0 1-3 0 22 22 0 0 1-2 1v-9h3a12 12 0 0 1 2 0 4 4 0 0 1 1 0 4 4 0 0 1 1 2 3 3 0 0 1 1 1 4 4 0 0 1-1 3m13-5a8 8 0 0 0-1-2 8 8 0 0 0-3-2 11 11 0 0 0-3-2 9 9 0 0 0 3-1 9 9 0 0 0 2-2 8 8 0 0 0 1-2 9 9 0 0 0 0-3 10 10 0 0 0 0-4 9 9 0 0 0-2-2 10 10 0 0 0-3-2 15 15 0 0 0-3-2 21 21 0 0 0-4 0 29 29 0 0 0-3 0l-14 1-1 38h14l4-1a29 29 0 0 0 4-1 26 26 0 0 0 4-1 13 13 0 0 0 3-2 9 9 0 0 0 2-3 8 8 0 0 0 1-4 9 9 0 0 0-1-3M158 89v19l-8-18-14 1 1 37 12-1v-18l9 17 12-1V88l-12 1zM85 121h11v9l-22 2 1-38h10v27zM120 114l-4-14-4 14Zm-13-22h18l10 36-13 1-1-7-10 1-2 7H97ZM195 112c-1 3-3 5-4 5-4 0-6-2-6-8a31 31 0 0 1 1-10c1-3 3-5 5-5q4-1 4 7h1l12-5a21 21 0 0 0-4-6 12 12 0 0 0-5-4 19 19 0 0 0-9-1 17 17 0 0 0-8 3 18 18 0 0 0-6 6 31 31 0 0 0-3 16q1 17 19 16a16 16 0 0 0 13-9 28 28 0 0 0 3-9l-13 1v3"/><path class="cls-6" d="M46 185c-8 1-14-1-18-4-3-3-4-8-5-13a35 35 0 0 1 3-18 20 20 0 0 1 16-11 29 29 0 0 1 3-1 20 20 0 0 1 6 1 14 14 0 0 1 7 4 20 20 0 0 1 4 8l-13 4c-1-5-3-8-7-7-2 0-4 2-5 7a36 36 0 0 0-1 12c1 6 3 9 7 9a8 8 0 0 0 1 0c3 0 4-2 5-6v-3l14-1a27 27 0 0 1-3 9 18 18 0 0 1-14 10"/></g></svg>