<svg xmlns="http://www.w3.org/2000/svg" width="24" height="24">
  <rect width="24" height="24" ry="5" fill="#b3b3b3"/>
  <path d="M10 22l1-16h2l1 16z" fill="#fff"/>
  <g fill="#fff">
    <path d="M8 5c0 3 1 4 5 4 0-2-2-4-5-4z"/>
    <path d="M16 5c0 3-1 4-5 4 0-2 2-4 5-4z"/>
    <path d="M12 2c-2 2-2 5 0 7 2-2 2-5 0-7z"/>
  </g>
  <g fill="#fff">
    <path d="M5 14c2 2 3 2 5-1-2-1-4-1-5 1z"/>
    <path d="M8 8c3 2 3 3 1 6-2-1-2-3-1-6z"/>
    <path d="M4 10c1 3 3 4 5 3 0-2-2-4-5-3z"/>
    <path d="M8 13l2 9 2-2-2-8-1 1z"/>
  </g>
  <g fill="#fff">
    <path d="M19 14c-2 2-3 2-5-1 2-1 4-1 5 1z"/>
    <path d="M16 8c-3 2-3 3-1 6 2-1 2-3 1-6z"/>
    <path d="M20 10c-1 3-3 4-5 3 0-2 2-4 5-3z"/>
    <path d="M16 13l-2 9-2-2 2-8 1 1z"/>
  </g>
</svg>
