<svg xmlns="http://www.w3.org/2000/svg" width="24" height="24">
  <rect width="24" height="24" ry="5" fill="red"/>
  <path d="M12 4C9 4 6 6 5 9a2 2 0 00-2 2 2 2 0 002 2c1 4 3 7 7 7 3 0 6-3 7-7a2 2 0 002-2 2 2 0 00-2-2c-1-3-4-5-7-5zm-2 4a4 4 0 012 1 4 4 0 013-1 4 4 0 013 4 4 4 0 01-1 2 5 5 0 01-5 5 5 5 0 01-5-5 4 4 0 01-1-2 4 4 0 014-4z" fill="#fff"/>
  <circle r="1" cy="11.5" cx="9.5" fill="#fff"/>
  <path d="M9 18a3-3 0 013-3 3-3 0 013 3h-1a2-2 0 00-2-2 2-2 0 00-2 2z" fill="#fff"/>
  <circle cx="14.5" cy="11.5" r="1" fill="#fff"/>
</svg>
