<svg xmlns="http://www.w3.org/2000/svg" width="24" height="24">
  <rect width="24" height="24" ry="5" fill="red"/>
  <path d="M2 5c0 4 1 5 5 5 0-3-2-5-5-5z" fill="#fff"/>
  <path d="M7 3c3 3 3 4 0 7-2-2-2-5 0-7zM22 5c0 4-1 5-5 5 0-3 2-5 5-5z" fill="#fff"/>
  <path d="M17 3c-3 3-3 4 0 7 2-2 2-5 0-7zM12 9a7 6 0 00-1 0 1 1 0 010 1 1 1 0 01-1 1 1 1 0 01-1-1 1 1 0 010-1 7 6 0 00-4 6 7 6 0 007 6 7 6 0 007-6 7 6 0 00-4-6 1 1 0 010 1 1 1 0 01-1 1 1 1 0 01-1-1 1 1 0 010-1 7 6 0 00-1 0z" fill="#fff"/>
</svg>
