<svg xmlns="http://www.w3.org/2000/svg" width="274" height="130" viewBox="0 0 1377.6 652.8" fill="none">
  <rect width="1377.6" height="652.8" ry="47.2" fill="#fff"/>
  <path d="M578 48c10-1 19 9 18 18-1 14-19 334-121 436-98 98-214 75-289 21l-3-2-68 68a42 42 0 01-60-60l68-68-2-3c-54-75-77-191 21-289C244 67 564 49 578 48z" fill="#b3b3b3"/>
  <path d="M733 353c-8 0-14-2-18-6s-6-10-6-17V152c0-7 2-13 6-17s10-6 18-6h112c16 0 24 6 24 19s-8 19-24 19h-87v53h81c15 0 23 6 23 19s-8 19-23 19h-81v57h87c16 0 24 6 24 19s-8 19-24 19zm268 3c-22 0-42-5-58-14-17-9-29-23-38-40-9-18-14-38-14-61s5-44 14-61 21-31 38-40c16-9 36-14 58-14 27 0 51 8 72 23l6 8 2 9c0 6-2 10-5 14s-6 6-11 6l-8-1-7-4-24-12c-7-2-15-4-23-4-20 0-35 7-46 20-10 12-15 31-15 56 0 50 20 75 61 75 8 0 15-1 22-3l25-12 8-4 7-1c5 0 8 2 11 6s5 8 5 14a20 20 0 01-8 17c-21 15-45 23-72 23zm210 0c-22 0-41-5-58-14a97 97 0 01-38-40c-8-18-13-38-13-61s5-44 13-61c9-17 22-31 38-40 17-9 36-14 58-14 23 0 42 5 58 14 17 9 29 23 38 40s14 38 14 61-5 43-14 61c-9 17-21 30-38 40-16 9-35 14-58 14zm0-39c19 0 34-6 44-19 11-13 16-32 16-57s-5-44-15-57a54 54 0 00-45-19c-18 0-33 6-44 19a89 89 0 00-15 57c0 25 5 44 16 57 10 13 25 19 43 19zM763 556c-10 0-19-1-27-3l-20-9-5-5-1-7 3-9c2-3 5-4 8-4l4 1 5 2a59 59 0 0032 8c7 0 12-1 16-3 3-2 5-5 5-9 0-3-2-5-5-7s-10-4-19-6c-12-3-22-6-28-9-7-4-12-8-15-12-2-5-4-11-4-18s3-14 7-21c5-6 11-11 19-14 8-4 17-6 27-6 9 0 17 1 23 3 7 2 14 5 19 9a13 13 0 016 12l-3 9c-2 3-5 4-8 4l-4-1-5-2-6-3c-2-2-6-3-10-4l-12-1c-6 0-11 1-15 3-3 3-5 6-5 10l2 5c1 2 4 3 7 4l16 5c12 2 21 5 27 9 7 3 12 7 14 12 3 5 5 10 5 17 0 8-3 15-7 21s-11 10-19 14c-8 3-17 5-27 5zm132 0c-13 0-24-3-34-8-9-6-17-13-22-23s-8-21-8-35c0-13 3-24 8-34s13-17 22-23c10-5 21-8 34-8 15 0 28 4 40 12l4 5 1 7c0 3-1 7-3 9-2 3-4 4-7 4l-5-1-5-2-12-6-12-1c-10 0-18 3-24 9-5 7-7 16-7 29 0 14 2 23 7 30 6 6 14 9 24 9l11-1a174 174 0 0018-8l5-1c3 0 5 1 7 4l3 9-1 7-4 5c-12 8-25 12-40 12zm119 0c-13 0-24-3-34-8-9-6-17-13-22-23s-8-21-8-35c0-13 3-24 8-34s13-17 22-23c10-5 21-8 34-8s24 3 34 8c9 6 17 13 22 23s7 21 7 34c0 14-2 25-7 35-6 10-13 17-23 23-9 5-20 8-33 8zm0-26c10 0 17-3 22-10 6-7 9-17 9-30s-3-22-9-29c-5-7-13-10-22-10-10 0-17 3-23 10-5 6-8 16-8 29 0 14 3 23 8 30 6 7 13 10 23 10zm190 3l3 9c0 4-2 7-5 10-3 2-7 4-11 4a17 17 0 01-14-8l-24-35-5-5-7-2h-11v33c0 5-2 9-5 12s-7 4-12 4-9-1-12-4-4-7-4-12v-97c0-5 1-8 4-11s6-4 11-4h45c16 0 27 3 35 10s12 16 12 29c0 10-3 18-8 24-5 7-13 11-23 14 4 0 8 2 11 4l9 9zm-52-51c8 0 13-2 16-4s5-6 5-11-2-9-5-11c-3-3-8-4-16-4h-23v30zm88 72c-5 0-9-1-12-4-2-3-4-6-4-11v-97c0-5 2-8 4-11 3-3 7-4 12-4h62c5 0 9 1 12 3 2 2 4 6 4 10 0 8-6 13-16 13h-46v24h42c11 0 16 4 16 13 0 4-1 7-4 9s-7 3-12 3h-42v26h46c10 0 16 5 16 13 0 4-2 8-4 10-3 2-7 3-12 3z" fill="#4a4a4a"/>
  <g style="line-height:1.25;-inkscape-font-specification:'Open Sans Bold'">
    <path style="-inkscape-font-specification:'Arial Rounded MT Bold, Bold'" d="M246 254c1-32 29-57 59-63s65 1 85 25c15 20 16 50-1 69-13 17-34 28-46 47-4 10-2 24-14 30-12 7-29-4-28-18-1-20 10-39 25-51 12-12 29-21 33-39 2-18-15-33-32-32-14-1-29 6-34 20-6 10-7 26-20 30-12 5-27-5-27-18zm76 170c-15 1-28-16-23-30 5-16 29-22 40-9 10 11 8 31-7 37l-10 2z" font-family="Arial Rounded MT Bold" aria-label="?" font-weight="700" font-size="318" fill="#fff" stroke-width="8"/>
  </g>
</svg>
