<svg width="240" height="130" xmlns="http://www.w3.org/2000/svg"><path d="M529.871 242.271c0-5.168 4.387-9.372 9.778-9.372h89.203c5.39 0 9.776 4.205 9.776 9.372v40.166c0 5.168-4.386 9.372-9.776 9.372h-89.204c-5.39 0-9.777-4.205-9.777-9.372z" fill="#fff" style="stroke-width:1.63639" transform="matrix(2.20676 0 0 -2.20676 -1169.297 643.952)"/><path fill-rule="evenodd" clip-rule="evenodd" d="M530.935 242.271c0-4.539 3.868-8.308 8.714-8.308h89.203c4.846 0 8.713 3.77 8.713 8.308v40.166c0 4.539-3.867 8.308-8.713 8.308h-89.204c-4.846 0-8.713-3.77-8.713-8.308zm8.714-9.372c-5.39 0-9.778 4.204-9.778 9.372v40.166c0 5.167 4.386 9.372 9.777 9.372h89.204c5.39 0 9.776-4.204 9.776-9.372V242.27c0-5.167-4.386-9.372-9.776-9.372z" fill="#1e8f4e" style="stroke-width:1.63639" transform="matrix(2.20676 0 0 -2.20676 -1169.297 643.952)"/><path d="M597.37 273.964h-11.846c.374-2.743 2.723-4.13 5.038-4.13 3.404 0 5.106 1.652 5.106 1.652v-3.304s-1.702-1.653-5.106-1.653c-5.106 0-8.51 3.304-8.51 8.262s3.404 8.263 7.66 8.263c4.255 0 7.659-3.304 7.659-8.263v-.827zm-11.744 2.48h8.17c-.477 2.213-2.009 3.304-4.086 3.304-2.076 0-3.607-1.091-4.084-3.305zM611.033 282.227v-3.305s-2.48.827-4.131.827c-2.48 0-4.957-1.653-4.957-4.958 0-3.304 2.479-4.957 4.957-4.957 1.653 0 4.13.827 4.13.827v-3.306s-1.652-.826-4.13-.826c-4.957 0-8.263 3.304-8.263 8.262s3.306 8.263 8.263 8.263c2.478 0 4.13-.827 4.13-.827zM628.813 274.79c0-4.957-3.305-8.262-8.262-8.262-4.958 0-8.263 3.304-8.263 8.262s3.305 8.263 8.263 8.263c4.957 0 8.262-3.305 8.262-8.263zm-13.22 0c0-3.304 2.48-4.957 4.958-4.957 2.479 0 4.957 1.653 4.957 4.957 0 3.306-2.48 4.958-4.957 4.958-2.479 0-4.958-1.652-4.958-4.958zM585.687 242.17c-1.683 0-3.365.56-3.365.56v2.243s1.682-.56 3.365-.56c1.12 0 1.682.56 1.682 1.12 0 1.683-5.31.562-5.31 4.487 0 2.242 1.385 3.365 3.628 3.365 1.683 0 3.366-.562 3.366-.562v-2.242s-1.683.56-3.366.56c-1.12 0-1.682-.56-1.682-1.12 0-1.683 5.608-.561 5.608-4.487-.001-2.243-1.684-3.365-3.926-3.365zM598.696 252.823v-2.242s-1.682.56-2.804.56c-1.682 0-3.365-1.12-3.365-3.364 0-2.243 1.683-3.365 3.365-3.365 1.122 0 2.804.561 2.804.561v-2.242s-1.121-.562-2.804-.562c-3.365 0-5.607 2.243-5.607 5.608 0 3.365 2.242 5.608 5.607 5.608 1.683 0 2.804-.562 2.804-.562zM610.832 247.777c0-3.365-2.243-5.608-5.608-5.608-3.365 0-5.608 2.243-5.608 5.608 0 3.365 2.243 5.608 5.608 5.608 3.365 0 5.608-2.243 5.608-5.608zm-8.973 0c0-2.243 1.682-3.365 3.365-3.365 1.683 0 3.365 1.121 3.365 3.365 0 2.243-1.682 3.365-3.365 3.365-1.683 0-3.365-1.122-3.365-3.365zM618.525 253.385v-2.243c-2.243 0-4.487-.561-4.487-3.365v-5.608h-2.242v11.216h2.242v-4.487c.001 2.804 1.683 4.487 4.487 4.487zM628.731 247.216h-7.806c.247-1.862 1.795-2.804 3.32-2.804 2.243 0 3.365 1.121 3.365 1.121v-2.242s-1.122-1.122-3.365-1.122c-3.365 0-5.608 2.243-5.608 5.608 0 3.365 2.243 5.608 5.047 5.608s5.046-2.243 5.046-5.608v-.561zm-7.739 1.682h5.384c-.314 1.503-1.323 2.243-2.691 2.243-1.37 0-2.378-.74-2.693-2.243z" fill="#1d1d1b" style="stroke-width:1.63639" transform="matrix(2.20676 0 0 -2.20676 -1169.297 643.952)"/><path d="M630.207 260.074c0 1.95-1.581 3.53-3.53 3.53H616.5a3.531 3.531 0 0 1 0-7.061h10.175a3.531 3.531 0 0 1 3.531 3.53z" fill="#d93726" style="stroke-width:1.63639" transform="matrix(2.20676 0 0 -2.20676 -1169.297 643.952)"/><path d="M630.652 260.073a3.98 3.98 0 0 0-3.975-3.974h-10.175a3.98 3.98 0 0 0-3.975 3.974 3.979 3.979 0 0 0 3.975 3.975h10.175a3.979 3.979 0 0 0 3.975-3.975zm-3.975-3.085a3.09 3.09 0 0 1 3.086 3.085 3.09 3.09 0 0 1-3.086 3.086h-10.175a3.09 3.09 0 0 1-3.086-3.086 3.09 3.09 0 0 1 3.086-3.085z" fill="#fff" style="stroke-width:1.63639" transform="matrix(2.20676 0 0 -2.20676 -1169.297 643.952)"/><path d="M620.872 260.074c0 1.95-1.58 3.53-3.53 3.53h-9.768a3.531 3.531 0 0 1 0-7.061h9.768a3.532 3.532 0 0 1 3.53 3.53z" fill="#ef7e1a" style="stroke-width:1.63639" transform="matrix(2.20676 0 0 -2.20676 -1169.297 643.952)"/><path d="M621.316 260.073a3.98 3.98 0 0 0-3.974-3.974h-9.749a3.98 3.98 0 0 0-3.974 3.974 3.979 3.979 0 0 0 3.974 3.975h9.749a3.979 3.979 0 0 0 3.974-3.975zm-3.974-3.085a3.09 3.09 0 0 1 3.086 3.085 3.09 3.09 0 0 1-3.086 3.086h-9.749a3.09 3.09 0 0 1-3.086-3.086 3.09 3.09 0 0 1 3.086-3.085z" fill="#fff" style="stroke-width:1.63639" transform="matrix(2.20676 0 0 -2.20676 -1169.297 643.952)"/><path d="M612.083 260.074c0 1.95-1.58 3.53-3.53 3.53h-9.867a3.53 3.53 0 0 1 0-7.061h9.867a3.532 3.532 0 0 1 3.53 3.53z" fill="#f5c100" style="stroke-width:1.63639" transform="matrix(2.20676 0 0 -2.20676 -1169.297 643.952)"/><path d="M612.527 260.073a3.98 3.98 0 0 0-3.974-3.974h-9.867a3.979 3.979 0 0 0-3.975 3.974 3.979 3.979 0 0 0 3.975 3.975h9.867a3.979 3.979 0 0 0 3.974-3.975zm-3.974-3.085a3.09 3.09 0 0 1 3.085 3.085 3.09 3.09 0 0 1-3.085 3.086h-9.867a3.09 3.09 0 0 1-3.086-3.086 3.09 3.09 0 0 1 3.086-3.085z" fill="#fff" style="stroke-width:1.63639" transform="matrix(2.20676 0 0 -2.20676 -1169.297 643.952)"/><path d="M603.175 260.074c0 1.95-1.581 3.53-3.53 3.53h-9.868a3.531 3.531 0 0 1 0-7.061h9.867a3.532 3.532 0 0 1 3.53 3.53z" fill="#2ecc71" style="stroke-width:1.63639" transform="matrix(2.20676 0 0 -2.20676 -1169.297 643.952)"/><path d="M603.619 260.073a3.98 3.98 0 0 0-3.975-3.974h-9.867a3.979 3.979 0 0 0-3.974 3.974 3.979 3.979 0 0 0 3.974 3.975h9.867a3.979 3.979 0 0 0 3.975-3.975zm-3.975-3.085a3.09 3.09 0 0 1 3.086 3.085 3.09 3.09 0 0 1-3.086 3.086h-9.867a3.09 3.09 0 0 1-3.085-3.086 3.09 3.09 0 0 1 3.085-3.085z" fill="#fff" style="stroke-width:1.63639" transform="matrix(2.20676 0 0 -2.20676 -1169.297 643.952)"/><path d="M594.28 260.074c0 1.95-1.58 3.53-3.53 3.53h-6.673a3.531 3.531 0 0 1 0-7.061h6.673a3.532 3.532 0 0 1 3.53 3.53z" fill="#1e8f4e" style="stroke-width:1.63639" transform="matrix(2.20676 0 0 -2.20676 -1169.297 643.952)"/><path d="M594.724 260.073a3.979 3.979 0 0 0-3.974-3.974h-6.673a3.979 3.979 0 0 0-3.975 3.974 3.979 3.979 0 0 0 3.975 3.975h6.673a3.979 3.979 0 0 0 3.974-3.975zm-3.974-3.085a3.09 3.09 0 0 1 3.086 3.085 3.09 3.09 0 0 1-3.086 3.086h-6.673a3.09 3.09 0 0 1-3.086-3.086 3.09 3.09 0 0 1 3.086-3.085z" fill="#fff" style="stroke-width:1.63639" transform="matrix(2.20676 0 0 -2.20676 -1169.297 643.952)"/><path d="M575.444 283.623c.72.06 1.389-.607 1.327-1.327-.089-1.027-1.366-24.357-8.832-31.823-7.156-7.155-15.587-5.476-21.093-1.518a6.07 6.07 0 0 0-.224.171l-4.963-4.956a3.07 3.07 0 0 0-4.342 4.342l4.957 4.962a5.955 5.955 0 0 0-.172.225c-3.957 5.505-5.637 13.936 1.518 21.093 7.467 7.466 30.796 8.744 31.824 8.831z" fill="#1e8f4e" style="stroke-width:1.63639" transform="matrix(2.20676 0 0 -2.20676 -1169.297 643.952)"/><path d="M562.617 255.05c1.076 0 1.846.72 1.846 1.735 0 .367-.061.697-.233 1.174l-4.84 13.127c-.525 1.442-1.381 2.078-2.823 2.078-1.394 0-2.262-.66-2.775-2.09l-4.816-13.115c-.159-.453-.244-.868-.244-1.174 0-1.063.72-1.736 1.87-1.736.978 0 1.528.49 1.87 1.663l.929 2.75h6.368l.929-2.787c.33-1.149.88-1.626 1.919-1.626zm-3.703 7.272h-4.706l2.285 7.224h.086z" fill="#fff" style="stroke-width:1.63639" transform="matrix(2.20676 0 0 -2.20676 -1169.297 643.952)"/></svg>