<svg xmlns="http://www.w3.org/2000/svg" width="240" height="130"><g stroke-width="1.6"><path fill="#fff" d="M1 109c0 12 10 21 22 21h194c12 0 22-9 22-21V21c0-12-10-21-22-21H23C11 0 1 9 1 21z"/><path fill="#1d1d1b" d="M149 39h-26c1 6 6 9 11 9 7 0 11-3 11-3v7s-4 4-11 4c-11 0-19-8-19-18s8-19 17-19 17 8 17 19v1zm-26-5h18c-1-5-4-7-9-7s-8 2-9 7zm56-13v7l-9-1c-5 0-11 3-11 11 0 7 6 10 11 10l9-1v7s-4 2-9 2c-11 0-18-8-18-18s7-19 18-19c5 0 9 2 9 2zm39 17c0 10-7 18-18 18s-18-8-18-18 7-19 18-19 18 8 18 19zm-29 0c0 7 6 10 11 10 6 0 11-3 11-10 0-8-5-11-11-11-5 0-11 3-11 11zm-66 72c-4 0-7-2-7-2v-5l7 2c3 0 4-2 4-3 0-4-12-1-12-10 0-5 3-7 8-7l8 1v5l-8-1-4 2c0 4 13 1 13 10 0 5-4 8-9 8zm29-24v5l-6-1c-4 0-8 2-8 7s4 8 8 8l6-2v5l-6 2c-8 0-13-5-13-13 0-7 5-12 13-12l6 1zm27 11c0 8-5 13-13 13-7 0-12-5-12-13 0-7 5-12 12-12 8 0 13 5 13 12zm-20 0c0 5 4 8 7 8s8-3 8-8-4-7-8-7-7 2-7 7zm37-12v5c-5 0-10 1-10 7v13h-5V85h5v10c0-6 3-10 10-10zm22 13h-17c0 5 4 7 7 7 5 0 8-3 8-3v5s-3 3-8 3c-7 0-12-5-12-13 0-7 5-12 11-12s11 5 11 12v1zm-17-3h12c-1-4-3-5-6-5s-5 1-6 5z"/><path fill="#666" d="M221 70a8 8 0 0 0-7-8h-23a8 8 0 0 0 0 16h23a8 8 0 0 0 7-8z"/><path fill="#fff" d="M222 70a9 9 0 0 1-8 9h-23a9 9 0 0 1-9-9 9 9 0 0 1 9-9h23a9 9 0 0 1 8 9zm-8 7a7 7 0 0 0 6-7 7 7 0 0 0-6-7h-23a7 7 0 0 0-7 7 7 7 0 0 0 7 7z"/><path fill="#878787" d="M201 70a8 8 0 0 0-8-8h-22a8 8 0 0 0 0 16h22a8 8 0 0 0 8-8z"/><path fill="#fff" d="M202 70a9 9 0 0 1-9 9h-21a9 9 0 0 1-9-9 9 9 0 0 1 9-9h21a9 9 0 0 1 9 9zm-9 7a7 7 0 0 0 7-7 7 7 0 0 0-7-7h-21a7 7 0 0 0-7 7 7 7 0 0 0 7 7z"/><path fill="#b3b3b3" d="M181 70a8 8 0 0 0-7-8h-22a8 8 0 0 0 0 16h22a8 8 0 0 0 7-8z"/><path fill="#fff" d="M182 70a9 9 0 0 1-8 9h-22a9 9 0 0 1-9-9 9 9 0 0 1 9-9h22a9 9 0 0 1 8 9zm-8 7a7 7 0 0 0 6-7 7 7 0 0 0-6-7h-22a7 7 0 0 0-7 7 7 7 0 0 0 7 7z"/><path fill="#878787" d="M162 70a8 8 0 0 0-8-8h-22a8 8 0 0 0 0 16h22a8 8 0 0 0 8-8z"/><path fill="#fff" d="M163 70a9 9 0 0 1-9 9h-22a9 9 0 0 1-9-9 9 9 0 0 1 9-9h22a9 9 0 0 1 9 9zm-9 7a7 7 0 0 0 7-7 7 7 0 0 0-7-7h-22a7 7 0 0 0-7 7 7 7 0 0 0 7 7z"/><path fill="#666" d="M142 70a8 8 0 0 0-8-8h-14a8 8 0 0 0 0 16h14a8 8 0 0 0 8-8z"/><path fill="#fff" d="M143 70a9 9 0 0 1-9 9h-14a9 9 0 0 1-9-9 9 9 0 0 1 9-9h14a9 9 0 0 1 9 9zm-9 7a7 7 0 0 0 7-7 7 7 0 0 0-7-7h-14a7 7 0 0 0-7 7 7 7 0 0 0 7 7z"/><path fill="#b3b3b3" d="M101 20c1 0 3 1 2 3 0 2-3 54-19 70s-34 12-47 3l-11 11a7 7 0 0 1-10-10l11-10a13 13 0 0 1 0-1c-9-12-12-31 3-47 17-16 68-19 71-19z"/><path fill="#fff" fill-opacity=".5" d="M1 109c0 12 10 21 22 21h194c12 0 22-9 22-21V21c0-12-10-21-22-21H23C11 0 1 9 1 21z"/><path fill="#b3b3b3" fill-rule="evenodd" d="M2 109c0 10 9 19 20 19h196c11 0 20-9 20-19V21c0-10-9-19-20-19H22C11 2 2 11 2 21zm20 21c-12 0-22-9-22-21V21C0 9 10 0 22 0h196c12 0 22 9 22 21v88c0 12-10 21-22 21z" clip-rule="evenodd"/></g></svg>