<svg width="240" height="130" xmlns="http://www.w3.org/2000/svg"><path d="M529.871 242.271c0-5.168 4.387-9.372 9.778-9.372h88.14c5.39 0 9.776 4.205 9.776 9.372v40.166c0 5.168-4.386 9.372-9.777 9.372h-88.14c-5.39 0-9.777-4.205-9.777-9.372z" fill="#fff" style="stroke-width:1.63639" transform="matrix(2.20676 0 0 -2.20676 -1169.297 643.952)"/><path fill-rule="evenodd" clip-rule="evenodd" d="M530.935 242.271c0-4.539 3.868-8.308 8.714-8.308h89.203c4.846 0 8.713 3.77 8.713 8.308v40.166c0 4.539-3.867 8.308-8.713 8.308h-89.204c-4.846 0-8.713-3.77-8.713-8.308zm8.714-9.372c-5.39 0-9.778 4.204-9.778 9.372v40.166c0 5.167 4.386 9.372 9.777 9.372h89.204c5.39 0 9.776-4.204 9.776-9.372V242.27c0-5.167-4.386-9.372-9.776-9.372z" fill="#b3b3b3" style="stroke-width:1.63639" transform="matrix(2.20676 0 0 -2.20676 -1169.297 643.952)"/><path d="M597.37 273.964h-11.846c.374-2.743 2.723-4.13 5.038-4.13 3.404 0 5.106 1.652 5.106 1.652v-3.304s-1.702-1.653-5.106-1.653c-5.106 0-8.51 3.304-8.51 8.262s3.404 8.263 7.66 8.263c4.255 0 7.659-3.304 7.659-8.263v-.827zm-11.744 2.48h8.17c-.477 2.213-2.009 3.304-4.086 3.304-2.076 0-3.607-1.091-4.084-3.305zM611.033 282.227v-3.305s-2.48.827-4.131.827c-2.48 0-4.957-1.653-4.957-4.958 0-3.304 2.479-4.957 4.957-4.957 1.653 0 4.13.827 4.13.827v-3.306s-1.652-.826-4.13-.826c-4.957 0-8.263 3.304-8.263 8.262s3.306 8.263 8.263 8.263c2.478 0 4.13-.827 4.13-.827zM628.813 274.79c0-4.957-3.305-8.262-8.262-8.262-4.958 0-8.263 3.304-8.263 8.262s3.305 8.263 8.263 8.263c4.957 0 8.262-3.305 8.262-8.263zm-13.22 0c0-3.304 2.48-4.957 4.958-4.957 2.479 0 4.957 1.653 4.957 4.957 0 3.306-2.48 4.958-4.957 4.958-2.479 0-4.958-1.652-4.958-4.958zM585.687 242.17c-1.683 0-3.365.56-3.365.56v2.243s1.682-.56 3.365-.56c1.12 0 1.682.56 1.682 1.12 0 1.683-5.31.562-5.31 4.487 0 2.242 1.385 3.365 3.628 3.365 1.683 0 3.366-.562 3.366-.562v-2.242s-1.683.56-3.366.56c-1.12 0-1.682-.56-1.682-1.12 0-1.683 5.608-.561 5.608-4.487-.001-2.243-1.684-3.365-3.926-3.365zM598.696 252.823v-2.242s-1.682.56-2.804.56c-1.682 0-3.365-1.12-3.365-3.364 0-2.243 1.683-3.365 3.365-3.365 1.122 0 2.804.561 2.804.561v-2.242s-1.121-.562-2.804-.562c-3.365 0-5.607 2.243-5.607 5.608 0 3.365 2.242 5.608 5.607 5.608 1.683 0 2.804-.562 2.804-.562zM610.832 247.777c0-3.365-2.243-5.608-5.608-5.608-3.365 0-5.608 2.243-5.608 5.608 0 3.365 2.243 5.608 5.608 5.608 3.365 0 5.608-2.243 5.608-5.608zm-8.973 0c0-2.243 1.682-3.365 3.365-3.365 1.683 0 3.365 1.121 3.365 3.365 0 2.243-1.682 3.365-3.365 3.365-1.683 0-3.365-1.122-3.365-3.365zM618.525 253.385v-2.243c-2.243 0-4.487-.561-4.487-3.365v-5.608h-2.242v11.216h2.242v-4.487c.001 2.804 1.683 4.487 4.487 4.487zM628.731 247.216h-7.806c.247-1.862 1.795-2.804 3.32-2.804 2.243 0 3.365 1.121 3.365 1.121v-2.242s-1.122-1.122-3.365-1.122c-3.365 0-5.608 2.243-5.608 5.608 0 3.365 2.243 5.608 5.047 5.608s5.046-2.243 5.046-5.608v-.561zm-7.739 1.682h5.384c-.314 1.503-1.323 2.243-2.691 2.243-1.37 0-2.378-.74-2.693-2.243z" fill="#1d1d1b" style="stroke-width:1.63639" transform="matrix(2.20676 0 0 -2.20676 -1169.297 643.952)"/><path d="M630.207 260.074c0 1.95-1.581 3.53-3.53 3.53H616.5a3.531 3.531 0 0 1 0-7.061h10.175a3.531 3.531 0 0 1 3.531 3.53z" fill="#d93726" style="stroke-width:1.63639" transform="matrix(2.20676 0 0 -2.20676 -1169.297 643.952)"/><path d="M630.652 260.074a3.98 3.98 0 0 0-3.975-3.975h-10.175a3.98 3.98 0 0 0-3.975 3.975 3.98 3.98 0 0 0 3.975 3.974h10.175a3.98 3.98 0 0 0 3.975-3.974zm-3.975-3.086a3.09 3.09 0 0 1 3.086 3.086 3.09 3.09 0 0 1-3.086 3.085h-10.175a3.09 3.09 0 0 1-3.086-3.085 3.09 3.09 0 0 1 3.086-3.086z" fill="#fff" style="stroke-width:1.63639" transform="matrix(2.20676 0 0 -2.20676 -1169.297 643.952)"/><path d="M620.872 260.074c0 1.95-1.58 3.53-3.53 3.53h-9.768a3.531 3.531 0 0 1 0-7.061h9.768a3.532 3.532 0 0 1 3.53 3.53z" fill="#ef7e1a" style="stroke-width:1.63639" transform="matrix(2.20676 0 0 -2.20676 -1169.297 643.952)"/><path d="M621.316 260.074a3.98 3.98 0 0 0-3.974-3.975h-9.749a3.98 3.98 0 0 0-3.974 3.975 3.98 3.98 0 0 0 3.974 3.974h9.749a3.98 3.98 0 0 0 3.974-3.974zm-3.974-3.086a3.09 3.09 0 0 1 3.086 3.086 3.09 3.09 0 0 1-3.086 3.085h-9.749a3.09 3.09 0 0 1-3.086-3.085 3.09 3.09 0 0 1 3.086-3.086z" fill="#fff" style="stroke-width:1.63639" transform="matrix(2.20676 0 0 -2.20676 -1169.297 643.952)"/><path d="M612.083 260.074c0 1.95-1.58 3.53-3.53 3.53h-9.867a3.53 3.53 0 0 1 0-7.061h9.867a3.532 3.532 0 0 1 3.53 3.53z" fill="#f5c100" style="stroke-width:1.63639" transform="matrix(2.20676 0 0 -2.20676 -1169.297 643.952)"/><path d="M612.527 260.074a3.98 3.98 0 0 0-3.974-3.975h-9.867a3.98 3.98 0 0 0-3.975 3.975 3.979 3.979 0 0 0 3.975 3.974h9.867a3.98 3.98 0 0 0 3.974-3.974zm-3.974-3.086a3.09 3.09 0 0 1 3.085 3.086 3.09 3.09 0 0 1-3.085 3.085h-9.867a3.09 3.09 0 0 1-3.086-3.085 3.09 3.09 0 0 1 3.086-3.086z" fill="#fff" style="stroke-width:1.63639" transform="matrix(2.20676 0 0 -2.20676 -1169.297 643.952)"/><path d="M603.175 260.074c0 1.95-1.581 3.53-3.53 3.53h-9.868a3.531 3.531 0 0 1 0-7.061h9.867a3.532 3.532 0 0 1 3.53 3.53z" fill="#2ecc71" style="stroke-width:1.63639" transform="matrix(2.20676 0 0 -2.20676 -1169.297 643.952)"/><path d="M603.619 260.074a3.98 3.98 0 0 0-3.975-3.975h-9.867a3.979 3.979 0 0 0-3.974 3.975 3.979 3.979 0 0 0 3.974 3.974h9.867a3.98 3.98 0 0 0 3.975-3.974zm-3.975-3.086a3.09 3.09 0 0 1 3.086 3.086 3.09 3.09 0 0 1-3.086 3.085h-9.867a3.09 3.09 0 0 1-3.085-3.085 3.09 3.09 0 0 1 3.085-3.086z" fill="#fff" style="stroke-width:1.63639" transform="matrix(2.20676 0 0 -2.20676 -1169.297 643.952)"/><path d="M594.28 260.074c0 1.95-1.58 3.53-3.53 3.53h-6.673a3.531 3.531 0 0 1 0-7.061h6.673a3.532 3.532 0 0 1 3.53 3.53z" fill="#1e8f4e" style="stroke-width:1.63639" transform="matrix(2.20676 0 0 -2.20676 -1169.297 643.952)"/><path d="M594.724 260.073a3.979 3.979 0 0 0-3.974-3.974h-6.673a3.979 3.979 0 0 0-3.975 3.974 3.979 3.979 0 0 0 3.975 3.975h6.673a3.979 3.979 0 0 0 3.974-3.975zm-3.974-3.085a3.09 3.09 0 0 1 3.086 3.085 3.09 3.09 0 0 1-3.086 3.086h-6.673a3.09 3.09 0 0 1-3.086-3.086 3.09 3.09 0 0 1 3.086-3.085z" fill="#fff" style="stroke-width:1.63639" transform="matrix(2.20676 0 0 -2.20676 -1169.297 643.952)"/><path d="M575.443 282.755c.72.06 1.389-.607 1.327-1.328-.089-1.026-1.366-24.356-8.832-31.822-7.157-7.155-15.587-5.477-21.093-1.518a5.984 5.984 0 0 0-.224.17l-4.962-4.956a3.071 3.071 0 0 0-4.342 4.342l4.957 4.963a5.963 5.963 0 0 0-.172.224c-3.957 5.505-5.637 13.937 1.518 21.093 7.466 7.466 30.795 8.745 31.823 8.832z" fill="#b3b3b3" style="stroke-width:1.63639" transform="matrix(2.20676 0 0 -2.20676 -1169.297 643.952)"/><path d="M551.145 268.231c.084 2.706 2.505 4.889 5.12 5.378 2.622.563 5.707-.036 7.457-2.152 1.33-1.664 1.434-4.263-.05-5.87-1.183-1.5-3.012-2.417-4.035-4.046-.402-.852-.23-2.084-1.232-2.565-1.068-.586-2.547.345-2.455 1.54-.101 1.713.885 3.3 2.197 4.362 1.052 1.007 2.547 1.818 2.86 3.34.193 1.526-1.313 2.87-2.832 2.78-1.225.083-2.483-.575-2.961-1.707-.479-.915-.578-2.226-1.696-2.647-1.054-.36-2.39.457-2.373 1.587zm6.643-14.601c-1.349-.111-2.458 1.358-1.994 2.595.42 1.39 2.505 1.912 3.486.775.884-.925.67-2.69-.6-3.178a2.092 2.092 0 0 0-.892-.192z" fill="#fff" style="stroke-width:1.63639" transform="matrix(2.20676 0 0 -2.20676 -1169.297 643.952)"/></svg>