<svg xmlns="http://www.w3.org/2000/svg" width="274" height="130" viewBox="0 0 1377.6 652.8" fill="none">
  <rect width="1377.6" height="652.8" ry="47.2" fill="#fff"/>
  <g clip-path="url(#clip0)" transform="translate(-111 -50)">
    <g clip-path="url(#clip1)">
      <path d="M689 98c10 0 19 9 18 19-1 14-18 333-121 435-98 98-213 75-289 21l-3-2-68 68a42 42 0 01-59-60l68-68-3-3c-54-75-77-191 21-289C355 117 675 100 689 98z" fill="#ff6f1e"/>
      <path d="M356 474c-7 0-13-2-17-7-5-4-7-10-7-17V266c0-7 2-13 7-18 4-4 10-6 17-6h66c26 0 47 5 65 14 19 9 32 22 42 40 10 17 15 38 15 62s-5 45-15 62c-9 17-23 31-41 40s-40 14-66 14zm63-42c49 0 74-24 74-74s-25-74-74-74h-35v148z" fill="#fff"/>
    </g>
    <path d="M844 403c-7 0-13-2-17-6s-6-10-6-17V202c0-7 2-13 6-17s10-6 17-6h113c15 0 23 6 23 19s-8 20-23 20h-88v52h81c16 0 24 6 24 19s-8 19-24 19h-81v57h88c15 0 23 6 23 19s-8 19-23 19zm268 3c-22 0-41-5-58-14-16-9-29-23-38-40s-13-38-13-61 4-44 13-61 22-30 38-40c17-9 36-14 58-14 28 0 52 8 72 23l7 8 2 9c0 6-2 11-5 15-3 3-7 5-11 5l-8-1-8-4-23-12c-7-2-15-3-23-3-21 0-36 6-46 19-11 12-16 31-16 56 0 50 21 76 62 76 8 0 15-2 22-4s15-7 24-12l8-4 8-1c4 0 8 2 11 6s5 8 5 14c0 4-1 7-3 10l-6 7c-20 15-44 23-72 23zm211 0c-22 0-42-5-58-14a97 97 0 01-38-40c-9-17-13-38-13-61s4-44 13-61 21-30 38-40c16-9 36-14 58-14s41 5 58 14c16 10 29 23 38 40s13 38 13 61-4 44-13 61-22 30-38 40c-17 9-36 14-58 14zm0-38c19 0 33-7 44-20s16-32 16-57-5-44-16-57a54 54 0 00-44-19c-19 0-34 6-44 19a89 89 0 00-16 57c0 25 5 44 16 57s25 20 44 20zM874 606c-10 0-19-1-27-3-8-3-15-5-20-9l-5-5-1-7 3-9c3-3 5-4 8-4l5 1 5 3a59 59 0 0031 7c7 0 13-1 16-3 4-2 6-5 6-9 0-3-2-5-6-7-3-2-9-4-19-6l-28-9c-7-4-11-8-14-12-3-5-4-11-4-18s2-14 7-20c4-7 11-12 18-15a87 87 0 0150-3c8 2 14 5 20 9a13 13 0 016 12c0 3-2 6-4 9s-4 4-7 4h-4l-6-3-5-3-10-4-12-1c-6 0-11 1-15 4-4 2-6 5-6 9l2 5 8 5 16 4c11 2 20 5 27 9 7 3 11 7 14 12s4 10 4 17c0 8-2 15-7 21-4 6-10 10-18 14-8 3-17 5-28 5zm132 0c-13 0-24-3-34-8-9-5-16-13-22-23-5-10-7-21-7-34 0-14 2-25 7-35 6-10 13-17 22-23 10-5 21-7 34-7 15 0 29 4 40 12l4 4 2 7c0 3-1 7-3 9-2 3-5 4-8 4l-5-1-5-2-12-6-11-1c-11 0-19 3-24 9-5 7-8 16-8 30 0 13 3 23 8 29s13 10 24 10l10-2a177 177 0 0019-8l4-1c3 0 6 1 8 4l3 9-2 7c0 2-2 3-4 5-11 8-25 12-40 12zm119 0c-13 0-24-3-33-8-10-6-17-13-22-23-6-10-8-21-8-34 0-14 2-25 8-35 5-10 12-17 22-23 9-5 20-7 33-7s25 2 34 7c10 6 17 13 22 23s8 21 8 35c0 13-3 24-8 34s-12 17-22 23c-10 5-21 8-34 8zm0-26c10 0 18-3 23-10s8-17 8-29c0-13-3-23-8-30-6-7-13-10-23-10-9 0-17 3-22 10-6 7-8 16-8 30 0 13 2 23 8 29 5 7 13 10 22 10zm190 3l3 9c0 4-1 7-4 10-4 2-7 4-11 4a17 17 0 01-15-8l-23-34-6-6-6-1h-12v32c0 5-1 9-4 12s-7 4-12 4-9-1-12-4-5-7-5-12v-97c0-4 2-8 4-11 3-3 7-4 12-4h45c15 0 27 4 34 10 8 7 12 16 12 29 0 10-2 18-8 25-5 6-12 11-22 13 4 0 7 2 10 4l9 9zm-51-51c7 0 12-1 15-4 4-2 5-6 5-11s-1-9-5-11c-3-3-8-4-15-4h-23v30zm87 72c-5 0-9-1-11-4-3-3-4-6-4-11v-97c0-4 1-8 4-11 2-3 6-4 11-4h62c5 0 9 1 12 3 3 3 4 6 4 10 0 8-5 13-16 13h-45v24h42c10 0 15 4 15 13 0 4-1 7-4 9-2 2-6 3-11 3h-42v27h45c11 0 16 4 16 12 0 5-1 8-4 10s-7 3-12 3z" fill="#4a4a4a"/>
  </g>
  <defs id="defs90">
    <clipPath id="clip0">
      <path fill="#fff" id="rect84" d="M0 0h1600v752H0z"/>
    </clipPath>
    <clipPath id="clip1">
      <path fill="#fff" transform="translate(149 85)" id="rect87" d="M0 0h572v572H0z"/>
    </clipPath>
  </defs>
</svg>
