<svg xmlns="http://www.w3.org/2000/svg" width="274" height="130" viewBox="0 0 1377.6 652.8" fill="none">
  <rect width="1377.6" height="652.8" ry="47.2" fill="#fff"/>
  <g clip-path="url(#clip0)" transform="translate(-112 -50)">
    <g clip-path="url(#clip1)">
      <path d="M690 98c10 0 19 9 18 19-1 14-19 333-121 435-98 98-214 75-289 21l-3-2-68 68a42 42 0 01-60-60l68-68-2-3c-54-75-77-191 21-289C356 117 676 100 690 98z" fill="#eeae0e"/>
      <path d="M453 477c-22 0-42-5-59-15a97 97 0 01-40-41c-9-18-14-39-14-63s5-45 14-63 22-32 40-41c17-10 37-15 59-15 29 0 54 8 75 24l6 8c2 2 2 6 2 10 0 5-1 10-5 14-3 4-6 6-11 6l-8-1-8-4c-9-6-17-10-24-12-8-3-16-4-24-4-21 0-37 7-48 20-10 13-15 32-15 58 0 52 21 78 63 78 8 0 16-1 23-4 7-2 16-6 25-12l8-4 8-1c5 0 8 2 11 6 4 4 5 9 5 14 0 4 0 8-2 10-1 3-3 6-6 8-21 16-46 24-75 24z" fill="#fff"/>
    </g>
    <path d="M845 403c-8 0-14-2-18-6s-6-10-6-17V202c0-7 2-13 6-17s10-6 18-6h112c16 0 24 6 24 19s-8 20-24 20h-87v52h81c15 0 23 6 23 19s-8 19-23 19h-81v57h87c16 0 24 6 24 19s-8 19-24 19zm268 3c-22 0-42-5-58-14-17-9-29-23-38-40s-14-38-14-61 5-44 14-61 21-30 38-40c16-9 36-14 58-14 27 0 51 8 72 23l6 8 2 9c0 6-1 11-5 15-3 3-6 5-11 5l-8-1-7-4-24-12c-7-2-14-3-23-3-20 0-35 6-46 19-10 12-15 31-15 56 0 50 20 76 61 76 8 0 16-2 23-4s15-7 24-12l8-4 7-1c5 0 8 2 11 6 4 4 5 8 5 14l-2 10-6 7c-21 15-45 23-72 23zm210 0c-22 0-41-5-58-14a97 97 0 01-38-40c-8-17-13-38-13-61s5-44 13-61c9-17 22-30 38-40 17-9 36-14 58-14 23 0 42 5 58 14 17 10 30 23 38 40 9 17 14 38 14 61s-5 44-14 61c-8 17-21 30-38 40-16 9-35 14-58 14zm0-38c19 0 34-7 44-20 11-13 17-32 17-57s-6-44-16-57a54 54 0 00-45-19c-18 0-33 6-44 19a89 89 0 00-15 57c0 25 5 44 16 57 10 13 25 20 43 20zM875 606c-10 0-19-1-27-3-8-3-15-5-20-9l-5-5-1-7 3-9c2-3 5-4 8-4l4 1c2 0 3 1 5 3a59 59 0 0032 7c7 0 12-1 16-3 3-2 5-5 5-9 0-3-1-5-5-7-3-2-10-4-19-6-12-3-22-6-28-9-7-4-12-8-15-12-2-5-4-11-4-18s3-14 7-20c5-7 11-12 19-15a87 87 0 0150-3c7 2 14 5 19 9a13 13 0 016 12l-3 9c-2 3-5 4-7 4h-5l-5-3-6-3c-2-2-6-3-10-4l-12-1c-6 0-11 1-15 4-3 2-5 5-5 9l2 5c1 2 4 3 7 5l16 4c12 2 21 5 27 9 7 3 12 7 15 12 2 5 4 10 4 17 0 8-3 15-7 21s-11 10-19 14c-8 3-17 5-27 5zm132 0c-13 0-24-3-34-8-9-5-17-13-22-23s-8-21-8-34c0-14 3-25 8-35s13-17 22-23c10-5 21-7 34-7 15 0 28 4 40 12l4 4 1 7c0 3-1 7-3 9-2 3-4 4-7 4l-5-1-5-2-12-6-12-1c-10 0-18 3-24 9-5 7-7 16-7 30 0 13 2 23 7 29a34 34 0 0034 8 177 177 0 0019-8l5-1c3 0 5 1 7 4l3 9-1 7-4 5c-12 8-25 12-40 12zm119 0c-13 0-24-3-34-8-9-6-17-13-22-23s-8-21-8-34c0-14 3-25 8-35s13-17 22-23c10-5 21-7 34-7s24 2 34 7c9 6 17 13 22 23s7 21 7 35c0 13-2 24-7 34-6 10-13 17-23 23-9 5-20 8-33 8zm0-26c10 0 17-3 22-10 6-7 9-17 9-29 0-13-3-23-9-30-5-7-13-10-22-10-10 0-17 3-23 10-5 7-8 16-8 30 0 13 3 23 8 29 6 7 13 10 23 10zm190 3l3 9c0 4-2 7-5 10-3 2-7 4-11 4a17 17 0 01-14-8l-24-34-5-6-7-1h-11v32c0 5-2 9-5 12s-7 4-12 4-9-1-12-4-4-7-4-12v-97c0-4 1-8 4-11s6-4 11-4h45c16 0 27 4 35 10 8 7 12 16 12 29 0 10-3 18-8 25-5 6-13 11-23 13 4 0 8 2 11 4l9 9zm-52-51c8 0 13-1 16-4 3-2 5-6 5-11s-2-9-5-11c-3-3-8-4-16-4h-23v30zm88 72c-5 0-9-1-12-4-2-3-4-6-4-11v-97c0-4 2-8 4-11 3-3 7-4 12-4h62c5 0 9 1 12 3 2 3 4 6 4 10 0 8-6 13-16 13h-45v24h41c11 0 16 4 16 13 0 4-1 7-4 9s-7 3-12 3h-41v27h45c10 0 16 4 16 12 0 5-2 8-4 10-3 2-7 3-12 3z" fill="#4a4a4a"/>
  </g>
  <defs id="defs66">
    <clipPath id="clip0">
      <path fill="#fff" transform="translate(1)" id="rect60" d="M0 0h1600v752H0z"/>
    </clipPath>
    <clipPath id="clip1">
      <path fill="#fff" transform="translate(149 85)" id="rect63" d="M0 0h572v572H0z"/>
    </clipPath>
  </defs>
</svg>
