<svg xmlns="http://www.w3.org/2000/svg" width="135" height="90"><path d="M0 0h135v90H0z" fill="#97BE0D"/><path d="M76 39c1 0 0 0 0 0-13 4-34 16-42 28l-1 3 1 4-4-1-4 4 1-5-4-1 5-3 2-5 2 4c6-9 15-16 25-21 6-3 12-6 19-7zM50 60l-2 4-4 1 3 3-1 4 3-3 3 3-1-5 4-3h-4l-1-4zm17 0v4l-4-2 3 4-1 4 3-2 3 4-2-5 3-1-3-1-2-5zm12-4-1 3-3-1 3 3-1 3 3-1 3 3-2-4 3-1-3-1-2-4zm10-9-1 4-3-1 3 3-1 3 3-2 3 2-2-3 3-2h-3l-2-4zm-53-4-1 5-5 2 4 1-2 5 4-4 4 1-1-4 3-3-4 1-2-4zm62-9-1 3-4 1 3 2-1 3 3-3 2 1-1-3 3-3-3 2-1-3zm-54-6-1 4-5 1 4 1-1 4 3-3 4 2-1-3 3-2h-5l-1-4zm44-8-2 4-3-1 3 3-1 3 2-2 2 2v-3l2-3-3 1v-4zm-18-2-1 3-3-1 3 3-1 4 2-1 3 3-1-4 3-2-3-1-2-4zm-16 0-1 4-4-1 4 3-1 3 3-2 4 4-2-4 3-2-4-1-2-4zm51 1-1 3-3 1 2 1-1 3 3-3h2l-1-1 2-3-2 1-1-2z" fill="#FFF"/></svg>