<svg xmlns="http://www.w3.org/2000/svg" width="24" height="24"><path d="M14 20c-3.864 1.035-6.876-1.464-7-3 2.898-.776 6.224.102 7 3z" fill="#fff"/><path d="M9.5 6C7 6 4 7 2 12c2 5 5 6 7.5 6 4.142 0 7.5-2.686 7.5-6s-3.358-6-7.5-6zM5.398 8.967a1 1 0 011 1 1 1 0 01-1 1 1 1 0 01-1-1 1 1 0 011-1zM22 7c-3 0-5 2-5 5s2 5 5 5c-.271-2.503-1-5-2.984-5.021C21 12 22 10.46 22 7z" fill="#fff"/><path d="M14 4c-3.864-1.035-6.876 1.464-7 3 2.898.776 6.224-.102 7-3z" fill="#fff"/><g transform="translate(55 -30)"><path fill="#08a" d="M-55 30h24v24h-24z"/><circle cx="-43" cy="42" r="10" fill="#ffe680"/><path d="M-43.02 32A10 10 0 00-53 42a10 10 0 0010 10V32a10 10 0 00-.02 0z" fill="#999"/><circle cx="-47" cy="39.867" r="2" fill="#ffe680"/><circle cx="-39" cy="39.867" r="2" fill="#999"/><path d="M-43 46a3 3 0 01-3-3h-1a4 4 0 004 4z" fill="#ffe680"/><path d="M-43 46v1a4 4 0 004-4h-1a3 3 0 01-3 3z" fill="#999"/><path d="M-43.02 32A10 10 0 00-53 42a10 10 0 0010 10 10 10 0 0010-10 10 10 0 00-10-10 10 10 0 00-.02 0zm.02 2a8 8 0 018 8 8 8 0 01-8 8 8 8 0 01-8-8 8 8 0 018-8z" fill="#fff6d5"/></g></svg>