<svg xmlns="http://www.w3.org/2000/svg" width="24" height="24">
  <path d="M14 20c-4 1-7-1-7-3 3-1 6 0 7 3z" fill="#fff"/>
  <path d="M10 6c-3 0-6 1-8 6 2 5 5 6 8 6 4 0 7-3 7-6s-3-6-7-6zM5 9a1 1 0 011 1 1 1 0 01-1 1 1 1 0 01-1-1 1 1 0 011-1zM22 7c-3 0-5 2-5 5s2 5 5 5c0-3-1-5-3-5 2 0 3-2 3-5z" fill="#fff"/>
  <path d="M14 4c-4-1-7 1-7 3 3 1 6 0 7-3z" fill="#fff"/>
  <g transform="translate(55 -30)">
    <path fill="#08a" d="M-55 30h24v24h-24z"/>
    <circle cx="-43" cy="42" r="10" fill="#ffe680"/>
    <path d="M-43 32a10 10 0 00-10 10 10 10 0 0010 10V32z" fill="#999"/>
    <circle cx="-47" cy="39.9" r="2" fill="#ffe680"/>
    <circle cx="-39" cy="39.9" r="2" fill="#999"/>
    <path d="M-43 46a3 3 0 01-3-3h-1a4 4 0 004 4z" fill="#ffe680"/>
    <path d="M-43 46v1a4 4 0 004-4h-1a3 3 0 01-3 3z" fill="#999"/>
    <path d="M-43 32a10 10 0 00-10 10 10 10 0 0010 10 10 10 0 0010-10 10 10 0 00-10-10zm0 2a8 8 0 018 8 8 8 0 01-8 8 8 8 0 01-8-8 8 8 0 018-8z" fill="#fff6d5"/>
  </g>
</svg>
