<svg xmlns="http://www.w3.org/2000/svg" width="77" height="90" viewBox="0, 0, 77, 90"><path d="M.096 0v90h76.808V0H.096z"/><path d="M38.505 5.612c-6.454 0-12.46 1.9-17.54 5.13-1.265 2.49-2.366 5.757-2.366 9.26 0 .284.012.57.026.857.326 6.275 4.347 11.22 11.636 14.293 3.735 1.574 7.535 2.81 11.213 4.002C53.368 43.01 63.68 46.35 63.68 58.975c0 .13-.012.27-.012.404 4.75-5.692 7.618-13.01 7.618-20.982 0-18.08-14.703-32.786-32.78-32.786zm0 .894c17.584 0 31.887 14.305 31.887 31.892 0 6.634-2.053 13.015-5.903 18.408C63.31 45.222 52.8 41.88 41.75 38.298c-3.653-1.182-7.43-2.404-11.138-3.97-6.953-2.93-10.787-7.603-11.09-13.517l-.023-.81c0-3.508 1.15-6.58 2.16-8.618 5.08-3.183 10.9-4.876 16.845-4.876zM54.075 27.9c-.236 2.193-1.344 4.196-3.125 5.63-1.985 1.6-4.656 2.352-7.328 2.06-2.65-.283-5.088-1.587-6.69-3.575-1.437-1.785-2.1-3.973-1.865-6.164.24-2.22 1.363-4.245 3.173-5.7 1.988-1.602 4.642-2.36 7.278-2.075 2.637.287 5.067 1.587 6.67 3.575 1.454 1.81 2.124 4.025 1.886 6.25zM38.502 7.134c-5.75 0-11.398 1.63-16.36 4.7-.935 1.93-2.016 4.855-2.016 8.15l.02.792c.292 5.656 3.998 10.14 10.71 12.97 3.688 1.557 7.45 2.773 11.09 3.955l.21.066c10.634 3.447 20.974 6.87 22.716 17.36 3.222-5.01 4.89-10.74 4.89-16.73 0-17.238-14.024-31.263-31.26-31.263M53.36 27.82c-.215 2.01-1.232 3.844-2.866 5.16-1.837 1.48-4.316 2.173-6.8 1.906-2.456-.266-4.718-1.473-6.2-3.313-1.323-1.64-1.93-3.643-1.715-5.645.22-2.034 1.254-3.888 2.912-5.228 1.84-1.483 4.302-2.18 6.75-1.917 2.447.263 4.702 1.468 6.184 3.313 1.336 1.658 1.954 3.69 1.733 5.725m-8.006-8.228c-4.403-.473-8.337 2.41-8.77 6.423-.426 3.97 2.802 7.588 7.2 8.062 2.275.245 4.537-.39 6.21-1.736 1.46-1.177 2.372-2.81 2.56-4.603.437-4.018-2.796-7.672-7.2-8.145" fill="#6BB6E3"/><g fill="#FFF"><path d="M5.426 75.04h5.607v1.28H7.11v2.86h3.707v1.28H7.11v4.5H5.425v-9.92M13.893 80.992h2.76l-1.365-4.356h-.03l-1.365 4.356zm.374-5.95h2.027l3.38 9.917h-1.756l-.862-2.688H13.49l-.862 2.687h-1.753l3.392-9.92M20.995 75.04h1.68v9.92h-1.68v-9.92M26.73 79.51h.66c1.05 0 2.143-.214 2.143-1.68 0-1.035-.532-1.596-1.48-1.596h-1.324v3.277zm-1.682-4.47h3.004c1.87 0 3.19.663 3.19 2.602 0 1.567-.947 2.057-1.968 2.3v.03c1.38.302 1.538 1.15 1.768 2.2l.604 2.787h-1.71l-.46-2.142c-.346-1.582-.547-2.113-2.085-2.113h-.66v4.254h-1.682v-9.92M34.81 76.32h-2.49v-1.28h6.657v1.28H36.49v8.64h-1.68v-8.64M42.01 79.51h.66c1.05 0 2.143-.214 2.143-1.68 0-1.035-.53-1.596-1.48-1.596H42.01v3.277zm-1.68-4.47h3.003c1.87 0 3.192.663 3.192 2.602 0 1.567-.95 2.057-1.97 2.3v.03c1.38.302 1.538 1.15 1.768 2.2l.604 2.787h-1.71l-.462-2.142c-.344-1.582-.545-2.113-2.084-2.113h-.66v4.254h-1.68v-9.92M50.62 80.992h2.76l-1.365-4.356h-.03l-1.364 4.356zm.375-5.95h2.026l3.38 9.917h-1.754l-.863-2.688h-3.565l-.862 2.687h-1.753l3.392-9.92M59.46 83.766h.778c1.696 0 2.5-.747 2.5-3.794 0-2.415-.416-3.738-2.5-3.738h-.777v7.532zm-1.68-8.725h2.458c3.176 0 4.355 1.38 4.355 4.932 0 4.585-2.3 4.987-4.355 4.987h-2.46v-9.92M66.246 75.04h5.793v1.28h-4.112v2.86h3.896v1.28h-3.896v3.22h4.226v1.28h-5.908v-9.92"/></g><path d="M14.735 15.877c-5.575 5.884-9.02 13.798-9.02 22.52 0 14.98 10.107 27.617 23.854 31.522 1.55-3.334 2.228-6.33 2.228-9.085 0-8.068-5.756-14.124-12.16-20.87l-.827-.873c-4.49-4.738-5.785-9.905-5.785-14.294 0-3.854.998-7.09 1.71-8.92zm-2.113 3.992c-.287 1.447-.497 3.188-.497 4.928 0 5.67 2.03 10.69 6.035 14.918l.826.863c6.395 6.73 11.917 12.545 11.917 20.255 0 2.517-.67 5.13-1.87 7.925-13.23-4.137-22.42-16.47-22.42-30.362 0-6.654 2.17-13.15 6.01-18.53zM7.24 38.4c0 13.27 8.785 25.304 21.414 29.532 1.048-2.59 1.62-4.936 1.62-7.097 0-7.46-5.445-13.19-11.746-19.824l-.824-.865c-4.12-4.347-6.206-9.512-6.206-15.346 0-.667.155-1.796.214-2.48C8.834 27.155 7.24 32.905 7.24 38.4" fill="#BED832"/></svg>