<svg width="162" height="162" xmlns="http://www.w3.org/2000/svg"><g fill="none" fill-rule="evenodd"><path d="M82 161c-11 0-24-2-28-8l-1-3-4 2c-12 0-35-22-37-35-1-3-1-5 1-7-2 0-4-2-6-5-7-11-7-36 0-47 2-3 4-5 6-5-2-2-2-4-1-7 2-13 25-35 37-35l4 2 1-3c4-6 17-8 28-8 10 0 23 2 27 8l1 3 4-2c12 0 35 22 37 35 1 3 1 5-1 7 8 1 11 15 11 28 0 14-3 28-11 29 2 2 2 4 1 7-2 13-25 35-37 35l-4-2-1 3c-4 6-17 8-27 8" fill="#FFFFFE"/><path d="M81 0C70 0 57 2 52 9v1l-4-1c-6 0-14 5-23 13-6 7-14 16-15 23v7C3 55 0 69 0 81s3 26 10 29v7c1 7 9 16 15 23 9 8 17 13 23 13l4-1v1c5 7 18 9 29 9s24-2 29-9v-1l4 1c6 0 14-5 23-13 6-7 14-16 15-23v-7c7-3 10-17 10-29s-3-26-10-29v-7c-1-7-9-16-15-23-9-8-17-13-23-13l-4 1V9c-5-7-18-9-29-9m0 3c15 0 31 4 27 13 1-3 3-4 6-4 15 0 47 36 32 42l3-1c14 0 14 56 0 56l-3-1c15 6-17 42-32 42-3 0-5-1-6-4 4 9-12 13-27 13s-31-4-27-13c-1 3-3 4-6 4-15 0-47-36-32-42l-3 1c-14 0-14-56 0-56l3 1C1 48 33 12 48 12c3 0 5 1 6 4C50 7 66 3 81 3" fill="#B74E25"/><path fill="#B74E25" d="M17 78v-2l10 1v2zM23 74c2 0 2-1 2-2l-1-2c-1-1-1 1-2 2 0 2-1 3-3 3s-2-3-2-4c0-3 2-4 4-4l-1 2-1 2v2l2-3c1-1 1-3 4-3 1 1 2 2 2 5 0 2-2 4-4 4v-2ZM26 65l2-2v-2l-3 2c-1 2-1 3-3 2-2 0-2-2-2-4 1-2 2-4 4-3v2l-2 2v1c1 1 1 0 3-2 0-1 1-3 3-2s2 2 2 5c-1 2-3 4-5 3l1-2ZM32 51c2 1 3 3 1 5-1 3-3 4-5 2l-6-2 1-2 6 2h3l-1-3-6-3 1-2 6 3ZM37 45l1-1v-4h-4l-1 1 4 4Zm-7-3 3-3c1-2 4-3 6-1s3 5 1 7l-3 3-7-6ZM37 33l2-1 1 2v3-1l-1-2v1l-2-2ZM50 31c2 2 1 4-1 6s-4 1-6-1l-3-5 2-1 3 5h3v-3l-3-5 2-1 3 5ZM50 25l2-1 7 4-3-6 2-1 4 9-2 1-7-4 3 6-2 1zM60 20l7-2 1 2-5 1v2l5-1v2l-4 1v3l5-2 1 2-7 2zM73 17h7v2h-5v2h5v1l-4 1v2h5v2h-7zM85 21l-3-5h3l1 4 3-3h2l-4 4 3 6h-2l-2-4-3 3h-2zM94 23h2c1 1 2 1 2-1l-2-1-1-1-1 3Zm-1-5 4 1c3 1 3 2 3 4 0 1-2 3-4 2h-2l-1 3-2-1 2-9ZM103 20l2 1-3 7 4 2-1 2-6-3zM110 33c2 1 3 0 4-2v-4c-2-1-3 0-4 2v4m5-7c2 1 3 4 1 6-1 3-4 4-7 2-2-1-3-4-1-6 1-3 4-4 7-2M120 30l2 1-6 8-2-1zM125 35l-2-2 1-1 6 6-1 1-3-2-5 6-2-2zM126 45l2 2 2-4-4 2Zm6-4 1 2-6 9-1-2 1-2-2-3-3 1-1-2 11-3ZM135 48l-2-2 2-1 4 7-2 1-1-3-7 4-1-2zM140 54l1 2-9 4-1-2zM135 65c0 2 2 2 4 2 1-1 3-2 2-4 0-2-2-2-4-2-1 1-3 2-2 4m8-3c1 3-1 6-4 7-2 1-5-1-6-3-1-3 1-6 4-7 2-1 5 1 6 3M145 70v2l-6 5 7-1v2l-10 1v-2l6-5-7 1v-2zM28 91l2 8-2 1-1-6h-2l1 6h-2l-1-5-3 1 2 5-2 1-2-8zM30 100l1 2-5 7 7-3 1 2-10 5-1-2 5-7-7 3-1-2zM29 119l-1-2 7-9 1 2-5 6 8-2 1 2zM40 116l2 2-8 7-2-2zM42 124l2 2h2v-2l-2-2-2 2Zm1-5 5 4v4l-3 1v3l-2 2-2-2 2-2v-2l-2-2-3 4-2-2 7-8ZM51 136c2 1 3-1 4-2 1-2 1-4-1-5s-3 1-4 2c-1 2-1 4 1 5m4-8c3 1 4 4 2 7-1 3-4 4-7 2-3-1-4-4-2-7 1-3 4-4 7-2M60 131l3 1 2 8 2-7 2 1-3 10-3-1-2-8-2 7-2-1zM70 134h3l3 8 1-7h2l-1 11h-3l-3-8-1 7h-2zM81 135h8v2h-5v3l5-1v2h-5v3h6v2h-8zM90 135l3-1 5 6v-7l3-1 3 10-2 1-2-8v1l-1 7-1 1-5-7 2 7-2 1zM102 132l7-4 1 2-5 2 1 2 5-2v2l-4 2 1 2 5-2 1 1-7 4zM110 127l2-1 8 3-4-6 1-1 7 9-2 1-8-3 4 6-1 1zM122 120l-3 3-1-2 6-6 2 1-3 3 7 5-2 2zM131 117l1-3-4-1 3 4Zm-6-4 1-2 12 3-1 2-3-1-2 3 1 2-1 2-7-9ZM129 107l1-2 8 4 2-5 2 1-3 7zM132 99l2-8 2 1-1 5 2 1 1-5h2l-1 5 2 1 2-6 2 1-2 8zM43 97l1 2-3 2 2 3 3-2 1 2-9 5-1-2 4-2-2-3-4 2-1-2zM45 111l2 2 2-4h-1l-3 2Zm5-4 1 2-5 9-1-2 1-2-3-3-2 1-1-1 10-4ZM56 122c-1 2-3 3-5 1s-3-4-1-6l3-5 2 1-3 5v3h3l3-5 2 1-4 5ZM62 120l-2-1v-2l8 3-1 2-3-1-3 7-2-1zM68 121l8 2v1l-6-1v2l5 1-1 2-5-1v2l5 1v2l-8-2zM85 132h-2l-4-10h2l3 7 2-7h2zM91 127h3l-2-3-1 3Zm-1-5 2-1 6 9h-2l-1-2-4 1v2l-2 1 1-10ZM95 120l2-1 4 7 4-2 1 2-7 3zM102 117l6-4 1 1-4 3 1 2 4-3 1 2-4 2 2 2 4-3 1 2-6 4zM120 110c2 2 1 4 0 6-2 2-4 3-6 1l-5-5 2-1 4 4h3v-3l-5-4 2-2 5 4ZM120 105l1-2v-2l-2 1-1 2 2 1Zm-5 0 3-4c1-2 2-2 4-2l1 3h3l2 1-1 2-2-1h-3l-1 2 4 2-1 2-9-5ZM24 86a2 2 0 1 1-5-1 2 2 0 0 1 5 1M144 86a2 2 0 1 1-5-1 2 2 0 0 1 5 1M122 80l-1-1h-1l-2-1-1 1-1-1-2-1v1h-2v1l-3-1-2-1-2 1c-2 0-3 2-3 4v1c6-1 13-3 20-3ZM119 54c-1-2-9-4-14-1v-1l1-1v-1h-2v1h-1c1-5-3-12-6-12l-2 3c0 3-2 3-1 5 0 2 3 4 3 4h-2c-2 0-4 2-4 5l3 3 2-1 4-1-1 1v1h2l1-1-1 4 1 2c1 2 2 2 4 2s3-3 3-6l-1-1v-1s2 3 5 2l4-2c1-1 3-2 2-4m-13-4 2-1h1-1l-2 1m0-2-1 1v1h1v-2l-1-1 1 1M117 90l1-1-3 1h2m-22 0h-3a84 84 0 0 1 18 11l2-3a84 84 0 0 0-17-8m7-1v1a89 89 0 0 1 12 6l2-3a103 103 0 0 0-14-4m-6 7a72 72 0 0 0-19-8 78 78 0 0 1 27 18l3-3a88 88 0 0 0-11-7m11-8 3 1 3-1 7-2 1-1a129 129 0 0 0-14 3m-5-2v1a218 218 0 0 1 20-4v-1a133 133 0 0 0-20 4M55 99l-7-6 8 10 6 4-7-8m34-1a69 69 0 0 0-18-9 73 73 0 0 1 26 21l4-2a106 106 0 0 0-12-10m-7 2a67 67 0 0 0-16-10 70 70 0 0 1 23 22l5-1a114 114 0 0 0-12-11m-6 3a65 65 0 0 0-16-12 69 69 0 0 1 20 22 34 34 0 0 0 5 0 97 97 0 0 0-9-10m-14-5-8-6a69 69 0 0 1 15 18v1l6 1a81 81 0 0 0-13-14M73 57l2 3 6-9-10 4 2 2M75 42l-8 11 4 2 4-13M67 53l-4-10-3 10a15 15 0 0 1 7 0M76 61l1 4c2-2 6-3 12-5l-13 1M50 66c-1 2-4 3-9 5l11 1a12 12 0 0 1-2-6"/><path d="M63 73h-3l10-6h4a11 11 0 1 0-11 9v-3Z" fill="#B74E25"/><path d="m51 61-13-1c6 2 10 3 12 5l1-4M59 53l-7-11 4 13 3-2M53 58l2-2-10-4 6 9 2-3M86 71H67l4-2h20l-5 2Zm8-4H70l-10 6h3v4l1-1v-3h22v13h-2v-7l-8-1v6h-5a4 4 0 0 1 0 2l15 2h15V74h2l-9-7ZM47 85a2 2 0 0 0 0-1h1v2l-1-1m-3 0-1-1v-1l-1-2 2-1 1 1v1l1 2-2 1m5 3 2-1-1-3c0-3 2-6 4-6h1l-2-2-2-2-3 1-2-1c-2 0-3 2-3 3v1c-1 0-2 1-2 3l2 2v1c0 2 1 3 2 3l1-1v1l2 1v4h2l-1-1v-3" fill="#B74E25"/><path d="m65 85-2-2-2 2-2-1-1-1-3 2 1 2 2-2c2 0 3 1 3 3l-3 2a2 2 0 0 1-2-3h-1c-1 0-3-1-3-3a3 3 0 0 1 4-3l1-2 2-2 2 2c2 0 3 1 3 3l1-1 2 2-2 2m-3 3v-2h1l-1 2m0 4-1-1v-1l1 1v1m9-7-2-4v-1c0-2-2-4-4-4l-3 1-2-2c-2 0-4 1-4 3v2h-1c-2 0-4 2-4 4s1 4 3 5c1 2 2 3 4 3h2l1 2v3l-1 2h3v-8l3 2c2 0 3-2 3-4v-1l2-3" fill="#B74E25"/></g></svg>