<?xml version="1.0" encoding="UTF-8" standalone="no"?><svg xmlns:dc="http://purl.org/dc/elements/1.1/" xmlns:cc="http://creativecommons.org/ns#" xmlns:rdf="http://www.w3.org/1999/02/22-rdf-syntax-ns#" xmlns:svg="http://www.w3.org/2000/svg" xmlns="http://www.w3.org/2000/svg" xmlns:sodipodi="http://sodipodi.sourceforge.net/DTD/sodipodi-0.dtd" xmlns:inkscape="http://www.inkscape.org/namespaces/inkscape" viewBox="0 0 24 24" version="1.1" id="svg6" sodipodi:docname="lca.svg" inkscape:version="1.0.1 (0767f8302a, 2020-10-17)" class="icon" aria-hidden="true" focusable="false"><metadata id="metadata12"><rdf:RDF><cc:Work rdf:about=""><dc:format>image/svg+xml</dc:format><dc:type rdf:resource="http://purl.org/dc/dcmitype/StillImage"/><dc:title/></cc:Work></rdf:RDF></metadata><defs id="defs10"/><sodipodi:namedview pagecolor="#ffffff" bordercolor="#666666" borderopacity="1" objecttolerance="10" gridtolerance="10" guidetolerance="10" inkscape:pageopacity="0" inkscape:pageshadow="2" inkscape:window-width="2488" inkscape:window-height="1376" id="namedview8" showgrid="true" inkscape:snap-global="true" inkscape:snap-to-guides="false" inkscape:snap-grids="true" inkscape:zoom="39.333333" inkscape:cx="6.2613239" inkscape:cy="12.224025" inkscape:window-x="72" inkscape:window-y="27" inkscape:window-maximized="1" inkscape:current-layer="svg6" inkscape:document-rotation="0"><inkscape:grid type="xygrid" id="grid822"/></sodipodi:namedview><path inkscape:connector-curvature="0" d="M 1e-7,0 H 24 V 24 H 1e-7 Z" id="path2" fill="none"/><path id="path2753" d="M 12 4 A 8 8 0 0 0 5.34375 7.5625 L 7.0078125 8.671875 A 6 6 0 0 1 12 6 L 12 4 z M 16.4375 5.34375 L 15.328125 7.0078125 A 6 6 0 0 1 18 12 L 20 12 A 8 8 0 0 0 16.4375 5.34375 z M 4 12 A 8 8 0 0 0 7.5625 18.65625 L 8.671875 16.992188 A 6 6 0 0 1 6 12 L 4 12 z M 16.992188 15.328125 A 6 6 0 0 1 12 18 L 12 20 A 8 8 0 0 0 18.65625 16.4375 L 16.992188 15.328125 z "/><path d="M 12,4 V 2 l 3,3 -3,3 z" id="path2804"/><path d="m 12,18 v -2 l -3,3 3,3 z" id="path2814"/><path d="M 6,12 H 8 L 5,9 2,12 Z" id="path2816"/><path d="m 19.671286,12 h 2 l -3,3 -3,-3 z" id="path2818"/></svg>