<svg xmlns="http://www.w3.org/2000/svg" width="24" height="24">
  <rect width="24" height="24" ry="5" fill="#f60"/>
  <path d="M7 3S5 7 6 9c1 3 5 5 5 5v6l-4 1v1h9v-1l-4-1v-6s4-2 5-5c1-2-1-6-1-6z" fill="#fff"/>
  <g fill="#fff" font-weight="400" font-size="6.8" font-family="Open Sans">
    <path d="M16 18l-1 1h-2v-1 1h2v-1-1h-1l-1-1v-1l1-1 1 1h-1-1v1h1l1 1 1 1zM20 17v2h-3l-1-2 1-2 1-1 2 1v2zm-3 0v1l1 1 1-1 1-1-1-2h-2v2zM22 20h-2l1-1h1v-1h-2 2v1h-1v1h1z" style="line-height:1.25;-inkscape-font-specification:'Open Sans'"/>
  </g>
</svg>
