<svg xmlns="http://www.w3.org/2000/svg" width="24" height="24"><rect width="24" height="24" ry="5" fill="#f60"/><path d="M2.63 6.416c-2.846 10.625 7.175 6.065 18.731 11.232 2.847-10.625-6.69-5.935-18.73-11.232zM5.517 8.76a2.502 1.997 34.093 011.543.424 2.502 1.997 34.093 011.164 3.033 2.502 1.997 34.093 01-3.121.455 2.502 1.997 34.093 01-1.165-3.033 2.502 1.997 34.093 011.579-.88zm6.156 1.215a2.502 1.997 19.093 01.818.119 2.502 1.997 19.093 011.908 2.629 2.502 1.997 19.093 01-2.896 1.246 2.502 1.997 19.093 01-1.908-2.627 2.502 1.997 19.093 012.078-1.367zm5.676.994a2.502 1.997 34.093 011.543.424 2.502 1.997 34.093 011.162 3.033 2.502 1.997 34.093 01-3.121.455 2.502 1.997 34.093 01-1.162-3.033 2.502 1.997 34.093 011.578-.88z" fill="#fff" fill-rule="evenodd"/></svg>