<svg xmlns="http://www.w3.org/2000/svg" width="24" height="24"><path d="M0 0h24v24H0z" fill="none"/><path d="M11.889 3.84c-3.225 0-5.94 2.196-6.748 5.168A2 2 0 005 9a2 2 0 00-2 2 2 2 0 002 2 2 2 0 00.072-.004C5.772 17.124 8.46 20 11.89 20c3.434 0 6.126-2.885 6.82-7.023A2 2 0 0019 13a2 2 0 002-2 2 2 0 00-2-2 2 2 0 00-.355.033c-.8-2.985-3.522-5.193-6.756-5.193zM9.5 8a3.5 3.5 0 012.447 1.002A5 5 0 0112 9a5 5 0 01.055.002A3.5 3.5 0 0114.5 8a3.5 3.5 0 013.5 3.5 3.5 3.5 0 01-1.002 2.447A5 5 0 0117 14a5 5 0 01-5 5 5 5 0 01-5-5 5 5 0 01.002-.049A3.5 3.5 0 016 11.5 3.5 3.5 0 019.5 8z"/><circle r="1" cy="11.5" cx="9.5"/><circle cx="14.5" cy="11.5" r="1"/><path d="M9 16h6v1H9z"/></svg>