<svg width="65" height="90" fill="none" xmlns="http://www.w3.org/2000/svg"><path d="M60 62H4V6h56v56Z" fill="#fff"/><path d="M60 34a28 28 0 1 0-56 0v28h56V34Z" fill="#006260"/><path d="M40 52c-9 0-13-6-15-11l-2-7h18s-1-18-18-18c-8 0-18 6-18 19s13 26 26 26c19 0 25-13 27-19-5 10-11 11-18 10Z" fill="#fff"/><path d="M50 43a9 9 0 1 0 0-18 9 9 0 0 0 0 18Z" fill="#fff"/><path d="M39 6c10 2 18 10 21 19V6H39ZM4 26C7 15 15 8 25 6H4v20Z" fill="#006260"/><path d="M59 72h-7v-8h7v8Z" fill="#BF2033"/><path d="M55 67h2v-1h-2v1h-1l1 1h-1l-1 1 1 2h3v-1h1v-1l1-1h-1l-1 1h-1l-1 1h1v-1h1v1h-2l-1-1 1-1h1-1v-1Z" fill="#fff"/><path d="m5 81-1 1-1 1h4l-1-1v-3h1c2 0 3-1 3-2 0-2-1-3-3-3H3l1 1h1v6Zm1-6h1l2 2s0 2-2 2l-1-1v-3ZM11 82l-1 1h4v-1l-1-1v-2h1l2 4h3l-1-1-1-1-2-2 1-3-2-2h-4l1 1v7Zm2-7 2 1c0 2-1 2-2 2v-3ZM18 79c0 2 2 4 4 4 4 0 5-3 5-5 0-1-1-4-5-4-2 0-4 2-4 5Zm1 0c0-3 2-5 3-5 3 0 4 2 4 4 0 1 0 5-4 5-1 0-3-1-3-4M35 80l-1-1h-1 5-1l-1 1v2l-3 1c-3 0-5-1-5-4s2-5 5-5h2l1 2s-1-2-3-2c-1 0-4 1-4 5 0 2 2 4 4 4l1-1 1-1v-1ZM40 82h-1l-1 1h4v-1l-1-1v-2h1l2 4h3l-1-1-1-1-2-2c0-1 2-1 2-3l-3-2h-4l1 1h1v7Zm1-7 3 1c0 2-2 2-2 2h-1v-3ZM48 75h-1v-1h6v2-1h-4v3h2l1-1h1l-1 1 1 2h-1v-1h-3v3h4v-1h1l-1 2h-6v-1h1v-7ZM59 76s0-2-2-2l-1 2c0 2 4 2 4 4s-1 3-3 3h-1l-1-1v-2 2l2 1c2 0 2-1 2-2 0-2-4-2-4-5 0-1 1-2 3-2l1 1v1ZM11 65H9l1-1 1 1 1-1 1 1h-1l-1 1v6l-6-6v5l1 1h1-4 1v-1l1-5-1-1H3l1-1v1l1-1 1 1 5 5v1-6ZM18 71v1h-1 3l-1-1-2-7h-1l-3 7v1h-1 3-1v-1l1-2h2l1 2Zm-2-5 1 2h-2l1-2ZM25 65h1l1-1v1l-1 1-2-1v7h1-4 1l1-1v-5l-2-1-2 1 1-1v-1l1 1h4ZM34 66l-1-1v-1l1 1 1-1 1 1h-1l-1 1v3c0 2 0 3-3 3s-3-1-3-3v-4h-1v-1l2 1 1-1v1h-1v5l2 2c2 0 3-1 3-3v-3ZM37 71v1h-1 4-1l-1-1v-2l1-1 1 1 1 3h3-1l-1-1-1-3 1-2-2-2-2 1-2-1v1h1v6Zm1-6h1l2 1c0 2-1 2-2 2h-1v-3ZM45 65h-1l1-1 1 1 4-1v2h-1l-2-1-1 1v2h2l1-1v3-1l-2-1-1 1v2l2 1 1-1 1-1v2h-6 1v-7Z" fill="#006260"/></svg>