<svg xmlns="http://www.w3.org/2000/svg" width="24" height="24"><rect width="24" height="24" ry="5" fill="green"/><path d="M14 20c-3.864 1.035-6.876-1.464-7-3 2.898-.776 6.224.102 7 3z" fill="#fff"/><path d="M9.5 6C7 6 4 7 2 12c2 5 5 6 7.5 6 4.142 0 7.5-2.686 7.5-6s-3.358-6-7.5-6zM5.398 8.967a1 1 0 011 1 1 1 0 01-1 1 1 1 0 01-1-1 1 1 0 011-1zM22 7c-3 0-5 2-5 5s2 5 5 5c-.271-2.503-1-5-2.984-5.021C21 12 22 10.46 22 7z" fill="#fff"/><path d="M14 4c-3.864-1.035-6.876 1.464-7 3 2.898.776 6.224-.102 7-3z" fill="#fff"/><path d="M21.377.623L.623 21.377a4.964 4.964 0 002 2L23.377 2.623a4.964 4.964 0 00-2-2z" fill="#0f0" opacity=".5"/></svg>