<svg xmlns="http://www.w3.org/2000/svg" width="24" height="24"><rect width="24" height="24" ry="5" fill="green"/><path d="m12 21 9-11c1.285 0 1 2 1 2zm0 0-5 1c-1.244-1.433-.545-2.19 0-3zm0 0 9-13c-.294-1.112-.953-1.787-2-2zm0 0L3 10c-1.285 0-1 2-1 2zm0 0 3-17c1.227-.412 2.7.18 3 1zm0 0L3 8c.294-1.112.953-1.787 2-2zm0 0 9-5c1-1 1-2 0-2zm0 0L9 4c-1.227-.412-2.7.18-3 1zm0 0 2-18c-1.57-1.133-2.38-1.124-4 0zm0 0-9-5c-1-1-1-2 0-2zm0 0 5 1c1.244-1.433.545-2.19 0-3z" fill="#fff"/><path d="M21.377.623.623 21.377a4.964 4.964 0 0 0 2 2L23.377 2.623a4.964 4.964 0 0 0-2-2z" fill="#0f0" opacity=".5"/></svg>