<svg xmlns="http://www.w3.org/2000/svg" width="24" height="24">
  <path d="M14 20c-4 1-7-1-7-3 3-1 6 0 7 3z" fill="#fff"/>
  <path d="M10 6c-3 0-6 1-8 6 2 5 5 6 8 6 4 0 7-3 7-6s-3-6-7-6zM5 9a1 1 0 011 1 1 1 0 01-1 1 1 1 0 01-1-1 1 1 0 011-1zM22 7c-3 0-5 2-5 5s2 5 5 5c0-3-1-5-3-5 2 0 3-2 3-5z" fill="#fff"/>
  <path d="M14 4c-4-1-7 1-7 3 3 1 6 0 7-3z" fill="#fff"/>
  <path fill="#b3b3b3" d="M0 0h24v24H0z"/>
  <circle cx="12" cy="12" r="10" fill="#e6e6e6"/>
  <path d="M12 2A10 10 0 002 12a10 10 0 0010 10V2z" fill="#ccc"/>
  <circle cx="8" cy="9.9" r="2" fill="#e6e6e6"/>
  <circle cx="16" cy="9.9" r="2" fill="#ccc"/>
  <path d="M12 16a3 3 0 01-3-3H8a4 4 0 004 4z" fill="#e6e6e6"/>
  <path d="M12 16v1a4 4 0 004-4h-1a3 3 0 01-3 3z" fill="#ccc"/>
  <path d="M12 2A10 10 0 002 12a10 10 0 0010 10 10 10 0 0010-10A10 10 0 0012 2zm0 2a8 8 0 018 8 8 8 0 01-8 8 8 8 0 01-8-8 8 8 0 018-8z" fill="#f2f2f2"/>
  <path d="M0 24h2L24 2V0h-2L0 22z" fill="gray"/>
</svg>
