<svg xmlns="http://www.w3.org/2000/svg" width="68" height="130">
  <path d="M0 36h68v90H0z" fill="#fc0"/>
  <g aria-label="NOVA" style="line-height:0%;-inkscape-font-specification:'Raleway Ultra-Bold'" font-weight="800" font-size="268" font-family="Raleway" letter-spacing="0" word-spacing="0" fill="#7d7d7d" stroke-width="22.3">
    <path d="M5 20v9H1V12h3l8 10V12h4v17h-3zM27 30l-3-1-3-2-2-3-1-3 1-4 2-2q1-2 3-2l3-1 4 1 2 2q2 1 2 3l1 3-1 3-2 3-2 2-4 1zm-4-9v2l1 1 1 2h4l2-2v-1l1-2-1-2-1-2-1-1h-4l-1 1-1 2v2zM40 12l4 12 4-12h4l-6 17h-4l-6-17zM57 12h4l6 17h-4l-1-3h-6l-1 3h-4zm4 11l-2-6-2 6z" style="-inkscape-font-specification:'Raleway Ultra-Bold'"/>
  </g>
  <g style="line-height:1.25">
    <path d="M55 108H17v-8l14-14 8-8 2-5 1-4q0-3-2-5l-4-1-7 1-6 4-6-7 7-5 5-2 7-1q5 0 9 2t6 5l2 8-1 7-4 7-10 9-7 7h24z" style="-inkscape-font-specification:'Open Sans Bold'" font-weight="700" font-family="Open Sans" aria-label="2" font-size="829.6" letter-spacing="0" word-spacing="0" fill="#fff" stroke-width="20.7"/>
  </g>
</svg>
