<svg xmlns="http://www.w3.org/2000/svg" width="68" height="130"><path fill="#f60" d="M0 36h68v90H0z"/><g aria-label="NOVA" style="line-height:0%;-inkscape-font-specification:'Raleway Ultra-Bold'" font-weight="800" font-size="267.972" font-family="Raleway" letter-spacing="0" word-spacing="0" fill="#7d7d7d" stroke-width="22.331"><path d="M4.865 19.555v9.942H.85V12.11h3.135l8.105 10.212V12.11h4.017v17.387h-3.233zM27.071 29.644q-1.935 0-3.526-.76-1.592-.758-2.719-1.983-1.126-1.249-1.763-2.84-.612-1.592-.612-3.282 0-1.714.637-3.306.66-1.592 1.812-2.792 1.175-1.224 2.767-1.934 1.592-.735 3.477-.735 1.935 0 3.527.76 1.592.758 2.718 2.007 1.127 1.25 1.739 2.841.612 1.592.612 3.233 0 1.714-.661 3.306-.637 1.591-1.788 2.816-1.15 1.2-2.743 1.934-1.591.735-3.477.735zm-4.53-8.816q0 1.004.293 1.96.294.93.857 1.664.588.735 1.445 1.176.857.44 1.96.44 1.15 0 2.008-.465.857-.465 1.42-1.2.563-.759.833-1.69.293-.954.293-1.934 0-1.004-.293-1.935-.294-.955-.882-1.665-.588-.735-1.445-1.15-.833-.442-1.935-.442-1.15 0-2.008.466-.832.44-1.42 1.175-.563.735-.857 1.69-.27.93-.27 1.91zM39.961 12.11l4.09 12.342 4.04-12.342h4.237l-6.587 17.387h-3.38l-6.66-17.387zM57.184 12.11h3.624l6.343 17.387h-4.114l-1.347-3.894h-5.412l-1.323 3.894h-4.114zm3.845 10.726l-2.033-6.147-2.081 6.147z" style="-inkscape-font-specification:'Raleway Ultra-Bold'"/></g><g style="line-height:1.25"><path d="M52.655 66.044q0 5.072-3.073 8.626-3.072 3.553-8.625 4.886v.222q6.552.815 9.921 3.998 3.369 3.147 3.369 8.514 0 7.811-5.664 12.18-5.664 4.33-16.177 4.33-8.81 0-15.622-2.924V96.14q3.146 1.592 6.922 2.592t7.478 1q5.664 0 8.366-1.926 2.703-1.925 2.703-6.182 0-3.813-3.11-5.405-3.11-1.591-9.921-1.591h-4.109v-8.774h4.183q6.293 0 9.18-1.629 2.925-1.666 2.925-5.664 0-6.145-7.7-6.145-2.665 0-5.441.889-2.74.888-6.109 3.072l-5.293-7.885q7.404-5.33 17.658-5.33 8.403 0 13.252 3.405 4.887 3.406 4.887 9.477z" style="-inkscape-font-specification:'Open Sans Bold'" font-weight="700" font-family="Open Sans" aria-label="3" font-size="829.604" letter-spacing="0" word-spacing="0" fill="#fff" stroke-width="20.74"/></g></svg>