<?xml version="1.0" encoding="UTF-8"?>
<svg id="Calque_1" xmlns="http://www.w3.org/2000/svg" viewBox="0 0 68 113.99">
  <path d="m0,23.99h68v90H0V23.99Z" fill="#b3b3b3" />
  <path d="m4.86,7.54v9.94H.85V.1h3.14l8.11,10.21V.1h4.02v17.39h-3.23L4.86,7.54Zm22.21,10.09c-1.29,0-2.47-.25-3.53-.76-1.06-.51-1.97-1.17-2.72-1.98-.75-.83-1.34-1.78-1.76-2.84-.41-1.06-.61-2.16-.61-3.28s.21-2.24.64-3.31c.44-1.06,1.04-1.99,1.81-2.79.78-.82,1.71-1.46,2.77-1.93,1.06-.49,2.22-.73,3.48-.73s2.47.25,3.53.76c1.06.51,1.97,1.17,2.72,2.01.75.83,1.33,1.78,1.74,2.84.41,1.06.61,2.14.61,3.23s-.22,2.24-.66,3.31c-.42,1.06-1.02,2-1.79,2.82-.77.8-1.68,1.44-2.74,1.93-1.06.49-2.22.74-3.48.73Zm-4.53-8.82c0,.67.1,1.32.29,1.96.2.62.48,1.17.86,1.66.39.49.87.88,1.44,1.18.57.29,1.22.44,1.96.44s1.44-.15,2.01-.47c.57-.31,1.04-.71,1.42-1.2.38-.51.65-1.07.83-1.69.2-.64.29-1.28.29-1.93s-.1-1.31-.29-1.93c-.2-.64-.49-1.19-.88-1.67-.39-.49-.87-.87-1.44-1.15-.56-.29-1.2-.44-1.93-.44s-1.44.16-2.01.47c-.55.29-1.03.68-1.42,1.17-.38.49-.66,1.05-.86,1.69-.18.62-.27,1.26-.27,1.91h0ZM39.96.1l4.09,12.34L48.09.1h4.24l-6.59,17.39h-3.38L35.7.1h4.26ZM57.18.1h3.62l6.34,17.39h-4.11l-1.35-3.89h-5.41l-1.32,3.89h-4.11L57.18.1Zm3.85,10.73l-2.03-6.15-2.08,6.15h4.11Z" fill="#b3b3b3" />
  <g isolation="isolate">
    <text transform="translate(18.12 96.05)" fill="#fff" font-family="Raleway-Bold, Raleway" font-size="75.28" font-weight="700" isolation="isolate">
      <tspan x="0" y="0">?</tspan>
    </text>
  </g>
</svg>
