<svg xmlns="http://www.w3.org/2000/svg" id="svg2032" width="240" height="162" version="1.1" viewBox="0 0 240 162">
<rect
     style="fill:#ffffff;fill-opacity:1;stroke:none;stroke-width:2.65346;stroke-linecap:round;stroke-linejoin:round;paint-order:stroke fill markers"
     id="rect18499"
     width="239.17799"
     height="30"
     x="0"
     y="98" />
  <defs id="defs2029">
    <clipPath id="clipPath1836" clipPathUnits="userSpaceOnUse">
      <path id="path1838" stroke-width="1" d="M-576.406-131.683h841.89v595.276h-841.89z"/>
    </clipPath>
    <clipPath id="clipPath1817" clipPathUnits="userSpaceOnUse">
      <path id="path1819" stroke-width="1" d="M-480.445-91.617h841.89V503.66h-841.89z"/>
    </clipPath>
    <clipPath id="clipPath1872" clipPathUnits="userSpaceOnUse">
      <path id="path1874" stroke-width="1" d="M-488.313-132.237h841.89v595.276h-841.89z"/>
    </clipPath>
    <clipPath id="clipPath1878" clipPathUnits="userSpaceOnUse">
      <path id="path1880" stroke-width="1" d="M-519.714-136.177h841.89V459.1h-841.89z"/>
    </clipPath>
    <clipPath id="clipPath1886" clipPathUnits="userSpaceOnUse">
      <path id="path1888" stroke-width="1" d="M-521.325-134.642h841.89v595.276h-841.89z"/>
    </clipPath>
    <clipPath id="clipPath1892" clipPathUnits="userSpaceOnUse">
      <path id="path1894" stroke-width="1" d="M-532.144-130.648h841.89v595.276h-841.89z"/>
    </clipPath>
    <clipPath id="clipPath1898" clipPathUnits="userSpaceOnUse">
      <path id="path1900" stroke-width="1" d="M-500.02-102.749h841.89v595.276h-841.89z"/>
    </clipPath>
    <clipPath id="clipPath1904" clipPathUnits="userSpaceOnUse">
      <path id="path1906" stroke-width="1" d="M-522.55-115.224h841.89v595.276h-841.89z"/>
    </clipPath>
    <clipPath id="clipPath1910" clipPathUnits="userSpaceOnUse">
      <path id="path1912" stroke-width="1" d="M-561.373-85.195h841.89v595.276h-841.89z"/>
    </clipPath>
    <clipPath id="clipPath1916" clipPathUnits="userSpaceOnUse">
      <path id="path1918" stroke-width="1" d="M-562.786-87.568h841.89v595.276h-841.89z"/>
    </clipPath>
    <clipPath id="clipPath1593" clipPathUnits="userSpaceOnUse">
      <path id="path1595" stroke-width="1" d="M-503.056-291.81h841.89v595.277h-841.89z"/>
    </clipPath>
    <clipPath id="clipPath1929" clipPathUnits="userSpaceOnUse">
      <path id="path1931" stroke-width="1" d="M-503.055-239.322h841.89v595.276h-841.89z"/>
    </clipPath>
    <clipPath id="clipPath1605" clipPathUnits="userSpaceOnUse">
      <path id="path1607" stroke-width="1" d="M-427.382-279.942h841.89v595.276h-841.89z"/>
    </clipPath>
    <clipPath id="clipPath1618" clipPathUnits="userSpaceOnUse">
      <path id="path1620" stroke-width="1" d="M-458.785-283.881h841.89v595.276h-841.89z"/>
    </clipPath>
    <clipPath id="clipPath1611" clipPathUnits="userSpaceOnUse">
      <path id="path1613" stroke-width="1" d="M-460.394-282.347h841.89v595.276h-841.89z"/>
    </clipPath>
    <clipPath id="clipPath1599" clipPathUnits="userSpaceOnUse">
      <path id="path1601" stroke-width="1" d="M-471.214-278.353h841.89v595.276h-841.89z"/>
    </clipPath>
    <clipPath id="clipPath1624" clipPathUnits="userSpaceOnUse">
      <path id="path1626" stroke-width="1" d="M-441.091-250.452h841.89v595.276h-841.89z"/>
    </clipPath>
    <clipPath id="clipPath1630" clipPathUnits="userSpaceOnUse">
      <path id="path1632" stroke-width="1" d="M-461.62-262.929h841.89v595.276h-841.89z"/>
    </clipPath>
    <clipPath id="clipPath1636" clipPathUnits="userSpaceOnUse">
      <path id="path1638" stroke-width="1" d="M-478.601-250.452h841.89v595.276h-841.89z"/>
    </clipPath>
    <clipPath id="clipPath1642" clipPathUnits="userSpaceOnUse">
      <path id="path1644" stroke-width="1" d="M-420.708-232.9h841.89v595.276h-841.89z"/>
    </clipPath>
    <clipPath id="clipPath1922" clipPathUnits="userSpaceOnUse">
      <path id="path1924" stroke-width="1" d="M-422.121-235.273h841.89v595.276h-841.89z"/>
    </clipPath>
    <clipPath id="clipPath1866" clipPathUnits="userSpaceOnUse">
      <path id="path1868" stroke-width="1" d="M-625.833-291.81h841.89v595.277h-841.89z"/>
    </clipPath>
    <clipPath id="clipPath1717" clipPathUnits="userSpaceOnUse">
      <path id="path1719" stroke-width="1" d="M-625.833-239.322h841.89v595.276h-841.89z"/>
    </clipPath>
    <clipPath id="clipPath1729" clipPathUnits="userSpaceOnUse">
      <path id="path1731" stroke-width="1" d="M-542.292-239.322h841.89v595.276h-841.89z"/>
    </clipPath>
    <clipPath id="clipPath1735" clipPathUnits="userSpaceOnUse">
      <path id="path1737" stroke-width="1" d="M-586.47-262.929h841.89v595.276h-841.89z"/>
    </clipPath>
    <clipPath id="clipPath1741" clipPathUnits="userSpaceOnUse">
      <path id="path1743" stroke-width="1" d="M-601.38-250.452h841.89v595.276h-841.89z"/>
    </clipPath>
    <clipPath id="clipPath1747" clipPathUnits="userSpaceOnUse">
      <path id="path1749" stroke-width="1" d="M-550.16-279.942h841.89v595.276h-841.89z"/>
    </clipPath>
    <clipPath id="clipPath1759" clipPathUnits="userSpaceOnUse">
      <path id="path1761" stroke-width="1" d="M-581.562-283.881h841.89v595.276h-841.89z"/>
    </clipPath>
    <clipPath id="clipPath1765" clipPathUnits="userSpaceOnUse">
      <path id="path1767" stroke-width="1" d="M-583.172-282.347h841.89v595.276h-841.89z"/>
    </clipPath>
    <clipPath id="clipPath1773" clipPathUnits="userSpaceOnUse">
      <path id="path1775" stroke-width="1" d="M-593.991-278.353h841.89v595.276h-841.89z"/>
    </clipPath>
    <clipPath id="clipPath1779" clipPathUnits="userSpaceOnUse">
      <path id="path1781" stroke-width="1" d="M-563.464-232.9h841.89v595.276h-841.89z"/>
    </clipPath>
    <clipPath id="clipPath1785" clipPathUnits="userSpaceOnUse">
      <path id="path1787" stroke-width="1" d="M-564.877-235.273h841.89v595.276h-841.89z"/>
    </clipPath>
    <clipPath id="clipPath1792" clipPathUnits="userSpaceOnUse">
      <path id="path1794" stroke-width="1" d="M-503.055-216.392h841.89v595.276h-841.89z"/>
    </clipPath>
    <clipPath id="clipPath1753" clipPathUnits="userSpaceOnUse">
      <path id="path1755" stroke-width="1" d="M-503.055-163.905h841.89v595.276h-841.89z"/>
    </clipPath>
    <clipPath id="clipPath1723" clipPathUnits="userSpaceOnUse">
      <path id="path1725" stroke-width="1" d="M-419.514-163.905h841.89v595.276h-841.89z"/>
    </clipPath>
    <clipPath id="clipPath1798" clipPathUnits="userSpaceOnUse">
      <path id="path1800" stroke-width="1" d="M-427.382-204.525h841.89v595.276h-841.89z"/>
    </clipPath>
    <clipPath id="clipPath1804" clipPathUnits="userSpaceOnUse">
      <path id="path1806" stroke-width="1" d="M-458.784-208.465h841.89v595.276h-841.89z"/>
    </clipPath>
    <clipPath id="clipPath1810" clipPathUnits="userSpaceOnUse">
      <path id="path1812" stroke-width="1" d="M-460.394-206.93h841.89v595.276h-841.89z"/>
    </clipPath>
    <clipPath id="clipPath1823" clipPathUnits="userSpaceOnUse">
      <path id="path1825" stroke-width="1" d="M-471.213-202.936h841.89V392.34h-841.89z"/>
    </clipPath>
    <clipPath id="clipPath1830" clipPathUnits="userSpaceOnUse">
      <path id="path1832" stroke-width="1" d="M-437.456-175.036h841.89V420.24h-841.89z"/>
    </clipPath>
    <clipPath id="clipPath1848" clipPathUnits="userSpaceOnUse">
      <path id="path1850" stroke-width="1" d="M-480.209-175.036h841.89V420.24h-841.89z"/>
    </clipPath>
    <clipPath id="clipPath1842" clipPathUnits="userSpaceOnUse">
      <path id="path1844" stroke-width="1" d="M-460.551-157.483h841.89v595.276h-841.89z"/>
    </clipPath>
    <clipPath id="clipPath1854" clipPathUnits="userSpaceOnUse">
      <path id="path1856" stroke-width="1" d="M-461.964-159.856h841.89V435.42h-841.89z"/>
    </clipPath>
    <clipPath id="clipPath1860" clipPathUnits="userSpaceOnUse">
      <path id="path1862" stroke-width="1" d="M-452.876-180.763h841.89v595.276h-841.89z"/>
    </clipPath>
  </defs>
  <g id="layer1">
    <g id="g2493">
      <g id="g2568" fill-opacity="1" fill-rule="nonzero" stroke="none">
        <path id="path488" fill="#fff" d="M211.766 0H27.411C12.297 0 .001 12.298.001 27.41v70.768c0 15.117 12.296 27.413 27.41 27.413h74.384A31.623 31.623 0 0 0 117.97 130h3.118c5.958 0 11.502-1.633 16.178-4.41h74.5c15.116 0 27.41-12.295 27.41-27.412V27.41c0-15.112-12.294-27.41-27.41-27.41" clip-path="url(#clipPath1792)"/>
        <path id="path492" fill="#e63312" d="M211.766 115.826h-26.251V44.318h26.251a17.647 17.647 0 0 1 17.65 17.647v36.211a17.65 17.65 0 0 1-17.65 17.65" clip-path="url(#clipPath1753)"/>
        <path id="path496" fill="#00803d" d="M27.411 115.826h26.252V44.318H27.41A17.647 17.647 0 0 0 9.764 61.965v36.211a17.647 17.647 0 0 0 17.647 17.65" clip-path="url(#clipPath1723)"/>
        <path id="path500" fill="#f28f66" d="M217.581 64.194h-20.236v31.87h20.428v-4.802h-14.278v-9.378h10.001V77.08h-10v-8.084h14.085z"/>
        <path id="path504" fill="#7c7b7b" d="M23.183 19.799v9.751h-3.939V12.496h3.074l7.949 10.017V12.496h3.941V29.55h-3.171z"/>
        <path id="path516" fill="#7c7b7b" d="M44.774 26.187c.673 0 1.242-.139 1.706-.419.465-.28.84-.653 1.13-1.117.287-.465.492-.997.611-1.597.121-.6.18-1.214.18-1.839v-8.718h3.94v8.718c0 1.188-.148 2.291-.446 3.315a7.631 7.631 0 0 1-1.368 2.692 6.422 6.422 0 0 1-2.355 1.814c-.953.437-2.085.658-3.398.658-1.362 0-2.522-.23-3.482-.695-.962-.464-1.744-1.084-2.342-1.863-.602-.777-1.041-1.677-1.321-2.7a12.15 12.15 0 0 1-.422-3.22v-8.72h3.94v8.72c0 .655.063 1.282.193 1.875a4.965 4.965 0 0 0 .625 1.585c.287.463.66.832 1.116 1.103.457.274 1.02.408 1.693.408" clip-path="url(#clipPath1798)"/>
        <path id="path520" fill="#7c7b7b" d="M68.362 15.959h-5.19v13.594h-3.94V15.959H54.02v-3.463h14.344z"/>
        <path id="path532" fill="#7c7b7b" d="M70.306 29.55V12.496h7.686c.801 0 1.545.17 2.225.506a5.92 5.92 0 0 1 1.765 1.322c.495.545.883 1.16 1.163 1.849a5.495 5.495 0 0 1 .422 2.09 6.06 6.06 0 0 1-.192 1.522 6.029 6.029 0 0 1-.552 1.384 5.274 5.274 0 0 1-2.043 2.041l3.914 6.34h-4.442l-3.436-5.499h-2.57v5.5zm3.94-8.937h3.603c.466 0 .863-.216 1.203-.658.335-.441.503-1.004.503-1.692 0-.706-.192-1.265-.578-1.684-.384-.415-.801-.622-1.247-.622h-3.485z"/>
        <path id="path534" fill="#7c7b7b" d="M86.64 12.496h3.94V29.55h-3.94z"/>
        <path id="path536" fill="#7c7b7b" d="M93.51 21.215h7.397v3.46H93.51z"/>
        <path id="path548" fill="#7c7b7b" d="M114.07 17.493l-.527-.362a10.725 10.725 0 0 0-2.498-1.057 5.685 5.685 0 0 0-1.538-.214c-.673 0-1.19.119-1.551.36a1.19 1.19 0 0 0-.536 1.056l.238.722.686.514c.294.152.662.294 1.104.422.439.128.946.273 1.524.432.817.225 1.554.468 2.21.733a6.089 6.089 0 0 1 1.683.984c.461.393.819.87 1.068 1.43.247.56.371 1.234.371 2.017 0 .96-.179 1.772-.54 2.436a4.524 4.524 0 0 1-1.428 1.611 6.06 6.06 0 0 1-2.053.89 10.272 10.272 0 0 1-2.39.275 13.653 13.653 0 0 1-3.822-.565 15.723 15.723 0 0 1-1.823-.66 9.96 9.96 0 0 1-1.635-.889l1.73-3.436.647.457c.353.227.786.45 1.3.673.51.225 1.085.426 1.728.6a7.282 7.282 0 0 0 1.944.265c1.397 0 2.09-.426 2.09-1.273l-.31-.792-.864-.563a9.388 9.388 0 0 0-1.3-.47l-1.631-.481a14.18 14.18 0 0 1-2.041-.781 5.52 5.52 0 0 1-1.444-.971 3.47 3.47 0 0 1-.851-1.274 4.654 4.654 0 0 1-.278-1.681c0-.898.17-1.688.505-2.377a5.187 5.187 0 0 1 1.37-1.743 5.917 5.917 0 0 1 2.006-1.068 7.944 7.944 0 0 1 2.412-.36c.612 0 1.203.055 1.779.166a13.49 13.49 0 0 1 1.646.432 13.931 13.931 0 0 1 2.726 1.273z" clip-path="url(#clipPath1804)"/>
        <path id="path552" fill="#7c7b7b" d="M117.624 20.88a8.94 8.94 0 0 1 .551-3.063 8.436 8.436 0 0 1 1.611-2.725 8.125 8.125 0 0 1 2.582-1.947c1.017-.496 2.174-.743 3.47-.743 1.522 0 2.842.344 3.963 1.032a6.501 6.501 0 0 1 2.5 2.69l-3.028 2.112a3.661 3.661 0 0 0-.673-1.116l-.887-.72-1-.384-.97-.108c-.705 0-1.316.152-1.826.457a4.038 4.038 0 0 0-1.273 1.176 5.252 5.252 0 0 0-.757 1.633 6.931 6.931 0 0 0-.251 1.85c0 .672.099 1.321.3 1.946a5.605 5.605 0 0 0 .838 1.657c.362.479.8.86 1.309 1.141a3.509 3.509 0 0 0 1.706.42l.997-.13.998-.411.865-.72c.253-.296.463-.662.624-1.092l3.242 1.895a5.148 5.148 0 0 1-1.117 1.684 6.907 6.907 0 0 1-1.67 1.247 8.551 8.551 0 0 1-4.034 1.033c-1.185 0-2.269-.252-3.255-.755a8.324 8.324 0 0 1-2.547-2.006 9.57 9.57 0 0 1-1.668-2.833 9.041 9.041 0 0 1-.6-3.22" clip-path="url(#clipPath1810)"/>
        <path id="path556" fill="#7c7b7b" d="M141.499 29.694c-1.216 0-2.322-.247-3.315-.744a8.291 8.291 0 0 1-2.555-1.957 8.794 8.794 0 0 1-1.658-2.776 8.968 8.968 0 0 1 1.728-9.211 8.33 8.33 0 0 1 2.593-1.896c1-.472 2.094-.708 3.28-.708 1.215 0 2.32.247 3.314.743a8.231 8.231 0 0 1 2.558 1.97 8.874 8.874 0 0 1 1.646 2.786 9.104 9.104 0 0 1 .576 3.171 8.837 8.837 0 0 1-.611 3.242 8.898 8.898 0 0 1-1.695 2.752 8.313 8.313 0 0 1-2.582 1.908 7.465 7.465 0 0 1-3.28.72m-4.106-8.644c0 .655.09 1.29.278 1.907a5.51 5.51 0 0 0 .79 1.648c.344.479.777.863 1.297 1.152.521.287 1.117.43 1.79.43.689 0 1.291-.152 1.8-.457.513-.302.943-.7 1.287-1.187.345-.488.6-1.041.768-1.657a7.17 7.17 0 0 0 .254-1.885c0-.657-.095-1.295-.278-1.91a5.178 5.178 0 0 0-.803-1.634 4.019 4.019 0 0 0-1.3-1.13 3.575 3.575 0 0 0-1.75-.419c-.69 0-1.29.148-1.803.444a4.109 4.109 0 0 0-1.284 1.165 5.29 5.29 0 0 0-.781 1.644 6.841 6.841 0 0 0-.265 1.889" clip-path="url(#clipPath1823)"/>
        <path id="path560" fill="#7c7b7b" d="M151.974 29.55V12.496h7.684c.801 0 1.54.17 2.222.506a5.92 5.92 0 0 1 1.766 1.322c.494.545.882 1.16 1.163 1.849a5.495 5.495 0 0 1 .421 2.09 5.991 5.991 0 0 1-.744 2.906 5.283 5.283 0 0 1-2.043 2.041l3.915 6.34h-4.443l-3.435-5.499h-2.57v5.5zm3.937-8.937h3.601c.464 0 .865-.216 1.2-.658.34-.441.508-1.004.508-1.692 0-.706-.194-1.265-.578-1.684-.384-.415-.8-.622-1.249-.622h-3.482z"/>
        <path id="path564" fill="#7c7b7b" d="M180.291 26.092v3.458h-11.985V12.496h11.767v3.46h-7.828v3.315h6.724v3.193h-6.724v3.628z"/>
        <path id="path566" fill="#87bd25" d="M97.613 115.826h-43.95V44.318h43.95z"/>
        <path id="path568" fill="#ef7d00" d="M185.515 115.826h-43.95V44.318h43.95z"/>
        <path id="path580" fill="#bdd684" d="M67.005 91.262v-9.008h3.03c5.623.045 7.45 1.708 7.45 4.343 0 3.277-2.403 4.665-7.066 4.665zm0-13.443v-8.823h1.827c4.857 0 6.826 1.432 6.826 4.297 0 2.632-1.874 4.433-5.815 4.48zm2.597-13.627h-8.75v31.872h9.856c9.277 0 13.075-3.74 13.075-9.467 0-3.144-1.732-5.636-5.338-7.068 2.07-1.618 3.51-3.88 3.51-6.79 0-4.714-3.316-8.547-12.353-8.547" clip-path="url(#clipPath1830)"/>
        <path id="path584" fill="#f8b472" d="M161.35 91.262V69.09h3.463c7.642 0 11.345 4.065 11.345 11.04 0 6.376-3.992 11.133-12.113 11.133zm3.512-27.07h-9.664v31.872h8.99c11.392 0 18.314-6.788 18.314-15.935 0-9.976-6.441-15.937-17.64-15.937" clip-path="url(#clipPath1848)"/>
        <path id="path588" fill="#74ab7e" d="M27.526 85.163l4.855-12.7 4.663 12.702zm7.163-20.969h-4.28l-13.22 31.873h6.202l2.31-6.098h13.121l2.26 6.098h6.775z"/>
        <path id="path600" fill="#fff" d="M117.97 129.998c-16.566 0-30.043-12.466-30.043-27.788V57.936c0-15.324 13.477-27.79 30.043-27.79h3.118c16.566 0 30.043 12.466 30.043 27.79v44.274c0 15.322-13.477 27.788-30.043 27.788z" clip-path="url(#clipPath1842)"/>
        <path id="path604" fill="#fc0" d="M121.088 124.761h-3.118c-13.702 0-24.806-10.096-24.806-22.55V57.935c0-12.455 11.104-22.551 24.806-22.551h3.118c13.7 0 24.806 10.096 24.806 22.55v44.275c0 12.455-11.106 22.551-24.806 22.551" clip-path="url(#clipPath1854)"/>
        <path id="path608" fill="#fff" d="M101.033 78.624c0-13.547 8.439-21.924 19.832-21.924 9.915 0 14.102 5.237 16.505 10.778l-10.286 3.88c-1.231-2.894-3.14-4.988-6.713-4.988-5.358 0-8.191 4.804-8.191 12.192 0 8.192 2.957 12.197 8.992 12.197 3.573 0 6.345-2.094 8.375-5.113l7.946 5.974c-3.51 5.42-9.116 8.807-16.628 8.807-12.07 0-19.832-8.436-19.832-21.803" clip-path="url(#clipPath1860)"/>
      </g>
    </g>
  </g>
<path
     id="path16330"
     clip-path="url(#clipPath1593)"
     style="fill:#093c6b;fill-opacity:1;fill-rule:nonzero;stroke:none"
     d="M 0 33.997 L 0 27.407156 C 2.3684734e-15 12.296171 12.298124 -0.003 27.412109 -0.003 L 211.76953 -0.003 L 211.76953 -0.001046875 C 226.88152 -0.001046875 239.17773 12.295171 239.17773 27.407156 L 239.17773 33.997 L 0 33.997 z "
     transform="matrix(1,0,0,-1,0,161.997)" />
<g
       id="g5892"><path
         d="m 19.503083,143.89633 v 8.61707 h -3.480785 v -15.06926 h 2.71671 l 7.025244,8.85054 v -8.85054 h 3.480785 v 15.06926 h -2.801608 z"
         style="font-weight:800;font-size:21.2243px;line-height:1.25;font-family:Raleway;-inkscape-font-specification:'Raleway Ultra-Bold';fill:#ffffff;stroke-width:0.530607"
         id="path5719" /><path
         d="m 42.722444,149.4571 v 3.0563 H 32.131518 v -15.06926 h 10.399907 v 3.0563 h -6.919122 v 2.92896 h 5.942805 v 2.82283 h -5.942805 v 3.20487 z"
         style="font-weight:800;font-size:21.2243px;line-height:1.25;font-family:Raleway;-inkscape-font-specification:'Raleway Ultra-Bold';fill:#ffffff;stroke-width:0.530607"
         id="path5721" /><path
         d="m 51.318265,149.542 q 0.89142,0 1.506925,-0.36082 0.615505,-0.38204 0.997542,-0.99754 0.382038,-0.6155 0.530608,-1.4008 0.169794,-0.80653 0.169794,-1.63428 v -7.70442 h 3.480786 v 7.70442 q 0,1.5706 -0.403262,2.92896 -0.382038,1.35835 -1.209785,2.37712 -0.806524,1.01877 -2.079982,1.61305 -1.252233,0.57305 -2.992626,0.57305 -1.804066,0 -3.077524,-0.6155 -1.273458,-0.61551 -2.079981,-1.63427 -0.785299,-1.03999 -1.167337,-2.39835 -0.360813,-1.35835 -0.360813,-2.84406 v -7.70442 h 3.480786 v 7.70442 q 0,0.8702 0.169794,1.6555 0.169794,0.7853 0.551832,1.4008 0.382037,0.61551 0.976318,0.97632 0.615504,0.36082 1.506925,0.36082 z"
         style="font-weight:800;font-size:21.2243px;line-height:1.25;font-family:Raleway;-inkscape-font-specification:'Raleway Ultra-Bold';fill:#ffffff;stroke-width:0.530607"
         id="path5723" /><path
         d="m 71.290325,149.4571 v 3.0563 H 60.699399 v -15.06926 h 10.399907 v 3.0563 h -6.919122 v 2.92896 h 5.942804 v 2.82283 h -5.942804 v 3.20487 z"
         style="font-weight:800;font-size:21.2243px;line-height:1.25;font-family:Raleway;-inkscape-font-specification:'Raleway Ultra-Bold';fill:#ffffff;stroke-width:0.530607"
         id="path5725" /><path
         d="m 90.816655,148.65057 q 0,0.97632 -0.403261,1.69795 -0.403262,0.72162 -1.103664,1.20978 -0.700402,0.46694 -1.634271,0.72163 -0.933869,0.23347 -1.97386,0.23347 h -7.343608 v -15.06926 h 8.383599 q 0.785299,0 1.422028,0.33959 0.636729,0.33959 1.082439,0.89142 0.44571,0.53061 0.679178,1.23101 0.254691,0.67918 0.254691,1.40081 0,1.08244 -0.551831,2.03753 -0.530608,0.95509 -1.613047,1.44325 1.294682,0.38204 2.037533,1.35836 0.764074,0.97631 0.764074,2.50446 z m -3.544458,-0.7004 q 0,-0.7004 -0.403261,-1.18856 -0.403262,-0.48816 -1.018767,-0.48816 h -4.011393 v 3.28977 h 3.862823 q 0.679178,0 1.124888,-0.44571 0.44571,-0.44571 0.44571,-1.16734 z m -5.433421,-7.53462 v 3.11997 h 3.417113 q 0.573056,0 1.018766,-0.38204 0.44571,-0.38204 0.44571,-1.18856 0,-0.74285 -0.403261,-1.14611 -0.382038,-0.40326 -0.933869,-0.40326 z"
         style="font-weight:800;font-size:21.2243px;line-height:1.25;font-family:Raleway;-inkscape-font-specification:'Raleway Ultra-Bold';fill:#ffffff;stroke-width:0.530607"
         id="path5727" /><path
         d="m 103.4663,149.4571 v 3.0563 H 92.875371 v -15.06926 h 10.399909 v 3.0563 h -6.919124 v 2.92896 h 5.942804 v 2.82283 h -5.942804 v 3.20487 z"
         style="font-weight:800;font-size:21.2243px;line-height:1.25;font-family:Raleway;-inkscape-font-specification:'Raleway Ultra-Bold';fill:#ffffff;stroke-width:0.530607"
         id="path5729" /><path
         d="m 105.58871,152.5134 v -15.06926 h 6.79178 q 1.06121,0 1.95263,0.44571 0.91265,0.44571 1.5706,1.16734 0.65795,0.72163 1.01877,1.63427 0.38204,0.91265 0.38204,1.84652 0,0.7004 -0.1698,1.35835 -0.16979,0.63673 -0.48816,1.20979 -0.31836,0.57305 -0.7853,1.03999 -0.44571,0.44571 -1.01876,0.76407 l 3.31099,5.60322 h -3.9265 l -2.8865,-4.86037 h -2.271 v 4.86037 z m 3.48079,-7.89544 h 3.18364 q 0.61551,0 1.06122,-0.57306 0.44571,-0.59428 0.44571,-1.50692 0,-0.93387 -0.50939,-1.4857 -0.50938,-0.55184 -1.10366,-0.55184 h -3.07752 z"
         style="font-weight:800;font-size:21.2243px;line-height:1.25;font-family:Raleway;-inkscape-font-specification:'Raleway Ultra-Bold';fill:#ffffff;stroke-width:0.530607"
         id="path5731" /><path
         d="m 130.39988,149.4571 v 3.0563 h -10.59093 v -15.06926 h 10.39991 v 3.0563 h -6.91913 v 2.92896 h 5.94281 v 2.82283 h -5.94281 v 3.20487 z"
         style="font-weight:800;font-size:21.2243px;line-height:1.25;font-family:Raleway;-inkscape-font-specification:'Raleway Ultra-Bold';fill:#ffffff;stroke-width:0.530607"
         id="path5733" /><path
         d="m 131.3337,144.85142 q 0,-1.35835 0.50938,-2.69548 0.50938,-1.35836 1.4857,-2.41957 0.97632,-1.06122 2.37712,-1.71917 1.40081,-0.65795 3.18365,-0.65795 2.12243,0 3.6718,0.91264 1.5706,0.91265 2.33467,2.37712 l -2.67426,1.86774 q -0.25469,-0.59428 -0.65795,-0.97632 -0.38204,-0.40326 -0.84897,-0.63673 -0.46694,-0.25469 -0.9551,-0.33958 -0.48816,-0.10613 -0.95509,-0.10613 -0.99754,0 -1.74039,0.40327 -0.74285,0.40326 -1.23101,1.03999 -0.48816,0.63673 -0.72163,1.44325 -0.23347,0.80652 -0.23347,1.63427 0,0.89142 0.27592,1.71917 0.27592,0.82775 0.7853,1.46448 0.53061,0.63672 1.25223,1.01876 0.74285,0.36082 1.6555,0.36082 0.46693,0 0.95509,-0.10613 0.50939,-0.12734 0.9551,-0.36081 0.46693,-0.25469 0.84897,-0.63673 0.38204,-0.40326 0.6155,-0.97632 l 2.84406,1.67672 q -0.33959,0.82775 -1.01877,1.4857 -0.65795,0.65796 -1.52815,1.10367 -0.87019,0.44571 -1.84651,0.67918 -0.97632,0.23346 -1.91019,0.23346 -1.63427,0 -3.01385,-0.65795 -1.35835,-0.67918 -2.3559,-1.78284 -0.97631,-1.10367 -1.52815,-2.50447 -0.5306,-1.4008 -0.5306,-2.84406 z"
         style="font-weight:800;font-size:21.2243px;line-height:1.25;font-family:Raleway;-inkscape-font-specification:'Raleway Ultra-Bold';fill:#ffffff;stroke-width:0.530607"
         id="path5735" /><path
         d="m 159.77425,137.44414 v 15.06926 h -3.48078 v -6.17627 h -6.00648 v 6.17627 h -3.48079 v -15.06926 h 3.48079 v 5.83669 h 6.00648 v -5.83669 z"
         style="font-weight:800;font-size:21.2243px;line-height:1.25;font-family:Raleway;-inkscape-font-specification:'Raleway Ultra-Bold';fill:#ffffff;stroke-width:0.530607"
         id="path5737" /><path
         d="m 166.14154,143.89633 v 8.61707 h -3.48078 v -15.06926 h 2.71671 l 7.02524,8.85054 v -8.85054 h 3.48079 v 15.06926 h -2.80161 z"
         style="font-weight:800;font-size:21.2243px;line-height:1.25;font-family:Raleway;-inkscape-font-specification:'Raleway Ultra-Bold';fill:#ffffff;stroke-width:0.530607"
         id="path5739" /><path
         d="m 185.24339,149.542 q 0.89142,0 1.50693,-0.36082 0.6155,-0.38204 0.99754,-0.99754 0.38203,-0.6155 0.5306,-1.4008 0.1698,-0.80653 0.1698,-1.63428 v -7.70442 h 3.48078 v 7.70442 q 0,1.5706 -0.40326,2.92896 -0.38203,1.35835 -1.20978,2.37712 -0.80653,1.01877 -2.07998,1.61305 -1.25224,0.57305 -2.99263,0.57305 -1.80407,0 -3.07752,-0.6155 -1.27346,-0.61551 -2.07998,-1.63427 -0.7853,-1.03999 -1.16734,-2.39835 -0.36081,-1.35835 -0.36081,-2.84406 v -7.70442 h 3.48078 v 7.70442 q 0,0.8702 0.1698,1.6555 0.16979,0.7853 0.55183,1.4008 0.38203,0.61551 0.97631,0.97632 0.61551,0.36082 1.50693,0.36082 z"
         style="font-weight:800;font-size:21.2243px;line-height:1.25;font-family:Raleway;-inkscape-font-specification:'Raleway Ultra-Bold';fill:#ffffff;stroke-width:0.530607"
         id="path5741" /><path
         d="m 198.1053,143.89633 v 8.61707 h -3.48078 v -15.06926 h 2.71671 l 7.02524,8.85054 v -8.85054 h 3.48079 v 15.06926 h -2.80161 z"
         style="font-weight:800;font-size:21.2243px;line-height:1.25;font-family:Raleway;-inkscape-font-specification:'Raleway Ultra-Bold';fill:#ffffff;stroke-width:0.530607"
         id="path5743" /><path
         d="m 221.0912,151.0277 q -1.71917,1.59182 -3.96895,1.59182 -1.4857,0 -2.8016,-0.55183 -1.31591,-0.57306 -2.31345,-1.59183 -0.97632,-1.01876 -1.54938,-2.44079 -0.57305,-1.44325 -0.57305,-3.16242 0,-1.54937 0.57305,-2.92895 0.57306,-1.37958 1.5706,-2.39835 1.01877,-1.01877 2.39835,-1.61305 1.37958,-0.59428 2.9714,-0.59428 2.1012,0 3.6718,0.89142 1.5706,0.8702 2.3559,2.39835 l -2.58936,1.95263 q -0.50939,-1.01876 -1.48571,-1.57059 -0.95509,-0.57306 -2.07998,-0.57306 -0.87019,0 -1.59182,0.36081 -0.7004,0.33959 -1.20978,0.97632 -0.50939,0.61551 -0.7853,1.44325 -0.27592,0.82775 -0.27592,1.78284 0,0.97632 0.29714,1.80407 0.29714,0.82775 0.82775,1.44325 0.53061,0.59428 1.25223,0.93387 0.74285,0.33959 1.63427,0.33959 2.03754,0 3.67181,-1.88896 v -0.46694 h -2.92896 v -2.52569 h 5.81546 v 7.87422 h -2.8865 z"
         style="font-weight:800;font-size:21.2243px;line-height:1.25;font-family:Raleway;-inkscape-font-specification:'Raleway Ultra-Bold';fill:#ffffff;stroke-width:0.530607"
         id="path5745" /></g>

</svg>
