<svg xmlns="http://www.w3.org/2000/svg" width="24" height="24"><circle cx="12" cy="12" r="12" fill="#b3b3b3"/><path d="M12 2a3.755 3.755 0 0 0-3.756 3.755 3.755 3.755 0 0 0 .205 1.224h7.1a3.755 3.755 0 0 0 .205-1.224A3.755 3.755 0 0 0 12 2zm0 .238a.365.365 0 0 1 .365.364.365.365 0 0 1-.366.366.365.365 0 0 1-.364-.366.365.365 0 0 1 .364-.364zm1.205.708a.365.365 0 0 1 .365.364.365.365 0 0 1-.365.366.365.365 0 0 1-.365-.366.365.365 0 0 1 .365-.364zm-2.448.009a.365.365 0 0 1 .365.365.365.365 0 0 1-.365.365.365.365 0 0 1-.365-.365.365.365 0 0 1 .365-.365zm1.242.35a.365.365 0 0 1 .366.364.365.365 0 0 1-.366.366.365.365 0 0 1-.364-.366.365.365 0 0 1 .364-.364zM8.244 8.23 6.993 22h10.014L15.754 8.23H9.183zm.842 1.251h.627l-.865 11.266H8.22zm2.6 0h.627v11.266h-.626zm2.6 0h.628l.866 11.266h-.628z" fill="#fff"/></svg>