<svg width="240" height="130" xmlns="http://www.w3.org/2000/svg"><path d="M22 0h196a22 22 0 0 1 22 22v78a22 22 0 0 1-22 23H22a22 22 0 0 1-22-23V22A22 22 0 0 1 22 0z" fill="#fff" fill-rule="evenodd"/><path d="M167 44h44v73h-44z" fill="#ccc" fill-rule="evenodd"/><path d="M36 44h45v73H36z" fill="#999" fill-rule="evenodd"/><path d="M206 44h11c10 0 17 8 17 17v39c0 9-7 17-17 17h-11a17 17 0 0 1-17-17V61c0-9 8-17 17-17z" fill="#ccc" fill-rule="evenodd"/><path d="M221 90v6h-23V63h22v7h-15v7h13v6h-13v7z" font-weight="800" font-family="Raleway" letter-spacing="0" word-spacing="0" fill="#fff" fill-opacity=".4" style="line-height:90%;-inkscape-font-specification:'Raleway Ultra-Bold'"/><path d="M19 20v10h-4V13h3l8 10V13h4v17h-3zm21 6h2l1-1 1-2V13h4v9l-1 3-1 2-2 2-4 1-3-1-2-2-2-2V13h4v10l1 2 1 1h1zm23-10h-5v14h-4V16h-5v-3h14zm2 14V13h8l2 1 2 1 1 2v3l-1 1-1 2h-1l4 7h-4l-4-6h-2v6zm4-9h3l2-1v-3l-2-1h-3zm12 9V13h4v17zm7-5v-3h7v3zm20-7h-1l-1-1h-1l-2-1q-2 0-2 2l1 1h1l2 1h2l1 1 1 2 1 2-1 2-1 2-2 1h-4l-2-1h-2l-2-1 2-4 1 1 1 1h4l2-1-1-1h-1l-1-1h-1l-2-1-2-1-1-1v-2l1-2 1-2 2-1h6l1 1 1 1zm3 3 1-3 1-2q1-2 3-2l3-1 4 1 3 3-3 2-1-1-1-1-1-1h-1l-2 1-1 1-1 2v3l1 2 1 1h4l1-1 1-1 3 2-1 2-2 1-2 1h-2l-3-1-3-2-1-3-1-3zm24 9-3-1-3-2-2-3v-6l2-2q1-2 3-2l3-1 4 1 2 2 2 2v7l-2 2-3 2-3 1zm-4-9v2l1 2 1 1h4l1-1 1-2v-4l-1-1-1-1-2-1-2 1-1 1-1 2v1zm15 9V13h7l2 1 2 1 1 2 1 2-1 1v1l-1 2h-1l3 7h-4l-3-6h-3v6zm3-9h4l1-1 1-1-1-2-1-1h-4zm24 5v4h-12V13h12v3h-8v4h7v3h-7v3z" font-weight="800" font-family="Raleway" letter-spacing="0" word-spacing="0" fill="#7d7d7d" style="line-height:90%;-inkscape-font-specification:'Raleway Ultra-Bold'"/><path d="M56 44h45v73H56z" fill="#ee8100" fill-rule="evenodd"/><path d="M145 44h44v73h-44z" fill="#bfbfbf" fill-rule="evenodd"/><path d="M153 96V63h12q4 0 7 2l5 3 3 6 1 6-1 7-3 5-5 3-7 1zm21-16-1-4-2-3-2-2-4-1h-5v20h5l4-1 2-2 2-3 1-4z" font-weight="800" font-family="Raleway" letter-spacing="0" word-spacing="0" fill="#fff" fill-opacity=".4" style="line-height:90%;-inkscape-font-specification:'Raleway Ultra-Bold'"/><path d="M97 44h48v73H97z" fill="#b2b2b2" fill-rule="evenodd"/><path d="M100 44H55v73h45z" fill="#a6a6a6" fill-rule="evenodd"/><path d="m106 79 1-6 3-5 6-4 6-1q5 0 8 2 4 2 6 5l-6 4-2-2-2-1-2-1h-2l-4 1-2 2-2 3v7l2 4 3 2 3 1 2-1h3l1-2 2-2 6 4-2 3-4 2-4 2h-4l-6-1-6-4-3-5-1-7zm-13 9-1 4-2 2-4 2H66V63h18l3 1 3 2 1 3 1 3-1 4-4 3 4 3 2 6zm-8-2v-2l-3-1h-8v7h8l2-1 1-3zM74 70v7h7l2-1 1-3-1-2-2-1z" font-weight="800" font-family="Raleway" letter-spacing="0" word-spacing="0" fill="#fff" fill-opacity=".4" style="line-height:90%;-inkscape-font-specification:'Raleway Ultra-Bold'"/><path d="M27 44h11c9 0 17 8 17 17v39c0 9-8 17-17 17H27a17 17 0 0 1-17-17V61c0-9 7-17 17-17z" fill="#999" fill-rule="evenodd"/><path d="M31 63h7l12 33h-8l-3-7H29l-2 7h-8zm7 21-4-12-4 12z" font-weight="800" font-family="Raleway" letter-spacing="0" word-spacing="0" fill="#fff" fill-opacity=".4" style="line-height:90%;-inkscape-font-specification:'Raleway Ultra-Bold'"/><path d="m15 112 211-95M228 12a5 5 0 0 0-4 0L13 107a5 5 0 0 0-3 7 5 5 0 0 0 7 2l211-95a5 5 0 0 0 3-6 5 5 0 0 0-3-3z" transform="matrix(1 0 0 .65998 0 40)" color="#000" fill="#fff" style="-inkscape-stroke:none"/><g color="#000" fill="#fff"><path d="m15 112 211-95M228 12a5 5 0 0 0-4 0L13 107a5 5 0 0 0-3 7 5 5 0 0 0 7 2l211-95a5 5 0 0 0 3-6 5 5 0 0 0-3-3z" transform="matrix(1 0 0 .65998 0 40)" style="-inkscape-stroke:none"/></g></svg>