<svg xmlns="http://www.w3.org/2000/svg" width="240" height="130">
  <path d="M22 0h196c12 0 22 10 22 22v78c0 13-10 23-22 23H22c-12 0-22-10-22-23V22C0 10 10 0 22 0z" fill="#fff" fill-rule="evenodd"/>
  <path d="M36 44h45v73H36z" fill="#038141" fill-rule="evenodd"/>
  <path d="M167 44h44v73h-44z" fill="#e63e11" fill-rule="evenodd"/>
  <path d="M27 44h11c9 0 17 8 17 17v39c0 9-8 17-17 17H27c-10 0-17-8-17-17V61c0-9 7-17 17-17z" fill="#038141" fill-rule="evenodd"/>
  <path d="M145 44h44v73h-44z" fill="#ee8100" fill-rule="evenodd"/>
  <path style="line-height:90%;-inkscape-font-specification:'Raleway Ultra-Bold'" d="M153 97V65h12l7 1 5 3 3 6 1 6-1 7-3 5-5 3-7 1zm21-16l-1-4-2-3-2-2-4-1h-5v20h5l4-1 2-2 2-3 1-4z" font-weight="800" font-family="Raleway" letter-spacing="0" word-spacing="0" fill="#fff" fill-opacity=".4"/>
  <path d="M97 44h48v73H97z" fill="#fecb02" fill-rule="evenodd"/>
  <path d="M100 44H55v73h45z" fill="#85bb2f" fill-rule="evenodd"/>
  <path style="line-height:90%;-inkscape-font-specification:'Raleway Ultra-Bold'" d="M103 79l1-6 3-5 5-4 7-1q5 0 8 2l5 5-6 4-1-2-2-1-2-1h-2l-4 1-3 2-1 3-1 4 1 3 2 4 2 2 4 1 2-1h2l2-2 1-2 6 4q0 2-2 3l-3 2-4 2h-4l-7-1-5-4-3-5-1-7zM91 88l-1 4-3 2-3 2H64V63h18l3 1 2 2 2 3v3l-1 4-3 3 4 3 2 6zm-8-2l-1-2-2-1h-9v7h9l2-1 1-3zM71 70v7h8l2-1 1-3-1-2-2-1zM29 63h7l12 33h-8l-3-7H27l-2 7h-8zm7 21l-4-12-4 12z" font-weight="800" font-family="Raleway" letter-spacing="0" word-spacing="0" fill="#fff" fill-opacity=".4"/>
  <path d="M206 44h11c10 0 17 8 17 17v39c0 9-7 17-17 17h-11c-9 0-17-8-17-17V61c0-9 8-17 17-17z" fill="#e63e11" fill-rule="evenodd"/>
  <path d="M165 35h4c14 0 25 11 25 24v43c0 13-11 24-25 24h-4c-14 0-25-11-25-24V59c0-13 11-24 25-24z" fill="#0039ff" fill-opacity=".6" fill-rule="evenodd" stroke="#fff" stroke-width="7.53533" stroke-linecap="round" stroke-linejoin="round"/>
  <path style="line-height:90%;-inkscape-font-specification:'Raleway Ultra-Bold'" d="M227 90v6h-23V63h23v7h-15v7h13v6h-13v7z" font-weight="800" font-family="Raleway" letter-spacing="0" word-spacing="0" fill="#fff" fill-opacity=".4"/>
  <path d="M165 35h4c14 0 25 11 25 24v43c0 13-11 24-25 24h-4c-14 0-25-11-25-24V59c0-13 11-24 25-24z" fill="#ee8100" fill-rule="evenodd"/>
  <path style="line-height:90%;-inkscape-font-specification:'Raleway Ultra-Bold'" d="M150 103V60h15l8 1q4 2 6 5 3 3 4 7l1 8-1 9q-1 4-4 7l-6 4-8 2zm25-22l-1-5-2-4-3-3-4-1h-6v26h6l4-1 3-3q2-1 2-4l1-5z" font-weight="800" font-family="Raleway" letter-spacing="0" word-spacing="0" fill="#fff"/>
  <path style="line-height:90%;-inkscape-font-specification:'Raleway Ultra-Bold'" d="M19 20v10h-4V13h3l8 10V13h4v17h-3zM40 26h2l1-1 1-2V13h4v9l-1 3-1 2-2 2-4 1-3-1-2-2-2-2V13h4v10l1 2 1 1h1zM63 16h-5v14h-4V16h-5v-3h14zM65 30V13h8l2 1 2 1 1 2v3l-1 1-1 2h-1l4 7h-4l-4-6h-2v6zm4-9h3l2-1v-1-2l-2-1h-3zM81 30V13h4v17zM88 25v-3h7v3zM108 18h-1l-1-1h-1l-2-1q-2 0-2 2l1 1h1l2 1h2l1 1 1 2 1 2-1 2-1 2-2 1h-3-1l-2-1h-2l-2-1 2-4 1 1 1 1h4l2-1-1-1h-1l-1-1h-1l-2-1-2-1-1-1v-2l1-2 1-2 2-1h6l1 1 1 1zM111 21l1-3 1-2q1-2 3-2l3-1 4 1 3 3-3 2-1-1-1-1-1-1h-1l-2 1-1 1-1 2v3l1 2 1 1h4l1-1 1-1 3 2-1 2-2 1-2 1h-2l-3-1-3-2-1-3-1-3zM135 30l-3-1-3-2-2-3v-3-3l2-2q1-2 3-2l3-1 4 1 2 2 2 2v7l-2 2-3 2-3 1zm-4-9v2l1 2 1 1h4l1-1 1-2v-2-2l-1-1-1-1-2-1-2 1-1 1-1 2v1zM146 30V13h7l2 1 2 1 1 2 1 2-1 1v1l-1 2h-1l3 7h-4l-3-6h-3v6zm3-9h4l1-1 1-1-1-2-1-1h-4zM173 26v4h-12V13h12v3h-8v4h7v3h-7v3z" font-weight="800" font-family="Raleway" letter-spacing="0" word-spacing="0" fill="#7d7d7d"/>
</svg>
