<svg xmlns="http://www.w3.org/2000/svg" id="svg2032" width="240" height="162" version="1.1" viewBox="0 0 240 162">
<rect
     style="fill:#ffffff;fill-opacity:1;stroke:none;stroke-width:2.65346;stroke-linecap:round;stroke-linejoin:round;paint-order:stroke fill markers"
     id="rect18499"
     width="239.17799"
     height="30"
     x="0"
     y="98" />
  <g id="layer1">
    <g id="g2493">
      <g id="g1527">
        <g id="g2468" fill-opacity="1" fill-rule="nonzero" stroke="none">
          <path id="path248" fill="#fff" d="M212.183 0H27.826C12.71 0 .414 12.298.414 27.41v70.773c0 15.116 12.298 27.41 27.412 27.41h118.278a31.612 31.612 0 0 0 16.173 4.409h3.12c5.957 0 11.498-1.633 16.174-4.41h30.612c15.114 0 27.408-12.295 27.408-27.407v-70.77c0-15.115-12.294-27.413-27.408-27.413" clip-path="url(#clipPath1648)"/>
          <path id="path252" fill="#e63312" d="M212.179 115.826h-26.252V44.318h26.252a17.647 17.647 0 0 1 17.65 17.647v36.213a17.65 17.65 0 0 1-17.65 17.648" clip-path="url(#clipPath1655)"/>
          <path id="path256" fill="#00803d" d="M27.824 115.826h26.252V44.318H27.824a17.647 17.647 0 0 0-17.648 17.647v36.213a17.647 17.647 0 0 0 17.648 17.648" clip-path="url(#clipPath1661)"/>
          <path id="path260" fill="#f28f66" d="M221.97 64.194h-20.236V96.07h20.43v-4.802h-14.277v-9.379h9.999v-4.804h-9.997V69h14.081z"/>
          <path id="path264" fill="#7c7b7b" d="M23.596 19.799v9.754h-3.94V12.496h3.075l7.95 10.02v-10.02h3.94V29.55H31.45z"/>
          <path id="path276" fill="#7c7b7b" d="M45.187 26.187c.673 0 1.24-.139 1.705-.419.464-.28.839-.653 1.13-1.117a4.78 4.78 0 0 0 .612-1.597c.121-.6.18-1.214.18-1.839V12.5h3.94v8.716a11.894 11.894 0 0 1-.444 3.315 7.67 7.67 0 0 1-1.37 2.692 6.422 6.422 0 0 1-2.355 1.814c-.951.437-2.085.662-3.398.662-1.36 0-2.52-.234-3.483-.7-.962-.463-1.743-1.08-2.341-1.862-.6-.777-1.042-1.677-1.324-2.7a12.062 12.062 0 0 1-.42-3.22v-8.717h3.942v8.716c0 .656.062 1.283.192 1.876a4.965 4.965 0 0 0 .624 1.585c.287.463.66.832 1.117 1.103.455.274 1.022.408 1.693.408" clip-path="url(#clipPath1673)"/>
          <path id="path280" fill="#7c7b7b" d="M68.777 15.959h-5.19v13.594h-3.942V15.959h-5.212v-3.46h14.344z"/>
          <path id="path292" fill="#7c7b7b" d="M70.723 29.55V12.496h7.684a4.965 4.965 0 0 1 2.225.508 5.866 5.866 0 0 1 1.763 1.32c.496.545.883 1.16 1.165 1.849.283.688.42 1.384.42 2.09 0 .53-.067 1.037-.19 1.525a6.029 6.029 0 0 1-.554 1.381 5.208 5.208 0 0 1-2.042 2.041l3.915 6.34h-4.442l-3.436-5.499h-2.569v5.5zm3.94-8.935h3.6c.464 0 .866-.218 1.201-.66.338-.441.506-1.004.506-1.692 0-.706-.192-1.265-.576-1.684-.384-.415-.804-.622-1.25-.622h-3.482z"/>
          <path id="path294" fill="#7c7b7b" d="M87.053 12.499h3.94V29.55h-3.94z"/>
          <path id="path296" fill="#7c7b7b" d="M93.923 21.215h7.397v3.46h-7.397z"/>
          <path id="path308" fill="#7c7b7b" d="M114.483 17.493l-.53-.362a10.526 10.526 0 0 0-2.497-1.055 5.599 5.599 0 0 0-1.534-.216c-.675 0-1.192.119-1.551.36a1.19 1.19 0 0 0-.539 1.059l.24.719.685.514a6.201 6.201 0 0 0 1.103.422c.442.128.95.273 1.527.432a20.51 20.51 0 0 1 2.207.733c.658.265 1.218.591 1.684.984.463.393.82.87 1.068 1.43a4.943 4.943 0 0 1 .373 2.017c0 .962-.181 1.774-.54 2.436a4.55 4.55 0 0 1-1.43 1.611 6.042 6.042 0 0 1-2.053.89 10.272 10.272 0 0 1-2.39.275c-.627 0-1.262-.044-1.911-.145a13.622 13.622 0 0 1-1.909-.42 15.756 15.756 0 0 1-1.825-.66 9.798 9.798 0 0 1-1.635-.889l1.73-3.436.649.457c.35.227.783.45 1.297.673.512.225 1.088.426 1.728.6a7.3 7.3 0 0 0 1.947.265c1.394 0 2.09-.423 2.09-1.273l-.312-.792-.865-.563a9.249 9.249 0 0 0-1.297-.47c-.497-.143-1.04-.305-1.633-.481a14.18 14.18 0 0 1-2.042-.781 5.52 5.52 0 0 1-1.443-.971 3.497 3.497 0 0 1-.852-1.274 4.705 4.705 0 0 1-.275-1.681c0-.898.167-1.688.503-2.377a5.21 5.21 0 0 1 1.368-1.743 5.948 5.948 0 0 1 2.008-1.068 7.95 7.95 0 0 1 2.414-.36c.61 0 1.2.057 1.777.168.573.112 1.125.256 1.646.43a13.931 13.931 0 0 1 2.725 1.273z" clip-path="url(#clipPath1667)"/>
          <path id="path312" fill="#7c7b7b" d="M118.038 20.88a8.94 8.94 0 0 1 .552-3.063 8.436 8.436 0 0 1 1.611-2.725 8.157 8.157 0 0 1 2.582-1.947c1.015-.496 2.174-.743 3.469-.743 1.523 0 2.844.344 3.963 1.032a6.501 6.501 0 0 1 2.5 2.693l-3.027 2.11a3.64 3.64 0 0 0-.671-1.117l-.89-.72-.997-.384-.973-.108a3.509 3.509 0 0 0-1.825.457 4.019 4.019 0 0 0-1.273 1.178 5.212 5.212 0 0 0-.755 1.633 6.859 6.859 0 0 0-.254 1.847c0 .673.1 1.324.3 1.947.199.624.481 1.176.839 1.657a4.1 4.1 0 0 0 1.31 1.141c.513.28 1.082.42 1.707.42l.997-.131.993-.41.87-.72c.253-.296.46-.662.622-1.092l3.242 1.898a5.113 5.113 0 0 1-1.117 1.681 6.894 6.894 0 0 1-1.668 1.247 8.673 8.673 0 0 1-4.039 1.037 7.062 7.062 0 0 1-3.252-.759 8.291 8.291 0 0 1-2.547-2.006 9.52 9.52 0 0 1-1.666-2.833 8.997 8.997 0 0 1-.603-3.22" clip-path="url(#clipPath1687)"/>
          <path id="path316" fill="#7c7b7b" d="M141.916 29.696a7.304 7.304 0 0 1-3.315-.746 8.275 8.275 0 0 1-2.56-1.957 8.85 8.85 0 0 1-1.655-2.774 9.037 9.037 0 0 1-.59-3.218c0-1.12.204-2.202.612-3.244.41-1.037.978-1.957 1.706-2.75s1.593-1.425 2.595-1.897c1-.472 2.092-.706 3.277-.706 1.214 0 2.322.245 3.315.741a8.275 8.275 0 0 1 2.56 1.97 8.952 8.952 0 0 1 1.644 2.786 9.102 9.102 0 0 1 .573 3.171 8.855 8.855 0 0 1-.609 3.244 8.933 8.933 0 0 1-1.692 2.75 8.34 8.34 0 0 1-2.582 1.908 7.474 7.474 0 0 1-3.28.722m-4.108-8.646c0 .655.092 1.29.278 1.907.183.617.448 1.165.79 1.648a3.928 3.928 0 0 0 1.3 1.152c.518.287 1.116.43 1.787.43.688 0 1.29-.152 1.803-.457.507-.302.94-.697 1.284-1.187.347-.485.6-1.041.77-1.655a7.277 7.277 0 0 0 .252-1.887c0-.657-.095-1.295-.278-1.908a5.142 5.142 0 0 0-.803-1.634 3.982 3.982 0 0 0-1.298-1.13 3.568 3.568 0 0 0-1.752-.419 3.53 3.53 0 0 0-1.8.442 4.094 4.094 0 0 0-1.287 1.165 5.34 5.34 0 0 0-.782 1.644 6.85 6.85 0 0 0-.264 1.889" clip-path="url(#clipPath1680)"/>
          <path id="path320" fill="#7c7b7b" d="M152.385 29.55V12.496h7.686c.8 0 1.54.17 2.222.508a5.892 5.892 0 0 1 1.765 1.32 6.135 6.135 0 0 1 1.163 1.849c.28.688.424 1.384.424 2.09 0 .53-.066 1.037-.192 1.525a6.029 6.029 0 0 1-.552 1.381 5.28 5.28 0 0 1-2.041 2.041l3.913 6.34h-4.443l-3.438-5.499h-2.568v5.5zm3.939-8.935h3.603c.464 0 .863-.218 1.2-.66.338-.441.504-1.004.504-1.692 0-.706-.192-1.265-.574-1.684-.386-.415-.803-.622-1.249-.622h-3.484z"/>
          <path id="path324" fill="#7c7b7b" d="M180.704 26.092v3.458h-11.985V12.496h11.769v3.46h-7.83v3.317h6.724v3.194h-6.724v3.628z"/>
          <path id="path326" fill="#87bd25" d="M98.028 115.826h-43.95V44.318h43.95z"/>
          <path id="path328" fill="#fc0" d="M141.975 115.826h-43.95V44.318h43.952z"/>
          <path id="path332" fill="#74ab7e" d="M27.939 85.167l4.855-12.704 4.662 12.702zm7.163-20.973h-4.28L17.605 96.066h6.201l2.309-6.097h13.121l2.26 6.097h6.777z"/>
          <path id="path344" fill="#bdd684" d="M71.023 91.262v-9.008h3.03c5.623.047 7.453 1.708 7.453 4.343 0 3.277-2.406 4.665-7.069 4.665zm0-13.443v-8.823h1.828c4.854 0 6.825 1.435 6.825 4.297 0 2.632-1.876 4.435-5.815 4.48zm2.598-13.627h-8.75v31.872h9.855c9.278 0 13.075-3.74 13.075-9.467 0-3.142-1.732-5.636-5.336-7.068 2.068-1.618 3.51-3.88 3.51-6.79 0-4.714-3.318-8.547-12.354-8.547" clip-path="url(#clipPath1693)"/>
          <path id="path348" fill="#ffdf7d" d="M116.306 63.73c-8.555 0-15.143 6.378-15.143 16.355 0 10.025 6.058 16.445 15.238 16.445 5.914 0 10.145-2.31 12.788-6.7l-4.616-3.372c-1.876 3.05-4.471 4.76-7.931 4.76-5.864 0-9.132-4.067-9.132-11.18 0-6.65 3.365-10.993 8.556-10.993 3.411 0 5.912 1.71 7.114 4.618l5.861-2.169c-1.92-4.48-5.428-7.763-12.735-7.763" clip-path="url(#clipPath1699)"/>
          <path id="path352" fill="#fff" d="M162.277 129.998c-16.566 0-30.045-12.466-30.045-27.788V57.936c0-15.324 13.48-27.79 30.045-27.79h3.118c16.567 0 30.043 12.468 30.043 27.79v44.274c0 15.322-13.476 27.788-30.043 27.788z" clip-path="url(#clipPath1705)"/>
          <path id="path356" fill="#ef7d00" d="M165.396 124.761h-3.119c-13.704 0-24.806-10.096-24.806-22.55V57.935c0-12.455 11.105-22.551 24.804-22.551h3.12c13.7 0 24.805 10.096 24.805 22.553v44.27c0 12.455-11.105 22.553-24.804 22.553" clip-path="url(#clipPath1711)"/>
          <path id="path360" fill="#fff" d="M147.106 100.849V58.353h14.534c13.796 0 22.17 7.82 22.17 21.247 0 11.95-8.928 21.25-23.216 21.25zm13.302-8.684c8.805 0 12.257-5.848 12.257-12.565 0-7.636-3.081-12.378-11.085-12.378h-3.696v24.943z"/>
        </g>
      </g>
    </g>
  </g>
<path
     id="path16330"
     clip-path="url(#clipPath1593)"
     style="fill:#093c6b;fill-opacity:1;fill-rule:nonzero;stroke:none"
     d="M 0 33.997 L 0 27.407156 C 2.3684734e-15 12.296171 12.298124 -0.003 27.412109 -0.003 L 211.76953 -0.003 L 211.76953 -0.001046875 C 226.88152 -0.001046875 239.17773 12.295171 239.17773 27.407156 L 239.17773 33.997 L 0 33.997 z "
     transform="matrix(1,0,0,-1,0,161.997)" />
<g
     aria-label="NOUVEAU CALCUL"
     id="text18503"
     style="font-size:21.2243px;line-height:1.25;font-family:'Open Sans';-inkscape-font-specification:'Open Sans';stroke-width:0.530607"><path
       d="m 27.677145,143.89633 v 8.61707 h -3.480786 v -15.06926 h 2.716711 l 7.025243,8.85054 v -8.85054 h 3.480786 v 15.06926 h -2.801608 z"
       style="font-weight:800;font-family:Raleway;-inkscape-font-specification:'Raleway Ultra-Bold';fill:#ffffff"
       id="path18799" /><path
       d="m 46.906337,152.64074 q -1.676719,0 -3.056299,-0.65795 -1.379579,-0.65795 -2.355897,-1.71917 -0.976318,-1.08244 -1.52815,-2.46202 -0.530607,-1.37958 -0.530607,-2.84405 0,-1.4857 0.551831,-2.86528 0.573057,-1.37958 1.570599,-2.41957 1.018766,-1.06122 2.398346,-1.67672 1.379579,-0.63673 3.01385,-0.63673 1.67672,0 3.0563,0.65795 1.379579,0.65795 2.355897,1.74039 0.976318,1.08244 1.506925,2.46202 0.530608,1.37958 0.530608,2.80161 0,1.4857 -0.573056,2.86528 -0.551832,1.37958 -1.549374,2.44079 -0.997542,1.03999 -2.377122,1.67672 -1.379579,0.63673 -3.013851,0.63673 z m -3.926495,-7.64075 q 0,0.8702 0.254691,1.69795 0.254692,0.80652 0.742851,1.44325 0.509383,0.63673 1.252234,1.01877 0.74285,0.38204 1.697944,0.38204 0.997542,0 1.740392,-0.40327 0.742851,-0.40326 1.23101,-1.03999 0.488159,-0.65795 0.721626,-1.46447 0.254692,-0.82775 0.254692,-1.67672 0,-0.8702 -0.254692,-1.67672 -0.254692,-0.82775 -0.764075,-1.44326 -0.509383,-0.63672 -1.252234,-0.99754 -0.721626,-0.38204 -1.676719,-0.38204 -0.997542,0 -1.740393,0.40327 -0.721626,0.38203 -1.231009,1.01876 -0.488159,0.63673 -0.742851,1.46448 -0.233467,0.80652 -0.233467,1.65549 z"
       style="font-weight:800;font-family:Raleway;-inkscape-font-specification:'Raleway Ultra-Bold';fill:#ffffff"
       id="path18801" /><path
       d="m 62.909426,149.542 q 0.89142,0 1.506925,-0.36082 0.615505,-0.38204 0.997542,-0.99754 0.382038,-0.6155 0.530608,-1.4008 0.169794,-0.80653 0.169794,-1.63428 v -7.70442 h 3.480785 v 7.70442 q 0,1.5706 -0.403261,2.92896 -0.382038,1.35835 -1.209786,2.37712 -0.806523,1.01877 -2.079981,1.61305 -1.252234,0.57305 -2.992626,0.57305 -1.804066,0 -3.077524,-0.6155 -1.273458,-0.61551 -2.079981,-1.63427 -0.785299,-1.03999 -1.167337,-2.39835 -0.360813,-1.35835 -0.360813,-2.84406 v -7.70442 h 3.480785 v 7.70442 q 0,0.8702 0.169795,1.6555 0.169794,0.7853 0.551832,1.4008 0.382037,0.61551 0.976317,0.97632 0.615505,0.36082 1.506926,0.36082 z"
       style="font-weight:800;font-family:Raleway;-inkscape-font-specification:'Raleway Ultra-Bold';fill:#ffffff"
       id="path18803" /><path
       d="m 74.476663,137.44414 3.544458,10.69705 3.502009,-10.69705 h 3.671804 l -5.709337,15.06926 h -2.928953 l -5.77301,-15.06926 z"
       style="font-weight:800;font-family:Raleway;-inkscape-font-specification:'Raleway Ultra-Bold';fill:#ffffff"
       id="path18805" /><path
       d="m 97.186657,149.4571 v 3.0563 H 86.595732 v -15.06926 h 10.399907 v 3.0563 h -6.919122 v 2.92896 h 5.942804 v 2.82283 h -5.942804 v 3.20487 z"
       style="font-weight:800;font-family:Raleway;-inkscape-font-specification:'Raleway Ultra-Bold';fill:#ffffff"
       id="path18807" /><path
       d="m 103.40536,137.44414 h 3.14119 l 5.4971,15.06926 h -3.56568 l -1.16734,-3.37467 h -4.69057 l -1.14611,3.37467 h -3.565685 z m 3.33221,9.29625 -1.76161,-5.3273 -1.80407,5.3273 z"
       style="font-weight:800;font-family:Raleway;-inkscape-font-specification:'Raleway Ultra-Bold';fill:#ffffff"
       id="path18809" /><path
       d="m 119.34477,149.542 q 0.89142,0 1.50692,-0.36082 0.61551,-0.38204 0.99754,-0.99754 0.38204,-0.6155 0.53061,-1.4008 0.1698,-0.80653 0.1698,-1.63428 v -7.70442 h 3.48078 v 7.70442 q 0,1.5706 -0.40326,2.92896 -0.38204,1.35835 -1.20979,2.37712 -0.80652,1.01877 -2.07998,1.61305 -1.25223,0.57305 -2.99262,0.57305 -1.80407,0 -3.07753,-0.6155 -1.27346,-0.61551 -2.07998,-1.63427 -0.7853,-1.03999 -1.16733,-2.39835 -0.36082,-1.35835 -0.36082,-2.84406 v -7.70442 h 3.48079 v 7.70442 q 0,0.8702 0.16979,1.6555 0.1698,0.7853 0.55183,1.4008 0.38204,0.61551 0.97632,0.97632 0.61551,0.36082 1.50693,0.36082 z"
       style="font-weight:800;font-family:Raleway;-inkscape-font-specification:'Raleway Ultra-Bold';fill:#ffffff"
       id="path18811" /><path
       d="m 132.80096,144.85142 q 0,-1.35835 0.50939,-2.69548 0.50938,-1.35836 1.4857,-2.41957 0.97632,-1.06122 2.37712,-1.71917 1.4008,-0.65795 3.18364,-0.65795 2.12243,0 3.67181,0.91264 1.5706,0.91265 2.33467,2.37712 l -2.67426,1.86774 q -0.25469,-0.59428 -0.65795,-0.97632 -0.38204,-0.40326 -0.84898,-0.63673 -0.46693,-0.25469 -0.95509,-0.33958 -0.48816,-0.10613 -0.95509,-0.10613 -0.99755,0 -1.7404,0.40327 -0.74285,0.40326 -1.23101,1.03999 -0.48815,0.63673 -0.72162,1.44325 -0.23347,0.80652 -0.23347,1.63427 0,0.89142 0.27592,1.71917 0.27591,0.82775 0.7853,1.46448 0.5306,0.63672 1.25223,1.01876 0.74285,0.36082 1.6555,0.36082 0.46693,0 0.95509,-0.10613 0.50938,-0.12734 0.95509,-0.36081 0.46694,-0.25469 0.84897,-0.63673 0.38204,-0.40326 0.61551,-0.97632 l 2.84406,1.67672 q -0.33959,0.82775 -1.01877,1.4857 -0.65795,0.65796 -1.52815,1.10367 -0.8702,0.44571 -1.84651,0.67918 -0.97632,0.23346 -1.91019,0.23346 -1.63427,0 -3.01385,-0.65795 -1.35836,-0.67918 -2.3559,-1.78284 -0.97632,-1.10367 -1.52815,-2.50447 -0.53061,-1.4008 -0.53061,-2.84406 z"
       style="font-weight:800;font-family:Raleway;-inkscape-font-specification:'Raleway Ultra-Bold';fill:#ffffff"
       id="path18813" /><path
       d="m 152.15751,137.44414 h 3.1412 l 5.49709,15.06926 h -3.56568 l -1.16734,-3.37467 h -4.69057 l -1.14611,3.37467 h -3.56568 z m 3.33222,9.29625 -1.76162,-5.3273 -1.80407,5.3273 z"
       style="font-weight:800;font-family:Raleway;-inkscape-font-specification:'Raleway Ultra-Bold';fill:#ffffff"
       id="path18815" /><path
       d="m 162.28147,152.5134 v -15.06926 h 3.48079 v 12.01296 h 7.30116 v 3.0563 z"
       style="font-weight:800;font-family:Raleway;-inkscape-font-specification:'Raleway Ultra-Bold';fill:#ffffff"
       id="path18817" /><path
       d="m 172.87237,144.85142 q 0,-1.35835 0.50938,-2.69548 0.50938,-1.35836 1.4857,-2.41957 0.97632,-1.06122 2.37712,-1.71917 1.40081,-0.65795 3.18365,-0.65795 2.12243,0 3.6718,0.91264 1.5706,0.91265 2.33467,2.37712 l -2.67426,1.86774 q -0.25469,-0.59428 -0.65795,-0.97632 -0.38204,-0.40326 -0.84897,-0.63673 -0.46694,-0.25469 -0.9551,-0.33958 -0.48815,-0.10613 -0.95509,-0.10613 -0.99754,0 -1.74039,0.40327 -0.74285,0.40326 -1.23101,1.03999 -0.48816,0.63673 -0.72163,1.44325 -0.23347,0.80652 -0.23347,1.63427 0,0.89142 0.27592,1.71917 0.27592,0.82775 0.7853,1.46448 0.53061,0.63672 1.25223,1.01876 0.74285,0.36082 1.6555,0.36082 0.46693,0 0.95509,-0.10613 0.50939,-0.12734 0.9551,-0.36081 0.46693,-0.25469 0.84897,-0.63673 0.38204,-0.40326 0.6155,-0.97632 l 2.84406,1.67672 q -0.33959,0.82775 -1.01877,1.4857 -0.65795,0.65796 -1.52815,1.10367 -0.87019,0.44571 -1.84651,0.67918 -0.97632,0.23346 -1.91019,0.23346 -1.63427,0 -3.01385,-0.65795 -1.35835,-0.67918 -2.3559,-1.78284 -0.97631,-1.10367 -1.52815,-2.50447 -0.5306,-1.4008 -0.5306,-2.84406 z"
       style="font-weight:800;font-family:Raleway;-inkscape-font-specification:'Raleway Ultra-Bold';fill:#ffffff"
       id="path18819" /><path
       d="m 194.81828,149.542 q 0.89143,0 1.50693,-0.36082 0.6155,-0.38204 0.99754,-0.99754 0.38204,-0.6155 0.53061,-1.4008 0.16979,-0.80653 0.16979,-1.63428 v -7.70442 h 3.48079 v 7.70442 q 0,1.5706 -0.40326,2.92896 -0.38204,1.35835 -1.20979,2.37712 -0.80652,1.01877 -2.07998,1.61305 -1.25223,0.57305 -2.99263,0.57305 -1.80406,0 -3.07752,-0.6155 -1.27346,-0.61551 -2.07998,-1.63427 -0.7853,-1.03999 -1.16734,-2.39835 -0.36081,-1.35835 -0.36081,-2.84406 v -7.70442 h 3.48079 v 7.70442 q 0,0.8702 0.16979,1.6555 0.16979,0.7853 0.55183,1.4008 0.38204,0.61551 0.97632,0.97632 0.6155,0.36082 1.50692,0.36082 z"
       style="font-weight:800;font-family:Raleway;-inkscape-font-specification:'Raleway Ultra-Bold';fill:#ffffff"
       id="path18821" /><path
       d="m 204.19943,152.5134 v -15.06926 h 3.48078 v 12.01296 h 7.30116 v 3.0563 z"
       style="font-weight:800;font-family:Raleway;-inkscape-font-specification:'Raleway Ultra-Bold';fill:#ffffff"
       id="path18823" /></g>    
</svg>
