<svg xmlns="http://www.w3.org/2000/svg" width="240" height="130"><defs><clipPath id="a" clipPathUnits="userSpaceOnUse"><path d="M-480-330h842v595h-842z"/></clipPath><clipPath id="b" clipPathUnits="userSpaceOnUse"><path d="M-480-332h842v596h-842z"/></clipPath><clipPath id="c" clipPathUnits="userSpaceOnUse"><path d="M-488-375h842v595h-842z"/></clipPath><clipPath id="d" clipPathUnits="userSpaceOnUse"><path d="M-520-379h842v595h-842z"/></clipPath><clipPath id="e" clipPathUnits="userSpaceOnUse"><path d="M-521-378h842v596h-842z"/></clipPath><clipPath id="f" clipPathUnits="userSpaceOnUse"><path d="M-532-374h842v595h-842z"/></clipPath><clipPath id="g" clipPathUnits="userSpaceOnUse"><path d="M-565-336h842v595h-842z"/></clipPath><clipPath id="h" clipPathUnits="userSpaceOnUse"><path d="M-480-336h842v595h-842z"/></clipPath><clipPath id="i" clipPathUnits="userSpaceOnUse"><path d="M-515-352h841v596h-841z"/></clipPath></defs><path fill="#b3b3b3" d="M31 127c-17 0-31-13-31-29V32C0 16 14 3 31 3h178c17 0 31 13 31 29v66c0 16-14 29-31 29z" clip-path="url(#a)"/><path fill="#fff" d="M31 123c-15 0-27-12-27-25V32C4 19 16 7 31 7h178c15 0 27 12 27 25v66c0 13-12 25-27 25z" clip-path="url(#b)"/><path fill="#1d1d1b" d="M27 25v9h-4V19h3l8 9v-9h3v15h-3z"/><path fill="#1d1d1b" d="M48 31h1a3 3 0 0 0 1-1l1-2a8 8 0 0 0 0-1v-8h4v8l-1 3a7 7 0 0 1-1 2 6 6 0 0 1-2 2l-3 1-4-1a6 6 0 0 1-2-2 7 7 0 0 1-1-2 11 11 0 0 1-1-3v-8h4v9a4 4 0 0 0 1 2l1 1h2" clip-path="url(#c)"/><path fill="#1d1d1b" d="M70 22h-5v12h-3V22h-5v-3h13zm2 12V19h10a6 6 0 0 1 3 3 5 5 0 0 1 0 2 5 5 0 0 1-1 3 5 5 0 0 1 0 1 5 5 0 0 1-2 1l4 5h-4l-3-5h-3v5zm4-8h5v-4h-5zm12-7h4v15h-4zm7 8h7v3h-7z"/><path fill="#1d1d1b" d="M115 23h-1a10 10 0 0 0-2-1 6 6 0 0 0-2 0h-1a1 1 0 0 0-1 1v1a2 2 0 0 0 1 0 6 6 0 0 0 1 1h2a20 20 0 0 1 2 1 6 6 0 0 1 1 1l1 1 1 2-1 2a4 4 0 0 1-1 2 6 6 0 0 1-2 0 10 10 0 0 1-2 1 14 14 0 0 1-4-1 16 16 0 0 1-2-1 10 10 0 0 1-1 0l1-4 1 1 1 1h2a7 7 0 0 0 2 0l2-1a1 1 0 0 0-1-1 10 10 0 0 0-2-1h-1a14 14 0 0 1-2-1 5 5 0 0 1-2-1 3 3 0 0 1 0-1 4 4 0 0 1-1-1l1-2a5 5 0 0 1 1-2 6 6 0 0 1 2-1 8 8 0 0 1 2 0h2a13 13 0 0 1 3 1h1z" clip-path="url(#d)"/><path fill="#1d1d1b" d="m118 26 1-2a8 8 0 0 1 1-3 8 8 0 0 1 6-2l4 1 2 2-3 2a3 3 0 0 0 0-1 4 4 0 0 0-1-1 3 3 0 0 0-1 0 5 5 0 0 0-1 0 4 4 0 0 0-2 0 4 4 0 0 0-1 1 5 5 0 0 0-1 2 6 6 0 0 0 0 2v1a5 5 0 0 0 1 2l1 1a4 4 0 0 0 2 0 4 4 0 0 0 2 0 3 3 0 0 0 1-2l4 2a5 5 0 0 1-2 1 7 7 0 0 1-1 2 9 9 0 0 1-4 1l-3-1a8 8 0 0 1-3-2 9 9 0 0 1-1-3 8 8 0 0 1-1-3" clip-path="url(#e)"/><path fill="#1d1d1b" d="m141 35-3-1a8 8 0 0 1-4-4 8 8 0 0 1-1-3 8 8 0 0 1 1-3l2-3a8 8 0 0 1 2-2h6a8 8 0 0 1 5 5v3a8 8 0 0 1-2 5 8 8 0 0 1-3 2 8 8 0 0 1-3 1m-4-8 1 1a5 5 0 0 0 0 2 4 4 0 0 0 2 1h3l1-1 1-2a6 6 0 0 0 0-1v-2a5 5 0 0 0-1-2 4 4 0 0 0-3-1h-2a4 4 0 0 0-1 1 5 5 0 0 0-1 2 6 6 0 0 0 0 2" clip-path="url(#f)"/><path fill="#1d1d1b" d="M151 34V19h10a6 6 0 0 1 3 3 5 5 0 0 1 0 2v1a5 5 0 0 1-1 2 5 5 0 0 1 0 1 5 5 0 0 1-2 1l4 5h-4l-3-5h-3v5zm4-8h5v-4h-5zm24 5v3h-12V19h12v3h-8v3h6v3h-6v3z"/><path fill="#656364" d="M209 114h-25V48h25c10 0 17 7 17 16v34c0 9-7 16-17 16" clip-path="url(#g)"/><path fill="#868785" d="M99 114H56V48h43z"/><path fill="#a7a7a6" d="M141 114H99V48h42z"/><path fill="#868785" d="M184 114h-43V48h43z"/><path fill="#656364" d="M31 114h25V48H31c-10 0-17 7-17 16v34c0 9 7 16 17 16" clip-path="url(#h)"/><path fill="#ccc" d="M195 96V66h20v5h-14v7h10v5h-10v8h14v5zM67 96V66h8c9 0 12 4 12 8 0 3-1 5-3 6 3 2 5 4 5 7 0 5-4 9-13 9zm6-17h2c4 0 6-2 6-4 0-3-2-4-7-4h-1zm3 4h-3v8h3c4 0 7-1 7-4s-2-4-7-4"/><path fill="#ccc" d="M106 81c0-9 6-15 15-15 7 0 10 3 12 7l-6 2c-1-3-3-4-7-4-5 0-8 4-8 10s3 10 9 10c3 0 6-1 8-4l4 3c-2 4-6 6-12 6-9 0-15-6-15-15" clip-path="url(#i)"/><path fill="#ccc" d="M151 96V66h9c11 0 17 6 17 15 0 8-6 15-17 15zm9-5c7 0 11-4 11-10s-3-10-11-10h-3v20zM21 96l12-30h5l12 30h-6l-2-6H29l-2 6zm10-10h9l-5-12z"/><path fill="#fff" fill-opacity=".5" d="M31 123c-15 0-27-12-27-25V32C4 19 16 7 31 7h178c15 0 27 12 27 25v66c0 13-12 25-27 25z" clip-path="url(#b)"/></svg>