<svg xmlns="http://www.w3.org/2000/svg" id="svg2032" width="240" height="162" version="1.1" viewBox="0 0 240 162">
<rect
     style="fill:#ffffff;fill-opacity:1;stroke:none;stroke-width:2.65346;stroke-linecap:round;stroke-linejoin:round;paint-order:stroke fill markers"
     id="rect18499"
     width="239.17799"
     height="30"
     x="0"
     y="98" />
  <defs id="defs2029">
    <clipPath id="clipPath1836" clipPathUnits="userSpaceOnUse">
      <path id="path1838" stroke-width="1" d="M-576.406-131.683h841.89v595.276h-841.89z"/>
    </clipPath>
    <clipPath id="clipPath1817" clipPathUnits="userSpaceOnUse">
      <path id="path1819" stroke-width="1" d="M-480.445-91.617h841.89V503.66h-841.89z"/>
    </clipPath>
    <clipPath id="clipPath1872" clipPathUnits="userSpaceOnUse">
      <path id="path1874" stroke-width="1" d="M-488.313-132.237h841.89v595.276h-841.89z"/>
    </clipPath>
    <clipPath id="clipPath1878" clipPathUnits="userSpaceOnUse">
      <path id="path1880" stroke-width="1" d="M-519.714-136.177h841.89V459.1h-841.89z"/>
    </clipPath>
    <clipPath id="clipPath1886" clipPathUnits="userSpaceOnUse">
      <path id="path1888" stroke-width="1" d="M-521.325-134.642h841.89v595.276h-841.89z"/>
    </clipPath>
    <clipPath id="clipPath1892" clipPathUnits="userSpaceOnUse">
      <path id="path1894" stroke-width="1" d="M-532.144-130.648h841.89v595.276h-841.89z"/>
    </clipPath>
    <clipPath id="clipPath1898" clipPathUnits="userSpaceOnUse">
      <path id="path1900" stroke-width="1" d="M-500.02-102.749h841.89v595.276h-841.89z"/>
    </clipPath>
    <clipPath id="clipPath1904" clipPathUnits="userSpaceOnUse">
      <path id="path1906" stroke-width="1" d="M-522.55-115.224h841.89v595.276h-841.89z"/>
    </clipPath>
    <clipPath id="clipPath1910" clipPathUnits="userSpaceOnUse">
      <path id="path1912" stroke-width="1" d="M-561.373-85.195h841.89v595.276h-841.89z"/>
    </clipPath>
    <clipPath id="clipPath1916" clipPathUnits="userSpaceOnUse">
      <path id="path1918" stroke-width="1" d="M-562.786-87.568h841.89v595.276h-841.89z"/>
    </clipPath>
    <clipPath id="clipPath1593" clipPathUnits="userSpaceOnUse">
      <path id="path1595" stroke-width="1" d="M-503.056-291.81h841.89v595.277h-841.89z"/>
    </clipPath>
    <clipPath id="clipPath1929" clipPathUnits="userSpaceOnUse">
      <path id="path1931" stroke-width="1" d="M-503.055-239.322h841.89v595.276h-841.89z"/>
    </clipPath>
    <clipPath id="clipPath1605" clipPathUnits="userSpaceOnUse">
      <path id="path1607" stroke-width="1" d="M-427.382-279.942h841.89v595.276h-841.89z"/>
    </clipPath>
    <clipPath id="clipPath1618" clipPathUnits="userSpaceOnUse">
      <path id="path1620" stroke-width="1" d="M-458.785-283.881h841.89v595.276h-841.89z"/>
    </clipPath>
    <clipPath id="clipPath1611" clipPathUnits="userSpaceOnUse">
      <path id="path1613" stroke-width="1" d="M-460.394-282.347h841.89v595.276h-841.89z"/>
    </clipPath>
    <clipPath id="clipPath1599" clipPathUnits="userSpaceOnUse">
      <path id="path1601" stroke-width="1" d="M-471.214-278.353h841.89v595.276h-841.89z"/>
    </clipPath>
    <clipPath id="clipPath1624" clipPathUnits="userSpaceOnUse">
      <path id="path1626" stroke-width="1" d="M-441.091-250.452h841.89v595.276h-841.89z"/>
    </clipPath>
    <clipPath id="clipPath1630" clipPathUnits="userSpaceOnUse">
      <path id="path1632" stroke-width="1" d="M-461.62-262.929h841.89v595.276h-841.89z"/>
    </clipPath>
    <clipPath id="clipPath1636" clipPathUnits="userSpaceOnUse">
      <path id="path1638" stroke-width="1" d="M-478.601-250.452h841.89v595.276h-841.89z"/>
    </clipPath>
    <clipPath id="clipPath1642" clipPathUnits="userSpaceOnUse">
      <path id="path1644" stroke-width="1" d="M-420.708-232.9h841.89v595.276h-841.89z"/>
    </clipPath>
    <clipPath id="clipPath1922" clipPathUnits="userSpaceOnUse">
      <path id="path1924" stroke-width="1" d="M-422.121-235.273h841.89v595.276h-841.89z"/>
    </clipPath>
    <clipPath id="clipPath1866" clipPathUnits="userSpaceOnUse">
      <path id="path1868" stroke-width="1" d="M-625.833-291.81h841.89v595.277h-841.89z"/>
    </clipPath>
    <clipPath id="clipPath1717" clipPathUnits="userSpaceOnUse">
      <path id="path1719" stroke-width="1" d="M-625.833-239.322h841.89v595.276h-841.89z"/>
    </clipPath>
    <clipPath id="clipPath1729" clipPathUnits="userSpaceOnUse">
      <path id="path1731" stroke-width="1" d="M-542.292-239.322h841.89v595.276h-841.89z"/>
    </clipPath>
    <clipPath id="clipPath1735" clipPathUnits="userSpaceOnUse">
      <path id="path1737" stroke-width="1" d="M-586.47-262.929h841.89v595.276h-841.89z"/>
    </clipPath>
    <clipPath id="clipPath1741" clipPathUnits="userSpaceOnUse">
      <path id="path1743" stroke-width="1" d="M-601.38-250.452h841.89v595.276h-841.89z"/>
    </clipPath>
    <clipPath id="clipPath1747" clipPathUnits="userSpaceOnUse">
      <path id="path1749" stroke-width="1" d="M-550.16-279.942h841.89v595.276h-841.89z"/>
    </clipPath>
    <clipPath id="clipPath1759" clipPathUnits="userSpaceOnUse">
      <path id="path1761" stroke-width="1" d="M-581.562-283.881h841.89v595.276h-841.89z"/>
    </clipPath>
    <clipPath id="clipPath1765" clipPathUnits="userSpaceOnUse">
      <path id="path1767" stroke-width="1" d="M-583.172-282.347h841.89v595.276h-841.89z"/>
    </clipPath>
    <clipPath id="clipPath1773" clipPathUnits="userSpaceOnUse">
      <path id="path1775" stroke-width="1" d="M-593.991-278.353h841.89v595.276h-841.89z"/>
    </clipPath>
    <clipPath id="clipPath1779" clipPathUnits="userSpaceOnUse">
      <path id="path1781" stroke-width="1" d="M-563.464-232.9h841.89v595.276h-841.89z"/>
    </clipPath>
    <clipPath id="clipPath1785" clipPathUnits="userSpaceOnUse">
      <path id="path1787" stroke-width="1" d="M-564.877-235.273h841.89v595.276h-841.89z"/>
    </clipPath>
    <clipPath id="clipPath1792" clipPathUnits="userSpaceOnUse">
      <path id="path1794" stroke-width="1" d="M-503.055-216.392h841.89v595.276h-841.89z"/>
    </clipPath>
    <clipPath id="clipPath1753" clipPathUnits="userSpaceOnUse">
      <path id="path1755" stroke-width="1" d="M-503.055-163.905h841.89v595.276h-841.89z"/>
    </clipPath>
    <clipPath id="clipPath1723" clipPathUnits="userSpaceOnUse">
      <path id="path1725" stroke-width="1" d="M-419.514-163.905h841.89v595.276h-841.89z"/>
    </clipPath>
    <clipPath id="clipPath1798" clipPathUnits="userSpaceOnUse">
      <path id="path1800" stroke-width="1" d="M-427.382-204.525h841.89v595.276h-841.89z"/>
    </clipPath>
    <clipPath id="clipPath1804" clipPathUnits="userSpaceOnUse">
      <path id="path1806" stroke-width="1" d="M-458.784-208.465h841.89v595.276h-841.89z"/>
    </clipPath>
    <clipPath id="clipPath1810" clipPathUnits="userSpaceOnUse">
      <path id="path1812" stroke-width="1" d="M-460.394-206.93h841.89v595.276h-841.89z"/>
    </clipPath>
    <clipPath id="clipPath1823" clipPathUnits="userSpaceOnUse">
      <path id="path1825" stroke-width="1" d="M-471.213-202.936h841.89V392.34h-841.89z"/>
    </clipPath>
    <clipPath id="clipPath1830" clipPathUnits="userSpaceOnUse">
      <path id="path1832" stroke-width="1" d="M-437.456-175.036h841.89V420.24h-841.89z"/>
    </clipPath>
    <clipPath id="clipPath1848" clipPathUnits="userSpaceOnUse">
      <path id="path1850" stroke-width="1" d="M-480.209-175.036h841.89V420.24h-841.89z"/>
    </clipPath>
    <clipPath id="clipPath1842" clipPathUnits="userSpaceOnUse">
      <path id="path1844" stroke-width="1" d="M-460.551-157.483h841.89v595.276h-841.89z"/>
    </clipPath>
    <clipPath id="clipPath1854" clipPathUnits="userSpaceOnUse">
      <path id="path1856" stroke-width="1" d="M-461.964-159.856h841.89V435.42h-841.89z"/>
    </clipPath>
    <clipPath id="clipPath1860" clipPathUnits="userSpaceOnUse">
      <path id="path1862" stroke-width="1" d="M-452.876-180.763h841.89v595.276h-841.89z"/>
    </clipPath>
    <clipPath id="clipPath1648" clipPathUnits="userSpaceOnUse">
      <path id="path1650" stroke-width="1" d="M-625.835-216.392h841.89v595.276h-841.89z"/>
    </clipPath>
    <clipPath id="clipPath1655" clipPathUnits="userSpaceOnUse">
      <path id="path1657" stroke-width="1" d="M-625.833-163.905h841.89v595.276h-841.89z"/>
    </clipPath>
    <clipPath id="clipPath1661" clipPathUnits="userSpaceOnUse">
      <path id="path1663" stroke-width="1" d="M-542.292-163.905h841.89v595.276h-841.89z"/>
    </clipPath>
    <clipPath id="clipPath1673" clipPathUnits="userSpaceOnUse">
      <path id="path1675" stroke-width="1" d="M-550.16-204.525h841.89v595.276h-841.89z"/>
    </clipPath>
    <clipPath id="clipPath1667" clipPathUnits="userSpaceOnUse">
      <path id="path1669" stroke-width="1" d="M-581.562-208.465h841.89v595.276h-841.89z"/>
    </clipPath>
    <clipPath id="clipPath1687" clipPathUnits="userSpaceOnUse">
      <path id="path1689" stroke-width="1" d="M-583.173-206.93h841.89v595.276h-841.89z"/>
    </clipPath>
    <clipPath id="clipPath1680" clipPathUnits="userSpaceOnUse">
      <path id="path1682" stroke-width="1" d="M-593.993-202.935h841.89V392.34h-841.89z"/>
    </clipPath>
    <clipPath id="clipPath1693" clipPathUnits="userSpaceOnUse">
      <path id="path1695" stroke-width="1" d="M-561.868-175.036h841.89V420.24h-841.89z"/>
    </clipPath>
    <clipPath id="clipPath1699" clipPathUnits="userSpaceOnUse">
      <path id="path1701" stroke-width="1" d="M-582.388-187.512h841.89v595.276h-841.89z"/>
    </clipPath>
    <clipPath id="clipPath1705" clipPathUnits="userSpaceOnUse">
      <path id="path1707" stroke-width="1" d="M-603.22-157.483h841.89v595.276h-841.89z"/>
    </clipPath>
    <clipPath id="clipPath1711" clipPathUnits="userSpaceOnUse">
      <path id="path1713" stroke-width="1" d="M-604.633-159.856h841.89V435.42h-841.89z"/>
    </clipPath>
    <clipPath id="clipPath1836-3" clipPathUnits="userSpaceOnUse">
      <path id="path1838-6" stroke-width="1" d="M-576.406-131.683h841.89v595.276h-841.89z"/>
    </clipPath>
    <clipPath id="clipPath1817-7" clipPathUnits="userSpaceOnUse">
      <path id="path1819-5" stroke-width="1" d="M-480.445-91.617h841.89V503.66h-841.89z"/>
    </clipPath>
    <clipPath id="clipPath1872-3" clipPathUnits="userSpaceOnUse">
      <path id="path1874-5" stroke-width="1" d="M-488.313-132.237h841.89v595.276h-841.89z"/>
    </clipPath>
    <clipPath id="clipPath1878-6" clipPathUnits="userSpaceOnUse">
      <path id="path1880-2" stroke-width="1" d="M-519.714-136.177h841.89V459.1h-841.89z"/>
    </clipPath>
    <clipPath id="clipPath1886-9" clipPathUnits="userSpaceOnUse">
      <path id="path1888-1" stroke-width="1" d="M-521.325-134.642h841.89v595.276h-841.89z"/>
    </clipPath>
    <clipPath id="clipPath1892-2" clipPathUnits="userSpaceOnUse">
      <path id="path1894-7" stroke-width="1" d="M-532.144-130.648h841.89v595.276h-841.89z"/>
    </clipPath>
    <clipPath id="clipPath1898-0" clipPathUnits="userSpaceOnUse">
      <path id="path1900-9" stroke-width="1" d="M-500.02-102.749h841.89v595.276h-841.89z"/>
    </clipPath>
    <clipPath id="clipPath1904-3" clipPathUnits="userSpaceOnUse">
      <path id="path1906-6" stroke-width="1" d="M-522.55-115.224h841.89v595.276h-841.89z"/>
    </clipPath>
    <clipPath id="clipPath1910-0" clipPathUnits="userSpaceOnUse">
      <path id="path1912-6" stroke-width="1" d="M-561.373-85.195h841.89v595.276h-841.89z"/>
    </clipPath>
    <clipPath id="clipPath1916-2" clipPathUnits="userSpaceOnUse">
      <path id="path1918-6" stroke-width="1" d="M-562.786-87.568h841.89v595.276h-841.89z"/>
    </clipPath>
    <clipPath id="clipPath2322" clipPathUnits="userSpaceOnUse">
      <path id="path2324" stroke-width="1" d="M-537.03-102.748h841.89v595.276h-841.89z"/>
    </clipPath>
  </defs>
  <g id="layer1">
    <g id="g2493">
      <g id="g2395" fill-opacity="1" fill-rule="nonzero" stroke="none">
        <path id="path612" fill="#fff" d="M239.174 27.41c0-15.112-12.296-27.41-27.408-27.41H27.411C12.295 0 .001 12.298.001 27.41v70.768c0 15.117 12.294 27.41 27.41 27.41h162.413A31.607 31.607 0 0 0 206 130h3.118c16.568 0 30.045-12.466 30.045-27.79v-3.793l.011-.239z" clip-path="url(#clipPath1836-3)"/>
        <path id="path616" fill="#00803d" d="M27.411 115.826h26.252V44.318H27.41a17.647 17.647 0 0 0-17.65 17.647v36.211a17.65 17.65 0 0 0 17.65 17.65" clip-path="url(#clipPath1817-7)"/>
        <path id="path620" fill="#7c7b7b" d="M23.179 19.799v9.751h-3.94V12.497h3.077l7.949 10.016V12.497h3.939V29.55h-3.17z"/>
        <path id="path632" fill="#7c7b7b" d="M44.774 26.187c.67 0 1.24-.139 1.704-.419.465-.28.843-.653 1.13-1.117.289-.465.492-.997.61-1.597.122-.6.184-1.214.184-1.839v-8.719h3.937v8.72a11.894 11.894 0 0 1-.444 3.314 7.635 7.635 0 0 1-1.37 2.692 6.413 6.413 0 0 1-2.353 1.814c-.953.437-2.085.658-3.398.658-1.362 0-2.522-.23-3.484-.695-.96-.464-1.742-1.084-2.34-1.863a7.608 7.608 0 0 1-1.321-2.7 12.062 12.062 0 0 1-.422-3.22v-8.72h3.94v8.72c0 .655.063 1.282.193 1.875a4.965 4.965 0 0 0 .623 1.585c.289.463.66.832 1.116 1.103.457.274 1.022.408 1.695.408" clip-path="url(#clipPath1872-3)"/>
        <path id="path636" fill="#7c7b7b" d="M68.358 15.957h-5.186V29.55h-3.937V15.957h-5.212v-3.46h14.335z"/>
        <path id="path648" fill="#7c7b7b" d="M70.306 29.55V12.497h7.686c.801 0 1.543.17 2.223.505.68.335 1.266.777 1.763 1.322.496.545.882 1.16 1.165 1.849.282.688.42 1.384.42 2.09a5.991 5.991 0 0 1-.742 2.906 5.283 5.283 0 0 1-2.044 2.041l3.917 6.34H80.25l-3.436-5.499h-2.569v5.5zm3.94-8.937h3.6c.464 0 .866-.216 1.203-.658.338-.441.504-1.004.504-1.692 0-.706-.192-1.265-.576-1.684-.384-.415-.801-.622-1.25-.622h-3.482z"/>
        <path id="path650" fill="#7c7b7b" d="M86.638 12.497h3.94V29.55h-3.94z"/>
        <path id="path652" fill="#7c7b7b" d="M93.506 21.215h7.4v3.46h-7.4z"/>
        <path id="path664" fill="#7c7b7b" d="M114.068 17.493l-.53-.362a10.504 10.504 0 0 0-2.497-1.057 5.67 5.67 0 0 0-1.536-.214c-.675 0-1.19.119-1.551.36a1.185 1.185 0 0 0-.539 1.056l.24.722.685.514c.295.152.664.294 1.105.422.44.128.947.273 1.525.432.817.225 1.554.468 2.21.733a6.075 6.075 0 0 1 1.68.984c.464.393.822.87 1.069 1.43.247.56.373 1.234.373 2.017 0 .96-.181 1.772-.54 2.436a4.568 4.568 0 0 1-1.429 1.611 6.073 6.073 0 0 1-2.054.89 10.502 10.502 0 0 1-2.39.275 13.622 13.622 0 0 1-3.82-.565 15.906 15.906 0 0 1-1.825-.66 10.142 10.142 0 0 1-1.635-.889l1.732-3.436.647.457c.353.227.785.45 1.297.673.512.225 1.088.426 1.728.6a7.311 7.311 0 0 0 1.947.265c1.394 0 2.09-.426 2.09-1.273l-.312-.792-.865-.563a9.249 9.249 0 0 0-1.297-.47l-1.631-.481a14.214 14.214 0 0 1-2.044-.781 5.457 5.457 0 0 1-1.44-.974 3.443 3.443 0 0 1-.853-1.27 4.656 4.656 0 0 1-.275-1.682c0-.898.167-1.688.503-2.377a5.154 5.154 0 0 1 1.368-1.743 5.958 5.958 0 0 1 2.006-1.07 8.038 8.038 0 0 1 2.414-.358c.61 0 1.203.055 1.779.166.576.114 1.125.258 1.644.432a13.781 13.781 0 0 1 2.725 1.273z" clip-path="url(#clipPath1878-6)"/>
        <path id="path668" fill="#7c7b7b" d="M117.624 20.88c0-1.024.18-2.046.551-3.063a8.47 8.47 0 0 1 1.609-2.725 8.134 8.134 0 0 1 2.584-1.947c1.015-.496 2.172-.743 3.47-.743 1.52 0 2.842.344 3.963 1.032a6.494 6.494 0 0 1 2.498 2.69l-3.026 2.112a3.661 3.661 0 0 0-.673-1.116l-.89-.72-.995-.384-.975-.108a3.509 3.509 0 0 0-1.825.457 4.085 4.085 0 0 0-1.273 1.176 5.298 5.298 0 0 0-.755 1.633 6.845 6.845 0 0 0-.254 1.85c0 .672.102 1.321.303 1.946a5.5 5.5 0 0 0 .838 1.657c.362.479.797.86 1.309 1.141a3.5 3.5 0 0 0 1.706.42l.997-.131.995-.41.868-.72c.253-.296.463-.662.624-1.092l3.242 1.898a5.168 5.168 0 0 1-1.119 1.681 6.852 6.852 0 0 1-1.668 1.247 8.569 8.569 0 0 1-4.036 1.033c-1.183 0-2.269-.252-3.253-.755a8.27 8.27 0 0 1-2.547-2.006 9.478 9.478 0 0 1-1.668-2.833 8.993 8.993 0 0 1-.6-3.22" clip-path="url(#clipPath1886-9)"/>
        <path id="path672" fill="#7c7b7b" d="M141.499 29.694c-1.216 0-2.322-.247-3.315-.744a8.3 8.3 0 0 1-2.558-1.957 8.878 8.878 0 0 1-1.657-2.776 9.026 9.026 0 0 1-.59-3.216c0-1.12.204-2.202.614-3.244a8.757 8.757 0 0 1 1.704-2.751 8.34 8.34 0 0 1 2.595-1.896c1-.472 2.094-.708 3.277-.708 1.216 0 2.324.247 3.315.743a8.24 8.24 0 0 1 2.56 1.97 8.91 8.91 0 0 1 1.644 2.786 9.104 9.104 0 0 1 .576 3.171 8.791 8.791 0 0 1-.612 3.242 8.85 8.85 0 0 1-1.692 2.752 8.313 8.313 0 0 1-2.582 1.908 7.472 7.472 0 0 1-3.28.72m-4.108-8.644c0 .655.094 1.29.278 1.907.183.617.448 1.165.792 1.646a3.884 3.884 0 0 0 1.297 1.154 3.641 3.641 0 0 0 1.79.43c.689 0 1.289-.152 1.8-.457a4.11 4.11 0 0 0 1.287-1.187 5.284 5.284 0 0 0 .768-1.657 7.26 7.26 0 0 0 .252-1.885c0-.657-.093-1.295-.278-1.91a5.131 5.131 0 0 0-.803-1.634 4.01 4.01 0 0 0-1.298-1.13c-.512-.28-1.097-.419-1.754-.419-.687 0-1.287.148-1.799.444a4.094 4.094 0 0 0-1.286 1.165 5.26 5.26 0 0 0-.78 1.644 6.76 6.76 0 0 0-.266 1.889" clip-path="url(#clipPath1892-2)"/>
        <path id="path676" fill="#7c7b7b" d="M151.97 29.55V12.497h7.686c.8 0 1.54.17 2.222.505a5.892 5.892 0 0 1 1.765 1.322c.497.545.883 1.16 1.165 1.849a5.539 5.539 0 0 1 .42 2.09 6.16 6.16 0 0 1-.19 1.522 6.029 6.029 0 0 1-.554 1.384 5.274 5.274 0 0 1-2.041 2.041l3.917 6.34h-4.445l-3.435-5.499h-2.571v5.5zm3.939-8.937h3.603c.464 0 .865-.216 1.2-.658.338-.441.506-1.004.506-1.692 0-.706-.192-1.265-.576-1.684-.384-.415-.803-.622-1.249-.622h-3.487z"/>
        <path id="path680" fill="#7c7b7b" d="M180.289 26.092v3.458h-11.987V12.497h11.768v3.46h-7.83v3.314h6.727v3.193h-6.726v3.628z"/>
        <path id="path682" fill="#87bd25" d="M97.613 115.826H53.66V44.318h43.952z"/>
        <path id="path684" fill="#fc0" d="M141.562 115.826h-43.95V44.318h43.95z"/>
        <path id="path686" fill="#ef7d00" d="M185.515 115.826h-43.953V44.318h43.953z"/>
        <path id="path700" fill="#74ab7e" d="M27.522 85.165l4.854-12.702 4.666 12.702zm7.163-20.97h-4.277L17.19 96.065h6.2l2.304-6.097h13.124l2.262 6.097h6.775z"/>
        <path id="path712" fill="#bdd684" d="M70.609 91.26v-9.006h3.027c5.625.045 7.452 1.708 7.452 4.341 0 3.28-2.405 4.665-7.068 4.665zm0-13.441v-8.823h1.827c4.855 0 6.825 1.432 6.825 4.297 0 2.632-1.875 4.433-5.817 4.48zm2.597-13.627h-8.752v31.872h9.855c9.28 0 13.078-3.74 13.078-9.469 0-3.142-1.733-5.634-5.339-7.066 2.068-1.618 3.51-3.88 3.51-6.792 0-4.712-3.318-8.545-12.352-8.545" clip-path="url(#clipPath1898-0)"/>
        <path id="path716" fill="#ffdf7d" d="M120.327 63.73c-8.556 0-15.14 6.376-15.14 16.353 0 10.027 6.057 16.447 15.237 16.447 5.912 0 10.142-2.31 12.784-6.7l-4.615-3.372c-1.873 3.05-4.468 4.76-7.929 4.76-5.865 0-9.135-4.067-9.135-11.181 0-6.652 3.365-10.992 8.557-10.992 3.414 0 5.912 1.708 7.115 4.618l5.863-2.171c-1.922-4.48-5.43-7.761-12.737-7.761" clip-path="url(#clipPath1904-3)"/>
        <path id="path720" fill="#fff" d="M206 129.998c-16.566 0-30.043-12.466-30.043-27.788V57.936c0-15.324 13.477-27.79 30.043-27.79h3.118c16.568 0 30.045 12.466 30.045 27.79v44.274c0 15.322-13.477 27.788-30.045 27.788z" clip-path="url(#clipPath1910-0)"/>
        <path id="path724" fill="#e63312" d="M209.118 124.761H206c-13.7 0-24.806-10.096-24.806-22.55V57.935c0-12.455 11.106-22.551 24.806-22.551h3.118c13.702 0 24.808 10.096 24.808 22.55v44.275c0 12.455-11.106 22.551-24.808 22.551" clip-path="url(#clipPath1916-2)"/>
        <path id="path728" fill="#fff" d="M194.496 100.849V58.353h27.653v8.684h-16.875v7.45h11.64v8.747h-11.64v8.93h17.243v8.685z"/>
        <path id="path740" fill="#f8b472" d="M152.28 91.262V69.09h3.463c7.642 0 11.345 4.065 11.345 11.04 0 6.376-3.992 11.133-12.113 11.133zm3.512-27.07h-9.664v31.872h8.99c11.392 0 18.315-6.788 18.315-15.935 0-9.976-6.442-15.937-17.641-15.937" clip-path="url(#clipPath2322)"/>
      </g>
    </g>
  </g>
<path
     id="path16330"
     clip-path="url(#clipPath1593)"
     style="fill:#093c6b;fill-opacity:1;fill-rule:nonzero;stroke:none"
     d="M 0 33.997 L 0 27.407156 C 2.3684734e-15 12.296171 12.298124 -0.003 27.412109 -0.003 L 211.76953 -0.003 L 211.76953 -0.001046875 C 226.88152 -0.001046875 239.17773 12.295171 239.17773 27.407156 L 239.17773 33.997 L 0 33.997 z "
     transform="matrix(1,0,0,-1,0,161.997)" />
<g
       aria-label="NEW CALCULATION"
       id="text18503"
       style="font-size:21.2243px;line-height:1.25;font-family:'Open Sans';-inkscape-font-specification:'Open Sans';stroke-width:0.530607"><path
         d="m 23.472061,143.89633 v 8.61707 h -3.480785 v -15.06926 h 2.71671 l 7.025244,8.85054 v -8.85054 h 3.480785 v 15.06926 h -2.801608 z"
         style="font-weight:800;font-family:Raleway;-inkscape-font-specification:'Raleway Ultra-Bold';fill:#ffffff"
         id="path5610" /><path
         d="m 46.691422,149.4571 v 3.0563 H 36.100496 v -15.06926 h 10.399907 v 3.0563 h -6.919122 v 2.92896 h 5.942805 v 2.82283 h -5.942805 v 3.20487 z"
         style="font-weight:800;font-family:Raleway;-inkscape-font-specification:'Raleway Ultra-Bold';fill:#ffffff"
         id="path5612" /><path
         d="m 53.822766,137.46537 h 3.204869 l 1.52815,4.81791 1.52815,-4.81791 h 3.226093 l -2.525691,7.00402 1.528149,4.05384 3.777926,-11.07909 h 3.799149 L 63.86186,152.5134 h -2.907729 l -2.398346,-5.90036 -2.377122,5.90036 H 53.24971 l -6.006477,-15.06926 h 3.777925 l 3.79915,11.07909 1.485701,-4.05384 z"
         style="font-weight:800;font-family:Raleway;-inkscape-font-specification:'Raleway Ultra-Bold';fill:#ffffff"
         id="path5614" /><path
         d="m 74.558862,144.85142 q 0,-1.35835 0.509383,-2.69548 0.509383,-1.35836 1.485701,-2.41957 0.976318,-1.06122 2.377122,-1.71917 1.400803,-0.65795 3.183645,-0.65795 2.12243,0 3.671804,0.91264 1.570598,0.91265 2.334673,2.37712 l -2.674262,1.86774 q -0.254692,-0.59428 -0.657954,-0.97632 -0.382037,-0.40326 -0.848972,-0.63673 -0.466934,-0.25469 -0.955093,-0.33958 -0.488159,-0.10613 -0.955094,-0.10613 -0.997542,0 -1.740392,0.40327 -0.742851,0.40326 -1.23101,1.03999 -0.488159,0.63673 -0.721626,1.44325 -0.233467,0.80652 -0.233467,1.63427 0,0.89142 0.275916,1.71917 0.275916,0.82775 0.785299,1.46448 0.530607,0.63672 1.252234,1.01876 0.74285,0.36082 1.655495,0.36082 0.466935,0 0.955093,-0.10613 0.509384,-0.12734 0.955094,-0.36081 0.466935,-0.25469 0.848972,-0.63673 0.382037,-0.40326 0.615505,-0.97632 l 2.844056,1.67672 q -0.339589,0.82775 -1.018766,1.4857 -0.657954,0.65796 -1.52815,1.10367 -0.870196,0.44571 -1.846514,0.67918 -0.976318,0.23346 -1.910187,0.23346 -1.634271,0 -3.013851,-0.65795 -1.358355,-0.67918 -2.355897,-1.78284 -0.976318,-1.10367 -1.52815,-2.50447 -0.530607,-1.4008 -0.530607,-2.84406 z"
         style="font-weight:800;font-family:Raleway;-inkscape-font-specification:'Raleway Ultra-Bold';fill:#ffffff"
         id="path5616" /><path
         d="m 93.915408,137.44414 h 3.141197 l 5.497095,15.06926 h -3.565684 l -1.167336,-3.37467 h -4.690571 l -1.146112,3.37467 h -3.565682 z m 3.332215,9.29625 -1.761616,-5.3273 -1.804066,5.3273 z"
         style="font-weight:800;font-family:Raleway;-inkscape-font-specification:'Raleway Ultra-Bold';fill:#ffffff"
         id="path5618" /><path
         d="m 104.03936,152.5134 v -15.06926 h 3.48079 v 12.01296 h 7.30116 v 3.0563 z"
         style="font-weight:800;font-family:Raleway;-inkscape-font-specification:'Raleway Ultra-Bold';fill:#ffffff"
         id="path5620" /><path
         d="m 114.63027,144.85142 q 0,-1.35835 0.50939,-2.69548 0.50938,-1.35836 1.4857,-2.41957 0.97631,-1.06122 2.37712,-1.71917 1.4008,-0.65795 3.18364,-0.65795 2.12243,0 3.67181,0.91264 1.5706,0.91265 2.33467,2.37712 l -2.67426,1.86774 q -0.25469,-0.59428 -0.65795,-0.97632 -0.38204,-0.40326 -0.84898,-0.63673 -0.46693,-0.25469 -0.95509,-0.33958 -0.48816,-0.10613 -0.95509,-0.10613 -0.99755,0 -1.7404,0.40327 -0.74285,0.40326 -1.23101,1.03999 -0.48815,0.63673 -0.72162,1.44325 -0.23347,0.80652 -0.23347,1.63427 0,0.89142 0.27592,1.71917 0.27591,0.82775 0.7853,1.46448 0.5306,0.63672 1.25223,1.01876 0.74285,0.36082 1.6555,0.36082 0.46693,0 0.95509,-0.10613 0.50938,-0.12734 0.95509,-0.36081 0.46694,-0.25469 0.84897,-0.63673 0.38204,-0.40326 0.61551,-0.97632 l 2.84406,1.67672 q -0.33959,0.82775 -1.01877,1.4857 -0.65795,0.65796 -1.52815,1.10367 -0.8702,0.44571 -1.84652,0.67918 -0.97631,0.23346 -1.91018,0.23346 -1.63427,0 -3.01385,-0.65795 -1.35836,-0.67918 -2.3559,-1.78284 -0.97632,-1.10367 -1.52815,-2.50447 -0.53061,-1.4008 -0.53061,-2.84406 z"
         style="font-weight:800;font-family:Raleway;-inkscape-font-specification:'Raleway Ultra-Bold';fill:#ffffff"
         id="path5622" /><path
         d="m 136.57619,149.542 q 0.89142,0 1.50693,-0.36082 0.6155,-0.38204 0.99754,-0.99754 0.38204,-0.6155 0.53061,-1.4008 0.16979,-0.80653 0.16979,-1.63428 v -7.70442 h 3.48079 v 7.70442 q 0,1.5706 -0.40327,2.92896 -0.38203,1.35835 -1.20978,2.37712 -0.80652,1.01877 -2.07998,1.61305 -1.25224,0.57305 -2.99263,0.57305 -1.80406,0 -3.07752,-0.6155 -1.27346,-0.61551 -2.07998,-1.63427 -0.7853,-1.03999 -1.16734,-2.39835 -0.36081,-1.35835 -0.36081,-2.84406 v -7.70442 h 3.48078 v 7.70442 q 0,0.8702 0.1698,1.6555 0.16979,0.7853 0.55183,1.4008 0.38204,0.61551 0.97632,0.97632 0.6155,0.36082 1.50692,0.36082 z"
         style="font-weight:800;font-family:Raleway;-inkscape-font-specification:'Raleway Ultra-Bold';fill:#ffffff"
         id="path5624" /><path
         d="m 145.95732,152.5134 v -15.06926 h 3.48079 v 12.01296 h 7.30116 v 3.0563 z"
         style="font-weight:800;font-family:Raleway;-inkscape-font-specification:'Raleway Ultra-Bold';fill:#ffffff"
         id="path5626" /><path
         d="m 162.46981,137.44414 h 3.1412 l 5.49709,15.06926 h -3.56568 l -1.16734,-3.37467 h -4.69057 l -1.14611,3.37467 h -3.56568 z m 3.33222,9.29625 -1.76162,-5.3273 -1.80406,5.3273 z"
         style="font-weight:800;font-family:Raleway;-inkscape-font-specification:'Raleway Ultra-Bold';fill:#ffffff"
         id="path5628" /><path
         d="m 182.59038,140.50044 h -4.58445 v 12.01296 h -3.48078 v -12.01296 h -4.60567 v -3.0563 h 12.6709 z"
         style="font-weight:800;font-family:Raleway;-inkscape-font-specification:'Raleway Ultra-Bold';fill:#ffffff"
         id="path5630" /><path
         d="m 184.28829,152.5134 v -15.06926 h 3.48078 v 15.06926 z"
         style="font-weight:800;font-family:Raleway;-inkscape-font-specification:'Raleway Ultra-Bold';fill:#ffffff"
         id="path5632" /><path
         d="m 197.25631,152.64074 q -1.67672,0 -3.0563,-0.65795 -1.37958,-0.65795 -2.3559,-1.71917 -0.97632,-1.08244 -1.52815,-2.46202 -0.5306,-1.37958 -0.5306,-2.84405 0,-1.4857 0.55183,-2.86528 0.57305,-1.37958 1.5706,-2.41957 1.01876,-1.06122 2.39834,-1.67672 1.37958,-0.63673 3.01385,-0.63673 1.67672,0 3.0563,0.65795 1.37958,0.65795 2.3559,1.74039 0.97632,1.08244 1.50692,2.46202 0.53061,1.37958 0.53061,2.80161 0,1.4857 -0.57305,2.86528 -0.55184,1.37958 -1.54938,2.44079 -0.99754,1.03999 -2.37712,1.67672 -1.37958,0.63673 -3.01385,0.63673 z m -3.9265,-7.64075 q 0,0.8702 0.2547,1.69795 0.25469,0.80652 0.74285,1.44325 0.50938,0.63673 1.25223,1.01877 0.74285,0.38204 1.69794,0.38204 0.99755,0 1.7404,-0.40327 0.74285,-0.40326 1.23101,-1.03999 0.48815,-0.65795 0.72162,-1.46447 0.25469,-0.82775 0.25469,-1.67672 0,-0.8702 -0.25469,-1.67672 -0.25469,-0.82775 -0.76407,-1.44326 -0.50939,-0.63672 -1.25224,-0.99754 -0.72162,-0.38204 -1.67672,-0.38204 -0.99754,0 -1.74039,0.40327 -0.72163,0.38203 -1.23101,1.01876 -0.48816,0.63673 -0.74285,1.46448 -0.23347,0.80652 -0.23347,1.65549 z"
         style="font-weight:800;font-family:Raleway;-inkscape-font-specification:'Raleway Ultra-Bold';fill:#ffffff"
         id="path5634" /><path
         d="m 210.26677,143.89633 v 8.61707 h -3.48079 v -15.06926 h 2.71671 l 7.02525,8.85054 v -8.85054 h 3.48078 v 15.06926 h -2.8016 z"
         style="font-weight:800;font-family:Raleway;-inkscape-font-specification:'Raleway Ultra-Bold';fill:#ffffff"
         id="path5636" />
</g>
</svg>
