<svg xmlns="http://www.w3.org/2000/svg" width="240" height="162"><path style="fill:#fff;fill-opacity:1;stroke:none;stroke-width:2.65346;stroke-linecap:round;stroke-linejoin:round;paint-order:stroke fill markers" d="M0 98h239.178v30H0z"/><defs><clipPath id="a" clipPathUnits="userSpaceOnUse"><path d="M-503.056-291.81h841.89v595.277h-841.89z"/></clipPath><clipPath id="b" clipPathUnits="userSpaceOnUse"><path d="M-503.055-239.322h841.89v595.276h-841.89z"/></clipPath><clipPath id="c" clipPathUnits="userSpaceOnUse"><path d="M-427.382-279.942h841.89v595.276h-841.89z"/></clipPath><clipPath id="d" clipPathUnits="userSpaceOnUse"><path d="M-458.785-283.881h841.89v595.276h-841.89z"/></clipPath><clipPath id="e" clipPathUnits="userSpaceOnUse"><path d="M-460.394-282.347h841.89v595.276h-841.89z"/></clipPath><clipPath id="f" clipPathUnits="userSpaceOnUse"><path d="M-471.214-278.353h841.89v595.276h-841.89z"/></clipPath><clipPath id="g" clipPathUnits="userSpaceOnUse"><path d="M-441.091-250.452h841.89v595.276h-841.89z"/></clipPath><clipPath id="h" clipPathUnits="userSpaceOnUse"><path d="M-461.62-262.929h841.89v595.276h-841.89z"/></clipPath><clipPath id="i" clipPathUnits="userSpaceOnUse"><path d="M-478.601-250.452h841.89v595.276h-841.89z"/></clipPath><clipPath id="j" clipPathUnits="userSpaceOnUse"><path d="M-420.708-232.9h841.89v595.276h-841.89z"/></clipPath><clipPath id="k" clipPathUnits="userSpaceOnUse"><path d="M-422.121-235.273h841.89v595.276h-841.89z"/></clipPath></defs><path fill="#fff" d="M211.77-.003H27.413C12.299-.003 0 12.296 0 27.407v70.77l.005.008v4.023c0 15.324 13.476 27.79 30.04 27.79h3.119c5.958 0 11.501-1.633 16.175-4.41h162.43c15.113 0 27.409-12.296 27.409-27.412V27.408c0-15.112-12.296-27.41-27.408-27.41" clip-path="url(#a)"/><path fill="#e63312" d="M211.768 115.826h-26.252V44.318h26.252a17.647 17.647 0 0 1 17.647 17.647v36.211a17.647 17.647 0 0 1-17.647 17.65" clip-path="url(#b)"/><path fill="#f28f66" d="M217.582 64.192h-20.236v31.874h20.428v-4.801H203.5v-9.38h9.999v-4.803h-10v-8.084h14.084z"/><path fill="#7c7b7b" d="M23.185 19.799v9.754h-3.94V12.497h3.074l7.951 10.018V12.497h3.94V29.55h-3.172z"/><path fill="#7c7b7b" d="M44.775 26.187c.674 0 1.24-.139 1.706-.419.464-.28.841-.653 1.13-1.117.287-.465.492-.997.611-1.597.122-.6.181-1.214.181-1.839v-8.718h3.94v8.718a11.894 11.894 0 0 1-.444 3.315 7.67 7.67 0 0 1-1.37 2.692 6.422 6.422 0 0 1-2.355 1.814c-.951.437-2.086.658-3.399.658-1.359 0-2.52-.23-3.482-.695a6.422 6.422 0 0 1-2.341-1.86 7.71 7.71 0 0 1-1.322-2.704 12.15 12.15 0 0 1-.422-3.22v-8.718h3.942v8.718c0 .656.062 1.283.192 1.876.128.59.337 1.121.624 1.585.29.465.66.832 1.117 1.103.454.274 1.022.408 1.692.408" clip-path="url(#c)"/><path fill="#7c7b7b" d="M68.364 15.957h-5.186V29.55h-3.942V15.957h-5.212v-3.46h14.34zM70.31 29.55V12.497h7.684a4.965 4.965 0 0 1 2.224.507c.68.333 1.267.775 1.766 1.32.494.543.882 1.16 1.163 1.849.282.688.421 1.384.421 2.09a5.991 5.991 0 0 1-.746 2.906 5.208 5.208 0 0 1-2.041 2.041l3.917 6.34h-4.444l-3.436-5.499h-2.569v5.5zm3.939-8.935h3.601c.466 0 .865-.218 1.203-.66.335-.441.503-1.004.503-1.692 0-.706-.192-1.265-.574-1.684-.386-.415-.803-.622-1.25-.622h-3.483zM86.642 12.497h3.94V29.55h-3.94zM93.512 21.215h7.399v3.46h-7.4z"/><path fill="#7c7b7b" d="m114.074 17.495-.53-.362a10.725 10.725 0 0 0-2.497-1.057 5.68 5.68 0 0 0-1.536-.214c-.675 0-1.19.119-1.552.36a1.185 1.185 0 0 0-.538 1.057l.24.721.685.514a6.201 6.201 0 0 0 1.103.422c.441.128.949.273 1.527.432.817.225 1.551.468 2.209.733a6.108 6.108 0 0 1 1.682.984c.463.393.82.87 1.068 1.43.247.56.373 1.234.373 2.017 0 .96-.181 1.772-.541 2.436a4.55 4.55 0 0 1-1.43 1.611 6.042 6.042 0 0 1-2.052.89 10.26 10.26 0 0 1-2.39.276 13.622 13.622 0 0 1-3.82-.565 15.756 15.756 0 0 1-1.825-.66 9.96 9.96 0 0 1-1.635-.89l1.73-3.435.649.456c.35.228.783.45 1.297.673.512.225 1.088.426 1.728.6a7.311 7.311 0 0 0 1.946.265c1.395 0 2.09-.425 2.09-1.273l-.311-.792-.865-.563a9.249 9.249 0 0 0-1.298-.47l-1.633-.48a14.18 14.18 0 0 1-2.04-.782 5.612 5.612 0 0 1-1.444-.971 3.497 3.497 0 0 1-.852-1.273 4.705 4.705 0 0 1-.274-1.682c0-.898.166-1.688.504-2.377a5.154 5.154 0 0 1 1.368-1.743 5.917 5.917 0 0 1 2.006-1.068 7.953 7.953 0 0 1 2.414-.36c.609 0 1.2.055 1.776.166.579.114 1.126.258 1.647.432a14.163 14.163 0 0 1 2.725 1.274z" clip-path="url(#d)"/><path fill="#7c7b7b" d="M117.625 20.88a8.89 8.89 0 0 1 .554-3.063 8.39 8.39 0 0 1 1.609-2.725 8.125 8.125 0 0 1 2.582-1.947c1.017-.496 2.173-.743 3.469-.743 1.522 0 2.844.344 3.965 1.032a6.494 6.494 0 0 1 2.498 2.69l-3.027 2.112a3.614 3.614 0 0 0-.671-1.116l-.89-.72-.997-.384-.973-.108a3.509 3.509 0 0 0-1.825.457 4.038 4.038 0 0 0-1.274 1.176 5.248 5.248 0 0 0-.754 1.633 6.845 6.845 0 0 0-.254 1.85c0 .673.1 1.321.3 1.946.199.624.481 1.176.84 1.657.36.479.797.86 1.31 1.141.511.28 1.08.42 1.705.42l.998-.13.995-.411.867-.72c.254-.295.464-.662.623-1.092l3.241 1.895a5.113 5.113 0 0 1-1.116 1.684 6.894 6.894 0 0 1-1.669 1.247 8.569 8.569 0 0 1-4.036 1.033 7.062 7.062 0 0 1-3.255-.755 8.35 8.35 0 0 1-2.546-2.006 9.52 9.52 0 0 1-1.666-2.833 8.997 8.997 0 0 1-.603-3.22" clip-path="url(#e)"/><path fill="#7c7b7b" d="M141.502 29.694c-1.218 0-2.321-.247-3.314-.744a8.275 8.275 0 0 1-2.558-1.957 8.836 8.836 0 0 1-1.657-2.776 9.017 9.017 0 0 1 .022-6.46 8.767 8.767 0 0 1 1.706-2.751 8.314 8.314 0 0 1 2.595-1.896c1-.472 2.092-.708 3.279-.708 1.214 0 2.321.247 3.312.743a8.24 8.24 0 0 1 2.56 1.97 8.91 8.91 0 0 1 1.644 2.786 9.104 9.104 0 0 1 .576 3.171 8.791 8.791 0 0 1-.611 3.242 8.893 8.893 0 0 1-1.693 2.752 8.289 8.289 0 0 1-2.582 1.908 7.472 7.472 0 0 1-3.279.72m-4.109-8.644c0 .655.093 1.29.278 1.907.183.617.448 1.165.79 1.648a3.928 3.928 0 0 0 1.3 1.152c.519.287 1.117.43 1.787.43.689 0 1.291-.152 1.803-.457.512-.302.94-.7 1.287-1.187a5.284 5.284 0 0 0 .768-1.657 7.26 7.26 0 0 0 .251-1.885c0-.657-.094-1.295-.278-1.91a5.131 5.131 0 0 0-.803-1.634 4.034 4.034 0 0 0-1.297-1.13c-.512-.28-1.097-.419-1.753-.419a3.53 3.53 0 0 0-1.8.444 4.094 4.094 0 0 0-1.287 1.165 5.34 5.34 0 0 0-.781 1.644 6.923 6.923 0 0 0-.265 1.889" clip-path="url(#f)"/><path fill="#7c7b7b" d="M151.975 29.55V12.497h7.684c.801 0 1.54.17 2.225.507a5.904 5.904 0 0 1 1.765 1.32c.495.543.883 1.16 1.163 1.849a5.539 5.539 0 0 1 .422 2.09 6.08 6.08 0 0 1-.192 1.525 6.029 6.029 0 0 1-.552 1.381 5.274 5.274 0 0 1-2.043 2.041l3.914 6.34h-4.442l-3.438-5.499h-2.569v5.5zm3.937-8.935h3.604c.463 0 .863-.218 1.2-.66.338-.441.504-1.004.504-1.692 0-.706-.192-1.265-.574-1.684-.386-.415-.803-.622-1.25-.622h-3.484zM180.293 26.092v3.458h-11.985V12.497h11.768v3.46h-7.83v3.314h6.727v3.193h-6.726v3.628z"/><path fill="#87bd25" d="M97.614 115.826h-43.95V44.318h43.95z"/><path fill="#fc0" d="M141.566 115.826H97.614V44.318h43.952z"/><path fill="#ef7d00" d="M185.516 115.826h-43.95V44.318h43.95z"/><path fill="#bdd684" d="M75.028 91.265v-9.008h3.028c5.622.044 7.452 1.708 7.452 4.343 0 3.277-2.406 4.665-7.068 4.665zm0-13.444v-8.823h1.827c4.855 0 6.823 1.433 6.823 4.297 0 2.633-1.873 4.433-5.814 4.48zm2.597-13.627h-8.752v31.873h9.856c9.277 0 13.075-3.741 13.075-9.467 0-3.145-1.73-5.637-5.336-7.069 2.068-1.617 3.509-3.88 3.509-6.79 0-4.714-3.317-8.547-12.352-8.547" clip-path="url(#g)"/><path fill="#ffdf7d" d="M120.33 63.73c-8.555 0-15.142 6.376-15.142 16.353 0 10.027 6.06 16.447 15.237 16.447 5.915 0 10.145-2.31 12.786-6.7l-4.614-3.372c-1.874 3.05-4.469 4.76-7.931 4.76-5.866 0-9.134-4.067-9.134-11.181 0-6.652 3.368-10.992 8.558-10.992 3.414 0 5.914 1.708 7.115 4.619l5.863-2.172c-1.922-4.48-5.43-7.761-12.737-7.761" clip-path="url(#h)"/><path fill="#f8b472" d="M157.804 91.265V69.09h3.462c7.642 0 11.345 4.065 11.345 11.04 0 6.376-3.992 11.134-12.113 11.134zm3.51-27.07h-9.663v31.872h8.99c11.392 0 18.314-6.788 18.314-15.936 0-9.976-6.441-15.937-17.64-15.937" clip-path="url(#i)"/><path fill="#fff" d="M30.048 129.998C13.48 129.998.005 117.532.005 102.21V57.936c0-15.324 13.476-27.79 30.043-27.79h3.118c16.566 0 30.043 12.466 30.043 27.79v44.274c0 15.322-13.477 27.788-30.043 27.788z" clip-path="url(#j)"/><path fill="#00803d" d="M33.166 124.761h-3.118c-13.702 0-24.809-10.096-24.809-22.55V57.935c0-12.455 11.107-22.551 24.809-22.551h3.118c13.7 0 24.806 10.096 24.806 22.55v44.275c0 12.455-11.107 22.551-24.806 22.551" clip-path="url(#k)"/><path fill="#fff" d="M11.873 99.613 27.62 57.119h8.684l15.63 42.494H40.82l-2.14-6.837H24.32l-2.256 6.837zm15.341-15.518H35.9l-4.228-13.428z"/><path clip-path="url(#a)" style="fill:#093c6b;fill-opacity:1;fill-rule:nonzero;stroke:none" d="M0 33.997v-6.59C0 12.297 12.298-.003 27.412-.003H211.77v.002c15.112 0 27.408 12.296 27.408 27.408v6.59H0z" transform="matrix(1 0 0 -1 0 161.997)"/><g aria-label="NEW FORMULA" style="font-size:21.2243px;line-height:1.25;font-family:'Open Sans';-inkscape-font-specification:'Open Sans';stroke-width:.530607"><path d="M44.678 143.896v8.617h-3.481v-15.069h2.717l7.025 8.85v-8.85h3.48v15.07h-2.8ZM67.897 149.457v3.056h-10.59v-15.069h10.4v3.056h-6.92v2.93h5.943v2.822h-5.943v3.205zM75.029 137.465h3.204l1.529 4.818 1.528-4.818h3.226l-2.526 7.004 1.528 4.054 3.778-11.079h3.8l-6.028 15.07H82.16l-2.398-5.901-2.378 5.9h-2.929l-6.006-15.069h3.778l3.8 11.08 1.485-4.055zM96.635 152.513v-15.069h10.23v3.056h-6.75v3.248h5.561v2.823h-5.56v5.942zM114.973 152.64q-1.677 0-3.057-.657-1.38-.658-2.356-1.72-.976-1.082-1.528-2.461-.53-1.38-.53-2.844 0-1.486.551-2.866.574-1.38 1.571-2.42 1.019-1.06 2.398-1.676 1.38-.637 3.014-.637 1.677 0 3.057.658t2.355 1.74q.977 1.083 1.507 2.463.531 1.38.531 2.801 0 1.486-.573 2.866-.552 1.38-1.55 2.44-.997 1.04-2.377 1.677t-3.013.637zm-3.927-7.64q0 .87.255 1.698.254.806.743 1.443.509.637 1.252 1.019.743.382 1.698.382.997 0 1.74-.403.743-.404 1.231-1.04.488-.658.722-1.465.255-.827.255-1.676 0-.87-.255-1.677-.255-.828-.764-1.443-.51-.637-1.252-.998-.722-.382-1.677-.382-.998 0-1.74.403-.722.382-1.232 1.019-.488.637-.742 1.465-.234.806-.234 1.655zM124.502 152.513v-15.069h6.792q1.061 0 1.953.446.912.446 1.57 1.167.658.722 1.019 1.634.382.913.382 1.847 0 .7-.17 1.358-.17.637-.488 1.21-.318.573-.785 1.04-.446.446-1.019.764l3.311 5.603h-3.926l-2.887-4.86h-2.271v4.86zm3.481-7.895h3.184q.615 0 1.06-.573.447-.594.447-1.507 0-.934-.51-1.486-.51-.552-1.103-.552h-3.078zM150.608 152.513v-9.02l-3.268 6.558h-1.868l-3.269-6.558v9.02h-3.48v-15.069h3.777l3.906 7.874 3.926-7.874h3.757v15.07zM163.449 149.542q.891 0 1.507-.36.615-.383.997-.998.382-.616.53-1.401.17-.807.17-1.634v-7.705h3.481v7.705q0 1.57-.403 2.929-.382 1.358-1.21 2.377-.806 1.018-2.08 1.613-1.252.573-2.992.573-1.804 0-3.078-.616-1.273-.615-2.08-1.634-.785-1.04-1.167-2.398-.36-1.359-.36-2.844v-7.705h3.48v7.705q0 .87.17 1.655t.552 1.4q.382.616.976.977.615.361 1.507.361zM172.83 152.513v-15.069h3.48v12.013h7.302v3.056zM189.342 137.444h3.142l5.497 15.07h-3.566l-1.167-3.375h-4.69l-1.147 3.374h-3.566zm3.333 9.296-1.762-5.327-1.804 5.327z" style="font-weight:800;font-family:Raleway;-inkscape-font-specification:'Raleway Ultra-Bold';fill:#fff"/></g></svg>