<svg xmlns="http://www.w3.org/2000/svg" width="24" height="24"><circle cx="12" cy="12" r="12" fill="#b3b3b3"/><g fill="#fff"><path d="M9.188 3s-6.3 6.976-6.3 11.701A6.305 6.305 0 009.189 21c1.464 0 2.81-.507 3.88-1.348-4.066-1.581-4.847-5.614-1.63-9.902-2.083 4.166-.309 8.326 1.751 9.814a6.289 6.289 0 002.297-4.863C15.486 9.976 9.187 3 9.187 3zM5.812 9.75c-2.25 4.5 0 9 2.25 10.125-4.606-1.4-5.624-5.625-2.25-10.125z" opacity=".75"/><path d="M14.813 3s-6.3 6.976-6.3 11.701a6.305 6.305 0 006.3 6.299 6.305 6.305 0 006.298-6.299C21.111 9.976 14.812 3 14.812 3zm-3.376 6.75c-2.25 4.5 0 9 2.25 10.125-4.606-1.4-5.625-5.625-2.25-10.125z"/></g></svg>