<svg xmlns="http://www.w3.org/2000/svg" width="240" height="162"><path style="fill:#fff;fill-opacity:1;stroke:none;stroke-width:2.65346;stroke-linecap:round;stroke-linejoin:round;paint-order:stroke fill markers" d="M0 98h239.178v30H0z"/><path fill="#fff" d="M212.183 0H27.826C12.71 0 .414 12.298.414 27.41v70.773c0 15.116 12.298 27.41 27.412 27.41h118.278a31.612 31.612 0 0 0 16.173 4.409h3.12c5.957 0 11.498-1.633 16.174-4.41h30.612c15.114 0 27.408-12.295 27.408-27.407v-70.77c0-15.115-12.294-27.413-27.408-27.413" clip-path="url(#clipPath1648)"/><path fill="#e63312" d="M212.179 115.826h-26.252V44.318h26.252a17.647 17.647 0 0 1 17.65 17.647v36.213a17.65 17.65 0 0 1-17.65 17.648" clip-path="url(#clipPath1655)"/><path fill="#00803d" d="M27.824 115.826h26.252V44.318H27.824a17.647 17.647 0 0 0-17.648 17.647v36.213a17.647 17.647 0 0 0 17.648 17.648" clip-path="url(#clipPath1661)"/><path fill="#f28f66" d="M221.97 64.194h-20.236V96.07h20.43v-4.802h-14.277v-9.379h9.999v-4.804h-9.997V69h14.081z"/><path fill="#7c7b7b" d="M23.596 19.799v9.754h-3.94V12.496h3.075l7.95 10.02v-10.02h3.94V29.55H31.45z"/><path fill="#7c7b7b" d="M45.187 26.187c.673 0 1.24-.139 1.705-.419a3.38 3.38 0 0 0 1.13-1.117 4.78 4.78 0 0 0 .612-1.597c.121-.6.18-1.214.18-1.839V12.5h3.94v8.716a11.894 11.894 0 0 1-.444 3.315 7.67 7.67 0 0 1-1.37 2.692 6.422 6.422 0 0 1-2.355 1.814c-.951.437-2.085.662-3.398.662-1.36 0-2.52-.234-3.483-.7-.962-.463-1.743-1.08-2.341-1.862a7.725 7.725 0 0 1-1.324-2.7 12.062 12.062 0 0 1-.42-3.22V12.5h3.942v8.716c0 .656.062 1.283.192 1.876a4.965 4.965 0 0 0 .624 1.585c.287.463.66.832 1.117 1.103.455.274 1.022.408 1.693.408" clip-path="url(#clipPath1673)"/><path fill="#7c7b7b" d="M68.777 15.959h-5.19v13.594h-3.942V15.959h-5.212v-3.46h14.344zM70.723 29.55V12.496h7.684a4.965 4.965 0 0 1 2.225.508 5.866 5.866 0 0 1 1.763 1.32c.496.545.883 1.16 1.165 1.849.283.688.42 1.384.42 2.09a6.21 6.21 0 0 1-.19 1.525 6.029 6.029 0 0 1-.554 1.381 5.208 5.208 0 0 1-2.042 2.041l3.915 6.34h-4.442l-3.436-5.499h-2.569v5.5zm3.94-8.935h3.6c.464 0 .866-.218 1.201-.66.338-.441.506-1.004.506-1.692 0-.706-.192-1.265-.576-1.684-.384-.415-.804-.622-1.25-.622h-3.482zM87.053 12.499h3.94V29.55h-3.94zM93.923 21.215h7.397v3.46h-7.397z"/><path fill="#7c7b7b" d="m114.483 17.493-.53-.362a10.526 10.526 0 0 0-2.497-1.055 5.599 5.599 0 0 0-1.534-.216c-.675 0-1.192.119-1.551.36a1.19 1.19 0 0 0-.539 1.059l.24.719.685.514a6.201 6.201 0 0 0 1.103.422c.442.128.95.273 1.527.432a20.51 20.51 0 0 1 2.207.733c.658.265 1.218.591 1.684.984.463.393.82.87 1.068 1.43a4.943 4.943 0 0 1 .373 2.017c0 .962-.181 1.774-.54 2.436a4.55 4.55 0 0 1-1.43 1.611 6.042 6.042 0 0 1-2.053.89 10.272 10.272 0 0 1-2.39.275c-.627 0-1.262-.044-1.911-.145a13.622 13.622 0 0 1-1.909-.42 15.756 15.756 0 0 1-1.825-.66 9.798 9.798 0 0 1-1.635-.889l1.73-3.436.649.457c.35.227.783.45 1.297.673.512.225 1.088.426 1.728.6a7.3 7.3 0 0 0 1.947.265c1.394 0 2.09-.423 2.09-1.273l-.312-.792-.865-.563a9.249 9.249 0 0 0-1.297-.47c-.497-.143-1.04-.305-1.633-.481a14.18 14.18 0 0 1-2.042-.781 5.52 5.52 0 0 1-1.443-.971 3.497 3.497 0 0 1-.852-1.274 4.705 4.705 0 0 1-.275-1.681c0-.898.167-1.688.503-2.377a5.21 5.21 0 0 1 1.368-1.743 5.948 5.948 0 0 1 2.008-1.068 7.95 7.95 0 0 1 2.414-.36c.61 0 1.2.057 1.777.168.573.112 1.125.256 1.646.43a13.931 13.931 0 0 1 2.725 1.273z" clip-path="url(#clipPath1667)"/><path fill="#7c7b7b" d="M118.038 20.88a8.94 8.94 0 0 1 .552-3.063 8.436 8.436 0 0 1 1.611-2.725 8.157 8.157 0 0 1 2.582-1.947c1.015-.496 2.174-.743 3.469-.743 1.523 0 2.844.344 3.963 1.032a6.501 6.501 0 0 1 2.5 2.693l-3.027 2.11a3.64 3.64 0 0 0-.671-1.117l-.89-.72-.997-.384-.973-.108a3.509 3.509 0 0 0-1.825.457 4.019 4.019 0 0 0-1.273 1.178 5.212 5.212 0 0 0-.755 1.633 6.859 6.859 0 0 0-.254 1.847c0 .673.1 1.324.3 1.947.199.624.481 1.176.839 1.657a4.1 4.1 0 0 0 1.31 1.141c.513.28 1.082.42 1.707.42l.997-.131.993-.41.87-.72c.253-.296.46-.662.622-1.092l3.242 1.898a5.113 5.113 0 0 1-1.117 1.681 6.894 6.894 0 0 1-1.668 1.247 8.673 8.673 0 0 1-4.039 1.037 7.062 7.062 0 0 1-3.252-.759 8.291 8.291 0 0 1-2.547-2.006 9.52 9.52 0 0 1-1.666-2.833 8.997 8.997 0 0 1-.603-3.22" clip-path="url(#clipPath1687)"/><path fill="#7c7b7b" d="M141.916 29.696a7.304 7.304 0 0 1-3.315-.746 8.275 8.275 0 0 1-2.56-1.957 8.85 8.85 0 0 1-1.655-2.774 9.037 9.037 0 0 1-.59-3.218c0-1.12.204-2.202.612-3.244.41-1.037.978-1.957 1.706-2.75s1.593-1.425 2.595-1.897c1-.472 2.092-.706 3.277-.706 1.214 0 2.322.245 3.315.741a8.275 8.275 0 0 1 2.56 1.97 8.952 8.952 0 0 1 1.644 2.786 9.102 9.102 0 0 1 .573 3.171 8.855 8.855 0 0 1-.609 3.244 8.933 8.933 0 0 1-1.692 2.75 8.34 8.34 0 0 1-2.582 1.908 7.474 7.474 0 0 1-3.28.722m-4.108-8.646c0 .655.092 1.29.278 1.907.183.617.448 1.165.79 1.648a3.928 3.928 0 0 0 1.3 1.152c.518.287 1.116.43 1.787.43.688 0 1.29-.152 1.803-.457.507-.302.94-.697 1.284-1.187.347-.485.6-1.041.77-1.655a7.277 7.277 0 0 0 .252-1.887c0-.657-.095-1.295-.278-1.908a5.142 5.142 0 0 0-.803-1.634 3.982 3.982 0 0 0-1.298-1.13 3.568 3.568 0 0 0-1.752-.419 3.53 3.53 0 0 0-1.8.442 4.094 4.094 0 0 0-1.287 1.165 5.34 5.34 0 0 0-.782 1.644 6.85 6.85 0 0 0-.264 1.889" clip-path="url(#clipPath1680)"/><path fill="#7c7b7b" d="M152.385 29.55V12.496h7.686c.8 0 1.54.17 2.222.508a5.892 5.892 0 0 1 1.765 1.32 6.135 6.135 0 0 1 1.163 1.849c.28.688.424 1.384.424 2.09a6.07 6.07 0 0 1-.192 1.525 6.029 6.029 0 0 1-.552 1.381 5.28 5.28 0 0 1-2.041 2.041l3.913 6.34h-4.443l-3.438-5.499h-2.568v5.5zm3.939-8.935h3.603c.464 0 .863-.218 1.2-.66.338-.441.504-1.004.504-1.692 0-.706-.192-1.265-.574-1.684-.386-.415-.803-.622-1.249-.622h-3.484zM180.704 26.092v3.458h-11.985V12.496h11.769v3.46h-7.83v3.317h6.724v3.194h-6.724v3.628z"/><path fill="#87bd25" d="M98.028 115.826h-43.95V44.318h43.95z"/><path fill="#fc0" d="M141.975 115.826h-43.95V44.318h43.952z"/><path fill="#74ab7e" d="m27.939 85.167 4.855-12.704 4.662 12.702zm7.163-20.973h-4.28L17.605 96.066h6.201l2.309-6.097h13.121l2.26 6.097h6.777z"/><path fill="#bdd684" d="M71.023 91.262v-9.008h3.03c5.623.047 7.453 1.708 7.453 4.343 0 3.277-2.406 4.665-7.069 4.665zm0-13.443v-8.823h1.828c4.854 0 6.825 1.435 6.825 4.297 0 2.632-1.876 4.435-5.815 4.48zm2.598-13.627h-8.75v31.872h9.855c9.278 0 13.075-3.74 13.075-9.467 0-3.142-1.732-5.636-5.336-7.068 2.068-1.618 3.51-3.88 3.51-6.79 0-4.714-3.318-8.547-12.354-8.547" clip-path="url(#clipPath1693)"/><path fill="#ffdf7d" d="M116.306 63.73c-8.555 0-15.143 6.378-15.143 16.355 0 10.025 6.058 16.445 15.238 16.445 5.914 0 10.145-2.31 12.788-6.7l-4.616-3.372c-1.876 3.05-4.471 4.76-7.931 4.76-5.864 0-9.132-4.067-9.132-11.18 0-6.65 3.365-10.993 8.556-10.993 3.411 0 5.912 1.71 7.114 4.618l5.861-2.169c-1.92-4.48-5.428-7.763-12.735-7.763" clip-path="url(#clipPath1699)"/><path fill="#fff" d="M162.277 129.998c-16.566 0-30.045-12.466-30.045-27.788V57.936c0-15.324 13.48-27.79 30.045-27.79h3.118c16.567 0 30.043 12.468 30.043 27.79v44.274c0 15.322-13.476 27.788-30.043 27.788z" clip-path="url(#clipPath1705)"/><path fill="#ef7d00" d="M165.396 124.761h-3.119c-13.704 0-24.806-10.096-24.806-22.55V57.935c0-12.455 11.105-22.551 24.804-22.551h3.12c13.7 0 24.805 10.096 24.805 22.553v44.27c0 12.455-11.105 22.553-24.804 22.553" clip-path="url(#clipPath1711)"/><path fill="#fff" d="M147.106 100.849V58.353h14.534c13.796 0 22.17 7.82 22.17 21.247 0 11.95-8.928 21.25-23.216 21.25zm13.302-8.684c8.805 0 12.257-5.848 12.257-12.565 0-7.636-3.081-12.378-11.085-12.378h-3.696v24.943z"/><path clip-path="url(#clipPath1593)" style="fill:#093c6b;fill-opacity:1;fill-rule:nonzero;stroke:none" d="M0 33.997v-6.59C0 12.297 12.298-.003 27.412-.003H211.77v.002c15.112 0 27.408 12.296 27.408 27.408v6.59H0z" transform="matrix(1 0 0 -1 0 161.997)"/><g aria-label="NEW FORMULA" style="font-size:21.2243px;line-height:1.25;font-family:'Open Sans';-inkscape-font-specification:'Open Sans';stroke-width:.530607"><path d="M44.678 143.896v8.617h-3.481v-15.069h2.717l7.025 8.85v-8.85h3.48v15.07h-2.8ZM67.897 149.457v3.056h-10.59v-15.069h10.4v3.056h-6.92v2.93h5.943v2.822h-5.943v3.205zM75.029 137.465h3.204l1.529 4.818 1.528-4.818h3.226l-2.526 7.004 1.528 4.054 3.778-11.079h3.8l-6.028 15.07H82.16l-2.398-5.901-2.378 5.9h-2.929l-6.006-15.069h3.778l3.8 11.08 1.485-4.055zM96.635 152.513v-15.069h10.23v3.056h-6.75v3.248h5.561v2.823h-5.56v5.942zM114.973 152.64q-1.677 0-3.057-.657-1.38-.658-2.356-1.72-.976-1.082-1.528-2.461-.53-1.38-.53-2.844 0-1.486.551-2.866.574-1.38 1.571-2.42 1.019-1.06 2.398-1.676 1.38-.637 3.014-.637 1.677 0 3.057.658t2.355 1.74q.977 1.083 1.507 2.463.531 1.38.531 2.801 0 1.486-.573 2.866-.552 1.38-1.55 2.44-.997 1.04-2.377 1.677t-3.013.637zm-3.927-7.64q0 .87.255 1.698.254.806.743 1.443.509.637 1.252 1.019.743.382 1.698.382.997 0 1.74-.403.743-.404 1.231-1.04.488-.658.722-1.465.255-.827.255-1.676 0-.87-.255-1.677-.255-.828-.764-1.443-.51-.637-1.252-.998-.722-.382-1.677-.382-.998 0-1.74.403-.722.382-1.232 1.019-.488.637-.742 1.465-.234.806-.234 1.655zM124.502 152.513v-15.069h6.792q1.061 0 1.953.446.912.446 1.57 1.167.658.722 1.019 1.634.382.913.382 1.847 0 .7-.17 1.358-.17.637-.488 1.21-.318.573-.785 1.04-.446.446-1.019.764l3.311 5.603h-3.926l-2.887-4.86h-2.271v4.86zm3.481-7.895h3.184q.615 0 1.06-.573.447-.594.447-1.507 0-.934-.51-1.486-.51-.552-1.103-.552h-3.078zM150.608 152.513v-9.02l-3.268 6.558h-1.868l-3.269-6.558v9.02h-3.48v-15.069h3.777l3.906 7.874 3.926-7.874h3.757v15.07zM163.449 149.542q.891 0 1.507-.36.615-.383.997-.998.382-.616.53-1.401.17-.807.17-1.634v-7.705h3.481v7.705q0 1.57-.403 2.929-.382 1.358-1.21 2.377-.806 1.018-2.08 1.613-1.252.573-2.992.573-1.804 0-3.078-.616-1.273-.615-2.08-1.634-.785-1.04-1.167-2.398-.36-1.359-.36-2.844v-7.705h3.48v7.705q0 .87.17 1.655t.552 1.4q.382.616.976.977.615.361 1.507.361zM172.83 152.513v-15.069h3.48v12.013h7.302v3.056zM189.342 137.444h3.142l5.497 15.07h-3.566l-1.167-3.375h-4.69l-1.147 3.374h-3.566zm3.333 9.296-1.762-5.327-1.804 5.327z" style="font-weight:800;font-family:Raleway;-inkscape-font-specification:'Raleway Ultra-Bold';fill:#fff"/></g></svg>