<svg xmlns="http://www.w3.org/2000/svg" id="svg2032" width="240" height="162" version="1.1" viewBox="0 0 240 162">
<rect
     style="fill:#ffffff;fill-opacity:1;stroke:none;stroke-width:2.65346;stroke-linecap:round;stroke-linejoin:round;paint-order:stroke fill markers"
     id="rect18499"
     width="239.17799"
     height="30"
     x="0"
     y="98" />
  <g id="layer1">
    <g id="g2493" fill-opacity="1" fill-rule="nonzero" stroke="none">
      <path id="path364" fill="#fff" d="M211.749-.003H27.394c-15.117 0-27.41 12.3-27.41 27.413v70.766c0 15.116 12.291 27.413 27.407 27.413h30.546a31.623 31.623 0 0 0 16.176 4.409h3.118c5.958 0 11.502-1.633 16.176-4.41h118.342c15.114 0 27.407-12.296 27.407-27.412v-70.77c0-15.11-12.293-27.409-27.407-27.409" clip-path="url(#clipPath1866)"/>
      <path id="path366" fill="#fc0" d="M141.545 115.826h-43.95V44.318h43.95z"/>
      <path id="path368" fill="#ef7d00" d="M185.495 115.826h-43.95V44.318h43.95z"/>
      <path id="path380" fill="#e63312" d="M211.749 115.826h-26.254V44.318h26.254a17.647 17.647 0 0 1 17.647 17.647v36.213a17.65 17.65 0 0 1-17.647 17.648" clip-path="url(#clipPath1717)"/>
      <path id="path384" fill="#00803d" d="M27.391 115.826h26.252V44.318H27.391a17.647 17.647 0 0 0-17.65 17.647v36.213a17.65 17.65 0 0 0 17.65 17.648" clip-path="url(#clipPath1729)"/>
      <path id="path388" fill="#ffdf7d" d="M124.88 63.73c-8.556 0-15.139 6.378-15.139 16.353 0 10.027 6.055 16.447 15.236 16.447 5.914 0 10.142-2.31 12.785-6.7l-4.612-3.372c-1.875 3.05-4.473 4.76-7.933 4.76-5.863 0-9.134-4.067-9.134-11.181 0-6.652 3.366-10.99 8.556-10.99 3.414 0 5.914 1.706 7.115 4.616l5.865-2.17c-1.924-4.48-5.433-7.762-12.74-7.762" clip-path="url(#clipPath1735)"/>
      <path id="path392" fill="#f8b472" d="M157.782 91.265V69.09h3.463c7.642 0 11.342 4.065 11.342 11.04 0 6.376-3.987 11.134-12.11 11.134zm3.509-27.07h-9.661v31.871h8.99c11.391 0 18.314-6.788 18.314-15.934 0-9.977-6.444-15.938-17.64-15.938" clip-path="url(#clipPath1741)"/>
      <path id="path396" fill="#f28f66" d="M217.559 64.192h-20.236v31.874h20.43v-4.801h-14.278v-9.38h10v-4.803h-10v-8.084h14.084z"/>
      <path id="path400" fill="#7c7b7b" d="M23.161 19.799v9.754h-3.939V12.497h3.076l7.949 10.018V12.497h3.939V29.55h-3.169z"/>
      <path id="path412" fill="#7c7b7b" d="M44.756 26.187c.671 0 1.24-.139 1.704-.419.463-.28.843-.653 1.13-1.117a4.78 4.78 0 0 0 .611-1.597c.122-.6.183-1.214.183-1.839V12.5h3.937v8.716a11.894 11.894 0 0 1-.443 3.315 7.67 7.67 0 0 1-1.37 2.692 6.404 6.404 0 0 1-2.355 1.814c-.951.437-2.086.658-3.399.658-1.36 0-2.52-.23-3.482-.695-.962-.464-1.743-1.082-2.34-1.86a7.635 7.635 0 0 1-1.323-2.704 12.062 12.062 0 0 1-.422-3.22V12.5h3.941v8.716c0 .656.064 1.283.195 1.876a4.965 4.965 0 0 0 .622 1.585c.287.465.66.832 1.117 1.103.456.274 1.021.408 1.694.408" clip-path="url(#clipPath1747)"/>
      <path id="path416" fill="#7c7b7b" d="M68.342 15.957h-5.19V29.55h-3.94V15.957h-5.211v-3.46H68.34z"/>
      <path id="path428" fill="#7c7b7b" d="M70.286 29.55V12.497h7.684a4.965 4.965 0 0 1 2.225.507 5.903 5.903 0 0 1 1.765 1.32c.494.543.883 1.16 1.163 1.849.283.688.422 1.384.422 2.09a5.991 5.991 0 0 1-.744 2.906 5.283 5.283 0 0 1-2.041 2.041l3.915 6.34H80.23l-3.436-5.499h-2.569v5.5zm3.94-8.935h3.603c.464 0 .863-.218 1.2-.66.338-.441.504-1.004.504-1.692 0-.706-.192-1.265-.574-1.684-.386-.415-.803-.622-1.251-.622h-3.483z"/>
      <path id="path430" fill="#7c7b7b" d="M86.62 12.497h3.938V29.55H86.62z"/>
      <path id="path432" fill="#7c7b7b" d="M93.488 21.215h7.4v3.46h-7.4z"/>
      <path id="path444" fill="#7c7b7b" d="M114.05 17.495l-.529-.362a10.504 10.504 0 0 0-2.498-1.057 5.68 5.68 0 0 0-1.536-.214c-.675 0-1.191.119-1.551.36a1.185 1.185 0 0 0-.538 1.057l.24.721.684.514c.296.153.662.294 1.103.42.442.13.95.275 1.528.434.816.225 1.553.468 2.206.733.66.263 1.218.591 1.684.984.464.393.821.87 1.068 1.43a4.943 4.943 0 0 1 .373 2.017c0 .96-.18 1.772-.54 2.436a4.568 4.568 0 0 1-1.428 1.611 6.073 6.073 0 0 1-2.055.89 10.26 10.26 0 0 1-2.39.276 13.622 13.622 0 0 1-3.82-.565 15.906 15.906 0 0 1-1.825-.662 9.96 9.96 0 0 1-1.635-.888l1.733-3.435.646.456c.35.228.786.45 1.298.673.512.226 1.088.426 1.73.6a7.282 7.282 0 0 0 1.942.265c1.397 0 2.092-.425 2.092-1.273l-.311-.794-.866-.56a9.249 9.249 0 0 0-1.297-.47l-1.633-.482a14.28 14.28 0 0 1-2.041-.781 5.599 5.599 0 0 1-1.441-.971 3.471 3.471 0 0 1-.852-1.273 4.654 4.654 0 0 1-.278-1.682c0-.898.17-1.688.505-2.377a5.154 5.154 0 0 1 1.368-1.743 5.895 5.895 0 0 1 2.006-1.068 7.9 7.9 0 0 1 2.414-.36c.61 0 1.203.055 1.779.166.574.115 1.125.258 1.644.432a14.565 14.565 0 0 1 2.726 1.274z" clip-path="url(#clipPath1759)"/>
      <path id="path448" fill="#7c7b7b" d="M117.604 20.88c0-1.024.185-2.046.551-3.063a8.474 8.474 0 0 1 1.611-2.725 8.148 8.148 0 0 1 2.582-1.947c1.015-.496 2.174-.743 3.471-.743 1.521 0 2.843.344 3.964 1.032a6.494 6.494 0 0 1 2.498 2.69l-3.026 2.112a3.661 3.661 0 0 0-.673-1.116l-.889-.72-.997-.384-.974-.108c-.706 0-1.313.152-1.822.457a4.016 4.016 0 0 0-1.274 1.176 5.204 5.204 0 0 0-.757 1.633 6.845 6.845 0 0 0-.253 1.85c0 .673.101 1.321.3 1.946.198.624.48 1.176.838 1.657a4.1 4.1 0 0 0 1.311 1.141 3.5 3.5 0 0 0 1.706.42l.997-.131.993-.41.87-.72c.254-.296.463-.662.624-1.092l3.242 1.895a5.184 5.184 0 0 1-1.116 1.684 6.907 6.907 0 0 1-1.671 1.247 8.569 8.569 0 0 1-4.038 1.033c-1.181 0-2.267-.252-3.25-.755a8.27 8.27 0 0 1-2.547-2.006 9.432 9.432 0 0 1-1.669-2.833 8.997 8.997 0 0 1-.602-3.22" clip-path="url(#clipPath1765)"/>
      <path id="path452" fill="#7c7b7b" d="M141.48 29.694c-1.215 0-2.32-.247-3.314-.744a8.363 8.363 0 0 1-2.56-1.957 8.836 8.836 0 0 1-1.655-2.776 9.018 9.018 0 0 1-.589-3.216 8.77 8.77 0 0 1 .614-3.244 8.784 8.784 0 0 1 1.703-2.751 8.314 8.314 0 0 1 2.596-1.896c1-.472 2.094-.706 3.279-.706 1.213 0 2.321.245 3.31.741a8.216 8.216 0 0 1 2.56 1.97 8.875 8.875 0 0 1 1.646 2.786 9.1 9.1 0 0 1 .574 3.17 8.854 8.854 0 0 1-.61 3.245 8.85 8.85 0 0 1-1.692 2.75 8.289 8.289 0 0 1-2.582 1.908 7.472 7.472 0 0 1-3.28.72m-4.108-8.644c0 .655.093 1.29.278 1.907.183.617.448 1.165.792 1.648.344.479.777.863 1.298 1.152a3.641 3.641 0 0 0 1.787.43c.691 0 1.291-.152 1.803-.457.512-.302.94-.7 1.287-1.187a5.321 5.321 0 0 0 .768-1.655 7.275 7.275 0 0 0 .251-1.887c0-.657-.095-1.295-.278-1.91a5.13 5.13 0 0 0-.803-1.634 4.01 4.01 0 0 0-1.298-1.13c-.512-.28-1.096-.419-1.752-.419-.688 0-1.289.148-1.8.444a4.094 4.094 0 0 0-1.287 1.165 5.285 5.285 0 0 0-.78 1.644 6.841 6.841 0 0 0-.266 1.889" clip-path="url(#clipPath1773)"/>
      <path id="path456" fill="#7c7b7b" d="M151.952 29.55V12.497h7.686c.801 0 1.54.17 2.222.507a5.892 5.892 0 0 1 1.766 1.32c.496.543.882 1.16 1.165 1.849a5.539 5.539 0 0 1 .42 2.09c0 .53-.067 1.037-.19 1.525a6.029 6.029 0 0 1-.555 1.381 5.274 5.274 0 0 1-2.04 2.041l3.914 6.34h-4.442l-3.436-5.499h-2.569v5.5zm3.941-8.935h3.602c.463 0 .865-.218 1.2-.66.338-.441.506-1.004.506-1.692 0-.706-.193-1.265-.576-1.684-.387-.415-.804-.622-1.25-.622h-3.482z"/>
      <path id="path460" fill="#7c7b7b" d="M180.27 26.092v3.458h-11.986V12.497h11.769v3.46h-7.83v3.314h6.726v3.193h-6.726v3.628z"/>
      <path id="path464" fill="#74ab7e" d="M22.367 85.165l4.854-12.702 4.666 12.702zm7.163-20.97h-4.281L12.03 96.065h6.201l2.308-6.097h13.124l2.26 6.097h6.774z"/>
      <path id="path476" fill="#fff" d="M74.113 129.998c-16.566 0-30.043-12.466-30.043-27.788V57.936c0-15.324 13.477-27.79 30.043-27.79h3.118c16.566 0 30.043 12.468 30.043 27.79v44.274c0 15.322-13.477 27.788-30.043 27.788z" clip-path="url(#clipPath1779)"/>
      <path id="path480" fill="#87bd25" d="M77.231 124.761h-3.118c-13.704 0-24.806-10.096-24.806-22.553V57.936c0-12.455 11.104-22.553 24.804-22.553h3.12c13.7 0 24.804 10.098 24.804 22.553v44.274c0 12.455-11.104 22.551-24.804 22.551" clip-path="url(#clipPath1785)"/>
      <path id="path484" fill="#fff" d="M62.7 99.615V57.122h13.086c10.071 0 14.357 5.296 14.357 12.07 0 3.695-1.796 6.835-4.575 8.254 3.88 1.29 6.775 4.616 6.775 9.114 0 7.818-4.921 13.055-15.227 13.055zm10.13-25.19h1.912c2.893 0 4.978-1.17 4.978-4.434 0-3.263-2.085-4.188-4.978-4.188H72.83zm0 7.946v8.563h3.823c2.952 0 5.265-1.174 5.265-4.374 0-3.143-2.544-4.189-5.786-4.189z"/>
    </g>
  </g>
<path
     id="path16330"
     clip-path="url(#clipPath1593)"
     style="fill:#093c6b;fill-opacity:1;fill-rule:nonzero;stroke:none"
     d="M 0 33.997 L 0 27.407156 C 2.3684734e-15 12.296171 12.298124 -0.003 27.412109 -0.003 L 211.76953 -0.003 L 211.76953 -0.001046875 C 226.88152 -0.001046875 239.17773 12.295171 239.17773 27.407156 L 239.17773 33.997 L 0 33.997 z "
     transform="matrix(1,0,0,-1,0,161.997)" />
<g
       id="g6039"><path
         d="m 18.818601,143.89635 v 8.61706 h -3.242238 v -15.06923 h 2.530527 l 6.543786,8.85052 v -8.85052 h 3.242238 v 15.06923 h -2.609606 z"
         style="font-weight:800;font-size:20.4841px;line-height:1.25;font-family:Raleway;-inkscape-font-specification:'Raleway Ultra-Bold';fill:#ffffff;stroke-width:0.512103"
         id="path5974" /><path
         d="m 30.581578,152.51341 v -15.06923 h 3.242238 v 15.06923 z"
         style="font-weight:800;font-size:20.4841px;line-height:1.25;font-family:Raleway;-inkscape-font-specification:'Raleway Ultra-Bold';fill:#ffffff;stroke-width:0.512103"
         id="path5976" /><path
         d="m 46.37759,149.45712 v 3.05629 h -9.865104 v -15.06923 h 9.687176 v 3.0563 h -6.444938 v 2.92894 h 5.535529 v 2.82283 h -5.535529 v 3.20487 z"
         style="font-weight:800;font-size:20.4841px;line-height:1.25;font-family:Raleway;-inkscape-font-specification:'Raleway Ultra-Bold';fill:#ffffff;stroke-width:0.512103"
         id="path5978" /><path
         d="m 54.384316,149.54201 q 0.830329,0 1.403652,-0.36082 0.573323,-0.38203 0.929178,-0.99753 0.355856,-0.61551 0.494244,-1.40081 0.158157,-0.80652 0.158157,-1.63427 v -7.7044 h 3.242239 v 7.7044 q 0,1.5706 -0.375625,2.92895 -0.355855,1.35836 -1.126876,2.37712 -0.75125,1.01877 -1.937435,1.61305 -1.166415,0.57305 -2.787534,0.57305 -1.680428,0 -2.866613,-0.6155 -1.186185,-0.61551 -1.937435,-1.63427 -0.731481,-1.03998 -1.087337,-2.39835 -0.336085,-1.35835 -0.336085,-2.84405 v -7.7044 h 3.242238 v 7.7044 q 0,0.8702 0.158159,1.65549 0.158158,0.78531 0.514012,1.40082 0.355856,0.61549 0.909409,0.9763 0.573323,0.36082 1.403652,0.36082 z"
         style="font-weight:800;font-size:20.4841px;line-height:1.25;font-family:Raleway;-inkscape-font-specification:'Raleway Ultra-Bold';fill:#ffffff;stroke-width:0.512103"
         id="path5980" /><path
         d="m 67.788202,137.4654 h 2.985232 l 1.423421,4.81791 1.423422,-4.81791 h 3.005002 l -2.3526,7.00401 1.423421,4.05384 3.519015,-11.07907 H 82.7539 l -5.614608,15.06923 h -2.708456 l -2.233981,-5.90035 -2.214211,5.90035 h -2.728225 l -5.594838,-15.06923 h 3.519015 l 3.538783,11.07907 1.383883,-4.05384 z"
         style="font-weight:800;font-size:20.4841px;line-height:1.25;font-family:Raleway;-inkscape-font-specification:'Raleway Ultra-Bold';fill:#ffffff;stroke-width:0.512103"
         id="path5982" /><path
         d="m 93.844698,149.45712 v 3.05629 h -9.865104 v -15.06923 h 9.687176 v 3.0563 h -6.444938 v 2.92894 h 5.53553 v 2.82283 h -5.53553 v 3.20487 z"
         style="font-weight:800;font-size:20.4841px;line-height:1.25;font-family:Raleway;-inkscape-font-specification:'Raleway Ultra-Bold';fill:#ffffff;stroke-width:0.512103"
         id="path5984" /><path
         d="m 112.03283,148.65059 q 0,0.97632 -0.37562,1.69794 -0.37562,0.72163 -1.02803,1.20978 -0.6524,0.46694 -1.52227,0.72163 -0.86986,0.23347 -1.83858,0.23347 H 100.428 v -15.06923 h 7.80905 q 0.73147,0 1.32456,0.33958 0.59309,0.3396 1.00826,0.89142 0.41517,0.53062 0.63263,1.23101 0.23724,0.67918 0.23724,1.4008 0,1.08244 -0.51402,2.03754 -0.49424,0.95509 -1.5025,1.44324 1.20596,0.38204 1.89791,1.35836 0.7117,0.97632 0.7117,2.50446 z m -3.30154,-0.7004 q 0,-0.7004 -0.37563,-1.18856 -0.37563,-0.48816 -0.94895,-0.48816 h -3.73648 v 3.28977 h 3.5981 q 0.63263,0 1.04779,-0.44572 0.41517,-0.4457 0.41517,-1.16733 z m -5.06106,-7.53462 v 3.11997 h 3.18293 q 0.53378,0 0.94895,-0.38203 0.41516,-0.38204 0.41516,-1.18856 0,-0.74285 -0.37563,-1.14611 -0.35585,-0.40327 -0.86987,-0.40327 z"
         style="font-weight:800;font-size:20.4841px;line-height:1.25;font-family:Raleway;-inkscape-font-specification:'Raleway Ultra-Bold';fill:#ffffff;stroke-width:0.512103"
         id="path5986" /><path
         d="m 123.81558,149.45712 v 3.05629 h -9.86511 v -15.06923 h 9.68718 v 3.0563 h -6.44495 v 2.92894 h 5.53554 v 2.82283 h -5.53554 v 3.20487 z"
         style="font-weight:800;font-size:20.4841px;line-height:1.25;font-family:Raleway;-inkscape-font-specification:'Raleway Ultra-Bold';fill:#ffffff;stroke-width:0.512103"
         id="path5988" /><path
         d="m 125.79252,152.51341 v -15.06923 h 6.32632 q 0.98849,0 1.81882,0.44571 0.8501,0.44571 1.46296,1.16733 0.61286,0.72163 0.94895,1.63427 0.35585,0.91264 0.35585,1.84651 0,0.70041 -0.15816,1.35835 -0.15815,0.63674 -0.4547,1.20979 -0.29654,0.57306 -0.73148,1.03999 -0.41516,0.4457 -0.94895,0.76407 l 3.08408,5.60321 h -3.6574 l -2.68869,-4.86036 h -2.11536 v 4.86036 z m 3.24224,-7.89543 h 2.96546 q 0.57333,0 0.98849,-0.57306 0.41517,-0.59427 0.41517,-1.50692 0,-0.93387 -0.47448,-1.4857 -0.47448,-0.55182 -1.02802,-0.55182 h -2.86662 z"
         style="font-weight:800;font-size:20.4841px;line-height:1.25;font-family:Raleway;-inkscape-font-specification:'Raleway Ultra-Bold';fill:#ffffff;stroke-width:0.512103"
         id="path5990" /><path
         d="m 148.90332,149.45712 v 3.05629 h -9.8651 v -15.06923 h 9.68717 v 3.0563 h -6.44493 v 2.92894 h 5.53552 v 2.82283 h -5.53552 v 3.20487 z"
         style="font-weight:800;font-size:20.4841px;line-height:1.25;font-family:Raleway;-inkscape-font-specification:'Raleway Ultra-Bold';fill:#ffffff;stroke-width:0.512103"
         id="path5992" /><path
         d="m 150.88028,152.51341 v -15.06923 h 3.24223 v 6.49462 l 5.14014,-6.49462 h 3.63763 l -5.25875,6.72809 5.61461,8.34114 h -3.69694 l -3.97372,-6.07015 -1.46297,1.63427 v 4.43588 z"
         style="font-weight:800;font-size:20.4841px;line-height:1.25;font-family:Raleway;-inkscape-font-specification:'Raleway Ultra-Bold';fill:#ffffff;stroke-width:0.512103"
         id="path5994" /><path
         d="m 174.16901,149.45712 v 3.05629 h -9.8651 v -15.06923 h 9.68718 v 3.0563 h -6.44494 v 2.92894 h 5.53553 v 2.82283 h -5.53553 v 3.20487 z"
         style="font-weight:800;font-size:20.4841px;line-height:1.25;font-family:Raleway;-inkscape-font-specification:'Raleway Ultra-Bold';fill:#ffffff;stroke-width:0.512103"
         id="path5996" /><path
         d="m 179.38821,143.89635 v 8.61706 h -3.24223 v -15.06923 h 2.53052 l 6.54379,8.85052 v -8.85052 h 3.24223 v 15.06923 h -2.6096 z"
         style="font-weight:800;font-size:20.4841px;line-height:1.25;font-family:Raleway;-inkscape-font-specification:'Raleway Ultra-Bold';fill:#ffffff;stroke-width:0.512103"
         id="path5998" /><path
         d="m 191.15118,152.51341 v -15.06923 h 3.24225 v 15.06923 z"
         style="font-weight:800;font-size:20.4841px;line-height:1.25;font-family:Raleway;-inkscape-font-specification:'Raleway Ultra-Bold';fill:#ffffff;stroke-width:0.512103"
         id="path6000" /><path
         d="m 200.32434,143.89635 v 8.61706 h -3.24224 v -15.06923 h 2.53053 l 6.54378,8.85052 v -8.85052 h 3.24224 v 15.06923 h -2.6096 z"
         style="font-weight:800;font-size:20.4841px;line-height:1.25;font-family:Raleway;-inkscape-font-specification:'Raleway Ultra-Bold';fill:#ffffff;stroke-width:0.512103"
         id="path6002" /><path
         d="m 221.73495,151.02771 q -1.60135,1.59182 -3.69694,1.59182 -1.38388,0 -2.60961,-0.55183 -1.22572,-0.57306 -2.1549,-1.59183 -0.90941,-1.01875 -1.44319,-2.44079 -0.53378,-1.44325 -0.53378,-3.16241 0,-1.54937 0.53378,-2.92894 0.53378,-1.37958 1.46296,-2.39835 0.94895,-1.01876 2.23398,-1.61304 1.28503,-0.59428 2.76777,-0.59428 1.9572,0 3.42016,0.89142 1.46296,0.87019 2.19444,2.39834 l -2.41191,1.95263 q -0.47447,-1.01877 -1.38388,-1.57059 -0.88964,-0.57307 -1.93744,-0.57307 -0.81055,0 -1.48272,0.36082 -0.65241,0.33959 -1.12688,0.97632 -0.47447,0.6155 -0.73148,1.44325 -0.25701,0.82774 -0.25701,1.78284 0,0.97631 0.27678,1.80405 0.27677,0.82775 0.77102,1.44326 0.49424,0.59428 1.16642,0.93386 0.69193,0.3396 1.52226,0.3396 1.8979,0 3.42017,-1.88897 v -0.46693 h -2.72822 v -2.52568 h 5.41691 v 7.8742 h -2.68869 z"
         style="font-weight:800;font-size:20.4841px;line-height:1.25;font-family:Raleway;-inkscape-font-specification:'Raleway Ultra-Bold';fill:#ffffff;stroke-width:0.512103"
         id="path6004" /></g>

</svg>
