<svg xmlns="http://www.w3.org/2000/svg" width="240" height="130"><path d="M22.242 0h195.516a22.193 22.193 0 0122.241 22.242v78.13a22.193 22.193 0 01-22.241 22.243H22.242A22.193 22.193 0 010 100.373V22.242A22.193 22.193 0 0122.242 0z" fill="#fff" fill-rule="evenodd"/><path d="M35.929 44.198h44.846v72.428H35.929z" fill="#038141" fill-rule="evenodd"/><path d="M166.528 44.198h44.845v72.428h-44.845z" fill="#e63e11" fill-rule="evenodd"/><path d="M26.804 44.198h11.198c9.32 0 16.824 7.504 16.824 16.824v38.78c0 9.321-7.504 16.824-16.824 16.824H26.804A16.787 16.787 0 019.98 99.803v-38.78c0-9.321 7.504-16.825 16.824-16.825z" fill="#038141" fill-rule="evenodd"/><path d="M144.571 44.198h44.846v72.428H144.57z" fill="#ee8100" fill-rule="evenodd"/><path style="line-height:90%;-inkscape-font-specification:'Raleway Ultra-Bold'" d="M152.68 96.33V63.495h12.256q4.07 0 7.122 1.295 3.052 1.295 5.087 3.515 2.081 2.22 3.099 5.226 1.063 2.96 1.063 6.335 0 3.746-1.156 6.799-1.156 3.006-3.33 5.18-2.127 2.127-5.18 3.329-3.005 1.156-6.705 1.156zm20.904-16.464q0-2.173-.601-3.93-.555-1.804-1.665-3.099-1.11-1.295-2.729-1.989-1.618-.693-3.653-.693h-4.67V89.67h4.67q2.081 0 3.7-.74 1.618-.74 2.682-2.035 1.11-1.341 1.665-3.099.601-1.803.601-3.93z" font-weight="800" font-family="Raleway" letter-spacing="0" word-spacing="0" fill="#fff" fill-opacity=".446"/><path d="M97.296 44.198h47.352v72.428H97.296z" fill="#fecb02" fill-rule="evenodd"/><path d="M99.595 44.198H54.749v72.428h44.846z" fill="#85bb2f" fill-rule="evenodd"/><path style="line-height:90%;-inkscape-font-specification:'Raleway Ultra-Bold'" d="M110.265 79.358q0-2.96 1.11-5.873 1.11-2.96 3.237-5.273 2.128-2.312 5.18-3.746 3.052-1.433 6.937-1.433 4.625 0 8 1.988 3.423 1.989 5.088 5.18l-5.827 4.07q-.555-1.295-1.434-2.128-.833-.878-1.85-1.387-1.017-.555-2.081-.74-1.064-.231-2.081-.231-2.174 0-3.792.878-1.619.88-2.683 2.267-1.063 1.387-1.572 3.144-.509 1.758-.509 3.561 0 1.943.602 3.746.6 1.804 1.71 3.191 1.157 1.388 2.73 2.22 1.618.786 3.606.786 1.018 0 2.081-.231 1.11-.277 2.082-.786 1.017-.555 1.85-1.388.832-.878 1.34-2.127l6.198 3.654q-.74 1.803-2.22 3.237-1.434 1.433-3.33 2.405-1.896.97-4.023 1.48-2.128.508-4.163.508-3.56 0-6.567-1.433-2.96-1.48-5.133-3.885-2.127-2.405-3.33-5.457-1.156-3.052-1.156-6.197zM93.132 89.054q0 2.127-.878 3.7-.88 1.572-2.405 2.636-1.526 1.017-3.561 1.572-2.035.509-4.301.509H65.986V64.636h18.267q1.711 0 3.098.74 1.388.74 2.359 1.942.971 1.156 1.48 2.682.555 1.48.555 3.053 0 2.358-1.203 4.44-1.156 2.08-3.514 3.144 2.82.833 4.44 2.96 1.664 2.127 1.664 5.457zm-7.723-1.526q0-1.526-.879-2.59-.878-1.064-2.22-1.064h-8.74v7.169h8.417q1.48 0 2.45-.972.972-.97.972-2.543zM73.57 71.11v6.799h7.446q1.248 0 2.22-.833.97-.832.97-2.59 0-1.618-.878-2.497-.832-.879-2.035-.879z" font-weight="800" font-family="Raleway" letter-spacing="0" word-spacing="0" fill="#fff" fill-opacity=".446"/><path d="M74.995 34.788h4.858a24.185 24.185 0 0124.237 24.238v42.488a24.185 24.185 0 01-24.237 24.237h-4.858a24.185 24.185 0 01-24.238-24.237V59.026a24.185 24.185 0 0124.238-24.238z" fill="#0039ff" fill-opacity=".63" fill-rule="evenodd" stroke="#fff" stroke-width="7.5392829599999995" stroke-linecap="round" stroke-linejoin="round"/><path style="line-height:90%;-inkscape-font-specification:'Raleway Ultra-Bold'" d="M26.516 63.495h6.845L45.338 96.33H37.57l-2.543-7.353h-10.22l-2.498 7.353h-7.77zm7.26 20.256l-3.838-11.608-3.93 11.608z" font-weight="800" font-family="Raleway" letter-spacing="0" word-spacing="0" fill="#fff" fill-opacity=".446"/><path d="M206.164 44.198h11.198c9.32 0 16.823 7.504 16.823 16.824v38.78c0 9.321-7.503 16.824-16.823 16.824h-11.198a16.787 16.787 0 01-16.824-16.823v-38.78c0-9.321 7.503-16.825 16.824-16.825z" fill="#e63e11" fill-rule="evenodd"/><path style="line-height:90%;-inkscape-font-specification:'Raleway Ultra-Bold'" d="M223.301 89.67v6.66h-23.077V63.495h22.66v6.66H207.81v6.382h12.949v6.15h-12.95v6.984z" font-weight="800" font-family="Raleway" letter-spacing="0" word-spacing="0" fill="#fff" fill-opacity=".446"/><path d="M74.995 34.788h4.858a24.185 24.185 0 0124.237 24.238v42.488a24.185 24.185 0 01-24.237 24.237h-4.858a24.185 24.185 0 01-24.238-24.237V59.026a24.185 24.185 0 0124.238-24.238z" fill="#85bb2f" fill-rule="evenodd"/><path style="line-height:90%;-inkscape-font-specification:'Raleway Ultra-Bold'" d="M93.839 91.705q0 2.804-1.063 4.877-1.063 2.074-2.908 3.476-1.846 1.341-4.307 2.073-2.46.67-5.201.67H61.008v-43.29H83.1q2.07 0 3.748.976 1.678.976 2.852 2.56 1.175 1.525 1.79 3.537.67 1.951.67 4.024 0 3.11-1.453 5.854-1.398 2.743-4.25 4.146 3.41 1.097 5.368 3.902 2.014 2.805 2.014 7.195zm-9.34-2.012q0-2.012-1.063-3.415-1.063-1.402-2.685-1.402h-10.57v9.45H80.36q1.79 0 2.964-1.28 1.175-1.28 1.175-3.353zM70.18 68.048v8.962h9.004q1.51 0 2.685-1.097 1.174-1.097 1.174-3.414 0-2.134-1.062-3.293-1.007-1.158-2.461-1.158z" font-weight="800" font-family="Raleway" letter-spacing="0" word-spacing="0" fill="#fff"/><path style="line-height:90%;-inkscape-font-specification:'Raleway Ultra-Bold'" d="M19.268 20.154v9.49h-3.834V13.048h2.992l7.738 9.747v-9.747h3.833v16.596h-3.085zM40.324 26.372q.981 0 1.66-.398.677-.42 1.098-1.098.42-.678.584-1.543.187-.888.187-1.8v-8.485h3.834v8.485q0 1.73-.444 3.226-.421 1.496-1.333 2.618-.888 1.122-2.29 1.776-1.38.631-3.296.631-1.987 0-3.39-.677-1.402-.678-2.29-1.8-.866-1.146-1.286-2.642-.398-1.496-.398-3.132v-8.485h3.834v8.485q0 .958.187 1.823t.608 1.543q.42.678 1.075 1.075.678.398 1.66.398zM63.28 16.414h-5.049v13.23h-3.833v-13.23h-5.073v-3.366H63.28zM65.153 29.644V13.048h7.48q1.169 0 2.15.49 1.005.491 1.73 1.286.725.795 1.122 1.8.42 1.005.42 2.034 0 .771-.186 1.496-.187.701-.538 1.332-.35.631-.865 1.146-.49.49-1.122.841l3.647 6.171h-4.325l-3.179-5.353h-2.5v5.353zm3.833-8.695h3.507q.677 0 1.168-.632.491-.654.491-1.66 0-1.028-.56-1.636-.562-.607-1.216-.607h-3.39zM80.812 29.644V13.048h3.834v16.596zM87.516 24.899v-3.366h7.2v3.366zM107.526 17.91q-.07-.094-.491-.35-.421-.258-1.052-.539-.631-.28-1.38-.49-.747-.21-1.495-.21-2.057 0-2.057 1.378 0 .421.21.702.234.28.655.514.444.21 1.098.397.655.187 1.52.421 1.192.327 2.15.725.959.374 1.613.958.678.561 1.029 1.38.374.817.374 1.963 0 1.402-.538 2.384-.514.958-1.38 1.566-.864.585-1.986.865-1.122.257-2.314.257-.912 0-1.87-.14-.959-.14-1.87-.397-.912-.28-1.777-.655-.841-.374-1.566-.865l1.683-3.343q.093.117.608.445.514.327 1.262.654.771.327 1.706.585.935.257 1.894.257 2.034 0 2.034-1.24 0-.467-.304-.77-.304-.305-.842-.538-.537-.257-1.286-.468-.724-.21-1.589-.467-1.145-.35-1.987-.748-.841-.421-1.402-.959-.538-.537-.819-1.239-.257-.7-.257-1.636 0-1.309.491-2.314.491-1.005 1.333-1.683.841-.701 1.94-1.052 1.122-.35 2.36-.35.866 0 1.707.163.842.164 1.613.42.771.258 1.426.585.678.327 1.239.655zM110.99 21.206q0-1.496.562-2.969.56-1.496 1.636-2.665 1.075-1.169 2.618-1.893 1.543-.725 3.506-.725 2.338 0 4.044 1.005 1.73 1.005 2.572 2.618l-2.946 2.057q-.28-.654-.724-1.075-.421-.444-.935-.701-.515-.28-1.052-.374-.538-.117-1.052-.117-1.099 0-1.917.444-.818.444-1.356 1.146-.537.7-.794 1.589-.258.888-.258 1.8 0 .982.304 1.893.304.912.865 1.613.585.702 1.38 1.122.817.398 1.823.398.514 0 1.052-.117.56-.14 1.051-.398.515-.28.935-.7.421-.445.678-1.076l3.133 1.847q-.374.911-1.122 1.636-.725.724-1.683 1.215-.959.491-2.034.748-1.075.257-2.104.257-1.8 0-3.32-.724-1.495-.748-2.594-1.964-1.075-1.215-1.683-2.758-.584-1.543-.584-3.132zM135.107 29.784q-1.847 0-3.366-.724-1.52-.725-2.595-1.894-1.075-1.192-1.683-2.711-.584-1.52-.584-3.132 0-1.637.607-3.156.632-1.52 1.73-2.665 1.122-1.169 2.642-1.847 1.52-.7 3.319-.7 1.847 0 3.366.724 1.52.724 2.595 1.917 1.075 1.192 1.66 2.711.584 1.52.584 3.086 0 1.636-.631 3.155-.608 1.52-1.707 2.689-1.098 1.145-2.618 1.846-1.52.701-3.32.701zm-4.325-8.415q0 .959.28 1.87.281.889.819 1.59.561.701 1.38 1.122.817.42 1.87.42 1.098 0 1.916-.443.818-.445 1.356-1.146.537-.725.795-1.613.28-.911.28-1.846 0-.959-.28-1.847-.281-.912-.842-1.59-.561-.7-1.38-1.098-.794-.421-1.846-.421-1.098 0-1.917.444-.794.42-1.355 1.122-.538.701-.818 1.613-.258.888-.258 1.823zM145.597 29.644V13.048h7.48q1.169 0 2.15.49 1.006.491 1.73 1.286.725.795 1.122 1.8.421 1.005.421 2.034 0 .771-.187 1.496-.187.701-.537 1.332-.351.631-.865 1.146-.491.49-1.122.841l3.646 6.171h-4.324l-3.18-5.353h-2.5v5.353zm3.834-8.695h3.506q.678 0 1.169-.632.49-.654.49-1.66 0-1.028-.56-1.636-.562-.607-1.216-.607h-3.39zM172.921 26.278v3.366h-11.664V13.048h11.454v3.366h-7.62v3.226h6.544v3.108h-6.545v3.53z" font-weight="800" font-family="Raleway" letter-spacing="0" word-spacing="0" fill="#7d7d7d"/></svg>