<svg xmlns="http://www.w3.org/2000/svg" width="240" height="162"><path style="fill:#fff;fill-opacity:1;stroke:none;stroke-width:2.65346;stroke-linecap:round;stroke-linejoin:round;paint-order:stroke fill markers" d="M0 98h239.178v30H0z"/><path fill="#fff" d="M211.749-.003H27.394c-15.117 0-27.41 12.3-27.41 27.413v70.766c0 15.116 12.291 27.413 27.407 27.413h30.546a31.623 31.623 0 0 0 16.176 4.409h3.118c5.958 0 11.502-1.633 16.176-4.41h118.342c15.114 0 27.407-12.296 27.407-27.412v-70.77c0-15.11-12.293-27.409-27.407-27.409" clip-path="url(#clipPath1866)"/><path fill="#fc0" d="M141.545 115.826h-43.95V44.318h43.95z"/><path fill="#ef7d00" d="M185.495 115.826h-43.95V44.318h43.95z"/><path fill="#e63312" d="M211.749 115.826h-26.254V44.318h26.254a17.647 17.647 0 0 1 17.647 17.647v36.213a17.65 17.65 0 0 1-17.647 17.648" clip-path="url(#clipPath1717)"/><path fill="#00803d" d="M27.391 115.826h26.252V44.318H27.391a17.647 17.647 0 0 0-17.65 17.647v36.213a17.65 17.65 0 0 0 17.65 17.648" clip-path="url(#clipPath1729)"/><path fill="#ffdf7d" d="M124.88 63.73c-8.556 0-15.139 6.378-15.139 16.353 0 10.027 6.055 16.447 15.236 16.447 5.914 0 10.142-2.31 12.785-6.7l-4.612-3.372c-1.875 3.05-4.473 4.76-7.933 4.76-5.863 0-9.134-4.067-9.134-11.181 0-6.652 3.366-10.99 8.556-10.99 3.414 0 5.914 1.706 7.115 4.616l5.865-2.17c-1.924-4.48-5.433-7.762-12.74-7.762" clip-path="url(#clipPath1735)"/><path fill="#f8b472" d="M157.782 91.265V69.09h3.463c7.642 0 11.342 4.065 11.342 11.04 0 6.376-3.987 11.134-12.11 11.134zm3.509-27.07h-9.661v31.871h8.99c11.391 0 18.314-6.788 18.314-15.934 0-9.977-6.444-15.938-17.64-15.938" clip-path="url(#clipPath1741)"/><path fill="#f28f66" d="M217.559 64.192h-20.236v31.874h20.43v-4.801h-14.278v-9.38h10v-4.803h-10v-8.084h14.084z"/><path fill="#7c7b7b" d="M23.161 19.799v9.754h-3.939V12.497h3.076l7.949 10.018V12.497h3.939V29.55h-3.169z"/><path fill="#7c7b7b" d="M44.756 26.187c.671 0 1.24-.139 1.704-.419.463-.28.843-.653 1.13-1.117a4.78 4.78 0 0 0 .611-1.597c.122-.6.183-1.214.183-1.839V12.5h3.937v8.716a11.894 11.894 0 0 1-.443 3.315 7.67 7.67 0 0 1-1.37 2.692 6.404 6.404 0 0 1-2.355 1.814c-.951.437-2.086.658-3.399.658-1.36 0-2.52-.23-3.482-.695-.962-.464-1.743-1.082-2.34-1.86a7.635 7.635 0 0 1-1.323-2.704 12.062 12.062 0 0 1-.422-3.22V12.5h3.941v8.716c0 .656.064 1.283.195 1.876a4.965 4.965 0 0 0 .622 1.585c.287.465.66.832 1.117 1.103.456.274 1.021.408 1.694.408" clip-path="url(#clipPath1747)"/><path fill="#7c7b7b" d="M68.342 15.957h-5.19V29.55h-3.94V15.957h-5.211v-3.46H68.34zM70.286 29.55V12.497h7.684a4.965 4.965 0 0 1 2.225.507 5.903 5.903 0 0 1 1.765 1.32c.494.543.883 1.16 1.163 1.849.283.688.422 1.384.422 2.09a5.991 5.991 0 0 1-.744 2.906 5.283 5.283 0 0 1-2.041 2.041l3.915 6.34H80.23l-3.436-5.499h-2.569v5.5zm3.94-8.935h3.603c.464 0 .863-.218 1.2-.66.338-.441.504-1.004.504-1.692 0-.706-.192-1.265-.574-1.684-.386-.415-.803-.622-1.251-.622h-3.483zM86.62 12.497h3.938V29.55H86.62zM93.488 21.215h7.4v3.46h-7.4z"/><path fill="#7c7b7b" d="m114.05 17.495-.529-.362a10.504 10.504 0 0 0-2.498-1.057 5.68 5.68 0 0 0-1.536-.214c-.675 0-1.191.119-1.551.36a1.185 1.185 0 0 0-.538 1.057l.24.721.684.514a6.02 6.02 0 0 0 1.103.42c.442.13.95.275 1.528.434.816.225 1.553.468 2.206.733.66.263 1.218.591 1.684.984.464.393.821.87 1.068 1.43a4.943 4.943 0 0 1 .373 2.017c0 .96-.18 1.772-.54 2.436a4.568 4.568 0 0 1-1.428 1.611 6.073 6.073 0 0 1-2.055.89 10.26 10.26 0 0 1-2.39.276 13.622 13.622 0 0 1-3.82-.565 15.906 15.906 0 0 1-1.825-.662 9.96 9.96 0 0 1-1.635-.888l1.733-3.435.646.456c.35.228.786.45 1.298.673.512.226 1.088.426 1.73.6a7.282 7.282 0 0 0 1.942.265c1.397 0 2.092-.425 2.092-1.273l-.311-.794-.866-.56a9.249 9.249 0 0 0-1.297-.47l-1.633-.482a14.28 14.28 0 0 1-2.041-.781 5.599 5.599 0 0 1-1.441-.971 3.471 3.471 0 0 1-.852-1.273 4.654 4.654 0 0 1-.278-1.682c0-.898.17-1.688.505-2.377a5.154 5.154 0 0 1 1.368-1.743 5.895 5.895 0 0 1 2.006-1.068 7.9 7.9 0 0 1 2.414-.36c.61 0 1.203.055 1.779.166.574.115 1.125.258 1.644.432a14.565 14.565 0 0 1 2.726 1.274z" clip-path="url(#clipPath1759)"/><path fill="#7c7b7b" d="M117.604 20.88c0-1.024.185-2.046.551-3.063a8.474 8.474 0 0 1 1.611-2.725 8.148 8.148 0 0 1 2.582-1.947c1.015-.496 2.174-.743 3.471-.743 1.521 0 2.843.344 3.964 1.032a6.494 6.494 0 0 1 2.498 2.69l-3.026 2.112a3.661 3.661 0 0 0-.673-1.116l-.889-.72-.997-.384-.974-.108c-.706 0-1.313.152-1.822.457a4.016 4.016 0 0 0-1.274 1.176 5.204 5.204 0 0 0-.757 1.633 6.845 6.845 0 0 0-.253 1.85c0 .673.101 1.321.3 1.946a5.58 5.58 0 0 0 .838 1.657 4.1 4.1 0 0 0 1.311 1.141 3.5 3.5 0 0 0 1.706.42l.997-.131.993-.41.87-.72c.254-.296.463-.662.624-1.092l3.242 1.895a5.184 5.184 0 0 1-1.116 1.684 6.907 6.907 0 0 1-1.671 1.247 8.569 8.569 0 0 1-4.038 1.033c-1.181 0-2.267-.252-3.25-.755a8.27 8.27 0 0 1-2.547-2.006 9.432 9.432 0 0 1-1.669-2.833 8.997 8.997 0 0 1-.602-3.22" clip-path="url(#clipPath1765)"/><path fill="#7c7b7b" d="M141.48 29.694c-1.215 0-2.32-.247-3.314-.744a8.363 8.363 0 0 1-2.56-1.957 8.836 8.836 0 0 1-1.655-2.776 9.018 9.018 0 0 1-.589-3.216 8.77 8.77 0 0 1 .614-3.244 8.784 8.784 0 0 1 1.703-2.751 8.314 8.314 0 0 1 2.596-1.896c1-.472 2.094-.706 3.279-.706 1.213 0 2.321.245 3.31.741a8.216 8.216 0 0 1 2.56 1.97 8.875 8.875 0 0 1 1.646 2.786 9.1 9.1 0 0 1 .574 3.17 8.854 8.854 0 0 1-.61 3.245 8.85 8.85 0 0 1-1.692 2.75 8.289 8.289 0 0 1-2.582 1.908 7.472 7.472 0 0 1-3.28.72m-4.108-8.644c0 .655.093 1.29.278 1.907.183.617.448 1.165.792 1.648.344.479.777.863 1.298 1.152a3.641 3.641 0 0 0 1.787.43c.691 0 1.291-.152 1.803-.457.512-.302.94-.7 1.287-1.187a5.321 5.321 0 0 0 .768-1.655 7.275 7.275 0 0 0 .251-1.887 6.67 6.67 0 0 0-.278-1.91 5.13 5.13 0 0 0-.803-1.634 4.01 4.01 0 0 0-1.298-1.13c-.512-.28-1.096-.419-1.752-.419-.688 0-1.289.148-1.8.444a4.094 4.094 0 0 0-1.287 1.165 5.285 5.285 0 0 0-.78 1.644 6.841 6.841 0 0 0-.266 1.889" clip-path="url(#clipPath1773)"/><path fill="#7c7b7b" d="M151.952 29.55V12.497h7.686c.801 0 1.54.17 2.222.507a5.892 5.892 0 0 1 1.766 1.32c.496.543.882 1.16 1.165 1.849a5.539 5.539 0 0 1 .42 2.09 6.21 6.21 0 0 1-.19 1.525 6.029 6.029 0 0 1-.555 1.381 5.274 5.274 0 0 1-2.04 2.041l3.914 6.34h-4.442l-3.436-5.499h-2.569v5.5zm3.941-8.935h3.602c.463 0 .865-.218 1.2-.66.338-.441.506-1.004.506-1.692 0-.706-.193-1.265-.576-1.684-.387-.415-.804-.622-1.25-.622h-3.482zM180.27 26.092v3.458h-11.986V12.497h11.769v3.46h-7.83v3.314h6.726v3.193h-6.726v3.628z"/><path fill="#74ab7e" d="m22.367 85.165 4.854-12.702 4.666 12.702zm7.163-20.97h-4.281L12.03 96.065h6.201l2.308-6.097h13.124l2.26 6.097h6.774z"/><path fill="#fff" d="M74.113 129.998c-16.566 0-30.043-12.466-30.043-27.788V57.936c0-15.324 13.477-27.79 30.043-27.79h3.118c16.566 0 30.043 12.468 30.043 27.79v44.274c0 15.322-13.477 27.788-30.043 27.788z" clip-path="url(#clipPath1779)"/><path fill="#87bd25" d="M77.231 124.761h-3.118c-13.704 0-24.806-10.096-24.806-22.553V57.936c0-12.455 11.104-22.553 24.804-22.553h3.12c13.7 0 24.804 10.098 24.804 22.553v44.274c0 12.455-11.104 22.551-24.804 22.551" clip-path="url(#clipPath1785)"/><path fill="#fff" d="M62.7 99.615V57.122h13.086c10.071 0 14.357 5.296 14.357 12.07 0 3.695-1.796 6.835-4.575 8.254 3.88 1.29 6.775 4.616 6.775 9.114 0 7.818-4.921 13.055-15.227 13.055zm10.13-25.19h1.912c2.893 0 4.978-1.17 4.978-4.434 0-3.263-2.085-4.188-4.978-4.188H72.83zm0 7.946v8.563h3.823c2.952 0 5.265-1.174 5.265-4.374 0-3.143-2.544-4.189-5.786-4.189z"/><path clip-path="url(#clipPath1593)" style="fill:#093c6b;fill-opacity:1;fill-rule:nonzero;stroke:none" d="M0 33.997v-6.59C0 12.297 12.298-.003 27.412-.003H211.77v.002c15.112 0 27.408 12.296 27.408 27.408v6.59H0z" transform="matrix(1 0 0 -1 0 161.997)"/><g aria-label="NEW FORMULA" style="font-size:21.2243px;line-height:1.25;font-family:'Open Sans';-inkscape-font-specification:'Open Sans';stroke-width:.530607"><path d="M44.678 143.896v8.617h-3.481v-15.069h2.717l7.025 8.85v-8.85h3.48v15.07h-2.8ZM67.897 149.457v3.056h-10.59v-15.069h10.4v3.056h-6.92v2.93h5.943v2.822h-5.943v3.205zM75.029 137.465h3.204l1.529 4.818 1.528-4.818h3.226l-2.526 7.004 1.528 4.054 3.778-11.079h3.8l-6.028 15.07H82.16l-2.398-5.901-2.378 5.9h-2.929l-6.006-15.069h3.778l3.8 11.08 1.485-4.055zM96.635 152.513v-15.069h10.23v3.056h-6.75v3.248h5.561v2.823h-5.56v5.942zM114.973 152.64q-1.677 0-3.057-.657-1.38-.658-2.356-1.72-.976-1.082-1.528-2.461-.53-1.38-.53-2.844 0-1.486.551-2.866.574-1.38 1.571-2.42 1.019-1.06 2.398-1.676 1.38-.637 3.014-.637 1.677 0 3.057.658t2.355 1.74q.977 1.083 1.507 2.463.531 1.38.531 2.801 0 1.486-.573 2.866-.552 1.38-1.55 2.44-.997 1.04-2.377 1.677t-3.013.637zm-3.927-7.64q0 .87.255 1.698.254.806.743 1.443.509.637 1.252 1.019.743.382 1.698.382.997 0 1.74-.403.743-.404 1.231-1.04.488-.658.722-1.465.255-.827.255-1.676 0-.87-.255-1.677-.255-.828-.764-1.443-.51-.637-1.252-.998-.722-.382-1.677-.382-.998 0-1.74.403-.722.382-1.232 1.019-.488.637-.742 1.465-.234.806-.234 1.655zM124.502 152.513v-15.069h6.792q1.061 0 1.953.446.912.446 1.57 1.167.658.722 1.019 1.634.382.913.382 1.847 0 .7-.17 1.358-.17.637-.488 1.21-.318.573-.785 1.04-.446.446-1.019.764l3.311 5.603h-3.926l-2.887-4.86h-2.271v4.86zm3.481-7.895h3.184q.615 0 1.06-.573.447-.594.447-1.507 0-.934-.51-1.486-.51-.552-1.103-.552h-3.078zM150.608 152.513v-9.02l-3.268 6.558h-1.868l-3.269-6.558v9.02h-3.48v-15.069h3.777l3.906 7.874 3.926-7.874h3.757v15.07zM163.449 149.542q.891 0 1.507-.36.615-.383.997-.998.382-.616.53-1.401.17-.807.17-1.634v-7.705h3.481v7.705q0 1.57-.403 2.929-.382 1.358-1.21 2.377-.806 1.018-2.08 1.613-1.252.573-2.992.573-1.804 0-3.078-.616-1.273-.615-2.08-1.634-.785-1.04-1.167-2.398-.36-1.359-.36-2.844v-7.705h3.48v7.705q0 .87.17 1.655t.552 1.4q.382.616.976.977.615.361 1.507.361zM172.83 152.513v-15.069h3.48v12.013h7.302v3.056zM189.342 137.444h3.142l5.497 15.07h-3.566l-1.167-3.375h-4.69l-1.147 3.374h-3.566zm3.333 9.296-1.762-5.327-1.804 5.327z" style="font-weight:800;font-family:Raleway;-inkscape-font-specification:'Raleway Ultra-Bold';fill:#fff"/></g></svg>