<svg xmlns="http://www.w3.org/2000/svg" id="svg2032" width="240" height="162" version="1.1" viewBox="0 0 240 162">
<rect
     style="fill:#ffffff;fill-opacity:1;stroke:none;stroke-width:2.65346;stroke-linecap:round;stroke-linejoin:round;paint-order:stroke fill markers"
     id="rect18499"
     width="239.17799"
     height="30"
     x="0"
     y="98" />
  <defs id="defs2029">
    <clipPath id="clipPath1836" clipPathUnits="userSpaceOnUse">
      <path id="path1838" stroke-width="1" d="M-576.406-131.683h841.89v595.276h-841.89z"/>
    </clipPath>
    <clipPath id="clipPath1817" clipPathUnits="userSpaceOnUse">
      <path id="path1819" stroke-width="1" d="M-480.445-91.617h841.89V503.66h-841.89z"/>
    </clipPath>
    <clipPath id="clipPath1872" clipPathUnits="userSpaceOnUse">
      <path id="path1874" stroke-width="1" d="M-488.313-132.237h841.89v595.276h-841.89z"/>
    </clipPath>
    <clipPath id="clipPath1878" clipPathUnits="userSpaceOnUse">
      <path id="path1880" stroke-width="1" d="M-519.714-136.177h841.89V459.1h-841.89z"/>
    </clipPath>
    <clipPath id="clipPath1886" clipPathUnits="userSpaceOnUse">
      <path id="path1888" stroke-width="1" d="M-521.325-134.642h841.89v595.276h-841.89z"/>
    </clipPath>
    <clipPath id="clipPath1892" clipPathUnits="userSpaceOnUse">
      <path id="path1894" stroke-width="1" d="M-532.144-130.648h841.89v595.276h-841.89z"/>
    </clipPath>
    <clipPath id="clipPath1898" clipPathUnits="userSpaceOnUse">
      <path id="path1900" stroke-width="1" d="M-500.02-102.749h841.89v595.276h-841.89z"/>
    </clipPath>
    <clipPath id="clipPath1904" clipPathUnits="userSpaceOnUse">
      <path id="path1906" stroke-width="1" d="M-522.55-115.224h841.89v595.276h-841.89z"/>
    </clipPath>
    <clipPath id="clipPath1910" clipPathUnits="userSpaceOnUse">
      <path id="path1912" stroke-width="1" d="M-561.373-85.195h841.89v595.276h-841.89z"/>
    </clipPath>
    <clipPath id="clipPath1916" clipPathUnits="userSpaceOnUse">
      <path id="path1918" stroke-width="1" d="M-562.786-87.568h841.89v595.276h-841.89z"/>
    </clipPath>
    <clipPath id="clipPath1593" clipPathUnits="userSpaceOnUse">
      <path id="path1595" stroke-width="1" d="M-503.056-291.81h841.89v595.277h-841.89z"/>
    </clipPath>
    <clipPath id="clipPath1929" clipPathUnits="userSpaceOnUse">
      <path id="path1931" stroke-width="1" d="M-503.055-239.322h841.89v595.276h-841.89z"/>
    </clipPath>
    <clipPath id="clipPath1605" clipPathUnits="userSpaceOnUse">
      <path id="path1607" stroke-width="1" d="M-427.382-279.942h841.89v595.276h-841.89z"/>
    </clipPath>
    <clipPath id="clipPath1618" clipPathUnits="userSpaceOnUse">
      <path id="path1620" stroke-width="1" d="M-458.785-283.881h841.89v595.276h-841.89z"/>
    </clipPath>
    <clipPath id="clipPath1611" clipPathUnits="userSpaceOnUse">
      <path id="path1613" stroke-width="1" d="M-460.394-282.347h841.89v595.276h-841.89z"/>
    </clipPath>
    <clipPath id="clipPath1599" clipPathUnits="userSpaceOnUse">
      <path id="path1601" stroke-width="1" d="M-471.214-278.353h841.89v595.276h-841.89z"/>
    </clipPath>
    <clipPath id="clipPath1624" clipPathUnits="userSpaceOnUse">
      <path id="path1626" stroke-width="1" d="M-441.091-250.452h841.89v595.276h-841.89z"/>
    </clipPath>
    <clipPath id="clipPath1630" clipPathUnits="userSpaceOnUse">
      <path id="path1632" stroke-width="1" d="M-461.62-262.929h841.89v595.276h-841.89z"/>
    </clipPath>
    <clipPath id="clipPath1636" clipPathUnits="userSpaceOnUse">
      <path id="path1638" stroke-width="1" d="M-478.601-250.452h841.89v595.276h-841.89z"/>
    </clipPath>
    <clipPath id="clipPath1642" clipPathUnits="userSpaceOnUse">
      <path id="path1644" stroke-width="1" d="M-420.708-232.9h841.89v595.276h-841.89z"/>
    </clipPath>
    <clipPath id="clipPath1922" clipPathUnits="userSpaceOnUse">
      <path id="path1924" stroke-width="1" d="M-422.121-235.273h841.89v595.276h-841.89z"/>
    </clipPath>
  </defs>
  <g id="layer1">
    <g id="g2543" fill-opacity="1" fill-rule="nonzero" stroke="none">
      <path id="path126" fill="#fff" d="M211.77-.003H27.413C12.299-.003 0 12.296 0 27.407v70.77l.005.008v4.023c0 15.324 13.476 27.79 30.04 27.79h3.119c5.958 0 11.501-1.633 16.175-4.41h162.43c15.113 0 27.409-12.296 27.409-27.412V27.408c0-15.112-12.296-27.41-27.408-27.41" clip-path="url(#clipPath1593)"/>
      <path id="path130" fill="#e63312" d="M211.768 115.826h-26.252V44.318h26.252a17.647 17.647 0 0 1 17.647 17.647v36.211a17.647 17.647 0 0 1-17.647 17.65" clip-path="url(#clipPath1929)"/>
      <path id="path134" fill="#f28f66" d="M217.582 64.192h-20.236v31.874h20.428v-4.801H203.5v-9.38h9.999v-4.803h-10v-8.084h14.084z"/>
      <path id="path138" fill="#7c7b7b" d="M23.185 19.799v9.754h-3.94V12.497h3.074l7.951 10.018V12.497h3.94V29.55h-3.172z"/>
      <path id="path150" fill="#7c7b7b" d="M44.775 26.187c.674 0 1.24-.139 1.706-.419.464-.28.841-.653 1.13-1.117.287-.465.492-.997.611-1.597.122-.6.181-1.214.181-1.839v-8.718h3.94v8.718a11.894 11.894 0 0 1-.444 3.315 7.67 7.67 0 0 1-1.37 2.692 6.422 6.422 0 0 1-2.355 1.814c-.951.437-2.086.658-3.399.658-1.359 0-2.52-.23-3.482-.695a6.422 6.422 0 0 1-2.341-1.86 7.71 7.71 0 0 1-1.322-2.704 12.15 12.15 0 0 1-.422-3.22v-8.718h3.942v8.718c0 .656.062 1.283.192 1.876.128.59.337 1.121.624 1.585.29.465.66.832 1.117 1.103.454.274 1.022.408 1.692.408" clip-path="url(#clipPath1605)"/>
      <path id="path154" fill="#7c7b7b" d="M68.364 15.957h-5.186V29.55h-3.942V15.957h-5.212v-3.46h14.34z"/>
      <path id="path166" fill="#7c7b7b" d="M70.31 29.55V12.497h7.684a4.965 4.965 0 0 1 2.224.507c.68.333 1.267.775 1.766 1.32.494.543.882 1.16 1.163 1.849.282.688.421 1.384.421 2.09a5.991 5.991 0 0 1-.746 2.906 5.208 5.208 0 0 1-2.041 2.041l3.917 6.34h-4.444l-3.436-5.499h-2.569v5.5zm3.939-8.935h3.601c.466 0 .865-.218 1.203-.66.335-.441.503-1.004.503-1.692 0-.706-.192-1.265-.574-1.684-.386-.415-.803-.622-1.25-.622h-3.483z"/>
      <path id="path168" fill="#7c7b7b" d="M86.642 12.497h3.94V29.55h-3.94z"/>
      <path id="path170" fill="#7c7b7b" d="M93.512 21.215h7.399v3.46h-7.4z"/>
      <path id="path182" fill="#7c7b7b" d="M114.074 17.495l-.53-.362a10.725 10.725 0 0 0-2.497-1.057 5.68 5.68 0 0 0-1.536-.214c-.675 0-1.19.119-1.552.36a1.185 1.185 0 0 0-.538 1.057l.24.721.685.514a6.201 6.201 0 0 0 1.103.422c.441.128.949.273 1.527.432.817.225 1.551.468 2.209.733a6.108 6.108 0 0 1 1.682.984c.463.393.82.87 1.068 1.43.247.56.373 1.234.373 2.017 0 .96-.181 1.772-.541 2.436a4.55 4.55 0 0 1-1.43 1.611 6.042 6.042 0 0 1-2.052.89 10.26 10.26 0 0 1-2.39.276 13.622 13.622 0 0 1-3.82-.565 15.756 15.756 0 0 1-1.825-.66 9.96 9.96 0 0 1-1.635-.89l1.73-3.435.649.456c.35.228.783.45 1.297.673.512.225 1.088.426 1.728.6a7.311 7.311 0 0 0 1.946.265c1.395 0 2.09-.425 2.09-1.273l-.311-.792-.865-.563a9.249 9.249 0 0 0-1.298-.47l-1.633-.48a14.18 14.18 0 0 1-2.04-.782 5.612 5.612 0 0 1-1.444-.971 3.497 3.497 0 0 1-.852-1.273 4.705 4.705 0 0 1-.274-1.682c0-.898.166-1.688.504-2.377a5.154 5.154 0 0 1 1.368-1.743 5.917 5.917 0 0 1 2.006-1.068c.759-.24 1.562-.36 2.414-.36.609 0 1.2.055 1.776.166.579.114 1.126.258 1.647.432a14.163 14.163 0 0 1 2.725 1.274z" clip-path="url(#clipPath1618)"/>
      <path id="path186" fill="#7c7b7b" d="M117.625 20.88a8.89 8.89 0 0 1 .554-3.063 8.39 8.39 0 0 1 1.609-2.725 8.125 8.125 0 0 1 2.582-1.947c1.017-.496 2.173-.743 3.469-.743 1.522 0 2.844.344 3.965 1.032a6.494 6.494 0 0 1 2.498 2.69l-3.027 2.112a3.614 3.614 0 0 0-.671-1.116l-.89-.72-.997-.384-.973-.108a3.509 3.509 0 0 0-1.825.457 4.038 4.038 0 0 0-1.274 1.176 5.248 5.248 0 0 0-.754 1.633 6.845 6.845 0 0 0-.254 1.85c0 .673.1 1.321.3 1.946.199.624.481 1.176.84 1.657.36.479.797.86 1.31 1.141.511.28 1.08.42 1.705.42l.998-.13.995-.411.867-.72c.254-.295.464-.662.623-1.092l3.241 1.895a5.113 5.113 0 0 1-1.116 1.684 6.894 6.894 0 0 1-1.669 1.247 8.569 8.569 0 0 1-4.036 1.033 7.062 7.062 0 0 1-3.255-.755 8.35 8.35 0 0 1-2.546-2.006 9.52 9.52 0 0 1-1.666-2.833 8.997 8.997 0 0 1-.603-3.22" clip-path="url(#clipPath1611)"/>
      <path id="path190" fill="#7c7b7b" d="M141.502 29.694c-1.218 0-2.321-.247-3.314-.744a8.275 8.275 0 0 1-2.558-1.957 8.836 8.836 0 0 1-1.657-2.776 9.017 9.017 0 0 1 .022-6.46c.41-1.039.977-1.96 1.706-2.751a8.314 8.314 0 0 1 2.595-1.896c1-.472 2.092-.708 3.279-.708 1.214 0 2.321.247 3.312.743a8.24 8.24 0 0 1 2.56 1.97 8.91 8.91 0 0 1 1.644 2.786 9.104 9.104 0 0 1 .576 3.171 8.791 8.791 0 0 1-.611 3.242 8.893 8.893 0 0 1-1.693 2.752 8.289 8.289 0 0 1-2.582 1.908 7.472 7.472 0 0 1-3.279.72m-4.109-8.644c0 .655.093 1.29.278 1.907.183.617.448 1.165.79 1.648a3.928 3.928 0 0 0 1.3 1.152c.519.287 1.117.43 1.787.43.689 0 1.291-.152 1.803-.457.512-.302.94-.7 1.287-1.187a5.284 5.284 0 0 0 .768-1.657 7.26 7.26 0 0 0 .251-1.885c0-.657-.094-1.295-.278-1.91a5.131 5.131 0 0 0-.803-1.634 4.034 4.034 0 0 0-1.297-1.13c-.512-.28-1.097-.419-1.753-.419a3.53 3.53 0 0 0-1.8.444 4.094 4.094 0 0 0-1.287 1.165 5.34 5.34 0 0 0-.781 1.644 6.923 6.923 0 0 0-.265 1.889" clip-path="url(#clipPath1599)"/>
      <path id="path194" fill="#7c7b7b" d="M151.975 29.55V12.497h7.684c.801 0 1.54.17 2.225.507a5.904 5.904 0 0 1 1.765 1.32c.495.543.883 1.16 1.163 1.849a5.539 5.539 0 0 1 .422 2.09 6.08 6.08 0 0 1-.192 1.525 6.029 6.029 0 0 1-.552 1.381 5.274 5.274 0 0 1-2.043 2.041l3.914 6.34h-4.442l-3.438-5.499h-2.569v5.5zm3.937-8.935h3.604c.463 0 .863-.218 1.2-.66.338-.441.504-1.004.504-1.692 0-.706-.192-1.265-.574-1.684-.386-.415-.803-.622-1.25-.622h-3.484z"/>
      <path id="path198" fill="#7c7b7b" d="M180.293 26.092v3.458h-11.985V12.497h11.768v3.46h-7.83v3.314h6.727v3.193h-6.726v3.628z"/>
      <path id="path200" fill="#87bd25" d="M97.614 115.826h-43.95V44.318h43.95z"/>
      <path id="path202" fill="#fc0" d="M141.566 115.826H97.614V44.318h43.952z"/>
      <path id="path204" fill="#ef7d00" d="M185.516 115.826h-43.95V44.318h43.95z"/>
      <path id="path216" fill="#bdd684" d="M75.028 91.265v-9.008h3.028c5.622.044 7.452 1.708 7.452 4.343 0 3.277-2.406 4.665-7.068 4.665zm0-13.444v-8.823h1.827c4.855 0 6.823 1.433 6.823 4.297 0 2.633-1.873 4.433-5.814 4.48zm2.597-13.627h-8.752v31.873h9.856c9.277 0 13.075-3.741 13.075-9.467 0-3.145-1.73-5.637-5.336-7.069 2.068-1.617 3.509-3.88 3.509-6.79 0-4.714-3.317-8.547-12.352-8.547" clip-path="url(#clipPath1624)"/>
      <path id="path220" fill="#ffdf7d" d="M120.33 63.73c-8.555 0-15.142 6.376-15.142 16.353 0 10.027 6.06 16.447 15.237 16.447 5.915 0 10.145-2.31 12.786-6.7l-4.614-3.372c-1.874 3.05-4.469 4.76-7.931 4.76-5.866 0-9.134-4.067-9.134-11.181 0-6.652 3.368-10.992 8.558-10.992 3.414 0 5.914 1.708 7.115 4.619l5.863-2.172c-1.922-4.48-5.43-7.761-12.737-7.761" clip-path="url(#clipPath1630)"/>
      <path id="path224" fill="#f8b472" d="M157.804 91.265V69.09h3.462c7.642 0 11.345 4.065 11.345 11.04 0 6.376-3.992 11.134-12.113 11.134zm3.51-27.07h-9.663v31.872h8.99c11.392 0 18.314-6.788 18.314-15.936 0-9.976-6.441-15.937-17.64-15.937" clip-path="url(#clipPath1636)"/>
      <path id="path228" fill="#fff" d="M30.048 129.998C13.48 129.998.005 117.532.005 102.21V57.936c0-15.324 13.476-27.79 30.043-27.79h3.118c16.566 0 30.043 12.466 30.043 27.79v44.274c0 15.322-13.477 27.788-30.043 27.788z" clip-path="url(#clipPath1642)"/>
      <path id="path232" fill="#00803d" d="M33.166 124.761h-3.118c-13.702 0-24.809-10.096-24.809-22.55V57.935c0-12.455 11.107-22.551 24.809-22.551h3.118c13.7 0 24.806 10.096 24.806 22.55v44.275c0 12.455-11.107 22.551-24.806 22.551" clip-path="url(#clipPath1922)"/>
      <path id="path236" fill="#fff" d="M11.873 99.613L27.62 57.119h8.684l15.63 42.494H40.82l-2.14-6.837h-14.36l-2.256 6.837zm15.341-15.518H35.9l-4.228-13.428z"/>
    </g>
  </g>
<path
     id="path16330"
     clip-path="url(#clipPath1593)"
     style="fill:#093c6b;fill-opacity:1;fill-rule:nonzero;stroke:none"
     d="M 0 33.997 L 0 27.407156 C 2.3684734e-15 12.296171 12.298124 -0.003 27.412109 -0.003 L 211.76953 -0.003 L 211.76953 -0.001046875 C 226.88152 -0.001046875 239.17773 12.295171 239.17773 27.407156 L 239.17773 33.997 L 0 33.997 z "
     transform="matrix(1,0,0,-1,0,161.997)" />
<g
       id="g5892"><path
         d="m 19.503083,143.89633 v 8.61707 h -3.480785 v -15.06926 h 2.71671 l 7.025244,8.85054 v -8.85054 h 3.480785 v 15.06926 h -2.801608 z"
         style="font-weight:800;font-size:21.2243px;line-height:1.25;font-family:Raleway;-inkscape-font-specification:'Raleway Ultra-Bold';fill:#ffffff;stroke-width:0.530607"
         id="path5719" /><path
         d="m 42.722444,149.4571 v 3.0563 H 32.131518 v -15.06926 h 10.399907 v 3.0563 h -6.919122 v 2.92896 h 5.942805 v 2.82283 h -5.942805 v 3.20487 z"
         style="font-weight:800;font-size:21.2243px;line-height:1.25;font-family:Raleway;-inkscape-font-specification:'Raleway Ultra-Bold';fill:#ffffff;stroke-width:0.530607"
         id="path5721" /><path
         d="m 51.318265,149.542 q 0.89142,0 1.506925,-0.36082 0.615505,-0.38204 0.997542,-0.99754 0.382038,-0.6155 0.530608,-1.4008 0.169794,-0.80653 0.169794,-1.63428 v -7.70442 h 3.480786 v 7.70442 q 0,1.5706 -0.403262,2.92896 -0.382038,1.35835 -1.209785,2.37712 -0.806524,1.01877 -2.079982,1.61305 -1.252233,0.57305 -2.992626,0.57305 -1.804066,0 -3.077524,-0.6155 -1.273458,-0.61551 -2.079981,-1.63427 -0.785299,-1.03999 -1.167337,-2.39835 -0.360813,-1.35835 -0.360813,-2.84406 v -7.70442 h 3.480786 v 7.70442 q 0,0.8702 0.169794,1.6555 0.169794,0.7853 0.551832,1.4008 0.382037,0.61551 0.976318,0.97632 0.615504,0.36082 1.506925,0.36082 z"
         style="font-weight:800;font-size:21.2243px;line-height:1.25;font-family:Raleway;-inkscape-font-specification:'Raleway Ultra-Bold';fill:#ffffff;stroke-width:0.530607"
         id="path5723" /><path
         d="m 71.290325,149.4571 v 3.0563 H 60.699399 v -15.06926 h 10.399907 v 3.0563 h -6.919122 v 2.92896 h 5.942804 v 2.82283 h -5.942804 v 3.20487 z"
         style="font-weight:800;font-size:21.2243px;line-height:1.25;font-family:Raleway;-inkscape-font-specification:'Raleway Ultra-Bold';fill:#ffffff;stroke-width:0.530607"
         id="path5725" /><path
         d="m 90.816655,148.65057 q 0,0.97632 -0.403261,1.69795 -0.403262,0.72162 -1.103664,1.20978 -0.700402,0.46694 -1.634271,0.72163 -0.933869,0.23347 -1.97386,0.23347 h -7.343608 v -15.06926 h 8.383599 q 0.785299,0 1.422028,0.33959 0.636729,0.33959 1.082439,0.89142 0.44571,0.53061 0.679178,1.23101 0.254691,0.67918 0.254691,1.40081 0,1.08244 -0.551831,2.03753 -0.530608,0.95509 -1.613047,1.44325 1.294682,0.38204 2.037533,1.35836 0.764074,0.97631 0.764074,2.50446 z m -3.544458,-0.7004 q 0,-0.7004 -0.403261,-1.18856 -0.403262,-0.48816 -1.018767,-0.48816 h -4.011393 v 3.28977 h 3.862823 q 0.679178,0 1.124888,-0.44571 0.44571,-0.44571 0.44571,-1.16734 z m -5.433421,-7.53462 v 3.11997 h 3.417113 q 0.573056,0 1.018766,-0.38204 0.44571,-0.38204 0.44571,-1.18856 0,-0.74285 -0.403261,-1.14611 -0.382038,-0.40326 -0.933869,-0.40326 z"
         style="font-weight:800;font-size:21.2243px;line-height:1.25;font-family:Raleway;-inkscape-font-specification:'Raleway Ultra-Bold';fill:#ffffff;stroke-width:0.530607"
         id="path5727" /><path
         d="m 103.4663,149.4571 v 3.0563 H 92.875371 v -15.06926 h 10.399909 v 3.0563 h -6.919124 v 2.92896 h 5.942804 v 2.82283 h -5.942804 v 3.20487 z"
         style="font-weight:800;font-size:21.2243px;line-height:1.25;font-family:Raleway;-inkscape-font-specification:'Raleway Ultra-Bold';fill:#ffffff;stroke-width:0.530607"
         id="path5729" /><path
         d="m 105.58871,152.5134 v -15.06926 h 6.79178 q 1.06121,0 1.95263,0.44571 0.91265,0.44571 1.5706,1.16734 0.65795,0.72163 1.01877,1.63427 0.38204,0.91265 0.38204,1.84652 0,0.7004 -0.1698,1.35835 -0.16979,0.63673 -0.48816,1.20979 -0.31836,0.57305 -0.7853,1.03999 -0.44571,0.44571 -1.01876,0.76407 l 3.31099,5.60322 h -3.9265 l -2.8865,-4.86037 h -2.271 v 4.86037 z m 3.48079,-7.89544 h 3.18364 q 0.61551,0 1.06122,-0.57306 0.44571,-0.59428 0.44571,-1.50692 0,-0.93387 -0.50939,-1.4857 -0.50938,-0.55184 -1.10366,-0.55184 h -3.07752 z"
         style="font-weight:800;font-size:21.2243px;line-height:1.25;font-family:Raleway;-inkscape-font-specification:'Raleway Ultra-Bold';fill:#ffffff;stroke-width:0.530607"
         id="path5731" /><path
         d="m 130.39988,149.4571 v 3.0563 h -10.59093 v -15.06926 h 10.39991 v 3.0563 h -6.91913 v 2.92896 h 5.94281 v 2.82283 h -5.94281 v 3.20487 z"
         style="font-weight:800;font-size:21.2243px;line-height:1.25;font-family:Raleway;-inkscape-font-specification:'Raleway Ultra-Bold';fill:#ffffff;stroke-width:0.530607"
         id="path5733" /><path
         d="m 131.3337,144.85142 q 0,-1.35835 0.50938,-2.69548 0.50938,-1.35836 1.4857,-2.41957 0.97632,-1.06122 2.37712,-1.71917 1.40081,-0.65795 3.18365,-0.65795 2.12243,0 3.6718,0.91264 1.5706,0.91265 2.33467,2.37712 l -2.67426,1.86774 q -0.25469,-0.59428 -0.65795,-0.97632 -0.38204,-0.40326 -0.84897,-0.63673 -0.46694,-0.25469 -0.9551,-0.33958 -0.48816,-0.10613 -0.95509,-0.10613 -0.99754,0 -1.74039,0.40327 -0.74285,0.40326 -1.23101,1.03999 -0.48816,0.63673 -0.72163,1.44325 -0.23347,0.80652 -0.23347,1.63427 0,0.89142 0.27592,1.71917 0.27592,0.82775 0.7853,1.46448 0.53061,0.63672 1.25223,1.01876 0.74285,0.36082 1.6555,0.36082 0.46693,0 0.95509,-0.10613 0.50939,-0.12734 0.9551,-0.36081 0.46693,-0.25469 0.84897,-0.63673 0.38204,-0.40326 0.6155,-0.97632 l 2.84406,1.67672 q -0.33959,0.82775 -1.01877,1.4857 -0.65795,0.65796 -1.52815,1.10367 -0.87019,0.44571 -1.84651,0.67918 -0.97632,0.23346 -1.91019,0.23346 -1.63427,0 -3.01385,-0.65795 -1.35835,-0.67918 -2.3559,-1.78284 -0.97631,-1.10367 -1.52815,-2.50447 -0.5306,-1.4008 -0.5306,-2.84406 z"
         style="font-weight:800;font-size:21.2243px;line-height:1.25;font-family:Raleway;-inkscape-font-specification:'Raleway Ultra-Bold';fill:#ffffff;stroke-width:0.530607"
         id="path5735" /><path
         d="m 159.77425,137.44414 v 15.06926 h -3.48078 v -6.17627 h -6.00648 v 6.17627 h -3.48079 v -15.06926 h 3.48079 v 5.83669 h 6.00648 v -5.83669 z"
         style="font-weight:800;font-size:21.2243px;line-height:1.25;font-family:Raleway;-inkscape-font-specification:'Raleway Ultra-Bold';fill:#ffffff;stroke-width:0.530607"
         id="path5737" /><path
         d="m 166.14154,143.89633 v 8.61707 h -3.48078 v -15.06926 h 2.71671 l 7.02524,8.85054 v -8.85054 h 3.48079 v 15.06926 h -2.80161 z"
         style="font-weight:800;font-size:21.2243px;line-height:1.25;font-family:Raleway;-inkscape-font-specification:'Raleway Ultra-Bold';fill:#ffffff;stroke-width:0.530607"
         id="path5739" /><path
         d="m 185.24339,149.542 q 0.89142,0 1.50693,-0.36082 0.6155,-0.38204 0.99754,-0.99754 0.38203,-0.6155 0.5306,-1.4008 0.1698,-0.80653 0.1698,-1.63428 v -7.70442 h 3.48078 v 7.70442 q 0,1.5706 -0.40326,2.92896 -0.38203,1.35835 -1.20978,2.37712 -0.80653,1.01877 -2.07998,1.61305 -1.25224,0.57305 -2.99263,0.57305 -1.80407,0 -3.07752,-0.6155 -1.27346,-0.61551 -2.07998,-1.63427 -0.7853,-1.03999 -1.16734,-2.39835 -0.36081,-1.35835 -0.36081,-2.84406 v -7.70442 h 3.48078 v 7.70442 q 0,0.8702 0.1698,1.6555 0.16979,0.7853 0.55183,1.4008 0.38203,0.61551 0.97631,0.97632 0.61551,0.36082 1.50693,0.36082 z"
         style="font-weight:800;font-size:21.2243px;line-height:1.25;font-family:Raleway;-inkscape-font-specification:'Raleway Ultra-Bold';fill:#ffffff;stroke-width:0.530607"
         id="path5741" /><path
         d="m 198.1053,143.89633 v 8.61707 h -3.48078 v -15.06926 h 2.71671 l 7.02524,8.85054 v -8.85054 h 3.48079 v 15.06926 h -2.80161 z"
         style="font-weight:800;font-size:21.2243px;line-height:1.25;font-family:Raleway;-inkscape-font-specification:'Raleway Ultra-Bold';fill:#ffffff;stroke-width:0.530607"
         id="path5743" /><path
         d="m 221.0912,151.0277 q -1.71917,1.59182 -3.96895,1.59182 -1.4857,0 -2.8016,-0.55183 -1.31591,-0.57306 -2.31345,-1.59183 -0.97632,-1.01876 -1.54938,-2.44079 -0.57305,-1.44325 -0.57305,-3.16242 0,-1.54937 0.57305,-2.92895 0.57306,-1.37958 1.5706,-2.39835 1.01877,-1.01877 2.39835,-1.61305 1.37958,-0.59428 2.9714,-0.59428 2.1012,0 3.6718,0.89142 1.5706,0.8702 2.3559,2.39835 l -2.58936,1.95263 q -0.50939,-1.01876 -1.48571,-1.57059 -0.95509,-0.57306 -2.07998,-0.57306 -0.87019,0 -1.59182,0.36081 -0.7004,0.33959 -1.20978,0.97632 -0.50939,0.61551 -0.7853,1.44325 -0.27592,0.82775 -0.27592,1.78284 0,0.97632 0.29714,1.80407 0.29714,0.82775 0.82775,1.44325 0.53061,0.59428 1.25223,0.93387 0.74285,0.33959 1.63427,0.33959 2.03754,0 3.67181,-1.88896 v -0.46694 h -2.92896 v -2.52569 h 5.81546 v 7.87422 h -2.8865 z"
         style="font-weight:800;font-size:21.2243px;line-height:1.25;font-family:Raleway;-inkscape-font-specification:'Raleway Ultra-Bold';fill:#ffffff;stroke-width:0.530607"
         id="path5745" /></g>

</svg>
