<svg xmlns="http://www.w3.org/2000/svg" width="24" height="24">
  <path d="M14 20c-4 1-7-1-7-3 3-1 6 0 7 3z" fill="#fff"/>
  <path d="M10 6c-3 0-6 1-8 6 2 5 5 6 8 6 4 0 7-3 7-6s-3-6-7-6zM5 9a1 1 0 011 1 1 1 0 01-1 1 1 1 0 01-1-1 1 1 0 011-1zM22 7c-3 0-5 2-5 5s2 5 5 5c0-3-1-5-3-5 2 0 3-2 3-5z" fill="#fff"/>
  <path d="M14 4c-4-1-7 1-7 3 3 1 6 0 7-3z" fill="#fff"/>
  <g transform="translate(26)">
    <rect width="24" height="24" x="-26" ry="0" fill="#00d400"/>
    <circle cx="-14" cy="12" r="10" fill="#fff"/>
    <circle cx="-14" cy="12" r="8" fill="#5df"/>
    <path d="M-21 15a8 8 0 007 5 8 8 0 007-5z" fill="#784421"/>
    <path d="M-8 8c-4 0-7 1-7 6 4 0 7-1 7-6z" fill="green"/>
    <path fill="#0a0" d="M-15 14h1v5h-1zM-20 9c3 0 6 1 6 5-4 0-6-2-6-5z"/>
  </g>
</svg>
