<svg xmlns="http://www.w3.org/2000/svg" width="24" height="24"><rect style="fill:#b3b3b3;stroke:none;fill-opacity:1" width="24" height="24" ry="5"/><path style="fill:#fff;stroke-width:.4286" d="M16 12s-3 3-3 6a3 3 0 0 0 6 0c0-3-3-6-3-6Zm-2 3c-1 2 0 5 1 5-2-1-2-3-1-5z"/><path style="fill:#fff;fill-opacity:1;stroke:none;stroke-width:1.25px;stroke-linecap:butt;stroke-linejoin:miter;stroke-opacity:1" d="M7 22c0-5 1-12 5-16h1c-4 4-4 11-4 16Z"/><path style="fill:#fff;stroke:none;stroke-width:1.25px;stroke-linecap:butt;stroke-linejoin:miter;stroke-opacity:1" d="m4 12 9-6c-6 0-9 1-9 6Z"/><path style="fill:#fff;stroke:none;stroke-width:1.25px;stroke-linecap:butt;stroke-linejoin:miter;stroke-opacity:1" d="m20 5-8 2c-1-4 4-6 8-2Z"/><path style="fill:#fff;stroke:none;stroke-width:1.31193px;stroke-linecap:butt;stroke-linejoin:miter;stroke-opacity:1" d="m4 3 9 4c0-4-4-6-9-4z"/><path style="fill:#fff;stroke:none;stroke-width:1.31193px;stroke-linecap:butt;stroke-linejoin:miter;stroke-opacity:1" d="m14 13-3-7c4 0 5 3 3 7Z"/><path style="fill:#fff;stroke:none;stroke-width:1.25px;stroke-linecap:butt;stroke-linejoin:miter;stroke-opacity:1" d="m19 12-8-5c2-4 8-1 8 5Z"/></svg>