<svg xmlns="http://www.w3.org/2000/svg" viewBox="0 0 24 24" class="icon" aria-hidden="true" focusable="false"><path d="M0 0h24v24H0z" fill="none"/><path d="M15.308 12.13s-2.442 2.703-2.442 4.535a2.444 2.444 0 0 0 2.442 2.441 2.444 2.444 0 0 0 2.442-2.441c0-1.832-2.442-4.536-2.442-4.536zM14 14.745c-.872 1.744 0 3.488.872 3.924-1.785-.542-2.18-2.18-.872-3.924zM8 20c0-4 1-10 4-12.453l1-.015C10 10 10 16 10 20z"/><path d="m6 12 7-5c-5 0-7 1-7 5z"/><path d="m19 6-7 1.633c-.776-2.898 4.033-4.98 7-1.633z"/><path d="m6 5 6.614 3c0-3.547-3.133-4.797-6.614-3z"/><path d="M13.547 13 11 7c3.547 0 4.343 2.52 2.547 6z"/><path d="m18 12-6.702-4.392c1.5-2.599 6.97-.072 6.702 4.392z"/></svg>