<svg xmlns="http://www.w3.org/2000/svg" height="100" width="100"><path d="M33.852 12.075a3.099 3.099 0 00-3.106 3.105v2.207h38.508V15.18a3.099 3.099 0 00-3.106-3.105zm-3.183 5.96c-.645 0-1.165.52-1.165 1.165s.52 1.164 1.165 1.164h39.128c.645 0 1.165-.52 1.165-1.164 0-.646-.52-1.165-1.165-1.165H30.746zm.518 2.703a.44.44 0 100 .882h37.626a.44.44 0 100-.882zm-.868 1.334a.813.813 0 00-.815.815c0 .452.364.815.815.815h39.75a.813.813 0 00.815-.815.813.813 0 00-.815-.815zm.427 2.3v1.674a14.308 14.308 0 00-8.524 13.118v39.173c0 9.011 7.117 13.874 27.778 13.874 20.834-.016 27.778-4.834 27.778-13.874V39.164a14.308 14.308 0 00-8.524-13.118v-1.674z" fill="#fff"/></svg>