<svg width="500" height="500" xmlns="http://www.w3.org/2000/svg"><g fill="#004d55"><path d="M250 473a223 223 0 1 1 1-446 223 223 0 0 1-1 446m250-223c0-7-12-14-13-21s10-15 9-22-14-12-16-19 7-17 5-24c-2-6-16-8-19-15-3-6 4-18 1-24-4-6-18-6-22-12-4-5 1-18-3-24-5-5-19-2-24-7s-2-19-7-24c-6-4-19 1-24-3-6-4-6-18-12-22-6-3-18 4-24 1-7-3-9-17-15-19-7-2-17 7-24 5S300 5 293 4s-15 10-22 9-14-13-21-13-14 12-21 13-15-10-22-9-12 14-19 16-17-7-24-5c-6 2-8 16-15 19-6 3-18-4-24-1-6 4-6 18-12 22-5 4-18-1-24 3-5 5-2 19-7 24s-19 2-24 7c-4 6 1 19-3 24-4 6-18 6-22 12-3 6 4 18 1 24-3 7-17 9-19 15-2 7 7 17 5 24S5 200 4 207s9 15 9 22c-1 7-13 14-13 21s12 14 13 21c0 7-10 15-9 22s14 12 16 19-7 17-5 24c2 6 16 8 19 15 3 6-4 18-1 24 4 6 18 6 22 12 4 5-1 18 3 24 5 5 19 2 24 7s2 19 7 24c6 4 19-1 24 3 6 4 6 18 12 22 6 3 18-4 24-1 7 3 9 17 15 19 7 2 17-7 24-5s12 15 19 16 15-10 22-9 14 13 21 13 14-12 21-13 15 10 22 9 12-14 19-16 17 7 24 5c6-2 8-16 15-19 6-3 18 4 24 1 6-4 6-18 12-22 5-4 18 1 24-3 5-5 2-19 7-24s19-2 23-7c5-6 0-19 4-24 4-6 18-6 22-12 3-6-4-18-1-24 3-7 17-9 19-15 2-7-7-17-5-24s15-12 16-19-10-15-9-22 13-14 13-21"/><path d="M434 278c-3 0-5 1-7 3l6-3a10 10 0 0 1 7 16 10 10 0 0 0-6-16M75 288c0 2-1 5-3 6a10 10 0 0 0-6-16c-3 0-5 1-7 3 2-2 4-3 7-3 5 0 9 4 9 10M202 172c-4-4-10-4-13 0l-3 6v1a83 83 0 0 1-7 30c-1 3-5 4-8 3-1-1-3-3-3-5a42 42 0 0 1 1-18c0-3-1-5-3-8a9 9 0 0 0-14 1l-2 5c-1 3 0 5 2 8h1l1 1a41 41 0 0 1 11 31l21-17c4-9 9-17 16-24 4-4 4-10 0-14M230 164c-5 5-7 10-2 13l7 4 27-12c-8-1-15-2-14-4 1-7 13-18 26-18 6-1 11 1 15 3h3c5 0 8-4 8-8 0-5-4-8-9-8l-3 1c-4 2-10 5-14 5s-6-4-2-9c10-11 16-12 20-14l2-2c4-3 4-8 1-12-3-3-8-3-12 0l-1 3c-2 4-4 11-14 21-4 3-9 1-9-4 1-7 4-11 6-14l2-4c0-4-3-8-7-9s-8 2-9 7v3c1 5 3 8 2 16s-7 25-23 42M334 195c3-1 5-7 5-14-1-7-4-12-8-12-4 1-6 6-5 14 0 7 4 12 8 12"/><path d="M330 166c8 0 15 7 15 16s-7 16-15 16-16-7-16-16 7-16 16-16M225 364c12 9 16 17 18 21l3 2c4 4 9 3 12-1 3-5 2-10-2-13l-3-2c-4-1-12-2-24-12-6-5-4-9 0-10 5-1 12 1 17 2l4 1c5 0 9-4 8-9 0-6-4-10-9-9l-3 1c-9 4-14 8-29 8-7-1-17-4-23-7 26-5 48-13 58-19 5-3 7-6 7-11 0-3-3-7-7-11a109 109 0 0 0-68-26l2-1c20-2 49 5 61 14 7-3 13-10 18-17 6-10 8-17 10-25l1-1 1 1c1 12-2 21-3 30l1 10c2 3 5 4 9 4 15-1 35 3 46 10 7 4 7 7 10 11l2 3c4 2 9 1 11-3s1-9-2-11l-3-1c-5-1-10 0-15-5-3-3-2-8 3-9 14-1 20 1 24 3h3c5 0 8-4 7-9 0-4-4-8-8-7l-3 1c-4 1-9 5-23 6-6 0-8-4-6-7 3-4 9-6 13-8l3-2c3-4 3-9 0-12s-8-3-11 0l-2 3c-1 4-3 10-7 14-10 10-28 13-31 9-5-7 10-34 17-41 38-12 58-30 68-38 5-4 7-7 6-11 0-4-2-7-5-10l-5-3a63 63 0 0 0-12-6l-3-2h-2l-1-1-1-3c-1-5-5-10-10-12s-11-2-16 1a19 19 0 0 0-8 12h17v1l-16 1c-96 13-201 98-195 130 1 9 15 17 47 21 11 1 29 0 39-3l5-1c2 0 3 0 3 2 1 1 0 2-2 3h-7c-12 1-44 9-57 14-6 3-10 6-9 10 0 3 4 6 16 8 15 3 39 9 45 30 3 9 1 12 1 17v4c1 5 6 8 11 7 5-2 7-7 6-12l-2-3c-3-4-7-8-9-15-1-5 4-9 9-6"/><path d="M234 106a5 5 0 1 0 0-9h-1a154 154 0 0 0-43 295l2 1h2a5 5 0 0 0 2-9l-2-1a144 144 0 0 1 40-277zM404 250c0-17-2-34-8-50a5 5 0 0 0-9 3 144 144 0 0 1-116 190l-3 1a5 5 0 1 0 1 9h4c75-11 131-77 131-153M424 288c0-3 1-5 3-7-2 2-3 4-3 7a10 10 0 0 0 16 6c-1 2-4 3-6 3-6 0-10-4-10-9"/><path d="m433 278-6 3c-2 2-3 4-3 7a10 10 0 0 0 16 6c2-1 3-4 3-6 0-6-4-10-10-10M66 297c2 0 5-1 6-3a10 10 0 0 1-16-6c0-3 1-5 3-7-2 2-3 4-3 7 0 5 4 9 10 9"/><path d="M66 297c2 0 5-1 6-3 2-1 3-4 3-6a10 10 0 0 0-16-7c-2 2-3 4-3 7 0 5 4 9 10 9M80 320l3-1h2l1 4v1l-2 2h-1l-2-1-1-3v-2m3 15 5-1c6-3 9-9 6-16l-5-10h-1l-30 13h-1v1l3 6v1h1l9-4h2l1 2c2 5 5 8 10 8M101 360v-1l-6-9v-1l1-1 1-1h2l7 12h2l6-4v-1l-12-19h-2l-27 18-1 1 1 1 12 18h1l6-4v-1l-7-11v-2l2-1h2l6 9v1h1l5-4M123 389c-1 2-4 3-6 3l-6-2c-3-4-3-9 0-13l6-3c3 0 5 1 6 3a9 9 0 0 1 0 12m12-6c0-5-2-9-5-12-4-4-8-6-12-6-5 0-9 2-13 6s-6 8-6 13c0 4 2 9 6 12 3 3 7 5 12 5 4 0 9-2 13-6 3-3 5-8 5-12M153 404l-2 1h-1l-3-2-1-1v-1l2-2 1-1 1 1 2 1c2 1 2 3 1 4m7 5c4-6 3-12-3-16l-10-6h-1l-18 28v1l6 4 1-1 6-8 1-1 2 2 8 2c3 0 6-2 8-5M180 405l-7-2v-1l-1 1-14 30 1 1 12 6 1-1 3-7v-1l-4-2v-2l9-20v-2M215 417l-21-6h-1l-1 1-8 32v1l21 6h1l1-1 1-7c1 0 1 0 0 0v-1l-13-3-1-1v-3l2-1 11 3h1l1-6v-1l-11-3-1-1v-1l1-2 1-1 13 4h1l1-1 1-7c1 0 1 0 0 0v-1M249 433h-3l-1-3c0-1 1-2 3-2l2 2-1 3m-3 16-2-3 1-2h1l2 2 1 1-3 2m14-1v-2l5-5v-1l-3-4-1-1-1 1-4 4-2 1h-1v-1l-1-1 1-1c3-2 5-5 5-8 0-6-4-10-10-10-8 0-11 5-11 10 0 3 1 5 3 7l-1 2c-3 2-4 5-4 8 0 6 5 9 9 9s6-1 9-3h2l1 1 2 1h8v-1l-6-6zM310 411h-1l-6 1-1 1 4 15-1 1-17-11-1-1h-1l-4 1v1l8 32 1 1h1l6-2v-1l-4-14 1-1h1l17 11h2l4-1v-1zM341 419v1l-3 1h-1l-1-1-1-4 1-2 1 1 4 3v1m-7-19h-2l-6 3v2l4 34v1h1l7-4v-5l1-2 7-4h1l2 1 2 2h2l6-3 1-1-1-1zM362 393v-2l4-3v-1l-5-6h-1l-15 11v1l4 6 1 1 4-3h2l14 19h1l5-4v-1zM397 373l-14-13-1-1-1 1-4 4v2l14 13 2 4-1 3-2 1-4-2-15-14h-1l-4 5-1 1h1l14 14c4 3 7 5 11 5 3 0 5-1 8-4s4-6 4-9l-6-10M403 353l-1 1h-1l-2-2-1-1 1-1 2-2 2 1 1 2-1 2m23 0-14-4-1-1c0-2-1-4-4-6l-7-2c-3 0-6 2-9 6l-4 6v1l28 19 1-1 4-5v-1h-1l-9-6-1-1 1-1h1l10 4h1l2-1 3-5v-1l-1-1M442 321l-6-3h-1l-1 1-5 12-1 1h-1l-1-1c-1 0-2-1-1-2l4-10v-1l-6-2v-1l-1 1-4 10-1 1h-1l-2-1-1-1 1-1 5-12v-1l-7-3h-1l-9 20v2l31 13h1l9-21-1-1M57 252h-3l-1-2c0-2 1-3 3-3l2 1v2l-1 2m22 6v-7H67l-1-1 1-1 11-3 1-1v-7h-1l-14 4h-2c-1-2-3-3-7-3-7 0-11 5-11 12v7l1 1h33l1-1M64 212l5-1h1v1l-1 3-1 2-1-1-4-2v-2h1m-15 2 29 19h1v-1l2-7-1-1-3-2-1-3 2-7 2-2 3-1 1-1 2-7-1-1-34 6-2 1-1 6 1 1M57 181l31 12h1v-1l3-6v-1l-1-1-31-11v-1l-1 1-2 7v1M66 158l29 17h1l3-6v-1l-13-7v-1l1-1 19-4 2-1 2-3v-1l-29-17h-1l-3 6v1l13 7v1l-1 1-19 4-2 1-2 3v1M116 142l1 1v-1l5-5-1-1-8-7v-2l4-4v-2l-5-4h-1l-4 4-1 1h-1l-1-1-1-1 1-1 4-6h1l-1-1-5-5h-1l-11 12v1zM126 100c1-3 2-5 4-6 1-2 3-2 5-2 3 0 5 1 7 3 3 4 3 10-1 13l-6 1c-2 0-5-1-7-3l-2-6m10 19c3 0 7-2 10-4 8-6 9-17 3-25-4-5-9-7-14-7-4 0-7 1-11 3-4 3-6 8-6 12-1 5 0 9 3 13 4 5 9 8 15 8M162 74l1-1h1l3 1c0 2 0 3-2 4h-1l-1-1-1-2v-1m4 26h1l6-3v-1l-5-10v-1h2l7 9 1 1 1-1 6-2 1-1-1-1-10-11v-1l-1-8c-2-4-5-6-9-6l-7 2-6 3-1 1zM193 88h1l21-6 1-1-2-7h-1l-13 3h-1l-1-1-1-1 1-2 11-3v-1l-1-6h-1l-11 3-1-1-1-2 1-2 13-4h1v-1l-2-7h-1l-22 6v1zM233 67c1 0 2 0 2 2 0 1 0 2-2 2-1 0-2 0-2-2l-1-1a9372 9372 0 0 0-7 2c0 7 4 10 10 10h1c7 0 10-5 10-12-1-6-5-10-11-10-2 0-3 0-4-2l1-2h2c1 0 2 0 2 2l1 1a9402 9402 0 0 0 7-2c-1-7-4-10-10-10h-1c-3 0-6 1-8 3l-2 9c1 7 4 10 12 10M253 53l4 1h1l1 1-2 23v1h1l6 1 1-1 2-23 1-2a8315 8315 0 0 1 5 0l1-8h-1v-1l-19-1-1 1v8M309 74l2-4h2l1 1v5l-1 1h-1l-3-1-1-1 1-1m-18 9 7 3h1l1-1 2-2 2-1h1l6 3c2 0 2 1 2 2v3l1 1 7 3h1v-1l-1-34-1-2-5-2h-1l-1 1-22 26-1 1h1M327 98l12 6h1l4-8v-1l-4-2v-2l11-19-1-1-6-4-1 1-16 28v2M347 109l10 8h2l5-7v-1h-1l-3-2v-2l13-18 1-1-1-1-5-4h-2l-19 27v1M364 123h1l5 5 1 1v-1l23-24v-1l-5-5h-2l-22 24-1 1M396 135l4-1h2v2l-3 4h-2l-2-3v-1l1-1m-20-2 4 6 1 1h1l3-1h1l2 1 4 6v3l-1 2v2l4 6h2l18-30v-2l-4-4-1-1h-1l-33 10v1M399 165v1l3 6h1l13-6h1l1 1v1l-8 17-1 1v2l2 4h1l30-14h1v-1l-3-6h-1l-13 6h-2v-1l8-18 1-1v-2l-2-3-1-1-30 14h-1M430 194c-5 1-9 4-11 7-3 4-4 9-3 14a16 16 0 0 0 13 13l1-1 2-6-1-2c-3-1-5-3-6-6a9 9 0 0 1 7-11h2c4 0 8 3 9 7 0 3 0 6-3 8v2l4 5h2c5-4 7-10 5-17-1-8-8-14-16-14l-5 1M421 236v22l1 1h7l1-1v-13l1-2h2l1 2v11l1 1 6-1h1v-11l1-2h2l2 2v13l1 1h7l1-1-1-22-1-1h-33v1"/></g><path d="M321 301v16h-3v-11l-5 11h-3l-5-11v11h-3v-16h5l5 12 5-12zm-34 0h13v3h-4v13h-4v-13h-5z" fill="#004c55"/></svg>