<svg xmlns="http://www.w3.org/2000/svg" width="24" height="24"><rect width="24" height="24" ry="5" fill="#b3b3b3"/><path d="M7 3S5.293 6.879 6 9c1 3 5 5 5 5v6l-4 1v1h9v-1l-4-1v-6s4-2 5-5c.641-1.924-1-6-1-6z" fill="#fff"/><g fill="#fff" font-weight="400" font-size="6.804" font-family="Open Sans"><path d="M15.617 17.875q0 .64-.465 1-.465.358-1.263.358-.864 0-1.329-.222v-.545q.3.126.652.2.352.072.697.072.565 0 .85-.212.286-.216.286-.598 0-.253-.103-.412-.1-.163-.338-.3-.236-.136-.721-.308-.678-.243-.97-.575-.29-.332-.29-.867 0-.562.422-.894.422-.332 1.117-.332.724 0 1.332.266l-.176.491q-.602-.252-1.17-.252-.448 0-.7.193-.253.192-.253.535 0 .252.093.415.093.16.312.295.223.133.678.296.764.273 1.05.585.289.312.289.81zM20.43 16.732q0 1.166-.59 1.834-.589.667-1.638.667-1.074 0-1.658-.654-.582-.658-.582-1.854 0-1.186.585-1.837.585-.655 1.661-.655 1.047 0 1.635.665.588.664.588 1.834zm-3.87 0q0 .986.419 1.498.422.508 1.223.508.807 0 1.219-.508.412-.508.412-1.498 0-.98-.412-1.485-.409-.509-1.213-.509-.807 0-1.229.512-.419.508-.419 1.482zM22 20.26h-1.62v-.241l.649-.653q.297-.3.391-.428.094-.128.142-.25.047-.12.047-.26 0-.198-.12-.313-.12-.116-.332-.116-.153 0-.292.05-.136.051-.305.184l-.148-.19q.34-.283.742-.283.347 0 .544.178.197.177.197.477 0 .235-.131.464-.131.23-.492.58l-.54.528V20H22z" style="line-height:1.25;-inkscape-font-specification:'Open Sans'"/></g></svg>