<svg xmlns="http://www.w3.org/2000/svg" width="90" height="90"><path d="M89.818 47.922c.916 8.265-1.71 14.15-6.034 17.734-4.424 3.677-11.243 4.89-19.406 4.353-7.372-.485-14.353-1.96-21.2-2.86-7.287-.948-16.31-1.41-18.733 4.138-1.29 2.95-.175 7.404.676 10.187.676 2.167 1.643 4.404 2.644 6.394.134.29 1.095 1.8.592 2.084-.513.302-1.185-.998-1.45-1.36-1.23-1.663-2.616-3.546-3.694-5.113-4.82-6.986-9.384-14.275-13.208-21.915-2.546-5.08-5.053-10.583-6.962-16.453C1.168 39.376-.593 32.467.192 24.817c.366-3.598 1.36-6.447 2.756-8.957 1.388-2.463 3.4-4.453 6.033-5.665 5.39-2.48 13.705-2.103 20.865-1.454 6.928.635 14.205 2.033 21.75 1.37 6.94-.613 11.012-3.446 13.12-8.823.183-.473.288-1.173.678-1.286h.087c.578.402.976 1.037 1.4 1.584C73.496 10.11 79.32 19.23 84.128 29.5c2.51 5.372 4.917 11.398 5.69 18.422" fill="#9C0535"/><path d="M80.692 61.94c-2.678 2.226-6.97 3.356-12.76 3.356-1.05 0-2.13-.037-3.24-.11-4.602-.304-9.176-1.033-13.607-1.734-2.45-.396-4.87-.776-7.285-1.096-3.247-.425-5.86-.62-8.23-.62-8.113 0-13.347 2.565-15.554 7.616l-.08.19c-2.115-3.506-3.955-6.84-5.612-10.142-1.9-3.808-4.67-9.586-6.687-15.788-1.7-5.2-3.338-11.44-2.634-18.303.266-2.666.958-4.918 2.164-7.08.942-1.68 2.233-2.904 3.835-3.644 2.152-.99 5.453-1.493 9.805-1.493 2.41 0 5.057.14 8.597.463 1.72.156 3.466.364 5.27.575 4.093.488 8.327.987 12.773.987 1.605 0 3.1-.063 4.566-.193 6.228-.55 10.828-2.655 14.02-6.43 5.51 7.56 10.003 15.113 13.716 23.054 2.198 4.708 4.543 10.398 5.266 16.905.653 5.936-.84 10.597-4.324 13.488m.81-31.212c-3.94-8.42-8.74-16.403-14.67-24.408l-.786-1.06-.775 1.068c-2.854 3.943-7.244 6.125-13.424 6.67-1.413.125-2.85.186-4.4.186-4.33 0-8.504-.494-12.582-.976-1.788-.21-3.55-.42-5.29-.58-3.595-.323-6.3-.47-8.767-.47-4.635 0-8.206.563-10.612 1.672-1.986.913-3.57 2.41-4.718 4.454-1.336 2.405-2.1 4.894-2.398 7.828-.74 7.22.958 13.71 2.72 19.1 2.055 6.325 4.866 12.19 6.794 16.05 1.97 3.93 4.085 8.085 6.623 12.376l2.96 5.197s-1.114-2.388-.872-4.983c.155-1.64.375-2.216.632-2.812 1.87-4.284 6.357-6.37 13.632-6.37 2.284 0 4.824.192 7.98.603 2.392.315 4.8.7 7.24 1.085 4.466.712 9.083 1.45 13.778 1.757 1.148.072 2.27.113 3.364.113 6.25 0 10.96-1.278 13.998-3.802 4.008-3.323 5.736-8.574 5.006-15.183-.75-6.79-3.167-12.663-5.434-17.515" fill="#FFF"/><path d="M24.058 42.18c4.214 0 7.73-2.052 7.73-8.323v-11.53h-4.555v11.866c0 2.138-.704 3.91-3.175 3.91-2.473 0-3.265-1.772-3.265-3.91V22.327h-4.555l-.03 11.53c-.027 6.27 3.6 8.323 7.85 8.323M32.98 25.927h6.443V42.01h4.556V25.928h6.195v-3.6H32.98v3.6zM66.564 38.41h-9.477l9.477-12.483v-3.6H51.38v3.6h9.645L51.38 38.41v3.6h15.184v-3.6zM21.38 53.74c-1.607 0-3.15-1.05-3.15-3.87 0-2.78 1.252-3.935 2.842-3.935 2.268 0 2.362 2.267 2.362 2.267l1.66-.262c0-.463-.32-3.598-4.053-3.598-2.792 0-4.675 1.823-4.675 5.527 0 3.716 2.066 5.463 4.92 5.463 2.67 0 3.83-1.964 3.83-1.964l-1.035-1.093s-1 1.464-2.7 1.464M29.39 49.004c1.032 0 1.45.713 1.45 1.7h-3.086c.153-1.19.788-1.7 1.636-1.7m.355 4.954c-.83 0-1.91-.48-2.02-2.145h4.706v-.694c0-1.978-.802-3.412-2.948-3.412-2.253 0-3.44 1.373-3.44 3.81 0 2.61 1.575 3.816 3.472 3.816 2.206 0 2.994-1.484 2.994-1.484l-.866-.88s-.617.988-1.897.988M35.825 49.16v-.325c-.155-.743-.65-1.095-1.36-1.095-.475 0-.71.092-.71.092v1.202c.495 0 .632.232.632.62v5.586h1.67v-4.246c.01-.755.46-1.774 1.556-1.774.602 0 .895.218.895.218l.68-1.468s-.372-.26-1.097-.26c-1.405 0-2.053.724-2.265 1.45M44.126 53.834c-.913 0-1.315-.54-1.315-1.62V49.13h2.7v-1.326h-2.7V45.47h-1.663v2.332h-1.144v1.326h1.144v3.15c0 1.973.786 3.056 2.807 3.056 1.207 0 1.945-.79 1.945-.79l-.51-1.22s-.477.51-1.264.51M49.067 53.37V47.8H47.4v5.786c0 1.19.574 1.712 1.562 1.712.477 0 .74-.09.74-.09v-1.204c-.48 0-.635-.216-.635-.635M48.235 46.32c.603 0 1.08-.433 1.08-1.032 0-.59-.477-1.02-1.08-1.02-.603 0-1.065.43-1.065 1.02 0 .6.462 1.032 1.065 1.032M54.985 45.47c.817 0 1.17.464 1.17.464l.527-1.237s-.59-.722-1.867-.722c-1.883 0-2.728 1.19-2.728 2.914v.91h-1.083v1.328h1.083v6.112h1.665v-6.112h2.496V47.8h-2.496v-.85c0-.923.446-1.48 1.233-1.48M58.717 46.32c.603 0 1.08-.433 1.08-1.032 0-.59-.477-1.02-1.08-1.02-.6 0-1.063.43-1.063 1.02 0 .6.463 1.032 1.063 1.032M59.552 53.37V47.8h-1.67v5.786c0 1.19.576 1.712 1.562 1.712.477 0 .74-.09.74-.09v-1.204c-.477 0-.632-.216-.632-.635M64.828 49.004c1.035 0 1.454.713 1.454 1.7h-3.09c.156-1.19.788-1.7 1.636-1.7m.355 4.954c-.834 0-1.913-.48-2.02-2.145h4.706v-.694c0-1.978-.804-3.412-2.95-3.412-2.252 0-3.44 1.373-3.44 3.81 0 2.61 1.575 3.816 3.473 3.816 2.206 0 2.993-1.484 2.993-1.484l-.865-.88s-.612.988-1.897.988M74.37 52.384c0 .062-.278 1.45-1.68 1.45-.912 0-1.79-.696-1.79-2.3 0-1.574.786-2.33 1.774-2.33 1.264 0 1.678 1.066 1.697 1.328v1.852zm1.682.986v-9.333h-1.68v4.55s-.434-.878-1.946-.878c-1.635 0-3.18 1.077-3.18 3.84 0 2.638 1.532 3.783 2.995 3.783 1.652 0 2.177-1.05 2.332-1.33v.185c.137.79.62 1.11 1.355 1.11.48 0 .742-.09.742-.09v-1.205c-.478 0-.618-.216-.618-.633" fill="#FFF"/></svg>