<svg xmlns="http://www.w3.org/2000/svg" width="24" height="24"><rect style="fill:green;stroke:none" width="24" height="24" ry="5"/><path d="M0 0h24v24H0z" fill="none"/><path d="M7 22c-2 0-4-2-4-3 0-3 2-7 4-7s3 4 3 7l-3 3Z" style="fill:#fff;stroke-width:.5"/><path style="fill:#fff;stroke:none;stroke-width:.942809px;stroke-linecap:butt;stroke-linejoin:miter;stroke-opacity:1" d="M35 5c0 2-3 3-3 6v10l1 1h7l1-1V11l-2-6zm-2 6h1v10h-1z" transform="translate(-20)"/><path style="fill:#fff;fill-opacity:1;fill-rule:evenodd;stroke:none;stroke-width:.757234;stroke-opacity:1" d="M36 2h2l1 2h-4l1-2z" transform="translate(-20)"/><path d="M12 2S6 2 4 4C3 6 2 8 3 9c2-3 5-5 8-6-3 2-6 4-7 7h5c2-2 3-8 3-8Z" style="fill:#fff;stroke-width:.553725"/></svg>