<svg id="Layer_1" data-name="Layer 1" xmlns="http://www.w3.org/2000/svg" viewBox="0 0 400 300"><path d="M146.21,59.17c-38.59,9.07-69.08,37.73-78,74.57-6.65,27.42-.81,55.7,43.95,66C208.91,222,313.44,214.61,326,170.15S315.25,49.43,259.91,44.71C228.4,42,181.1,51,146.21,59.17Z" fill="#e6e6e6" opacity="0.3"/><ellipse cx="195.96" cy="236.41" rx="136.07" ry="16.06" fill="#e6e6e6" opacity="0.45"/><rect x="287.66" y="155.92" width="5.71" height="78.11" transform="translate(63.48 -71.24) rotate(15.67)" fill="#e6e6e6"/><path d="M306.52,161a4.76,4.76,0,0,1-1.28-.18L296,158.27a4.75,4.75,0,0,1-3.29-5.86l1.86-6.63a4.76,4.76,0,0,1,5.86-3.3l9.22,2.59a4.76,4.76,0,0,1,3.29,5.87l-1.86,6.63A4.77,4.77,0,0,1,306.52,161Zm-.48-3a1.79,1.79,0,0,0,2.21-1.24l1.86-6.63a1.79,1.79,0,0,0-1.24-2.22l-9.22-2.58a1.79,1.79,0,0,0-2.21,1.24l-1.86,6.63a1.79,1.79,0,0,0,1.24,2.21Z" fill="#c9c9c9"/><path d="M293.3,237l4.59-16.36L270.54,213l-4.8,17.1a14.11,14.11,0,0,0-.19,6.94Z" fill="#c9c9c9"/><rect x="151.17" y="105.94" width="13.98" height="132.92" fill="#aeadb0"/><rect x="226.72" y="105.94" width="13.98" height="132.92" fill="#aeadb0"/><rect x="151.17" y="105.94" width="13.98" height="132.92" opacity="0.08"/><rect x="226.72" y="105.94" width="13.98" height="132.92" opacity="0.08"/><rect x="134.62" y="122.44" width="122.69" height="43.28" fill="#aeadb0"/><polygon points="140.84 122.44 155.5 165.72 175.78 165.72 159.12 122.44 140.84 122.44" fill="#24285b"/><polygon points="178.39 122.44 193.05 165.72 213.33 165.72 196.66 122.44 178.39 122.44" fill="#24285b"/><polygon points="215.83 122.44 230.49 165.72 250.77 165.72 234.1 122.44 215.83 122.44" fill="#24285b"/><rect x="134.62" y="182.11" width="122.69" height="20.29" fill="#aeadb0"/><path d="M102,230.42,114.26,174a2.52,2.52,0,0,1,4.91,0l13.38,57.36Z" fill="#aeadb0"/><rect x="97.85" y="224.98" width="38.46" height="9.45" rx="4.42" fill="#aeadb0"/><rect x="97.85" y="224.98" width="38.46" height="9.45" rx="4.42" fill="#fff" opacity="0.46"/><polygon points="109.7 194.94 122.83 189.68 126.66 206.1 106.02 211.81 109.7 194.94" opacity="0.08"/><path d="M104.3,235.34s5.59-8-2.75-10.26,2-13.05-5.76-14.48-6.47,10-6.47,10S84,216,80.26,219.9,81.74,228,81.74,228s-7.47,2.58-2.81,7.3Z" fill="#e6e6e6"/><path d="M93.08,236.41s3.55-6.08,8.79-5.33,4.67,5.33,4.67,5.33Z" fill="#c9c9c9"/><path d="M223.16,121.86l42,21.25a1.84,1.84,0,0,0,2.54-2.3l-.89-2.27a11,11,0,0,1,0-8c2.69-7,6.67-22-4.5-30.39-14.3-10.77-36.4-9.73-41.6,16.71A4.54,4.54,0,0,0,223.16,121.86Z" fill="#ffd200"/><polygon points="224.31 122.44 257.3 154.28 257.3 139.12 224.31 122.44" opacity="0.08"/><path d="M229.19,106.2c2.55-3.57,7.7-8.88,15.82-9.1a1.44,1.44,0,0,1,.77,2.68,36.71,36.71,0,0,0-11.44,10.16,3.16,3.16,0,0,1-4,1h0A3.17,3.17,0,0,1,229.19,106.2Z" fill="#fff" opacity="0.31"/><path d="M99.82,128.08a7,7,0,0,0-8.13-6.9,9.44,9.44,0,0,0-8.31-5l-.35,0a11.08,11.08,0,0,0,.35-2.72,11.21,11.21,0,0,0-22.42,0,11.08,11.08,0,0,0,.35,2.72l-.35,0a9.45,9.45,0,0,0,0,18.89H93.73V135A7,7,0,0,0,99.82,128.08Z" fill="#e6e6e6"/><path d="M328.81,74.66a9.28,9.28,0,0,0-9.28-9.27,9.17,9.17,0,0,0-1.49.13,12.5,12.5,0,0,0-11-6.59l-.46,0a14.65,14.65,0,0,0,.46-3.59,14.85,14.85,0,1,0-29.69,0A14.65,14.65,0,0,0,277.8,59l-.46,0a12.51,12.51,0,0,0,0,25h43.4v-.09A9.27,9.27,0,0,0,328.81,74.66Z" fill="#e6e6e6"/></svg>