<svg xmlns="http://www.w3.org/2000/svg" xmlns:xlink="http://www.w3.org/1999/xlink" viewBox="0 0 400 300"><defs><linearGradient id="linear-gradient" x1="210.23" y1="187.83" x2="228.15" y2="206.05" gradientUnits="userSpaceOnUse"><stop offset="0" stop-color="#00a99d"/><stop offset="1" stop-color="#fff"/></linearGradient><linearGradient id="linear-gradient-2" x1="104.17" y1="168" x2="90.36" y2="187.84" gradientTransform="matrix(-1, 0, 0, 1, 419.6, 0)" xlink:href="#linear-gradient"/><linearGradient id="linear-gradient-3" x1="199.75" y1="240.19" x2="214.7" y2="255.38" xlink:href="#linear-gradient"/><linearGradient id="linear-gradient-4" x1="277.27" y1="230.82" x2="263.46" y2="250.66" gradientTransform="matrix(-1, 0, 0, 1, 419.6, 0)" xlink:href="#linear-gradient"/><linearGradient id="linear-gradient-5" x1="158.45" y1="201.74" x2="145.07" y2="220.95" gradientTransform="matrix(-1, 0, 0, 1, 419.6, 0)" xlink:href="#linear-gradient"/><linearGradient id="linear-gradient-6" x1="135.98" y1="188.75" x2="122.6" y2="207.96" gradientTransform="matrix(-1, 0, 0, 1, 419.6, 0)" xlink:href="#linear-gradient"/></defs><g style="isolation:isolate"><g id="Layer_2" data-name="Layer 2"><path d="M344.33,184.43,179.54,279.79a25.78,25.78,0,0,1-25.75,0L62.19,227.21a10.29,10.29,0,0,1-.08-17.8l171.75-100.6a10.29,10.29,0,0,1,10.35,0l100.11,57.84A10.29,10.29,0,0,1,344.33,184.43Z" fill="#ace29a"/><path d="M257.21,189.57c-11-7.54-18.47-12.67-28.93-20.92l-55.86,26.76,29.33,29.34C208.13,220.87,250.95,193.63,257.21,189.57Z" fill="url(#linear-gradient)" style="mix-blend-mode:multiply"/><path d="M208.88,159.31l19.4,9.34a4.47,4.47,0,0,1,.31,7.88l-46,26.83a4.47,4.47,0,0,1-6-1.44l-11.17-17.38" fill="#606060"/><path d="M103.32,114.38,258.07,25.23a7,7,0,0,1,10.47,6V124a5.8,5.8,0,0,1-2.9,5L100.69,224.25A3.74,3.74,0,0,1,95.07,221V128.65A16.48,16.48,0,0,1,103.32,114.38Z" fill="#68e1fd"/><path d="M258.05,32.24,108,118.57a10.52,10.52,0,0,0-5.27,9.12v69.52a3.8,3.8,0,0,0,5.69,3.29l153-87.81a3.75,3.75,0,0,0,1.88-3.25V35.29A3.52,3.52,0,0,0,258.05,32.24Z" fill="#18516b"/><ellipse cx="195.62" cy="159.69" rx="3.73" ry="3.26" transform="matrix(0.19, -0.98, 0.98, 0.19, 1.81, 321.57)" fill="#ab643c"/><path d="M322.89,195.42c7.22-4.16,16.5-9.4,24.62-14-7.09-5.22-14.57-10-21.49-15.4l-24.94,14C308.12,185.48,315.53,190.41,322.89,195.42Z" fill="url(#linear-gradient-2)" style="mix-blend-mode:multiply"/><path d="M231.12,249.33c-11-7.54-21.92-15.13-32.38-23.38L176,238.83l36.08,22.33C218.48,257.27,224.86,253.38,231.12,249.33Z" fill="url(#linear-gradient-3)" style="mix-blend-mode:multiply"/><ellipse cx="313.66" cy="172.17" rx="17.41" ry="12.26" fill="#68e1fd"/><ellipse cx="313.67" cy="164.93" rx="13.04" ry="5.34" fill="#974c26"/><path d="M314.54,165.06c1-1.44,2.05-3,3.13-4.64,1.38-2.16,2.67-4.38,3.85-6.65a43.93,43.93,0,0,0,2.81-6.3,52.61,52.61,0,0,0,2.06-7.22c.13-.64.25-1.29.36-1.94.05-.3.06-.27.06-.22s0-.21,0-.56c.11-1.32.21-2.63.22-4a33.28,33.28,0,0,0-2.59-13.33A57.47,57.47,0,0,0,315.18,143q-.14.73-.26,1.46s-.13.89-.19,1.25-.13,1.13-.14,1.23q-.1.93-.17,1.87c-.19,2.4-.28,4.81-.27,7.22C314.16,159,314.3,162.05,314.54,165.06Zm5.54-36q.48-.54,1-1h0a2.17,2.17,0,0,0-.06.93A3,3,0,0,0,320.08,129.08Z" fill="#999a1c"/><path d="M314.87,165.28c.09-1.76.13-3.59.13-5.6,0-2.56-.12-5.13-.35-7.68a43.93,43.93,0,0,0-1-6.82,52.61,52.61,0,0,0-2.17-7.19c-.24-.61-.49-1.22-.75-1.82-.12-.28-.09-.25-.07-.22l-.26-.5c-.62-1.17-1.25-2.33-2-3.45a33.28,33.28,0,0,0-9.38-9.81,57.47,57.47,0,0,0,4.47,24.18q.28.69.58,1.37l.52,1.15.55,1.11q.42.84.87,1.66c1.14,2.12,2.37,4.2,3.67,6.22C311.3,160.42,313,162.88,314.87,165.28ZM300.08,132q.11-.71.26-1.41h0a2.17,2.17,0,0,0,.45.82A3,3,0,0,0,300.08,132Z" fill="#999a1c"/><path d="M315,166.2c-.52-1-1.09-2-1.74-3.06-.83-1.38-1.72-2.73-2.67-4a27.63,27.63,0,0,0-2.76-3.35,33.09,33.09,0,0,0-3.49-3.18c-.33-.25-.66-.5-1-.74-.16-.11-.13-.11-.11-.09l-.3-.18c-.71-.43-1.43-.85-2.17-1.23a20.93,20.93,0,0,0-8.23-2.27,36.15,36.15,0,0,0,10.22,11.61l.75.55.65.46.65.42,1,.62q1.95,1.17,4,2.17C311.46,164.73,313.2,165.49,315,166.2ZM296.23,153q-.17-.42-.32-.84h0a1.36,1.36,0,0,0,.51.3A1.88,1.88,0,0,0,296.23,153Z" fill="#999a1c"/><path d="M314.54,165.06c1-1.44,2.05-3,3.13-4.64,1.38-2.16,2.67-4.38,3.85-6.65a43.93,43.93,0,0,0,2.81-6.3,52.61,52.61,0,0,0,2.06-7.22c.13-.64.25-1.29.36-1.94.05-.3.06-.27.06-.22s0-.21,0-.56c.11-1.32.21-2.63.22-4a33.28,33.28,0,0,0-2.59-13.33A57.47,57.47,0,0,0,315.18,143q-.14.73-.26,1.46s-.13.89-.19,1.25-.13,1.13-.14,1.23q-.1.93-.17,1.87c-.19,2.4-.28,4.81-.27,7.22C314.16,159,314.3,162.05,314.54,165.06Zm5.54-36q.48-.54,1-1h0a2.17,2.17,0,0,0-.06.93A3,3,0,0,0,320.08,129.08Z" fill="#999a1c"/><path d="M314.87,165.28c.09-1.76.13-3.59.13-5.6,0-2.56-.12-5.13-.35-7.68a43.93,43.93,0,0,0-1-6.82,52.61,52.61,0,0,0-2.17-7.19c-.24-.61-.49-1.22-.75-1.82-.12-.28-.09-.25-.07-.22l-.26-.5c-.62-1.17-1.25-2.33-2-3.45a33.28,33.28,0,0,0-9.38-9.81,57.47,57.47,0,0,0,4.47,24.18q.28.69.58,1.37l.52,1.15.55,1.11q.42.84.87,1.66c1.14,2.12,2.37,4.2,3.67,6.22C311.3,160.42,313,162.88,314.87,165.28ZM300.08,132q.11-.71.26-1.41h0a2.17,2.17,0,0,0,.45.82A3,3,0,0,0,300.08,132Z" fill="#999a1c"/><path d="M315,166.2c-.52-1-1.09-2-1.74-3.06-.83-1.38-1.72-2.73-2.67-4a27.63,27.63,0,0,0-2.76-3.35,33.09,33.09,0,0,0-3.49-3.18c-.33-.25-.66-.5-1-.74-.16-.11-.13-.11-.11-.09l-.3-.18c-.71-.43-1.43-.85-2.17-1.23a20.93,20.93,0,0,0-8.23-2.27,36.15,36.15,0,0,0,10.22,11.61l.75.55.65.46.65.42,1,.62q1.95,1.17,4,2.17C311.46,164.73,313.2,165.49,315,166.2ZM296.23,153q-.17-.42-.32-.84h0a1.36,1.36,0,0,0,.51.3A1.88,1.88,0,0,0,296.23,153Z" fill="#999a1c"/><path d="M196.92,250.87V227.53L176,215.86V239Z" fill="#c96336"/><path d="M196.92,227.53l20.33-11.67s.56,23.53,0,23.9-20.33,11.1-20.33,11.1Z" fill="#e27144"/><polygon points="217.25 215.86 196.92 203.44 176.03 215.86 196.92 227.53 217.25 215.86" fill="#9b4726"/><polygon points="176.03 215.86 168.48 202.76 189.88 190.18 196.92 203.44 176.03 215.86" fill="#e27144"/><polygon points="217.25 215.86 222.76 204.09 200.28 216.33 196.92 227.53 217.25 215.86" fill="#c96336"/><path d="M149.79,258.24c7.22-4.16,16.5-9.4,24.62-14-7.09-5.22-14.57-10-21.49-15.4l-24.94,14C135,248.3,142.42,253.24,149.79,258.24Z" fill="url(#linear-gradient-4)" style="mix-blend-mode:multiply"/><path d="M123.8,240c.09.17.52,1.81.87,1.47s2.16.44,2.16.44l5.06-6.44-.67-2.1h-4.56" fill="#68e1fd"/><path d="M148.25,212.23l.48-1.67,5.32-2.9v-9.07c0-.18-5.15,3-5.15,3l-.24-.51a12.17,12.17,0,0,0-1.56-3.92l3.75-6.92-4.76-3.62-3.56,7.14,0,0a8.1,8.1,0,0,0-3.93.07V187l-6.81,3.78V198a30.13,30.13,0,0,0-3.64,4.19L124,199.52l-4.64,8.82,3.67,2.92-.31,1.48a40.45,40.45,0,0,0-1.14,4.77l-5.46,3v9l5.2-3.1a11.7,11.7,0,0,0,1.68,4.63l-3.9,6.62,4.94,3.74,3.47-6.81h4.32v6.81l6.5-4v-6.69a26.85,26.85,0,0,0,3.92-4.86l3.91,2.67,4.72-9L147,216.69l.39-1.35C147.71,214.29,148,213.25,148.25,212.23Z" fill="#68e1fd"/><polyline points="160.6 202.36 154.57 198.72 153.07 200.94 155.4 205.82" fill="#68e1fd"/><polyline points="152.72 232.37 148.26 230.52 148.26 227.83" fill="#68e1fd"/><polygon points="138.39 245.21 131.85 241.44 133.51 236.49 139.4 238.22 138.39 245.21" fill="#68e1fd"/><polygon points="146.09 186.64 152.63 190.42 149.04 197.57 145.11 197.64 144.21 190.42 146.09 186.64" fill="#68e1fd"/><ellipse cx="142.08" cy="217.87" rx="5.08" ry="2.95" transform="translate(-112.67 270.42) rotate(-68.55)" fill="#68e1fd"/><polygon points="131.76 190.79 138.3 194.57 145.11 190.79 138.57 187.01 131.76 190.79" fill="#68e1fd"/><polygon points="130.56 203.29 124.02 199.52 119.38 208.34 125.92 212.12 130.56 203.29" fill="#68e1fd"/><polygon points="119.12 237.7 125.67 241.47 130.61 245.21 124.06 241.44 119.12 237.7" fill="#68e1fd"/><path d="M123.8,240c.09.17.52,1.81.87,1.47s2.16.44,2.16.44l5.06-6.44-.67-2.1h-4.56" fill="#053855" opacity="0.44"/><path d="M148.25,212.23l.48-1.67,5.32-2.9v-9.07c0-.18-5.15,3-5.15,3l-.24-.51a12.17,12.17,0,0,0-1.56-3.92l3.75-6.92-4.76-3.62-3.56,7.14,0,0a8.1,8.1,0,0,0-3.93.07V187l-6.81,3.78V198a30.13,30.13,0,0,0-3.64,4.19L124,199.52l-4.64,8.82,3.67,2.92-.31,1.48a40.45,40.45,0,0,0-1.14,4.77l-5.46,3v9l5.2-3.1a11.7,11.7,0,0,0,1.68,4.63l-3.9,6.62,4.94,3.74,3.47-6.81h4.32v6.81l6.5-4v-6.69a26.85,26.85,0,0,0,3.92-4.86l3.91,2.67,4.72-9L147,216.69l.39-1.35C147.71,214.29,148,213.25,148.25,212.23Z" fill="#68e1fd"/><polyline points="160.6 202.36 154.57 198.72 153.07 200.94 155.4 205.82" fill="#053855" opacity="0.44"/><polyline points="152.72 232.37 148.26 230.52 148.26 227.83" fill="#68e1fd"/><polygon points="138.39 245.21 131.85 241.44 133.51 236.49 139.4 238.22 138.39 245.21" fill="#68e1fd"/><polygon points="146.09 186.64 152.63 190.42 149.04 197.57 145.11 197.64 144.21 190.42 146.09 186.64" fill="#68e1fd"/><ellipse cx="142.08" cy="217.87" rx="5.08" ry="2.95" transform="translate(-112.67 270.42) rotate(-68.55)" fill="#68e1fd"/><polygon points="130.56 203.29 124.02 199.52 119.38 208.34 125.92 212.12 130.56 203.29" fill="#68e1fd"/><polygon points="119.12 237.7 125.67 241.47 130.61 245.21 124.06 241.44 119.12 237.7" fill="#68e1fd"/><path d="M148.25,212.23l.48-1.67,5.32-2.9v-9.07c0-.18-5.15,3-5.15,3l-.24-.51a12.17,12.17,0,0,0-1.56-3.92l3.75-6.92-4.76-3.62-3.56,7.14,0,0a8.1,8.1,0,0,0-3.93.07V187l-6.81,3.78V198a30.13,30.13,0,0,0-3.64,4.19L124,199.52l-4.64,8.82,3.67,2.92-.31,1.48a40.45,40.45,0,0,0-1.14,4.77l-5.46,3v9l5.2-3.1a11.7,11.7,0,0,0,1.68,4.63l-3.9,6.62,4.94,3.74,3.47-6.81h4.32v6.81l6.5-4v-6.69a26.85,26.85,0,0,0,3.92-4.86l3.91,2.67,4.72-9L147,216.69l.39-1.35C147.71,214.29,148,213.25,148.25,212.23Z" fill="#053855" opacity="0.44"/><polyline points="152.72 232.37 148.26 230.52 148.26 227.83" fill="#053855" opacity="0.1"/><polygon points="138.39 245.21 131.85 241.44 133.51 236.49 139.4 238.22 138.39 245.21" fill="#053855" opacity="0.1"/><ellipse cx="142.08" cy="217.87" rx="5.08" ry="2.95" transform="translate(-112.67 270.42) rotate(-68.55)" fill="#053855" opacity="0.1"/><polygon points="130.56 203.29 124.02 199.52 119.38 208.34 125.92 212.12 130.56 203.29" fill="#053855" opacity="0.1"/><polygon points="119.12 237.7 125.67 241.47 130.61 245.21 124.06 241.44 119.12 237.7" fill="#053855" opacity="0.1"/><polyline points="152.72 232.37 148.26 230.52 148.26 227.83" fill="#053855" opacity="0.1"/><polygon points="138.39 245.21 131.85 241.44 133.51 236.49 139.4 238.22 138.39 245.21" fill="#053855" opacity="0.44"/><path d="M154.8,216l.48-1.67,5.32-2.9v-9.07c0-.18-5.15,3-5.15,3l-.24-.51a12.17,12.17,0,0,0-1.56-3.92l3.75-6.92-4.76-3.62-3.56,7.14,0,0a8.1,8.1,0,0,0-3.93.07v-6.85l-6.81,3.78v7.16a30.13,30.13,0,0,0-3.64,4.19l-4.11-2.62-4.64,8.82L129.6,215l-.31,1.48a40.45,40.45,0,0,0-1.14,4.77l-5.46,3v9l5.2-3.1a11.7,11.7,0,0,0,1.68,4.63l-3.9,6.62,4.94,3.74,3.47-6.81h4.32v6.81l6.5-4v-6.69a26.85,26.85,0,0,0,3.92-4.86l3.91,2.67,4.72-9-3.92-2.89.39-1.35C154.26,218.07,154.55,217,154.8,216Z" fill="#68e1fd"/><ellipse cx="142.08" cy="217.87" rx="5.08" ry="2.95" transform="translate(-112.67 270.42) rotate(-68.55)" fill="#053855" opacity="0.44"/><polygon points="119.12 237.7 125.67 241.47 130.61 245.21 124.06 241.44 119.12 237.7" fill="#053855" opacity="0.44"/><polygon points="131.76 190.79 138.3 194.57 145.11 190.79 138.57 187.01 131.76 190.79" fill="#68e1fd"/><polygon points="131.76 190.77 138.29 194.57 145.11 190.81 138.58 187.02 131.76 190.77" fill="#053855" opacity="0.44"/><polygon points="116.14 220.52 122.69 224.3 122.69 233.33 116.14 229.55 116.14 220.52" fill="#68e1fd"/><polygon points="116.14 220.52 122.69 224.3 122.69 233.33 116.14 229.55 116.14 220.52" fill="#053855" opacity="0.44"/><path d="M260.28,204.73l-3.07,1.72c3.42,2.65,15.79,14.11,19.37,16.54.95-.55,3.53-2.25,4.59-2.86C277.62,217.69,263.68,207.41,260.28,204.73Z" fill="url(#linear-gradient-5)" style="mix-blend-mode:multiply"/><path d="M282.91,192.16l0,0q-1,1.26-2,2.51c4.56,3.85,14.8,13.25,18,15.43.95-.55,3.53-2.25,4.59-2.86C300,204.91,286.82,195.2,282.91,192.16Z" fill="url(#linear-gradient-6)" style="mix-blend-mode:multiply"/><path d="M259.46,91l24.13,102c.58,2.45-3.2,3.5-3.78,1l-24.13-102c-.58-2.45,3.2-3.5,3.78-1Z" fill="#f2f2f2"/><path d="M236.81,103.09l24.13,102c.58,2.45-3.2,3.5-3.78,1L233,104.13c-.58-2.45,3.2-3.5,3.78-1Z" fill="#f2f2f2"/><path d="M262,107.1l-22.64,12.65c-2.2,1.23-4.18-2.15-2-3.38L260,103.71c2.2-1.23,4.18,2.15,2,3.38Z" fill="#f2f2f2"/><path d="M264.33,121.27,242.61,133.4c-2.2,1.23-4.18-2.15-2-3.38l21.72-12.13c2.2-1.23,4.18,2.15,2,3.38Z" fill="#f2f2f2"/><path d="M267,132.75l-21.69,12.12c-2.2,1.23-4.18-2.15-2-3.38L265,129.37c2.2-1.23,4.18,2.15,2,3.38Z" fill="#f2f2f2"/><path d="M270.37,145.1l-21.49,12c-2.2,1.23-4.18-2.15-2-3.38l21.49-12c2.2-1.23,4.18,2.15,2,3.38Z" fill="#f2f2f2"/><path d="M273.32,156.4l-21.53,12c-2.2,1.23-4.18-2.15-2-3.38l21.53-12c2.2-1.23,4.18,2.15,2,3.38Z" fill="#f2f2f2"/><path d="M276.61,169.53,254,182.18c-2.2,1.23-4.18-2.15-2-3.38l22.64-12.65c2.2-1.23,4.18,2.15,2,3.38Z" fill="#f2f2f2"/></g></g></svg>