<?xml version="1.0" encoding="UTF-8"?>
<svg width="311px" height="54px" viewBox="0 0 311 54" version="1.1" xmlns="http://www.w3.org/2000/svg" xmlns:xlink="http://www.w3.org/1999/xlink">
    <title>Logo OFF</title>
    <g id="Homepage-V1---Nutriscore-badge" stroke="none" stroke-width="1" fill="none" fill-rule="evenodd">
        <g id="Artboard" transform="translate(-75, -439)" fill-rule="nonzero">
            <g id="Group-2" transform="translate(43, 439)">
                <g id="Group" transform="translate(32, 0)">
                    <g transform="translate(131.0444, 5.792)">
                        <path d="M16.073906,4.08156488 L81.6038623,4.09408466 C89.7651103,4.0951589 96.3808409,10.7108882 96.3819168,18.8721362 L96.3902674,23.1433468 C96.3913434,31.3061154 89.7749844,37.924219 81.6122159,37.9252951 C81.6109179,37.9252952 81.60962,37.9252952 81.6083221,37.9252951 L16.0783663,37.908882 C7.91711831,37.9078078 1.30138767,31.2920784 1.30031183,23.1308305 L1.29196121,18.8596198 C1.29088516,10.6968513 7.9072442,4.07874765 16.0700127,4.07767161 C16.0713107,4.07767144 16.0726086,4.07767143 16.0739065,4.07767161 Z" id="Rectangle" fill="#FF8714" transform="translate(48.8411, 21.0015) rotate(-5) translate(-48.8411, -21.0015)"></path>
                        <g transform="translate(7.6498, 7.8307)" fill="#FFFFFF">
                            <polygon id="Path" points="1.82838106 27.0769533 0 6.21556434 14.3032727 4.96426134 14.6346667 8.74479381 4.67760821 9.61576155 5.14232173 14.9100284 13.6976214 14.1645712 14.0290155 17.9451037 5.4737158 18.6905608 6.1745952 26.7004214 1.82838106 27.0807566"></polygon>
                            <path d="M28.027558,25.1296367 C26.4581976,25.2665574 24.9764471,25.12203 23.5823065,24.6998579 C22.188166,24.2776858 20.9501996,23.6159024 19.8607893,22.7259179 C18.775188,21.8321301 17.8952796,20.7595846 17.217255,19.5006749 C16.5430395,18.2417652 16.1354629,16.8497382 16.0021434,15.3169871 C15.8688239,13.7880393 16.021189,12.3427654 16.4554331,10.9887718 C16.8934792,9.63477832 17.5676947,8.42911555 18.4856943,7.36798018 C19.3998849,6.31064816 20.5083409,5.45109047 21.8072533,4.79311048 C23.1061656,4.13513048 24.5498249,3.73577846 26.1382309,3.59505441 C27.7266369,3.45433037 29.2198148,3.59505441 30.6139554,4.0210299 C32.0080959,4.44700539 33.2460623,5.09737868 34.3316635,5.98355984 C35.4172648,6.86593764 36.293364,7.93848306 36.9599613,9.19739277 C37.6265586,10.4563025 38.0265169,11.8521329 38.1598364,13.3810806 C38.2931558,14.9138317 38.1369816,16.3553023 37.6913137,17.7092959 C37.2456458,19.0632894 36.5638121,20.2765588 35.6496215,21.3453009 C34.735431,22.414043 33.626975,23.277404 32.3280626,23.935384 C31.0291502,24.593364 29.5931093,24.9927161 28.0237489,25.1296367 L28.027558,25.1296367 Z M27.6847365,21.2083802 C28.6370183,21.1247065 29.5054994,20.8812919 30.2901796,20.4743332 C31.0748598,20.0673745 31.7490753,19.5349051 32.3128261,18.8731217 C32.8765769,18.2113384 33.2917718,17.4468645 33.5546016,16.5797001 C33.8174313,15.7087324 33.9050413,14.7731077 33.8174313,13.7614159 C33.7298214,12.7535274 33.478419,11.8483295 33.0708424,11.0458221 C32.6632658,10.2433147 32.1223697,9.56251462 31.4519634,8.99961844 C30.781557,8.43672225 30.0235407,8.02976353 29.1817235,7.77113555 C28.3399064,7.51631093 27.4409524,7.42883382 26.4886706,7.51250757 C25.5363888,7.59618133 24.6679078,7.83579254 23.8832276,8.23514457 C23.0985474,8.63449659 22.4243319,9.16696595 21.860581,9.836356 C21.2968302,10.5057461 20.8854445,11.2702199 20.6188056,12.1297776 C20.3559758,12.9893353 20.2683659,13.92496 20.3559758,14.9328485 C20.4435857,15.9407369 20.6949881,16.8497382 21.1025647,17.6598523 C21.5139505,18.4699664 22.0548465,19.1507665 22.7214438,19.706056 C23.3918502,20.2575421 24.1498665,20.6683042 24.9916836,20.9345388 C25.8335007,21.2007735 26.7324547,21.292054 27.6847365,21.2083802 Z" id="Shape"></path>
                            <path d="M51.8688852,23.0453995 C50.2995248,23.1823202 48.8177743,23.0377928 47.4236337,22.6156207 C46.0294932,22.1934486 44.7915268,21.5316652 43.7021165,20.6416807 C42.6165152,19.7478928 41.7366068,18.6753474 41.0585822,17.4164377 C40.3843667,16.157528 39.97679,14.765501 39.8434706,13.2327499 C39.7101511,11.7038021 39.8625162,10.2585281 40.2967603,8.90453462 C40.7348064,7.5505411 41.4090219,6.34487833 42.3270215,5.28374296 C43.2412121,4.22641094 44.3496681,3.36685326 45.6485805,2.70887326 C46.9474928,2.05089326 48.391152,1.65154124 49.9795581,1.5108172 C51.5679641,1.3738965 53.061142,1.5108172 54.4552826,1.93679269 C55.8494231,2.36276818 57.0873895,3.01314147 58.1729907,3.89932262 C59.258592,4.78170042 60.1346912,5.85424585 60.8012885,7.11315555 C61.4678858,8.37206526 61.8678441,9.76789566 62.0011636,11.2968434 C62.134483,12.8295945 61.9783088,14.2710651 61.5326409,15.6250586 C61.086973,16.9828555 60.4051393,18.1923216 59.4909487,19.2610637 C58.5767582,20.3298058 57.4683022,21.1931668 56.1693898,21.8511468 C54.8704774,22.5091268 53.4344365,22.9084788 51.8650761,23.0453995 L51.8688852,23.0453995 Z M51.5260637,19.124143 C52.4783455,19.0404693 53.3468265,18.7970547 54.1315067,18.390096 C54.916187,17.9831372 55.5904025,17.4506679 56.1541533,16.7888845 C56.7179041,16.1271012 57.133099,15.3626273 57.3959288,14.4954629 C57.6587585,13.6244952 57.7463685,12.6888704 57.6587585,11.6771787 C57.5711486,10.6692902 57.3197462,9.76409231 56.9121696,8.96158491 C56.504593,8.15907751 55.9636969,7.4782774 55.2932905,6.91538122 C54.6228842,6.35248504 53.8648678,5.94552631 53.0230507,5.68689833 C52.1812336,5.43207371 51.2822796,5.3445966 50.3299978,5.42827036 C49.377716,5.51194412 48.5054259,5.75155533 47.7207457,6.15090735 C46.9360655,6.55025937 46.2618499,7.08272873 45.6980991,7.75211879 C45.1343483,8.42150884 44.7229625,9.18598271 44.4563236,10.0455404 C44.1934939,10.9050981 44.1058839,11.8407228 44.1934939,12.8486113 C44.2811038,13.8564997 44.5325062,14.765501 44.9400828,15.5756151 C45.3514685,16.3857292 45.8923646,17.0665293 46.5589619,17.6218187 C47.2293682,18.1733049 47.9873846,18.5840669 48.8292017,18.8503016 C49.6710188,19.1165363 50.5699728,19.2078168 51.5222546,19.124143 L51.5260637,19.124143 Z" id="Shape"></path>
                            <path d="M65.4674693,21.5202551 L63.6390883,0.658866217 L70.4536168,0.0617398612 C72.7162384,-0.136034473 74.7198393,0.141610265 76.4606104,0.890870725 C78.2013816,1.64013118 79.5993313,2.7621202 80.6544595,4.24923106 C81.7057786,5.73634192 82.3228572,7.48968746 82.4980771,9.50546433 C82.6732969,11.5212412 82.3723759,13.3582605 81.5953139,15.0165222 C80.818252,16.674784 79.6336134,18.0249741 78.0490165,19.0670927 C76.4644196,20.1092113 74.5408103,20.7291578 72.2781888,20.9269321 L65.4636602,21.5240585 L65.4674693,21.5202551 Z M69.4822894,17.3593874 L72.0610685,17.1349896 C73.4247361,17.0170857 74.5789016,16.6367504 75.5235651,16.0015905 C76.4644196,15.3626273 77.1691081,14.5220864 77.6338216,13.4761644 C78.0985351,12.4302425 78.2699459,11.2321864 78.1518629,9.88960294 C78.03378,8.52800272 77.6528673,7.37558688 77.016743,6.43235544 C76.3768096,5.49292735 75.5388017,4.79311048 74.5027191,4.33670817 C73.4628273,3.88030586 72.2629523,3.71295834 70.8992847,3.83466563 L68.3205056,4.05906343 L69.4860985,17.3593874 L69.4822894,17.3593874 Z" id="Shape"></path>
                        </g>
                    </g>
                    <g transform="translate(233.3129, 11.7714)" fill="#000000">
                        <path d="M10.2008427,0 C8.78003821,0 7.54969013,0.258627976 6.50218014,0.775883927 C5.45467016,1.29313988 4.65094432,2.04240034 4.08719349,3.01986195 C3.52344267,3.99732357 3.24156725,5.19537963 3.24156725,6.61403015 L3.24156725,7.18833639 L0,7.18833639 L0,11.1362164 L3.24156725,11.1362164 L3.24156725,25.5395126 L7.66777307,25.5395126 L7.66777307,11.1362164 L11.7549666,11.1362164 L11.7549666,7.18833639 L7.66777307,7.18833639 L7.66777307,6.61403015 C7.66777307,5.6707987 7.9382211,4.97858853 8.47911716,4.54120299 C9.02001323,4.10381744 9.7856478,3.88322299 10.7760209,3.88322299 C10.9321951,3.88322299 11.1074149,3.89082969 11.2978713,3.8984364 C11.4883277,3.90984646 11.6978297,3.93646993 11.9225682,3.98211016 L11.9225682,0.171150866 C11.6978297,0.125510635 11.4197634,0.0874771095 11.0959876,0.0532469362 C10.7684026,0.0190167629 10.4712907,0.00380335258 10.2008427,0.00380335258 L10.2008427,0 Z" id="Path"></path>
                        <path d="M24.8583642,7.60670517 C23.7080077,7.05521904 22.3786223,6.78137766 20.870208,6.78137766 C19.6322416,6.78137766 18.4818852,6.98295535 17.4229478,7.38991407 C16.3640105,7.79306945 15.4460108,8.35216228 14.6689489,9.05958586 C13.8918869,9.76700944 13.324327,10.6075504 12.9624599,11.5736019 L16.5773216,13.3269475 C16.9163339,12.5168334 17.4496117,11.85505 18.1809642,11.3377941 C18.9123166,10.8205381 19.7503246,10.5619101 20.6987972,10.5619101 C21.7120251,10.5619101 22.5233692,10.8281448 23.1328295,11.3530075 C23.7422899,11.8816735 24.0432109,12.5396535 24.0432109,13.3269475 L24.0432109,13.9202705 L18.6037773,14.810255 C17.1601181,15.0346528 15.9678613,15.4187914 15.0231977,15.9588674 C14.0785342,16.4989435 13.3738456,17.1683336 12.9129412,17.9670376 C12.4520368,18.7657417 12.2196801,19.6709396 12.2196801,20.6826314 C12.2196801,21.6943231 12.4787007,22.6679814 12.996742,23.4666854 C13.5147833,24.2653895 14.253754,24.8777293 15.2098449,25.3037047 C16.1659359,25.7296802 17.2858193,25.9464713 18.5733043,25.9464713 C19.5865321,25.9464713 20.5045318,25.813354 21.3273032,25.543316 C22.1500747,25.2732779 22.8928545,24.8701226 23.5556427,24.3300465 C23.8260907,24.109452 24.0774931,23.8660375 24.3174681,23.6112128 L24.3174681,25.5471193 L28.507508,25.5471193 L28.507508,13.3345542 C28.507508,12.0528243 28.1875413,10.9156219 27.5437988,9.92675025 C26.9000563,8.93787857 26.0049114,8.165798 24.8583642,7.61431187 L24.8583642,7.60670517 Z M23.4718419,20.3403296 C23.08712,21.0363431 22.5424148,21.5840259 21.8339172,21.9757712 C21.1254195,22.3713199 20.3064571,22.5652909 19.3846484,22.5652909 C18.6647233,22.5652909 18.0628812,22.3789266 17.5753129,22.0100014 C17.0915538,21.6372729 16.8477696,21.1390337 16.8477696,20.5076771 C16.8477696,19.8763206 17.0610808,19.3324412 17.4915121,18.9406959 C17.9181344,18.5489506 18.5733043,18.2713058 19.4494035,18.1153684 L24.0432109,17.3014509 L24.0432109,18.0811382 C24.0432109,18.8912523 23.8527546,19.6443161 23.4680327,20.3403296 L23.4718419,20.3403296 Z" id="Shape"></path>
                        <path d="M37.8893883,11.5545852 C38.6435955,11.0943795 39.5044583,10.862375 40.4757857,10.862375 C41.5118683,10.862375 42.429868,11.1362164 43.2297847,11.6877025 C44.0297014,12.2391886 44.5972613,12.9846457 44.9362737,13.9316805 L48.8215834,12.2125652 C48.4597163,11.132413 47.8693016,10.1891816 47.0465301,9.37906747 C46.2237587,8.56895337 45.2486221,7.93379349 44.1249296,7.47358783 C42.9974279,7.01338217 41.7823163,6.78137766 40.4757857,6.78137766 C38.628359,6.78137766 36.9790069,7.19594309 35.5277295,8.02887731 C34.076452,8.86181152 32.9299047,9.99521059 32.099515,11.4366812 C31.2653161,12.8743485 30.8501213,14.5059868 30.8501213,16.3277926 C30.8501213,18.1495985 31.2729344,19.7850401 32.1185606,21.2341175 C32.9641869,22.6831948 34.106925,23.8318073 35.5467751,24.6761516 C36.9866252,25.5204958 38.6321681,25.942668 40.4795948,25.942668 C41.8089802,25.942668 43.0355192,25.7106635 44.1630208,25.2504578 C45.2905225,24.7902521 46.2580408,24.1474856 47.0693849,23.3259614 C47.880729,22.5044372 48.4673346,21.5764192 48.8253925,20.5419073 L44.9400828,18.7885618 C44.5782157,19.7317932 44.0106558,20.484857 43.2335938,21.0477532 C42.4565319,21.6106494 41.5385322,21.8920975 40.4795948,21.8920975 C39.5120765,21.8920975 38.6474046,21.6562896 37.8931975,21.1846739 C37.1389903,20.7130582 36.5485756,20.0588815 36.1181442,19.2297507 C35.6915219,18.3968165 35.4744017,17.442175 35.4744017,16.3620228 C35.4744017,15.2818707 35.6877128,14.3538527 36.1181442,13.5133117 C36.5447664,12.6689675 37.1351811,12.0185942 37.8931975,11.5583885 L37.8893883,11.5545852 Z" id="Path"></path>
                        <path d="M60.5041766,21.8616707 C59.7842515,21.8616707 59.1900277,21.7475701 58.7291233,21.5231723 C58.2682189,21.2987745 57.9292066,20.9716862 57.7158955,20.5457107 C57.5025843,20.1197352 57.3959288,19.6024792 57.3959288,18.9939428 L57.3959288,11.132413 L61.6202508,11.132413 L61.6202508,7.18453303 L57.3959288,7.18453303 L57.3959288,3.00084519 L52.9354408,3.00084519 L52.9354408,4.4194957 C52.9354408,5.32089027 52.6916567,6.00549373 52.2078975,6.47710945 C51.7241384,6.94872517 51.0308772,7.18453303 50.1319232,7.18453303 L49.7929109,7.18453303 L49.7929109,11.132413 L52.9354408,11.132413 L52.9354408,19.2297507 C52.9354408,21.2987745 53.510619,22.8999859 54.6571663,24.0371883 C55.8075227,25.1743908 57.4149744,25.7410903 59.4871396,25.7410903 C59.8261519,25.7410903 60.1956373,25.7182702 60.6032139,25.6726299 C61.0069814,25.6269897 61.3688484,25.5813495 61.685006,25.5395126 L61.685006,21.7627835 C61.4831223,21.7856036 61.2736203,21.8084237 61.0603091,21.8312438 C60.846998,21.854064 60.6603508,21.865474 60.5041766,21.865474 L60.5041766,21.8616707 Z" id="Path"></path>
                        <path d="M72.9257404,15.0118327 L69.9850942,14.1332582 C69.5584719,14.0001409 69.1813683,13.8518101 68.8537834,13.6958727 C68.5261985,13.5399352 68.2747961,13.3383575 68.091958,13.0873362 C67.912929,12.8401183 67.8215099,12.5586702 67.8215099,12.242992 C67.8215099,11.6800958 68.0348211,11.2351035 68.4652524,10.9118186 C68.8918747,10.5847302 69.4784803,10.4211861 70.2212601,10.4211861 C71.1430689,10.4211861 71.9772677,10.6646006 72.7200475,11.1476264 C73.4628273,11.6306522 73.992296,12.2886322 74.3084536,13.1215664 L77.6871494,11.5355684 C77.1233986,10.0294408 76.178735,8.85800817 74.8493496,8.02887731 C73.5199642,7.19594309 71.9886951,6.78137766 70.2555422,6.78137766 C68.9261568,6.78137766 67.7491365,7.01718552 66.7244813,7.48880124 C65.6998261,7.96041696 64.8999094,8.61839696 64.3247312,9.46274123 C63.7495529,10.3070855 63.4638684,11.2883505 63.4638684,12.4141428 C63.4638684,13.6730525 63.8638268,14.7684181 64.6637435,15.7040428 C65.4636602,16.6358642 66.6292531,17.3166643 68.1605223,17.7464432 L71.1659236,18.5907874 C71.5696911,18.704888 71.9315582,18.8456121 72.2477157,19.0129596 C72.5638733,19.1803071 72.8152757,19.3856881 73.0095412,19.621496 C73.1999976,19.8573038 73.2952257,20.1577687 73.2952257,20.5152838 C73.2952257,21.1010001 73.0590598,21.5726159 72.5867281,21.9339344 C72.1143963,22.2952529 71.4820812,22.4740104 70.6935918,22.4740104 C69.6575092,22.4740104 68.7166548,22.1811523 67.8710286,21.595436 C67.0254023,21.0097197 66.3664233,20.1996056 65.8940916,19.1650937 L62.5496779,20.7510917 C63.1134287,22.3484998 64.1190383,23.6150162 65.5741249,24.5468376 C67.0254023,25.478659 68.7318913,25.9464713 70.6935918,25.9464713 C72.0915415,25.9464713 73.3066531,25.7106635 74.3427357,25.2390478 C75.3788183,24.767432 76.1901624,24.109452 76.776768,23.2651078 C77.3633736,22.4207635 77.6566764,21.4509086 77.6566764,20.3479363 C77.6566764,19.0433864 77.2452906,17.9404141 76.4225192,17.0428229 C75.5997477,16.1452317 74.4341548,15.468235 72.9257404,15.0194394 L72.9257404,15.0118327 Z" id="Path"></path>
                    </g>
                    <g transform="translate(46.5018, 18.5528)" fill="#000000">
                        <path d="M14.6613306,1.24749965 C13.1986258,0.414565432 11.5530828,0 9.72851089,0 C7.90393896,0 6.29267815,0.414565432 4.8299733,1.24749965 C3.36726845,2.08043386 2.19405727,3.21383293 1.31795801,4.65530356 C0.438049629,6.09297084 0,7.73601916 0,9.58064516 C0,11.4252712 0.438049629,13.0683195 1.31795801,14.5059868 C2.1978664,15.943654 3.37107758,17.0808565 4.84901894,17.9137907 C6.32315116,18.7467249 7.94964848,19.1612903 9.73232002,19.1612903 C11.5149915,19.1612903 13.1681528,18.7467249 14.6308576,17.9137907 C16.0935625,17.0808565 17.2667736,15.9474574 18.1428729,14.5059868 C19.0227813,13.0683195 19.4608309,11.4252712 19.4608309,9.58064516 C19.4608309,7.73601916 19.0265904,6.06634737 18.1619185,4.64009015 C17.2934375,3.21383293 16.1278446,2.08043386 14.6651397,1.251303 L14.6613306,1.24749965 Z M14.1699532,12.4293562 C13.7319036,13.2737005 13.1338706,13.9316805 12.3796634,14.4032962 C11.6254562,14.874912 10.7417387,15.1107198 9.72851089,15.1107198 C8.71528305,15.1107198 7.85822943,14.874912 7.09259486,14.4032962 C6.32696029,13.9316805 5.72511819,13.2737005 5.28325944,12.4293562 C4.84520981,11.585012 4.62428043,10.6379772 4.62428043,9.58064516 C4.62428043,8.52331314 4.84520981,7.5800817 5.28325944,6.74714749 C5.72130907,5.91421327 6.32315116,5.26383998 7.09259486,4.79222426 C7.85822943,4.32060854 8.73813781,4.08480068 9.72851089,4.08480068 C10.718884,4.08480068 11.6254562,4.32060854 12.3796634,4.79222426 C13.1338706,5.26383998 13.7319036,5.91801662 14.1699532,6.74714749 C14.6080028,7.5800817 14.8289322,8.52331314 14.8289322,9.58064516 C14.8289322,10.6379772 14.6080028,11.5888153 14.1699532,12.4293562 Z" id="Shape"></path>
                        <path d="M36.6399946,1.28172982 C35.2420449,0.42597549 33.6764936,0 31.9433408,0 C30.5263454,0 29.2731426,0.273841386 28.1951596,0.825327511 C27.3304877,1.26651641 26.6105627,1.85223271 26.0315753,2.5748697 L26.0315753,0.403155374 L21.8415354,0.403155374 L21.8415354,25.5014791 L26.3020234,25.5014791 L26.3020234,16.9933793 C26.8429194,17.5676856 27.4904711,18.035498 28.2446782,18.3854064 C29.3607525,18.9026623 30.5796732,19.1612903 31.9090586,19.1612903 C33.687921,19.1612903 35.2763271,18.7391182 36.6742768,17.8947739 C38.0722264,17.0504296 39.1730642,15.8980138 39.9844083,14.4375264 C40.7957524,12.977039 41.1995199,11.3568108 41.1995199,9.58064516 C41.1995199,7.8044795 40.7881341,6.16143119 39.9653627,4.72376391 C39.1425912,3.28609663 38.0341352,2.13748415 36.6361855,1.28172982 L36.6399946,1.28172982 Z M35.931497,12.448373 C35.4820199,13.2813072 34.8687505,13.9316805 34.0916885,14.4032962 C33.3146266,14.874912 32.4194817,15.1107198 31.4062538,15.1107198 C30.393026,15.1107198 29.5664454,14.874912 28.7893834,14.4032962 C28.0123215,13.9316805 27.4028611,13.2775039 26.9648115,12.448373 C26.5267619,11.6154388 26.3058325,10.6607973 26.3058325,9.58064516 C26.3058325,8.50049303 26.5267619,7.5800817 26.9648115,6.74714749 C27.4028611,5.91421327 28.0123215,5.26383998 28.7893834,4.79222426 C29.5664454,4.32060854 30.4387355,4.08480068 31.4062538,4.08480068 C32.3737721,4.08480068 33.3146266,4.32060854 34.0916885,4.79222426 C34.8687505,5.26383998 35.4820199,5.91801662 35.931497,6.74714749 C36.380974,7.5800817 36.6057125,8.52331314 36.6057125,9.58064516 C36.6057125,10.6379772 36.380974,11.6154388 35.931497,12.448373 Z" id="Shape"></path>
                        <path d="M58.5348578,2.66615016 C57.7692232,1.83321595 56.8397962,1.18284265 55.7465767,0.711226933 C54.6533572,0.239611213 53.3887269,0.00380335258 51.9450677,0.00380335258 C50.2119149,0.00380335258 48.657791,0.418368784 47.282696,1.251303 C45.9076011,2.08423722 44.8181907,3.21383293 44.0068466,4.64009015 C43.1955025,6.07015073 42.7917351,7.70559234 42.7917351,9.54641499 C42.7917351,11.3872376 43.1840752,12.9428088 43.9725645,14.4032962 C44.7610538,15.8637836 45.8695098,17.0238062 47.3017417,17.8795605 C48.7301644,18.7353148 50.394753,19.1612903 52.2840801,19.1612903 C53.5220464,19.1612903 54.6724028,18.9711227 55.7313402,18.5869841 C56.7902775,18.2066488 57.7006589,17.6779828 58.4662935,17.0009861 C59.2319281,16.3277926 59.7956789,15.5519087 60.1537369,14.6733343 L56.5731573,12.9199887 C56.1693898,13.6388224 55.6094481,14.2131286 54.9009504,14.6391041 C54.1924528,15.0650796 53.33159,15.2818707 52.3145531,15.2818707 C51.2975161,15.2818707 50.4061803,15.0460628 49.6291184,14.5744471 C48.8520564,14.1028314 48.2654508,13.4334413 47.8731107,12.5662769 C47.6369449,12.0452176 47.4883889,11.4785181 47.4274429,10.862375 L60.6603508,10.862375 C60.7517698,10.5923369 60.8127159,10.2956754 60.846998,9.96858712 C60.8812802,9.6414988 60.8965167,9.31060713 60.8965167,8.97210875 C60.8965167,7.73601916 60.6946329,6.58360332 60.2870563,5.51486125 C59.8832888,4.44611917 59.2966832,3.49528103 58.5310487,2.66615016 L58.5348578,2.66615016 Z M47.5188619,7.45457107 C47.5950445,7.0666291 47.7017,6.70911396 47.8426377,6.37441893 C48.2159322,5.49584449 48.7606374,4.82265108 49.4805624,4.35103536 C50.2004875,3.87941964 51.0232589,3.64361178 51.9450677,3.64361178 C52.8668765,3.64361178 53.7391666,3.87941964 54.4286187,4.35103536 C55.1142616,4.82265108 55.6094481,5.46541766 55.9141783,6.27553177 C56.0513069,6.64445697 56.1351077,7.04000563 56.1617716,7.45457107 L47.5150528,7.45457107 L47.5188619,7.45457107 Z" id="Shape"></path>
                        <path d="M76.3349092,0.878574447 C75.2873993,0.292858149 74.0875242,0 72.735284,0 C71.3830439,0 70.2860152,0.285251444 69.3070695,0.859557684 C68.5490532,1.30074658 67.9624476,1.90547965 67.5320163,2.66234681 L67.5320163,0.406958727 L63.3419763,0.406958727 L63.3419763,18.7581349 L67.8024643,18.7581349 L67.8024643,7.99845049 C67.8024643,7.18833639 67.9586385,6.49232286 68.2747961,5.90660656 C68.5909536,5.32089027 69.0290033,4.87209466 69.5927541,4.5564164 C70.1565049,4.24073813 70.7964383,4.08480068 71.5201725,4.08480068 C72.2439066,4.08480068 72.88384,4.24073813 73.4475908,4.5564164 C74.0113416,4.87209466 74.4493913,5.32089027 74.7655488,5.90660656 C75.0817064,6.49232286 75.2378806,7.18833639 75.2378806,7.99845049 L75.2378806,18.7581349 L79.6640864,18.7581349 L79.6640864,6.95252853 C79.6640864,5.57951824 79.3707836,4.37005212 78.784178,3.32793351 C78.1975724,2.28201155 77.3824192,1.4680941 76.3349092,0.8823778 L76.3349092,0.878574447 Z" id="Path"></path>
                    </g>
                    <g>
                        <g transform="translate(0.0038, 9.3562)">
                            <path d="M0,18.628821 C0,8.34075222 8.35341597,0 18.6571051,0 C28.9607942,0 37.3142101,8.34075222 37.3142101,18.628821 L0,18.628821 Z" id="Path" fill="#FF8C14"></path>
                            <ellipse id="Oval" fill="#8C3C00" cx="24.9764471" cy="6.59881673" rx="1.02465522" ry="1.02310185"></ellipse>
                            <ellipse id="Oval" fill="#8C3C00" cx="29.974022" cy="11.1780532" rx="1.02465522" ry="1.02310185"></ellipse>
                            <ellipse id="Oval" fill="#8C3C00" cx="24.3212772" cy="12.3000423" rx="1.02465522" ry="1.02310185"></ellipse>
                        </g>
                        <path d="M9.61423707,44.2710241 L6.3002964,52.1743908 L10.6617471,54 L14.0061607,46.028173 C15.4955295,46.4123116 17.0572716,46.6176926 18.6647233,46.6176926 C28.9531759,46.6176926 37.3218284,38.261727 37.3218284,27.9888717 L32.5908924,27.9888717 C32.5908924,35.6564305 26.3439238,41.8977321 18.6609142,41.8977321 C10.9779046,41.8977321 4.73093599,35.6602338 4.73093599,27.9888717 L0,27.9888717 C0,34.9832371 3.88530975,41.087618 9.61042795,44.2748274 L9.61423707,44.2710241 Z" id="Path" fill="#000000"></path>
                        <path d="M26.3782059,0 C22.7100164,0 19.5217769,2.04240034 17.8800431,5.04704888 C19.1446733,6.21848148 20.093146,7.72080575 20.5883326,9.42090435 C24.8583642,8.4624595 28.0618401,4.69714044 28.1380227,0.163544161 C27.5666536,0.0570502888 26.980048,0 26.3782059,0 L26.3782059,0 Z" id="Path" fill="#00641E"></path>
                        <path d="M11.2978713,2.45696577 C10.570328,2.45696577 9.86563947,2.54063953 9.1838057,2.68897028 C10.3532078,6.71672066 14.0709159,9.66051557 18.4780761,9.66051557 C19.2056194,9.66051557 19.9103079,9.57684181 20.5921417,9.42851106 C19.4227396,5.40076067 15.7050315,2.45696577 11.2978713,2.45696577 Z" id="Path" fill="#00961E"></path>
                    </g>
                </g>
            </g>
        </g>
    </g>
</svg>