<?xml version="1.0" encoding="UTF-8" standalone="no"?>
<svg
   width="1152"
   height="1152"
   viewBox="0 0 127.99872 127.99872"
   fill="none"
   version="1.1"
   id="svg20"
   sodipodi:docname="release_icon_clear_bg_1152x1152.svg"
   inkscape:version="1.1.2 (b8e25be833, 2022-02-05)"
   xmlns:inkscape="http://www.inkscape.org/namespaces/inkscape"
   xmlns:sodipodi="http://sodipodi.sourceforge.net/DTD/sodipodi-0.dtd"
   xmlns="http://www.w3.org/2000/svg"
   xmlns:svg="http://www.w3.org/2000/svg">
  <defs
     id="defs24" />
  <sodipodi:namedview
     id="namedview22"
     pagecolor="#ffffff"
     bordercolor="#666666"
     borderopacity="1.0"
     inkscape:pageshadow="2"
     inkscape:pageopacity="0.0"
     inkscape:pagecheckerboard="0"
     showgrid="false"
     scale-x="0.11111"
     inkscape:zoom="0.40185547"
     inkscape:rotation="1"
     inkscape:cx="434.5073"
     inkscape:cy="528.25608"
     inkscape:window-width="1920"
     inkscape:window-height="1009"
     inkscape:window-x="-8"
     inkscape:window-y="-8"
     inkscape:window-maximized="1"
     inkscape:current-layer="svg20" />
  <rect
     width="128"
     height="128"
     id="rect2"
     x="0"
     y="0" />
  <path
     d="M 29,65.5706 C 29,46.2392 44.6612,30.578 63.9926,30.578 c 19.3313,0 34.9925,15.6612 34.9925,34.9926 z"
     fill="#ff8c14"
     id="path4" />
  <path
     d="m 90.1144,65.5706 c 0,14.4279 -11.6939,26.1218 -26.1218,26.1218 -14.428,0 -26.1219,-11.6939 -26.1219,-26.1218 z"
     id="path6" />
  <path
     d="m 75.85,44.9019 c 1.0668,0 1.9316,-0.8648 1.9316,-1.9316 0,-1.0669 -0.8648,-1.9317 -1.9316,-1.9317 -1.0669,0 -1.9317,0.8648 -1.9317,1.9317 0,1.0668 0.8648,1.9316 1.9317,1.9316 z"
     fill="#8c3c00"
     id="path8" />
  <path
     d="m 85.211,53.5052 c 1.0668,0 1.9317,-0.8648 1.9317,-1.9316 0,-1.0669 -0.8649,-1.9317 -1.9317,-1.9317 -1.0668,0 -1.9316,0.8648 -1.9316,1.9317 0,1.0668 0.8648,1.9316 1.9316,1.9316 z"
     fill="#8c3c00"
     id="path10" />
  <path
     d="m 74.6166,55.6152 c 1.0669,0 1.9317,-0.8649 1.9317,-1.9317 0,-1.0668 -0.8648,-1.9316 -1.9317,-1.9316 -1.0668,0 -1.9316,0.8648 -1.9316,1.9316 0,1.0668 0.8648,1.9317 1.9316,1.9317 z"
     fill="#8c3c00"
     id="path12" />
  <path
     d="M 47.0238,96.1501 40.8128,110.994 49,114.426 55.2704,99.4636 c 2.7935,0.7134 5.7207,1.0994 8.737,1.0994 C 83.3091,100.563 99,84.8722 99,65.5706 h -8.8707 c 0,14.3982 -11.7237,26.1218 -26.1219,26.1218 -14.3982,0 -26.1367,-11.7236 -26.1367,-26.1218 H 29 c 0,13.1352 7.2808,24.6062 18.0238,30.5795 z"
     fill="#000000"
     id="path14" />
  <path
     d="m 78.4651,13 c -6.8797,0 -12.8529,3.8336 -15.9287,9.4799 2.3626,2.1991 4.1605,5.0223 5.0817,8.217 C 75.627,28.899 81.63,21.8262 81.7786,13.312 80.7088,13.1189 79.6092,13 78.4799,13 Z"
     fill="#00641e"
     id="path16" />
  <path
     d="m 50.1887,17.6211 c -1.367,0 -2.6894,0.1486 -3.9673,0.4458 2.1843,7.5631 9.1679,13.0906 17.4294,13.0906 1.367,0 2.6895,-0.1486 3.9673,-0.4458 C 65.4339,23.1486 58.4502,17.6211 50.1887,17.6211 Z"
     fill="#00961e"
     id="path18" />
  <path
     d="M 29,65.5706 C 29,46.2392 44.6612,30.578 63.9926,30.578 c 19.3313,0 34.9925,15.6612 34.9925,34.9926 z"
     fill="#ff8c14"
     id="path45" />
  <path
     d="m 90.1144,65.5706 c 0,14.4279 -11.6939,26.1218 -26.1218,26.1218 -14.428,0 -26.1219,-11.6939 -26.1219,-26.1218 z"
     id="path47" />
  <path
     d="m 75.85,44.9019 c 1.0668,0 1.9316,-0.8648 1.9316,-1.9316 0,-1.0669 -0.8648,-1.9317 -1.9316,-1.9317 -1.0669,0 -1.9317,0.8648 -1.9317,1.9317 0,1.0668 0.8648,1.9316 1.9317,1.9316 z"
     fill="#8c3c00"
     id="path49" />
  <path
     d="m 85.211,53.5052 c 1.0668,0 1.9317,-0.8648 1.9317,-1.9316 0,-1.0669 -0.8649,-1.9317 -1.9317,-1.9317 -1.0668,0 -1.9316,0.8648 -1.9316,1.9317 0,1.0668 0.8648,1.9316 1.9316,1.9316 z"
     fill="#8c3c00"
     id="path51" />
  <path
     d="m 74.6166,55.6152 c 1.0669,0 1.9317,-0.8649 1.9317,-1.9317 0,-1.0668 -0.8648,-1.9316 -1.9317,-1.9316 -1.0668,0 -1.9316,0.8648 -1.9316,1.9316 0,1.0668 0.8648,1.9317 1.9316,1.9317 z"
     fill="#8c3c00"
     id="path53" />
  <path
     d="M 47.0238,96.1501 40.8128,110.994 49,114.426 55.2704,99.4636 c 2.7935,0.7134 5.7207,1.0994 8.737,1.0994 C 83.3091,100.563 99,84.8722 99,65.5706 h -8.8707 c 0,14.3982 -11.7237,26.1218 -26.1219,26.1218 -14.3982,0 -26.1367,-11.7236 -26.1367,-26.1218 H 29 c 0,13.1352 7.2808,24.6062 18.0238,30.5795 z"
     fill="#000000"
     id="path55" />
  <path
     d="m 78.4651,13 c -6.8797,0 -12.8529,3.8336 -15.9287,9.4799 2.3626,2.1991 4.1605,5.0223 5.0817,8.217 C 75.627,28.899 81.63,21.8262 81.7786,13.312 80.7088,13.1189 79.6092,13 78.4799,13 Z"
     fill="#00641e"
     id="path57" />
  <path
     d="m 50.1887,17.6211 c -1.367,0 -2.6894,0.1486 -3.9673,0.4458 2.1843,7.5631 9.1679,13.0906 17.4294,13.0906 1.367,0 2.6895,-0.1486 3.9673,-0.4458 C 65.4339,23.1486 58.4502,17.6211 50.1887,17.6211 Z"
     fill="#00961e"
     id="path59" />
</svg>
