<svg width="1152" height="1152" viewBox="0 0 166.395 166.395" fill="none" xmlns="http://www.w3.org/2000/svg"><path d="M0 0h128v128H0z"/><path d="M48.197 85.055c0-19.331 15.662-34.993 34.993-34.993 19.331 0 34.993 15.662 34.993 34.993z" fill="#ff8c14"/><path d="M109.312 85.055c0 14.428-11.694 26.122-26.122 26.122-14.428 0-26.122-11.694-26.122-26.122z"/><path d="M95.047 64.386a1.932 1.932 0 1 0 0-3.863 1.932 1.932 0 0 0 0 3.863zM104.408 72.99a1.932 1.932 0 1 0 0-3.864 1.932 1.932 0 0 0 0 3.864zM93.814 75.1a1.932 1.932 0 1 0 0-3.864 1.932 1.932 0 0 0 0 3.864z" fill="#8c3c00"/><path d="m66.221 115.635-6.21 14.843 8.186 3.432 6.27-14.962a35.27 35.27 0 0 0 8.738 1.1c19.302 0 34.992-15.691 34.992-34.993h-8.87c0 14.398-11.724 26.122-26.122 26.122S57.068 99.453 57.068 85.055h-8.87c0 13.135 7.28 24.606 18.023 30.58z" fill="#000"/><path d="M97.663 32.484c-6.88 0-12.853 3.834-15.93 9.48 2.363 2.2 4.161 5.023 5.083 8.217 8.008-1.798 14.011-8.87 14.16-17.385a18.533 18.533 0 0 0-3.299-.312z" fill="#00641e"/><path d="M69.386 37.106c-1.367 0-2.69.148-3.967.445 2.184 7.563 9.168 13.09 17.43 13.09 1.366 0 2.689-.148 3.967-.445-2.185-7.563-9.168-13.09-17.43-13.09z" fill="#00961e"/><path d="M48.197 85.055c0-19.331 15.662-34.993 34.993-34.993 19.331 0 34.993 15.662 34.993 34.993z" fill="#ff8c14"/><path d="M109.312 85.055c0 14.428-11.694 26.122-26.122 26.122-14.428 0-26.122-11.694-26.122-26.122z"/><path d="M95.047 64.386a1.932 1.932 0 1 0 0-3.863 1.932 1.932 0 0 0 0 3.863zM104.408 72.99a1.932 1.932 0 1 0 0-3.864 1.932 1.932 0 0 0 0 3.864zM93.814 75.1a1.932 1.932 0 1 0 0-3.864 1.932 1.932 0 0 0 0 3.864z" fill="#8c3c00"/><path d="m66.221 115.635-6.21 14.843 8.186 3.432 6.27-14.962a35.27 35.27 0 0 0 8.738 1.1c19.302 0 34.992-15.691 34.992-34.993h-8.87c0 14.398-11.724 26.122-26.122 26.122S57.068 99.453 57.068 85.055h-8.87c0 13.135 7.28 24.606 18.023 30.58z" fill="#000"/><path d="M97.663 32.484c-6.88 0-12.853 3.834-15.93 9.48 2.363 2.2 4.161 5.023 5.083 8.217 8.008-1.798 14.011-8.87 14.16-17.385a18.533 18.533 0 0 0-3.299-.312z" fill="#00641e"/><path d="M69.386 37.106c-1.367 0-2.69.148-3.967.445 2.184 7.563 9.168 13.09 17.43 13.09 1.366 0 2.689-.148 3.967-.445-2.185-7.563-9.168-13.09-17.43-13.09z" fill="#00961e"/></svg>