<svg width="67" height="96" fill="none" xmlns="http://www.w3.org/2000/svg"><path d="M.979 49.465c0-18.1 14.67-32.77 32.77-32.77s32.77 14.67 32.77 32.77H.978Z" fill="#FF8C14"/><path d="M44.843 30.107a1.804 1.804 0 1 0 0-3.607 1.804 1.804 0 0 0 0 3.607ZM53.62 38.167a1.804 1.804 0 1 0 0-3.607 1.804 1.804 0 0 0 0 3.607ZM43.692 40.136a1.804 1.804 0 1 0 0-3.607 1.804 1.804 0 0 0 0 3.607Z" fill="#8C3C00"/><path d="M17.853 78.109 12.03 92.008l7.664 3.21 5.871-14.016a32.749 32.749 0 0 0 8.183 1.033c18.069 0 32.77-14.702 32.77-32.77h-8.306c0 13.487-10.971 24.464-24.464 24.464-13.492 0-24.463-10.972-24.463-24.464H.979c0 12.304 6.818 23.04 16.874 28.644Z" fill="#000"/><path d="M47.3.238c-6.444 0-12.042 3.591-14.922 8.879a17.006 17.006 0 0 1 4.758 7.696C44.634 15.133 50.265 8.5 50.393.527c-1-.188-2.034-.284-3.093-.284V.238Z" fill="#00641E"/><path d="M20.813 4.562c-1.274 0-2.515.145-3.714.412 2.05 7.081 8.579 12.262 16.323 12.262 1.274 0 2.516-.145 3.714-.412-2.05-7.081-8.579-12.262-16.323-12.262Z" fill="#00961E"/></svg>