<?xml version="1.0" standalone="no"?>
<!DOCTYPE svg PUBLIC "-//W3C//DTD SVG 20010904//EN"
 "http://www.w3.org/TR/2001/REC-SVG-20010904/DTD/svg10.dtd">
<svg version="1.0" xmlns="http://www.w3.org/2000/svg"
 width="1152.000000pt" height="1152.000000pt" viewBox="0 0 1152.000000 1152.000000"
 preserveAspectRatio="xMidYMid meet">

<g transform="translate(0.000000,1152.000000) scale(0.100000,-0.100000)"
fill="#000000" stroke="none">
<path d="M6554 9255 c-181 -32 -376 -114 -525 -221 -105 -76 -245 -222 -315
-329 -39 -60 -59 -83 -67 -77 -256 207 -488 302 -777 318 -108 6 -272 -6 -319
-24 -19 -7 -19 -8 4 -74 111 -317 371 -594 685 -729 50 -22 135 -51 188 -66
90 -25 111 -27 302 -27 178 0 216 2 291 21 250 64 444 176 621 361 202 210
320 470 344 760 6 77 6 79 -17 86 -50 15 -332 16 -415 1z"/>
<path d="M6514 7311 c-46 -28 -64 -59 -64 -112 0 -131 157 -187 236 -84 31 41
35 111 9 151 -39 60 -122 81 -181 45z"/>
<path d="M7185 6725 c-47 -17 -70 -43 -86 -95 -10 -33 -9 -44 9 -82 27 -54 66
-78 127 -78 42 0 52 5 86 39 35 35 39 44 39 89 0 43 -5 57 -31 86 -27 32 -41
39 -89 51 -8 2 -33 -2 -55 -10z"/>
<path d="M6435 6571 c-48 -29 -67 -57 -72 -103 -8 -78 55 -148 132 -148 44 0
96 31 117 71 62 112 -70 247 -177 180z"/>
<path d="M3341 5493 c37 -782 481 -1519 1164 -1933 39 -23 71 -44 73 -45 2 -2
-91 -230 -207 -507 -116 -277 -211 -508 -211 -514 0 -11 558 -250 564 -243 2
2 99 234 216 514 117 281 214 511 215 513 1 1 58 -9 126 -22 191 -39 328 -49
553 -43 220 6 356 25 556 78 591 157 1116 552 1442 1085 198 322 327 729 344
1079 3 61 7 125 9 143 l4 32 -310 0 c-240 0 -309 -3 -309 -12 -1 -62 -24 -264
-41 -348 -126 -633 -599 -1160 -1220 -1358 -204 -66 -280 -76 -544 -77 -213 0
-252 3 -350 23 -604 127 -1095 529 -1324 1086 -78 190 -117 363 -136 604 l-7
82 -307 0 -306 0 6 -137z"/>
</g>
</svg>
