<svg xmlns="http://www.w3.org/2000/svg" width="128" height="128" fill="none"><path d="M0 0h128v128H0z"/><path d="M29 65.57c0-19.33 15.661-34.992 34.993-34.992 19.33 0 34.992 15.661 34.992 34.993H29Z" fill="#FF8C14"/><path d="M90.114 65.57c0 14.429-11.694 26.122-26.121 26.122C49.565 91.692 37.87 80 37.87 65.571h52.243Z"/><path d="M75.85 44.902a1.932 1.932 0 1 0 0-3.863 1.932 1.932 0 0 0 0 3.863ZM85.211 53.505a1.932 1.932 0 1 0 0-3.863 1.932 1.932 0 0 0 0 3.863ZM74.617 55.615a1.932 1.932 0 1 0 0-3.863 1.932 1.932 0 0 0 0 3.863Z" fill="#8C3C00"/><path d="m47.024 96.15-6.211 14.844L49 114.426l6.27-14.962a35.27 35.27 0 0 0 8.737 1.099C83.31 100.563 99 84.873 99 65.571h-8.87c0 14.398-11.724 26.121-26.123 26.121-14.398 0-26.136-11.723-26.136-26.121H29c0 13.135 7.28 24.606 18.024 30.58Z" fill="#000"/><path d="M78.465 13c-6.88 0-12.853 3.834-15.929 9.48 2.363 2.199 4.16 5.022 5.082 8.217 8.009-1.798 14.012-8.87 14.16-17.385A18.533 18.533 0 0 0 78.48 13h-.015Z" fill="#00641E"/><path d="M50.189 17.621c-1.367 0-2.69.149-3.968.446 2.185 7.563 9.168 13.09 17.43 13.09 1.367 0 2.69-.148 3.967-.445-2.184-7.563-9.168-13.09-17.43-13.09Z" fill="#00961E"/></svg>