<?xml version="1.0" encoding="UTF-8"?><svg id="a" xmlns="http://www.w3.org/2000/svg" viewBox="0 0 244.92 244.92"><g><path d="M122.46,168.1c-25.2,0-45.7-20.5-45.7-45.7h-15.52c0,22.99,12.74,43.04,31.53,53.51l-10.88,25.96,14.31,6,10.97-26.19c4.89,1.26,10.01,1.93,15.28,1.93,33.76,0,61.22-27.46,61.22-61.22h-15.52c0,25.2-20.5,45.7-45.7,45.7Z"/><path fill="#fff" d="M168.16,122.42c0,25.24-20.46,45.7-45.7,45.7-25.24,0-45.7-20.46-45.7-45.7h91.4Z"/><g><path fill="#bebebe" d="M161.42,67.43H83.5c-12.29,0-22.26,9.97-22.26,22.26v32.71h15.52c0-25.24,20.46-45.7,45.7-45.7s45.7,20.46,45.7,45.7h15.52v-32.71c0-12.29-9.97-22.26-22.26-22.26Z"/><path fill="#646464" d="M147.66,51.77h-16.51c-3.47,0-6.52,2.32-7.46,5.66l-2.79,10h37l-2.79-10c-.93-3.35-3.98-5.66-7.46-5.66Z"/><path fill="#646464" d="M89.58,57.99h8.94c1.35,0,2.44,1.09,2.44,2.44v7h-13.81v-7c0-1.35,1.09-2.44,2.44-2.44Z"/><rect fill="#ffe600" x="160.93" y="78.01" width="11.81" height="11.77" rx="5.89" ry="5.89"/><path fill="#646464" d="M122.46,76.7c-25.24,0-45.7,20.46-45.7,45.7h13.08c0-18.01,14.6-32.62,32.62-32.62s32.62,14.6,32.62,32.62h13.08c0-25.24-20.46-45.7-45.7-45.7Z"/><path fill="#82dcff" d="M122.46,89.78c-18.01,0-32.62,14.6-32.62,32.62h65.23c0-18.01-14.6-32.62-32.62-32.62Z"/><path fill="#fff" d="M143.6,112.91c-.83,0-1.64-.45-2.05-1.24-1.05-2.01-2.42-3.82-4.07-5.39-.93-.88-.96-2.34-.08-3.27,.88-.93,2.34-.96,3.27-.08,2.02,1.92,3.69,4.14,4.98,6.59,.59,1.13,.16,2.53-.97,3.12-.34,.18-.71,.27-1.07,.27Z"/><path fill="#fff" d="M133.02,102.78c-.33,0-.67-.07-.98-.22-.69-.32-1.4-.61-2.11-.86-1.21-.41-1.85-1.73-1.44-2.94,.41-1.21,1.73-1.85,2.94-1.44,.87,.3,1.74,.65,2.58,1.05,1.15,.54,1.65,1.92,1.11,3.08-.39,.84-1.22,1.33-2.09,1.33Z"/></g></g></svg>