<?xml version="1.0" encoding="UTF-8"?><svg id="a" xmlns="http://www.w3.org/2000/svg" viewBox="0 0 244.92 244.92"><g><g><path fill="#fff" d="M118.19,112.14c-.85-14.8-7.57-26.33-15.73-26.33-8.74,0-15.83,13.2-15.83,29.49,0,2.44,.18,4.79,.48,7.06h24.42c0-4.59,2.75-8.53,6.66-10.22Z"/><path fill="#fff" d="M158.29,115.3c0-16.29-7.09-29.49-15.83-29.49-8.17,0-14.89,11.53-15.74,26.33,3.92,1.69,6.67,5.63,6.67,10.22h24.42c.3-2.27,.48-4.62,.48-7.06Z"/></g><path fill="#aaa" d="M183.72,122.36c0-12.81-3.94-24.7-10.66-34.53l4.8-32.24c.57-3.83-3.34-6.77-6.86-5.16l-29.76,13.62c-5.92-1.9-12.22-2.94-18.78-2.94s-12.95,1.06-18.9,2.99l.05-.04-29.77-13.62c-3.52-1.61-7.43,1.33-6.86,5.16l4.82,32.35c-6.68,9.81-10.58,21.66-10.58,34.42h25.9c-.3-2.27-.48-4.62-.48-7.06,0-16.29,7.09-29.49,15.83-29.49,8.17,0,14.89,11.53,15.73,26.33,1.31-.57,2.76-.88,4.27-.88s2.96,.31,4.27,.88c.85-14.8,7.57-26.33,15.73-26.33,8.74,0,15.83,13.2,15.83,29.49,0,2.44-.18,4.79-.48,7.06h25.9Z"/><path fill="#fff" d="M168.08,122.36c0,25.26-20.47,45.73-45.73,45.73-25.26,0-45.73-20.47-45.73-45.73h91.46Z"/><g><path d="M142.46,91.75c-.5,0-.98,.07-1.45,.17,.88,.65,1.45,1.68,1.45,2.86,0,1.97-1.61,3.57-3.59,3.57-1.5,0-2.78-.92-3.32-2.23-1.16,1.92-1.86,4.33-1.86,6.95,0,6.25,3.92,11.32,8.76,11.32s8.76-5.07,8.76-11.32-3.92-11.32-8.76-11.32Z"/><path d="M109.44,96.26c-.57,1.23-1.81,2.09-3.25,2.09-1.98,0-3.59-1.6-3.59-3.57,0-1.16,.56-2.18,1.42-2.83-.51-.12-1.03-.19-1.56-.19-4.84,0-8.76,5.07-8.76,11.32s3.92,11.32,8.76,11.32,8.76-5.07,8.76-11.32c0-2.56-.67-4.92-1.78-6.82Z"/></g><path d="M96.19,207.9l10.98-26.21c4.89,1.26,10.02,1.93,15.29,1.93,33.78,0,61.26-27.48,61.26-61.26h-15.53c0,25.22-20.51,45.73-45.73,45.73s-45.73-20.51-45.73-45.73h-15.53c0,23,12.75,43.08,31.55,53.55l-10.88,25.98,14.32,6Z"/><path fill="#ffe6dc" d="M166.95,80.28l3.1-20.8c.05-.35-.3-.62-.63-.47l-19.16,8.77c6.26,3.2,11.9,7.44,16.69,12.5Z"/><g><path d="M111.81,77.13c-.96,0-1.73-.78-1.73-1.73v-12.5c0-.96,.78-1.73,1.73-1.73s1.73,.78,1.73,1.73v12.5c0,.96-.78,1.73-1.73,1.73Z"/><path d="M133.07,77.13c-.96,0-1.73-.78-1.73-1.73v-12.5c0-.96,.78-1.73,1.73-1.73s1.73,.78,1.73,1.73v12.5c0,.96-.78,1.73-1.73,1.73Z"/><path d="M122.44,83.42c-.96,0-1.73-.78-1.73-1.73v-19.71c0-.96,.78-1.73,1.73-1.73s1.73,.78,1.73,1.73v19.71c0,.96-.78,1.73-1.73,1.73Z"/></g><path fill="#ffe6dc" d="M94.61,67.8l-19.21-8.79c-.32-.15-.68,.12-.63,.47l3.11,20.88c4.79-5.09,10.45-9.35,16.73-12.56Z"/><path d="M133.39,122.36c0-6.13-4.9-11.1-10.93-11.1s-10.93,4.97-10.93,11.1h21.87Z"/></g></svg>