<?xml version="1.0" encoding="UTF-8"?><svg id="a" xmlns="http://www.w3.org/2000/svg" viewBox="0 0 244.92 244.92"><g><path fill="#008c8c" d="M122.46,61.16c6.61,0,12.97,1.06,18.93,3v-14.79c0-1.28-1.04-2.31-2.31-2.31h-6.34v-15.59h10c1.68,0,3.05-1.36,3.05-3.05s-1.36-3.05-3.05-3.05h-28.25c-1.28,0-2.31,1.04-2.31,2.31v19.36h-6.34c-1.28,0-2.31,1.04-2.31,2.31v14.79c5.96-1.94,12.32-3,18.93-3Z"/><path d="M92.72,175.96l-10.89,26.01,14.33,6.01,10.99-26.23c4.89,1.26,10.02,1.93,15.31,1.93,33.81,0,61.31-27.5,61.31-61.31h-15.54c0,25.24-20.53,45.77-45.77,45.77s-45.77-20.53-45.77-45.77h-15.54c0,23.02,12.76,43.11,31.58,53.59Z"/><path fill="#82dcff" d="M61.26,122.36c0-33.8,27.4-61.2,61.2-61.2s61.2,27.4,61.2,61.2H61.26Z"/><path fill="#fff" d="M168.23,122.36c0,25.28-20.49,45.77-45.77,45.77-25.28,0-45.77-20.49-45.77-45.77h91.54Z"/></g></svg>