<svg width="1800" height="640" fill="none" xmlns="http://www.w3.org/2000/svg"><path d="M95.238 422.3c-17.82 0-31.46-5.06-40.92-15.18-9.46-10.12-14.19-24.42-14.19-42.9V242.78c0-18.48 4.73-32.78 14.19-42.9 9.46-10.12 23.1-15.18 40.92-15.18s31.46 5.06 40.92 15.18c9.46 10.12 14.19 24.42 14.19 42.9v121.44c0 18.48-4.73 32.78-14.19 42.9-9.46 10.12-23.1 15.18-40.92 15.18Zm0-33c12.54 0 18.81-7.59 18.81-22.77V240.47c0-15.18-6.27-22.77-18.81-22.77s-18.81 7.59-18.81 22.77v126.06c0 15.18 6.27 22.77 18.81 22.77ZM174.897 188h53.46c18.04 0 31.57 4.84 40.59 14.52 9.02 9.68 13.53 23.87 13.53 42.57v22.77c0 18.7-4.51 32.89-13.53 42.57s-22.55 14.52-40.59 14.52h-17.16V419h-36.3V188Zm53.46 103.95c5.94 0 10.34-1.65 13.2-4.95 3.08-3.3 4.62-8.91 4.62-16.83v-27.39c0-7.92-1.54-13.53-4.62-16.83-2.86-3.3-7.26-4.95-13.2-4.95h-17.16v70.95h17.16ZM302.192 188h99v33h-62.7v61.05h49.83v33h-49.83V386h62.7v33h-99V188Zm119.883 0h45.54l35.31 138.27h.66V188h32.34v231h-37.29l-43.56-168.63h-.66V419h-32.34V188Zm193.682 0h96.03v33h-59.73v64.35h46.86v33h-46.86V419h-36.3V188Zm165.907 234.3c-17.82 0-31.46-5.06-40.92-15.18-9.46-10.12-14.19-24.42-14.19-42.9V242.78c0-18.48 4.73-32.78 14.19-42.9 9.46-10.12 23.1-15.18 40.92-15.18s31.46 5.06 40.92 15.18c9.46 10.12 14.19 24.42 14.19 42.9v121.44c0 18.48-4.73 32.78-14.19 42.9-9.46 10.12-23.1 15.18-40.92 15.18Zm0-33c12.54 0 18.81-7.59 18.81-22.77V240.47c0-15.18-6.27-22.77-18.81-22.77s-18.81 7.59-18.81 22.77v126.06c0 15.18 6.27 22.77 18.81 22.77Zm132.129 33c-17.82 0-31.46-5.06-40.92-15.18-9.46-10.12-14.19-24.42-14.19-42.9V242.78c0-18.48 4.73-32.78 14.19-42.9 9.46-10.12 23.1-15.18 40.92-15.18s31.46 5.06 40.92 15.18c9.46 10.12 14.19 24.42 14.19 42.9v121.44c0 18.48-4.73 32.78-14.19 42.9-9.46 10.12-23.1 15.18-40.92 15.18Zm0-33c12.54 0 18.81-7.59 18.81-22.77V240.47c0-15.18-6.27-22.77-18.81-22.77s-18.81 7.59-18.81 22.77v126.06c0 15.18 6.27 22.77 18.81 22.77ZM993.452 188h55.438c18.04 0 31.57 4.84 40.59 14.52 9.02 9.68 13.53 23.87 13.53 42.57v116.82c0 18.7-4.51 32.89-13.53 42.57S1066.93 419 1048.89 419h-55.438V188Zm54.778 198c5.94 0 10.45-1.76 13.53-5.28 3.3-3.52 4.95-9.24 4.95-17.16V243.44c0-7.92-1.65-13.64-4.95-17.16-3.08-3.52-7.59-5.28-13.53-5.28h-18.48v165h18.48Zm132.14-198h96.03v33h-59.73v64.35h46.86v33h-46.86V419h-36.3V188Zm130.85 0h49.17l37.62 231h-36.3l-6.6-45.87v.66h-41.25l-6.6 45.21h-33.66l37.62-231Zm39.6 154.44-16.17-114.18h-.66l-15.84 114.18h32.67Zm115.31 79.86c-17.38 0-30.69-4.95-39.93-14.85-9.02-9.9-13.53-23.87-13.53-41.91V241.46c0-18.04 4.51-32.01 13.53-41.91 9.24-9.9 22.55-14.85 39.93-14.85s30.58 4.95 39.6 14.85c9.24 9.9 13.86 23.87 13.86 41.91v24.42h-34.32v-26.73c0-14.3-6.05-21.45-18.15-21.45-12.1 0-18.15 7.15-18.15 21.45v129.03c0 14.08 6.05 21.12 18.15 21.12 12.1 0 18.15-7.04 18.15-21.12v-35.31h34.32v32.67c0 18.04-4.62 32.01-13.86 41.91-9.02 9.9-22.22 14.85-39.6 14.85ZM1569.68 221h-37.95v-33h112.2v33h-37.95v198h-36.3V221Zm139.02 201.3c-17.6 0-30.91-4.95-39.93-14.85-9.02-10.12-13.53-24.53-13.53-43.23v-13.2h34.32v15.84c0 14.96 6.27 22.44 18.81 22.44 6.16 0 10.78-1.76 13.86-5.28 3.3-3.74 4.95-9.68 4.95-17.82 0-9.68-2.2-18.15-6.6-25.41-4.4-7.48-12.54-16.39-24.42-26.73-14.96-13.2-25.41-25.08-31.35-35.64-5.94-10.78-8.91-22.88-8.91-36.3 0-18.26 4.62-32.34 13.86-42.24 9.24-10.12 22.66-15.18 40.26-15.18 17.38 0 30.47 5.06 39.27 15.18 9.02 9.9 13.53 24.2 13.53 42.9v9.57h-34.32v-11.88c0-7.92-1.54-13.64-4.62-17.16-3.08-3.74-7.59-5.61-13.53-5.61-12.1 0-18.15 7.37-18.15 22.11 0 8.36 2.2 16.17 6.6 23.43 4.62 7.26 12.87 16.06 24.75 26.4 15.18 13.2 25.63 25.19 31.35 35.97 5.72 10.78 8.58 23.43 8.58 37.95 0 18.92-4.73 33.44-14.19 43.56-9.24 10.12-22.77 15.18-40.59 15.18Z" fill="#333"/></svg>