<svg xmlns="http://www.w3.org/2000/svg" xmlns:xlink="http://www.w3.org/1999/xlink" version="1.1" x="0px" y="0px" viewBox="0 0 48 60" enable-background="new 0 0 48 48" xml:space="preserve"><g><path d="M35.8,11.5c-3.2-0.6-6.6,0.2-9.2,2.1c0.3-2.2,1.4-6.4,5.7-8.8c0.5-0.3,0.7-0.9,0.4-1.4c-0.3-0.5-0.9-0.7-1.4-0.4   c-0.7,0.4-1.3,0.8-1.8,1.2c-0.1,0-0.1,0-0.2,0h-5.3C21.2,1.5,17.5,0,13.6,0C9.5,0,5.6,1.6,2.7,4.5c-0.4,0.4-0.4,1,0,1.4   c2.9,2.9,6.7,4.5,10.8,4.5c4,0,7.7-1.5,10.5-4.2h3.5c-2.2,2.7-2.8,5.8-3,7.5c-2.7-2-6.1-2.8-9.4-2.2c-6.5,1.2-10.8,7.5-9.5,14   C6.7,31.1,14.5,48,21.3,48c0.3,0,0.5,0,0.8-0.1c0.2,0,0.5-0.1,0.7-0.2c1.8-0.7,3.7-0.7,5.4,0c0.2,0.1,0.5,0.2,0.7,0.2   c0.3,0,0.5,0.1,0.8,0.1c0,0,0,0,0,0c6.8,0,14.6-16.9,15.7-22.5C46.6,19,42.3,12.7,35.8,11.5z M13.6,8.4c-3.2,0-6.3-1.1-8.7-3.2   C7.3,3.1,10.3,2,13.6,2c2.6,0,5.2,0.8,7.3,2.2h-5.6c-0.6,0-1,0.4-1,1s0.4,1,1,1h5.6C18.7,7.6,16.2,8.4,13.6,8.4z M43.4,25.1   C42.3,30.8,34.7,46,29.7,46c-0.1,0-0.3,0-0.4,0c-0.1,0-0.2-0.1-0.4-0.1c-1.1-0.4-2.3-0.6-3.4-0.6c-1.2,0-2.3,0.2-3.4,0.6   c-0.1,0-0.2,0.1-0.4,0.1c-0.1,0-0.3,0-0.4,0c-5,0-12.6-15.2-13.7-20.9c-1-5.4,2.5-10.6,7.9-11.7c3.4-0.6,6.9,0.6,9.2,3.1   c0.4,0.4,1.1,0.4,1.5,0c2.3-2.6,5.9-3.7,9.2-3.1C40.9,14.5,44.4,19.7,43.4,25.1z"/></g><text x="0" y="63" fill="#000000" font-size="5px" font-weight="bold" font-family="'Helvetica Neue', Helvetica, Arial-Unicode, Arial, Sans-serif">Created by Vectors Market</text><text x="0" y="68" fill="#000000" font-size="5px" font-weight="bold" font-family="'Helvetica Neue', Helvetica, Arial-Unicode, Arial, Sans-serif">from the Noun Project</text></svg>