<svg xmlns="http://www.w3.org/2000/svg" xmlns:xlink="http://www.w3.org/1999/xlink" version="1.1" x="0px" y="0px" viewBox="0 0 48 60" enable-background="new 0 0 48 48" xml:space="preserve"><g><path d="M34.9,6.4l0-1.2c0-2.9-2.3-5.2-5.2-5.2H1.3c-0.4,0-0.8,0.3-1,0.7c-0.1,0.4,0,0.9,0.4,1.1c2.8,2,4.8,4.7,5.6,7.7   C6.5,10.3,6.4,11.1,6,12C2.5,19.2,0.1,24.4,0.1,32c0,6.4,1.6,11.6,4.9,15.6C5.2,47.9,5.5,48,5.8,48h30c0.3,0,0.6-0.1,0.8-0.4   c3.2-4,4.9-9.2,4.9-15.6c0-7.8-2.5-13.2-6.5-21.3l0-2.4c6.1,0.5,11,5.6,11,11.9v19c0,0.6,0.4,1,1,1c0.6,0,1-0.4,1-1v-19   C47.9,12.9,42.1,6.9,34.9,6.4z M35.2,46h-29c-2.7-3.6-4.1-8.3-4.1-14c0-4.1,0.7-7.5,2-10.9c1.6,1.3,3.5,2,5.6,2   c2.4,0,4.6-0.9,6.2-2.6c2.7-2.7,7-2.7,9.6,0c1.7,1.7,3.9,2.6,6.2,2.6c2,0,4-0.7,5.6-2c1.3,3.5,2,6.9,2,10.9   C39.4,37.7,38,42.4,35.2,46z M36.6,19.1c-1.3,1.3-3,2-4.8,2c-1.8,0-3.5-0.7-4.8-2c-3.4-3.4-9-3.4-12.5,0c-1.3,1.3-3,2-4.8,2   c-1.8,0-3.5-0.7-4.8-2c0.8-2,1.8-4,2.9-6.3c0.6-1.2,0.8-2.6,0.4-3.9C7.6,6.4,6.1,4,4.1,2h25.6c1.8,0,3.2,1.4,3.2,3.2l0,5.8   c0,0.2,0,0.3,0.1,0.4C34.4,14.3,35.6,16.7,36.6,19.1z"/></g><text x="0" y="63" fill="#000000" font-size="5px" font-weight="bold" font-family="'Helvetica Neue', Helvetica, Arial-Unicode, Arial, Sans-serif">Created by Vectors Market</text><text x="0" y="68" fill="#000000" font-size="5px" font-weight="bold" font-family="'Helvetica Neue', Helvetica, Arial-Unicode, Arial, Sans-serif">from the Noun Project</text></svg>