<?xml version="1.0" encoding="iso-8859-1"?>
<!-- Generator: Adobe Illustrator 18.0.0, SVG Export Plug-In . SVG Version: 6.00 Build 0)  -->
<!DOCTYPE svg PUBLIC "-//W3C//DTD SVG 1.1//EN" "http://www.w3.org/Graphics/SVG/1.1/DTD/svg11.dtd">
<svg version="1.1" id="Layer_1" xmlns="http://www.w3.org/2000/svg" xmlns:xlink="http://www.w3.org/1999/xlink" x="0px" y="0px"
	 viewBox="0 0 24 24" style="enable-background:new 0 0 24 24;" xml:space="preserve">
<g>
	<path d="M4,17.5c-0.276,0-0.5-0.224-0.5-0.5V7c0-0.276,0.224-0.5,0.5-0.5S4.5,6.724,4.5,7v10C4.5,17.276,4.276,17.5,4,17.5z"/>
	<path d="M6,15.5c-0.276,0-0.5-0.224-0.5-0.5V7c0-0.276,0.224-0.5,0.5-0.5S6.5,6.724,6.5,7v8C6.5,15.276,6.276,15.5,6,15.5z"/>
	<path d="M8,15.5c-0.276,0-0.5-0.224-0.5-0.5V7c0-0.276,0.224-0.5,0.5-0.5S8.5,6.724,8.5,7v8C8.5,15.276,8.276,15.5,8,15.5z"/>
	<path d="M10,15.5c-0.276,0-0.5-0.224-0.5-0.5V7c0-0.276,0.224-0.5,0.5-0.5s0.5,0.224,0.5,0.5v8C10.5,15.276,10.276,15.5,10,15.5z"
		/>
	<path d="M12,17.5c-0.276,0-0.5-0.224-0.5-0.5V7c0-0.276,0.224-0.5,0.5-0.5s0.5,0.224,0.5,0.5v10C12.5,17.276,12.276,17.5,12,17.5z"
		/>
	<path d="M14,15.5c-0.276,0-0.5-0.224-0.5-0.5V7c0-0.276,0.224-0.5,0.5-0.5s0.5,0.224,0.5,0.5v8C14.5,15.276,14.276,15.5,14,15.5z"
		/>
	<path d="M16,15.5c-0.276,0-0.5-0.224-0.5-0.5V7c0-0.276,0.224-0.5,0.5-0.5s0.5,0.224,0.5,0.5v8C16.5,15.276,16.276,15.5,16,15.5z"
		/>
	<path d="M18,15.5c-0.276,0-0.5-0.224-0.5-0.5V7c0-0.276,0.224-0.5,0.5-0.5s0.5,0.224,0.5,0.5v8C18.5,15.276,18.276,15.5,18,15.5z"
		/>
	<path d="M20,17.5c-0.276,0-0.5-0.224-0.5-0.5V7c0-0.276,0.224-0.5,0.5-0.5s0.5,0.224,0.5,0.5v10C20.5,17.276,20.276,17.5,20,17.5z"
		/>
	<path d="M6,17.5c-0.13,0-0.26-0.05-0.35-0.15C5.55,17.26,5.5,17.13,5.5,17c0-0.13,0.05-0.26,0.15-0.35c0.18-0.19,0.52-0.19,0.7,0
		C6.45,16.74,6.5,16.87,6.5,17c0,0.13-0.05,0.26-0.15,0.35C6.26,17.45,6.13,17.5,6,17.5z"/>
	<path d="M8,17.5c-0.13,0-0.25-0.05-0.35-0.14C7.55,17.26,7.5,17.13,7.5,17c0-0.13,0.05-0.26,0.14-0.35c0.21-0.2,0.53-0.19,0.71,0
		C8.45,16.74,8.5,16.87,8.5,17c0,0.13-0.05,0.26-0.15,0.35C8.26,17.45,8.13,17.5,8,17.5z"/>
	<path d="M10,17.5c-0.13,0-0.26-0.05-0.35-0.15C9.55,17.26,9.5,17.13,9.5,17c0-0.13,0.05-0.26,0.14-0.35c0.19-0.19,0.53-0.19,0.71,0
		c0.1,0.09,0.15,0.22,0.15,0.35c0,0.13-0.05,0.26-0.15,0.35C10.26,17.45,10.13,17.5,10,17.5z"/>
	<path d="M14,17.5c-0.13,0-0.25-0.05-0.35-0.14c-0.1-0.1-0.15-0.23-0.15-0.36c0-0.13,0.05-0.26,0.14-0.35c0.21-0.2,0.53-0.19,0.71,0
		c0.1,0.09,0.15,0.22,0.15,0.35c0,0.13-0.05,0.26-0.15,0.35C14.26,17.45,14.13,17.5,14,17.5z"/>
	<path d="M16,17.5c-0.13,0-0.26-0.05-0.35-0.15c-0.1-0.09-0.15-0.22-0.15-0.35c0-0.13,0.05-0.26,0.15-0.35
		c0.18-0.19,0.52-0.19,0.7,0c0.1,0.09,0.15,0.22,0.15,0.35c0,0.13-0.05,0.26-0.15,0.35C16.26,17.45,16.13,17.5,16,17.5z"/>
	<path d="M18,17.5c-0.13,0-0.25-0.05-0.35-0.14c-0.1-0.11-0.15-0.23-0.15-0.36c0-0.13,0.05-0.26,0.14-0.35
		c0.21-0.2,0.53-0.19,0.71,0c0.1,0.09,0.15,0.22,0.15,0.35c0,0.13-0.05,0.26-0.15,0.35C18.26,17.45,18.13,17.5,18,17.5z"/>
	<path d="M1,7.5C0.724,7.5,0.5,7.276,0.5,7V4c0-0.276,0.224-0.5,0.5-0.5h3c0.276,0,0.5,0.224,0.5,0.5S4.276,4.5,4,4.5H1.5V7
		C1.5,7.276,1.276,7.5,1,7.5z"/>
	<path d="M4,20.5H1c-0.276,0-0.5-0.224-0.5-0.5v-3c0-0.276,0.224-0.5,0.5-0.5s0.5,0.224,0.5,0.5v2.5H4c0.276,0,0.5,0.224,0.5,0.5
		S4.276,20.5,4,20.5z"/>
	<path d="M23,7.5c-0.276,0-0.5-0.224-0.5-0.5V4.5H20c-0.276,0-0.5-0.224-0.5-0.5s0.224-0.5,0.5-0.5h3c0.276,0,0.5,0.224,0.5,0.5v3
		C23.5,7.276,23.276,7.5,23,7.5z"/>
	<path d="M23,20.5h-3c-0.276,0-0.5-0.224-0.5-0.5s0.224-0.5,0.5-0.5h2.5V17c0-0.276,0.224-0.5,0.5-0.5s0.5,0.224,0.5,0.5v3
		C23.5,20.276,23.276,20.5,23,20.5z"/>
</g>
<g>
</g>
<g>
</g>
<g>
</g>
<g>
</g>
<g>
</g>
<g>
</g>
<g>
</g>
<g>
</g>
<g>
</g>
<g>
</g>
<g>
</g>
<g>
</g>
<g>
</g>
<g>
</g>
<g>
</g>
</svg>
