<?xml version="1.0" encoding="UTF-8" standalone="no"?>
<svg
   xmlns:dc="http://purl.org/dc/elements/1.1/"
   xmlns:cc="http://creativecommons.org/ns#"
   xmlns:rdf="http://www.w3.org/1999/02/22-rdf-syntax-ns#"
   xmlns:svg="http://www.w3.org/2000/svg"
   xmlns="http://www.w3.org/2000/svg"
   xmlns:sodipodi="http://sodipodi.sourceforge.net/DTD/sodipodi-0.dtd"
   xmlns:inkscape="http://www.inkscape.org/namespaces/inkscape"
   inkscape:version="1.0 (4035a4fb49, 2020-05-01)"
   sodipodi:docname="collaboration.svg"
   id="svg128"
   xml:space="preserve"
   style="enable-background:new 0 0 24 24;"
   viewBox="0 0 24 24"
   y="0px"
   x="0px"
   version="1.1"><metadata
   id="metadata134"><rdf:RDF><cc:Work
       rdf:about=""><dc:format>image/svg+xml</dc:format><dc:type
         rdf:resource="http://purl.org/dc/dcmitype/StillImage" /></cc:Work></rdf:RDF></metadata><defs
   id="defs132" /><sodipodi:namedview
   inkscape:current-layer="svg128"
   inkscape:window-maximized="1"
   inkscape:window-y="1108"
   inkscape:window-x="0"
   inkscape:cy="9.0480866"
   inkscape:cx="-16.534943"
   inkscape:zoom="22.627417"
   showgrid="false"
   id="namedview130"
   inkscape:window-height="1026"
   inkscape:window-width="1920"
   inkscape:pageshadow="2"
   inkscape:pageopacity="0"
   guidetolerance="10"
   gridtolerance="10"
   objecttolerance="10"
   borderopacity="1"
   bordercolor="#666666"
   pagecolor="#ffffff" />
<g
   id="Mail">
</g>
<g
   id="Open_Mail">
</g>
<g
   id="Mail_Attachmet">
</g>
<g
   id="Mails">
</g>
<g
   id="Trash">
</g>
<g
   id="Trash_Full">
</g>
<g
   id="Preferences_1">
</g>
<g
   id="Preferences_2">
</g>
<g
   id="Mouse">
</g>
<g
   id="Computer">
</g>
<g
   id="Notebook">
</g>
<g
   id="Mobile_Phone">
</g>
<g
   id="Print">
</g>
<g
   id="Calculator">
</g>
<g
   id="Tag">
</g>
<g
   id="Paperclip">
</g>
<g
   id="Heart">
</g>
<g
   id="Lock">
</g>
<g
   id="Lock_Open">
</g>
<g
   id="Key_1">
</g>
<g
   id="Star">
</g>
<g
   id="Add">
</g>
<g
   id="Remove">
</g>
<g
   id="Error">
</g>
<g
   id="Check_1">
</g>
<g
   id="Time">
</g>
<g
   id="Question_Mark">
</g>
<g
   id="Error_Mark">
</g>
<g
   id="Sand-Glass">
</g>
<g
   id="Battery_Full">
</g>
<g
   id="Battery_Charge">
</g>
<g
   id="Battery_Half">
</g>
<g
   id="Battery_Low">
</g>
<g
   id="No_Battery">
</g>
<g
   id="Key_2">
</g>
<g
   id="Link">
</g>
<g
   id="Brake_Link">
</g>
<g
   id="Pencil">
</g>
<g
   id="At">
</g>
<g
   id="Reply">
</g>
<g
   id="Accessible">
</g>
<g
   id="Up_Arrow">
</g>
<g
   id="Brush">
</g>
<g
   id="Design_Mug">
</g>
<g
   id="Design">
</g>
<g
   id="Server">
</g>
<g
   id="Database">
</g>
<g
   id="Save">
</g>
<g
   id="Female">
</g>
<g
   id="Male">
</g>
<g
   id="Book">
</g>
<g
   id="Power">
</g>
<g
   id="Reload">
</g>
<g
   id="Map">
</g>
<g
   id="Loction_1">
</g>
<g
   id="Location_2">
</g>
<g
   id="Globe">
</g>
<g
   id="Suitcase">
</g>
<g
   id="Callendar">
</g>
<g
   id="Cloud_Off">
</g>
<g
   id="File_1">
</g>
<g
   id="File_2">
</g>
<g
   id="Folder">
</g>
<g
   id="Open_Folder">
</g>
<g
   id="Cloud">
</g>
<g
   id="Upload_Cloud">
</g>
<g
   id="Download_Cloud">
</g>
<g
   id="Eye">
</g>
<g
   id="Invisible">
</g>
<g
   id="Assignment">
</g>
<g
   id="Note_Book">
</g>
<g
   id="Webpage">
</g>
<g
   id="Mailbox">
</g>
<g
   id="Drive">
</g>
<g
   id="Disc">
</g>
<g
   id="Wifi_1">
</g>
<g
   id="Wifi_2">
</g>
<g
   id="Archive">
</g>
<g
   id="Archive_File">
</g>
<g
   id="News">
</g>
<g
   id="Home">
</g>
<g
   transform="matrix(1.0408789,0,0,1.0550154,0.08834597,-0.73713744)"
   id="Collaboration">
	<g
   id="g107">
		<g
   id="g85">
			<path
   id="path83"
   d="M 19.5,22 C 17.57,22 16,20.43 16,18.5 16,16.57 17.57,15 19.5,15 c 1.93,0 3.5,1.57 3.5,3.5 0,1.93 -1.57,3.5 -3.5,3.5 z m 0,-6 C 18.122,16 17,17.121 17,18.5 17,19.879 18.122,21 19.5,21 20.878,21 22,19.879 22,18.5 22,17.121 20.878,16 19.5,16 Z" />
		</g>
		<g
   id="g89">
			<path
   id="path87"
   d="M 11.5,8 C 9.57,8 8,6.43 8,4.5 8,2.57 9.57,1 11.5,1 13.43,1 15,2.57 15,4.5 15,6.43 13.43,8 11.5,8 Z m 0,-6 C 10.122,2 9,3.121 9,4.5 9,5.879 10.122,7 11.5,7 12.878,7 14,5.879 14,4.5 14,3.121 12.878,2 11.5,2 Z" />
		</g>
		<g
   id="g93">
			<path
   id="path91"
   d="M 3.5,22 C 1.57,22 0,20.43 0,18.5 0,16.57 1.57,15 3.5,15 5.43,15 7,16.57 7,18.5 7,20.43 5.43,22 3.5,22 Z m 0,-6 C 2.122,16 1,17.121 1,18.5 1,19.879 2.122,21 3.5,21 4.878,21 6,19.879 6,18.5 6,17.121 4.878,16 3.5,16 Z" />
		</g>
		<g
   id="g97">
			<path
   id="path95"
   d="M 11.5,23 C 9.301,23 7.157,22.231 5.462,20.835 5.249,20.659 5.218,20.345 5.394,20.131 5.569,19.919 5.884,19.886 6.098,20.064 7.614,21.313 9.533,22 11.5,22 c 1.969,0 3.889,-0.688 5.405,-1.939 0.214,-0.177 0.528,-0.146 0.704,0.067 0.176,0.213 0.146,0.528 -0.067,0.704 C 15.846,22.23 13.701,23 11.5,23 Z" />
		</g>
		<g
   id="g101">
			<path
   id="path99"
   d="m 20.254,16.099 c -0.039,0 -0.078,-0.004 -0.117,-0.014 -0.269,-0.064 -0.435,-0.334 -0.37,-0.603 C 19.922,14.839 20,14.172 20,13.5 20,9.904 17.724,6.684 14.337,5.485 14.077,5.392 13.941,5.107 14.033,4.846 14.125,4.586 14.409,4.45 14.671,4.541 18.457,5.882 21,9.481 21,13.5 c 0,0.75 -0.087,1.495 -0.26,2.215 -0.055,0.229 -0.26,0.384 -0.486,0.384 z" />
		</g>
		<g
   id="g105">
			<path
   id="path103"
   d="M 2.745,16.096 C 2.519,16.096 2.314,15.942 2.259,15.712 2.087,14.99 2,14.246 2,13.5 2,9.459 4.563,5.852 8.378,4.524 8.637,4.435 8.924,4.571 9.014,4.833 9.105,5.094 8.968,5.379 8.707,5.47 5.293,6.656 3,9.884 3,13.5 c 0,0.668 0.078,1.335 0.231,1.979 0.064,0.27 -0.102,0.539 -0.371,0.603 -0.038,0.01 -0.077,0.014 -0.115,0.014 z" />
		</g>
	</g>
</g>
<g
   id="Announcement">
</g>
<g
   id="Watch">
</g>
<g
   id="Clock">
</g>
<g
   id="Volume">
</g>
<g
   id="Mute">
</g>
<g
   id="Hand">
</g>
<g
   id="Layers">
</g>
<g
   id="Bell">
</g>
<g
   id="Speach_Bubble">
</g>
<g
   id="Speach_Bubbles">
</g>
<g
   id="Zoom_In">
</g>
<g
   id="Zoom_Out">
</g>
<g
   id="Search">
</g>
<g
   id="Back_Arrow">
</g>
<g
   id="Close">
</g>
<g
   id="Check_2">
</g>
<g
   id="Left_Arrow_2">
</g>
<g
   id="Right_Arrow_2">
</g>
</svg>
