<svg width="48" height="48" viewBox="0 0 24 24" xmlns="http://www.w3.org/2000/svg" aria-labelledby="supportIconTitle" stroke="#000" stroke-width="1.5" stroke-linecap="round" stroke-linejoin="round" fill="none" color="#000"><path d="m11 8-1.578-.789A2 2 0 0 0 8.528 7h-.7a2 2 0 0 0-1.414.586l-.828.828A2 2 0 0 0 5 9.828v5.102a2 2 0 0 0 .89 1.664l3.867 2.578a2 2 0 0 0 2.39-.128L17 15"/><path d="M14.455 12.914a2 2 0 0 0-2.59-.542l-1.856 1.055a1.523 1.523 0 0 1-1.83-.248v0a1.523 1.523 0 0 1 .102-2.247l4.163-3.468A2 2 0 0 1 13.724 7h.804a2 2 0 0 1 .894.211l2.472 1.236A2 2 0 0 1 19 10.237v2.743c0 1.924-2.451 2.738-3.602 1.196l-.943-1.262ZM1 17V8M1 17V8M23 17V8"/></svg>