<?xml version="1.0" encoding="iso-8859-1"?>
<!-- Generator: Adobe Illustrator 19.2.1, SVG Export Plug-In . SVG Version: 6.00 Build 0)  -->
<svg version="1.1" xmlns="http://www.w3.org/2000/svg" xmlns:xlink="http://www.w3.org/1999/xlink" x="0px" y="0px"
	 viewBox="0 0 24 24" style="enable-background:new 0 0 24 24;" xml:space="preserve">
<g id="Mail">
</g>
<g id="Open_Mail">
</g>
<g id="Mail_Attachmet">
</g>
<g id="Mails">
</g>
<g id="Trash">
</g>
<g id="Trash_Full">
</g>
<g id="Preferences_1">
</g>
<g id="Preferences_2">
</g>
<g id="Mouse">
</g>
<g id="Computer">
</g>
<g id="Notebook">
</g>
<g id="Mobile_Phone">
</g>
<g id="Print">
</g>
<g id="Calculator">
</g>
<g id="Tag">
</g>
<g id="Paperclip">
</g>
<g id="Heart">
</g>
<g id="Lock">
</g>
<g id="Lock_Open">
</g>
<g id="Key_1">
</g>
<g id="Star">
</g>
<g id="Add">
</g>
<g id="Remove">
</g>
<g id="Error">
</g>
<g id="Check_1">
</g>
<g id="Time">
</g>
<g id="Question_Mark">
</g>
<g id="Error_Mark">
</g>
<g id="Sand-Glass">
</g>
<g id="Battery_Full">
</g>
<g id="Battery_Charge">
</g>
<g id="Battery_Half">
</g>
<g id="Battery_Low">
</g>
<g id="No_Battery">
</g>
<g id="Key_2">
</g>
<g id="Link">
</g>
<g id="Brake_Link">
</g>
<g id="Pencil">
</g>
<g id="At">
</g>
<g id="Reply">
</g>
<g id="Accessible">
</g>
<g id="Up_Arrow">
</g>
<g id="Brush">
</g>
<g id="Design_Mug">
</g>
<g id="Design">
</g>
<g id="Server">
</g>
<g id="Database">
</g>
<g id="Save">
</g>
<g id="Female">
</g>
<g id="Male">
</g>
<g id="Book">
</g>
<g id="Power">
</g>
<g id="Reload">
</g>
<g id="Map">
</g>
<g id="Loction_1">
</g>
<g id="Location_2">
</g>
<g id="Globe">
</g>
<g id="Suitcase">
</g>
<g id="Callendar">
</g>
<g id="Cloud_Off">
</g>
<g id="File_1">
</g>
<g id="File_2">
</g>
<g id="Folder">
</g>
<g id="Open_Folder">
</g>
<g id="Cloud">
</g>
<g id="Upload_Cloud">
</g>
<g id="Download_Cloud">
</g>
<g id="Eye">
</g>
<g id="Invisible">
</g>
<g id="Assignment">
</g>
<g id="Note_Book">
</g>
<g id="Webpage">
</g>
<g id="Mailbox">
</g>
<g id="Drive">
</g>
<g id="Disc">
</g>
<g id="Wifi_1">
</g>
<g id="Wifi_2">
</g>
<g id="Archive">
	<g>
		<g>
			<g>
				<path d="M20.5,23.991h-17c-1.93,0-3.5-1.57-3.5-3.5v-11.5c0-0.746,0.231-1.458,0.67-2.06l3.227-4.898
					c0.836-1.268,2.241-2.024,3.759-2.024h9.239c1.172,0,2.261,0.583,2.912,1.559l3.605,5.408C23.797,7.554,24,8.225,24,8.917
					v11.574C24,22.421,22.43,23.991,20.5,23.991z M7.655,1.009c-1.181,0-2.273,0.589-2.924,1.575L1.499,7.492
					c-0.005,0.007-0.01,0.014-0.015,0.021C1.167,7.944,1,8.455,1,8.991v11.5c0,1.379,1.121,2.5,2.5,2.5h17
					c1.379,0,2.5-1.121,2.5-2.5V8.917c0-0.494-0.146-0.974-0.42-1.387l-3.605-5.408c-0.465-0.697-1.243-1.113-2.08-1.113H7.655z
					 M1.081,7.217h0.01H1.081z"/>
			</g>
			<g>
				<path d="M15.5,18.991h-7c-1.93,0-3.5-1.57-3.5-3.5v-5c0-0.817-0.665-1.482-1.482-1.482H1c-0.276,0-0.5-0.224-0.5-0.5
					s0.224-0.5,0.5-0.5h2.518C4.887,8.009,6,9.122,6,10.491v5c0,1.379,1.121,2.5,2.5,2.5h7c1.379,0,2.5-1.121,2.5-2.5v-4.982
					c0-1.379,1.121-2.5,2.5-2.5H23c0.276,0,0.5,0.224,0.5,0.5s-0.224,0.5-0.5,0.5h-2.5c-0.827,0-1.5,0.673-1.5,1.5v4.982
					C19,17.421,17.43,18.991,15.5,18.991z"/>
			</g>
		</g>
		<g>
			<path d="M17,8.991H7c-0.276,0-0.5-0.224-0.5-0.5s0.224-0.5,0.5-0.5h10c0.276,0,0.5,0.224,0.5,0.5S17.276,8.991,17,8.991z"/>
		</g>
		<g>
			<path d="M16.5,10.991h-9c-0.276,0-0.5-0.224-0.5-0.5s0.224-0.5,0.5-0.5h9c0.276,0,0.5,0.224,0.5,0.5S16.776,10.991,16.5,10.991z"
				/>
		</g>
		<g>
			<path d="M16.5,12.991h-9c-0.276,0-0.5-0.224-0.5-0.5s0.224-0.5,0.5-0.5h9c0.276,0,0.5,0.224,0.5,0.5S16.776,12.991,16.5,12.991z"
				/>
		</g>
		<g>
			<path d="M16.5,14.991h-9c-0.276,0-0.5-0.224-0.5-0.5s0.224-0.5,0.5-0.5h9c0.276,0,0.5,0.224,0.5,0.5S16.776,14.991,16.5,14.991z"
				/>
		</g>
		<g>
			<path d="M16,16.991H8c-0.276,0-0.5-0.224-0.5-0.5s0.224-0.5,0.5-0.5h8c0.276,0,0.5,0.224,0.5,0.5S16.276,16.991,16,16.991z"/>
		</g>
	</g>
</g>
<g id="Archive_File">
</g>
<g id="News">
</g>
<g id="Home">
</g>
<g id="Collaboration">
</g>
<g id="Announcement">
</g>
<g id="Watch">
</g>
<g id="Clock">
</g>
<g id="Volume">
</g>
<g id="Mute">
</g>
<g id="Hand">
</g>
<g id="Layers">
</g>
<g id="Bell">
</g>
<g id="Speach_Bubble">
</g>
<g id="Speach_Bubbles">
</g>
<g id="Zoom_In">
</g>
<g id="Zoom_Out">
</g>
<g id="Search">
</g>
<g id="Back_Arrow">
</g>
<g id="Close">
</g>
<g id="Check_2">
</g>
<g id="Left_Arrow_2">
</g>
<g id="Right_Arrow_2">
</g>
</svg>
