<?xml version="1.0" encoding="iso-8859-1"?>
<!-- Generator: Adobe Illustrator 19.0.0, SVG Export Plug-In . SVG Version: 6.00 Build 0)  -->
<svg version="1.1" id="Layer_1" xmlns="http://www.w3.org/2000/svg" xmlns:xlink="http://www.w3.org/1999/xlink" x="0px" y="0px"
	 viewBox="0 0 24 24" style="enable-background:new 0 0 24 24;" xml:space="preserve">
<g>
	<g>
		<path d="M7.5,17c1.378,0,2.5-1.122,2.5-2.5c0-0.509-0.155-0.981-0.417-1.376l2.54-2.54C12.519,10.845,12.991,11,13.5,11
			c1.378,0,2.5-1.122,2.5-2.5c0-0.232-0.042-0.452-0.102-0.666l2.663-1.775C19.02,6.628,19.714,7,20.5,7C21.878,7,23,5.878,23,4.5
			S21.878,2,20.5,2S18,3.122,18,4.5c0,0.232,0.042,0.452,0.101,0.665L15.438,6.94C14.979,6.372,14.285,6,13.5,6
			C12.122,6,11,7.122,11,8.5c0,0.509,0.155,0.981,0.417,1.376l-2.54,2.54C8.481,12.155,8.009,12,7.5,12C6.122,12,5,13.122,5,14.5
			S6.122,17,7.5,17z M20.5,3C21.327,3,22,3.673,22,4.5S21.327,6,20.5,6S19,5.327,19,4.5S19.673,3,20.5,3z M13.5,7
			C14.327,7,15,7.673,15,8.5S14.327,10,13.5,10S12,9.327,12,8.5S12.673,7,13.5,7z M7.5,13C8.327,13,9,13.673,9,14.5S8.327,16,7.5,16
			S6,15.327,6,14.5S6.673,13,7.5,13z M23.5,21H3V0.5C3,0.224,2.776,0,2.5,0S2,0.224,2,0.5V21H0.5C0.224,21,0,21.224,0,21.5
			S0.224,22,0.5,22H2v1.5C2,23.776,2.224,24,2.5,24S3,23.776,3,23.5V22h20.5c0.276,0,0.5-0.224,0.5-0.5S23.776,21,23.5,21z M20,8.5
			v11c0,0.276,0.224,0.5,0.5,0.5s0.5-0.224,0.5-0.5v-11C21,8.224,20.776,8,20.5,8S20,8.224,20,8.5z M7,18.5v1
			C7,19.776,7.224,20,7.5,20S8,19.776,8,19.5v-1C8,18.224,7.776,18,7.5,18S7,18.224,7,18.5z M13,12.5v7c0,0.276,0.224,0.5,0.5,0.5
			s0.5-0.224,0.5-0.5v-7c0-0.276-0.224-0.5-0.5-0.5S13,12.224,13,12.5z"/>
	</g>
</g>
</svg>
