<?xml version="1.0" encoding="UTF-8" standalone="no"?>
<!-- Created with Inkscape (http://www.inkscape.org/) -->

<svg
   xmlns:dc="http://purl.org/dc/elements/1.1/"
   xmlns:cc="http://creativecommons.org/ns#"
   xmlns:rdf="http://www.w3.org/1999/02/22-rdf-syntax-ns#"
   xmlns:svg="http://www.w3.org/2000/svg"
   xmlns="http://www.w3.org/2000/svg"
   xmlns:sodipodi="http://sodipodi.sourceforge.net/DTD/sodipodi-0.dtd"
   xmlns:inkscape="http://www.inkscape.org/namespaces/inkscape"
   width="68"
   height="130"
   viewBox="0 0 744.09449 1052.3622"
   id="svg4443"
   version="1.1"
   inkscape:version="0.92.3 (2405546, 2018-03-11)"
   sodipodi:docname="nova-group-4.svg">
  <defs
     id="defs4445" />
  <sodipodi:namedview
     id="base"
     pagecolor="#ffffff"
     bordercolor="#666666"
     borderopacity="1.0"
     inkscape:pageopacity="0.0"
     inkscape:pageshadow="2"
     inkscape:zoom="1.979899"
     inkscape:cx="77.552552"
     inkscape:cy="136.14203"
     inkscape:document-units="px"
     inkscape:current-layer="layer1"
     showgrid="false"
     inkscape:window-width="1920"
     inkscape:window-height="1017"
     inkscape:window-x="-8"
     inkscape:window-y="-8"
     inkscape:window-maximized="1" />
  <metadata
     id="metadata4448">
    <rdf:RDF>
      <cc:Work
         rdf:about="">
        <dc:format>image/svg+xml</dc:format>
        <dc:type
           rdf:resource="http://purl.org/dc/dcmitype/StillImage" />
        <dc:title />
      </cc:Work>
    </rdf:RDF>
  </metadata>
  <g
     inkscape:label="Calque 1"
     inkscape:groupmode="layer"
     id="layer1">
    <path
       style="opacity:1;fill:#ff0000;fill-opacity:1;fill-rule:nonzero;stroke-width:13.34501266"
       d="M -3.7001955e-6,208.84668 H 744.09448 V 1193.6776 H -3.7001955e-6 Z"
       id="rect855" />
    <g
       aria-label="NOVA"
       style="font-style:normal;font-variant:normal;font-weight:800;font-stretch:normal;font-size:267.97195435px;line-height:0%;font-family:Raleway;-inkscape-font-specification:'Raleway Ultra-Bold';letter-spacing:0px;word-spacing:0px;fill:#7d7d7d;fill-opacity:1;stroke:none;stroke-width:22.33099747px;stroke-linecap:butt;stroke-linejoin:miter;stroke-opacity:1"
       id="text4305">
      <path
         d="M 53.238054,28.894823 V 137.69144 H 9.2906535 V -52.568651 H 43.591064 L 132.28978,59.175654 V -52.568651 h 43.9474 V 137.69144 h -35.3723 z"
         style="font-style:normal;font-variant:normal;font-weight:800;font-stretch:normal;font-family:Raleway;-inkscape-font-specification:'Raleway Ultra-Bold';fill:#7d7d7d;fill-opacity:1;stroke-width:22.33099747px"
         id="path970" />
      <path
         d="m 296.22582,139.29927 q -21.16979,0 -38.58796,-8.30713 -17.41818,-8.30713 -29.74489,-21.70573 -12.32671,-13.66657 -19.29398,-31.084747 -6.6993,-17.418177 -6.6993,-35.908242 0,-18.758037 6.96727,-36.1762138 7.23524,-17.4181772 19.82993,-30.5488032 12.86265,-13.398597 30.28083,-21.169784 17.41817,-8.039159 38.05201,-8.039159 21.16979,0 38.58796,8.307131 17.41818,8.307131 29.74489,21.9737 12.32671,13.6665699 19.02601,31.0847469 6.6993,17.4181771 6.6993,35.3722981 0,18.758037 -7.23524,36.176214 -6.96727,17.418177 -19.56196,30.816779 -12.59468,13.13062 -30.01285,21.16978 -17.41818,8.03916 -38.05202,8.03916 z M 246.65101,42.829365 q 0,10.98685 3.21566,21.437756 3.21566,10.182935 9.37902,18.222093 6.43132,8.039159 15.81034,12.862654 9.37902,4.823492 21.43776,4.823492 12.59468,0 21.9737,-5.091464 9.37902,-5.091467 15.54237,-13.130626 6.16336,-8.30713 9.11105,-18.490065 3.21566,-10.450906 3.21566,-21.169784 0,-10.98685 -3.21566,-21.169784 -3.21566,-10.450907 -9.64699,-18.2220933 -6.43133,-8.0391586 -15.81035,-12.5946818 -9.11104,-4.8234949 -21.16978,-4.8234949 -12.59468,0 -21.9737,5.0914668 -9.11105,4.8234952 -15.54237,12.8626538 -6.16336,8.0391584 -9.37902,18.4900644 -2.94769,10.182935 -2.94769,20.901813 z"
         style="font-style:normal;font-variant:normal;font-weight:800;font-stretch:normal;font-family:Raleway;-inkscape-font-specification:'Raleway Ultra-Bold';fill:#7d7d7d;fill-opacity:1;stroke-width:22.33099747px"
         id="path972" />
      <path
         d="m 437.27955,-52.568651 44.75132,135.057865 44.21537,-135.057865 h 46.35915 L 500.52093,137.69144 H 463.5408 L 390.65243,-52.568651 Z"
         style="font-style:normal;font-variant:normal;font-weight:800;font-stretch:normal;font-family:Raleway;-inkscape-font-specification:'Raleway Ultra-Bold';fill:#7d7d7d;fill-opacity:1;stroke-width:22.33099747px"
         id="path974" />
      <path
         d="m 625.73922,-52.568651 h 39.65985 L 734.80381,137.69144 H 689.78452 L 675.04606,95.083896 h -59.2218 L 601.35377,137.69144 H 556.33448 Z M 667.81082,64.803065 645.56915,-2.4578954 622.79153,64.803065 Z"
         style="font-style:normal;font-variant:normal;font-weight:800;font-stretch:normal;font-family:Raleway;-inkscape-font-specification:'Raleway Ultra-Bold';fill:#7d7d7d;fill-opacity:1;stroke-width:22.33099747px"
         id="path976" />
    </g>
    <g
       aria-label="4"
       style="font-style:normal;font-weight:normal;font-size:829.6036377px;line-height:1.25;font-family:sans-serif;letter-spacing:0px;word-spacing:0px;fill:#ffffff;fill-opacity:1;stroke:none;stroke-width:20.74009132"
       id="text853">
      <path
         d="M 595.24626,874.63634 H 523.9522 V 997.37555 H 401.61807 V 874.63634 H 148.84821 V 787.54416 L 408.50442,405.14873 H 523.9522 v 372.26843 h 71.29406 z M 401.61807,777.41716 V 676.95735 q 0,-25.11496 2.02539,-72.91438 2.0254,-47.79943 3.24064,-55.49595 h -3.24064 q -14.98795,33.21655 -36.05211,64.81278 L 259.02994,777.41716 Z"
         style="font-style:normal;font-variant:normal;font-weight:bold;font-stretch:normal;font-family:'Open Sans';-inkscape-font-specification:'Open Sans Bold';fill:#ffffff;stroke-width:20.74009132"
         id="path979" />
    </g>
  </g>
</svg>
