<svg width="93.00000000000001" height="114.99999999999997" xmlns="http://www.w3.org/2000/svg" xmlns:xlink="http://www.w3.org/1999/xlink" version="1.1">
 <title>Artboard</title>
 <defs>
  <rect id="path-1" x="14" y="815" width="497" height="143" rx="20"/>
 </defs>
 <g>
  <title>Layer 1</title>
  <mask id="mask-2" fill="white">
   <use xlink:href="#path-1" id="svg_1"/>
  </mask>
  <path d="m79.46024,101.45104c17.37816,-17.37826 17.37816,-45.55423 0,-62.93249c-17.37844,-17.37843 -45.55417,-17.37843 -62.93261,0c-17.37836,17.37826 -17.37836,45.55423 0,62.93249c17.37844,17.37826 45.55417,17.37826 62.93261,0z" fill="#A08D84" id="svg_2"/>
  <path d="m47.99371,39.48473c1.38096,0 2.50015,-1.11932 2.50015,-2.5c0,-1.38068 -1.11919,-2.5 -2.50015,-2.5c-1.38066,0 -2.49985,1.11932 -2.49985,2.5c0,1.38068 1.11919,2.5 2.49985,2.5z" fill="#52443D" id="svg_3"/>
  <path d="m52.99386,53.48473c1.38058,0 2.5,-1.11954 2.5,-2.50015c0,-1.3806 -1.11942,-2.49985 -2.5,-2.49985c-1.38058,0 -2.5,1.11925 -2.5,2.49985c0,1.38061 1.11942,2.50015 2.5,2.50015z" fill="#52443D" id="svg_4"/>
  <path d="m34.24434,2.03396c-7.85715,3.95474 -12.67603,12.16235 -12.94656,20.37708c3.9698,1.1549 7.82564,2.96038 10.71675,6.07369c8.10965,-6.65395 10.90658,-18.1915 6.175,-28c-1.33606,0.39102 -2.65694,0.90083 -3.94519,1.54923z" fill="#52443D" id="svg_5"/>
  <path d="m4.5185,23.68669c-1.57013,0.74017 -3.00703,1.6287 -4.31408,2.63124c6.90985,6.98493 18.15526,9.17273 27.68595,4.67548c1.57019,-0.7402 3.00715,-1.62887 4.31405,-2.63138c-6.90965,-6.98493 -18.15532,-9.17268 -27.68592,-4.67534z" fill="#85746C" id="svg_6"/>
 </g>
</svg>