<?xml version="1.0" encoding="UTF-8" standalone="no"?>
<svg
   xmlns:dc="http://purl.org/dc/elements/1.1/"
   xmlns:cc="http://creativecommons.org/ns#"
   xmlns:rdf="http://www.w3.org/1999/02/22-rdf-syntax-ns#"
   xmlns:svg="http://www.w3.org/2000/svg"
   xmlns="http://www.w3.org/2000/svg"
   id="svg6616"
   version="1.1"
   viewBox="0 0 100 100"
   height="100"
   width="100">
  <g
     id="layer1">
    <rect
       style="opacity:1;fill:#d7e3f4;fill-opacity:1;fill-rule:nonzero;stroke:none;stroke-width:0.94086015;stroke-miterlimit:4;stroke-dasharray:none;stroke-opacity:1"
       id="rect6554"
       width="100"
       height="100"
       x="4.25e-007"
       y="4.590976e-006" />
    <path
       style="opacity:1;fill:#ffffff;fill-opacity:1;fill-rule:nonzero;stroke:none;stroke-width:0.54344803;stroke-linecap:round;stroke-linejoin:bevel;stroke-miterlimit:4;stroke-dasharray:none;stroke-dashoffset:0;stroke-opacity:1"
       d="m 33.851847,12.074597 c -1.7204,0 -3.105401,1.385029 -3.105401,3.105425 v 2.20732 h 38.507112 v -2.20732 c 0,-1.720396 -1.385001,-3.105425 -3.105404,-3.105425 z m -3.183099,5.960436 c -0.645149,0 -1.164482,0.51932 -1.164482,1.164486 0,0.645131 0.519333,1.164592 1.164482,1.164592 h 39.128256 c 0.645152,0 1.164593,-0.519461 1.164593,-1.164592 0,-0.645166 -0.519441,-1.164486 -1.164593,-1.164486 H 69.253558 30.746446 Z m 0.518291,2.703348 c -0.244084,0 -0.440593,0.196505 -0.440593,0.440589 0,0.244085 0.196509,0.44059 0.440593,0.44059 h 37.625922 c 0.244084,0 0.440597,-0.196505 0.440597,-0.44059 0,-0.244084 -0.196513,-0.440589 -0.440597,-0.440589 z m -0.867601,1.333645 c -0.451606,0 -0.815172,0.363566 -0.815172,0.815179 0,0.451613 0.363566,0.815179 0.815172,0.815179 h 39.749291 c 0.451606,0 0.815172,-0.363566 0.815172,-0.815179 0,-0.451613 -0.363566,-0.815179 -0.815172,-0.815179 z m 0.427008,2.299492 v 1.674168 c -5.03021,2.222753 -8.524068,7.247356 -8.524068,13.11875 V 78.33716 c 0,9.011064 7.117006,13.873975 27.777624,13.873975 20.8344,-0.01565 27.777621,-4.834605 27.777621,-13.873975 V 39.164436 c 0,-5.871394 -3.493855,-10.895997 -8.524065,-13.11875 v -1.674168 z"
       id="path6556" />
  </g>
</svg>
