<?xml version="1.0" encoding="UTF-8"?>
<svg xmlns="http://www.w3.org/2000/svg" xmlns:xlink="http://www.w3.org/1999/xlink" width="36pt" height="36pt" viewBox="0 0 36 36" version="1.1">
<defs>
<radialGradient id="radial0" gradientUnits="userSpaceOnUse" cx="26.827999" cy="24.785999" fx="26.827999" fy="24.785999" r="4.219" gradientTransform="matrix(0.75,0,0,-0.780525,0,38.256)">
<stop offset="0" style="stop-color:rgb(97.647059%,74.901962%,12.54902%);stop-opacity:1;"/>
<stop offset="0.856" style="stop-color:rgb(97.647059%,74.901962%,12.54902%);stop-opacity:1;"/>
<stop offset="0.997" style="stop-color:rgb(97.647059%,74.901962%,12.54902%);stop-opacity:1;"/>
</radialGradient>
<radialGradient id="radial1" gradientUnits="userSpaceOnUse" cx="26.731001" cy="24.761999" fx="26.731001" fy="24.761999" r="4.108" gradientTransform="matrix(0.75,0,0,-0.780525,0,38.25525)">
<stop offset="0" style="stop-color:rgb(97.254902%,71.764708%,11.764706%);stop-opacity:1;"/>
<stop offset="0.856" style="stop-color:rgb(97.254902%,71.764708%,11.764706%);stop-opacity:1;"/>
<stop offset="0.997" style="stop-color:rgb(97.254902%,71.764708%,11.764706%);stop-opacity:1;"/>
</radialGradient>
<radialGradient id="radial2" gradientUnits="userSpaceOnUse" cx="26.632999" cy="24.737" fx="26.632999" fy="24.737" r="3.997" gradientTransform="matrix(0.75,0,0,-0.780525,0,38.2545)">
<stop offset="0" style="stop-color:rgb(96.470588%,69.01961%,10.980392%);stop-opacity:1;"/>
<stop offset="0.856" style="stop-color:rgb(96.470588%,69.01961%,10.980392%);stop-opacity:1;"/>
<stop offset="0.997" style="stop-color:rgb(96.470588%,69.01961%,10.980392%);stop-opacity:1;"/>
</radialGradient>
<radialGradient id="radial3" gradientUnits="userSpaceOnUse" cx="26.537001" cy="24.712" fx="26.537001" fy="24.712" r="3.886" gradientTransform="matrix(0.75,0,0,-0.780525,0,38.253751)">
<stop offset="0" style="stop-color:rgb(96.078432%,66.274512%,9.803922%);stop-opacity:1;"/>
<stop offset="0.856" style="stop-color:rgb(96.078432%,66.274512%,9.803922%);stop-opacity:1;"/>
<stop offset="0.997" style="stop-color:rgb(96.078432%,66.274512%,9.803922%);stop-opacity:1;"/>
</radialGradient>
<radialGradient id="radial4" gradientUnits="userSpaceOnUse" cx="26.441" cy="24.688" fx="26.441" fy="24.688" r="3.776" gradientTransform="matrix(0.75,0,0,-0.780525,0,38.253001)">
<stop offset="0" style="stop-color:rgb(95.294118%,63.529414%,9.019608%);stop-opacity:1;"/>
<stop offset="0.856" style="stop-color:rgb(95.294118%,63.529414%,9.019608%);stop-opacity:1;"/>
<stop offset="0.997" style="stop-color:rgb(95.294118%,63.529414%,9.019608%);stop-opacity:1;"/>
</radialGradient>
<radialGradient id="radial5" gradientUnits="userSpaceOnUse" cx="26.347" cy="24.663" fx="26.347" fy="24.663" r="3.667" gradientTransform="matrix(0.75,0,0,-0.780525,0,38.252249)">
<stop offset="0" style="stop-color:rgb(94.901961%,60.392159%,8.235294%);stop-opacity:1;"/>
<stop offset="0.856" style="stop-color:rgb(94.901961%,60.392159%,8.235294%);stop-opacity:1;"/>
<stop offset="0.997" style="stop-color:rgb(94.901961%,60.392159%,8.235294%);stop-opacity:1;"/>
</radialGradient>
<radialGradient id="radial6" gradientUnits="userSpaceOnUse" cx="26.256001" cy="24.639" fx="26.256001" fy="24.639" r="3.561" gradientTransform="matrix(0.75,0,0,-0.780525,0,38.251499)">
<stop offset="0" style="stop-color:rgb(94.117647%,57.647061%,7.450981%);stop-opacity:1;"/>
<stop offset="0.856" style="stop-color:rgb(94.117647%,57.647061%,7.450981%);stop-opacity:1;"/>
<stop offset="0.997" style="stop-color:rgb(94.117647%,57.647061%,7.450981%);stop-opacity:1;"/>
</radialGradient>
<radialGradient id="radial7" gradientUnits="userSpaceOnUse" cx="-109.171997" cy="24.785999" fx="-109.171997" fy="24.785999" r="4.219" gradientTransform="matrix(-0.75,0,0,-0.780525,-66.007502,38.256)">
<stop offset="0" style="stop-color:rgb(97.647059%,74.901962%,12.54902%);stop-opacity:1;"/>
<stop offset="0.856" style="stop-color:rgb(97.647059%,74.901962%,12.54902%);stop-opacity:1;"/>
<stop offset="0.997" style="stop-color:rgb(97.647059%,74.901962%,12.54902%);stop-opacity:1;"/>
</radialGradient>
<radialGradient id="radial8" gradientUnits="userSpaceOnUse" cx="-109.273003" cy="24.761999" fx="-109.273003" fy="24.761999" r="4.11" gradientTransform="matrix(-0.75,0,0,-0.780525,-66.007502,38.25525)">
<stop offset="0" style="stop-color:rgb(97.254902%,71.764708%,11.764706%);stop-opacity:1;"/>
<stop offset="0.856" style="stop-color:rgb(97.254902%,71.764708%,11.764706%);stop-opacity:1;"/>
<stop offset="0.997" style="stop-color:rgb(97.254902%,71.764708%,11.764706%);stop-opacity:1;"/>
</radialGradient>
<radialGradient id="radial9" gradientUnits="userSpaceOnUse" cx="-109.366997" cy="24.737" fx="-109.366997" fy="24.737" r="3.997" gradientTransform="matrix(-0.75,0,0,-0.780525,-66.007502,38.2545)">
<stop offset="0" style="stop-color:rgb(96.470588%,69.01961%,10.980392%);stop-opacity:1;"/>
<stop offset="0.856" style="stop-color:rgb(96.470588%,69.01961%,10.980392%);stop-opacity:1;"/>
<stop offset="0.997" style="stop-color:rgb(96.470588%,69.01961%,10.980392%);stop-opacity:1;"/>
</radialGradient>
<radialGradient id="radial10" gradientUnits="userSpaceOnUse" cx="-109.462997" cy="24.712" fx="-109.462997" fy="24.712" r="3.886" gradientTransform="matrix(-0.75,0,0,-0.780525,-66.007502,38.253751)">
<stop offset="0" style="stop-color:rgb(96.078432%,66.274512%,9.803922%);stop-opacity:1;"/>
<stop offset="0.856" style="stop-color:rgb(96.078432%,66.274512%,9.803922%);stop-opacity:1;"/>
<stop offset="0.997" style="stop-color:rgb(96.078432%,66.274512%,9.803922%);stop-opacity:1;"/>
</radialGradient>
<radialGradient id="radial11" gradientUnits="userSpaceOnUse" cx="-109.558998" cy="24.688" fx="-109.558998" fy="24.688" r="3.776" gradientTransform="matrix(-0.75,0,0,-0.780525,-66.007502,38.253001)">
<stop offset="0" style="stop-color:rgb(95.294118%,63.529414%,9.019608%);stop-opacity:1;"/>
<stop offset="0.856" style="stop-color:rgb(95.294118%,63.529414%,9.019608%);stop-opacity:1;"/>
<stop offset="0.997" style="stop-color:rgb(95.294118%,63.529414%,9.019608%);stop-opacity:1;"/>
</radialGradient>
<radialGradient id="radial12" gradientUnits="userSpaceOnUse" cx="-109.653" cy="24.663" fx="-109.653" fy="24.663" r="3.667" gradientTransform="matrix(-0.75,0,0,-0.780525,-66.007502,38.252249)">
<stop offset="0" style="stop-color:rgb(94.901961%,60.392159%,8.235294%);stop-opacity:1;"/>
<stop offset="0.856" style="stop-color:rgb(94.901961%,60.392159%,8.235294%);stop-opacity:1;"/>
<stop offset="0.997" style="stop-color:rgb(94.901961%,60.392159%,8.235294%);stop-opacity:1;"/>
</radialGradient>
<radialGradient id="radial13" gradientUnits="userSpaceOnUse" cx="-109.744003" cy="24.639" fx="-109.744003" fy="24.639" r="3.561" gradientTransform="matrix(-0.75,0,0,-0.780525,-66.007502,38.251499)">
<stop offset="0" style="stop-color:rgb(94.117647%,57.647061%,7.450981%);stop-opacity:1;"/>
<stop offset="0.856" style="stop-color:rgb(94.117647%,57.647061%,7.450981%);stop-opacity:1;"/>
<stop offset="0.997" style="stop-color:rgb(94.117647%,57.647061%,7.450981%);stop-opacity:1;"/>
</radialGradient>
<linearGradient id="linear0" gradientUnits="userSpaceOnUse" x1="13.582" y1="28.083" x2="31.795" y2="6.959" gradientTransform="matrix(0.75,0,0,-0.75,0,37.5)">
<stop offset="0" style="stop-color:rgb(100%,88.235295%,43.137255%);stop-opacity:1;"/>
<stop offset="0.352" style="stop-color:rgb(100%,82.352942%,14.901961%);stop-opacity:1;"/>
<stop offset="0.453" style="stop-color:rgb(99.215686%,80.392158%,13.725491%);stop-opacity:1;"/>
<stop offset="0.579" style="stop-color:rgb(96.470588%,74.117649%,10.588235%);stop-opacity:1;"/>
<stop offset="0.663" style="stop-color:rgb(94.117647%,68.627453%,7.450981%);stop-opacity:1;"/>
<stop offset="1" style="stop-color:rgb(94.117647%,55.29412%,7.450981%);stop-opacity:1;"/>
</linearGradient>
<linearGradient id="linear1" gradientUnits="userSpaceOnUse" x1="32.035" y1="7.965" x2="14.354" y2="25.646" gradientTransform="matrix(0.75,0,0,-0.75,0,37.5)">
<stop offset="0" style="stop-color:rgb(100%,88.235295%,43.137255%);stop-opacity:1;"/>
<stop offset="0.352" style="stop-color:rgb(100%,82.352942%,14.901961%);stop-opacity:1;"/>
<stop offset="0.453" style="stop-color:rgb(99.215686%,80.392158%,13.725491%);stop-opacity:1;"/>
<stop offset="0.579" style="stop-color:rgb(96.470588%,74.117649%,10.588235%);stop-opacity:1;"/>
<stop offset="0.663" style="stop-color:rgb(94.117647%,68.627453%,7.450981%);stop-opacity:1;"/>
<stop offset="1" style="stop-color:rgb(94.117647%,55.29412%,7.450981%);stop-opacity:1;"/>
</linearGradient>
<linearGradient id="linear2" gradientUnits="userSpaceOnUse" x1="17.055" y1="24.231001" x2="30.841999" y2="7.891" gradientTransform="matrix(0.75,0,0,-0.75,0,37.5)">
<stop offset="0" style="stop-color:rgb(100%,90.588236%,52.941179%);stop-opacity:1;"/>
<stop offset="0.525" style="stop-color:rgb(100%,88.235295%,43.137255%);stop-opacity:1;"/>
<stop offset="1" style="stop-color:rgb(94.117647%,73.725492%,7.450981%);stop-opacity:1;"/>
</linearGradient>
<linearGradient id="linear3" gradientUnits="userSpaceOnUse" x1="14.026" y1="45.923" x2="22.228001" y2="34.210999" gradientTransform="matrix(0.75,0,0,-0.75,0,37.5)">
<stop offset="0" style="stop-color:rgb(97.647059%,91.764706%,90.588236%);stop-opacity:1;"/>
<stop offset="0.616" style="stop-color:rgb(94.117647%,84.313726%,83.529413%);stop-opacity:1;"/>
<stop offset="0.69" style="stop-color:rgb(87.843138%,77.254903%,76.47059%);stop-opacity:1;"/>
<stop offset="0.896" style="stop-color:rgb(72.156864%,59.607846%,58.823532%);stop-opacity:1;"/>
<stop offset="1" style="stop-color:rgb(65.882355%,52.549022%,52.156866%);stop-opacity:1;"/>
</linearGradient>
<linearGradient id="linear4" gradientUnits="userSpaceOnUse" x1="10.827" y1="46.122002" x2="20.232" y2="33.143002" gradientTransform="matrix(0.75,0,0,-0.75,0,37.5)">
<stop offset="0.614" style="stop-color:rgb(99.607843%,27.058825%,19.607843%);stop-opacity:1;"/>
<stop offset="0.751" style="stop-color:rgb(88.627452%,22.745098%,16.470589%);stop-opacity:1;"/>
<stop offset="0.907" style="stop-color:rgb(78.431374%,19.215687%,13.333334%);stop-opacity:1;"/>
<stop offset="1" style="stop-color:rgb(74.901962%,17.647059%,12.156863%);stop-opacity:1;"/>
</linearGradient>
<linearGradient id="linear5" gradientUnits="userSpaceOnUse" x1="16.033001" y1="46.313" x2="23.368" y2="36.278999" gradientTransform="matrix(0.75,0,0,-0.75,0,37.5)">
<stop offset="0" style="stop-color:rgb(11.372549%,40.392157%,73.333335%);stop-opacity:1;"/>
<stop offset="0.638" style="stop-color:rgb(1.176471%,32.549021%,68.235296%);stop-opacity:1;"/>
<stop offset="0.746" style="stop-color:rgb(0.784314%,28.235295%,59.607846%);stop-opacity:1;"/>
<stop offset="0.906" style="stop-color:rgb(0.392157%,23.137255%,49.019608%);stop-opacity:1;"/>
<stop offset="1" style="stop-color:rgb(0.392157%,21.176471%,45.09804%);stop-opacity:1;"/>
</linearGradient>
<linearGradient id="linear6" gradientUnits="userSpaceOnUse" x1="28.870001" y1="45.644001" x2="28.870001" y2="28.745001" gradientTransform="matrix(0.75,0,0,-0.75,0,37.5)">
<stop offset="0" style="stop-color:rgb(100%,97.254902%,96.078432%);stop-opacity:1;"/>
<stop offset="0.278" style="stop-color:rgb(100%,94.901961%,93.725491%);stop-opacity:1;"/>
<stop offset="0.427" style="stop-color:rgb(100%,97.254902%,96.078432%);stop-opacity:1;"/>
<stop offset="0.508" style="stop-color:rgb(98.431373%,93.333334%,92.54902%);stop-opacity:1;"/>
<stop offset="0.63" style="stop-color:rgb(94.117647%,84.313726%,83.529413%);stop-opacity:1;"/>
<stop offset="1" style="stop-color:rgb(70.980394%,60.000002%,59.215689%);stop-opacity:1;"/>
</linearGradient>
<linearGradient id="linear7" gradientUnits="userSpaceOnUse" x1="31.65" y1="47.446999" x2="31.65" y2="30.677999" gradientTransform="matrix(0.75,0,0,-0.75,0,37.5)">
<stop offset="0" style="stop-color:rgb(100%,42.352942%,27.843139%);stop-opacity:1;"/>
<stop offset="0.2" style="stop-color:rgb(100%,40.392157%,26.666668%);stop-opacity:1;"/>
<stop offset="0.445" style="stop-color:rgb(99.607843%,34.509805%,23.529412%);stop-opacity:1;"/>
<stop offset="0.657" style="stop-color:rgb(99.607843%,27.058825%,19.607843%);stop-opacity:1;"/>
<stop offset="1" style="stop-color:rgb(83.137256%,21.960784%,16.078432%);stop-opacity:1;"/>
</linearGradient>
<linearGradient id="linear8" gradientUnits="userSpaceOnUse" x1="26.254999" y1="47" x2="26.254999" y2="30" gradientTransform="matrix(0.75,0,0,-0.75,0,37.5)">
<stop offset="0" style="stop-color:rgb(27.450982%,52.549022%,81.176472%);stop-opacity:1;"/>
<stop offset="0.77" style="stop-color:rgb(1.176471%,32.549021%,68.235296%);stop-opacity:1;"/>
<stop offset="1" style="stop-color:rgb(0.392157%,21.176471%,45.09804%);stop-opacity:1;"/>
</linearGradient>
<linearGradient id="linear9" gradientUnits="userSpaceOnUse" x1="21.35" y1="32" x2="21.35" y2="28" gradientTransform="matrix(0.75,0,0,-0.75,0,37.5)">
<stop offset="0" style="stop-color:rgb(27.450982%,52.549022%,81.176472%);stop-opacity:1;"/>
<stop offset="0.77" style="stop-color:rgb(1.176471%,32.549021%,68.235296%);stop-opacity:1;"/>
<stop offset="1" style="stop-color:rgb(0.392157%,21.176471%,45.09804%);stop-opacity:1;"/>
</linearGradient>
<linearGradient id="linear10" gradientUnits="userSpaceOnUse" x1="23.950001" y1="31.681" x2="23.950001" y2="27.705" gradientTransform="matrix(0.75,0,0,-0.75,0,37.5)">
<stop offset="0" style="stop-color:rgb(100%,97.254902%,96.078432%);stop-opacity:1;"/>
<stop offset="0.274" style="stop-color:rgb(98.431373%,93.333334%,92.54902%);stop-opacity:1;"/>
<stop offset="0.689" style="stop-color:rgb(94.117647%,84.313726%,83.529413%);stop-opacity:1;"/>
<stop offset="1" style="stop-color:rgb(70.980394%,60.000002%,59.215689%);stop-opacity:1;"/>
</linearGradient>
<linearGradient id="linear11" gradientUnits="userSpaceOnUse" x1="26.65" y1="32.105" x2="26.65" y2="28.16" gradientTransform="matrix(0.75,0,0,-0.75,0,37.5)">
<stop offset="0" style="stop-color:rgb(100%,42.352942%,27.843139%);stop-opacity:1;"/>
<stop offset="0.2" style="stop-color:rgb(100%,40.392157%,26.666668%);stop-opacity:1;"/>
<stop offset="0.445" style="stop-color:rgb(99.607843%,34.509805%,23.529412%);stop-opacity:1;"/>
<stop offset="0.657" style="stop-color:rgb(99.607843%,27.058825%,19.607843%);stop-opacity:1;"/>
<stop offset="1" style="stop-color:rgb(83.137256%,21.960784%,16.078432%);stop-opacity:1;"/>
</linearGradient>
<filter id="alpha" filterUnits="objectBoundingBox" x="0%" y="0%" width="100%" height="100%">
  <feColorMatrix type="matrix" in="SourceGraphic" values="0 0 0 0 1 0 0 0 0 1 0 0 0 0 1 0 0 0 1 0"/>
</filter>
<mask id="mask0">
  <g filter="url(#alpha)">
<rect x="0" y="0" width="36" height="36" style="fill:rgb(0%,0%,0%);fill-opacity:0.6;stroke:none;"/>
  </g>
</mask>
<linearGradient id="linear12" gradientUnits="userSpaceOnUse" x1="29.344999" y1="44.195999" x2="29.344999" y2="36.581001" gradientTransform="matrix(0.75,0,0,-0.75,0,37.5)">
<stop offset="0" style="stop-color:rgb(100%,97.254902%,96.078432%);stop-opacity:0;"/>
<stop offset="0.54" style="stop-color:rgb(100%,97.254902%,96.078432%);stop-opacity:0.6;"/>
<stop offset="1" style="stop-color:rgb(100%,97.254902%,96.078432%);stop-opacity:0;"/>
</linearGradient>
<clipPath id="clip1">
  <rect x="0" y="0" width="36" height="36"/>
</clipPath>
<g id="surface4563" clip-path="url(#clip1)">
<path style=" stroke:none;fill-rule:nonzero;fill:url(#linear12);" d="M 27.425781 3.75 L 26.355469 5.25 L 23.675781 9 L 22.605469 10.5 L 16.589844 10.5 L 17.664062 9 L 20.347656 5.25 L 21.425781 3.75 Z M 27.425781 3.75 "/>
</g>
<linearGradient id="linear13" gradientUnits="userSpaceOnUse" x1="7.752" y1="38.032001" x2="36.353001" y2="1.011" gradientTransform="matrix(0.75,0,0,-0.75,0,37.5)">
<stop offset="0" style="stop-color:rgb(100%,88.235295%,43.137255%);stop-opacity:1;"/>
<stop offset="0.352" style="stop-color:rgb(100%,82.352942%,14.901961%);stop-opacity:1;"/>
<stop offset="0.49" style="stop-color:rgb(96.078432%,72.941178%,9.803922%);stop-opacity:1;"/>
<stop offset="0.581" style="stop-color:rgb(94.117647%,68.627453%,7.450981%);stop-opacity:1;"/>
<stop offset="1" style="stop-color:rgb(94.117647%,55.29412%,7.450981%);stop-opacity:1;"/>
</linearGradient>
<radialGradient id="radial14" gradientUnits="userSpaceOnUse" cx="25.211" cy="15.147" fx="25.211" fy="15.147" r="15.26" gradientTransform="matrix(0.75,0,0,-0.75,0,37.875)">
<stop offset="0" style="stop-color:rgb(100%,95.294118%,76.078433%);stop-opacity:0;"/>
<stop offset="0.725" style="stop-color:rgb(100%,95.294118%,76.078433%);stop-opacity:0;"/>
<stop offset="0.83" style="stop-color:rgb(100%,95.294118%,76.078433%);stop-opacity:1;"/>
<stop offset="0.962" style="stop-color:rgb(100%,95.294118%,76.078433%);stop-opacity:0;"/>
</radialGradient>
<radialGradient id="radial15" gradientUnits="userSpaceOnUse" cx="24.403999" cy="17.84" fx="24.403999" fy="17.84" r="13.683" gradientTransform="matrix(0.75,0,0,-0.75,0,37.5)">
<stop offset="0" style="stop-color:rgb(100%,89.411765%,46.666667%);stop-opacity:0;"/>
<stop offset="0.725" style="stop-color:rgb(100%,89.411765%,46.666667%);stop-opacity:0;"/>
<stop offset="0.83" style="stop-color:rgb(100%,93.333334%,67.058825%);stop-opacity:1;"/>
<stop offset="0.962" style="stop-color:rgb(100%,89.411765%,46.666667%);stop-opacity:0;"/>
</radialGradient>
<radialGradient id="radial16" gradientUnits="userSpaceOnUse" cx="24.403999" cy="17.84" fx="24.403999" fy="17.84" r="13.683" gradientTransform="matrix(0.75,0,0,-0.75,0,37.5)">
<stop offset="0" style="stop-color:rgb(100%,95.294118%,76.078433%);stop-opacity:0;"/>
<stop offset="0.725" style="stop-color:rgb(100%,95.294118%,76.078433%);stop-opacity:0;"/>
<stop offset="0.83" style="stop-color:rgb(100%,95.294118%,76.078433%);stop-opacity:1;"/>
<stop offset="0.962" style="stop-color:rgb(100%,95.294118%,76.078433%);stop-opacity:0;"/>
</radialGradient>
</defs>
<g id="surface4520">
<path style=" stroke:none;fill-rule:nonzero;fill:rgb(100%,94.509804%,72.156864%);fill-opacity:1;" d="M 17.246094 14.046875 L 20.609375 14.035156 C 21.457031 14.042969 22.417969 14.773438 22.542969 15.484375 L 23.265625 20.761719 C 23.289062 20.980469 23.113281 21.265625 23.191406 21.390625 C 23.402344 21.226562 23.527344 20.960938 23.488281 20.679688 L 22.878906 15.792969 C 22.730469 14.617188 21.726562 13.734375 20.546875 13.734375 L 17.253906 13.734375 Z M 17.246094 14.046875 "/>
<path style=" stroke:none;fill-rule:nonzero;fill:rgb(99.607843%,90.980393%,60.392159%);fill-opacity:1;" d="M 17.839844 14.386719 C 17.914062 14.386719 20.710938 14.433594 20.722656 14.511719 C 21.398438 14.515625 22.285156 16.039062 22.386719 16.605469 C 22.394531 16.6875 23.050781 20.96875 23.132812 20.957031 C 23.179688 21.128906 23.0625 21.347656 23.144531 21.429688 C 23.355469 21.269531 23.480469 21.003906 23.441406 20.726562 L 22.835938 15.878906 C 22.6875 14.714844 21.695312 13.839844 20.523438 13.839844 L 17.25 13.839844 L 17.25 14.25 Z M 17.839844 14.386719 "/>
<path style=" stroke:none;fill-rule:nonzero;fill:rgb(99.215686%,87.843138%,48.627451%);fill-opacity:1;" d="M 18.484375 14.726562 C 18.636719 14.726562 20.8125 14.835938 20.835938 14.984375 C 21.34375 14.988281 22.152344 17.300781 22.226562 17.726562 C 22.25 17.890625 22.832031 21.175781 22.996094 21.152344 C 23.066406 21.277344 23.011719 21.429688 23.097656 21.472656 C 23.304688 21.308594 23.429688 21.046875 23.390625 20.769531 L 22.789062 15.964844 C 22.644531 14.8125 21.660156 13.941406 20.496094 13.941406 L 17.25 13.941406 L 17.25 14.542969 Z M 18.484375 14.726562 "/>
<path style=" stroke:none;fill-rule:nonzero;fill:rgb(99.215686%,84.313726%,36.862746%);fill-opacity:1;" d="M 19.078125 15.066406 C 19.308594 15.066406 20.867188 15.234375 20.898438 15.460938 C 21.234375 15.460938 21.96875 18.5625 22.019531 18.847656 C 22.050781 19.09375 22.5625 21.378906 22.808594 21.347656 C 22.90625 21.425781 22.910156 21.511719 23 21.511719 C 23.207031 21.351562 23.328125 21.089844 23.289062 20.816406 L 22.695312 16.050781 C 22.550781 14.90625 21.574219 14.042969 20.421875 14.042969 L 17.246094 14.042969 L 17.25 14.945312 Z M 19.078125 15.066406 "/>
<path style=" stroke:none;fill-rule:nonzero;fill:rgb(98.823529%,81.176472%,25.098041%);fill-opacity:1;" d="M 19.777344 15.410156 C 20.082031 15.410156 21.015625 15.636719 21.058594 15.933594 C 21.226562 15.9375 21.890625 19.828125 21.914062 19.96875 C 21.957031 20.300781 22.394531 21.589844 22.722656 21.546875 C 22.84375 21.578125 22.910156 21.59375 23.003906 21.554688 C 23.207031 21.394531 23.328125 21.136719 23.289062 20.863281 L 22.699219 16.136719 C 22.554688 15.003906 21.589844 14.148438 20.445312 14.148438 L 17.246094 14.148438 L 17.238281 15.347656 Z M 19.777344 15.410156 "/>
<path style=" stroke:none;fill-rule:nonzero;fill:rgb(100%,94.509804%,72.156864%);fill-opacity:1;" d="M 18.753906 14.046875 L 15.386719 14.035156 C 14.542969 14.042969 13.582031 14.773438 13.457031 15.484375 L 12.730469 20.761719 C 12.707031 20.980469 12.886719 21.265625 12.808594 21.390625 C 12.597656 21.226562 12.472656 20.960938 12.511719 20.679688 L 13.121094 15.792969 C 13.269531 14.617188 14.269531 13.734375 15.453125 13.734375 L 18.746094 13.734375 Z M 18.753906 14.046875 "/>
<path style=" stroke:none;fill-rule:nonzero;fill:rgb(99.607843%,90.980393%,60.392159%);fill-opacity:1;" d="M 18.160156 14.386719 C 18.082031 14.386719 15.285156 14.433594 15.273438 14.511719 C 14.597656 14.515625 13.714844 16.039062 13.613281 16.605469 C 13.601562 16.6875 12.949219 20.96875 12.867188 20.957031 C 12.820312 21.128906 12.9375 21.347656 12.851562 21.429688 C 12.644531 21.269531 12.519531 21.003906 12.558594 20.726562 L 13.164062 15.878906 C 13.308594 14.714844 14.304688 13.839844 15.472656 13.839844 L 18.746094 13.839844 L 18.746094 14.25 Z M 18.160156 14.386719 "/>
<path style=" stroke:none;fill-rule:nonzero;fill:rgb(99.215686%,87.843138%,48.627451%);fill-opacity:1;" d="M 17.515625 14.726562 C 17.359375 14.726562 15.183594 14.835938 15.164062 14.984375 C 14.65625 14.988281 13.847656 17.300781 13.769531 17.726562 C 13.75 17.890625 13.167969 21.175781 13.003906 21.152344 C 12.929688 21.277344 12.988281 21.429688 12.902344 21.472656 C 12.695312 21.308594 12.570312 21.046875 12.609375 20.769531 L 13.210938 15.964844 C 13.355469 14.8125 14.339844 13.941406 15.5 13.941406 L 18.75 13.941406 L 18.75 14.542969 Z M 17.515625 14.726562 "/>
<path style=" stroke:none;fill-rule:nonzero;fill:rgb(99.215686%,84.313726%,36.862746%);fill-opacity:1;" d="M 16.917969 15.066406 C 16.6875 15.066406 15.132812 15.234375 15.101562 15.460938 C 14.765625 15.460938 14.027344 18.5625 13.976562 18.847656 C 13.945312 19.09375 13.433594 21.378906 13.1875 21.347656 C 13.09375 21.425781 13.085938 21.511719 13 21.511719 C 12.792969 21.351562 12.671875 21.089844 12.707031 20.816406 L 13.304688 16.050781 C 13.449219 14.90625 14.425781 14.042969 15.578125 14.042969 L 18.753906 14.042969 L 18.75 14.945312 Z M 16.917969 15.066406 "/>
<path style=" stroke:none;fill-rule:nonzero;fill:rgb(98.823529%,81.176472%,25.098041%);fill-opacity:1;" d="M 16.222656 15.410156 C 15.917969 15.410156 14.980469 15.636719 14.9375 15.933594 C 14.769531 15.9375 14.109375 19.828125 14.085938 19.96875 C 14.042969 20.300781 13.605469 21.589844 13.273438 21.546875 C 13.15625 21.578125 13.089844 21.59375 12.996094 21.554688 C 12.792969 21.394531 12.667969 21.136719 12.707031 20.863281 L 13.296875 16.136719 C 13.441406 15.003906 14.410156 14.148438 15.550781 14.148438 L 18.753906 14.148438 L 18.757812 15.347656 Z M 16.222656 15.410156 "/>
<path style=" stroke:none;fill-rule:nonzero;fill:rgb(98.431373%,77.64706%,13.333334%);fill-opacity:1;" d="M 17.25 15.75 L 20.421875 15.75 C 20.804688 15.75 21.121094 16.035156 21.171875 16.410156 L 21.757812 21.089844 C 21.808594 21.503906 22.175781 21.796875 22.589844 21.742188 C 22.730469 21.726562 22.859375 21.675781 22.957031 21.59375 C 23.160156 21.433594 23.277344 21.179688 23.242188 20.910156 L 22.65625 16.222656 C 22.515625 15.097656 21.554688 14.25 20.421875 14.25 L 17.25 14.25 Z M 17.25 15.75 "/>
<path style=" stroke:none;fill-rule:nonzero;fill:url(#radial0);" d="M 22.5 16.230469 C 22.359375 15.117188 21.402344 14.390625 20.285156 14.390625 C 20.273438 14.390625 20.042969 14.390625 20.03125 14.390625 L 17.648438 14.390625 L 17.25 14.445312 L 17.25 14.574219 L 17.402344 15.75 L 19.917969 15.75 C 19.941406 15.75 20.46875 15.757812 20.484375 15.769531 C 20.734375 15.789062 20.949219 15.929688 21.070312 16.140625 C 21.121094 16.21875 21.160156 16.347656 21.175781 16.449219 L 21.460938 18.726562 L 21.480469 18.898438 L 21.746094 21 C 21.773438 21.230469 21.929688 21.503906 22.121094 21.59375 C 22.230469 21.675781 22.351562 21.703125 22.484375 21.683594 C 22.617188 21.667969 22.738281 21.617188 22.847656 21.542969 C 23.027344 21.40625 23.128906 21.160156 23.089844 20.878906 C 23.082031 20.808594 22.820312 18.695312 22.804688 18.59375 C 22.78125 18.417969 22.5 16.230469 22.5 16.230469 Z M 22.5 16.230469 "/>
<path style=" stroke:none;fill-rule:nonzero;fill:url(#radial1);" d="M 22.34375 16.238281 C 22.207031 15.136719 21.253906 14.53125 20.148438 14.535156 C 20.125 14.535156 19.921875 14.535156 19.898438 14.535156 L 17.582031 14.535156 L 17.25 14.640625 L 17.25 14.769531 L 17.558594 15.75 L 20.003906 15.75 C 20.050781 15.75 20.511719 15.765625 20.550781 15.792969 C 20.785156 15.824219 20.984375 15.976562 21.085938 16.183594 C 21.132812 16.25 21.167969 16.402344 21.179688 16.488281 L 21.460938 18.707031 L 21.480469 18.875 L 21.734375 20.914062 C 21.757812 21.105469 21.902344 21.4375 22.0625 21.511719 C 22.15625 21.621094 22.257812 21.644531 22.382812 21.628906 C 22.503906 21.613281 22.621094 21.5625 22.742188 21.496094 C 22.894531 21.382812 22.976562 21.136719 22.941406 20.84375 C 22.925781 20.707031 22.691406 18.828125 22.660156 18.625 C 22.609375 18.269531 22.34375 16.238281 22.34375 16.238281 Z M 22.34375 16.238281 "/>
<path style=" stroke:none;fill-rule:nonzero;fill:url(#radial2);" d="M 22.1875 16.25 C 22.050781 15.15625 21.105469 14.671875 20.007812 14.675781 C 19.976562 14.675781 19.796875 14.675781 19.765625 14.675781 L 17.515625 14.675781 L 17.25 14.835938 L 17.25 14.964844 L 17.714844 15.75 L 20.085938 15.75 C 20.15625 15.75 20.558594 15.773438 20.613281 15.8125 C 20.832031 15.863281 21.015625 16.019531 21.105469 16.230469 C 21.140625 16.285156 21.175781 16.457031 21.1875 16.523438 L 21.457031 18.683594 L 21.476562 18.851562 L 21.722656 20.824219 C 21.742188 20.976562 21.871094 21.367188 22 21.425781 C 22.082031 21.558594 22.167969 21.589844 22.28125 21.570312 C 22.390625 21.554688 22.503906 21.503906 22.636719 21.445312 C 22.765625 21.355469 22.828125 21.113281 22.792969 20.8125 C 22.769531 20.605469 22.5625 18.957031 22.515625 18.648438 C 22.441406 18.117188 22.1875 16.25 22.1875 16.25 Z M 22.1875 16.25 "/>
<path style=" stroke:none;fill-rule:nonzero;fill:url(#radial3);" d="M 22.03125 16.257812 C 21.894531 15.175781 20.953125 14.816406 19.871094 14.816406 C 19.828125 14.816406 19.675781 14.816406 19.636719 14.816406 L 17.449219 14.816406 L 17.25 15.03125 L 17.25 15.164062 L 17.867188 15.75 L 20.171875 15.75 C 20.265625 15.75 20.605469 15.78125 20.675781 15.835938 C 20.882812 15.902344 21.046875 16.066406 21.121094 16.273438 C 21.148438 16.316406 21.183594 16.511719 21.191406 16.5625 L 21.453125 18.660156 L 21.472656 18.824219 L 21.710938 20.734375 C 21.726562 20.851562 21.84375 21.296875 21.941406 21.34375 C 22.007812 21.5 22.074219 21.53125 22.179688 21.511719 C 22.273438 21.496094 22.386719 21.445312 22.527344 21.398438 C 22.632812 21.328125 22.679688 21.09375 22.640625 20.777344 C 22.613281 20.503906 22.433594 19.089844 22.371094 18.679688 C 22.269531 17.96875 22.03125 16.257812 22.03125 16.257812 Z M 22.03125 16.257812 "/>
<path style=" stroke:none;fill-rule:nonzero;fill:url(#radial4);" d="M 21.875 16.265625 C 21.742188 15.195312 20.804688 14.957031 19.734375 14.960938 C 19.679688 14.960938 19.554688 14.960938 19.5 14.960938 L 17.382812 14.960938 L 17.25 15.226562 L 17.25 15.359375 L 18.023438 15.75 L 20.253906 15.75 C 20.371094 15.75 20.652344 15.789062 20.742188 15.855469 C 20.929688 15.941406 21.078125 16.109375 21.136719 16.320312 C 21.15625 16.347656 21.191406 16.566406 21.195312 16.601562 L 21.449219 18.636719 L 21.46875 18.800781 L 21.703125 20.644531 C 21.710938 20.722656 21.816406 21.230469 21.878906 21.257812 C 21.933594 21.441406 21.980469 21.476562 22.078125 21.457031 C 22.160156 21.4375 22.265625 21.386719 22.421875 21.347656 C 22.503906 21.300781 22.527344 21.070312 22.492188 20.746094 C 22.457031 20.402344 22.304688 19.21875 22.226562 18.707031 C 22.101562 17.820312 21.875 16.265625 21.875 16.265625 Z M 21.875 16.265625 "/>
<path style=" stroke:none;fill-rule:nonzero;fill:url(#radial5);" d="M 21.71875 16.273438 C 21.585938 15.214844 20.652344 15.097656 19.59375 15.101562 C 19.53125 15.101562 19.433594 15.101562 19.371094 15.101562 L 17.316406 15.101562 L 17.25 15.421875 L 17.25 15.554688 L 18.175781 15.75 L 20.339844 15.75 C 20.480469 15.75 20.699219 15.796875 20.804688 15.875 C 20.980469 15.976562 21.109375 16.152344 21.15625 16.363281 C 21.164062 16.378906 21.199219 16.621094 21.199219 16.636719 L 21.449219 18.617188 L 21.46875 18.773438 L 21.691406 20.558594 C 21.695312 20.59375 21.785156 21.160156 21.816406 21.175781 C 21.859375 21.382812 21.886719 21.417969 21.976562 21.398438 C 22.046875 21.382812 22.148438 21.332031 22.316406 21.300781 C 22.371094 21.273438 22.378906 21.046875 22.339844 20.710938 C 22.296875 20.300781 22.171875 19.347656 22.082031 18.734375 C 21.929688 17.671875 21.71875 16.273438 21.71875 16.273438 Z M 21.71875 16.273438 "/>
<path style=" stroke:none;fill-rule:nonzero;fill:url(#radial6);" d="M 17.25 15.75 L 20.421875 15.75 C 20.804688 15.75 21.121094 16.035156 21.171875 16.410156 L 21.757812 21.089844 C 21.808594 21.503906 21.796875 21.304688 22.210938 21.25 C 22.28125 21.242188 22.117188 20 21.941406 18.761719 C 21.761719 17.523438 21.5625 16.285156 21.5625 16.285156 C 21.421875 15.160156 20.371094 15.242188 19.238281 15.242188 L 17.25 15.242188 Z M 17.25 15.75 "/>
<path style=" stroke:none;fill-rule:nonzero;fill:rgb(98.431373%,77.64706%,13.333334%);fill-opacity:1;" d="M 18.742188 15.75 L 15.570312 15.75 C 15.1875 15.75 14.875 16.035156 14.820312 16.410156 L 14.234375 21.089844 C 14.183594 21.503906 13.816406 21.796875 13.402344 21.742188 C 13.261719 21.726562 13.132812 21.675781 13.035156 21.59375 C 12.832031 21.433594 12.714844 21.179688 12.75 20.910156 L 13.335938 16.222656 C 13.476562 15.097656 14.4375 14.25 15.570312 14.25 L 18.742188 14.25 Z M 18.742188 15.75 "/>
<path style=" stroke:none;fill-rule:nonzero;fill:url(#radial7);" d="M 13.492188 16.230469 C 13.632812 15.117188 14.589844 14.390625 15.707031 14.390625 C 15.71875 14.390625 15.949219 14.390625 15.960938 14.390625 L 18.742188 14.390625 L 18.742188 14.574219 L 18.589844 15.75 L 16.074219 15.75 C 16.050781 15.75 15.523438 15.757812 15.507812 15.769531 C 15.257812 15.789062 15.042969 15.929688 14.921875 16.140625 C 14.871094 16.21875 14.832031 16.347656 14.816406 16.449219 L 14.53125 18.726562 L 14.511719 18.898438 L 14.246094 21 C 14.21875 21.230469 14.0625 21.503906 13.871094 21.59375 C 13.761719 21.675781 13.640625 21.703125 13.507812 21.683594 C 13.375 21.667969 13.253906 21.617188 13.144531 21.542969 C 12.964844 21.40625 12.863281 21.160156 12.902344 20.878906 C 12.910156 20.808594 13.171875 18.695312 13.1875 18.59375 C 13.214844 18.417969 13.492188 16.230469 13.492188 16.230469 Z M 13.492188 16.230469 "/>
<path style=" stroke:none;fill-rule:nonzero;fill:url(#radial8);" d="M 13.648438 16.238281 C 13.789062 15.136719 14.738281 14.53125 15.847656 14.535156 C 15.867188 14.535156 16.074219 14.535156 16.09375 14.535156 L 18.75 14.535156 L 18.742188 14.640625 L 18.742188 14.769531 L 18.433594 15.75 L 15.988281 15.75 C 15.941406 15.75 15.480469 15.765625 15.441406 15.792969 C 15.207031 15.824219 15.007812 15.976562 14.90625 16.183594 C 14.859375 16.25 14.824219 16.402344 14.8125 16.488281 L 14.535156 18.707031 L 14.511719 18.875 L 14.257812 20.914062 C 14.234375 21.105469 14.089844 21.4375 13.929688 21.511719 C 13.835938 21.621094 13.734375 21.644531 13.609375 21.628906 C 13.488281 21.613281 13.371094 21.5625 13.25 21.496094 C 13.097656 21.382812 13.015625 21.136719 13.050781 20.84375 C 13.066406 20.707031 13.300781 18.828125 13.332031 18.625 C 13.382812 18.269531 13.648438 16.238281 13.648438 16.238281 Z M 13.648438 16.238281 "/>
<path style=" stroke:none;fill-rule:nonzero;fill:url(#radial9);" d="M 13.804688 16.25 C 13.941406 15.15625 14.890625 14.671875 15.984375 14.675781 C 16.015625 14.675781 16.195312 14.675781 16.226562 14.675781 L 18.742188 14.675781 L 18.742188 14.964844 L 18.28125 15.75 L 15.90625 15.75 C 15.835938 15.75 15.433594 15.773438 15.378906 15.8125 C 15.160156 15.863281 14.980469 16.019531 14.890625 16.230469 C 14.855469 16.285156 14.816406 16.457031 14.808594 16.523438 L 14.539062 18.683594 L 14.515625 18.851562 L 14.269531 20.824219 C 14.25 20.976562 14.121094 21.367188 13.992188 21.425781 C 13.910156 21.558594 13.828125 21.589844 13.710938 21.570312 C 13.605469 21.554688 13.488281 21.503906 13.355469 21.445312 C 13.226562 21.355469 13.164062 21.113281 13.203125 20.8125 C 13.222656 20.605469 13.433594 18.957031 13.476562 18.648438 C 13.550781 18.117188 13.804688 16.25 13.804688 16.25 Z M 13.804688 16.25 "/>
<path style=" stroke:none;fill-rule:nonzero;fill:url(#radial10);" d="M 13.960938 16.257812 C 14.097656 15.175781 15.039062 14.816406 16.121094 14.816406 C 16.164062 14.816406 16.316406 14.816406 16.359375 14.816406 L 18.742188 14.816406 L 18.742188 15.164062 L 18.125 15.75 L 15.824219 15.75 C 15.726562 15.75 15.386719 15.78125 15.316406 15.835938 C 15.109375 15.902344 14.945312 16.066406 14.871094 16.273438 C 14.84375 16.316406 14.808594 16.511719 14.800781 16.5625 L 14.539062 18.660156 L 14.519531 18.824219 L 14.28125 20.734375 C 14.265625 20.851562 14.148438 21.296875 14.054688 21.34375 C 13.984375 21.5 13.921875 21.53125 13.8125 21.511719 C 13.71875 21.496094 13.609375 21.445312 13.464844 21.398438 C 13.359375 21.328125 13.316406 21.09375 13.351562 20.777344 C 13.378906 20.503906 13.5625 19.089844 13.621094 18.679688 C 13.722656 17.96875 13.960938 16.257812 13.960938 16.257812 Z M 13.960938 16.257812 "/>
<path style=" stroke:none;fill-rule:nonzero;fill:url(#radial11);" d="M 14.117188 16.265625 C 14.253906 15.195312 15.191406 14.957031 16.261719 14.960938 C 16.3125 14.960938 16.4375 14.960938 16.492188 14.960938 L 18.742188 14.960938 L 18.742188 15.359375 L 17.972656 15.75 L 15.738281 15.75 C 15.621094 15.75 15.34375 15.789062 15.253906 15.855469 C 15.0625 15.941406 14.914062 16.109375 14.855469 16.320312 C 14.839844 16.347656 14.804688 16.566406 14.796875 16.601562 L 14.542969 18.636719 L 14.523438 18.800781 L 14.292969 20.644531 C 14.28125 20.722656 14.179688 21.230469 14.113281 21.257812 C 14.058594 21.441406 14.011719 21.476562 13.914062 21.457031 C 13.832031 21.4375 13.726562 21.386719 13.570312 21.347656 C 13.492188 21.300781 13.464844 21.070312 13.5 20.746094 C 13.539062 20.402344 13.691406 19.21875 13.765625 18.707031 C 13.890625 17.820312 14.117188 16.265625 14.117188 16.265625 Z M 14.117188 16.265625 "/>
<path style=" stroke:none;fill-rule:nonzero;fill:url(#radial12);" d="M 14.273438 16.273438 C 14.40625 15.214844 15.339844 15.097656 16.398438 15.101562 C 16.460938 15.101562 16.558594 15.101562 16.621094 15.101562 L 18.742188 15.101562 L 18.742188 15.554688 L 17.816406 15.75 L 15.65625 15.75 C 15.511719 15.75 15.296875 15.796875 15.1875 15.875 C 15.011719 15.976562 14.882812 16.152344 14.839844 16.363281 C 14.828125 16.378906 14.796875 16.621094 14.792969 16.636719 L 14.546875 18.617188 L 14.527344 18.773438 L 14.300781 20.558594 C 14.296875 20.597656 14.207031 21.160156 14.175781 21.175781 C 14.132812 21.382812 14.105469 21.417969 14.015625 21.398438 C 13.945312 21.382812 13.84375 21.332031 13.675781 21.300781 C 13.621094 21.273438 13.613281 21.050781 13.652344 20.710938 C 13.695312 20.300781 13.820312 19.351562 13.910156 18.734375 C 14.0625 17.671875 14.273438 16.273438 14.273438 16.273438 Z M 14.273438 16.273438 "/>
<path style=" stroke:none;fill-rule:nonzero;fill:url(#radial13);" d="M 18.742188 15.75 L 15.570312 15.75 C 15.1875 15.75 14.875 16.035156 14.820312 16.410156 L 14.234375 21.089844 C 14.183594 21.503906 14.195312 21.304688 13.785156 21.25 C 13.710938 21.242188 13.875 20 14.054688 18.761719 C 14.230469 17.523438 14.429688 16.285156 14.429688 16.285156 C 14.570312 15.160156 15.625 15.242188 16.753906 15.242188 L 18.742188 15.242188 Z M 18.742188 15.75 "/>
<path style=" stroke:none;fill-rule:nonzero;fill:url(#linear0);" d="M 26.25 25.5 C 26.25 30.054688 22.554688 33.75 18 33.75 C 13.445312 33.75 9.75 30.054688 9.75 25.5 C 9.75 20.945312 13.445312 17.25 18 17.25 C 22.554688 17.25 26.25 20.945312 26.25 25.5 Z M 26.25 25.5 "/>
<path style=" stroke:none;fill-rule:nonzero;fill:url(#linear1);" d="M 24.816406 25.5 C 24.816406 29.265625 21.765625 32.316406 18 32.316406 C 14.234375 32.316406 11.183594 29.265625 11.183594 25.5 C 11.183594 21.734375 14.234375 18.683594 18 18.683594 C 21.765625 18.683594 24.816406 21.734375 24.816406 25.5 Z M 24.816406 25.5 "/>
<path style=" stroke:none;fill-rule:nonzero;fill:url(#linear2);" d="M 24.097656 25.5 C 24.097656 28.867188 21.367188 31.597656 18 31.597656 C 14.632812 31.597656 11.902344 28.867188 11.902344 25.5 C 11.902344 22.132812 14.632812 19.402344 18 19.402344 C 21.367188 19.402344 24.097656 22.132812 24.097656 25.5 Z M 24.097656 25.5 "/>
<path style=" stroke:none;fill-rule:nonzero;fill:url(#linear3);" d="M 9.457031 2.25 L 16.539062 12.15625 C 16.808594 12.539062 16.957031 12.996094 16.957031 13.460938 L 16.957031 15 L 19.238281 15 L 19.238281 13.460938 C 19.238281 12.996094 19.085938 12.539062 18.816406 12.15625 L 11.738281 2.25 Z M 9.457031 2.25 "/>
<path style=" stroke:none;fill-rule:nonzero;fill:url(#linear4);" d="M 7.5 2.25 L 14.578125 12.15625 C 14.851562 12.539062 15 12.996094 15 13.460938 L 15 15 L 17.023438 15 L 17.023438 13.460938 C 17.023438 12.996094 16.875 12.539062 16.605469 12.15625 L 9.523438 2.25 Z M 7.5 2.25 "/>
<path style=" stroke:none;fill-rule:nonzero;fill:url(#linear5);" d="M 11.617188 2.25 L 18.699219 12.15625 C 18.96875 12.539062 19.117188 12.996094 19.117188 13.460938 L 19.117188 15 L 21 15 L 21 13.441406 C 21 12.96875 20.851562 12.511719 20.578125 12.128906 L 13.5 2.25 Z M 11.617188 2.25 "/>
<path style=" stroke:none;fill-rule:nonzero;fill:url(#linear6);" d="M 26.542969 2.25 L 19.460938 12.15625 C 19.191406 12.539062 19.042969 12.996094 19.042969 13.460938 L 19.042969 15 L 16.761719 15 L 16.761719 13.460938 C 16.761719 12.996094 16.914062 12.539062 17.183594 12.15625 L 24.261719 2.25 Z M 26.542969 2.25 "/>
<path style=" stroke:none;fill-rule:nonzero;fill:url(#linear7);" d="M 28.5 2.25 L 26.355469 5.25 L 23.675781 9 L 22.605469 10.5 L 21.421875 12.15625 C 21.148438 12.539062 21 12.996094 21 13.460938 L 21 15 L 18.976562 15 L 18.976562 13.460938 C 18.976562 12.996094 19.125 12.539062 19.394531 12.15625 L 20.578125 10.5 L 21.652344 9 L 24.328125 5.25 L 26.476562 2.25 Z M 28.5 2.25 "/>
<path style=" stroke:none;fill-rule:nonzero;fill:url(#linear8);" d="M 24.382812 2.25 L 22.238281 5.25 L 19.558594 9 L 18.488281 10.5 L 17.300781 12.15625 C 17.03125 12.539062 16.882812 12.996094 16.882812 13.460938 L 16.882812 15 L 15 15 L 15 13.441406 C 15 12.96875 15.148438 12.511719 15.421875 12.128906 L 16.589844 10.5 L 17.664062 9 L 20.347656 5.25 L 21.425781 3.75 L 22.5 2.25 Z M 24.382812 2.25 "/>
<path style=" stroke:none;fill-rule:nonzero;fill:url(#linear9);" d="M 17.023438 13.5 L 17.023438 16.5 L 15.75 16.5 C 15.335938 16.5 15 16.164062 15 15.75 L 15 14.25 C 15 13.835938 15.335938 13.5 15.75 13.5 Z M 17.023438 13.5 "/>
<path style=" stroke:none;fill-rule:nonzero;fill:url(#linear10);" d="M 16.882812 13.5 L 19.042969 13.5 L 19.042969 16.5 L 16.882812 16.5 Z M 16.882812 13.5 "/>
<path style=" stroke:none;fill-rule:nonzero;fill:url(#linear11);" d="M 21 14.25 L 21 15.75 C 21 16.164062 20.664062 16.5 20.25 16.5 L 18.976562 16.5 L 18.976562 13.5 L 20.25 13.5 C 20.664062 13.5 21 13.835938 21 14.25 Z M 21 14.25 "/>
<use xlink:href="#surface4563" mask="url(#mask0)"/>
<path style=" stroke:none;fill-rule:nonzero;fill:url(#linear13);" d="M 20.015625 20.585938 L 17.105469 20.585938 L 14.804688 22.246094 L 14.804688 25.367188 L 17.105469 23.902344 L 17.105469 30.367188 L 20.015625 30.367188 Z M 20.015625 20.585938 "/>
<path style=" stroke:none;fill-rule:nonzero;fill:url(#radial14);" d="M 26.25 25.5 C 26.25 30.054688 22.554688 33.75 18 33.75 C 13.445312 33.75 9.75 30.054688 9.75 25.5 C 9.75 20.945312 13.445312 17.25 18 17.25 C 22.554688 17.25 26.25 20.945312 26.25 25.5 Z M 26.25 25.5 "/>
<path style=" stroke:none;fill-rule:nonzero;fill:url(#radial15);" d="M 24.816406 25.5 C 24.816406 29.265625 21.765625 32.316406 18 32.316406 C 14.234375 32.316406 11.183594 29.265625 11.183594 25.5 C 11.183594 21.734375 14.234375 18.683594 18 18.683594 C 21.765625 18.683594 24.816406 21.734375 24.816406 25.5 Z M 24.816406 25.5 "/>
<path style=" stroke:none;fill-rule:nonzero;fill:url(#radial16);" d="M 24.816406 25.5 C 24.816406 29.265625 21.765625 32.316406 18 32.316406 C 14.234375 32.316406 11.183594 29.265625 11.183594 25.5 C 11.183594 21.734375 14.234375 18.683594 18 18.683594 C 21.765625 18.683594 24.816406 21.734375 24.816406 25.5 Z M 24.816406 25.5 "/>
</g>
</svg>
