<svg width="36" height="34" viewBox="0 0 36 34" fill="none" xmlns="http://www.w3.org/2000/svg">
<path d="M2.58151 24.8626C6.82486 32.713 16.5982 35.6095 24.3691 31.3228C25.5833 30.6514 26.6783 29.8465 27.6454 28.9341L33.4608 33.6297L36 30.419L30.2314 25.7621C33.2393 20.9417 33.6525 14.6622 30.764 9.31675C26.5249 1.46637 16.7516 -1.43449 8.98061 2.85224C1.20967 7.13896 -1.66183 17.0122 2.58151 24.8626ZM6.15172 22.8914C2.98625 17.0294 5.12496 9.66107 10.9276 6.45894C16.7303 3.26111 24.024 5.42169 27.1938 11.2837C30.3592 17.1456 28.2205 24.514 22.4179 27.7161C16.6152 30.9139 9.32144 28.7533 6.15172 22.8914Z" fill="white"/>
</svg>
