<svg xmlns="http://www.w3.org/2000/svg" viewBox="0 0 48 60" xml:space="preserve"><path d="M22.7 35.5c-2.2 0-4 1.8-4 4s1.8 4 4 4 4-1.8 4-4-1.8-4-4-4zm0 6c-1.1 0-2-.9-2-2s.9-2 2-2 2 .9 2 2-.9 2-2 2zM20.5 26.3c0-2.2-1.8-4-4-4s-4 1.8-4 4 1.8 4 4 4c2.2.1 4-1.7 4-4zm-4 2.1c-1.1 0-2-.9-2-2s.9-2 2-2 2 .9 2 2c0 1-.9 2-2 2zM26.4 16.9c-2.2 0-4 1.8-4 4s1.8 4 4 4 4-1.8 4-4c.1-2.2-1.7-4-4-4zm0 6c-1.1 0-2-.9-2-2s.9-2 2-2 2 .9 2 2c.1 1.1-.8 2-2 2z"/><path d="M43.5 11.7c0-5-4-9-9-9-4.6 0-8.5 3.5-9 8h-8.2L14 4.2c-.1-.2-.3-.4-.5-.5L6 .1c-.5-.2-1.1 0-1.3.5-.2.5 0 1.1.5 1.3l7.3 3.5 2.7 5.3H6.1c-.3 0-.6.1-.7.3-.2.2-.3.5-.2.8l4.3 35.3c.1.5.5.9 1 .9h20.7c.5 0 .9-.4 1-.9l3.2-26.4c4.5-.5 8.1-4.3 8.1-9zM30.2 46H11.3l-4-33.3h27L30.2 46zm5.4-27.4.8-6.8c0-.3-.1-.6-.2-.8-.2-.2-.5-.3-.7-.3h-7.9c.5-3.4 3.4-6 6.9-6 3.9 0 7 3.1 7 7 0 3.5-2.6 6.4-5.9 6.9z"/><text y="63" font-size="5" font-weight="bold" font-family="'Helvetica Neue', Helvetica, Arial-Unicode, Arial, Sans-serif">Created by Vectors Market</text><text y="68" font-size="5" font-weight="bold" font-family="'Helvetica Neue', Helvetica, Arial-Unicode, Arial, Sans-serif">from the Noun Project</text></svg>