<svg xmlns="http://www.w3.org/2000/svg" xmlns:xlink="http://www.w3.org/1999/xlink" version="1.1" x="0px" y="0px" viewBox="0 0 48 60" enable-background="new 0 0 48 48" xml:space="preserve"><g><path d="M22.7,35.5c-2.2,0-4,1.8-4,4c0,2.2,1.8,4,4,4c2.2,0,4-1.8,4-4C26.7,37.3,24.9,35.5,22.7,35.5z M22.7,41.5c-1.1,0-2-0.9-2-2   c0-1.1,0.9-2,2-2s2,0.9,2,2C24.7,40.6,23.8,41.5,22.7,41.5z"/><path d="M20.5,26.3c0-2.2-1.8-4-4-4c-2.2,0-4,1.8-4,4c0,2.2,1.8,4,4,4C18.7,30.4,20.5,28.6,20.5,26.3z M16.5,28.4c-1.1,0-2-0.9-2-2   c0-1.1,0.9-2,2-2s2,0.9,2,2C18.5,27.4,17.6,28.4,16.5,28.4z"/><path d="M26.4,16.9c-2.2,0-4,1.8-4,4c0,2.2,1.8,4,4,4c2.2,0,4-1.8,4-4C30.5,18.7,28.7,16.9,26.4,16.9z M26.4,22.9c-1.1,0-2-0.9-2-2   c0-1.1,0.9-2,2-2s2,0.9,2,2C28.5,22,27.6,22.9,26.4,22.9z"/><path d="M43.5,11.7c0-5-4-9-9-9c-4.6,0-8.5,3.5-9,8h-8.2L14,4.2c-0.1-0.2-0.3-0.4-0.5-0.5L6,0.1c-0.5-0.2-1.1,0-1.3,0.5   c-0.2,0.5,0,1.1,0.5,1.3l7.3,3.5l2.7,5.3H6.1c-0.3,0-0.6,0.1-0.7,0.3c-0.2,0.2-0.3,0.5-0.2,0.8l4.3,35.3c0.1,0.5,0.5,0.9,1,0.9   h20.7c0.5,0,0.9-0.4,1-0.9l3.2-26.4C39.9,20.2,43.5,16.4,43.5,11.7z M30.2,46H11.3l-4-33.3h27L30.2,46z M35.6,18.6l0.8-6.8   c0-0.3-0.1-0.6-0.2-0.8c-0.2-0.2-0.5-0.3-0.7-0.3h-7.9c0.5-3.4,3.4-6,6.9-6c3.9,0,7,3.1,7,7C41.5,15.2,38.9,18.1,35.6,18.6z"/></g><text x="0" y="63" fill="#000000" font-size="5px" font-weight="bold" font-family="'Helvetica Neue', Helvetica, Arial-Unicode, Arial, Sans-serif">Created by Vectors Market</text><text x="0" y="68" fill="#000000" font-size="5px" font-weight="bold" font-family="'Helvetica Neue', Helvetica, Arial-Unicode, Arial, Sans-serif">from the Noun Project</text></svg>