<svg xmlns="http://www.w3.org/2000/svg" viewBox="0 0 48 60" xml:space="preserve"><path d="M13.1 21.5s.1 0 0 0c.1 0 .1 0 0 0 .1 0 .1 0 0 0 .1 0 .1 0 0 0 .1 0 .1 0 0 0 .1 0 .1 0 0 0 5-.1 9-4.1 9-9.1 0-.6-.5-1-1-1-2.4 0-4.6 1-6.3 2.7-.7.7-1.2 1.4-1.6 2.2-1.5-2.8-4.5-4.8-8-4.8-.6 0-1 .5-1 1 0 5 4 9 8.9 9zm3.1-6c1-1.1 2.4-1.8 3.8-2-.4 3-2.8 5.4-5.8 5.9.3-1.5.9-2.8 2-3.9zm-4.1 3.9c-3-.4-5.4-2.8-5.9-5.8 3 .5 5.4 2.8 5.9 5.8z"/><path d="M13.2 31.1s.1 0 0 0c.1 0 .1 0 0 0 .1 0 .1 0 0 0 .1 0 .1 0 0 0 2.5 0 4.7-1 6.4-2.7 1.7-1.7 2.6-4 2.6-6.4 0-.3-.1-.5-.3-.7s-.4-.3-.7-.3c-3.5 0-6.5 2-7.9 4.9-1.5-2.8-4.5-4.8-8-4.8-.3 0-.5.1-.7.3-.2.2-.3.4-.3.7 0 5.1 4 9 8.9 9zm6.9-7.9c-.2 1.5-.9 2.8-1.9 3.9-1 1.1-2.4 1.8-3.8 2 .4-3 2.7-5.4 5.7-5.9zm-7.9 5.9c-3-.4-5.4-2.8-5.9-5.7 3 .4 5.4 2.7 5.9 5.7z"/><path d="M21.3 30.8s-.1 0 0 0c-2.4 0-4.7 1-6.3 2.7-.7.7-1.2 1.4-1.6 2.2-1.5-2.8-4.5-4.8-8-4.8-.3 0-.5.1-.7.3-.2.2-.3.4-.3.7 0 4.6 3.6 8.4 8.1 8.8V47c0 .6.4 1 1 1s1-.4 1-1v-6.3c2-.2 3.9-1.2 5.3-2.6 1.7-1.7 2.6-4 2.6-6.4-.2-.5-.6-.9-1.1-.9zM6.4 33c3 .4 5.4 2.8 5.9 5.7-3-.4-5.4-2.7-5.9-5.7zm11.9 3.7c-1 1.1-2.4 1.8-3.8 2 .2-1.5.9-2.8 1.9-3.9 1-1.1 2.4-1.8 3.8-2-.2 1.5-.9 2.9-1.9 3.9zM9.3 10.2c.6 0 1-.4 1-1V3.8c0-.6-.4-1-1-1s-1 .4-1 1v5.4c0 .5.4 1 1 1zM13.2 13c.6 0 1-.4 1-1V1c0-.6-.4-1-1-1s-1 .4-1 1v11c0 .5.5 1 1 1zM17.2 10.2c.6 0 1-.4 1-1V3.8c0-.6-.4-1-1-1s-1 .4-1 1v5.4c0 .5.5 1 1 1zM34.7 21.5c.1 0 .1 0 0 0 .1 0 .1 0 0 0 .1 0 .1 0 0 0 .1 0 .1 0 0 0 .1 0 .1 0 0 0 5-.1 9-4.1 9-9.1 0-.5-.5-1-1-1-3.5 0-6.5 2-7.9 4.9-1.5-2.8-4.5-4.8-8-4.8-.6 0-1 .5-1 1 0 5 4 9 8.9 9zm6.9-8c-.4 3-2.8 5.4-5.8 5.9.5-3 2.8-5.4 5.8-5.9zm-7.9 5.9c-3-.4-5.4-2.8-5.9-5.8 3 .5 5.4 2.8 5.9 5.8z"/><path d="M34.8 31.1c.1 0 .1 0 0 0 .1 0 .1 0 0 0 .1 0 .1 0 0 0 2.5 0 4.7-1 6.4-2.7 1.7-1.7 2.6-4 2.6-6.4 0-.3-.1-.5-.3-.7-.2-.2-.4-.3-.7-.3-3.5 0-6.5 2-7.9 4.9-1.5-2.8-4.5-4.8-8-4.8-.3 0-.5.1-.7.3-.2.2-.3.4-.3.7 0 5.1 4 9 8.9 9zm6.9-7.9c-.2 1.5-.9 2.8-1.9 3.9-1 1.1-2.4 1.8-3.8 2 .4-3 2.7-5.4 5.7-5.9zm-7.9 5.9c-3-.4-5.4-2.8-5.9-5.7 3 .4 5.4 2.7 5.9 5.7z"/><path d="M43.8 31.7c0-.5-.5-1-1-1-2.4 0-4.6 1-6.3 2.7-.7.7-1.2 1.4-1.6 2.2-1.5-2.8-4.5-4.8-8-4.8-.3 0-.5.1-.7.3-.2.2-.3.4-.3.7 0 4.6 3.6 8.4 8.1 8.8V47c0 .6.4 1 1 1s1-.4 1-1v-6.3c2-.2 3.9-1.2 5.3-2.6 1.7-1.7 2.6-4 2.5-6.4zM28 33c3 .4 5.4 2.8 5.9 5.7-3-.4-5.4-2.7-5.9-5.7zm8 5.7c.2-1.5.9-2.8 1.9-3.9 1-1.1 2.4-1.8 3.8-2-.2 1.5-.9 2.8-1.9 3.9-1 1.1-2.3 1.8-3.8 2zM30.9 10.2c.6 0 1-.4 1-1V3.8c0-.6-.4-1-1-1s-1 .4-1 1v5.4c0 .5.4 1 1 1zM34.8 13c.6 0 1-.4 1-1V1c0-.6-.4-1-1-1s-1 .4-1 1v11c0 .5.5 1 1 1zM38.8 10.2c.6 0 1-.4 1-1V3.8c0-.6-.4-1-1-1s-1 .4-1 1v5.4c0 .5.4 1 1 1z"/><text y="63" font-size="5" font-weight="bold" font-family="'Helvetica Neue', Helvetica, Arial-Unicode, Arial, Sans-serif">Created by Vectors Market</text><text y="68" font-size="5" font-weight="bold" font-family="'Helvetica Neue', Helvetica, Arial-Unicode, Arial, Sans-serif">from the Noun Project</text></svg>