<svg xmlns="http://www.w3.org/2000/svg" viewBox="0 0 48 60" xml:space="preserve"><path d="M48 12.1c-.1-.4-.4-.7-.7-.8L1.2 0C.9-.1.5 0 .3.3c-.3.2-.4.6-.3.9l11.3 46c.1.4.4.7.8.7h.4C32.1 48 48 32.1 48 12.5v-.4zm-8.5-.6v1c0 7.2-2.8 14-7.9 19.1-5.1 5.1-11.9 7.9-19.1 7.9h-1l-.5-2.3c.6-.2 1.1-.6 1.6-1 1.8-1.8 1.8-4.7 0-6.5-1-1-2.4-1.5-3.8-1.3l-6.4-26 37.1 9.1zM9.3 30.3c.7 0 1.4.3 1.9.8 1 1 1 2.7 0 3.7-.2.2-.4.4-.7.5l-1.2-5zM13.1 46 12 41.5h.5c7.7 0 15-3 20.5-8.5s8.5-12.8 8.5-20.5V12l4.5 1.1c-.3 18-14.9 32.6-32.9 32.9z"/><path d="M13.6 18.5c1.3 0 2.5-.5 3.5-1.4.9-.9 1.4-2.1 1.4-3.5s-.5-2.5-1.5-3.5c-.9-.9-2.1-1.4-3.5-1.4-1.3 0-2.5.5-3.5 1.4-.9.9-1.4 2.1-1.4 3.5s.5 2.5 1.4 3.5c1.1.9 2.3 1.4 3.6 1.4zm-2-6.9c.5-.5 1.3-.8 2-.8.8 0 1.5.3 2 .8s.8 1.3.8 2-.3 1.5-.8 2c-1.1 1.1-3 1.1-4.1 0-.5-.5-.8-1.3-.8-2s.3-1.5.9-2zM29 20.8c1.2 0 2.3-.5 3.1-1.3 1.7-1.7 1.7-4.6 0-6.3-.8-.8-2-1.3-3.1-1.3-1.2 0-2.3.5-3.1 1.3-1.7 1.7-1.7 4.6 0 6.3.8.9 2 1.3 3.1 1.3zm-1.7-6.2c.5-.5 1.1-.7 1.7-.7.7 0 1.3.3 1.7.7 1 1 1 2.5 0 3.5-.9.9-2.5.9-3.5 0-.8-1-.8-2.5.1-3.5zM19.3 32.9c.8.8 2 1.3 3.1 1.3 1.2 0 2.3-.5 3.1-1.3.8-.8 1.3-2 1.3-3.1 0-1.2-.5-2.3-1.3-3.1-.8-.8-2-1.3-3.1-1.3-1.2 0-2.3.5-3.1 1.3-.8.8-1.3 2-1.3 3.1s.5 2.2 1.3 3.1zm1.4-4.9c.5-.5 1.1-.7 1.7-.7s1.3.3 1.7.7c.5.5.7 1.1.7 1.7 0 .7-.3 1.3-.7 1.7-.9.9-2.5.9-3.5 0-.3-.4-.6-1-.6-1.7 0-.6.3-1.2.7-1.7z"/><text y="63" font-size="5" font-weight="bold" font-family="'Helvetica Neue', Helvetica, Arial-Unicode, Arial, Sans-serif">Created by Vectors Market</text><text y="68" font-size="5" font-weight="bold" font-family="'Helvetica Neue', Helvetica, Arial-Unicode, Arial, Sans-serif">from the Noun Project</text></svg>