<svg xmlns="http://www.w3.org/2000/svg" xmlns:xlink="http://www.w3.org/1999/xlink" version="1.1" x="0px" y="0px" viewBox="0 0 48 60" enable-background="new 0 0 48 48" xml:space="preserve"><g><path d="M48,12.1c-0.1-0.4-0.4-0.7-0.7-0.8L1.2,0C0.9-0.1,0.5,0,0.3,0.3C0,0.5-0.1,0.9,0,1.2l11.3,46c0.1,0.4,0.4,0.7,0.8,0.7   c0.1,0,0.3,0,0.4,0C32.1,48,48,32.1,48,12.5C48,12.4,48,12.2,48,12.1z M39.5,11.5c0,0.3,0,0.6,0,1c0,7.2-2.8,14-7.9,19.1   c-5.1,5.1-11.9,7.9-19.1,7.9c-0.3,0-0.7,0-1,0L11,37.2c0.6-0.2,1.1-0.6,1.6-1c1.8-1.8,1.8-4.7,0-6.5c-1-1-2.4-1.5-3.8-1.3l-6.4-26   L39.5,11.5z M9.3,30.3c0.7,0,1.4,0.3,1.9,0.8c1,1,1,2.7,0,3.7c-0.2,0.2-0.4,0.4-0.7,0.5L9.3,30.3z M13.1,46L12,41.5   c0.2,0,0.3,0,0.5,0c7.7,0,15-3,20.5-8.5c5.5-5.5,8.5-12.8,8.5-20.5c0-0.2,0-0.3,0-0.5l4.5,1.1C45.7,31.1,31.1,45.7,13.1,46z"/><path d="M13.6,18.5c1.3,0,2.5-0.5,3.5-1.4c0.9-0.9,1.4-2.1,1.4-3.5S18,11.1,17,10.1c-0.9-0.9-2.1-1.4-3.5-1.4   c-1.3,0-2.5,0.5-3.5,1.4c-0.9,0.9-1.4,2.1-1.4,3.5s0.5,2.5,1.4,3.5C11.1,18,12.3,18.5,13.6,18.5z M11.6,11.6c0.5-0.5,1.3-0.8,2-0.8   c0.8,0,1.5,0.3,2,0.8c0.5,0.5,0.8,1.3,0.8,2s-0.3,1.5-0.8,2c-1.1,1.1-3,1.1-4.1,0c-0.5-0.5-0.8-1.3-0.8-2S11,12.1,11.6,11.6z"/><path d="M29,20.8c1.2,0,2.3-0.5,3.1-1.3c1.7-1.7,1.7-4.6,0-6.3c-0.8-0.8-2-1.3-3.1-1.3c-1.2,0-2.3,0.5-3.1,1.3   c-1.7,1.7-1.7,4.6,0,6.3C26.7,20.4,27.9,20.8,29,20.8z M27.3,14.6c0.5-0.5,1.1-0.7,1.7-0.7c0.7,0,1.3,0.3,1.7,0.7c1,1,1,2.5,0,3.5   c-0.9,0.9-2.5,0.9-3.5,0C26.4,17.1,26.4,15.6,27.3,14.6z"/><path d="M19.3,32.9c0.8,0.8,2,1.3,3.1,1.3c1.2,0,2.3-0.5,3.1-1.3c0.8-0.8,1.3-2,1.3-3.1c0-1.2-0.5-2.3-1.3-3.1   c-0.8-0.8-2-1.3-3.1-1.3c-1.2,0-2.3,0.5-3.1,1.3c-0.8,0.8-1.3,2-1.3,3.1C18,30.9,18.5,32,19.3,32.9z M20.7,28   c0.5-0.5,1.1-0.7,1.7-0.7s1.3,0.3,1.7,0.7c0.5,0.5,0.7,1.1,0.7,1.7c0,0.7-0.3,1.3-0.7,1.7c-0.9,0.9-2.5,0.9-3.5,0   C20.3,31,20,30.4,20,29.7C20,29.1,20.3,28.5,20.7,28z"/></g><text x="0" y="63" fill="#000000" font-size="5px" font-weight="bold" font-family="'Helvetica Neue', Helvetica, Arial-Unicode, Arial, Sans-serif">Created by Vectors Market</text><text x="0" y="68" fill="#000000" font-size="5px" font-weight="bold" font-family="'Helvetica Neue', Helvetica, Arial-Unicode, Arial, Sans-serif">from the Noun Project</text></svg>