<svg xmlns="http://www.w3.org/2000/svg" xmlns:xlink="http://www.w3.org/1999/xlink" version="1.1" x="0px" y="0px" viewBox="0 0 48 60" enable-background="new 0 0 48 48" xml:space="preserve"><g><path d="M31.8,19.3c-0.1-1.4-1.3-2.5-2.6-2.5h-0.4V14c0-0.6-0.4-1-1-1h-1L24.9,0.8C24.9,0.4,24.4,0,24,0S23,0.4,23,0.8L21.1,13h-1   c-0.6,0-1,0.4-1,1v2.9h-0.3c-1.4,0-2.5,1.1-2.6,2.5l-1.9,25.8c-0.1,0.7,0.2,1.5,0.7,2s1.2,0.8,1.9,0.8h14.2c0.7,0,1.4-0.3,1.9-0.8   c0.5-0.5,0.8-1.3,0.7-2L31.8,19.3z M24,7.6l0.8,5.5h-1.7L24,7.6z M21.1,15h5.8v1.9h-5.8V15z M18.1,19.5c0-0.3,0.3-0.6,0.7-0.6h1.3   h7.8h1.4c0.3,0,0.6,0.3,0.7,0.6l0.7,9.2H17.5L18.1,19.5z M17,35l0.3-4.3h13.3l0.3,3.7l0.1,1.3H17L17,35z M31.6,45.8   c-0.1,0.1-0.2,0.2-0.5,0.2H16.9c-0.2,0-0.4-0.1-0.5-0.2c-0.1-0.1-0.2-0.2-0.2-0.5l0.6-7.6h14.4l0.6,7.6   C31.8,45.5,31.6,45.7,31.6,45.8z"/></g><text x="0" y="63" fill="#000000" font-size="5px" font-weight="bold" font-family="'Helvetica Neue', Helvetica, Arial-Unicode, Arial, Sans-serif">Created by Vectors Market</text><text x="0" y="68" fill="#000000" font-size="5px" font-weight="bold" font-family="'Helvetica Neue', Helvetica, Arial-Unicode, Arial, Sans-serif">from the Noun Project</text></svg>