<svg xmlns="http://www.w3.org/2000/svg" viewBox="0 0 48 60" xml:space="preserve"><path d="M31.8 19.3c-.1-1.4-1.3-2.5-2.6-2.5h-.4V14c0-.6-.4-1-1-1h-1L24.9.8c0-.4-.5-.8-.9-.8s-1 .4-1 .8L21.1 13h-1c-.6 0-1 .4-1 1v2.9h-.3c-1.4 0-2.5 1.1-2.6 2.5l-1.9 25.8c-.1.7.2 1.5.7 2s1.2.8 1.9.8h14.2c.7 0 1.4-.3 1.9-.8s.8-1.3.7-2l-1.9-25.9zM24 7.6l.8 5.5h-1.7l.9-5.5zM21.1 15h5.8v1.9h-5.8V15zm-3 4.5c0-.3.3-.6.7-.6h10.5c.3 0 .6.3.7.6l.7 9.2H17.5l.6-9.2zM17 35l.3-4.3h13.3l.3 3.7.1 1.3H17V35zm14.6 10.8c-.1.1-.2.2-.5.2H16.9c-.2 0-.4-.1-.5-.2-.1-.1-.2-.2-.2-.5l.6-7.6h14.4l.6 7.6c0 .2-.2.4-.2.5z"/><text y="63" font-size="5" font-weight="bold" font-family="'Helvetica Neue', Helvetica, Arial-Unicode, Arial, Sans-serif">Created by Vectors Market</text><text y="68" font-size="5" font-weight="bold" font-family="'Helvetica Neue', Helvetica, Arial-Unicode, Arial, Sans-serif">from the Noun Project</text></svg>