<svg xmlns="http://www.w3.org/2000/svg" xmlns:xlink="http://www.w3.org/1999/xlink" version="1.1" x="0px" y="0px" viewBox="0 0 48 60" enable-background="new 0 0 48 48" xml:space="preserve"><g><path d="M17.9,13.1c0,0.7-0.3,1.4-0.8,2c-0.4,0.4-0.4,1,0,1.4c0.2,0.2,0.5,0.3,0.7,0.3c0.3,0,0.5-0.1,0.7-0.3   c0.9-0.9,1.4-2.1,1.4-3.4c0-1.3-0.5-2.5-1.4-3.4c-0.5-0.5-0.8-1.2-0.8-1.9c0-0.7,0.3-1.4,0.8-2c0.4-0.4,0.4-1,0-1.4   c-0.4-0.4-1-0.4-1.4,0c-0.9,0.9-1.4,2.1-1.4,3.4c0,1.3,0.5,2.5,1.4,3.4C17.7,11.7,18,12.4,17.9,13.1z"/><path d="M24.1,8.9c0,0.7-0.3,1.4-0.8,2c-0.4,0.4-0.4,1,0,1.4c0.2,0.2,0.5,0.3,0.7,0.3c0.3,0,0.5-0.1,0.7-0.3   c0.9-0.9,1.4-2.1,1.4-3.4c0-1.3-0.5-2.5-1.4-3.4c-0.5-0.5-0.8-1.2-0.8-1.9c0-0.7,0.3-1.4,0.8-2c0.4-0.4,0.4-1,0-1.4   c-0.4-0.4-1-0.4-1.4,0c-0.9,0.9-1.4,2.1-1.4,3.4c0,1.3,0.5,2.5,1.4,3.4C23.8,7.5,24.1,8.2,24.1,8.9z"/><path d="M30.2,13c0,0.7-0.3,1.4-0.8,2c-0.4,0.4-0.4,1,0,1.4c0.2,0.2,0.5,0.3,0.7,0.3c0.3,0,0.5-0.1,0.7-0.3   c0.9-0.9,1.4-2.1,1.4-3.4c0-1.3-0.5-2.5-1.4-3.4c-0.5-0.5-0.8-1.2-0.8-1.9c0-0.7,0.3-1.4,0.8-2c0.4-0.4,0.4-1,0-1.4   c-0.4-0.4-1-0.4-1.4,0c-0.9,0.9-1.4,2.1-1.4,3.4c0,1.3,0.5,2.5,1.4,3.4C29.9,11.6,30.2,12.2,30.2,13z"/><path d="M45.8,26.8c-1-2-3.4-2.4-6.3-2.8c-2.7-0.4-6.5-0.9-11-2.9c-4.2-1.8-8.2-2.8-11.9-2.8c-7.1,0-11.8,3.3-13.8,6.9   c0,0-0.1,0.1-0.1,0.1C0.9,28.2,0,31.1,0,33.9C0,40.5,10.2,48,23.9,48c15.2,0,22.3-7.5,23.9-13.9C48.6,31,47,27.8,45.8,26.8z    M16.6,20.3c3.5,0,7.2,0.9,11.1,2.6c4.7,2.1,8.6,2.6,11.5,3.1c4,0.6,5.1,0.8,5.1,3.2c0,5.1-9.1,11.2-20.4,11.2   c-11.3,0-20.4-6.1-20.4-11.2C3.6,25.6,8.2,20.3,16.6,20.3z M45.9,33.6C44.4,39.8,37,46,23.9,46C11.8,46,2,39.4,2,33.9   c0-0.6,0.1-1.3,0.2-1.9C4.4,37.3,13,42.4,23.9,42.4c11.3,0,20.1-5.5,22-11C46,32.1,46,32.9,45.9,33.6z"/><path d="M9.3,31.1c0.2,0,0.4,0,0.5-0.1l9.4-5.6c0.5-0.3,0.6-0.9,0.3-1.4c-0.3-0.5-0.9-0.6-1.4-0.3l-9.4,5.6   c-0.5,0.3-0.6,0.9-0.3,1.4C8.6,30.9,9,31.1,9.3,31.1z"/><path d="M17.7,33.2c0.2,0.3,0.5,0.5,0.9,0.5c0.2,0,0.4,0,0.5-0.1l9.4-5.6c0.5-0.3,0.6-0.9,0.3-1.4c-0.3-0.5-0.9-0.6-1.4-0.3   L18,31.8C17.6,32.1,17.4,32.7,17.7,33.2z"/><path d="M26.9,35.8c0.2,0.3,0.5,0.5,0.9,0.5c0.2,0,0.4,0,0.5-0.1l9.4-5.6c0.5-0.3,0.6-0.9,0.3-1.4c-0.3-0.5-0.9-0.6-1.4-0.3   l-9.4,5.6C26.8,34.7,26.6,35.3,26.9,35.8z"/></g><text x="0" y="63" fill="#000000" font-size="5px" font-weight="bold" font-family="'Helvetica Neue', Helvetica, Arial-Unicode, Arial, Sans-serif">Created by Vectors Market</text><text x="0" y="68" fill="#000000" font-size="5px" font-weight="bold" font-family="'Helvetica Neue', Helvetica, Arial-Unicode, Arial, Sans-serif">from the Noun Project</text></svg>