<svg xmlns="http://www.w3.org/2000/svg" viewBox="0 0 48 60" xml:space="preserve"><path d="M17.9 13.1c0 .7-.3 1.4-.8 2-.4.4-.4 1 0 1.4.2.2.5.3.7.3.3 0 .5-.1.7-.3.9-.9 1.4-2.1 1.4-3.4 0-1.3-.5-2.5-1.4-3.4-.5-.5-.8-1.2-.8-1.9s.3-1.4.8-2c.4-.4.4-1 0-1.4-.4-.4-1-.4-1.4 0-.9.9-1.4 2.1-1.4 3.4 0 1.3.5 2.5 1.4 3.4.6.5.9 1.2.8 1.9zM24.1 8.9c0 .7-.3 1.4-.8 2-.4.4-.4 1 0 1.4.2.2.5.3.7.3.3 0 .5-.1.7-.3.9-.9 1.4-2.1 1.4-3.4 0-1.3-.5-2.5-1.4-3.4-.5-.5-.8-1.2-.8-1.9s.3-1.4.8-2c.4-.4.4-1 0-1.4-.4-.4-1-.4-1.4 0-.9.9-1.4 2.1-1.4 3.4 0 1.3.5 2.5 1.4 3.4.5.5.8 1.2.8 1.9zM30.2 13c0 .7-.3 1.4-.8 2-.4.4-.4 1 0 1.4.2.2.5.3.7.3.3 0 .5-.1.7-.3.9-.9 1.4-2.1 1.4-3.4 0-1.3-.5-2.5-1.4-3.4-.5-.5-.8-1.2-.8-1.9s.3-1.4.8-2c.4-.4.4-1 0-1.4-.4-.4-1-.4-1.4 0-.9.9-1.4 2.1-1.4 3.4 0 1.3.5 2.5 1.4 3.4.5.5.8 1.1.8 1.9zM45.8 26.8c-1-2-3.4-2.4-6.3-2.8-2.7-.4-6.5-.9-11-2.9-4.2-1.8-8.2-2.8-11.9-2.8-7.1 0-11.8 3.3-13.8 6.9l-.1.1C.9 28.2 0 31.1 0 33.9 0 40.5 10.2 48 23.9 48c15.2 0 22.3-7.5 23.9-13.9.8-3.1-.8-6.3-2-7.3zm-29.2-6.5c3.5 0 7.2.9 11.1 2.6 4.7 2.1 8.6 2.6 11.5 3.1 4 .6 5.1.8 5.1 3.2 0 5.1-9.1 11.2-20.4 11.2-11.3 0-20.4-6.1-20.4-11.2.1-3.6 4.7-8.9 13.1-8.9zm29.3 13.3C44.4 39.8 37 46 23.9 46 11.8 46 2 39.4 2 33.9c0-.6.1-1.3.2-1.9C4.4 37.3 13 42.4 23.9 42.4c11.3 0 20.1-5.5 22-11 .1.7.1 1.5 0 2.2z"/><path d="M9.3 31.1c.2 0 .4 0 .5-.1l9.4-5.6c.5-.3.6-.9.3-1.4-.3-.5-.9-.6-1.4-.3l-9.4 5.6c-.5.3-.6.9-.3 1.4.2.2.6.4.9.4zM17.7 33.2c.2.3.5.5.9.5.2 0 .4 0 .5-.1l9.4-5.6c.5-.3.6-.9.3-1.4-.3-.5-.9-.6-1.4-.3L18 31.8c-.4.3-.6.9-.3 1.4zM26.9 35.8c.2.3.5.5.9.5.2 0 .4 0 .5-.1l9.4-5.6c.5-.3.6-.9.3-1.4-.3-.5-.9-.6-1.4-.3l-9.4 5.6c-.4.2-.6.8-.3 1.3z"/><text y="63" font-size="5" font-weight="bold" font-family="'Helvetica Neue', Helvetica, Arial-Unicode, Arial, Sans-serif">Created by Vectors Market</text><text y="68" font-size="5" font-weight="bold" font-family="'Helvetica Neue', Helvetica, Arial-Unicode, Arial, Sans-serif">from the Noun Project</text></svg>