<svg xmlns="http://www.w3.org/2000/svg" viewBox="0 0 48 60" xml:space="preserve"><path d="M35.8 11.5c-3.2-.6-6.6.2-9.2 2.1.3-2.2 1.4-6.4 5.7-8.8.5-.3.7-.9.4-1.4-.3-.5-.9-.7-1.4-.4-.7.4-1.3.8-1.8 1.2H24C21.2 1.5 17.5 0 13.6 0c-4.1 0-8 1.6-10.9 4.5-.4.4-.4 1 0 1.4 2.9 2.9 6.7 4.5 10.8 4.5 4 0 7.7-1.5 10.5-4.2h3.5c-2.2 2.7-2.8 5.8-3 7.5-2.7-2-6.1-2.8-9.4-2.2-6.5 1.2-10.8 7.5-9.5 14C6.7 31.1 14.5 48 21.3 48c.3 0 .5 0 .8-.1.2 0 .5-.1.7-.2 1.8-.7 3.7-.7 5.4 0 .2.1.5.2.7.2.3 0 .5.1.8.1 6.8 0 14.6-16.9 15.7-22.5 1.2-6.5-3.1-12.8-9.6-14zM13.6 8.4c-3.2 0-6.3-1.1-8.7-3.2C7.3 3.1 10.3 2 13.6 2c2.6 0 5.2.8 7.3 2.2h-5.6c-.6 0-1 .4-1 1s.4 1 1 1h5.6c-2.2 1.4-4.7 2.2-7.3 2.2zm29.8 16.7C42.3 30.8 34.7 46 29.7 46h-.4c-.1 0-.2-.1-.4-.1-1.1-.4-2.3-.6-3.4-.6-1.2 0-2.3.2-3.4.6-.1 0-.2.1-.4.1h-.4c-5 0-12.6-15.2-13.7-20.9-1-5.4 2.5-10.6 7.9-11.7 3.4-.6 6.9.6 9.2 3.1.4.4 1.1.4 1.5 0 2.3-2.6 5.9-3.7 9.2-3.1 5.5 1.1 9 6.3 8 11.7z"/><text y="63" font-size="5" font-weight="bold" font-family="'Helvetica Neue', Helvetica, Arial-Unicode, Arial, Sans-serif">Created by Vectors Market</text><text y="68" font-size="5" font-weight="bold" font-family="'Helvetica Neue', Helvetica, Arial-Unicode, Arial, Sans-serif">from the Noun Project</text></svg>