<svg xmlns="http://www.w3.org/2000/svg" viewBox="0 0 48 60" xml:space="preserve"><path d="M34.9 6.4V5.2c0-2.9-2.3-5.2-5.2-5.2H1.3C.9 0 .5.3.3.7c-.1.4 0 .9.4 1.1 2.8 2 4.8 4.7 5.6 7.7.2.8.1 1.6-.3 2.5C2.5 19.2.1 24.4.1 32c0 6.4 1.6 11.6 4.9 15.6.2.3.5.4.8.4h30c.3 0 .6-.1.8-.4 3.2-4 4.9-9.2 4.9-15.6 0-7.8-2.5-13.2-6.5-21.3V8.3c6.1.5 11 5.6 11 11.9v19c0 .6.4 1 1 1s1-.4 1-1v-19c-.1-7.3-5.9-13.3-13.1-13.8zm.3 39.6h-29c-2.7-3.6-4.1-8.3-4.1-14 0-4.1.7-7.5 2-10.9 1.6 1.3 3.5 2 5.6 2 2.4 0 4.6-.9 6.2-2.6 2.7-2.7 7-2.7 9.6 0 1.7 1.7 3.9 2.6 6.2 2.6 2 0 4-.7 5.6-2 1.3 3.5 2 6.9 2 10.9.1 5.7-1.3 10.4-4.1 14zm1.4-26.9c-1.3 1.3-3 2-4.8 2-1.8 0-3.5-.7-4.8-2-3.4-3.4-9-3.4-12.5 0-1.3 1.3-3 2-4.8 2-1.8 0-3.5-.7-4.8-2 .8-2 1.8-4 2.9-6.3.6-1.2.8-2.6.4-3.9C7.6 6.4 6.1 4 4.1 2h25.6c1.8 0 3.2 1.4 3.2 3.2V11c0 .2 0 .3.1.4 1.4 2.9 2.6 5.3 3.6 7.7z"/><text y="63" font-size="5" font-weight="bold" font-family="'Helvetica Neue', Helvetica, Arial-Unicode, Arial, Sans-serif">Created by Vectors Market</text><text y="68" font-size="5" font-weight="bold" font-family="'Helvetica Neue', Helvetica, Arial-Unicode, Arial, Sans-serif">from the Noun Project</text></svg>