<svg xmlns="http://www.w3.org/2000/svg" xmlns:xlink="http://www.w3.org/1999/xlink" version="1.1" x="0px" y="0px" viewBox="0 0 48 60" enable-background="new 0 0 48 48" xml:space="preserve"><g><path d="M31.4,32.7c-2.8-0.7-5-2.8-5.7-5.7c-0.1-0.5-0.7-0.9-1.2-0.7c-0.5,0.1-0.9,0.7-0.7,1.2c0.8,3.6,3.6,6.3,7.2,7.2   c0.1,0,0.2,0,0.2,0c0.5,0,0.9-0.3,1-0.8C32.3,33.4,31.9,32.8,31.4,32.7z"/><path d="M21.3,22.8c-3-0.6-5.4-3-5.9-5.9c-0.2-1-0.8-2.4-2.3-3.5c-0.9-0.7-2.1-1.1-3.3-1.1c-0.6,0-1,0.4-1,1s0.4,1,1,1   c0.8,0,1.5,0.2,2.2,0.7c1,0.7,1.4,1.7,1.5,2.3c0.7,3.7,3.7,6.7,7.5,7.5c0.1,0,0.1,0,0.2,0c0.5,0,0.9-0.3,1-0.8   C22.2,23.4,21.9,22.9,21.3,22.8z"/><path d="M46.6,29.4c0.9-1.5,1.4-3.3,1.4-5.1c0-1.9-0.6-3.7-1.6-5.3c-0.8-1.2-0.8-2.8-0.1-3.9c1.4-2,1.9-4.5,1.5-7   c-0.6-3.9-3.6-7.1-7.5-7.9C39.7,0.1,39,0,38.3,0c-5.4,0-9.7,4.4-9.7,9.7c0,2,0.6,3.9,1.7,5.5c0.7,1.1,0.7,2.5,0,3.6   c-1,1.5-1.6,3.2-1.7,5c-0.4-0.8-1-1.6-1.7-2.3c-1.3-1.3-3-2.3-4.9-2.6c-1.4-0.3-2.5-1.4-2.8-2.7c-0.5-2.4-1.8-4.6-3.9-6   C13.7,9,11.7,8.3,9.7,8.3C7.8,8.3,6,8.9,4.5,9.9c-2.5,1.6-4.1,4.3-4.4,7.2c-0.3,2.9,0.7,5.8,2.8,7.9C4.2,26.3,6,27.3,8,27.6   c1.3,0.2,2.3,1.3,2.5,2.5c0.3,1.9,1.3,3.7,2.7,5.1c1.3,1.3,2.8,2.1,4.6,2.6c1.4,0.3,2.4,1.4,2.7,2.8c0.6,2.3,1.9,4.3,3.9,5.7   c1.6,1.1,3.5,1.7,5.5,1.7c1.5,0,2.9-0.3,4.2-1c0.7,0.3,1.4,0.6,2.1,0.7c0.7,0.1,1.4,0.2,2.1,0.2c5.4,0,9.7-4.4,9.7-9.7   c0-1.8-0.5-3.5-1.4-5C45.8,32,45.8,30.6,46.6,29.4z M34.8,44.3c-0.2,0.2-0.5,0.4-0.7,0.5c0,0,0,0-0.1,0c-1.2,0.8-2.6,1.2-4.1,1.2   c-1.6,0-3.1-0.5-4.4-1.4c-1.6-1.1-2.7-2.7-3.1-4.5c-0.5-2.1-2.1-3.8-4.2-4.3c-1.4-0.3-2.6-1-3.6-2c-1.1-1.1-1.8-2.5-2.1-4.1   c-0.4-2.1-2-3.8-4.2-4.2c-1.5-0.3-3-1-4.1-2.1c-1.7-1.7-2.5-3.9-2.2-6.3c0.2-2.3,1.5-4.4,3.5-5.7c1.2-0.8,2.6-1.2,4.1-1.2   c1.6,0,3.2,0.5,4.5,1.4c1.6,1.2,2.7,2.9,3.1,4.8c0.4,2.1,2.2,3.8,4.4,4.3c1.5,0.3,2.8,1,3.9,2.1c1,1,1.7,2.3,2,3.6   c0.4,1.8,1.6,3.2,3.2,3.9c0,0,0,0,0,0c0,0,0.1,0,0.1,0c0.1,0,0.1,0.1,0.2,0.1c0.2,0.1,0.4,0.2,0.7,0.2c0.2,0.1,0.5,0.1,0.7,0.2   c2.9,0.7,4.1,3.1,4.4,3.9c0.6,1.3,0.9,2.7,0.7,4.2C37.4,41.1,36.4,42.9,34.8,44.3z M44.9,34.3c0.7,1.2,1.1,2.6,1.1,4   c0,4.3-3.5,7.7-7.7,7.7c-0.6,0-1.1-0.1-1.7-0.2c-0.2,0-0.3-0.1-0.4-0.1c3-2.4,3.4-6.1,3.4-6.4c0.2-1.8-0.1-3.6-0.9-5.2   c-0.5-1-1.1-1.9-1.9-2.6c-0.3-0.3-0.7-0.6-1-0.9c-0.6-0.5-1.3-0.8-2-1.1c-0.1-0.1-0.2-0.1-0.4-0.2c-0.1,0-0.2-0.1-0.3-0.1   c-0.3-0.1-0.6-0.2-1-0.3c-0.1,0-0.2-0.1-0.3-0.1c-0.1-0.1-0.1-0.3-0.2-0.4c-0.7-1.2-1.1-2.6-1.1-4c0-1.6,0.5-3.1,1.4-4.4   c1.2-1.8,1.2-4.1,0-5.9c-0.9-1.3-1.4-2.8-1.4-4.4C30.6,5.5,34,2,38.3,2c0.6,0,1.1,0.1,1.7,0.2c3,0.6,5.4,3.2,5.9,6.3   c0.3,2-0.1,4-1.2,5.6c-1.2,1.8-1.2,4.3,0,6.1c0.8,1.3,1.3,2.7,1.3,4.2c0,1.4-0.4,2.8-1.1,4C43.7,30.2,43.7,32.4,44.9,34.3z"/></g><text x="0" y="63" fill="#000000" font-size="5px" font-weight="bold" font-family="'Helvetica Neue', Helvetica, Arial-Unicode, Arial, Sans-serif">Created by Vectors Market</text><text x="0" y="68" fill="#000000" font-size="5px" font-weight="bold" font-family="'Helvetica Neue', Helvetica, Arial-Unicode, Arial, Sans-serif">from the Noun Project</text></svg>