<svg xmlns="http://www.w3.org/2000/svg" viewBox="0 0 48 60" xml:space="preserve"><path d="M31.4 32.7c-2.8-.7-5-2.8-5.7-5.7-.1-.5-.7-.9-1.2-.7-.5.1-.9.7-.7 1.2.8 3.6 3.6 6.3 7.2 7.2h.2c.5 0 .9-.3 1-.8.1-.5-.3-1.1-.8-1.2zM21.3 22.8c-3-.6-5.4-3-5.9-5.9-.2-1-.8-2.4-2.3-3.5-.9-.7-2.1-1.1-3.3-1.1-.6 0-1 .4-1 1s.4 1 1 1c.8 0 1.5.2 2.2.7 1 .7 1.4 1.7 1.5 2.3.7 3.7 3.7 6.7 7.5 7.5h.2c.5 0 .9-.3 1-.8 0-.6-.3-1.1-.9-1.2z"/><path d="M46.6 29.4c.9-1.5 1.4-3.3 1.4-5.1 0-1.9-.6-3.7-1.6-5.3-.8-1.2-.8-2.8-.1-3.9 1.4-2 1.9-4.5 1.5-7-.6-3.9-3.6-7.1-7.5-7.9-.6-.1-1.3-.2-2-.2-5.4 0-9.7 4.4-9.7 9.7 0 2 .6 3.9 1.7 5.5.7 1.1.7 2.5 0 3.6-1 1.5-1.6 3.2-1.7 5-.4-.8-1-1.6-1.7-2.3-1.3-1.3-3-2.3-4.9-2.6-1.4-.3-2.5-1.4-2.8-2.7-.5-2.4-1.8-4.6-3.9-6-1.6-1.2-3.6-1.9-5.6-1.9-1.9 0-3.7.6-5.2 1.6C2 11.5.4 14.2.1 17.1c-.3 2.9.7 5.8 2.8 7.9C4.2 26.3 6 27.3 8 27.6c1.3.2 2.3 1.3 2.5 2.5.3 1.9 1.3 3.7 2.7 5.1 1.3 1.3 2.8 2.1 4.6 2.6 1.4.3 2.4 1.4 2.7 2.8.6 2.3 1.9 4.3 3.9 5.7 1.6 1.1 3.5 1.7 5.5 1.7 1.5 0 2.9-.3 4.2-1 .7.3 1.4.6 2.1.7.7.1 1.4.2 2.1.2 5.4 0 9.7-4.4 9.7-9.7 0-1.8-.5-3.5-1.4-5-.8-1.2-.8-2.6 0-3.8zM34.8 44.3c-.2.2-.5.4-.7.5H34c-1.2.8-2.6 1.2-4.1 1.2-1.6 0-3.1-.5-4.4-1.4-1.6-1.1-2.7-2.7-3.1-4.5-.5-2.1-2.1-3.8-4.2-4.3-1.4-.3-2.6-1-3.6-2-1.1-1.1-1.8-2.5-2.1-4.1-.4-2.1-2-3.8-4.2-4.2-1.5-.3-3-1-4.1-2.1-1.7-1.7-2.5-3.9-2.2-6.3.2-2.3 1.5-4.4 3.5-5.7 1.2-.8 2.6-1.2 4.1-1.2 1.6 0 3.2.5 4.5 1.4 1.6 1.2 2.7 2.9 3.1 4.8.4 2.1 2.2 3.8 4.4 4.3 1.5.3 2.8 1 3.9 2.1 1 1 1.7 2.3 2 3.6.4 1.8 1.6 3.2 3.2 3.9h.1c.1 0 .1.1.2.1.2.1.4.2.7.2.2.1.5.1.7.2 2.9.7 4.1 3.1 4.4 3.9.6 1.3.9 2.7.7 4.2-.1 2.2-1.1 4-2.7 5.4zm10.1-10c.7 1.2 1.1 2.6 1.1 4 0 4.3-3.5 7.7-7.7 7.7-.6 0-1.1-.1-1.7-.2-.2 0-.3-.1-.4-.1 3-2.4 3.4-6.1 3.4-6.4.2-1.8-.1-3.6-.9-5.2-.5-1-1.1-1.9-1.9-2.6-.3-.3-.7-.6-1-.9-.6-.5-1.3-.8-2-1.1-.1-.1-.2-.1-.4-.2-.1 0-.2-.1-.3-.1-.3-.1-.6-.2-1-.3-.1 0-.2-.1-.3-.1-.1-.1-.1-.3-.2-.4-.7-1.2-1.1-2.6-1.1-4 0-1.6.5-3.1 1.4-4.4 1.2-1.8 1.2-4.1 0-5.9-.9-1.3-1.4-2.8-1.4-4.4C30.6 5.5 34 2 38.3 2c.6 0 1.1.1 1.7.2 3 .6 5.4 3.2 5.9 6.3.3 2-.1 4-1.2 5.6-1.2 1.8-1.2 4.3 0 6.1.8 1.3 1.3 2.7 1.3 4.2 0 1.4-.4 2.8-1.1 4-1.2 1.8-1.2 4 0 5.9z"/><text y="63" font-size="5" font-weight="bold" font-family="'Helvetica Neue', Helvetica, Arial-Unicode, Arial, Sans-serif">Created by Vectors Market</text><text y="68" font-size="5" font-weight="bold" font-family="'Helvetica Neue', Helvetica, Arial-Unicode, Arial, Sans-serif">from the Noun Project</text></svg>