<svg xmlns="http://www.w3.org/2000/svg" viewBox="0 0 48 60" xml:space="preserve"><path d="M34.5 12.1c-3-.2-5.4-2.7-5.4-5.8 0-1.2.4-2.3 1-3.3.2-.2.2-.5.2-.8-.1-.3-.2-.5-.5-.6C28 .5 26 0 24 0c-6.3 0-11.4 5.1-11.4 11.4v22.4c0 .6.4 1 1 1h6.2v9c0 2.3 1.9 4.2 4.2 4.2s4.2-1.9 4.2-4.2v-9h6.2c.6 0 1-.4 1-1V13.1c0-.5-.4-.9-.9-1zm-8.3 31.7c0 1.2-1 2.2-2.2 2.2-1.2 0-2.2-1-2.2-2.2v-9h4.4v9zm7.2-11H14.6V18.9h18.8v13.9zm0-15.9H14.6v-5.5C14.6 6.2 18.8 2 24 2c1.3 0 2.7.3 3.9.8-.6 1.1-.9 2.3-.9 3.5 0 3.8 2.7 7 6.4 7.7v2.9z"/><text y="63" font-size="5" font-weight="bold" font-family="'Helvetica Neue', Helvetica, Arial-Unicode, Arial, Sans-serif">Created by Vectors Market</text><text y="68" font-size="5" font-weight="bold" font-family="'Helvetica Neue', Helvetica, Arial-Unicode, Arial, Sans-serif">from the Noun Project</text></svg>