<svg xmlns="http://www.w3.org/2000/svg" xmlns:xlink="http://www.w3.org/1999/xlink" version="1.1" x="0px" y="0px" viewBox="0 0 48 60" enable-background="new 0 0 48 48" xml:space="preserve"><g><path d="M34.5,12.1c-3-0.2-5.4-2.7-5.4-5.8c0-1.2,0.4-2.3,1-3.3c0.2-0.2,0.2-0.5,0.2-0.8c-0.1-0.3-0.2-0.5-0.5-0.6   C28,0.5,26,0,24,0c-6.3,0-11.4,5.1-11.4,11.4v6.5c0,0,0,0,0,0v15.9c0,0.6,0.4,1,1,1h6.2v9c0,2.3,1.9,4.2,4.2,4.2s4.2-1.9,4.2-4.2   v-9h6.2c0.6,0,1-0.4,1-1V17.9c0,0,0,0,0,0v-4.8C35.4,12.6,35,12.2,34.5,12.1z M26.2,43.8c0,1.2-1,2.2-2.2,2.2c-1.2,0-2.2-1-2.2-2.2   v-9h4.4V43.8z M33.4,32.8h-6.2h-6.4h-6.2V18.9h18.8V32.8z M33.4,16.9H14.6v-5.5C14.6,6.2,18.8,2,24,2c1.3,0,2.7,0.3,3.9,0.8   C27.3,3.9,27,5.1,27,6.3c0,3.8,2.7,7,6.4,7.7V16.9z"/></g><text x="0" y="63" fill="#000000" font-size="5px" font-weight="bold" font-family="'Helvetica Neue', Helvetica, Arial-Unicode, Arial, Sans-serif">Created by Vectors Market</text><text x="0" y="68" fill="#000000" font-size="5px" font-weight="bold" font-family="'Helvetica Neue', Helvetica, Arial-Unicode, Arial, Sans-serif">from the Noun Project</text></svg>