<svg xmlns="http://www.w3.org/2000/svg" width="76" height="90" viewBox="0, 0, 76, 90"><path d="M75.454 65.73V0H.944v65.73h74.51zM75.454 90v-1.508H.944V90h74.51zM4.64 72.762H2.83l.923-2.547.886 2.547zm.388 1.114l.543 1.495h1.324L4.23 68.147h-.934L.546 75.37H1.86l.57-1.494h2.598zM15.18 71.58v.225c0 2.282-1.198 3.72-3.092 3.72-1.922 0-3.33-1.534-3.33-3.657 0-2.165 1.417-3.732 3.368-3.732 1.18 0 2.122.57 2.722 1.662l-1.085.648c-.38-.7-.933-1.05-1.665-1.05-1.18 0-2.065 1.06-2.065 2.473 0 1.38.885 2.408 2.074 2.408.904 0 1.57-.594 1.665-1.495H12.28V71.58h2.9zM19.227 71.548v-2.14h.383c.774 0 1.194.358 1.194 1.048 0 .71-.42 1.092-1.214 1.092h-.363zm1.405.84c.934-.213 1.448-.925 1.448-2.007 0-1.324-.82-2.09-2.25-2.09h-1.835v7.08h1.232v-2.844h.163l1.72 2.845h1.522l-2-2.982zM26.364 75.37H25.13v-7.08h1.234v7.08zM34.07 70.19c-.515-.562-.962-.796-1.553-.796-1.16 0-2.074 1.073-2.074 2.43 0 1.435.885 2.442 2.132 2.442.56 0 1-.222 1.494-.774v1.62c-.563.298-1.02.414-1.553.414-1.883 0-3.35-1.61-3.35-3.69 0-2.06 1.504-3.7 3.38-3.7.532 0 .98.126 1.522.433v1.62zM38.115 72.345c0 .722.038.956.2 1.264.21.402.64.657 1.115.657.477 0 .905-.255 1.116-.658.16-.31.2-.543.2-1.265V68.29h1.232v4.332c0 .828-.142 1.41-.464 1.888-.437.636-1.217 1.017-2.084 1.017-.868 0-1.647-.38-2.083-1.017-.323-.477-.465-1.06-.465-1.888v-4.33h1.232v4.053zM46.336 74.168h1.95v1.202h-3.183v-7.08h1.233v5.878zM51.214 75.37v-5.876h-1.417v-1.2h4.077v1.2h-1.427v5.877h-1.233zM57.572 72.345c0 .722.038.956.2 1.264.21.402.64.657 1.115.657.477 0 .906-.255 1.116-.658.162-.31.2-.543.2-1.265V68.29h1.232v4.332c0 .828-.142 1.41-.465 1.888-.435.636-1.215 1.017-2.083 1.017-.867 0-1.647-.38-2.084-1.017-.322-.477-.464-1.06-.464-1.888v-4.33h1.232v4.053zM65.793 71.548v-2.14h.382c.774 0 1.195.358 1.195 1.048 0 .71-.42 1.092-1.214 1.092h-.363zm1.405.84c.934-.213 1.447-.925 1.447-2.007 0-1.324-.818-2.09-2.25-2.09H64.56v7.08h1.233v-2.844h.163l1.72 2.845h1.52L67.2 72.39zM72.93 69.494v1.563h2.188v1.202h-2.19v1.908h2.275v1.202h-3.506v-7.077h3.506v1.2H72.93zM2.442 82.217v-1.84h.373c.623 0 .95.32.95.914 0 .617-.327.927-.97.927h-.353zM1.21 86.34H3.35c1.333 0 2.142-.753 2.142-2.005 0-.954-.438-1.568-1.285-1.77.505-.328.695-.73.695-1.433 0-.584-.218-1.137-.57-1.445-.324-.286-.82-.425-1.558-.425H1.21v7.08zm1.232-1.113v-1.962h.47c.926 0 1.307.296 1.307 1.007 0 .637-.41.955-1.238.955h-.54zM10.006 86.342H8.774v-7.08h1.232v7.08zM16.682 80.366c1.17 0 2.11 1.093 2.11 2.43 0 1.348-.95 2.442-2.11 2.442-1.17 0-2.12-1.094-2.12-2.44 0-1.34.95-2.432 2.12-2.432zm0-1.26c-1.902 0-3.395 1.63-3.395 3.712 0 2.08 1.474 3.68 3.395 3.68 1.892 0 3.386-1.62 3.386-3.7 0-2.07-1.484-3.69-3.386-3.69zM24.584 85.138h1.95v1.202H23.35v-7.078h1.234v5.876zM32.448 80.366c1.17 0 2.11 1.093 2.11 2.43 0 1.348-.95 2.442-2.11 2.442-1.17 0-2.12-1.094-2.12-2.44 0-1.34.95-2.432 2.12-2.432zm0-1.26c-1.902 0-3.396 1.63-3.396 3.712 0 2.08 1.475 3.68 3.396 3.68 1.892 0 3.386-1.62 3.386-3.7 0-2.07-1.485-3.69-3.386-3.69zM45.218 82.552v.224c0 2.282-1.198 3.722-3.092 3.722-1.922 0-3.33-1.536-3.33-3.66 0-2.164 1.418-3.73 3.368-3.73 1.18 0 2.122.57 2.722 1.66l-1.085.648c-.38-.7-.932-1.05-1.665-1.05-1.18 0-2.064 1.06-2.064 2.474 0 1.38.886 2.41 2.075 2.41.904 0 1.57-.595 1.666-1.496h-1.494v-1.202h2.902zM49.74 86.342H48.51v-7.08h1.233v7.08zM57.364 83.497l-1.282.117 1.225 1.337c-.285.213-.532.287-.912.287-1.207 0-2.1-1.04-2.1-2.45 0-1.37.932-2.422 2.147-2.422 1.17 0 2.12 1.083 2.12 2.43 0 .628-.144 1.073-.495 1.498l-.703-.796zm2.605 2.98l-1.03-1.134c.63-.806.896-1.548.896-2.535 0-2.08-1.494-3.7-3.394-3.7-1.928 0-3.42 1.61-3.42 3.69 0 2.09 1.483 3.7 3.402 3.7.703 0 1.216-.148 1.776-.53l.523.646 1.246-.137zM64.29 83.316c0 .722.037.956.2 1.264.21.403.638.658 1.115.658.476 0 .906-.255 1.115-.658.162-.308.2-.542.2-1.264v-4.054h1.232v4.33c0 .83-.142 1.412-.464 1.89-.436.634-1.215 1.016-2.083 1.016-.868 0-1.647-.382-2.084-1.017-.32-.476-.463-1.06-.463-1.887v-4.33h1.232v4.053zM72.986 80.465v1.563h2.19v1.202h-2.19v1.908h2.274v1.202h-3.506v-7.076h3.506v1.2h-2.274z" fill="#009901"/><path d="M45.353 20.407c9.236 0 14.476 4.013 14.476 10.702 0 6.688-4.264 8.74-4.264 8.74s7.905 1.872 7.905 11.236c0 10.882-12.522 11-12.522 11H40.113v-41.68h5.24zm0 4.905v13.556s2.397 0 3.996-.178c1.598-.18 5.772-1.07 5.683-6.778-.088-5.708-3.997-6.422-6.838-6.69l-2.842.09zm0 17.926v14.09h5.33c1.242 0 7.636-.8 7.725-6.954.09-6.155-6.928-7.314-8.526-7.314-1.6 0-4.53.178-4.53.178zM36.116 62.086h-5.24v-9.93H13.024s-1.42 3.746-1.42 9.72H6.54c0-10.7 5.887-29.48 21.938-40.4 6.04-3.12 7.638 1.338 7.638 2.676v37.934zm-5.24-36.24C16.843 37.353 14.978 46.985 14.978 46.985h15.898V25.847zM47.484 2.525s9.37 4.013 7.638 15.563c0 0 5.33-7.135 13.943-5.35 0 0-3.792 10.774-15.053 7.223-10.747-3.388-8.17-15.696-6.528-17.435z" fill="#FFF"/></svg>