<?xml version="1.0" encoding="iso-8859-1"?>
<!-- Generator: Adobe Illustrator 18.0.0, SVG Export Plug-In . SVG Version: 6.00 Build 0)  -->
<!DOCTYPE svg PUBLIC "-//W3C//DTD SVG 1.1//EN" "http://www.w3.org/Graphics/SVG/1.1/DTD/svg11.dtd">
<svg version="1.1" id="Layer_1" xmlns="http://www.w3.org/2000/svg" xmlns:xlink="http://www.w3.org/1999/xlink" x="0px" y="0px"
	 viewBox="0 0 24 24" style="enable-background:new 0 0 24 24;" xml:space="preserve">
<g>
	<path d="M18.5,4h-13C5.224,4,5,3.776,5,3.5S5.224,3,5.5,3h13C18.776,3,19,3.224,19,3.5S18.776,4,18.5,4z"/>
	<path d="M18.5,21h-13C5.224,21,5,20.776,5,20.5S5.224,20,5.5,20h13c0.276,0,0.5,0.224,0.5,0.5S18.776,21,18.5,21z"/>
	<path d="M7.5,19c-0.074,0-0.149-0.017-0.22-0.051c-0.225-0.11-0.334-0.37-0.255-0.607l3-9c0.046-0.137,0.149-0.248,0.283-0.304
		c0.135-0.056,0.285-0.05,0.415,0.015l1.414,0.708l0.872-4.358c0.028-0.141,0.115-0.262,0.239-0.334
		c0.123-0.072,0.271-0.089,0.409-0.042l3,1c0.133,0.044,0.24,0.142,0.298,0.27c0.058,0.127,0.059,0.273,0.004,0.401l-3,7
		c-0.055,0.127-0.158,0.226-0.288,0.273s-0.271,0.04-0.396-0.022l-1.605-0.803l-3.755,5.633C7.82,18.92,7.662,19,7.5,19z
		 M10.792,10.205l-1.637,4.911l1.929-2.894c0.14-0.211,0.416-0.282,0.64-0.17l1.525,0.763l2.577-6.013l-1.947-0.649l-0.889,4.445
		c-0.03,0.153-0.131,0.283-0.271,0.351c-0.14,0.068-0.304,0.068-0.443-0.002L10.792,10.205z"/>
	<path d="M16.5,24h-9C7.224,24,7,23.776,7,23.5C7,23.131,6.869,23,6.5,23C5.575,23,5,22.425,5,21.5v-19C5,1.575,5.575,1,6.5,1
		C6.869,1,7,0.869,7,0.5C7,0.224,7.224,0,7.5,0h9C16.776,0,17,0.224,17,0.5C17,0.869,17.131,1,17.5,1C18.425,1,19,1.575,19,2.5v19
		c0,0.925-0.575,1.5-1.5,1.5c-0.369,0-0.5,0.131-0.5,0.5C17,23.776,16.776,24,16.5,24z M7.936,23h8.129c0.173-0.627,0.69-1,1.436-1
		c0.369,0,0.5-0.131,0.5-0.5v-19C18,2.131,17.869,2,17.5,2c-0.745,0-1.263-0.373-1.436-1H7.936C7.763,1.627,7.245,2,6.5,2
		C6.131,2,6,2.131,6,2.5v19C6,21.869,6.131,22,6.5,22C7.245,22,7.763,22.373,7.936,23z"/>
</g>
<g>
</g>
<g>
</g>
<g>
</g>
<g>
</g>
<g>
</g>
<g>
</g>
<g>
</g>
<g>
</g>
<g>
</g>
<g>
</g>
<g>
</g>
<g>
</g>
<g>
</g>
<g>
</g>
<g>
</g>
</svg>
