<?xml version="1.0" encoding="iso-8859-1"?>
<!-- Generator: Adobe Illustrator 19.0.0, SVG Export Plug-In . SVG Version: 6.00 Build 0)  -->
<svg version="1.1" id="Layer_1" xmlns="http://www.w3.org/2000/svg" xmlns:xlink="http://www.w3.org/1999/xlink" x="0px" y="0px"
	 viewBox="0 0 24 24" style="enable-background:new 0 0 24 24;" xml:space="preserve">
<g>
	<g>
		<path d="M15.537,18.162c-0.156-0.202-0.439-0.251-0.655-0.12C13.857,18.669,12.688,19,11.5,19C7.916,19,5,16.084,5,12.5
			c0-3.208,2.395-5.97,5.571-6.425C10.817,6.039,11,5.829,11,5.58V1.5C11,1.224,10.776,1,10.5,1C4.71,1,0,6.159,0,12.5
			S5.159,24,11.5,24c2.837,0,4.372-0.514,6.317-2.114c0.209-0.172,0.243-0.479,0.077-0.693L15.537,18.162z M11.5,23
			C5.71,23,1,18.29,1,12.5C1,6.896,4.993,2.303,10,2.014v3.145C6.551,5.862,4,8.944,4,12.5c0,4.136,3.364,7.5,7.5,7.5
			c1.224,0,2.43-0.304,3.514-0.881l1.788,2.298C15.223,22.622,13.906,23,11.5,23z M12.5,5c3.584,0,6.5,2.916,6.5,6.5
			c0,0.276,0.224,0.5,0.5,0.5h4c0.276,0,0.5-0.224,0.5-0.5C24,5.159,18.841,0,12.5,0C12.224,0,12,0.224,12,0.5v4
			C12,4.776,12.224,5,12.5,5z M13,1.012c5.393,0.254,9.734,4.595,9.988,9.988h-3.005C19.736,7.262,16.737,4.264,13,4.017V1.012z
			 M23.5,13h-4.079c-0.249,0-0.46,0.183-0.496,0.429c-0.225,1.576-1.02,3.009-2.236,4.037c-0.208,0.175-0.237,0.485-0.066,0.696
			l2.988,3.699c0.087,0.109,0.215,0.175,0.354,0.185c0.012,0.001,0.023,0.001,0.035,0.001c0.126,0,0.248-0.048,0.341-0.134
			C22.666,19.744,24,16.678,24,13.5C24,13.224,23.776,13,23.5,13z M20.043,20.804l-2.345-2.903c1.094-1.053,1.841-2.412,2.144-3.901
			h3.146C22.865,16.542,21.813,18.973,20.043,20.804z"/>
	</g>
</g>
</svg>
