<svg width="48" height="48" viewBox="0 0 29 28" fill="none" xmlns="http://www.w3.org/2000/svg" aria-labelledby="rocketIconTitle" stroke="#000" stroke-width="1.5" stroke-linecap="round" stroke-linejoin="round" color="#000"><path d="M12.753 9.924c-.547.362-1.074.782-1.56 1.268-.718.717-.698.756-1.34 1.49m2.9-2.758c3.425-2.267 7.632-2.267 7.632-2.267s0 4.207-2.268 7.632m-5.364-5.365 5.364 5.365m0 0a10.02 10.02 0 0 1-1.268 1.56c-.717.717-.756.698-1.49 1.339m-9.244-.759c-.372.524-.58.835-.58.835l4.243 4.242s.311-.207.835-.58M6.115 17.43l-3.408-3.408 5.657-2.829 1.49 1.49m-3.739 4.747a62.503 62.503 0 0 1 3.739-4.747m.759 9.244 3.408 3.409 2.828-5.657-1.49-1.49m-4.746 3.738a62.526 62.526 0 0 0 4.747-3.738M5 23c.35-1.418 1-2 1.5-1.5S6.418 22.65 5 23Z"/></svg>