<?xml version="1.0" encoding="iso-8859-1"?>
<!-- Generator: Adobe Illustrator 18.0.0, SVG Export Plug-In . SVG Version: 6.00 Build 0)  -->
<!DOCTYPE svg PUBLIC "-//W3C//DTD SVG 1.1//EN" "http://www.w3.org/Graphics/SVG/1.1/DTD/svg11.dtd">
<svg version="1.1" id="Layer_1" xmlns="http://www.w3.org/2000/svg" xmlns:xlink="http://www.w3.org/1999/xlink" x="0px" y="0px"
	 viewBox="0 0 24 24" style="enable-background:new 0 0 24 24;" xml:space="preserve">
<g>
	<path d="M11,23.5C5.21,23.5,0.5,18.79,0.5,13S5.21,2.5,11,2.5c2.064,0,4.065,0.603,5.788,1.743
		c0.229,0.152,0.293,0.463,0.141,0.693c-0.154,0.231-0.464,0.292-0.693,0.141C14.678,4.046,12.867,3.5,11,3.5
		c-5.238,0-9.5,4.262-9.5,9.5s4.262,9.5,9.5,9.5s9.5-4.262,9.5-9.5c0-1.867-0.545-3.678-1.577-5.236
		c-0.152-0.23-0.089-0.541,0.141-0.693c0.229-0.151,0.539-0.09,0.693,0.141C20.898,8.934,21.5,10.936,21.5,13
		C21.5,18.79,16.79,23.5,11,23.5z"/>
	<path d="M11,15.5c-1.379,0-2.5-1.122-2.5-2.5s1.121-2.5,2.5-2.5s2.5,1.122,2.5,2.5S12.379,15.5,11,15.5z M11,11.5
		c-0.827,0-1.5,0.673-1.5,1.5s0.673,1.5,1.5,1.5s1.5-0.673,1.5-1.5S11.827,11.5,11,11.5z"/>
	<path d="M11,13.5c-0.128,0-0.256-0.049-0.354-0.146c-0.195-0.195-0.195-0.512,0-0.707L18.5,4.793V3c0-0.133,0.053-0.26,0.146-0.354
		l2-2c0.144-0.143,0.359-0.187,0.545-0.108C21.378,0.616,21.5,0.798,21.5,1v1.5H23c0.202,0,0.385,0.122,0.462,0.309
		s0.034,0.402-0.108,0.545l-2,2C21.26,5.448,21.133,5.5,21,5.5h-1.793l-7.854,7.854C11.256,13.451,11.128,13.5,11,13.5z M19.5,4.5
		h1.293l1-1H21c-0.276,0-0.5-0.224-0.5-0.5V2.207l-1,1V4.5z"/>
	<path d="M11,19.5c-3.584,0-6.5-2.916-6.5-6.5S7.416,6.5,11,6.5c0.97,0,1.911,0.215,2.797,0.639c0.249,0.12,0.354,0.418,0.235,0.667
		c-0.119,0.249-0.418,0.354-0.667,0.235C12.615,7.682,11.819,7.5,11,7.5c-3.032,0-5.5,2.467-5.5,5.5s2.468,5.5,5.5,5.5
		s5.5-2.467,5.5-5.5c0-0.819-0.183-1.615-0.542-2.366c-0.119-0.249-0.014-0.547,0.235-0.667c0.246-0.12,0.547-0.016,0.667,0.235
		C17.285,11.089,17.5,12.03,17.5,13C17.5,16.584,14.584,19.5,11,19.5z"/>
</g>
<g>
</g>
<g>
</g>
<g>
</g>
<g>
</g>
<g>
</g>
<g>
</g>
<g>
</g>
<g>
</g>
<g>
</g>
<g>
</g>
<g>
</g>
<g>
</g>
<g>
</g>
<g>
</g>
<g>
</g>
</svg>
