<svg width="271" height="287" viewBox="0 0 271 287" fill="none" xmlns="http://www.w3.org/2000/svg">
    <path d="M171.648 244.964L175.546 244.057C172.946 233.477 165.053 224.482 153.941 220.962L152.777 224.792C162.471 227.882 169.361 235.731 171.648 244.964Z" fill="#EDC79D"/>
    <path d="M160.924 247.457C160.655 246.699 160.614 245.854 160.864 245.027C161.491 242.97 163.665 241.809 165.722 242.436C167.247 242.902 168.28 244.218 168.456 245.708L171.647 244.967C169.361 235.734 162.47 227.885 152.777 224.795L144.74 251.222L160.924 247.46V247.457Z" fill="#F03214"/>
    <path d="M165.724 242.433C163.667 241.806 161.491 242.967 160.867 245.024C160.616 245.851 160.658 246.696 160.927 247.454L168.459 245.705C168.283 244.215 167.253 242.899 165.724 242.433Z" fill="#932A09"/>
    <path d="M159.703 231.936C157.786 230.545 155.103 230.972 153.711 232.889L155.864 234.45L154.308 236.593L156.948 238.507L158.503 236.364L160.655 237.925C162.047 236.008 161.62 233.324 159.703 231.933V231.936Z" fill="#FFECD7"/>
    <path d="M155.408 246.374C156.673 245.699 157.289 244.383 156.783 243.434C156.277 242.486 154.841 242.264 153.575 242.94C152.31 243.615 151.694 244.931 152.2 245.879C152.706 246.828 154.142 247.049 155.408 246.374Z" fill="black"/>
    <path d="M113.943 246.475C115.403 241.675 118.024 237.549 121.407 234.307L118.672 231.384C114.794 235.089 111.788 239.815 110.116 245.311C108.444 250.807 108.313 256.407 109.468 261.644L113.367 260.736C112.364 256.163 112.483 251.273 113.943 246.475Z" fill="#EDC79D"/>
    <path d="M113.54 261.479L109.641 262.387C112.242 272.967 120.135 281.962 131.246 285.482L132.411 281.652C122.717 278.562 115.827 270.713 113.54 261.479Z" fill="#EDC79D"/>
    <path d="M148.869 227.539L150.033 223.709C138.844 220.446 127.279 223.523 119.227 230.865L121.962 233.787C129.004 227.39 139.098 224.706 148.869 227.539Z" fill="#EDC79D"/>
    <path d="M172.543 247.768L168.644 248.675C169.647 253.249 169.528 258.139 168.068 262.936C166.608 267.737 163.987 271.863 160.604 275.105L163.339 278.027C167.217 274.323 170.223 269.597 171.895 264.101C173.567 258.605 173.698 253.004 172.543 247.768Z" fill="#EDC79D"/>
    <path d="M133.142 281.873L131.978 285.703C143.167 288.966 154.732 285.888 162.784 278.547L160.049 275.624C153.007 282.022 142.913 284.706 133.142 281.873Z" fill="#EDC79D"/>
    <path d="M136.853 266.713C134.796 266.086 133.635 263.913 134.262 261.856C134.889 259.799 137.062 258.637 139.119 259.264C139.152 259.273 139.181 259.288 139.211 259.297L140.45 255.228L113.543 261.483C115.83 270.716 122.72 278.565 132.414 281.655L136.951 266.74C136.919 266.731 136.886 266.725 136.856 266.716L136.853 266.713Z" fill="#F03214"/>
    <path d="M139.913 259.608C141.459 260.488 142.251 262.348 141.71 264.122C141.17 265.895 139.48 266.999 137.704 266.871L133.139 281.876C142.91 284.706 153.004 282.025 160.046 275.627L141.176 255.452L139.91 259.611L139.913 259.608Z" fill="#F03214"/>
    <path d="M148.869 227.539C139.098 224.709 129.004 227.39 121.962 233.787L140.832 253.962L148.869 227.536V227.539Z" fill="#F03214"/>
    <path d="M165.139 250.26C164.512 252.317 162.339 253.479 160.282 252.852C159.321 252.559 158.56 251.926 158.082 251.129L141.737 254.927L160.608 275.102C163.987 271.86 166.611 267.734 168.071 262.933C169.531 258.133 169.65 253.246 168.647 248.672L165.298 249.451C165.274 249.72 165.226 249.992 165.142 250.257L165.139 250.26Z" fill="#F03214"/>
    <path d="M121.407 234.307C118.027 237.549 115.403 241.675 113.943 246.475C112.483 251.275 112.364 256.163 113.367 260.736L140.274 254.482L121.404 234.307H121.407Z" fill="#F03214"/>
    <path d="M141.71 264.119C142.25 262.345 141.459 260.485 139.913 259.605L137.704 266.865C139.477 266.994 141.17 265.892 141.71 264.116V264.119Z" fill="#932A09"/>
    <path d="M139.119 259.261C137.062 258.635 134.886 259.796 134.262 261.853C133.635 263.91 134.796 266.086 136.853 266.71C136.886 266.719 136.919 266.725 136.948 266.734L139.211 259.294C139.179 259.282 139.149 259.27 139.119 259.261Z" fill="#932A09"/>
    <path d="M160.282 252.852C162.339 253.479 164.515 252.317 165.139 250.261C165.22 249.992 165.271 249.723 165.294 249.454L158.082 251.132C158.56 251.929 159.324 252.562 160.282 252.855V252.852Z" fill="#932A09"/>
    <path d="M162.426 261.214L160.864 263.366L158.721 261.811L156.807 264.45L158.951 266.005L157.389 268.158C159.306 269.549 161.99 269.122 163.381 267.206C164.772 265.289 164.345 262.605 162.429 261.214H162.426Z" fill="#FFECD7"/>
    <path d="M125.766 263.877L123.126 261.963L121.571 264.107L119.419 262.545C118.027 264.462 118.454 267.146 120.371 268.537C122.288 269.928 124.971 269.501 126.363 267.585L124.21 266.023L125.766 263.88V263.877Z" fill="#FFECD7"/>
    <path d="M146.881 274.723L144.254 275.141L143.839 272.525L140.618 273.039L141.033 275.654L138.406 276.072C138.779 278.413 140.976 280.007 143.316 279.634C145.657 279.26 147.251 277.063 146.878 274.723H146.881Z" fill="#FFECD7"/>
    <path d="M120.425 246.696L122.568 248.251L124.482 245.612L122.338 244.057L123.9 241.904C121.983 240.513 119.299 240.94 117.908 242.857C116.517 244.773 116.944 247.457 118.86 248.848L120.422 246.696H120.425Z" fill="#FFECD7"/>
    <path d="M137.059 233.235C136.686 230.894 134.489 229.3 132.148 229.673C129.808 230.047 128.213 232.244 128.587 234.584L131.214 234.166L131.629 236.782L134.85 236.268L134.435 233.653L137.062 233.235H137.059Z" fill="#FFECD7"/>
    <path d="M152.804 262.187C154.954 262.187 156.697 260.444 156.697 258.294C156.697 256.144 154.954 254.401 152.804 254.401C150.654 254.401 148.911 256.144 148.911 258.294C148.911 260.444 150.654 262.187 152.804 262.187Z" fill="#932A09"/>
    <path d="M129.616 255.36C131.766 255.36 133.509 253.617 133.509 251.467C133.509 249.317 131.766 247.574 129.616 247.574C127.466 247.574 125.723 249.317 125.723 251.467C125.723 253.617 127.466 255.36 129.616 255.36Z" fill="#932A09"/>
    <path d="M119.882 257.016C120.83 256.51 121.052 255.074 120.377 253.808C119.702 252.543 118.385 251.927 117.437 252.433C116.488 252.939 116.267 254.375 116.942 255.641C117.617 256.906 118.934 257.522 119.882 257.016Z" fill="black"/>
    <path d="M150.01 272.152C150.959 271.646 151.18 270.21 150.505 268.944C149.83 267.679 148.514 267.063 147.565 267.569C146.617 268.075 146.395 269.511 147.07 270.777C147.746 272.042 149.062 272.658 150.01 272.152Z" fill="black"/>
    <path d="M144.699 233.827C145.648 233.321 145.869 231.885 145.194 230.619C144.519 229.354 143.203 228.738 142.254 229.244C141.306 229.75 141.084 231.186 141.76 232.452C142.435 233.717 143.751 234.333 144.699 233.827Z" fill="black"/>
    <path d="M131.314 274.442C132.58 273.767 133.195 272.451 132.689 271.502C132.183 270.554 130.747 270.332 129.482 271.008C128.216 271.683 127.6 272.999 128.106 273.948C128.612 274.896 130.049 275.118 131.314 274.442Z" fill="black"/>
    <path d="M166.175 257.793C167.441 257.118 168.057 255.802 167.551 254.853C167.045 253.905 165.609 253.683 164.343 254.359C163.077 255.034 162.462 256.35 162.968 257.298C163.474 258.247 164.91 258.468 166.175 257.793Z" fill="black"/>
    <path d="M139.313 245.711C141.463 245.711 143.206 243.968 143.206 241.818C143.206 239.668 141.463 237.925 139.313 237.925C137.163 237.925 135.42 239.668 135.42 241.818C135.42 243.968 137.163 245.711 139.313 245.711Z" fill="#932A09"/>
    <path d="M216.031 220.998L218.879 235.044L216.031 220.998Z" fill="#FFDCFF"/>
    <path d="M270.317 224.613L264.641 196.634C261.999 200.223 258.068 202.883 253.366 203.838C247.705 204.987 242.111 203.42 237.94 200.041C237.961 201.65 238.376 203.295 239.272 204.907C243.35 212.245 240.045 219.09 230.996 218.738C224.733 218.493 219.795 218.613 216.028 221.004L218.876 235.05C219.079 236.044 220.046 236.686 221.04 236.486L251.969 230.214L268.878 226.784C269.872 226.581 270.514 225.613 270.314 224.619L270.317 224.613Z" fill="#FFDCFF"/>
    <path d="M230.999 218.732C240.048 219.087 243.353 212.242 239.275 204.901C238.379 203.289 237.964 201.644 237.943 200.035C234.704 197.41 232.322 193.688 231.432 189.293L261.904 183.114L257.339 160.604C257.136 159.61 256.169 158.968 255.175 159.168L223.458 165.601L223.339 165.625C223.103 166.124 222.655 166.667 222.058 167.13C220.87 168.049 219.533 168.315 219.073 167.721C218.843 167.425 218.876 166.975 219.109 166.482L211.669 167.99C211.813 168.121 211.953 168.264 212.087 168.417C213.075 169.551 213.416 170.868 212.848 171.363C212.281 171.856 211.021 171.339 210.036 170.205C209.55 169.647 209.221 169.043 209.081 168.515L207.34 168.867C206.346 169.07 205.704 170.038 205.904 171.032L214.395 212.904L216.034 220.992C219.804 218.598 224.742 218.478 231.002 218.726L230.999 218.732Z" fill="#FF6E3C"/>
    <path d="M219.067 167.724C219.527 168.318 220.864 168.052 222.052 167.133C222.649 166.67 223.097 166.127 223.333 165.628L219.103 166.485C218.87 166.978 218.837 167.428 219.067 167.724Z" fill="#FFC88C"/>
    <path d="M210.03 170.211C211.018 171.345 212.278 171.862 212.842 171.369C213.41 170.876 213.069 169.557 212.081 168.423C211.947 168.267 211.806 168.124 211.663 167.996L209.072 168.521C209.212 169.049 209.541 169.652 210.027 170.211H210.03Z" fill="#FFC88C"/>
    <path d="M228.32 196.254C228.732 195.625 228.047 194.448 226.791 193.625C225.535 192.802 224.182 192.644 223.77 193.273C223.358 193.902 224.043 195.079 225.299 195.902C226.555 196.725 227.908 196.883 228.32 196.254Z" fill="#FFC88C"/>
    <path d="M237.979 219.343C238.391 218.714 237.707 217.537 236.45 216.714C235.194 215.89 233.841 215.733 233.429 216.362C233.017 216.991 233.702 218.168 234.958 218.991C236.215 219.814 237.567 219.972 237.979 219.343Z" fill="#FFC88C"/>
    <path d="M220.054 203.762C221.554 203.674 222.734 202.995 222.69 202.244C222.646 201.494 221.395 200.956 219.895 201.044C218.396 201.132 217.216 201.812 217.26 202.562C217.304 203.313 218.555 203.85 220.054 203.762Z" fill="#FFC88C"/>
    <path d="M225.764 185.523C226.452 185.221 226.523 183.862 225.921 182.486C225.319 181.109 224.272 180.238 223.583 180.54C222.895 180.841 222.824 182.201 223.426 183.577C224.028 184.953 225.075 185.824 225.764 185.523Z" fill="#FFC88C"/>
    <path d="M223.679 214.323C223.905 212.838 223.485 211.543 222.742 211.43C221.998 211.317 221.213 212.43 220.988 213.915C220.762 215.4 221.182 216.695 221.925 216.808C222.669 216.921 223.454 215.808 223.679 214.323Z" fill="#FFC88C"/>
    <path d="M219.939 189.347C220.541 187.971 220.47 186.611 219.781 186.31C219.092 186.008 218.046 186.88 217.444 188.256C216.843 189.632 216.913 190.992 217.602 191.293C218.291 191.594 219.337 190.723 219.939 189.347Z" fill="#FFC88C"/>
    <path d="M231.764 207.665C232.366 206.289 232.295 204.929 231.607 204.628C230.918 204.326 229.871 205.198 229.27 206.574C228.668 207.95 228.738 209.31 229.427 209.611C230.116 209.912 231.162 209.041 231.764 207.665Z" fill="#FFC88C"/>
    <g style="mix-blend-mode:multiply" opacity="0.3">
        <g style="mix-blend-mode:multiply" opacity="0.3">
            <path d="M216.891 180.122C216.279 180.247 215.69 180.25 215.123 180.134C214.556 180.018 214.037 179.803 213.565 179.483C213.093 179.164 212.696 178.761 212.371 178.271C212.045 177.782 211.818 177.217 211.69 176.584C211.562 175.952 211.55 175.342 211.654 174.76C211.759 174.178 211.965 173.653 212.275 173.178C212.586 172.706 212.98 172.306 213.457 171.984C213.938 171.662 214.484 171.435 215.105 171.309C215.723 171.184 216.299 171.175 216.834 171.279C217.368 171.387 217.843 171.575 218.255 171.85C218.667 172.124 218.989 172.456 219.219 172.847L217.804 173.921C217.574 173.539 217.252 173.25 216.834 173.05C216.416 172.853 215.947 172.805 215.428 172.912C214.923 173.014 214.505 173.223 214.171 173.536C213.837 173.85 213.607 174.238 213.481 174.695C213.356 175.154 213.35 175.662 213.463 176.22C213.577 176.778 213.78 177.244 214.075 177.623C214.371 178.002 214.732 178.268 215.162 178.429C215.592 178.588 216.058 178.617 216.562 178.516C217.082 178.411 217.494 178.185 217.804 177.841C218.112 177.498 218.297 177.104 218.359 176.662L220.082 177.101C220.022 177.552 219.855 177.982 219.58 178.397C219.306 178.809 218.945 179.17 218.494 179.474C218.043 179.779 217.509 179.997 216.891 180.122Z" fill="black"/>
        </g>
        <g style="mix-blend-mode:multiply" opacity="0.3">
            <path d="M221.807 178.982L220.076 170.447L223.342 169.784C223.93 169.664 224.473 169.661 224.969 169.775C225.464 169.888 225.885 170.121 226.226 170.473C226.566 170.826 226.799 171.3 226.918 171.894C227.035 172.477 227.002 172.996 226.817 173.459C226.632 173.921 226.336 174.301 225.927 174.599L228.563 177.605L226.569 178.008L223.697 174.668L224.981 175.113L222.954 175.525L223.581 178.617L221.804 178.979L221.807 178.982ZM222.643 173.981L224.145 173.677C224.396 173.626 224.605 173.53 224.769 173.396C224.933 173.259 225.047 173.092 225.115 172.897C225.184 172.7 225.193 172.489 225.148 172.259C225.1 172.023 225.008 171.826 224.867 171.671C224.727 171.515 224.557 171.408 224.354 171.345C224.151 171.282 223.924 171.276 223.67 171.33L222.169 171.635L222.646 173.984L222.643 173.981Z" fill="black"/>
        </g>
        <g style="mix-blend-mode:multiply" opacity="0.3">
            <path d="M229.767 177.37L228.035 168.834L229.811 168.473L231.543 177.008L229.767 177.37Z" fill="black"/>
        </g>
        <g style="mix-blend-mode:multiply" opacity="0.3">
            <path d="M236.37 176.172C235.836 176.28 235.313 176.286 234.803 176.187C234.292 176.089 233.833 175.892 233.421 175.602C233.009 175.313 232.668 174.939 232.4 174.486L233.722 173.536C234.03 173.96 234.4 174.265 234.833 174.456C235.266 174.647 235.71 174.695 236.167 174.602C236.412 174.551 236.615 174.471 236.773 174.36C236.934 174.25 237.048 174.116 237.122 173.963C237.194 173.808 237.212 173.641 237.176 173.459C237.137 173.259 237.039 173.103 236.89 172.987C236.74 172.871 236.525 172.796 236.248 172.766L234.462 172.554C233.737 172.471 233.161 172.259 232.737 171.921C232.31 171.581 232.038 171.127 231.922 170.554C231.82 170.049 231.853 169.581 232.023 169.151C232.194 168.718 232.48 168.351 232.883 168.046C233.286 167.742 233.779 167.53 234.358 167.413C234.868 167.309 235.361 167.303 235.833 167.389C236.304 167.476 236.731 167.649 237.113 167.906C237.496 168.163 237.812 168.5 238.063 168.918L236.752 169.864C236.51 169.5 236.209 169.237 235.842 169.076C235.475 168.915 235.086 168.876 234.674 168.96C234.439 169.008 234.236 169.088 234.068 169.202C233.901 169.315 233.782 169.452 233.71 169.614C233.639 169.775 233.624 169.948 233.659 170.13C233.698 170.33 233.8 170.488 233.961 170.611C234.122 170.733 234.34 170.811 234.618 170.841L236.364 171.035C237.096 171.115 237.672 171.321 238.093 171.65C238.514 171.978 238.782 172.429 238.899 173.002C239 173.498 238.958 173.966 238.776 174.405C238.594 174.844 238.299 175.217 237.89 175.528C237.478 175.838 236.973 176.053 236.37 176.175V176.172Z" fill="black"/>
        </g>
        <g style="mix-blend-mode:multiply" opacity="0.3">
            <path d="M240.875 175.116L239.143 166.58L242.418 165.915C243.007 165.795 243.55 165.792 244.045 165.906C244.541 166.019 244.962 166.252 245.302 166.604C245.643 166.957 245.876 167.431 245.998 168.025C246.114 168.604 246.084 169.124 245.902 169.584C245.72 170.043 245.425 170.423 245.013 170.724C244.601 171.026 244.105 171.238 243.523 171.354L242.021 171.658L242.648 174.751L240.872 175.113L240.875 175.116ZM241.711 170.115L243.225 169.808C243.475 169.757 243.684 169.661 243.848 169.527C244.013 169.393 244.126 169.222 244.195 169.028C244.263 168.831 244.272 168.619 244.228 168.389C244.18 168.154 244.087 167.957 243.947 167.801C243.807 167.646 243.636 167.539 243.433 167.476C243.23 167.413 243.004 167.407 242.75 167.458L241.236 167.766L241.711 170.115Z" fill="black"/>
        </g>
        <g style="mix-blend-mode:multiply" opacity="0.3">
            <path d="M250.494 173.166L249.738 169.443L245.92 165.207L247.947 164.795L250.745 167.998L250.022 168.145L251.339 164.109L253.366 163.697L251.509 169.07L252.267 172.805L250.491 173.166H250.494Z" fill="black"/>
        </g>
    </g>
    <path d="M249.469 186.774L247.122 188.179L235.885 169.409C235.497 168.761 235.707 167.922 236.355 167.534C237.003 167.146 237.843 167.357 238.231 168.005L249.469 186.774Z" fill="#C8C8C8"/>
    <path d="M251.35 192.308C253.394 191.084 253.564 187.607 251.728 184.542C249.893 181.476 246.748 179.983 244.704 181.207C242.66 182.431 242.49 185.908 244.326 188.974C246.161 192.039 249.306 193.532 251.35 192.308Z" fill="#C8C8C8"/>
    <path d="M214.446 180.765C215.634 179.845 216.223 178.617 215.762 178.023C215.302 177.429 213.966 177.693 212.779 178.613C211.591 179.533 211.002 180.76 211.463 181.354C211.923 181.949 213.259 181.685 214.446 180.765Z" fill="#FFC88C"/>
    <path d="M229.477 174.14C229.889 173.511 229.204 172.334 227.948 171.511C226.691 170.688 225.339 170.531 224.927 171.16C224.515 171.789 225.199 172.966 226.456 173.789C227.712 174.612 229.065 174.769 229.477 174.14Z" fill="#FFC88C"/>
    <path d="M263.826 192.61L263.358 190.296L261.901 183.116L231.429 189.296C232.322 193.691 234.704 197.413 237.94 200.038C242.111 203.42 247.705 204.984 253.366 203.835C258.068 202.883 261.996 200.223 264.641 196.631L263.826 192.607V192.61Z" fill="#00C8FF"/>
    <path d="M224.423 109.838C238.587 109.838 250.07 98.3551 250.07 84.1905C250.07 70.0259 238.587 58.5432 224.423 58.5432C210.258 58.5432 198.775 70.0259 198.775 84.1905C198.775 98.3551 210.258 109.838 224.423 109.838Z" fill="#F03214"/>
    <path d="M209.445 54.4921C208.46 54.6503 207.517 54.9131 206.627 55.2653C209.084 60.4867 214.768 63.6871 220.751 62.7347C221.736 62.5765 222.679 62.3138 223.569 61.9615C221.112 56.7401 215.428 53.5398 209.442 54.4921H209.445Z" fill="#00641E"/>
    <path d="M228.859 51.4022C229.844 51.244 230.823 51.2052 231.779 51.2649C231.065 56.9908 226.656 61.7972 220.67 62.7496C219.685 62.9078 218.706 62.9466 217.75 62.8869C218.464 57.161 222.873 52.3545 228.859 51.4022Z" fill="#00641E"/>
    <path d="M231.095 65.6842C232.08 65.526 233.024 65.2632 233.913 64.911C231.456 59.6896 225.772 56.4892 219.79 57.4416C218.804 57.5998 217.861 57.8625 216.971 58.2148C219.428 63.4362 225.112 66.6365 231.098 65.6842H231.095Z" fill="#00641E"/>
    <path d="M211.681 68.774C210.696 68.9322 209.717 68.971 208.762 68.9113C209.475 63.1854 213.884 58.3789 219.87 57.4266C220.855 57.2684 221.834 57.2296 222.79 57.2893C222.076 63.0152 217.667 67.8217 211.681 68.774Z" fill="#00641E"/>
    <path d="M148.454 22.029C151.395 25.0204 152.233 29.6686 150.194 33.5973C149.368 35.1915 148.164 36.4633 146.755 37.3738C148.111 42.4878 145.236 47.8137 140.14 49.4288C138.426 49.9721 136.677 50.0199 135.038 49.6676C132.381 54.2412 126.58 55.9757 121.836 53.5127C120.242 52.6858 118.971 51.4827 118.06 50.0736C112.946 51.429 107.62 48.554 106.005 43.458C105.462 41.7444 105.414 39.995 105.766 38.356C101.193 35.699 99.4581 29.8985 101.921 25.1547C102.748 23.5605 103.951 22.2888 105.36 21.3782C104.005 16.2643 106.88 10.9384 111.976 9.32331C113.689 8.77997 115.439 8.7322 117.078 9.08448C117.708 8.00079 118.514 7.0813 119.439 6.33495C118.785 4.20937 118.705 2.04199 119.111 0C118.385 0.173151 117.663 0.370186 116.94 0.600059C101.046 5.63638 92.2455 22.6022 97.2788 38.4933C102.315 54.3875 119.281 63.1883 135.172 58.155C151.066 53.1187 159.867 36.1528 154.834 20.2617C154.67 19.7393 154.49 19.2258 154.299 18.7212C153.031 20.0885 151.404 21.1573 149.499 21.7604C149.15 21.8708 148.8 21.9604 148.451 22.035L148.454 22.029Z" fill="#FFD8B8"/>
    <path d="M135.635 14.9237C128.84 17.0015 121.625 13.2251 119.475 6.43335C119.463 6.39752 119.454 6.3617 119.445 6.32886C118.52 7.0752 117.714 7.99768 117.084 9.07838C115.445 8.72611 113.695 8.77387 111.982 9.31721C106.886 10.9323 104.011 16.2582 105.366 21.3721C103.957 22.2827 102.754 23.5514 101.927 25.1486C99.4641 29.8924 101.199 35.6929 105.772 38.3499C105.42 39.9889 105.468 41.7383 106.011 43.4519C107.626 48.5479 112.952 51.4228 118.066 50.0675C118.976 51.4766 120.245 52.6797 121.842 53.5066C126.586 55.9696 132.387 54.2351 135.044 49.6615C136.683 50.0138 138.432 49.966 140.146 49.4227C145.242 47.8076 148.117 42.4817 146.761 37.3677C148.17 36.4572 149.374 35.1884 150.2 33.5912C152.236 29.6655 151.401 25.0173 148.46 22.0229C143.05 23.1813 137.548 20.175 135.641 14.9207L135.635 14.9237ZM128.954 38.4992C123.911 40.0964 118.529 37.305 116.931 32.2628C115.334 27.2205 118.126 21.8378 123.168 20.2407C128.21 18.6435 133.593 21.4348 135.19 26.4771C136.787 31.5194 133.996 36.902 128.954 38.4992Z" fill="#F1B0FF"/>
    <path d="M126.888 51.3035C126.774 51.3035 126.661 51.2856 126.55 51.2468C126.019 51.0587 125.741 50.4795 125.93 49.9481L127.303 46.0552C127.491 45.5268 128.07 45.2462 128.601 45.4343C129.133 45.6223 129.41 46.2015 129.222 46.7329L127.849 50.6258C127.703 51.0438 127.309 51.3035 126.891 51.3035H126.888Z" fill="#00A4FF"/>
    <path d="M115.305 44.5238C115.191 44.5238 115.078 44.5059 114.967 44.4671L111.074 43.0938C110.543 42.9058 110.265 42.3266 110.453 41.7952C110.641 41.2668 111.221 40.9862 111.752 41.1743L115.645 42.5475C116.176 42.7356 116.454 43.3148 116.266 43.8462C116.12 44.2641 115.725 44.5238 115.308 44.5238H115.305Z" fill="#00A4FF"/>
    <path d="M142.671 29.4717C142.292 29.4717 141.928 29.2597 141.752 28.8925C141.51 28.385 141.725 27.779 142.23 27.5372L145.955 25.7549C146.463 25.5131 147.069 25.725 147.311 26.2326C147.553 26.7401 147.338 27.3461 146.833 27.5879L143.107 29.3702C142.967 29.4388 142.815 29.4687 142.668 29.4687L142.671 29.4717Z" fill="#00A4FF"/>
    <path d="M137.931 42.9148C137.552 42.9148 137.187 42.7028 137.011 42.3356C136.769 41.8281 136.984 41.2221 137.489 40.9803L141.215 39.198C141.722 38.9562 142.328 39.1711 142.57 39.6757C142.812 40.1832 142.597 40.7892 142.092 41.031L138.367 42.8133C138.226 42.8819 138.074 42.9118 137.928 42.9118L137.931 42.9148Z" fill="#00A4FF"/>
    <path d="M115.517 17.5839C115.335 17.5839 115.149 17.5361 114.982 17.4316L111.469 15.2642C110.991 14.9687 110.842 14.3417 111.137 13.8641C111.433 13.3864 112.06 13.2372 112.537 13.5327L116.051 15.7001C116.529 15.9956 116.678 16.6226 116.382 17.1002C116.191 17.4107 115.857 17.5839 115.517 17.5839Z" fill="#00A4FF"/>
    <path d="M105.838 30.6777C105.459 30.6777 105.094 30.4658 104.918 30.0986C104.677 29.591 104.891 28.985 105.396 28.7432L109.122 26.9609C109.629 26.7191 110.235 26.9341 110.477 27.4386C110.719 27.9461 110.504 28.5521 109.999 28.794L106.274 30.5762C106.133 30.6449 105.981 30.6747 105.835 30.6747L105.838 30.6777Z" fill="#00A4FF"/>
    <path d="M123.168 20.2408C128.21 18.6436 133.593 21.4349 135.19 26.4772C136.787 31.5195 133.996 36.9021 128.954 38.4993C133.996 36.9021 136.787 31.5195 135.19 26.4772C133.593 21.4349 128.21 18.6436 123.168 20.2408Z" fill="#FFD8B8"/>
    <path d="M31.0783 239.758C45.5743 239.758 57.3257 228.007 57.3257 213.511C57.3257 199.015 45.5743 187.263 31.0783 187.263C16.5823 187.263 4.83093 199.015 4.83093 213.511C4.83093 228.007 16.5823 239.758 31.0783 239.758Z" fill="#FFBE00"/>
    <path d="M37.9477 199.921C38.7457 199.921 39.3926 199.274 39.3926 198.476C39.3926 197.678 38.7457 197.031 37.9477 197.031C37.1497 197.031 36.5027 197.678 36.5027 198.476C36.5027 199.274 37.1497 199.921 37.9477 199.921Z" fill="#B77A00"/>
    <path d="M47.056 202.763C47.854 202.763 48.5009 202.116 48.5009 201.318C48.5009 200.52 47.854 199.873 47.056 199.873C46.258 199.873 45.6111 200.52 45.6111 201.318C45.6111 202.116 46.258 202.763 47.056 202.763Z" fill="#B77A00"/>
    <path d="M40.8643 207.838C41.6623 207.838 42.3092 207.192 42.3092 206.394C42.3092 205.596 41.6623 204.949 40.8643 204.949C40.0663 204.949 39.4194 205.596 39.4194 206.394C39.4194 207.192 40.0663 207.838 40.8643 207.838Z" fill="#B77A00"/>
    <path d="M49.9966 177.701C49.2234 177.435 48.4203 177.229 47.5814 177.104C40.2225 175.987 33.3531 180.985 32.1202 188.296C32.8934 188.562 33.6965 188.768 34.5353 188.893C41.8943 190.01 48.7636 185.012 49.9966 177.701Z" fill="#00641E"/>
    <path d="M26.0838 177.391C25.0748 177.238 24.0747 177.203 23.0955 177.271C23.8687 183.126 28.4154 188.013 34.5473 188.944C35.5564 189.096 36.5565 189.132 37.5357 189.063C36.7625 183.209 32.2158 178.322 26.0838 177.391Z" fill="#008C1E"/>
    <path d="M38.7254 62.5861C46.3045 65.5991 50.0115 74.1984 46.9985 81.7775L29.5589 125.646C28.4031 128.553 25.1037 129.975 22.1964 128.82L5.26828 122.09C2.36093 120.934 0.938639 117.635 2.09444 114.727L19.534 70.8592C22.547 63.2801 31.1463 59.5731 38.7254 62.5861Z" fill="#00A05A"/>
    <path d="M46.275 55.2705L38.2576 52.0833L30.618 71.3001L38.6354 74.4873L46.275 55.2705Z" fill="#00A05A"/>
    <path d="M48.3314 50.5223L40.02 47.2182C39.3045 46.9337 38.4938 47.2832 38.2094 47.9987L37.3293 50.2125C37.0449 50.928 37.3943 51.7386 38.1098 52.0231L46.4213 55.3272C47.1368 55.6117 47.9474 55.2622 48.2319 54.5467L49.112 52.3329C49.3964 51.6174 49.047 50.8068 48.3314 50.5223Z" fill="#B3B3B3"/>
    <path d="M40.2909 82.6753L23.7928 76.1165C22.921 75.77 21.9333 76.1957 21.5868 77.0675L10.567 104.787C10.2204 105.659 10.6462 106.647 11.518 106.993L28.0161 113.552C28.8878 113.899 29.8755 113.473 30.2221 112.601L41.2419 84.8813C41.5885 84.0095 41.1627 83.0218 40.2909 82.6753Z" fill="white"/>
    <path d="M35.873 88.5488C35.8192 88.5488 35.7655 88.5398 35.7118 88.519L23.1374 83.62C22.9105 83.5304 22.7971 83.2766 22.8866 83.0498C22.9762 82.8229 23.2299 82.7094 23.4598 82.799L36.0342 87.698C36.2611 87.7875 36.3745 88.0413 36.285 88.2682C36.2163 88.4413 36.0491 88.5488 35.873 88.5488Z" fill="#999999"/>
    <path d="M34.4341 92.0656C34.3803 92.0656 34.3266 92.0567 34.2729 92.0358L21.6985 87.1368C21.4716 87.0472 21.3582 86.7935 21.4477 86.5666C21.5373 86.3397 21.791 86.2293 22.0209 86.3158L34.5953 91.2148C34.8222 91.3044 34.9356 91.5581 34.8461 91.785C34.7774 91.9582 34.6102 92.0656 34.4341 92.0656Z" fill="#999999"/>
    <path d="M33.0308 95.6631C32.9771 95.6631 32.9233 95.6541 32.8696 95.6332L20.2952 90.7342C20.0684 90.6447 19.9549 90.3909 20.0445 90.164C20.134 89.9371 20.3878 89.8237 20.6177 89.9132L33.192 94.8122C33.4189 94.9018 33.5324 95.1555 33.4428 95.3824C33.3741 95.5556 33.207 95.6631 33.0308 95.6631Z" fill="#999999"/>
    <path d="M133.032 85.9578C103.381 85.9578 79.1934 110.145 79.1934 139.796C79.1934 169.447 103.381 193.634 133.032 193.634C162.682 193.634 186.87 169.447 186.87 139.796C186.87 110.145 162.682 85.9578 133.032 85.9578Z" fill="#00C8FF"/>
    <path d="M133.031 94.8423C108.274 94.8423 88.0778 115.038 88.0778 139.796C88.0778 164.554 108.274 184.75 133.031 184.75C157.789 184.75 177.985 164.554 177.985 139.796C177.985 115.038 157.789 94.8423 133.031 94.8423Z" fill="white"/>
    <path d="M172.316 139.659C172.316 140.426 171.77 140.972 171.002 140.972H165.53C164.763 140.972 164.217 140.426 164.217 139.659C164.217 138.891 164.873 138.345 165.53 138.345H171.002C171.659 138.345 172.316 138.891 172.316 139.659Z" fill="#0078DB"/>
    <path d="M167.065 120.072C167.393 120.728 167.175 121.496 166.626 121.932L161.921 124.666C161.703 124.777 161.482 124.777 161.264 124.777C160.825 124.777 160.389 124.559 160.061 124.12C159.733 123.463 159.951 122.696 160.5 122.26L165.205 119.525C165.862 119.197 166.629 119.415 167.065 120.072Z" fill="#0078DB"/>
    <path d="M153.168 107.485L150.433 112.301C150.215 112.74 149.776 112.958 149.23 112.958C149.012 112.958 148.791 112.847 148.573 112.74C147.917 112.411 147.699 111.536 148.027 110.88L150.762 106.175C151.09 105.518 151.965 105.3 152.622 105.736C153.278 106.064 153.496 106.829 153.168 107.485Z" fill="#0078DB"/>
    <path d="M152.619 173.689C152.401 173.799 152.18 173.907 151.962 173.907C151.523 173.907 151.087 173.689 150.759 173.25L148.024 168.545C147.696 167.888 147.914 167.121 148.57 166.685C149.227 166.357 149.994 166.575 150.43 167.124L153.165 171.829C153.493 172.486 153.275 173.253 152.619 173.689Z" fill="#0078DB"/>
    <path d="M117.493 112.739C117.275 112.85 117.054 112.957 116.836 112.957C116.397 112.957 115.961 112.739 115.633 112.301L112.898 107.596C112.57 106.939 112.788 106.064 113.444 105.736C114.101 105.407 114.868 105.625 115.304 106.175L118.039 110.88C118.367 111.536 118.149 112.411 117.493 112.739Z" fill="#0078DB"/>
    <path d="M118.042 168.434L115.307 173.139C115.089 173.578 114.651 173.796 114.104 173.796C113.886 173.796 113.665 173.796 113.447 173.578C112.791 173.25 112.573 172.375 112.901 171.718L115.636 167.013C115.964 166.357 116.839 166.139 117.496 166.575C118.152 166.903 118.37 167.778 118.042 168.434Z" fill="#0078DB"/>
    <path d="M106.113 124.12C105.895 124.558 105.456 124.776 104.909 124.776C104.691 124.776 104.471 124.776 104.253 124.666L99.5477 121.931C98.8909 121.603 98.673 120.728 99.1088 120.071C99.4372 119.415 100.312 119.197 100.969 119.633L105.674 122.367C106.22 122.696 106.441 123.46 106.113 124.117V124.12Z" fill="#0078DB"/>
    <path d="M100.984 138.566H105.614C106.262 138.566 106.724 139.029 106.724 139.676C106.724 140.324 106.169 140.787 105.614 140.787H100.984C100.336 140.787 99.873 140.324 99.873 139.676C99.873 139.029 100.336 138.566 100.984 138.566Z" fill="#0078DB"/>
    <path d="M105.244 156.908C104.874 156.908 104.503 156.723 104.226 156.353C103.948 155.797 104.133 155.15 104.596 154.779L108.578 152.463C109.134 152.185 109.874 152.37 110.152 152.925C110.429 153.481 110.244 154.129 109.689 154.499L105.706 156.815C105.614 156.815 105.429 156.908 105.244 156.908Z" fill="#0078DB"/>
    <path d="M131.718 177.519V172.047C131.718 171.279 132.264 170.733 133.031 170.733C133.799 170.733 134.345 171.39 134.345 172.047V177.519C134.345 178.286 133.799 178.832 133.031 178.832C132.264 178.943 131.718 178.286 131.718 177.519Z" fill="#0078DB"/>
    <path d="M159.95 155.194C160.279 154.538 161.154 154.32 161.81 154.648L166.515 157.383C167.172 157.711 167.39 158.586 166.954 159.243C166.736 159.682 166.297 159.899 165.751 159.899C165.533 159.899 165.312 159.899 165.094 159.682L160.389 157.054C159.843 156.616 159.622 155.851 159.95 155.194Z" fill="#0078DB"/>
    <path d="M135.99 138.318L150.493 152.4C151.198 153.105 151.55 153.914 151.55 154.83C151.55 155.747 151.198 156.556 150.493 157.26C149.789 157.965 149.048 158.317 148.275 158.317C147.499 158.317 146.69 157.965 145.845 157.26L131.342 142.966C130.637 142.262 130.145 141.557 129.864 140.853C129.584 140.148 129.44 139.444 129.44 138.739V103.476C129.44 102.491 129.757 101.715 130.393 101.15C131.025 100.586 131.873 100.305 132.858 100.305C133.844 100.305 134.62 100.586 135.184 101.15C135.748 101.715 136.029 102.488 136.029 103.476L135.993 138.315L135.99 138.318Z" fill="black"/>
</svg>
