<svg width="271" height="287" fill="none" xmlns="http://www.w3.org/2000/svg"><path d="m171.648 244.964 3.898-.907c-2.6-10.58-10.493-19.575-21.605-23.095l-1.164 3.83c9.694 3.09 16.584 10.939 18.871 20.172Z" fill="#EDC79D"/><path d="M160.924 247.457a3.88 3.88 0 0 1-.06-2.43 3.893 3.893 0 0 1 7.592.681l3.191-.741c-2.286-9.233-9.177-17.082-18.87-20.172l-8.037 26.427 16.184-3.762v-.003Z" fill="#F03214"/><path d="M165.724 242.433a3.89 3.89 0 0 0-4.857 2.591 3.873 3.873 0 0 0 .06 2.43l7.532-1.749a3.894 3.894 0 0 0-2.735-3.272Z" fill="#932A09"/><path d="M159.703 231.936a4.292 4.292 0 0 0-5.992.953l2.153 1.561-1.556 2.143 2.64 1.914 1.555-2.143 2.152 1.561a4.29 4.29 0 0 0-.952-5.992v.003Z" fill="#FFECD7"/><path d="M155.408 246.374c1.265-.675 1.881-1.991 1.375-2.94-.506-.948-1.942-1.17-3.208-.494-1.265.675-1.881 1.991-1.375 2.939.506.949 1.942 1.17 3.208.495Z" fill="#000"/><path d="M113.943 246.475a28.133 28.133 0 0 1 7.464-12.168l-2.735-2.923a32.131 32.131 0 0 0-8.556 13.927 32.163 32.163 0 0 0-.648 16.333l3.899-.908a28.146 28.146 0 0 1 .576-14.261ZM113.54 261.479l-3.899.908c2.601 10.58 10.494 19.575 21.605 23.095l1.165-3.83c-9.694-3.09-16.584-10.939-18.871-20.173ZM148.869 227.539l1.164-3.83c-11.189-3.263-22.754-.186-30.806 7.156l2.735 2.922c7.042-6.397 17.136-9.081 26.907-6.248ZM172.543 247.768l-3.899.907a28.145 28.145 0 0 1-.576 14.261 28.13 28.13 0 0 1-7.464 12.169l2.735 2.922a32.122 32.122 0 0 0 8.556-13.926 32.163 32.163 0 0 0 .648-16.333ZM133.142 281.873l-1.164 3.83c11.189 3.263 22.754.185 30.806-7.156l-2.735-2.923c-7.042 6.398-17.136 9.082-26.907 6.249Z" fill="#EDC79D"/><path d="M136.853 266.713a3.892 3.892 0 1 1 2.266-7.449c.033.009.062.024.092.033l1.239-4.069-26.907 6.255c2.287 9.233 9.177 17.082 18.871 20.172l4.537-14.915c-.032-.009-.065-.015-.095-.024l-.003-.003ZM139.913 259.608a3.892 3.892 0 0 1-2.209 7.263l-4.565 15.005c9.771 2.83 19.865.149 26.907-6.249l-18.87-20.175-1.266 4.159.003-.003ZM148.869 227.539c-9.771-2.83-19.865-.149-26.907 6.248l18.87 20.175 8.037-26.426v.003ZM165.139 250.26a3.892 3.892 0 0 1-4.857 2.592 3.876 3.876 0 0 1-2.2-1.723l-16.345 3.798 18.871 20.175a28.167 28.167 0 0 0 7.463-12.169c1.46-4.8 1.579-9.687.576-14.261l-3.349.779a3.776 3.776 0 0 1-.156.806l-.003.003ZM121.407 234.307a28.162 28.162 0 0 0-7.464 12.168 28.146 28.146 0 0 0-.576 14.261l26.907-6.254-18.87-20.175h.003Z" fill="#F03214"/><path d="M141.71 264.119a3.893 3.893 0 0 0-1.797-4.514l-2.209 7.26a3.894 3.894 0 0 0 4.006-2.749v.003ZM139.119 259.261a3.892 3.892 0 0 0-4.857 2.592 3.89 3.89 0 0 0 2.591 4.857c.033.009.066.015.095.024l2.263-7.44c-.032-.012-.062-.024-.092-.033ZM160.282 252.852a3.891 3.891 0 0 0 5.012-3.398l-7.212 1.678a3.886 3.886 0 0 0 2.2 1.723v-.003Z" fill="#932A09"/><path d="m162.426 261.214-1.562 2.152-2.143-1.555-1.914 2.639 2.144 1.555-1.562 2.153a4.292 4.292 0 0 0 5.992-.952 4.292 4.292 0 0 0-.952-5.992h-.003ZM125.766 263.877l-2.64-1.914-1.555 2.144-2.152-1.562a4.29 4.29 0 0 0 6.944 5.04l-2.153-1.562 1.556-2.143v-.003ZM146.881 274.723l-2.627.418-.415-2.616-3.221.514.415 2.615-2.627.418a4.29 4.29 0 1 0 8.472-1.349h.003ZM120.425 246.696l2.143 1.555 1.914-2.639-2.144-1.555 1.562-2.153a4.291 4.291 0 0 0-5.04 6.944l1.562-2.152h.003ZM137.059 233.235a4.288 4.288 0 0 0-4.911-3.562 4.289 4.289 0 0 0-3.561 4.911l2.627-.418.415 2.616 3.221-.514-.415-2.615 2.627-.418h-.003Z" fill="#FFECD7"/><path d="M152.804 262.187a3.893 3.893 0 1 0 0-7.786 3.893 3.893 0 0 0 0 7.786ZM129.616 255.36a3.893 3.893 0 1 0 0-7.786 3.893 3.893 0 0 0 0 7.786Z" fill="#932A09"/><path d="M119.882 257.016c.948-.506 1.17-1.942.495-3.208-.675-1.265-1.992-1.881-2.94-1.375-.949.506-1.17 1.942-.495 3.208.675 1.265 1.992 1.881 2.94 1.375ZM150.01 272.152c.949-.506 1.17-1.942.495-3.208-.675-1.265-1.991-1.881-2.94-1.375-.948.506-1.17 1.942-.495 3.208.676 1.265 1.992 1.881 2.94 1.375ZM144.699 233.827c.949-.506 1.17-1.942.495-3.208-.675-1.265-1.991-1.881-2.94-1.375-.948.506-1.17 1.942-.494 3.208.675 1.265 1.991 1.881 2.939 1.375ZM131.314 274.442c1.266-.675 1.881-1.991 1.375-2.94-.506-.948-1.942-1.17-3.207-.494-1.266.675-1.882 1.991-1.376 2.94.506.948 1.943 1.17 3.208.494ZM166.175 257.793c1.266-.675 1.882-1.991 1.376-2.94-.506-.948-1.942-1.17-3.208-.494-1.266.675-1.881 1.991-1.375 2.939.506.949 1.942 1.17 3.207.495Z" fill="#000"/><path d="M139.313 245.711a3.893 3.893 0 1 0 0-7.786 3.893 3.893 0 0 0 0 7.786Z" fill="#932A09"/><path d="m216.031 220.998 2.848 14.046-2.848-14.046ZM270.317 224.613l-5.676-27.979a18.546 18.546 0 0 1-11.275 7.204c-5.661 1.149-11.255-.418-15.426-3.797.021 1.609.436 3.254 1.332 4.866 4.078 7.338.773 14.183-8.276 13.831-6.263-.245-11.201-.125-14.968 2.266l2.848 14.046a1.838 1.838 0 0 0 2.164 1.436l30.929-6.272 16.909-3.43a1.84 1.84 0 0 0 1.436-2.165l.003-.006Z" fill="#FFDCFF"/><path d="M230.999 218.732c9.049.355 12.354-6.49 8.276-13.831-.896-1.612-1.311-3.257-1.332-4.866a18.517 18.517 0 0 1-6.511-10.742l30.472-6.179-4.565-22.51a1.838 1.838 0 0 0-2.164-1.436l-31.717 6.433-.119.024c-.236.499-.684 1.042-1.281 1.505-1.188.919-2.525 1.185-2.985.591-.23-.296-.197-.746.036-1.239l-7.44 1.508c.144.131.284.274.418.427.988 1.134 1.329 2.451.761 2.946-.567.493-1.827-.024-2.812-1.158-.486-.558-.815-1.162-.955-1.69l-1.741.352a1.84 1.84 0 0 0-1.436 2.165l8.491 41.872 1.639 8.088c3.77-2.394 8.708-2.514 14.968-2.266l-.003.006Z" fill="#FF6E3C"/><path d="M219.067 167.724c.46.594 1.797.328 2.985-.591.597-.463 1.045-1.006 1.281-1.505l-4.23.857c-.233.493-.266.943-.036 1.239ZM210.03 170.211c.988 1.134 2.248 1.651 2.812 1.158.568-.493.227-1.812-.761-2.946a4.578 4.578 0 0 0-.418-.427l-2.591.525c.14.528.469 1.131.955 1.69h.003ZM228.32 196.254c.412-.629-.273-1.806-1.529-2.629-1.256-.823-2.609-.981-3.021-.352-.412.629.273 1.806 1.529 2.629 1.256.823 2.609.981 3.021.352ZM237.979 219.343c.412-.629-.272-1.806-1.529-2.629-1.256-.824-2.609-.981-3.021-.352-.412.629.273 1.806 1.529 2.629 1.257.823 2.609.981 3.021.352ZM220.054 203.762c1.5-.088 2.68-.767 2.636-1.518-.044-.75-1.295-1.288-2.795-1.2-1.499.088-2.679.768-2.635 1.518.044.751 1.295 1.288 2.794 1.2ZM225.764 185.523c.688-.302.759-1.661.157-3.037-.602-1.377-1.649-2.248-2.338-1.946-.688.301-.759 1.661-.157 3.037s1.649 2.247 2.338 1.946ZM223.679 214.323c.226-1.485-.194-2.78-.937-2.893-.744-.113-1.529 1-1.754 2.485-.226 1.485.194 2.78.937 2.893.744.113 1.529-1 1.754-2.485ZM219.939 189.347c.602-1.376.531-2.736-.158-3.037-.689-.302-1.735.57-2.337 1.946-.601 1.376-.531 2.736.158 3.037.689.301 1.735-.57 2.337-1.946ZM231.764 207.665c.602-1.376.531-2.736-.157-3.037-.689-.302-1.736.57-2.337 1.946-.602 1.376-.532 2.736.157 3.037.689.301 1.735-.57 2.337-1.946Z" fill="#FFC88C"/><g style="mix-blend-mode:multiply" opacity=".3"><path d="M216.891 180.122a4.373 4.373 0 0 1-1.768.012 4.269 4.269 0 0 1-1.558-.651 4.335 4.335 0 0 1-1.194-1.212 4.687 4.687 0 0 1-.681-1.687 4.844 4.844 0 0 1-.036-1.824 4.23 4.23 0 0 1 .621-1.582 4.252 4.252 0 0 1 1.182-1.194 4.55 4.55 0 0 1 1.648-.675 4.418 4.418 0 0 1 1.729-.03 3.935 3.935 0 0 1 1.421.571c.412.274.734.606.964.997l-1.415 1.074a2.22 2.22 0 0 0-.97-.871c-.418-.197-.887-.245-1.406-.138-.505.102-.923.311-1.257.624a2.455 2.455 0 0 0-.69 1.159c-.125.459-.131.967-.018 1.525.114.558.317 1.024.612 1.403.296.379.657.645 1.087.806.43.159.896.188 1.4.087.52-.105.932-.331 1.242-.675.308-.343.493-.737.555-1.179l1.723.439c-.06.451-.227.881-.502 1.296a3.909 3.909 0 0 1-1.086 1.077 4.38 4.38 0 0 1-1.603.648ZM221.807 178.982l-1.731-8.535 3.266-.663c.588-.12 1.131-.123 1.627-.009.495.113.916.346 1.257.698.34.353.573.827.692 1.421.117.583.084 1.102-.101 1.565a2.565 2.565 0 0 1-.89 1.14l2.636 3.006-1.994.403-2.872-3.34 1.284.445-2.027.412.627 3.092-1.777.362.003.003Zm.836-5.001 1.502-.304c.251-.051.46-.147.624-.281.164-.137.278-.304.346-.499.069-.197.078-.408.033-.638a1.212 1.212 0 0 0-.281-.588 1.118 1.118 0 0 0-.513-.326 1.34 1.34 0 0 0-.684-.015l-1.501.305.477 2.349-.003-.003ZM229.767 177.37l-1.732-8.536 1.776-.361 1.732 8.535-1.776.362ZM236.37 176.172a3.997 3.997 0 0 1-1.567.015 3.525 3.525 0 0 1-2.403-1.701l1.322-.95c.308.424.678.729 1.111.92a2.16 2.16 0 0 0 1.334.146c.245-.051.448-.131.606-.242a1.01 1.01 0 0 0 .349-.397.797.797 0 0 0 .054-.504.763.763 0 0 0-.286-.472c-.15-.116-.365-.191-.642-.221l-1.786-.212c-.725-.083-1.301-.295-1.725-.633-.427-.34-.699-.794-.815-1.367-.102-.505-.069-.973.101-1.403.171-.433.457-.8.86-1.105.403-.304.896-.516 1.475-.633a3.865 3.865 0 0 1 1.475-.024c.471.087.898.26 1.28.517.383.257.699.594.95 1.012l-1.311.946a2.096 2.096 0 0 0-.91-.788 1.896 1.896 0 0 0-1.168-.116 1.66 1.66 0 0 0-.606.242.975.975 0 0 0-.358.412.853.853 0 0 0-.051.516c.039.2.141.358.302.481.161.122.379.2.657.23l1.746.194c.732.08 1.308.286 1.729.615.421.328.689.779.806 1.352.101.496.059.964-.123 1.403a2.696 2.696 0 0 1-.886 1.123c-.412.31-.917.525-1.52.647v-.003ZM240.875 175.116l-1.732-8.536 3.275-.665c.589-.12 1.132-.123 1.627-.009.496.113.917.346 1.257.698.341.353.574.827.696 1.421.116.579.086 1.099-.096 1.559a2.553 2.553 0 0 1-.889 1.14c-.412.302-.908.514-1.49.63l-1.502.304.627 3.093-1.776.362.003.003Zm.836-5.001 1.514-.307a1.42 1.42 0 0 0 .623-.281 1.11 1.11 0 0 0 .347-.499c.068-.197.077-.409.033-.639a1.23 1.23 0 0 0-.281-.588 1.127 1.127 0 0 0-.514-.325 1.368 1.368 0 0 0-.683-.018l-1.514.308.475 2.349ZM250.494 173.166l-.756-3.723-3.818-4.236 2.027-.412 2.798 3.203-.723.147 1.317-4.036 2.027-.412-1.857 5.373.758 3.735-1.776.361h.003Z" fill="#000" style="mix-blend-mode:multiply" opacity=".3"/></g><path d="m249.469 186.774-2.347 1.405-11.237-18.77a1.366 1.366 0 1 1 2.346-1.404l11.238 18.769Z" fill="#C8C8C8"/><path d="M251.35 192.308c2.044-1.224 2.214-4.701.378-7.766-1.835-3.066-4.98-4.559-7.024-3.335-2.044 1.224-2.214 4.701-.378 7.767 1.835 3.065 4.98 4.558 7.024 3.334Z" fill="#C8C8C8"/><path d="M214.446 180.765c1.188-.92 1.777-2.148 1.316-2.742-.46-.594-1.796-.33-2.983.59-1.188.92-1.777 2.147-1.316 2.741.46.595 1.796.331 2.983-.589ZM229.477 174.14c.412-.629-.273-1.806-1.529-2.629-1.257-.823-2.609-.98-3.021-.351-.412.629.272 1.806 1.529 2.629 1.256.823 2.609.98 3.021.351Z" fill="#FFC88C"/><path d="m263.826 192.61-.468-2.314-1.457-7.18-30.472 6.18a18.547 18.547 0 0 0 6.511 10.742c4.171 3.382 9.765 4.946 15.426 3.797a18.528 18.528 0 0 0 11.275-7.204l-.815-4.024v.003Z" fill="#00C8FF"/><path d="M224.423 109.838c14.164 0 25.647-11.483 25.647-25.647 0-14.165-11.483-25.648-25.647-25.648-14.165 0-25.648 11.483-25.648 25.648 0 14.164 11.483 25.647 25.648 25.647Z" fill="#F03214"/><path d="M209.445 54.492a13.45 13.45 0 0 0-2.818.773c2.457 5.222 8.141 8.422 14.124 7.47.985-.158 1.928-.421 2.818-.773-2.457-5.222-8.141-8.422-14.127-7.47h.003Z" fill="#00641E"/><path d="M228.859 51.402a13.208 13.208 0 0 1 2.92-.137c-.714 5.726-5.123 10.532-11.109 11.485-.985.158-1.964.197-2.92.137.714-5.726 5.123-10.532 11.109-11.485Z" fill="#00641E"/><path d="M231.095 65.684a13.434 13.434 0 0 0 2.818-.773c-2.457-5.221-8.141-8.422-14.123-7.47-.986.159-1.929.421-2.819.774 2.457 5.221 8.141 8.421 14.127 7.47h-.003Z" fill="#00641E"/><path d="M211.681 68.774c-.985.158-1.964.197-2.919.137.713-5.726 5.122-10.532 11.108-11.484a13.208 13.208 0 0 1 2.92-.138c-.714 5.726-5.123 10.533-11.109 11.485Z" fill="#00641E"/><path d="M148.454 22.029c2.941 2.991 3.779 7.64 1.74 11.568a9.92 9.92 0 0 1-3.439 3.777c1.356 5.114-1.519 10.44-6.615 12.055a9.923 9.923 0 0 1-5.102.239c-2.657 4.573-8.458 6.308-13.202 3.845a9.93 9.93 0 0 1-3.776-3.44c-5.114 1.356-10.44-1.519-12.055-6.615a9.929 9.929 0 0 1-.239-5.102c-4.573-2.657-6.308-8.458-3.845-13.201a9.929 9.929 0 0 1 3.439-3.777c-1.355-5.114 1.52-10.44 6.616-12.055a9.922 9.922 0 0 1 5.102-.239 9.951 9.951 0 0 1 2.361-2.749A12.917 12.917 0 0 1 119.111 0c-.726.173-1.448.37-2.171.6-15.894 5.036-24.694 22.002-19.661 37.893 5.036 15.895 22.002 24.695 37.893 19.662 15.894-5.036 24.695-22.002 19.662-37.893a28.286 28.286 0 0 0-.535-1.54 11.089 11.089 0 0 1-5.848 3.313l.003-.006Z" fill="#FFD8B8"/><path d="M135.635 14.924c-6.795 2.078-14.01-1.699-16.16-8.49-.012-.036-.021-.072-.03-.105a9.995 9.995 0 0 0-2.361 2.75 9.922 9.922 0 0 0-5.102.238c-5.096 1.615-7.971 6.941-6.616 12.055a9.907 9.907 0 0 0-3.439 3.777c-2.463 4.743-.728 10.544 3.845 13.2a9.929 9.929 0 0 0 .239 5.103c1.615 5.096 6.941 7.97 12.055 6.616a9.901 9.901 0 0 0 3.776 3.439c4.744 2.463 10.545.728 13.202-3.846a9.923 9.923 0 0 0 5.102-.238c5.096-1.615 7.971-6.941 6.615-12.055a9.899 9.899 0 0 0 3.439-3.777c2.036-3.925 1.201-8.574-1.74-11.568-5.41 1.158-10.912-1.848-12.819-7.102l-.006.003Zm-6.681 23.575c-5.043 1.597-10.425-1.194-12.023-6.236-1.597-5.042 1.195-10.425 6.237-12.022 5.042-1.598 10.425 1.194 12.022 6.236 1.597 5.042-1.194 10.425-6.236 12.022Z" fill="#F1B0FF"/><path d="M126.888 51.303a1.015 1.015 0 0 1-.958-1.355l1.373-3.893a1.018 1.018 0 1 1 1.919.678l-1.373 3.893c-.146.418-.54.678-.958.678h-.003ZM115.305 44.524c-.114 0-.227-.018-.338-.057l-3.893-1.373a1.019 1.019 0 0 1 .678-1.92l3.893 1.373a1.016 1.016 0 0 1-.337 1.977h-.003ZM142.671 29.472a1.017 1.017 0 0 1-.441-1.935l3.725-1.782a1.016 1.016 0 1 1 .878 1.833l-3.726 1.782a.998.998 0 0 1-.439.099l.003.003ZM137.931 42.915a1.019 1.019 0 0 1-.442-1.935l3.726-1.782a1.017 1.017 0 0 1 .877 1.833l-3.725 1.782a1.004 1.004 0 0 1-.439.099l.003.003ZM115.517 17.584c-.182 0-.368-.048-.535-.152l-3.513-2.168a1.018 1.018 0 0 1 1.068-1.731l3.514 2.167a1.017 1.017 0 0 1-.534 1.884ZM105.838 30.678a1.019 1.019 0 0 1-.442-1.935l3.726-1.782a1.017 1.017 0 0 1 .877 1.833l-3.725 1.782a1.003 1.003 0 0 1-.439.099l.003.003Z" fill="#00A4FF"/><path d="M123.168 20.24c5.042-1.596 10.425 1.195 12.022 6.237 1.597 5.043-1.194 10.425-6.236 12.022 5.042-1.597 7.833-6.98 6.236-12.022-1.597-5.042-6.98-7.833-12.022-6.236Z" fill="#FFD8B8"/><path d="M31.078 239.758c14.496 0 26.248-11.751 26.248-26.247s-11.752-26.248-26.248-26.248-26.247 11.752-26.247 26.248 11.751 26.247 26.247 26.247Z" fill="#FFBE00"/><path d="M37.948 199.921a1.445 1.445 0 1 0 0-2.89 1.445 1.445 0 0 0 0 2.89ZM47.056 202.763a1.445 1.445 0 1 0 0-2.89 1.445 1.445 0 0 0 0 2.89ZM40.864 207.838a1.444 1.444 0 1 0 .002-2.888 1.444 1.444 0 0 0-.002 2.888Z" fill="#B77A00"/><path d="M49.997 177.701a13.544 13.544 0 0 0-2.416-.597c-7.359-1.117-14.228 3.881-15.46 11.192.772.266 1.575.472 2.414.597 7.36 1.117 14.229-3.881 15.462-11.192Z" fill="#00641E"/><path d="M26.084 177.391a13.615 13.615 0 0 0-2.988-.12c.773 5.855 5.32 10.742 11.451 11.673 1.01.152 2.01.188 2.989.119-.773-5.854-5.32-10.741-11.452-11.672Z" fill="#008C1E"/><path d="M38.725 62.586c7.58 3.013 11.286 11.612 8.273 19.192l-17.44 43.868a5.673 5.673 0 0 1-7.362 3.174l-16.928-6.73a5.673 5.673 0 0 1-3.174-7.363l17.44-43.868c3.013-7.579 11.612-11.286 19.191-8.273Z" fill="#00A05A"/><path d="m46.275 55.27-8.017-3.187-7.64 19.217 8.017 3.187 7.64-19.216Z" fill="#00A05A"/><path d="m48.331 50.522-8.311-3.304a1.394 1.394 0 0 0-1.81.78l-.88 2.215a1.394 1.394 0 0 0 .78 1.81l8.311 3.304a1.394 1.394 0 0 0 1.81-.78l.881-2.214a1.394 1.394 0 0 0-.78-1.81Z" fill="#B3B3B3"/><path d="m40.29 82.675-16.497-6.558a1.699 1.699 0 0 0-2.206.95l-11.02 27.72c-.347.872.08 1.86.951 2.206l16.498 6.559a1.698 1.698 0 0 0 2.206-.951l11.02-27.72a1.699 1.699 0 0 0-.951-2.206Z" fill="#fff"/><path d="M35.873 88.549a.441.441 0 0 1-.161-.03L23.137 83.62a.442.442 0 1 1 .322-.821l12.575 4.899a.44.44 0 0 1-.161.85ZM34.434 92.066a.44.44 0 0 1-.161-.03l-12.575-4.9a.44.44 0 0 1-.25-.57.444.444 0 0 1 .573-.25l12.574 4.899a.44.44 0 0 1-.16.85ZM33.03 95.663a.44.44 0 0 1-.16-.03l-12.575-4.899a.442.442 0 0 1 .322-.821l12.575 4.9a.44.44 0 0 1-.161.85Z" fill="#999"/><path d="M133.032 85.958c-29.651 0-53.839 24.187-53.839 53.838s24.188 53.838 53.839 53.838c29.65 0 53.838-24.187 53.838-53.838s-24.188-53.838-53.838-53.838Z" fill="#00C8FF"/><path d="M133.031 94.842c-24.757 0-44.953 20.196-44.953 44.954s20.196 44.954 44.953 44.954c24.758 0 44.954-20.196 44.954-44.954s-20.196-44.954-44.954-44.954Z" fill="#fff"/><path d="M172.316 139.659c0 .767-.546 1.313-1.314 1.313h-5.472c-.767 0-1.313-.546-1.313-1.313 0-.768.656-1.314 1.313-1.314h5.472c.657 0 1.314.546 1.314 1.314ZM167.065 120.072c.328.656.11 1.424-.439 1.86l-4.705 2.734c-.218.111-.439.111-.657.111-.439 0-.875-.218-1.203-.657-.328-.657-.11-1.424.439-1.86l4.705-2.735c.657-.328 1.424-.11 1.86.547ZM153.168 107.485l-2.735 4.816c-.218.439-.657.657-1.203.657-.218 0-.439-.111-.657-.218-.656-.329-.874-1.204-.546-1.86l2.735-4.705c.328-.657 1.203-.875 1.86-.439.656.328.874 1.093.546 1.749ZM152.619 173.689c-.218.11-.439.218-.657.218-.439 0-.875-.218-1.203-.657l-2.735-4.705c-.328-.657-.11-1.424.546-1.86.657-.328 1.424-.11 1.86.439l2.735 4.705c.328.657.11 1.424-.546 1.86ZM117.493 112.739c-.218.111-.439.218-.657.218-.439 0-.875-.218-1.203-.656l-2.735-4.705c-.328-.657-.11-1.532.546-1.86.657-.329 1.424-.111 1.86.439l2.735 4.705c.328.656.11 1.531-.546 1.859ZM118.042 168.434l-2.735 4.705c-.218.439-.656.657-1.203.657-.218 0-.439 0-.657-.218-.656-.328-.874-1.203-.546-1.86l2.735-4.705c.328-.656 1.203-.874 1.86-.438.656.328.874 1.203.546 1.859ZM106.113 124.12c-.218.438-.657.656-1.204.656-.218 0-.438 0-.656-.11l-4.705-2.735c-.657-.328-.875-1.203-.44-1.86.33-.656 1.204-.874 1.861-.438l4.705 2.734c.546.329.767 1.093.439 1.75v.003ZM100.984 138.566h4.63c.648 0 1.11.463 1.11 1.11 0 .648-.555 1.111-1.11 1.111h-4.63c-.648 0-1.111-.463-1.111-1.111 0-.647.463-1.11 1.111-1.11ZM105.244 156.908c-.37 0-.741-.185-1.018-.555-.278-.556-.093-1.203.37-1.574l3.982-2.316c.556-.278 1.296-.093 1.574.462.277.556.092 1.204-.463 1.574l-3.983 2.316c-.092 0-.277.093-.462.093ZM131.718 177.519v-5.472c0-.768.546-1.314 1.313-1.314.768 0 1.314.657 1.314 1.314v5.472c0 .767-.546 1.313-1.314 1.313-.767.111-1.313-.546-1.313-1.313ZM159.95 155.194c.329-.656 1.204-.874 1.86-.546l4.705 2.735c.657.328.875 1.203.439 1.86-.218.439-.657.656-1.203.656-.218 0-.439 0-.657-.217l-4.705-2.628c-.546-.438-.767-1.203-.439-1.86Z" fill="#0078DB"/><path d="m135.99 138.318 14.503 14.082c.705.705 1.057 1.514 1.057 2.43 0 .917-.352 1.726-1.057 2.43-.704.705-1.445 1.057-2.218 1.057-.776 0-1.585-.352-2.43-1.057l-14.503-14.294c-.705-.704-1.197-1.409-1.478-2.113a5.694 5.694 0 0 1-.424-2.114v-35.263c0-.985.317-1.761.953-2.326.632-.564 1.48-.845 2.465-.845.986 0 1.762.281 2.326.845.564.565.845 1.338.845 2.326l-.036 34.839-.003.003Z" fill="#000"/></svg>