<svg width="100" height="100" fill="none" xmlns="http://www.w3.org/2000/svg"><path d="M49.998 99.984c27.607 0 49.986-22.38 49.986-49.986 0-27.606-22.38-49.985-49.986-49.985C22.392.013.013 22.392.013 49.998c0 27.607 22.379 49.986 49.985 49.986Z" fill="#D2F0FF"/><path d="m61.463 80.781-.52.222c-4.86 2.076-10.495-.183-12.573-5.047l-3.762-8.808 18.137-7.747 3.762 8.807c2.077 4.861-.183 10.497-5.047 12.574h.003Z" fill="#FF6478"/><path d="M58.026 73.884a.69.69 0 0 1-.637-.423l-3.415-7.997a.694.694 0 1 1 1.279-.546l3.414 7.997a.694.694 0 0 1-.638.969h-.003ZM58.973 42.999a1.42 1.42 0 0 1-1.237-2.111l8.785-15.778a1.42 1.42 0 0 1 2.48 1.382L60.217 42.27a1.42 1.42 0 0 1-1.243.729Z" fill="#000"/><path d="M71.255 39.502c-.234 0-.47-.056-.691-.18l-15.778-8.785a1.42 1.42 0 0 1 1.382-2.48l15.778 8.785a1.42 1.42 0 0 1-.694 2.66h.003ZM25.794 52.081a1.42 1.42 0 0 1-1.237-2.111l8.786-15.778a1.42 1.42 0 0 1 2.48 1.382l-8.785 15.778a1.419 1.419 0 0 1-1.244.73Z" fill="#000"/><path d="M38.076 48.585c-.233 0-.47-.057-.688-.18L21.61 39.619a1.42 1.42 0 0 1 1.382-2.48l15.778 8.785a1.42 1.42 0 0 1-.694 2.66ZM37.145 69.418a1.42 1.42 0 0 1-.375-2.79l33.08-9.056a1.421 1.421 0 0 1 .751 2.74l-33.08 9.056c-.126.035-.253.05-.376.05Z" fill="#000"/></svg>