<?xml version="1.0" encoding="iso-8859-1"?>
<!-- Generator: Adobe Illustrator 19.0.0, SVG Export Plug-In . SVG Version: 6.00 Build 0)  -->
<svg version="1.1" id="Layer_1" xmlns="http://www.w3.org/2000/svg" xmlns:xlink="http://www.w3.org/1999/xlink" x="0px" y="0px"
	 viewBox="0 0 24 24" style="enable-background:new 0 0 24 24;" xml:space="preserve">
<g>
	<g>
		<path d="M15,16.5h-0.5V11c0-0.276-0.224-0.5-0.5-0.5h-4c-0.827,0-1.5,0.673-1.5,1.5c0,0.827,0.673,1.5,1.5,1.5h0.5v3H10
			c-0.827,0-1.5,0.673-1.5,1.5c0,0.827,0.673,1.5,1.5,1.5h5c0.827,0,1.5-0.673,1.5-1.5C16.5,17.173,15.827,16.5,15,16.5z M15,18.5
			h-5c-0.276,0-0.5-0.224-0.5-0.5s0.224-0.5,0.5-0.5h1c0.276,0,0.5-0.224,0.5-0.5v-4c0-0.276-0.224-0.5-0.5-0.5h-1
			c-0.276,0-0.5-0.224-0.5-0.5s0.224-0.5,0.5-0.5h3.5V17c0,0.276,0.224,0.5,0.5,0.5h1c0.276,0,0.5,0.224,0.5,0.5
			S15.276,18.5,15,18.5z M12,0.5C5.659,0.5,0.5,5.659,0.5,12S5.659,23.5,12,23.5S23.5,18.341,23.5,12S18.341,0.5,12,0.5z M12,22.5
			C6.21,22.5,1.5,17.79,1.5,12S6.21,1.5,12,1.5c5.79,0,10.5,4.71,10.5,10.5S17.79,22.5,12,22.5z M12,9.5c1.378,0,2.5-1.122,2.5-2.5
			S13.378,4.5,12,4.5S9.5,5.622,9.5,7S10.622,9.5,12,9.5z M12,5.5c0.827,0,1.5,0.673,1.5,1.5c0,0.827-0.673,1.5-1.5,1.5
			c-0.827,0-1.5-0.673-1.5-1.5C10.5,6.173,11.173,5.5,12,5.5z"/>
	</g>
</g>
</svg>
