<svg xmlns="http://www.w3.org/2000/svg" xmlns:xlink="http://www.w3.org/1999/xlink" viewBox="0 0 400 300"><defs><linearGradient id="a" x1="210.23" y1="187.83" x2="228.15" y2="206.05" gradientUnits="userSpaceOnUse"><stop offset="0" stop-color="#00a99d"/><stop offset="1" stop-color="#fff"/></linearGradient><linearGradient id="b" x1="104.17" y1="168" x2="90.36" y2="187.84" gradientTransform="matrix(-1 0 0 1 419.6 0)" xlink:href="#a"/><linearGradient id="c" x1="199.75" y1="240.19" x2="214.7" y2="255.38" xlink:href="#a"/><linearGradient id="d" x1="277.27" y1="230.82" x2="263.46" y2="250.66" gradientTransform="matrix(-1 0 0 1 419.6 0)" xlink:href="#a"/><linearGradient id="e" x1="158.45" y1="201.74" x2="145.07" y2="220.95" gradientTransform="matrix(-1 0 0 1 419.6 0)" xlink:href="#a"/><linearGradient id="f" x1="135.98" y1="188.75" x2="122.6" y2="207.96" gradientTransform="matrix(-1 0 0 1 419.6 0)" xlink:href="#a"/></defs><g data-name="Layer 2" style="isolation:isolate"><path d="m344.33 184.43-164.79 95.36a25.78 25.78 0 0 1-25.75 0l-91.6-52.58a10.29 10.29 0 0 1-.08-17.8l171.75-100.6a10.29 10.29 0 0 1 10.35 0l100.11 57.84a10.29 10.29 0 0 1 .01 17.78Z" fill="#ace29a"/><path d="M257.21 189.57c-11-7.54-18.47-12.67-28.93-20.92l-55.86 26.76 29.33 29.34c6.38-3.88 49.2-31.12 55.46-35.18Z" fill="url(#a)" style="mix-blend-mode:multiply"/><path d="m208.88 159.31 19.4 9.34a4.47 4.47 0 0 1 .31 7.88l-46 26.83a4.47 4.47 0 0 1-6-1.44l-11.17-17.38" fill="#606060"/><path d="m103.32 114.38 154.75-89.15a7 7 0 0 1 10.47 6V124a5.8 5.8 0 0 1-2.9 5l-164.95 95.25a3.74 3.74 0 0 1-5.62-3.25v-92.35a16.48 16.48 0 0 1 8.25-14.27Z" fill="#68e1fd"/><path d="M258.05 32.24 108 118.57a10.52 10.52 0 0 0-5.27 9.12v69.52a3.8 3.8 0 0 0 5.69 3.29l153-87.81a3.75 3.75 0 0 0 1.88-3.25V35.29a3.52 3.52 0 0 0-5.25-3.05Z" fill="#18516b"/><ellipse cx="195.62" cy="159.69" rx="3.73" ry="3.26" transform="rotate(-79 195.858 160.036)" fill="#ab643c"/><path d="M322.89 195.42c7.22-4.16 16.5-9.4 24.62-14-7.09-5.22-14.57-10-21.49-15.4l-24.94 14c7.04 5.46 14.45 10.39 21.81 15.4Z" fill="url(#b)" style="mix-blend-mode:multiply"/><path d="M231.12 249.33c-11-7.54-21.92-15.13-32.38-23.38L176 238.83l36.08 22.33c6.4-3.89 12.78-7.78 19.04-11.83Z" fill="url(#c)" style="mix-blend-mode:multiply"/><ellipse cx="313.66" cy="172.17" rx="17.41" ry="12.26" fill="#68e1fd"/><ellipse cx="313.67" cy="164.93" rx="13.04" ry="5.34" fill="#974c26"/><path d="M314.54 165.06c1-1.44 2.05-3 3.13-4.64a86.29 86.29 0 0 0 3.85-6.65 43.93 43.93 0 0 0 2.81-6.3 52.61 52.61 0 0 0 2.06-7.22c.13-.64.25-1.29.36-1.94.05-.3.06-.27.06-.22v-.56c.11-1.32.21-2.63.22-4a33.28 33.28 0 0 0-2.59-13.33 57.47 57.47 0 0 0-9.26 22.8q-.14.73-.26 1.46s-.13.89-.19 1.25-.13 1.13-.14 1.23q-.1.93-.17 1.87c-.19 2.4-.28 4.81-.27 7.22.01 2.97.15 6.02.39 9.03Zm5.54-36q.48-.54 1-1a2.17 2.17 0 0 0-.06.93 3 3 0 0 0-.94.09Z" fill="#999a1c"/><path d="M314.87 165.28c.09-1.76.13-3.59.13-5.6 0-2.56-.12-5.13-.35-7.68a43.93 43.93 0 0 0-1-6.82 52.61 52.61 0 0 0-2.17-7.19c-.24-.61-.49-1.22-.75-1.82-.12-.28-.09-.25-.07-.22l-.26-.5c-.62-1.17-1.25-2.33-2-3.45a33.28 33.28 0 0 0-9.38-9.81 57.47 57.47 0 0 0 4.47 24.18q.28.69.58 1.37l.52 1.15.55 1.11q.42.84.87 1.66a92.21 92.21 0 0 0 3.67 6.22c1.62 2.54 3.32 5 5.19 7.4ZM300.08 132q.11-.71.26-1.41a2.17 2.17 0 0 0 .45.82 3 3 0 0 0-.71.59Z" fill="#999a1c"/><path d="M315 166.2c-.52-1-1.09-2-1.74-3.06-.83-1.38-1.72-2.73-2.67-4a27.63 27.63 0 0 0-2.76-3.35 33.09 33.09 0 0 0-3.49-3.18c-.33-.25-.66-.5-1-.74-.16-.11-.13-.11-.11-.09l-.3-.18c-.71-.43-1.43-.85-2.17-1.23a20.93 20.93 0 0 0-8.23-2.27 36.15 36.15 0 0 0 10.22 11.61l.75.55.65.46.65.42 1 .62q1.95 1.17 4 2.17c1.66.8 3.4 1.56 5.2 2.27ZM296.23 153q-.17-.42-.32-.84a1.36 1.36 0 0 0 .51.3 1.88 1.88 0 0 0-.19.54ZM314.54 165.06c1-1.44 2.05-3 3.13-4.64a86.29 86.29 0 0 0 3.85-6.65 43.93 43.93 0 0 0 2.81-6.3 52.61 52.61 0 0 0 2.06-7.22c.13-.64.25-1.29.36-1.94.05-.3.06-.27.06-.22v-.56c.11-1.32.21-2.63.22-4a33.28 33.28 0 0 0-2.59-13.33 57.47 57.47 0 0 0-9.26 22.8q-.14.73-.26 1.46s-.13.89-.19 1.25-.13 1.13-.14 1.23q-.1.93-.17 1.87c-.19 2.4-.28 4.81-.27 7.22.01 2.97.15 6.02.39 9.03Zm5.54-36q.48-.54 1-1a2.17 2.17 0 0 0-.06.93 3 3 0 0 0-.94.09Z" fill="#999a1c"/><path d="M314.87 165.28c.09-1.76.13-3.59.13-5.6 0-2.56-.12-5.13-.35-7.68a43.93 43.93 0 0 0-1-6.82 52.61 52.61 0 0 0-2.17-7.19c-.24-.61-.49-1.22-.75-1.82-.12-.28-.09-.25-.07-.22l-.26-.5c-.62-1.17-1.25-2.33-2-3.45a33.28 33.28 0 0 0-9.38-9.81 57.47 57.47 0 0 0 4.47 24.18q.28.69.58 1.37l.52 1.15.55 1.11q.42.84.87 1.66a92.21 92.21 0 0 0 3.67 6.22c1.62 2.54 3.32 5 5.19 7.4ZM300.08 132q.11-.71.26-1.41a2.17 2.17 0 0 0 .45.82 3 3 0 0 0-.71.59Z" fill="#999a1c"/><path d="M315 166.2c-.52-1-1.09-2-1.74-3.06-.83-1.38-1.72-2.73-2.67-4a27.63 27.63 0 0 0-2.76-3.35 33.09 33.09 0 0 0-3.49-3.18c-.33-.25-.66-.5-1-.74-.16-.11-.13-.11-.11-.09l-.3-.18c-.71-.43-1.43-.85-2.17-1.23a20.93 20.93 0 0 0-8.23-2.27 36.15 36.15 0 0 0 10.22 11.61l.75.55.65.46.65.42 1 .62q1.95 1.17 4 2.17c1.66.8 3.4 1.56 5.2 2.27ZM296.23 153q-.17-.42-.32-.84a1.36 1.36 0 0 0 .51.3 1.88 1.88 0 0 0-.19.54Z" fill="#999a1c"/><path d="M196.92 250.87v-23.34L176 215.86V239Z" fill="#c96336"/><path d="m196.92 227.53 20.33-11.67s.56 23.53 0 23.9-20.33 11.1-20.33 11.1Z" fill="#e27144"/><path fill="#9b4726" d="m217.25 215.86-20.33-12.42-20.89 12.42 20.89 11.67 20.33-11.67z"/><path fill="#e27144" d="m176.03 215.86-7.55-13.1 21.4-12.58 7.04 13.26-20.89 12.42z"/><path fill="#c96336" d="m217.25 215.86 5.51-11.77-22.48 12.24-3.36 11.2 20.33-11.67z"/><path d="M149.79 258.24c7.22-4.16 16.5-9.4 24.62-14-7.09-5.22-14.57-10-21.49-15.4l-24.94 14c7.02 5.46 14.44 10.4 21.81 15.4Z" fill="url(#d)" style="mix-blend-mode:multiply"/><path d="M123.8 240c.09.17.52 1.81.87 1.47s2.16.44 2.16.44l5.06-6.44-.67-2.1h-4.56" fill="#68e1fd"/><path d="m148.25 212.23.48-1.67 5.32-2.9v-9.07c0-.18-5.15 3-5.15 3l-.24-.51a12.17 12.17 0 0 0-1.56-3.92l3.75-6.92-4.76-3.62-3.56 7.14a8.1 8.1 0 0 0-3.93.07V187l-6.81 3.78V198a30.13 30.13 0 0 0-3.64 4.19l-4.15-2.67-4.64 8.82 3.67 2.92-.31 1.48a40.45 40.45 0 0 0-1.14 4.77l-5.46 3v9l5.2-3.1a11.7 11.7 0 0 0 1.68 4.63l-3.9 6.62 4.94 3.74 3.47-6.81h4.32v6.81l6.5-4v-6.69a26.85 26.85 0 0 0 3.92-4.86l3.91 2.67 4.72-9-3.88-2.83.39-1.35c.32-1.05.61-2.09.86-3.11Z" fill="#68e1fd"/><path fill="#68e1fd" d="m160.6 202.36-6.03-3.64-1.5 2.22 2.33 4.88M152.72 232.37l-4.46-1.85v-2.69M138.39 245.21l-6.54-3.77 1.66-4.95 5.89 1.73-1.01 6.99zM146.09 186.64l6.54 3.78-3.59 7.15-3.93.07-.9-7.22 1.88-3.78z"/><ellipse cx="142.08" cy="217.87" rx="5.08" ry="2.95" transform="rotate(-68.55 142.061 217.871)" fill="#68e1fd"/><path fill="#68e1fd" d="m131.76 190.79 6.54 3.78 6.81-3.78-6.54-3.78-6.81 3.78zM130.56 203.29l-6.54-3.77-4.64 8.82 6.54 3.78 4.64-8.83zM119.12 237.7l6.55 3.77 4.94 3.74-6.55-3.77-4.94-3.74z"/><path d="M123.8 240c.09.17.52 1.81.87 1.47s2.16.44 2.16.44l5.06-6.44-.67-2.1h-4.56" fill="#053855" opacity=".44"/><path d="m148.25 212.23.48-1.67 5.32-2.9v-9.07c0-.18-5.15 3-5.15 3l-.24-.51a12.17 12.17 0 0 0-1.56-3.92l3.75-6.92-4.76-3.62-3.56 7.14a8.1 8.1 0 0 0-3.93.07V187l-6.81 3.78V198a30.13 30.13 0 0 0-3.64 4.19l-4.15-2.67-4.64 8.82 3.67 2.92-.31 1.48a40.45 40.45 0 0 0-1.14 4.77l-5.46 3v9l5.2-3.1a11.7 11.7 0 0 0 1.68 4.63l-3.9 6.62 4.94 3.74 3.47-6.81h4.32v6.81l6.5-4v-6.69a26.85 26.85 0 0 0 3.92-4.86l3.91 2.67 4.72-9-3.88-2.83.39-1.35c.32-1.05.61-2.09.86-3.11Z" fill="#68e1fd"/><path fill="#053855" opacity=".44" d="m160.6 202.36-6.03-3.64-1.5 2.22 2.33 4.88"/><path fill="#68e1fd" d="m152.72 232.37-4.46-1.85v-2.69M138.39 245.21l-6.54-3.77 1.66-4.95 5.89 1.73-1.01 6.99zM146.09 186.64l6.54 3.78-3.59 7.15-3.93.07-.9-7.22 1.88-3.78z"/><ellipse cx="142.08" cy="217.87" rx="5.08" ry="2.95" transform="rotate(-68.55 142.061 217.871)" fill="#68e1fd"/><path fill="#68e1fd" d="m130.56 203.29-6.54-3.77-4.64 8.82 6.54 3.78 4.64-8.83zM119.12 237.7l6.55 3.77 4.94 3.74-6.55-3.77-4.94-3.74z"/><path d="m148.25 212.23.48-1.67 5.32-2.9v-9.07c0-.18-5.15 3-5.15 3l-.24-.51a12.17 12.17 0 0 0-1.56-3.92l3.75-6.92-4.76-3.62-3.56 7.14a8.1 8.1 0 0 0-3.93.07V187l-6.81 3.78V198a30.13 30.13 0 0 0-3.64 4.19l-4.15-2.67-4.64 8.82 3.67 2.92-.31 1.48a40.45 40.45 0 0 0-1.14 4.77l-5.46 3v9l5.2-3.1a11.7 11.7 0 0 0 1.68 4.63l-3.9 6.62 4.94 3.74 3.47-6.81h4.32v6.81l6.5-4v-6.69a26.85 26.85 0 0 0 3.92-4.86l3.91 2.67 4.72-9-3.88-2.83.39-1.35c.32-1.05.61-2.09.86-3.11Z" fill="#053855" opacity=".44"/><path fill="#053855" opacity=".1" d="m152.72 232.37-4.46-1.85v-2.69M138.39 245.21l-6.54-3.77 1.66-4.95 5.89 1.73-1.01 6.99z"/><ellipse cx="142.08" cy="217.87" rx="5.08" ry="2.95" transform="rotate(-68.55 142.061 217.871)" fill="#053855" opacity=".1"/><path fill="#053855" opacity=".1" d="m130.56 203.29-6.54-3.77-4.64 8.82 6.54 3.78 4.64-8.83zM119.12 237.7l6.55 3.77 4.94 3.74-6.55-3.77-4.94-3.74zM152.72 232.37l-4.46-1.85v-2.69"/><path fill="#053855" opacity=".44" d="m138.39 245.21-6.54-3.77 1.66-4.95 5.89 1.73-1.01 6.99z"/><path d="m154.8 216 .48-1.67 5.32-2.9v-9.07c0-.18-5.15 3-5.15 3l-.24-.51a12.17 12.17 0 0 0-1.56-3.92l3.75-6.92-4.76-3.62-3.56 7.14a8.1 8.1 0 0 0-3.93.07v-6.85l-6.81 3.78v7.16a30.13 30.13 0 0 0-3.64 4.19l-4.11-2.62-4.64 8.82 3.65 2.92-.31 1.48a40.45 40.45 0 0 0-1.14 4.77l-5.46 3v9l5.2-3.1a11.7 11.7 0 0 0 1.68 4.63l-3.9 6.62 4.94 3.74 3.47-6.81h4.32v6.81l6.5-4v-6.69a26.85 26.85 0 0 0 3.92-4.86l3.91 2.67 4.72-9-3.92-2.89.39-1.35c.34-.95.63-2.02.88-3.02Z" fill="#68e1fd"/><ellipse cx="142.08" cy="217.87" rx="5.08" ry="2.95" transform="rotate(-68.55 142.061 217.871)" fill="#053855" opacity=".44"/><path fill="#053855" opacity=".44" d="m119.12 237.7 6.55 3.77 4.94 3.74-6.55-3.77-4.94-3.74z"/><path fill="#68e1fd" d="m131.76 190.79 6.54 3.78 6.81-3.78-6.54-3.78-6.81 3.78z"/><path fill="#053855" opacity=".44" d="m131.76 190.77 6.53 3.8 6.82-3.76-6.53-3.79-6.82 3.75z"/><path fill="#68e1fd" d="m116.14 220.52 6.55 3.78v9.03l-6.55-3.78v-9.03z"/><path fill="#053855" opacity=".44" d="m116.14 220.52 6.55 3.78v9.03l-6.55-3.78v-9.03z"/><path d="m260.28 204.73-3.07 1.72c3.42 2.65 15.79 14.11 19.37 16.54.95-.55 3.53-2.25 4.59-2.86-3.55-2.44-17.49-12.72-20.89-15.4Z" fill="url(#e)" style="mix-blend-mode:multiply"/><path d="M282.91 192.16q-1 1.26-2 2.51c4.56 3.85 14.8 13.25 18 15.43.95-.55 3.53-2.25 4.59-2.86-3.5-2.33-16.68-12.04-20.59-15.08Z" fill="url(#f)" style="mix-blend-mode:multiply"/><path d="m259.46 91 24.13 102c.58 2.45-3.2 3.5-3.78 1L255.68 92c-.58-2.45 3.2-3.5 3.78-1ZM236.81 103.09l24.13 102c.58 2.45-3.2 3.5-3.78 1L233 104.13c-.58-2.45 3.2-3.5 3.78-1Z" fill="#f2f2f2"/><path d="m262 107.1-22.64 12.65c-2.2 1.23-4.18-2.15-2-3.38L260 103.71c2.2-1.23 4.18 2.15 2 3.38ZM264.33 121.27l-21.72 12.13c-2.2 1.23-4.18-2.15-2-3.38l21.72-12.13c2.2-1.23 4.18 2.15 2 3.38ZM267 132.75l-21.69 12.12c-2.2 1.23-4.18-2.15-2-3.38L265 129.37c2.2-1.23 4.18 2.15 2 3.38ZM270.37 145.1l-21.49 12c-2.2 1.23-4.18-2.15-2-3.38l21.49-12c2.2-1.23 4.18 2.15 2 3.38ZM273.32 156.4l-21.53 12c-2.2 1.23-4.18-2.15-2-3.38l21.53-12c2.2-1.23 4.18 2.15 2 3.38ZM276.61 169.53 254 182.18c-2.2 1.23-4.18-2.15-2-3.38l22.64-12.65c2.2-1.23 4.18 2.15 2 3.38Z" fill="#f2f2f2"/></g></svg>