<svg data-name="Layer 1" xmlns="http://www.w3.org/2000/svg" viewBox="0 0 400 300"><path d="M146.21 59.17c-38.59 9.07-69.08 37.73-78 74.57-6.65 27.42-.81 55.7 43.95 66C208.91 222 313.44 214.61 326 170.15S315.25 49.43 259.91 44.71C228.4 42 181.1 51 146.21 59.17Z" fill="#e6e6e6" opacity=".3"/><ellipse cx="195.96" cy="236.41" rx="136.07" ry="16.06" fill="#e6e6e6" opacity=".45"/><path fill="#e6e6e6" d="m298.335 156.58 5.498 1.543-21.097 75.207-5.498-1.542z"/><path d="M306.52 161a4.76 4.76 0 0 1-1.28-.18l-9.24-2.55a4.75 4.75 0 0 1-3.29-5.86l1.86-6.63a4.76 4.76 0 0 1 5.86-3.3l9.22 2.59a4.76 4.76 0 0 1 3.29 5.87l-1.86 6.63a4.77 4.77 0 0 1-4.56 3.43Zm-.48-3a1.79 1.79 0 0 0 2.21-1.24l1.86-6.63a1.79 1.79 0 0 0-1.24-2.22l-9.22-2.58a1.79 1.79 0 0 0-2.21 1.24l-1.86 6.63a1.79 1.79 0 0 0 1.24 2.21ZM293.3 237l4.59-16.36-27.35-7.64-4.8 17.1a14.11 14.11 0 0 0-.19 6.94Z" fill="#c9c9c9"/><path fill="#aeadb0" d="M151.17 105.94h13.98v132.92h-13.98zM226.72 105.94h13.98v132.92h-13.98z"/><path opacity=".08" d="M151.17 105.94h13.98v132.92h-13.98zM226.72 105.94h13.98v132.92h-13.98z"/><path fill="#aeadb0" d="M134.62 122.44h122.69v43.28H134.62z"/><path fill="#24285b" d="m140.84 122.44 14.66 43.28h20.28l-16.66-43.28h-18.28zM178.39 122.44l14.66 43.28h20.28l-16.67-43.28h-18.27zM215.83 122.44l14.66 43.28h20.28l-16.67-43.28h-18.27z"/><path fill="#aeadb0" d="M134.62 182.11h122.69v20.29H134.62zM102 230.42 114.26 174a2.52 2.52 0 0 1 4.91 0l13.38 57.36Z"/><rect x="97.85" y="224.98" width="38.46" height="9.45" rx="4.42" fill="#aeadb0"/><rect x="97.85" y="224.98" width="38.46" height="9.45" rx="4.42" fill="#fff" opacity=".46"/><path opacity=".08" d="m109.7 194.94 13.13-5.26 3.83 16.42-20.64 5.71 3.68-16.87z"/><path d="M104.3 235.34s5.59-8-2.75-10.26 2-13.05-5.76-14.48-6.47 10-6.47 10-5.32-4.6-9.06-.7 1.48 8.1 1.48 8.1-7.47 2.58-2.81 7.3Z" fill="#e6e6e6"/><path d="M93.08 236.41s3.55-6.08 8.79-5.33 4.67 5.33 4.67 5.33Z" fill="#c9c9c9"/><path d="m223.16 121.86 42 21.25a1.84 1.84 0 0 0 2.54-2.3l-.89-2.27a11 11 0 0 1 0-8c2.69-7 6.67-22-4.5-30.39-14.3-10.77-36.4-9.73-41.6 16.71a4.54 4.54 0 0 0 2.45 5Z" fill="#ffd200"/><path opacity=".08" d="m224.31 122.44 32.99 31.84v-15.16l-32.99-16.68z"/><path d="M229.19 106.2c2.55-3.57 7.7-8.88 15.82-9.1a1.44 1.44 0 0 1 .77 2.68 36.71 36.71 0 0 0-11.44 10.16 3.16 3.16 0 0 1-4 1 3.17 3.17 0 0 1-1.15-4.74Z" fill="#fff" opacity=".31"/><path d="M99.82 128.08a7 7 0 0 0-8.13-6.9 9.44 9.44 0 0 0-8.31-5h-.35a11.08 11.08 0 0 0 .35-2.72 11.21 11.21 0 0 0-22.42 0 11.08 11.08 0 0 0 .35 2.72h-.35a9.45 9.45 0 0 0 0 18.89h32.77V135a7 7 0 0 0 6.09-6.92ZM328.81 74.66a9.28 9.28 0 0 0-9.28-9.27 9.17 9.17 0 0 0-1.49.13 12.5 12.5 0 0 0-11-6.59h-.46a14.65 14.65 0 0 0 .46-3.59 14.85 14.85 0 1 0-29.69 0 14.65 14.65 0 0 0 .45 3.66h-.46a12.51 12.51 0 0 0 0 25h43.4v-.09a9.27 9.27 0 0 0 8.07-9.25Z" fill="#e6e6e6"/></svg>