<svg xmlns="http://www.w3.org/2000/svg" xmlns:xlink="http://www.w3.org/1999/xlink" viewBox="0 0 400 300"><defs><linearGradient id="a" x1="261.61" y1="215.96" x2="237.29" y2="238.13" gradientUnits="userSpaceOnUse"><stop offset="0" stop-color="#f7931e"/><stop offset="1" stop-color="#fff"/></linearGradient><linearGradient id="b" x1="293.86" y1="191.82" x2="275.47" y2="210.84" xlink:href="#a"/><linearGradient id="c" x1="166.92" y1="177.92" x2="142.74" y2="212.63" xlink:href="#a"/></defs><g data-name="Layer 2" style="isolation:isolate"><path d="M67.21 177.19 222.46 267a21.22 21.22 0 0 0 21.2 0l109.1-62.67a9.65 9.65 0 0 0 0-16.73L190.43 93.93 67.34 162.34a8.53 8.53 0 0 0-.13 14.85Z" fill="#fcc054"/><path d="m272.3 228.92-26.13-12.49L215 235.75c1.8 1.34 10.8 5 24.87 14.12 12.25-8.12 15.86-10.08 32.43-20.95Z" fill="url(#a)" style="mix-blend-mode:multiply"/><path d="m318.36 196.88-25.78-16.68-38.7 22.58c1.8 1.34 13.22 8.74 27.29 17.88 12.26-8.12 25.14-15.34 37.19-23.78Z" fill="url(#b)" style="mix-blend-mode:multiply"/><path d="m178.38 241.61 42.11-26.07-99.27-56.29L82 185.34c5.47 3.6 92.69 52.33 96.38 56.27Z" fill="url(#c)" style="mix-blend-mode:multiply"/><path fill="#adcee1" d="M112 166.61v2.96l1.49 1.83"/><path d="m171.43 130.6-57.74 35.78a3.58 3.58 0 0 0 .12 6.16l87.61 49.56a8 8 0 0 0 8-.07l57.47-33.79c4.18-3.43 3.86-9.89 0-10.16l-87.1-47.62a8.14 8.14 0 0 0-8.36.14Z" fill="#88d3d8"/><path d="m171.43 128.14-57.74 35.78a3.58 3.58 0 0 0 .12 6.16l87.61 49.56a8 8 0 0 0 8-.07l57.47-33.79a4.45 4.45 0 0 0 0-7.7L179.78 128a8.14 8.14 0 0 0-8.35.14Z" fill="#fff"/><path d="M173.78 123.25s24-77.38 23.83-77.38.75-3.44 5-1.5l92 54.16s4.46 1.81 3.59 6-23.44 75.72-23.44 75.72a3.89 3.89 0 0 1-4.35 1.5c-2.8-.87-94.52-54.15-94.52-54.15a3.52 3.52 0 0 1-2.11-4.35Z" fill="#053855"/><path fill="#68e1fd" d="m199.14 51.49 94.22 54.93-19.54 65.62-95.44-53.31 20.76-67.24zM167.88 136.34l-21.11 13.15a2.55 2.55 0 0 0 .09 4.37l75.77 43.19a7.45 7.45 0 0 0 7.45 0c4.87-2.84 13.26-8 18.39-11.1a3.1 3.1 0 0 0-.06-5.32c-15.32-8.91-65.32-38-76.27-44.34a4.12 4.12 0 0 0-4.26.05ZM169 172l26.47 14.89a2.64 2.64 0 0 1 0 4.59L180 200.62a3.51 3.51 0 0 1-3.52 0l-27.12-15.42a2.21 2.21 0 0 1 0-3.84l16.19-9.3A3.51 3.51 0 0 1 169 172Z"/><path d="m167.88 136.34-21.11 13.15a2.55 2.55 0 0 0 .09 4.37l75.77 43.19a7.45 7.45 0 0 0 7.45 0c4.87-2.84 13.26-8 18.39-11.1a3.1 3.1 0 0 0-.06-5.32c-15.32-8.91-65.32-38-76.27-44.34a4.12 4.12 0 0 0-4.26.05ZM169 172l26.47 14.89a2.64 2.64 0 0 1 0 4.59L180 200.62a3.51 3.51 0 0 1-3.52 0l-27.12-15.42a2.21 2.21 0 0 1 0-3.84l16.19-9.3A3.51 3.51 0 0 1 169 172Z" fill="#053855" opacity=".1"/><path d="m305.5 204.41 22.3-13.23a3.41 3.41 0 0 0 .12-5.8l-18.43-12a5.71 5.71 0 0 0-6.31 0l-21.9 14.74a3.41 3.41 0 0 0 .15 5.75l17.43 10.46a6.47 6.47 0 0 0 6.64.08Z" fill="#b24800"/><path d="m305.5 202.4 22.3-13.23a3.41 3.41 0 0 0 .12-5.8l-18.43-12a5.71 5.71 0 0 0-6.31 0l-21.9 14.74a3.41 3.41 0 0 0 .15 5.75l17.43 10.46a6.47 6.47 0 0 0 6.64.08Z" fill="#df5d00"/><path d="m301.79 149.4-11.84 37.45s-2.89 9.5 14.87 8.54 15.42-9.78 15.42-9.78l-11.85-36.21" fill="#ff8522"/><path d="M297.4 163.27s2.35 2.43 7.76 2.43c6.76 0 7.48-3.33 7.48-3.33l2.48 7.57s-1.78 4.27-10 4.13c-7.4-.12-10.3-2.78-10.3-2.78M293 177.54a16.92 16.92 0 0 0 12 4.76c8.79-.1 12.09-6.35 12.09-6.35l2.61 8s-3.77 5.85-14.61 6.63c-10.22.73-14.61-5-14.61-5" fill="#fff"/><path d="M304.34 149.67h-2.54L290 187.12s-2.69 8.86 13.11 8.6c.31-15.35 1.08-30.72 1.23-46.05Z" fill="#ff8522" opacity=".15" style="mix-blend-mode:multiply"/><ellipse cx="305.16" cy="149.67" rx="3.37" ry="1.93" fill="#ff9f57"/><path fill="#ffba93" d="m216.25 159.25 2.75-1.68v-9.76l-69.56-41.88-3.27 1.34"/><path fill="#ca5a00" d="M172.34 158.36v4.19l-24.13 14-7.29-4.36-.55-5.1"/><path fill="#ff8522" d="m164.48 153.17-24.11 13.92 7.35 5.18 24.62-13.91-7.86-5.19z"/><path fill="#ca5a00" d="M222.75 188.47v4.18l-24.13 14-7.28-4.36-.55-5.09"/><path fill="#ff8522" d="m214.9 183.28-24.11 13.92 7.35 5.18 24.61-13.91-7.85-5.19z"/><path d="M158 123.18v40.18s-1.16 2.12-5.3 0V121M210.12 153v40.18s-1.16 2.12-5.3 0v-42.36" fill="#ffba93"/><path fill="#ff8522" d="M216.25 148.67v10.58l-70.08-40.76v-11.22l70.08 41.4z"/><path fill="#494443" d="M267.32 231.46v-6.61l4.98-2.44v6.51l-4.98 2.54z"/><path fill="#666" d="m272.3 222.41-23.39-12.71-4.77 2.85 23.18 12.3 4.98-2.44z"/><path fill="#494443" d="M244.14 212.55v7.22l23.18 11.69v-6.61"/><path d="M260.46 225.79a3.65 3.65 0 0 0-.49-.94 9.5 9.5 0 0 0-2.06-1.82c-.74-.43-1.52-.81-2.25-1.26-.43-.27-.85-.56-1.28-.82s-1-.48-1.5-.7c-1.18-.3-2.65.82-3.69 1.42l-4.33 2.45-6.52 3.69-7.73 4.37-7.94 4.5-7.16 4.06-5.39 3.05-2.64 1.49a.56.56 0 0 1-.11.06 2.3 2.3 0 0 0-1.73 2.23v.27a2.31 2.31 0 0 0 1.23 2l6 3.21a2.31 2.31 0 0 0 2.6-.3l41.7-23.94.55-.32c.75-.76 2-.92 2.74-2.39.09-.1.02-.19 0-.31Z" fill="#68e1fd"/><path d="m215.77 252.71 44.44-25.51a1 1 0 0 0 .45-1 3.64 3.64 0 0 0-.59-1.29 7.66 7.66 0 0 0-1.44-1.36L215 249.32a3.13 3.13 0 0 1 1 1.93 1.84 1.84 0 0 1-.25 1.28c.02.06.03.12.02.18Z" opacity=".5"/><path d="m234.12 94.05-25.74 22.35a4.69 4.69 0 0 0 1 7.74L239 138.87a4.69 4.69 0 0 0 6.75-4.69l-3.89-37.08a4.69 4.69 0 0 0-7.74-3.05Z" fill="#fff"/><path d="m232.85 102.61-3.42 13.6c-.63 2.5 3.23 3.56 3.86 1.06l3.42-13.6c.63-2.49-3.23-3.56-3.86-1.06ZM226.88 125.58v.42c0 2.57 4 2.58 4 0v-.42c0-2.58-4-2.58-4 0Z" fill="#ff8522"/></g></svg>