<svg data-name="Layer 1" xmlns="http://www.w3.org/2000/svg" viewBox="0 0 400 300"><ellipse cx="207" cy="246.77" rx="171.08" ry="21.82" fill="#e6e6e6" opacity=".45"/><path d="M112.5 73.73c-18 19.82-84.86 59.93 42.84 83.21l2.36-11.3s-57.22-12.79-52.51-35.38" fill="#f4a28c"/><path d="m154.06 144.46 7.49.07a7.48 7.48 0 0 1 7.21 5.78l.58 2.48a4 4 0 0 1-3 4.76l-2.16.49a17.63 17.63 0 0 1-12.8-2l-1.08-.63Z" fill="#24285b"/><path d="M112.5 73.73c-18 19.82-84.86 59.93 42.84 83.21l2.36-11.3s-57.22-12.79-52.51-35.38" opacity=".08"/><path d="M77.43 215.21s-3.51 3.11-2.34 6.94-2.07 6.25-4.35 3.3-1.43-13.26-1.43-13.26l6-2.09ZM125.39 239.47s.8 4.62 4.67 5.65 4.22 5 .51 5.43-12-5.77-12-5.77l1.38-6.2Z" fill="#aeadb0"/><path d="M167.88 55.57s-2.23 6.77-5.19 10.65a3.59 3.59 0 0 1-5 .65c-1.93-1.52-4.1-4.13-3.34-7.91l.49-6.57a6.4 6.4 0 0 1 5.29-5.18c4.8-1.08 9.32 4.29 7.75 8.36Z" fill="#f4a28c"/><path fill="#f4a28c" d="m157.84 53.44-20.35 16.74 11.19 7.48 9.33-14.2-.17-10.02z"/><path fill="#ffd200" d="m127.344 128.245 2.797-3.461 129.287 104.47-2.797 3.462z"/><path fill="#fff" opacity=".46" d="m127.344 128.245 2.797-3.461 129.287 104.47-2.797 3.462z"/><path d="M166.14 55.14a28.81 28.81 0 0 1-5.85-3 5.94 5.94 0 0 1-2.57 6 4.84 4.84 0 0 1-6.14-.53l3.72-8.38a7.3 7.3 0 0 1 5.93-4.51 27.27 27.27 0 0 1 3.4-.16c2.85.06 5.71 3.2 8.58 2.49 1.26-.3-1.17 2.39-1.51 3.64-.71 2.73.68 5-3.39 5a6.47 6.47 0 0 1-2.17-.55Z" fill="#24285b"/><path d="M158.51 58.19s1-2.54-.95-3.16-3.5 3-1.06 4.5Z" fill="#f4a28c"/><path d="M125.86 164.06s23.41 18.95 18.41 41.33S125.89 240 125.89 240l-7.34-2.6s17.29-31.5 4.13-44.92-17.1-26.34-17.1-26.34Z" fill="#24285b"/><path d="m112 163.89 13 16a15.25 15.25 0 0 1-7.1 24.11l-40.47 13.23-3.56-9.83 30.43-12.18a4.33 4.33 0 0 0 .3-7.91c-12-5.89-31.26-17.16-27.93-27.61 4.78-15.02 35.33 4.19 35.33 4.19Z" fill="#24285b"/><path d="m166.26 59.76.74 3.31a1.14 1.14 0 0 1-1.36 1.37l-2.71-.6Z" fill="#f4a28c"/><path d="M157.74 63.86a8.79 8.79 0 0 1-1.44-4.44s-4.23 2.88-1.23 8.51Z" fill="#ce8172" opacity=".31"/><path d="m153.55 50.32 19.54 9.26a.47.47 0 0 0 .65-.57 8.45 8.45 0 0 1 .22-5.76 11 11 0 0 0-1.07-10.31c-4.38-6.87-18.67-5.37-19.34 7.38Z" fill="#ffd200"/><path d="M165.11 100.61c-4.92-29.46-40-43.34-63.6-25a40 40 0 0 0-9.42 10.46c-14.52 23.15-16.73 68.08-16.73 68.08l52.49 11.5s8.73-22 24.72-26.68c8.89-2.57 15.52-20.52 12.54-38.36Z" fill="#aeadb0"/><path d="M133.52 87.25s-.19 20-16.24 38.22 21.15 23.18 21.15 23.18-6.92 9.62-8.14 11.89-14.48 5.5-14.48 5.5l-32.88-15.41 15.64-37Z" opacity=".08"/><path fill="#ffd200" d="m111.848 149.373 2.27-3.827L255.08 229.14l-2.27 3.827z"/><path fill="#fff" opacity=".46" d="m111.848 149.373 2.27-3.827L255.08 229.14l-2.27 3.827z"/><path d="M132.57 82.2c-1.33-10.82-13.44-16.71-23.11-11.69A51.46 51.46 0 0 0 88 92c-12.86 23.52-60.13 89.11 46.85 80.92v-12.61s-45.23 4.13-46-18.94c-.63-18.59 46.21-38.83 43.72-59.17Z" fill="#f4a28c"/><path d="M118 67.67S98.77 64.27 84.74 95l26.8 19.24S157.45 80.7 118 67.67Z" fill="#aeadb0"/><path d="M118 67.67S98.77 64.27 84.74 95l26.8 19.24S157.45 80.7 118 67.67Z" fill="#fff" opacity=".3"/><path d="m133.88 160.76 7-2.6a7.5 7.5 0 0 1 8.8 2.84l1.42 2.1a4 4 0 0 1-1.1 5.52l-1.86 1.22a17.57 17.57 0 0 1-12.68 2.66l-1.23-.21Z" fill="#24285b"/><path fill="#ffd200" d="m199.06 153.62-5.19 44.55 63.65 38.7 35.78-29.99-94.24-53.26z"/><path d="M197.43 167.66s3.89 21.85 24.36 32.94 57.35 18.15 57.35 18.15l-21.62 18.12-63.65-38.7Z" opacity=".08"/><path d="M205.09 157s11.81-15.4 26.18-4.44 28 6.09 37.61 2.38c18.43-7.09 54.24 18.69 19.7 49.24Z" fill="#c9c9c9"/><circle cx="258.03" cy="240.79" r="9.74" fill="#24285b"/><circle cx="258.03" cy="240.79" r="4.19" fill="#ffd200"/><path d="M293.08 144.88a4.57 4.57 0 0 0 8.41-2.51c0-6.21-2.3-12.52-9.8-16.45-19.12-10-19.14-.77-18.29 4.38.6 3.7 13.47 5.06 19.68 14.58Z" fill="#c9c9c9"/><circle cx="255.15" cy="138.71" r="6.81" fill="#c9c9c9"/><path fill="#c9c9c9" d="M285.61 235.38h29.87v14.72h-29.87z"/><path fill="#dbdbdb" d="M298.84 220.37h29.87v14.72h-29.87z"/><path fill="#a5a5a5" d="M315.48 235.38h29.87v14.72h-29.87z"/></svg>