<?xml version="1.0" encoding="UTF-8" standalone="no"?>
<svg
   xmlns:dc="http://purl.org/dc/elements/1.1/"
   xmlns:cc="http://creativecommons.org/ns#"
   xmlns:rdf="http://www.w3.org/1999/02/22-rdf-syntax-ns#"
   xmlns:svg="http://www.w3.org/2000/svg"
   xmlns="http://www.w3.org/2000/svg"
   xmlns:sodipodi="http://sodipodi.sourceforge.net/DTD/sodipodi-0.dtd"
   xmlns:inkscape="http://www.inkscape.org/namespaces/inkscape"
   inkscape:version="1.0 (4035a4fb49, 2020-05-01)"
   height="14"
   width="20"
   sodipodi:docname="noun_barcode scanner_1861954.svg"
   id="svg10"
   version="1.1"
   y="0px"
   x="0px"
   viewBox="0 0 20 14"
   data-name="Layer 1">
  <metadata
     id="metadata16">
    <rdf:RDF>
      <cc:Work
         rdf:about="">
        <dc:format>image/svg+xml</dc:format>
        <dc:type
           rdf:resource="http://purl.org/dc/dcmitype/StillImage" />
      </cc:Work>
    </rdf:RDF>
  </metadata>
  <defs
     id="defs14" />
  <sodipodi:namedview
     inkscape:current-layer="svg10"
     inkscape:window-maximized="1"
     inkscape:window-y="0"
     inkscape:window-x="0"
     inkscape:cy="11.354402"
     inkscape:cx="14.921218"
     inkscape:zoom="29.533333"
     showgrid="false"
     id="namedview12"
     inkscape:window-height="1048"
     inkscape:window-width="1920"
     inkscape:pageshadow="2"
     inkscape:pageopacity="0"
     guidetolerance="10"
     gridtolerance="10"
     objecttolerance="10"
     borderopacity="1"
     bordercolor="#666666"
     pagecolor="#ffffff" />
  <title
     id="title2">rounded</title>
  <path
     id="path4"
     d="M 9,11 H 8 V 3 h 1 z m 8,-8 h -1 v 8 h 1 z M 7,3 H 5 v 8 h 2 z m 6,0 h -3 v 8 h 3 z M 4,3 H 3 v 8 h 1 z m 11,0 h -1 v 8 h 1 z M 6,13.5 A 0.49971,0.49971 0 0 0 5.5,13 h -2 A 2.50294,2.50294 0 0 1 1,10.5 v -1 a 0.5,0.5 0 0 0 -1,0 v 1 A 3.50424,3.50424 0 0 0 3.5,14 h 2 A 0.49971,0.49971 0 0 0 6,13.5 Z m 14,-3 v -1 a 0.5,0.5 0 0 0 -1,0 v 1 A 2.50294,2.50294 0 0 1 16.5,13 h -2 a 0.5,0.5 0 0 0 0,1 h 2 A 3.50424,3.50424 0 0 0 20,10.5 Z m 0,-6 v -1 A 3.50424,3.50424 0 0 0 16.5,0 h -2 a 0.5,0.5 0 0 0 0,1 h 2 A 2.50294,2.50294 0 0 1 19,3.5 v 1 a 0.5,0.5 0 0 0 1,0 z m -19,0 v -1 A 2.50294,2.50294 0 0 1 3.5,1 h 2 a 0.5,0.5 0 0 0 0,-1 h -2 A 3.50424,3.50424 0 0 0 0,3.5 v 1 a 0.5,0.5 0 0 0 1,0 z" />
</svg>
