<svg xmlns="http://www.w3.org/2000/svg" xmlns:xlink="http://www.w3.org/1999/xlink" viewBox="0 0 400 300"><defs><linearGradient id="linear-gradient" x1="261.61" y1="215.96" x2="237.29" y2="238.13" gradientUnits="userSpaceOnUse"><stop offset="0" stop-color="#f7931e"/><stop offset="1" stop-color="#fff"/></linearGradient><linearGradient id="linear-gradient-2" x1="293.86" y1="191.82" x2="275.47" y2="210.84" xlink:href="#linear-gradient"/><linearGradient id="linear-gradient-3" x1="166.92" y1="177.92" x2="142.74" y2="212.63" xlink:href="#linear-gradient"/></defs><g style="isolation:isolate"><g id="Layer_2" data-name="Layer 2"><path d="M67.21,177.19,222.46,267a21.22,21.22,0,0,0,21.2,0l109.1-62.67a9.65,9.65,0,0,0,0-16.73L190.43,93.93,67.34,162.34A8.53,8.53,0,0,0,67.21,177.19Z" fill="#fcc054"/><path d="M272.3,228.92l-26.13-12.49L215,235.75c1.8,1.34,10.8,5,24.87,14.12C252.12,241.75,255.73,239.79,272.3,228.92Z" fill="url(#linear-gradient)" style="mix-blend-mode:multiply"/><path d="M318.36,196.88,292.58,180.2l-38.7,22.58c1.8,1.34,13.22,8.74,27.29,17.88C293.43,212.54,306.31,205.32,318.36,196.88Z" fill="url(#linear-gradient-2)" style="mix-blend-mode:multiply"/><path d="M178.38,241.61l42.11-26.07-99.27-56.29L82,185.34C87.47,188.94,174.69,237.67,178.38,241.61Z" fill="url(#linear-gradient-3)" style="mix-blend-mode:multiply"/><polyline points="112 166.61 112 169.57 113.49 171.4" fill="#adcee1"/><path d="M171.43,130.6l-57.74,35.78a3.58,3.58,0,0,0,.12,6.16l87.61,49.56a8,8,0,0,0,8-.07l57.47-33.79c4.18-3.43,3.86-9.89,0-10.16l-87.1-47.62A8.14,8.14,0,0,0,171.43,130.6Z" fill="#88d3d8"/><path d="M171.43,128.14l-57.74,35.78a3.58,3.58,0,0,0,.12,6.16l87.61,49.56a8,8,0,0,0,8-.07l57.47-33.79a4.45,4.45,0,0,0,0-7.7L179.78,128A8.14,8.14,0,0,0,171.43,128.14Z" fill="#fff"/><path d="M173.78,123.25s24-77.38,23.83-77.38.75-3.44,5-1.5l92,54.16s4.46,1.81,3.59,6-23.44,75.72-23.44,75.72a3.89,3.89,0,0,1-4.35,1.5c-2.8-.87-94.52-54.15-94.52-54.15A3.52,3.52,0,0,1,173.78,123.25Z" fill="#053855"/><polygon points="199.14 51.49 293.36 106.42 273.82 172.04 178.38 118.73 199.14 51.49" fill="#68e1fd"/><path d="M167.88,136.34l-21.11,13.15a2.55,2.55,0,0,0,.09,4.37l75.77,43.19a7.45,7.45,0,0,0,7.45,0c4.87-2.84,13.26-8,18.39-11.1a3.1,3.1,0,0,0-.06-5.32c-15.32-8.91-65.32-38-76.27-44.34A4.12,4.12,0,0,0,167.88,136.34Z" fill="#68e1fd"/><path d="M169,172l26.47,14.89a2.64,2.64,0,0,1,0,4.59L180,200.62a3.51,3.51,0,0,1-3.52,0L149.36,185.2a2.21,2.21,0,0,1,0-3.84l16.19-9.3A3.51,3.51,0,0,1,169,172Z" fill="#68e1fd"/><path d="M167.88,136.34l-21.11,13.15a2.55,2.55,0,0,0,.09,4.37l75.77,43.19a7.45,7.45,0,0,0,7.45,0c4.87-2.84,13.26-8,18.39-11.1a3.1,3.1,0,0,0-.06-5.32c-15.32-8.91-65.32-38-76.27-44.34A4.12,4.12,0,0,0,167.88,136.34Z" fill="#053855" opacity="0.1"/><path d="M169,172l26.47,14.89a2.64,2.64,0,0,1,0,4.59L180,200.62a3.51,3.51,0,0,1-3.52,0L149.36,185.2a2.21,2.21,0,0,1,0-3.84l16.19-9.3A3.51,3.51,0,0,1,169,172Z" fill="#053855" opacity="0.1"/><path d="M305.5,204.41l22.3-13.23a3.41,3.41,0,0,0,.12-5.8l-18.43-12a5.71,5.71,0,0,0-6.31,0l-21.9,14.74a3.41,3.41,0,0,0,.15,5.75l17.43,10.46A6.47,6.47,0,0,0,305.5,204.41Z" fill="#b24800"/><path d="M305.5,202.4l22.3-13.23a3.41,3.41,0,0,0,.12-5.8l-18.43-12a5.71,5.71,0,0,0-6.31,0l-21.9,14.74a3.41,3.41,0,0,0,.15,5.75l17.43,10.46A6.47,6.47,0,0,0,305.5,202.4Z" fill="#df5d00"/><path d="M301.79,149.4l-11.84,37.45s-2.89,9.5,14.87,8.54,15.42-9.78,15.42-9.78L308.39,149.4" fill="#ff8522"/><path d="M297.4,163.27s2.35,2.43,7.76,2.43c6.76,0,7.48-3.33,7.48-3.33l2.48,7.57s-1.78,4.27-10,4.13c-7.4-.12-10.3-2.78-10.3-2.78" fill="#fff"/><path d="M293,177.54a16.92,16.92,0,0,0,12,4.76c8.79-.1,12.09-6.35,12.09-6.35l2.61,8s-3.77,5.85-14.61,6.63c-10.22.73-14.61-5-14.61-5" fill="#fff"/><path d="M304.34,149.67h-2.54L290,187.12s-2.69,8.86,13.11,8.6C303.42,180.37,304.19,165,304.34,149.67Z" fill="#ff8522" opacity="0.15" style="mix-blend-mode:multiply"/><ellipse cx="305.16" cy="149.67" rx="3.37" ry="1.93" fill="#ff9f57"/><polyline points="216.25 159.25 219 157.57 219 147.81 149.44 105.93 146.17 107.27" fill="#ffba93"/><polyline points="172.34 158.36 172.34 162.55 148.21 176.55 140.92 172.19 140.37 167.09" fill="#ca5a00"/><polygon points="164.48 153.17 140.37 167.09 147.72 172.27 172.34 158.36 164.48 153.17" fill="#ff8522"/><polyline points="222.75 188.47 222.75 192.65 198.62 206.65 191.34 202.29 190.79 197.2" fill="#ca5a00"/><polygon points="214.9 183.28 190.79 197.2 198.14 202.38 222.75 188.47 214.9 183.28" fill="#ff8522"/><path d="M158,123.18v40.18s-1.16,2.12-5.3,0V121" fill="#ffba93"/><path d="M210.12,153v40.18s-1.16,2.12-5.3,0V150.82" fill="#ffba93"/><polygon points="216.25 148.67 216.25 159.25 146.17 118.49 146.17 107.27 216.25 148.67" fill="#ff8522"/><polygon points="267.32 231.46 267.32 224.85 272.3 222.41 272.3 228.92 267.32 231.46" fill="#494443"/><polygon points="272.3 222.41 248.91 209.7 244.14 212.55 267.32 224.85 272.3 222.41" fill="#666"/><polyline points="244.14 212.55 244.14 219.77 267.32 231.46 267.32 224.85" fill="#494443"/><path d="M260.46,225.79a3.65,3.65,0,0,0-.49-.94,9.5,9.5,0,0,0-2.06-1.82c-.74-.43-1.52-.81-2.25-1.26-.43-.27-.85-.56-1.28-.82s-1-.48-1.5-.7c-1.18-.3-2.65.82-3.69,1.42l-4.33,2.45-6.52,3.69-7.73,4.37-7.94,4.5-7.16,4.06-5.39,3.05-2.64,1.49a.56.56,0,0,1-.11.06,2.3,2.3,0,0,0-1.73,2.23v.27a2.31,2.31,0,0,0,1.23,2l6,3.21a2.31,2.31,0,0,0,2.6-.3l41.7-23.94.55-.32c.75-.76,2-.92,2.74-2.39C260.55,226,260.48,225.91,260.46,225.79Z" fill="#68e1fd"/><path d="M215.77,252.71l44.44-25.51a1,1,0,0,0,.45-1,3.64,3.64,0,0,0-.59-1.29,7.66,7.66,0,0,0-1.44-1.36L215,249.32a3.13,3.13,0,0,1,1,1.93,1.84,1.84,0,0,1-.25,1.28C215.77,252.59,215.78,252.65,215.77,252.71Z" opacity="0.5"/><path d="M234.12,94.05l-25.74,22.35a4.69,4.69,0,0,0,1,7.74L239,138.87a4.69,4.69,0,0,0,6.75-4.69L241.86,97.1A4.69,4.69,0,0,0,234.12,94.05Z" fill="#fff"/><path d="M232.85,102.61l-3.42,13.6c-.63,2.5,3.23,3.56,3.86,1.06l3.42-13.6C237.34,101.18,233.48,100.11,232.85,102.61Z" fill="#ff8522"/><path d="M226.88,125.58V126c0,2.57,4,2.58,4,0v-.42C230.88,123,226.88,123,226.88,125.58Z" fill="#ff8522"/></g></g></svg>