<?xml version="1.0" encoding="UTF-8"?>
<svg width="16px" height="16px" viewBox="0 0 16 16" version="1.1" xmlns="http://www.w3.org/2000/svg" xmlns:xlink="http://www.w3.org/1999/xlink">
    <title>Advanced search</title>
    <g id="Advanced-search" stroke="none" stroke-width="1" fill="none" fill-rule="evenodd">
        <path d="M7.62016023,1.18553424e-05 C7.11072624,-0.000880727097 6.59976843,0.0486251414 6.09633451,0.149577371 C5.85176049,0.198720154 5.66727662,0.400088918 5.64022872,0.648088546 L5.47207188,2.18900886 C5.43511911,2.52424653 5.23934331,2.82494246 4.94676878,2.99332316 C4.65495615,3.16170386 4.29738092,3.1814063 3.98842526,3.04540651 L2.56802312,2.42115144 C2.34249691,2.32134207 2.07597637,2.37922884 1.91102224,2.56475237 C1.22377684,3.33770359 0.710699958,4.22207712 0.384220299,5.19198043 C0.304981361,5.42740864 0.387327455,5.68740825 0.588091531,5.8348366 L1.83438451,6.7492699 C2.10600644,6.94850769 2.26816889,7.26852512 2.26816889,7.60566747 C2.26816889,7.94280982 2.10636953,8.26246381 1.83512855,8.46132104 L0.579906911,9.38170632 C0.379904786,9.52875372 0.297195564,9.78726533 0.375291632,10.0230745 C0.698342684,10.9937397 1.20969334,11.8787681 1.89465299,12.6547669 C2.05960713,12.8410524 2.32572912,12.9004271 2.55239819,12.7998559 L3.96535949,12.1785772 C4.27317229,12.0429583 4.63187248,12.0618989 4.92444702,12.2306605 C5.21625964,12.3990412 5.41205334,12.6993741 5.44900611,13.0342307 L5.61865096,14.5855675 C5.64569887,14.8324242 5.82947454,15.03343 6.07252474,15.0833347 C6.57272053,15.1858107 7.08688675,15.2373524 7.60155889,15.2373524 C8.10365946,15.2373524 8.61037913,15.1868645 9.10752727,15.0870551 C9.30448174,15.0474361 9.45823919,14.9071624 9.52643039,14.7254484 C8.38775162,14.0671637 7.61941622,12.8388619 7.61941622,11.4285783 C7.61941622,11.0262932 7.68255975,10.6391151 7.79798955,10.2753061 C7.732846,10.2798775 7.66820836,10.2849789 7.6023029,10.2849789 C6.12952534,10.2849789 4.9356079,9.0910759 4.9356079,7.61831621 C4.9356079,6.14555652 6.12952534,4.95165355 7.6023029,4.95165355 C9.07508045,4.95165355 10.2689979,6.14555652 10.2689979,7.61831621 C10.2689979,7.68079231 10.2638969,7.7422505 10.2593254,7.80358374 C10.6280909,7.68472678 11.0205952,7.61906021 11.4289805,7.61906021 C11.9874626,7.61906021 12.51601,7.74234574 12.9937293,7.95834541 C12.9594432,7.85320271 12.9349489,7.74447069 12.9349489,7.63170895 C12.9349489,7.2945666 13.0974923,6.97416822 13.3687333,6.77531138 L14.623955,5.85567009 C14.8239572,5.7086227 14.9066662,5.45011109 14.8285702,5.21430192 C14.5055191,4.24363671 13.9941685,3.35786432 13.3092089,2.58186549 C13.1442547,2.39596101 12.8781506,2.33771081 12.6507196,2.43752056 L11.2385023,3.05879925 C10.9306895,3.19441809 10.5723524,3.17473355 10.2801588,3.0059719 C9.98834615,2.8375912 9.79255245,2.53725832 9.75559968,2.20240168 L9.58521082,0.651808769 C9.55816292,0.404951997 9.37513126,0.203202281 9.13208105,0.153297632 C8.63740913,0.0521548885 8.12959421,0.000928793995 7.62016023,1.18553424e-05 Z M11.4289805,8.38096383 C9.7485817,8.38096383 8.38132908,9.74819987 8.38132908,11.4285783 C8.38132908,13.1089567 9.7485817,14.4761928 11.4289805,14.4761928 C12.063273,14.4761928 12.6519219,14.2808715 13.1403084,13.9479197 L15.0250008,15.8325896 C15.136621,15.9445894 15.2827357,16 15.429023,16 C15.5753103,16 15.721425,15.9442085 15.8330452,15.8325896 C16.0559047,15.6093518 16.0559047,15.2477927 15.8330452,15.024555 L13.9490964,13.1398854 C14.2816714,12.6515048 14.4766319,12.0628631 14.4766319,11.4285783 C14.4766319,9.74819987 13.1093793,8.38096383 11.4289805,8.38096383 Z M11.4289805,9.52381925 C12.4792774,9.52381925 13.3337627,10.3782942 13.3337627,11.4285783 C13.3337627,12.4788624 12.4792774,13.3333373 11.4289805,13.3333373 C10.3786836,13.3333373 9.52419836,12.4788624 9.52419836,11.4285783 C9.52419836,10.3782942 10.3786836,9.52381925 11.4289805,9.52381925 Z" id="Shape" fill="#000000" fill-rule="nonzero"></path>
    </g>
</svg>