<?xml version="1.0" encoding="UTF-8"?>
<svg width="14px" height="14px" viewBox="0 0 14 14" version="1.1" xmlns="http://www.w3.org/2000/svg" xmlns:xlink="http://www.w3.org/1999/xlink">
    <title>Arrow right</title>
    <g id="Arrow-right" stroke="none" stroke-width="1" fill="none" fill-rule="evenodd">
        <g id="icons8-circled_right" fill="#FFFFFF" fill-rule="nonzero">
            <path d="M7,0 C3.13425,0 0,3.13425 0,7 C0,10.86575 3.13425,14 7,14 C10.86575,14 14,10.86575 14,7 C14,3.13425 10.86575,0 7,0 Z M10.3290833,7.41241667 L7.99575,9.74575 C7.882,9.8595 7.73266667,9.91666667 7.58333333,9.91666667 C7.434,9.91666667 7.28466667,9.8595 7.17091667,9.74575 C6.94283333,9.51766667 6.94283333,9.149 7.17091667,8.92091667 L8.5085,7.58333333 L4.08333333,7.58333333 C3.76133333,7.58333333 3.5,7.32258333 3.5,7 C3.5,6.67741667 3.76133333,6.41666667 4.08333333,6.41666667 L8.5085,6.41666667 L7.17091667,5.07908333 C6.94283333,4.851 6.94283333,4.48233333 7.17091667,4.25425 C7.399,4.02616667 7.76766667,4.02616667 7.99575,4.25425 L10.3290833,6.58758333 C10.5571667,6.81566667 10.5571667,7.18433333 10.3290833,7.41241667 Z" id="Shape"></path>
        </g>
    </g>
</svg>