<?xml version="1.0" encoding="UTF-8"?>
<svg width="8px" height="8px" viewBox="0 0 8 8" version="1.1" xmlns="http://www.w3.org/2000/svg" xmlns:xlink="http://www.w3.org/1999/xlink">
    <title>Arrow right</title>
    <g id="Arrow-right" stroke="none" stroke-width="1" fill="none" fill-rule="evenodd">
        <path d="M3.33352085,0.666666667 C3.16285418,0.666666667 2.99216685,0.731979333 2.86216685,0.861979333 L0.19550005,3.528646 C-0.0651666833,3.78931267 -0.0651666833,4.21068733 0.19550005,4.471354 L2.86216685,7.13802067 C3.12283352,7.39868733 3.54420818,7.39868733 3.80487485,7.13802067 C4.06554152,6.877354 4.06554152,6.45597933 3.80487485,6.19531267 L2.27622885,4.66666667 L7.33352085,4.66666667 C7.70152085,4.66666667 8.00018752,4.36866667 8.00018752,4 C8.00018752,3.63133333 7.70152085,3.33333333 7.33352085,3.33333333 L2.27622885,3.33333333 L3.80487485,1.80468733 C4.06554152,1.54402067 4.06554152,1.122646 3.80487485,0.861979333 C3.67487485,0.731979333 3.50418752,0.666666667 3.33352085,0.666666667 Z" id="Shape" fill="#000000" fill-rule="nonzero" transform="translate(4.0001, 4.0001) scale(-1, 1) translate(-4.0001, -4.0001)"></path>
    </g>
</svg>