<?xml version="1.0" encoding="UTF-8"?>
<svg width="27px" height="25px" viewBox="0 0 27 25" version="1.1" xmlns="http://www.w3.org/2000/svg" xmlns:xlink="http://www.w3.org/1999/xlink">
    <title>Barcode rounded</title>
    <g id="Barcode-rounded" stroke="none" stroke-width="1" fill="none" fill-rule="evenodd">
        <g id="icons8-barcode" transform="translate(1.1746, 2.2857)" fill="#FFFFFF" fill-rule="nonzero">
            <path d="M4.80952381,21 C5.26825397,21 5.61904762,20.5596774 5.61904762,19.983871 L5.61904762,1.01612903 C5.61904762,0.440322581 5.26825397,0 4.80952381,0 C4.35079365,0 4,0.440322581 4,1.01612903 L4,19.983871 C4,20.5596774 4.35079365,21 4.80952381,21 Z M0.80952381,21 C1.26825397,21 1.61904762,20.5596774 1.61904762,19.983871 L1.61904762,1.01612903 C1.61904762,0.440322581 1.26825397,0 0.80952381,0 C0.350793651,0 0,0.440322581 0,1.01612903 L0,19.983871 C0,20.5596774 0.350793651,21 0.80952381,21 Z M8.58730159,21 C9.04603175,21 9.3968254,20.5596774 9.3968254,19.983871 L9.3968254,1.01612903 C9.3968254,0.440322581 9.04603175,0 8.58730159,0 C8.12857143,0 7.77777778,0.440322581 7.77777778,1.01612903 L7.77777778,19.983871 C7.77777778,20.5596774 8.12857143,21 8.58730159,21 Z M12.3650794,21 C12.8238095,21 13.1746032,20.5596774 13.1746032,19.983871 L13.1746032,1.01612903 C13.1746032,0.440322581 12.8238095,0 12.3650794,0 C11.9063492,0 11.5555556,0.440322581 11.5555556,1.01612903 L11.5555556,19.983871 C11.5555556,20.5596774 11.9063492,21 12.3650794,21 Z M19.8412698,21 C20.3,21 20.6507937,20.5596774 20.6507937,19.983871 L20.6507937,1.01612903 C20.6507937,0.440322581 20.3,0 19.8412698,0 C19.3825397,0 19.031746,0.440322581 19.031746,1.01612903 L19.031746,19.983871 C19.031746,20.5596774 19.3825397,21 19.8412698,21 Z M15.8412698,21 C16.3,21 16.6507937,20.5596774 16.6507937,19.983871 L16.6507937,1.01612903 C16.6507937,0.440322581 16.3,0 15.8412698,0 C15.3825397,0 15.031746,0.440322581 15.031746,1.01612903 L15.031746,19.983871 C15.031746,20.5596774 15.3825397,21 15.8412698,21 Z M23.8412698,21 C24.3,21 24.6507937,20.5596774 24.6507937,19.983871 L24.6507937,1.01612903 C24.6507937,0.440322581 24.3,0 23.8412698,0 C23.3825397,0 23.031746,0.440322581 23.031746,1.01612903 L23.031746,19.983871 C23.031746,20.5596774 23.3825397,21 23.8412698,21 Z" id="Shape"></path>
        </g>
    </g>
</svg>