<?xml version="1.0" encoding="UTF-8"?>
<svg width="37px" height="37px" viewBox="0 0 37 37" version="1.1" xmlns="http://www.w3.org/2000/svg" xmlns:xlink="http://www.w3.org/1999/xlink">
    <title>Barcode corners</title>
    <g id="Barcode-corners" stroke="none" stroke-width="1" fill="none" fill-rule="evenodd">
        <g id="icons8-barcode" transform="translate(0, 2)" fill="#FFFFFF" fill-rule="nonzero">
            <path d="M0.80952381,8.36507937 C1.26825397,8.36507937 1.61904762,8.01428571 1.61904762,7.55555556 L1.61904762,3.50793651 C1.61904762,2.45555556 2.45555556,1.61904762 3.50793651,1.61904762 L7.55555556,1.61904762 C8.01428571,1.61904762 8.36507937,1.26825397 8.36507937,0.80952381 C8.36507937,0.350793651 8.01428571,0 7.55555556,0 L3.50793651,0 C1.56507937,0 0,1.56507937 0,3.50793651 L0,7.55555556 C0,8.01428571 0.350793651,8.36507937 0.80952381,8.36507937 Z M3.50793651,33 L7.55555556,33 C8.01428571,33 8.36507937,32.6492063 8.36507937,32.1904762 C8.36507937,31.731746 8.01428571,31.3809524 7.55555556,31.3809524 L3.50793651,31.3809524 C2.45555556,31.3809524 1.61904762,30.5444444 1.61904762,29.4920635 L1.61904762,25.4444444 C1.61904762,24.9857143 1.26825397,24.6349206 0.80952381,24.6349206 C0.350793651,24.6349206 0,24.9857143 0,25.4444444 L0,29.4920635 C0,31.4349206 1.56507937,33 3.50793651,33 Z M36.1904762,24.6349206 C35.731746,24.6349206 35.3809524,24.9857143 35.3809524,25.4444444 L35.3809524,29.4920635 C35.3809524,30.5444444 34.5444444,31.3809524 33.4920635,31.3809524 L29.4444444,31.3809524 C28.9857143,31.3809524 28.6349206,31.731746 28.6349206,32.1904762 C28.6349206,32.6492063 28.9857143,33 29.4444444,33 L33.4920635,33 C35.4349206,33 37,31.4349206 37,29.4920635 L37,25.4444444 C37,24.9857143 36.6492063,24.6349206 36.1904762,24.6349206 Z M33.2871429,1 L29.2395238,1 C28.7807937,1 28.43,1.35079365 28.43,1.80952381 C28.43,2.26825397 28.7807937,2.61904762 29.2395238,2.61904762 L33.2871429,2.61904762 C34.3395238,2.61904762 35.1760317,3.45555556 35.1760317,4.50793651 L35.1760317,8.55555556 C35.1760317,9.01428571 35.5268254,9.36507937 35.9855556,9.36507937 C36.4442857,9.36507937 36.7950794,9.01428571 36.7950794,8.55555556 L36.7950794,4.50793651 C36.7950794,2.56507937 35.23,1 33.2871429,1 Z M10.984127,27.2857143 C11.4428571,27.2857143 11.7936508,26.8453917 11.7936508,26.2695853 L11.7936508,7.30184332 C11.7936508,6.72603687 11.4428571,6.28571429 10.984127,6.28571429 C10.5253968,6.28571429 10.1746032,6.72603687 10.1746032,7.30184332 L10.1746032,26.2695853 C10.1746032,26.8453917 10.5253968,27.2857143 10.984127,27.2857143 Z M6.98412698,27.2857143 C7.44285714,27.2857143 7.79365079,26.8453917 7.79365079,26.2695853 L7.79365079,7.30184332 C7.79365079,6.72603687 7.44285714,6.28571429 6.98412698,6.28571429 C6.52539683,6.28571429 6.17460317,6.72603687 6.17460317,7.30184332 L6.17460317,26.2695853 C6.17460317,26.8453917 6.52539683,27.2857143 6.98412698,27.2857143 Z M14.7619048,27.2857143 C15.2206349,27.2857143 15.5714286,26.8453917 15.5714286,26.2695853 L15.5714286,7.30184332 C15.5714286,6.72603687 15.2206349,6.28571429 14.7619048,6.28571429 C14.3031746,6.28571429 13.952381,6.72603687 13.952381,7.30184332 L13.952381,26.2695853 C13.952381,26.8453917 14.3031746,27.2857143 14.7619048,27.2857143 Z M18.5396825,27.2857143 C18.9984127,27.2857143 19.3492063,26.8453917 19.3492063,26.2695853 L19.3492063,7.30184332 C19.3492063,6.72603687 18.9984127,6.28571429 18.5396825,6.28571429 C18.0809524,6.28571429 17.7301587,6.72603687 17.7301587,7.30184332 L17.7301587,26.2695853 C17.7301587,26.8453917 18.0809524,27.2857143 18.5396825,27.2857143 Z M26.015873,27.2857143 C26.4746032,27.2857143 26.8253968,26.8453917 26.8253968,26.2695853 L26.8253968,7.30184332 C26.8253968,6.72603687 26.4746032,6.28571429 26.015873,6.28571429 C25.5571429,6.28571429 25.2063492,6.72603687 25.2063492,7.30184332 L25.2063492,26.2695853 C25.2063492,26.8453917 25.5571429,27.2857143 26.015873,27.2857143 Z M22.015873,27.2857143 C22.4746032,27.2857143 22.8253968,26.8453917 22.8253968,26.2695853 L22.8253968,7.30184332 C22.8253968,6.72603687 22.4746032,6.28571429 22.015873,6.28571429 C21.5571429,6.28571429 21.2063492,6.72603687 21.2063492,7.30184332 L21.2063492,26.2695853 C21.2063492,26.8453917 21.5571429,27.2857143 22.015873,27.2857143 Z M30.015873,27.2857143 C30.4746032,27.2857143 30.8253968,26.8453917 30.8253968,26.2695853 L30.8253968,7.30184332 C30.8253968,6.72603687 30.4746032,6.28571429 30.015873,6.28571429 C29.5571429,6.28571429 29.2063492,6.72603687 29.2063492,7.30184332 L29.2063492,26.2695853 C29.2063492,26.8453917 29.5571429,27.2857143 30.015873,27.2857143 Z" id="Shape"></path>
        </g>
    </g>
</svg>