<?xml version="1.0" encoding="UTF-8"?>
<svg width="20px" height="20px" viewBox="0 0 20 20" version="1.1" xmlns="http://www.w3.org/2000/svg" xmlns:xlink="http://www.w3.org/1999/xlink">
    <title>Camera outlined</title>
    <g id="Camera-outlined" stroke="none" stroke-width="1" fill="none" fill-rule="evenodd">
        <path d="M12.998047,1 L6.9980469,1.0058593 L5.1640625,3.0019531 L2,3.0019531 C0.9,3.0019531 0,3.9019531 0,5.0019531 L0,17.0019531 C0,18.1019531 0.9,19.0019531 2,19.0019531 L18,19.0019531 C19.1,19.0019531 20,18.1019531 20,17.0019531 L20,5.0019531 C20,3.9019531 19.1,3.0019531 18,3.0019531 L14.84375,3.0019531 L12.998047,1 Z M12.121094,3 L13.966797,5.0019531 L18,5.0019531 L18,17.0019531 L2,17.0019531 L2,5.0019531 L6.0429688,5.0019531 L7.8789062,3.0039062 L12.121094,3 Z M10,6.0019531 C7.239,6.0019531 5,8.2409531 5,11.0019531 C5,13.7629531 7.239,16.0019531 10,16.0019531 C12.761,16.0019531 15,13.7629531 15,11.0019531 C15,8.2409531 12.761,6.0019531 10,6.0019531 Z M10,8.0019531 C11.657,8.0019531 13,9.3449531 13,11.0019531 C13,12.6589531 11.657,14.0019531 10,14.0019531 C8.343,14.0019531 7,12.6589531 7,11.0019531 C7,9.3449531 8.343,8.0019531 10,8.0019531 Z" id="Shape" fill="#FFFFFF" fill-rule="nonzero"></path>
    </g>
</svg>