<?xml version="1.0" encoding="UTF-8"?>
<svg width="20px" height="20px" viewBox="0 0 20 20" version="1.1" xmlns="http://www.w3.org/2000/svg" xmlns:xlink="http://www.w3.org/1999/xlink">
    <title>Camera filled</title>
    <g id="Camera-filled" stroke="none" stroke-width="1" fill="none" fill-rule="evenodd">
        <path d="M12.119141,1 L7.8769531,1.0039062 C7.3179531,1.0039062 6.7832969,1.2383906 6.4042969,1.6503906 L5.1640625,3.0019531 L2,3.0019531 C0.9,3.0019531 0,3.9019531 0,5.0019531 L0,17.0019531 C0,18.1019531 0.9,19.0019531 2,19.0019531 L18,19.0019531 C19.1,19.0019531 20,18.1019531 20,17.0019531 L20,5.0019531 C20,3.9019531 19.1,3.0019531 18,3.0019531 L14.841797,3.0019531 L13.59375,1.6464843 C13.21475,1.2344844 12.679141,1 12.119141,1 Z M10,6.0019531 C12.8,6.0019531 15,8.2019531 15,11.0019531 C15,13.8019531 12.8,16.0019531 10,16.0019531 C7.2,16.0019531 5,13.8019531 5,11.0019531 C5,8.2019531 7.2,6.0019531 10,6.0019531 Z M10,8.0019531 C8.34314575,8.0019531 7,9.34509885 7,11.0019531 C7,12.6588073 8.34314575,14.0019531 10,14.0019531 C11.6568542,14.0019531 13,12.6588073 13,11.0019531 C13,9.34509885 11.6568542,8.0019531 10,8.0019531 Z" id="Shape" fill="#FFFFFF" fill-rule="nonzero"></path>
    </g>
</svg>