<?xml version="1.0" encoding="UTF-8"?>
<svg width="20px" height="20px" viewBox="0 0 20 20" version="1.1" xmlns="http://www.w3.org/2000/svg" xmlns:xlink="http://www.w3.org/1999/xlink">
    <title>Categories</title>
    <g id="Categories" stroke="none" stroke-width="1" fill="none" fill-rule="evenodd">
        <path d="M4,9 L9.5,0 L15,9 L4,9 Z M15,20 C13.75,20 12.6875,19.5625 11.8125,18.6875 C10.9375,17.8125 10.5,16.75 10.5,15.5 C10.5,14.25 10.9375,13.1875 11.8125,12.3125 C12.6875,11.4375 13.75,11 15,11 C16.25,11 17.3125,11.4375 18.1875,12.3125 C19.0625,13.1875 19.5,14.25 19.5,15.5 C19.5,16.75 19.0625,17.8125 18.1875,18.6875 C17.3125,19.5625 16.25,20 15,20 Z M0.5,19.5 L0.5,11.5 L8.5,11.5 L8.5,19.5 L0.5,19.5 Z M15,18 C15.7,18 16.2916667,17.7583333 16.775,17.275 C17.2583333,16.7916667 17.5,16.2 17.5,15.5 C17.5,14.8 17.2583333,14.2083333 16.775,13.725 C16.2916667,13.2416667 15.7,13 15,13 C14.3,13 13.7083333,13.2416667 13.225,13.725 C12.7416667,14.2083333 12.5,14.8 12.5,15.5 C12.5,16.2 12.7416667,16.7916667 13.225,17.275 C13.7083333,17.7583333 14.3,18 15,18 Z M2.5,17.5 L6.5,17.5 L6.5,13.5 L2.5,13.5 L2.5,17.5 Z M7.55,7 L11.45,7 L9.5,3.85 L7.55,7 Z" id="Shape" fill="#000000" fill-rule="nonzero"></path>
    </g>
</svg>