<?xml version="1.0" encoding="UTF-8"?>
<svg width="24px" height="24px" viewBox="0 0 24 24" version="1.1" xmlns="http://www.w3.org/2000/svg" xmlns:xlink="http://www.w3.org/1999/xlink">
    <title>Chicken</title>
    <g id="Chicken" stroke="none" stroke-width="1" fill="none" fill-rule="evenodd">
        <path d="M15.4002195,0 C14.5164727,0 13.8001951,0.716266667 13.8001951,1.6 C13.8001951,2.28426667 14.2318849,2.86390832 14.8356274,3.09270832 C15.5577718,2.18124165 16.672072,1.6 17.8960912,1.6 C18.8086379,1.6 19.647184,1.91681669 20.3127947,2.44374997 C20.5671985,2.24855003 20.7336341,1.94506667 20.7336341,1.6 C20.7336341,1.01066667 20.2557602,0.533333333 19.6669512,0.533333333 C19.415214,0.533333333 19.1868442,0.62419168 19.0044409,0.76979168 C18.7916376,0.316458347 18.3346642,0 17.8002561,0 C17.3207821,0 16.903659,0.25568336 16.6689887,0.63541664 C16.3767176,0.251950027 15.9196941,0 15.4002195,0 Z M17.8960912,2.66666667 C16.4934026,2.66666667 15.2861175,3.71432501 15.0877145,5.1031248 L14.4564553,9.51666667 C14.0895163,12.0846667 11.3585579,13.8203168 9.00012195,13.8645835 L9.00012195,12.8 C9.00012195,11.6234667 8.04330737,10.6666667 6.8667561,10.6666667 C6.23047973,10.6666667 5.657671,10.9468917 5.26673171,11.3906251 L5.26673171,11.2 C5.26673171,10.0234667 4.30991712,9.06666667 3.13336585,9.06666667 C1.95681459,9.06666667 1,10.0234667 1,11.2 L1,14.1333333 C1,19.9429333 4.94779351,24 10.6001463,24 C12.7249787,24 14.6550332,23.4064917 16.2491909,22.3739584 C17.2156056,21.2923584 17.5467354,19.8367333 17.1189956,18.425 C16.7344564,17.1551333 15.8091505,16.1986501 14.7616679,15.9895835 C14.4731302,15.9319835 14.2858191,15.6515669 14.3439533,15.3625003 C14.4010208,15.0734331 14.6825083,14.8845499 14.971046,14.9437499 C16.4206687,15.2338832 17.6353037,16.4494667 18.1398447,18.1166667 C18.3937153,18.9550667 18.4257408,19.8049835 18.2721385,20.6145835 C19.814562,18.8471168 20.7336341,16.5088 20.7336341,13.8666667 L20.7336341,9.06666667 L22.6055379,7.19479147 C22.7730071,7.0273248 22.867,6.79980853 22.867,6.56354187 C22.867,6.15394187 22.5882875,5.7971168 22.1909481,5.6979168 L20.7336341,5.33333333 L20.7242591,5.40937493 C20.6735916,3.88937499 19.4283806,2.66666667 17.8960912,2.66666667 Z M17.8002561,5.33333333 C18.2418628,5.33333333 18.6002683,5.69173333 18.6002683,6.13333333 C18.6002683,6.57493333 18.2418628,6.93333333 17.8002561,6.93333333 C17.3586494,6.93333333 17.0002439,6.57493333 17.0002439,6.13333333 C17.0002439,5.69173333 17.3586494,5.33333333 17.8002561,5.33333333 Z" id="Shape" fill="#FFFFFF" fill-rule="nonzero"></path>
    </g>
</svg>