<?xml version="1.0" encoding="UTF-8"?>
<svg width="16px" height="16px" viewBox="0 0 16 16" version="1.1" xmlns="http://www.w3.org/2000/svg" xmlns:xlink="http://www.w3.org/1999/xlink">
    <title>Clear text</title>
    <g id="Clear-text" stroke="none" stroke-width="1" fill="none" fill-rule="evenodd">
        <path d="M14.8571224,3 L4.31521991,3 C3.75006697,3 3.22205754,3.277722 2.90262326,3.74344922 L0.100287505,7.81956244 C-0.0334291684,8.014425 -0.0334291684,8.27214644 0.100287505,8.467009 L2.90262326,12.5431222 C3.22205754,13.008278 3.75006697,13.286 4.31521991,13.286 L14.8571224,13.286 C15.4874194,13.286 16,12.7734143 16,12.1431111 L16,4.14288889 C16,3.51258567 15.4874194,3 14.8571224,3 Z M11.832497,10.0247666 C12.0559296,10.2482013 12.0559296,10.6093542 11.832497,10.832789 C11.7210664,10.9442207 11.5747781,11.0002222 11.4284898,11.0002222 C11.2822015,11.0002222 11.1359131,10.9442207 11.0244826,10.832789 L9.14273469,8.95102244 L7.2609868,10.832789 C7.14955624,10.9442207 7.00326792,11.0002222 6.85697959,11.0002222 C6.71069126,11.0002222 6.56440294,10.9442207 6.45297237,10.832789 C6.22953981,10.6093542 6.22953981,10.2482013 6.45297237,10.0247666 L8.33472026,8.143 L6.45297237,6.26123344 C6.22953981,6.03779867 6.22953981,5.67664578 6.45297237,5.453211 C6.67640494,5.22977622 7.03755424,5.22977622 7.2609868,5.453211 L9.14273469,7.33497756 L11.0244826,5.453211 C11.2479151,5.22977622 11.6090644,5.22977622 11.832497,5.453211 C12.0559296,5.67664578 12.0559296,6.03779867 11.832497,6.26123344 L9.95074912,8.143 L11.832497,10.0247666 Z" id="Shape" fill="#000000" fill-rule="nonzero"></path>
    </g>
</svg>