<?xml version="1.0" encoding="UTF-8"?>
<svg width="18px" height="18px" viewBox="0 0 18 18" version="1.1" xmlns="http://www.w3.org/2000/svg" xmlns:xlink="http://www.w3.org/1999/xlink">
    <title>Shape</title>
    <g id="Symbols" stroke="none" stroke-width="1" fill="none" fill-rule="evenodd">
        <g id="Product-top" transform="translate(-48, -192)" fill="#FFFFFF" fill-rule="nonzero">
            <g id="Group-3" transform="translate(29, 178.0004)">
                <path d="M19.8287617,14 C19.5340775,13.9959092 19.259977,14.1509333 19.1114187,14.4057926 C18.9628604,14.6606519 18.9628604,14.9758611 19.1114187,15.2307204 C19.259977,15.4855797 19.5340775,15.6406038 19.8287617,15.6364309 L28,15.6364309 L28,20.545477 C27.1068322,20.545477 26.3657523,21.2875095 26.3657523,22.1818257 L26.3657523,23.8181743 L19.8287617,23.8181743 C19.5340775,23.8140014 19.259977,23.9690255 19.1114187,24.2238848 C18.9628604,24.4787441 18.9628604,24.7939533 19.1114187,25.0488126 C19.259977,25.3036719 19.5340775,25.458696 19.8287617,25.454523 L26.3657523,25.454523 L26.3657523,30.3635691 C26.3657523,31.2578852 27.1068322,32 28,32 L36.1712383,32 C36.4659225,32.0040908 36.740023,31.8490667 36.8885813,31.5942074 C37.0371396,31.3393481 37.0371396,31.0241389 36.8885813,30.7692796 C36.740023,30.5144203 36.4659225,30.3593962 36.1712383,30.3635691 L28,30.3635691 L28,24.7737766 C28.0145849,24.6854208 28.0145849,24.5952669 28,24.5069111 L28,22.1818257 L28.6798724,22.1818257 C28.7681147,22.1964293 28.8581529,22.1964293 28.9463953,22.1818257 L36.1712383,22.1818257 C36.4659225,22.1859986 36.740023,22.0309745 36.8885813,21.7761152 C37.0371396,21.5212559 37.0371396,21.2060467 36.8885813,20.9511874 C36.740023,20.6963281 36.4659225,20.541304 36.1712383,20.545477 L29.6342477,20.545477 L29.6342477,15.6364309 C29.6342477,14.7421149 28.8931678,14 28,14 L19.8287617,14 Z M23.379665,17 L23.379665,19 L19.885885,19 C19.5708894,18.9948997 19.2778962,19.1843753 19.1190984,19.4958728 C18.9603005,19.8073704 18.9603005,20.1926296 19.1190984,20.5041272 C19.2778962,20.8156247 19.5708894,21.0051003 19.885885,21 L23.379665,21 L23.379665,23 L26,20 L23.379665,17 Z M32.620335,23 L30,26 L32.620335,29 L32.620335,27 L36.114115,27 C36.4291106,27.0051003 36.7221038,26.8156247 36.8809016,26.5041272 C37.0396995,26.1926296 37.0396995,25.8073704 36.8809016,25.4958728 C36.7221038,25.1843753 36.4291106,24.9948997 36.114115,25 L32.620335,25 L32.620335,23 Z" id="Shape"></path>
            </g>
        </g>
    </g>
</svg>