<?xml version="1.0" encoding="UTF-8"?>
<svg width="20px" height="20px" viewBox="0 0 20 20" version="1.1" xmlns="http://www.w3.org/2000/svg" xmlns:xlink="http://www.w3.org/1999/xlink">
    <title>Countries</title>
    <g id="Countries" stroke="none" stroke-width="1" fill="none" fill-rule="evenodd">
        <path d="M10,20 C8.61666667,20 7.31666667,19.7375 6.1,19.2125 C4.88333333,18.6875 3.825,17.975 2.925,17.075 C2.025,16.175 1.3125,15.1166667 0.7875,13.9 C0.2625,12.6833333 0,11.3833333 0,10 C0,8.61666667 0.2625,7.31666667 0.7875,6.1 C1.3125,4.88333333 2.025,3.825 2.925,2.925 C3.825,2.025 4.88333333,1.3125 6.1,0.7875 C7.31666667,0.2625 8.61666667,0 10,0 C11.3833333,0 12.6833333,0.2625 13.9,0.7875 C15.1166667,1.3125 16.175,2.025 17.075,2.925 C17.975,3.825 18.6875,4.88333333 19.2125,6.1 C19.7375,7.31666667 20,8.61666667 20,10 C20,11.3833333 19.7375,12.6833333 19.2125,13.9 C18.6875,15.1166667 17.975,16.175 17.075,17.075 C16.175,17.975 15.1166667,18.6875 13.9,19.2125 C12.6833333,19.7375 11.3833333,20 10,20 Z M9,17.95 L9,16 C8.45,16 7.97916667,15.8041667 7.5875,15.4125 C7.19583333,15.0208333 7,14.55 7,14 L7,13 L2.2,8.2 C2.15,8.5 2.10416667,8.8 2.0625,9.1 C2.02083333,9.4 2,9.7 2,10 C2,12.0166667 2.6625,13.7833333 3.9875,15.3 C5.3125,16.8166667 6.98333333,17.7 9,17.95 Z M15.9,15.4 C16.2333333,15.0333333 16.5333333,14.6375 16.8,14.2125 C17.0666667,13.7875 17.2875,13.3458333 17.4625,12.8875 C17.6375,12.4291667 17.7708333,11.9583333 17.8625,11.475 C17.9541667,10.9916667 18,10.5 18,10 C18,8.36666667 17.5458333,6.875 16.6375,5.525 C15.7291667,4.175 14.5166667,3.2 13,2.6 L13,3 C13,3.55 12.8041667,4.02083333 12.4125,4.4125 C12.0208333,4.80416667 11.55,5 11,5 L9,5 L9,7 C9,7.28333333 8.90416667,7.52083333 8.7125,7.7125 C8.52083333,7.90416667 8.28333333,8 8,8 L6,8 L6,10 L12,10 C12.2833333,10 12.5208333,10.0958333 12.7125,10.2875 C12.9041667,10.4791667 13,10.7166667 13,11 L13,14 L14,14 C14.4333333,14 14.825,14.1291667 15.175,14.3875 C15.525,14.6458333 15.7666667,14.9833333 15.9,15.4 Z" id="Shape" fill="#000000" fill-rule="nonzero"></path>
    </g>
</svg>