<?xml version="1.0" encoding="UTF-8"?>
<svg width="15px" height="15px" viewBox="0 0 15 15" version="1.1" xmlns="http://www.w3.org/2000/svg" xmlns:xlink="http://www.w3.org/1999/xlink">
    <title>Cupcake</title>
    <g id="Cupcake" stroke="none" stroke-width="1" fill="none" fill-rule="evenodd">
        <g id="cupcake" transform="translate(0, 0.375)" fill="#000000" fill-rule="nonzero">
            <path d="M12.75,4.50412208 C12.75,3.26662208 11.7375,2.25412208 10.5,2.25412208 L9.96,2.25412208 C9.3825,1.37662208 8.475,0.58162208 8.025,0.20662208 C7.7475,-0.0558779177 7.3125,-0.0708779177 7.02,0.17662208 C6.525,0.57412208 5.6175,1.37662208 5.0325,2.25412208 L4.5,2.25412208 C3.2625,2.25412208 2.25,3.26662208 2.25,4.50412208 C1.0125,4.50412208 0,5.51662208 0,6.75412208 C0,7.81912208 0.7425,8.71162208 1.74,8.94412208 L2.1075,12.2516221 C2.235,13.3916221 3.195,14.2541221 4.3425,14.2541221 L10.6575,14.2541221 C11.805,14.2541221 12.765,13.3916221 12.8925,12.2516221 L13.26,8.94412208 C14.2575,8.71162208 15,7.81912208 15,6.75412208 C15,5.51662208 13.9875,4.50412208 12.75,4.50412208 Z M5.25,9.00412208 C4.8375,9.00412208 4.5,8.66662208 4.5,8.25412208 C4.5,7.84162208 4.8375,7.50412208 5.25,7.50412208 C5.6625,7.50412208 6,7.84162208 6,8.25412208 C6,8.66662208 5.6625,9.00412208 5.25,9.00412208 Z M7.5,11.2541221 C6.675,11.2541221 6,10.5791221 6,9.7541221 L9,9.7541221 C9,10.5791221 8.325,11.2541221 7.5,11.2541221 Z M9.75,9.00412208 C9.3375,9.00412208 9,8.66662208 9,8.25412208 C9,7.84162208 9.3375,7.50412208 9.75,7.50412208 C10.1625,7.50412208 10.5,7.84162208 10.5,8.25412208 C10.5,8.66662208 10.1625,9.00412208 9.75,9.00412208 Z" id="Shape"></path>
        </g>
    </g>
</svg>