<?xml version="1.0" encoding="UTF-8"?>
<svg width="16px" height="16px" viewBox="0 0 16 16" version="1.1" xmlns="http://www.w3.org/2000/svg" xmlns:xlink="http://www.w3.org/1999/xlink">
    <title>Environment</title>
    <g id="Environment" stroke="none" stroke-width="1" fill="none" fill-rule="evenodd">
        <g id="environment" transform="translate(2, 0)" fill="#000000" fill-rule="nonzero">
            <path d="M6,0 C2.7304686,0 0,2.44043352 0,5.52587244 C0,7.18892916 1.0289064,8.52226218 1.95,9.60770156 C2.4117186,10.1492177 2.859375,10.6450062 3.16875,11.0517449 C3.478125,11.4584836 3.6,11.77136 3.6,11.8604091 L3.6,14.3249097 C3.6,14.4139589 3.6328128,14.4861614 3.675,14.5559567 C3.8484378,15.0709991 4.3523436,15.4031288 4.89375,15.4031288 L5.025,15.4031288 C5.221875,15.7569195 5.5757814,16 6,16 C6.4242186,16 6.778125,15.7569195 6.975,15.4031288 L7.10625,15.4031288 C7.6476564,15.4031288 8.1515628,15.0709991 8.325,14.5559567 C8.3671878,14.4861614 8.4,14.4139589 8.4,14.3249097 L8.4,11.8796631 C8.4,11.7882073 8.521875,11.456077 8.83125,11.0517449 C9.140625,10.6474128 9.590625,10.1684716 10.05,9.62695548 C10.9710936,8.54632988 12,7.20818307 12,5.52587244 C12,2.44043352 9.2695314,0 6,0 Z M6,1 C8.81005875,1 11,2.94552967 11,5.25868056 C11,6.39735228 10.1943362,7.50260417 9.28125,8.52430556 C8.82470688,9.03515656 8.35351562,9.51974811 7.97265625,9.99479167 C7.59179688,10.4698352 7.25,10.9424912 7.25,11.5607639 L7.25,12 L6.2734375,12 C6.53710938,11.5798611 6.84472688,10.6655814 6.625,8.75347222 C6.32714875,6.16818561 5.10888687,5.80056439 5.43359375,3.84548611 C5.44091812,5.5523005 7.02539062,5.90798611 7.26953125,8.77256944 C8.24609375,9.09722222 9.1054688,7.59570328 9.1054688,6.15625 C9.1054688,3.85026072 5.76318375,3.00282133 5.55078125,1.84027778 C4.28125,2.43467867 1.9326175,5.41145833 3.34375,7.77951389 C4.78662125,10.2024741 6.0732425,8.44314267 6.0390625,9.02083333 C6.16601562,10.7610676 5.4140625,11.8185764 5.12109375,12 L4.75,12 L4.75,11.5416667 C4.75,10.9233939 4.40820312,10.453125 4.02734375,9.97569444 C3.64648438,9.49826389 3.17773438,9.01844633 2.71875,8.50520833 C1.8032225,7.47634533 1,6.36631944 1,5.25868056 C1,2.94552967 3.18994125,1 6,1 Z" id="Shape"></path>
        </g>
    </g>
</svg>