<?xml version="1.0" encoding="UTF-8"?>
<svg width="16px" height="16px" viewBox="0 0 16 16" version="1.1" xmlns="http://www.w3.org/2000/svg" xmlns:xlink="http://www.w3.org/1999/xlink">
    <title>Expand</title>
    <g id="Expand" stroke="none" stroke-width="1" fill="none" fill-rule="evenodd">
        <g id="ic_expand" transform="translate(0, 0)" fill="#FF8C14" fill-rule="nonzero">
            <path d="M0.729487446,0.000303190647 C0.519261403,0.000303190647 0.319360887,0.0914512835 0.181408285,0.250083156 C0.0434556829,0.408715029 -0.0190237241,0.619323971 0.0101047701,0.827522248 L0.0101047701,4.36626064 C0.00639952619,4.6282544 0.144049212,4.87194786 0.37034507,5.00402602 C0.596640929,5.13610419 0.876522934,5.13610419 1.10281879,5.00402602 C1.32911465,4.87194786 1.46676434,4.6282544 1.46305909,4.36626064 L1.46305909,2.48763611 L4.58180303,5.60637968 C4.76401554,5.79616515 5.03459226,5.87261586 5.28918041,5.80624721 C5.54376857,5.73987857 5.74258566,5.54106147 5.80895431,5.28647332 C5.87532295,5.03188517 5.79887224,4.76130844 5.60908677,4.57909593 L2.4903432,1.460352 L4.36896774,1.460352 C4.6309615,1.46405724 4.87465495,1.32640756 5.00673312,1.1001117 C5.13881128,0.87381584 5.13881128,0.593933835 5.00673312,0.367637976 C4.87465495,0.141342118 4.6309615,0.00369243214 4.36896774,0.00739767601 L0.821715974,0.00739767601 C0.791155032,0.00307624268 0.760349773,0.000706612991 0.729487446,0.000303190647 L0.729487446,0.000303190647 Z M15.2519363,0.000303190647 C15.2248661,0.00115873108 15.1978649,0.00352725645 15.1710591,0.00739767601 L11.6337394,0.00739767601 C11.3717456,0.00369243214 11.1280521,0.141342118 10.995974,0.367637976 C10.8638958,0.593933835 10.8638958,0.87381584 10.995974,1.1001117 C11.1280521,1.32640756 11.3717456,1.46405724 11.6337394,1.460352 L13.5123642,1.460352 L10.3936203,4.57909593 C10.2038348,4.76130844 10.1273841,5.03188517 10.1937528,5.28647332 C10.2601214,5.54106147 10.4589385,5.73987857 10.7135267,5.80624721 C10.9681148,5.87261586 11.2386916,5.79616515 11.4209041,5.60637968 L14.539648,2.48763611 L14.539648,4.36626064 C14.5359428,4.6282544 14.6735924,4.87194786 14.8998883,5.00402602 C15.1261842,5.13610419 15.4060662,5.13610419 15.632362,5.00402602 C15.8586579,4.87194786 15.9963076,4.6282544 15.9926023,4.36626064 L15.9926023,0.826103365 C16.0218865,0.614399484 15.9564754,0.400540146 15.8137765,0.24143911 C15.6710777,0.0823380734 15.465567,-0.00586497237 15.2519363,0.000303190647 Z M5.08125607,10.1709832 C4.89251825,10.176607 4.71338366,10.2554875 4.58180303,10.3909132 L1.46305909,13.5096572 L1.46305909,11.6310323 C1.46574812,11.4346652 1.38883007,11.2455732 1.24983102,11.1068414 C1.11083197,10.9681097 0.921592205,10.8915557 0.725230726,10.8946227 C0.324566805,10.9008857 0.00461789138,11.230357 0.0101047701,11.6310323 L0.0101047701,15.1527436 C-0.0289490363,15.3845655 0.0465780984,15.6209565 0.212810752,15.7871891 C0.379043406,15.9534218 0.615434301,16.028949 0.847256223,15.9898952 L4.36896774,15.9898952 C4.6309615,15.9936005 4.87465495,15.8559508 5.00673312,15.6296549 C5.13881128,15.4033591 5.13881128,15.1234771 5.00673312,14.8971812 C4.87465495,14.6708853 4.6309615,14.5332357 4.36896774,14.5369409 L2.4903432,14.5369409 L5.60908677,11.418197 C5.82395005,11.2093411 5.88855455,10.8900001 5.7717703,10.6140501 C5.65498606,10.3381 5.38077066,10.1621503 5.08125607,10.1709832 Z M10.9001674,10.1709832 C10.6045471,10.1710609 10.3384488,10.3502456 10.2272093,10.6241381 C10.1159697,10.8980307 10.1817713,11.2120141 10.3936203,11.418197 L13.5123642,14.5369409 L11.6337394,14.5369409 C11.3717456,14.5332357 11.1280521,14.6708853 10.995974,14.8971812 C10.8638958,15.1234771 10.8638958,15.4033591 10.995974,15.6296549 C11.1280521,15.8559508 11.3717456,15.9936005 11.6337394,15.9898952 L15.1554507,15.9898952 C15.3872727,16.028949 15.6236636,15.9534219 15.7898963,15.7871892 C15.956129,15.6209565 16.0316561,15.3845656 15.9926023,15.1527436 L15.9926023,11.6310323 C15.9952913,11.4346652 15.9183733,11.2455732 15.7793742,11.1068414 C15.6403752,10.9681097 15.4511354,10.8915557 15.254774,10.8946227 C14.85411,10.9008857 14.5341611,11.230357 14.539648,11.6310323 L14.539648,13.5096572 L11.4209041,10.3909132 C11.2841295,10.2503159 11.0963176,10.1709832 10.9001674,10.1709832 Z" id="Shape"></path>
        </g>
    </g>
</svg>