<?xml version="1.0" encoding="UTF-8"?>
<svg width="21px" height="21px" viewBox="0 0 21 21" version="1.1" xmlns="http://www.w3.org/2000/svg" xmlns:xlink="http://www.w3.org/1999/xlink">
    <title>Fish</title>
    <g id="Fish" stroke="none" stroke-width="1" fill="none" fill-rule="evenodd">
        <path d="M20.946,10.6761238 C20.886,10.5031238 19.505,6.61312384 14.907,5.37512384 C14.587,3.98812384 13.463,2.89712384 12.003,2.65312384 L8.164,2.01312384 C7.826,1.95812384 7.484,2.07812384 7.255,2.33312384 C7.026,2.58812384 6.945,2.94212384 7.038,3.27112384 L7.793,5.94812384 C6.775,6.39712384 5.804,6.98912384 5.006,7.64312384 C4.232,6.93012384 3.017,6.00012384 1,6.00012384 C0.448,6.00012384 -3.78364007e-13,6.44812384 -3.78364007e-13,7.00012384 L-3.78364007e-13,15.0001238 C-3.78364007e-13,15.5521238 0.448,16.0001238 1,16.0001238 C2.873,16.0001238 4.145,15.0341238 4.955,14.3431238 C5.753,15.0351238 7.117,15.9981238 9,16.5531238 L9,18.0001238 C9,18.2931238 9.129,18.5721238 9.352,18.7621238 C9.534,18.9171238 9.764,19.0001238 10,19.0001238 C10.053,19.0001238 10.107,18.9961238 10.161,18.9871238 C10.489,18.9341238 13.197,18.4451238 14.413,16.7201238 C19.165,15.6161238 20.856,11.5521238 20.927,11.3741238 C21.017,11.1511238 21.024,10.9031238 20.946,10.6761238 Z M14.5,9.00012384 C15.33,9.00012384 16,9.67012384 16,10.5001238 C16,11.3301238 15.33,12.0001238 14.5,12.0001238 C13.67,12.0001238 13,11.3301238 13,10.5001238 C13,9.67012384 13.67,9.00012384 14.5,9.00012384 Z" id="Shape" fill="#FFFFFF" fill-rule="nonzero"></path>
    </g>
</svg>