<?xml version="1.0" encoding="UTF-8"?>
<svg width="17px" height="17px" viewBox="0 0 17 17" version="1.1" xmlns="http://www.w3.org/2000/svg" xmlns:xlink="http://www.w3.org/1999/xlink">
    <title>Fruit</title>
    <g id="Fruit" stroke="none" stroke-width="1" fill="none" fill-rule="evenodd">
        <g id="fruit" transform="translate(1, 0)" fill="#000000" fill-rule="nonzero">
            <path d="M13.614069,0 C9.60013415,0 8.04136013,1.85311204 7.43517965,3.21358821 C7.05297009,2.32783396 6.50529192,1.87290736 6.50529192,1.87290736 L6,2.41280693 C6,2.41280693 7.02491286,3.20141393 7.02491286,5 L7.79717976,5 C7.79717976,4.99712786 7.79718478,4.99449786 7.79717976,4.99162929 C9.00529132,4.96054107 12.8997132,4.54291179 13.9888899,0.442243286 C14.0170776,0.33581475 13.9909777,0.223147321 13.9179981,0.13671875 C13.8450189,0.0502901786 13.7329981,0 13.614069,0 Z M5.64196145,3 C2.38380355,3.78525289 0,6.58591933 0,9.8900644 C0,13.8104039 3.36434211,17 7.5,17 C11.6356579,17 15,13.8104039 15,9.8900644 C15,7.78394347 14.0032524,5.79982075 12.3370682,4.46117788 C12.1333839,4.61127652 11.9260239,4.74262547 11.7172082,4.86388937 C11.7933924,4.93617371 11.8421053,5.03674336 11.8421053,5.15010733 C11.8421053,5.36814536 11.6652632,5.54510375 11.4473684,5.54510375 C11.2472368,5.54510375 11.088707,5.39378299 11.0626543,5.20102474 C9.81844382,5.76507963 8.63041539,5.90044609 7.99804697,5.93007082 C7.96409961,5.93441578 7.93026316,5.94010018 7.89473684,5.94010018 L7.10526316,5.94010018 C6.66907895,5.94010018 6.31578947,5.58657838 6.31578947,5.15010733 C6.31578947,3.94734322 5.85117197,3.25319271 5.64196145,3 Z M10.5,6 C10.776,6 11,6.224 11,6.5 C11,6.776 10.776,7 10.5,7 C10.224,7 10,6.776 10,6.5 C10,6.224 10.224,6 10.5,6 Z M11.5,6 C11.776,6 12,6.224 12,6.5 C12,6.776 11.776,7 11.5,7 C11.224,7 11,6.776 11,6.5 C11,6.224 11.224,6 11.5,6 Z M11.5,7 C11.776,7 12,7.224 12,7.5 C12,7.776 11.776,8 11.5,8 C11.224,8 11,7.776 11,7.5 C11,7.224 11.224,7 11.5,7 Z M12.5,7 C12.776,7 13,7.224 13,7.5 C13,7.776 12.776,8 12.5,8 C12.224,8 12,7.776 12,7.5 C12,7.224 12.224,7 12.5,7 Z M10.5,8 C10.776,8 11,8.224 11,8.5 C11,8.776 10.776,9 10.5,9 C10.224,9 10,8.776 10,8.5 C10,8.224 10.224,8 10.5,8 Z M11.5,8 C11.776,8 12,8.224 12,8.5 C12,8.776 11.776,9 11.5,9 C11.224,9 11,8.776 11,8.5 C11,8.224 11.224,8 11.5,8 Z M13.5,8 C13.776,8 14,8.224 14,8.5 C14,8.776 13.776,9 13.5,9 C13.224,9 13,8.776 13,8.5 C13,8.224 13.224,8 13.5,8 Z M11.5,10 C11.776,10 12,10.224 12,10.5 C12,10.776 11.776,11 11.5,11 C11.224,11 11,10.776 11,10.5 C11,10.224 11.224,10 11.5,10 Z M12.5,10 C12.776,10 13,10.224 13,10.5 C13,10.776 12.776,11 12.5,11 C12.224,11 12,10.776 12,10.5 C12,10.224 12.224,10 12.5,10 Z M10.5,11 C10.776,11 11,11.224 11,11.5 C11,11.776 10.776,12 10.5,12 C10.224,12 10,11.776 10,11.5 C10,11.224 10.224,11 10.5,11 Z M11.5,11 C11.776,11 12,11.224 12,11.5 C12,11.776 11.776,12 11.5,12 C11.224,12 11,11.776 11,11.5 C11,11.224 11.224,11 11.5,11 Z M13.5,11 C13.776,11 14,11.224 14,11.5 C14,11.776 13.776,12 13.5,12 C13.224,12 13,11.776 13,11.5 C13,11.224 13.224,11 13.5,11 Z M9.5,12 C9.776,12 10,12.224 10,12.5 C10,12.776 9.776,13 9.5,13 C9.224,13 9,12.776 9,12.5 C9,12.224 9.224,12 9.5,12 Z M11.5,12 C11.776,12 12,12.224 12,12.5 C12,12.776 11.776,13 11.5,13 C11.224,13 11,12.776 11,12.5 C11,12.224 11.224,12 11.5,12 Z M12.5,12 C12.776,12 13,12.224 13,12.5 C13,12.776 12.776,13 12.5,13 C12.224,13 12,12.776 12,12.5 C12,12.224 12.224,12 12.5,12 Z M7.5,13 C7.776,13 8,13.224 8,13.5 C8,13.776 7.776,14 7.5,14 C7.224,14 7,13.776 7,13.5 C7,13.224 7.224,13 7.5,13 Z M8.5,13 C8.776,13 9,13.224 9,13.5 C9,13.776 8.776,14 8.5,14 C8.224,14 8,13.776 8,13.5 C8,13.224 8.224,13 8.5,13 Z M10.5,13 C10.776,13 11,13.224 11,13.5 C11,13.776 10.776,14 10.5,14 C10.224,14 10,13.776 10,13.5 C10,13.224 10.224,13 10.5,13 Z M11.5,13 C11.776,13 12,13.224 12,13.5 C12,13.776 11.776,14 11.5,14 C11.224,14 11,13.776 11,13.5 C11,13.224 11.224,13 11.5,13 Z M5.5,14 C5.776,14 6,14.224 6,14.5 C6,14.776 5.776,15 5.5,15 C5.224,15 5,14.776 5,14.5 C5,14.224 5.224,14 5.5,14 Z M6.5,14 C6.776,14 7,14.224 7,14.5 C7,14.776 6.776,15 6.5,15 C6.224,15 6,14.776 6,14.5 C6,14.224 6.224,14 6.5,14 Z M8.5,14 C8.776,14 9,14.224 9,14.5 C9,14.776 8.776,15 8.5,15 C8.224,15 8,14.776 8,14.5 C8,14.224 8.224,14 8.5,14 Z M9.5,14 C9.776,14 10,14.224 10,14.5 C10,14.776 9.776,15 9.5,15 C9.224,15 9,14.776 9,14.5 C9,14.224 9.224,14 9.5,14 Z M11.5,14 C11.776,14 12,14.224 12,14.5 C12,14.776 11.776,15 11.5,15 C11.224,15 11,14.776 11,14.5 C11,14.224 11.224,14 11.5,14 Z M5.5,15 C5.776,15 6,15.224 6,15.5 C6,15.776 5.776,16 5.5,16 C5.224,16 5,15.776 5,15.5 C5,15.224 5.224,15 5.5,15 Z M7.5,15 C7.776,15 8,15.224 8,15.5 C8,15.776 7.776,16 7.5,16 C7.224,16 7,15.776 7,15.5 C7,15.224 7.224,15 7.5,15 Z M8.5,15 C8.776,15 9,15.224 9,15.5 C9,15.776 8.776,16 8.5,16 C8.224,16 8,15.776 8,15.5 C8,15.224 8.224,15 8.5,15 Z" id="Shape"></path>
        </g>
    </g>
</svg>