<?xml version="1.0" encoding="UTF-8"?>
<svg width="16px" height="16px" viewBox="0 0 16 16" version="1.1" xmlns="http://www.w3.org/2000/svg" xmlns:xlink="http://www.w3.org/1999/xlink">
    <title>History</title>
    <g id="History" stroke="none" stroke-width="1" fill="none" fill-rule="evenodd">
        <path d="M8.12247152,0.000907863873 C5.80845016,-0.0337181129 3.71929621,0.924489893 2.23779114,2.4713215 L0.683022994,0.916570369 C0.527014904,0.760563986 0.27337679,0.760563986 0.1173687,0.916570369 C0.038964634,0.994173544 0.000175102397,1.09699023 0.000175102397,1.19939442 L0.000175102397,4.79954172 C0.000175102397,5.2413876 0.358365878,5.59957446 0.800216592,5.59957446 L4.4004033,5.59957446 C4.50280861,5.59957446 4.60482638,5.55998532 4.68323044,5.48238214 C4.83923853,5.32637576 4.83923853,5.07274042 4.68323044,4.91673404 L3.37378758,3.60730542 C4.82287608,2.08037359 7.00203901,1.25464884 9.35378497,1.7400415 C11.8139126,2.24806229 13.7863652,4.23940633 14.2727905,6.70430686 C15.0808324,10.7988744 11.953595,14.3999345 8.00059,14.3999345 C4.7052191,14.3999345 1.98417799,11.8960193 1.63776003,8.69188818 C1.59455779,8.29427191 1.25023993,7.99967266 0.850219185,7.99967266 C0.370194291,7.99967266 -0.00342508431,8.41976505 0.0501776955,8.89658456 C0.497400888,12.8871478 3.89317699,16 8.00059,16 C12.9096446,16 16.8004592,11.5547429 15.8588103,6.47773519 C15.2627794,3.25920366 12.6545185,0.687573479 9.43035134,0.124350435 C8.98842843,0.0472472799 8.55165618,0.00733004664 8.12247152,0.000907863873 Z M8.00059,3.19947626 C7.5589671,3.19947626 7.20054851,3.55789092 7.20054851,3.99950899 L7.20054851,7.99967266 C7.20054851,8.21168133 7.28452806,8.41571448 7.43493586,8.5653206 L9.2694062,10.3997709 C9.58142238,10.7117836 10.0886983,10.7117836 10.4007145,10.3997709 C10.7127306,10.0877581 10.7127306,9.58048774 10.4007145,9.26847497 L8.80063149,7.66840951 L8.80063149,3.99950899 C8.80063149,3.55789092 8.4422129,3.19947626 8.00059,3.19947626 Z" id="Shape" fill="#000000" fill-rule="nonzero"></path>
    </g>
</svg>