<?xml version="1.0" encoding="UTF-8"?>
<svg width="16px" height="16px" viewBox="0 0 16 16" version="1.1" xmlns="http://www.w3.org/2000/svg" xmlns:xlink="http://www.w3.org/1999/xlink">
    <title>Ingredients</title>
    <g id="Ingredients" stroke="none" stroke-width="1" fill="none" fill-rule="evenodd">
        <g id="ingredients" transform="translate(1, 0)" fill="#000000" fill-rule="nonzero">
            <path d="M2.625,16 L2.625,8.68 C1.88125,8.49333333 1.2578125,8.12 0.7546875,7.56 C0.2515625,7 0,6.34666667 0,5.6 L0,0 L1.75,0 L1.75,5.6 L2.625,5.6 L2.625,0 L4.375,0 L4.375,5.6 L5.25,5.6 L5.25,0 L7,0 L7,5.6 C7,6.34666667 6.7484375,7 6.2453125,7.56 C5.7421875,8.12 5.11875,8.49333333 4.375,8.68 L4.375,16 L2.625,16 Z M11,16 L11,9.6 L8,9.6 L8,4 C8,2.89333333 8.4875,1.95 9.4625,1.17 C10.4375,0.39 11.6166667,0 13,0 L13,16 L11,16 Z" id="Shape"></path>
        </g>
    </g>
</svg>