<?xml version="1.0" encoding="UTF-8"?>
<svg width="18px" height="18px" viewBox="0 0 18 18" version="1.1" xmlns="http://www.w3.org/2000/svg" xmlns:xlink="http://www.w3.org/1999/xlink">
    <title>Laboratoy</title>
    <g id="Laboratoy" stroke="none" stroke-width="1" fill="none" fill-rule="evenodd">
        <path d="M5,0 L5,2 L6,2 L6,7 L0.4316406,14.773438 C0.1656406,15.112437 0,15.535 0,16 C0,17.105 0.895,18 2,18 L16,18 C17.105,18 18,17.105 18,16 C18,15.535 17.834359,15.112437 17.568359,14.773438 L12,7 L12,2 L13,2 L13,0 L5,0 Z M8,2 L10,2 L10,6 L8,6 L8,2 Z M7.744141,8 L10.255859,8 L15.943359,15.9375 L15.972656,15.966797 L16,16 L2.0058594,16.007812 L2.03125,15.972656 L2.0566406,15.9375 L7.744141,8 Z M10,10 C9.44771525,10 9,10.4477153 9,11 C9,11.5522847 9.44771525,12 10,12 C10.5522847,12 11,11.5522847 11,11 C11,10.4477153 10.5522847,10 10,10 Z M7.5,12 C6.67157288,12 6,12.6715729 6,13.5 C6,14.3284271 6.67157288,15 7.5,15 C8.32842712,15 9,14.3284271 9,13.5 C9,12.6715729 8.32842712,12 7.5,12 Z" id="Shape" fill="#000000" fill-rule="nonzero"></path>
    </g>
</svg>