<?xml version="1.0" encoding="UTF-8"?>
<svg width="18px" height="18px" viewBox="0 0 18 18" version="1.1" xmlns="http://www.w3.org/2000/svg" xmlns:xlink="http://www.w3.org/1999/xlink">
    <title>Labels</title>
    <g id="Labels" stroke="none" stroke-width="1" fill="none" fill-rule="evenodd">
        <g id="labels" transform="translate(0, 2)" fill="#000000" fill-rule="nonzero">
            <path d="M18,7 L13.65,13.15 C13.4666667,13.4166667 13.2291667,13.625 12.9375,13.775 C12.6458333,13.925 12.3333333,14 12,14 L2,14 C1.45,14 0.979166667,13.8041667 0.5875,13.4125 C0.195833333,13.0208333 0,12.55 0,12 L0,2 C0,1.45 0.195833333,0.979166667 0.5875,0.5875 C0.979166667,0.195833333 1.45,0 2,0 L12,0 C12.3333333,0 12.6458333,0.075 12.9375,0.225 C13.2291667,0.375 13.4666667,0.583333333 13.65,0.85 L18,7 Z M2.0375,7 L2.0375,12 L2.0375,2 L2.0375,7 Z" id="Shape"></path>
        </g>
    </g>
</svg>