<?xml version="1.0" encoding="UTF-8"?>
<svg width="19px" height="19px" viewBox="0 0 19 19" version="1.1" xmlns="http://www.w3.org/2000/svg" xmlns:xlink="http://www.w3.org/1999/xlink">
    <title>Lifebuoy</title>
    <g id="Lifebuoy" stroke="none" stroke-width="1" fill="none" fill-rule="evenodd">
        <path d="M9.5,19 C8.18583333,19 6.95083333,18.750625 5.795,18.251875 C4.63916667,17.753125 3.63375,17.07625 2.77875,16.22125 C1.92375,15.36625 1.246875,14.3608333 0.748125,13.205 C0.249375,12.0491667 0,10.8141667 0,9.5 C0,8.18583333 0.249375,6.95083333 0.748125,5.795 C1.246875,4.63916667 1.92375,3.63375 2.77875,2.77875 C3.63375,1.92375 4.63916667,1.246875 5.795,0.748125 C6.95083333,0.249375 8.18583333,0 9.5,0 C10.8141667,0 12.0491667,0.249375 13.205,0.748125 C14.3608333,1.246875 15.36625,1.92375 16.22125,2.77875 C17.07625,3.63375 17.753125,4.63916667 18.251875,5.795 C18.750625,6.95083333 19,8.18583333 19,9.5 C19,10.8141667 18.750625,12.0491667 18.251875,13.205 C17.753125,14.3608333 17.07625,15.36625 16.22125,16.22125 C15.36625,17.07625 14.3608333,17.753125 13.205,18.251875 C12.0491667,18.750625 10.8141667,19 9.5,19 Z M6.62625,17.1 L8.1225,13.5375 C7.52083333,13.3316667 6.98645833,13.003125 6.519375,12.551875 C6.05229167,12.100625 5.7,11.5504167 5.4625,10.90125 L1.9,12.32625 C2.39083333,13.4504167 3.04,14.4241667 3.8475,15.2475 C4.655,16.0708333 5.58125,16.6883333 6.62625,17.1 Z M5.43875,8.1225 C5.69208333,7.47333333 6.04833333,6.91916667 6.5075,6.46 C6.96666667,6.00083333 7.49708333,5.66833333 8.09875,5.4625 L6.67375,1.9 C5.48625,2.39083333 4.48083333,3.051875 3.6575,3.883125 C2.83416667,4.714375 2.24833333,5.6525 1.9,6.6975 L5.43875,8.1225 Z M9.5,12.35 C10.2916667,12.35 10.9645833,12.0729167 11.51875,11.51875 C12.0729167,10.9645833 12.35,10.2916667 12.35,9.5 C12.35,8.70833333 12.0729167,8.03541667 11.51875,7.48125 C10.9645833,6.92708333 10.2916667,6.65 9.5,6.65 C8.70833333,6.65 8.03541667,6.92708333 7.48125,7.48125 C6.92708333,8.03541667 6.65,8.70833333 6.65,9.5 C6.65,10.2916667 6.92708333,10.9645833 7.48125,11.51875 C8.03541667,12.0729167 8.70833333,12.35 9.5,12.35 Z M12.37375,17.1 C13.46625,16.6566667 14.41625,16.0272917 15.22375,15.211875 C16.03125,14.3964583 16.6566667,13.4504167 17.1,12.37375 L13.5375,10.90125 C13.3,11.56625 12.9477083,12.124375 12.480625,12.575625 C12.0135417,13.026875 11.4791667,13.3475 10.8775,13.5375 L12.37375,17.1 Z M13.5375,8.09875 L17.1,6.62625 C16.6566667,5.54958333 16.0272917,4.60354167 15.211875,3.788125 C14.3964583,2.97270833 13.4504167,2.34333333 12.37375,1.9 L10.925,5.4625 C11.5266667,5.66833333 12.0491667,5.996875 12.4925,6.448125 C12.9358333,6.899375 13.2841667,7.44958333 13.5375,8.09875 Z" id="Shape" fill="#000000" fill-rule="nonzero"></path>
    </g>
</svg>