<?xml version="1.0" encoding="UTF-8"?>
<svg width="27px" height="27px" viewBox="0 0 27 27" version="1.1" xmlns="http://www.w3.org/2000/svg" xmlns:xlink="http://www.w3.org/1999/xlink">
    <title>Magic Wand</title>
    <g id="Magic-Wand" stroke="none" stroke-width="1" fill="none" fill-rule="evenodd">
        <path d="M17.4999062,1.24344979e-14 C17.2022812,1.24344979e-14 16.9056872,0.1488125 16.7381872,0.4453125 L15.3690472,2.859375 L12.6971722,2.1171875 C12.0401722,1.9351875 11.4350932,2.5402656 11.6170942,3.1972656 L12.3592812,5.8691406 L9.9452182,7.2363281 C9.3522192,7.5723281 9.3522192,8.426719 9.9452182,8.761719 L12.3592812,10.128906 L12.3651402,10.134766 L15.8788122,6.6191406 C16.7068122,5.7911406 18.0508122,5.7911406 18.8788122,6.6191406 C19.7068122,7.4471406 19.7068122,8.791141 18.8788122,9.619141 L15.3651402,13.134766 L15.3710002,13.140625 L16.7362342,15.554688 C17.0722342,16.147687 17.9285782,16.147687 18.2635782,15.554688 L19.6288122,13.140625 L22.3026402,13.880859 C22.9596402,14.062859 23.5627652,13.459734 23.3807652,12.802734 L22.6405312,10.128906 L25.0545942,8.763672 C25.6485932,8.427672 25.6475942,7.5723281 25.0545942,7.2363281 L22.6405312,5.8691406 L23.3827182,3.1972656 C23.5647182,2.5402656 22.9596402,1.9351875 22.3026402,2.1171875 L19.6307652,2.859375 L18.2635782,0.4453125 C18.0955782,0.1488125 17.7975312,1.24344979e-14 17.4999062,1.24344979e-14 Z M12.3631872,10.136719 L1.121,21.378906 C0.293,22.206906 0.293,23.550906 1.121,24.378906 C1.9489999,25.206906 3.293,25.206906 4.121,24.378906 L15.3631872,13.136719 L12.3631872,10.136719 Z M16.4842812,17.986328 C15.932765,17.9949491 15.4923535,18.4484681 15.4999062,19 L15.4999062,20 L14.4999062,20 C14.1392703,19.9948997 13.8038248,20.1843753 13.6220185,20.4958728 C13.4402121,20.8073704 13.4402121,21.1926296 13.6220185,21.5041272 C13.8038248,21.8156247 14.1392703,22.0051003 14.4999062,22 L15.4999062,22 L15.4999062,23 C15.4948059,23.3606359 15.6842815,23.6960814 15.995779,23.8778877 C16.3072766,24.0596941 16.6925358,24.0596941 17.0040334,23.8778877 C17.3155309,23.6960814 17.5050065,23.3606359 17.4999062,23 L17.4999062,22 L18.4999062,22 C18.8605421,22.0051003 19.1959876,21.8156247 19.3777939,21.5041272 C19.5596003,21.1926296 19.5596003,20.8073704 19.3777939,20.4958728 C19.1959876,20.1843753 18.8605421,19.9948997 18.4999062,20 L17.4999062,20 L17.4999062,19 C17.5036077,18.7296997 17.3977295,18.4694133 17.2063965,18.2784483 C17.0150635,18.0874832 16.7545739,17.9821063 16.4842812,17.986328 Z M23.4842812,20.986328 C22.932765,20.9949491 22.4923535,21.4484681 22.4999062,22 L22.4999062,23 L21.4999062,23 C21.1392703,22.9948997 20.8038248,23.1843753 20.6220185,23.4958728 C20.4402121,23.8073704 20.4402121,24.1926296 20.6220185,24.5041272 C20.8038248,24.8156247 21.1392703,25.0051003 21.4999062,25 L22.4999062,25 L22.4999062,26 C22.4948059,26.3606359 22.6842815,26.6960814 22.995779,26.8778877 C23.3072766,27.0596941 23.6925358,27.0596941 24.0040334,26.8778877 C24.3155309,26.6960814 24.5050065,26.3606359 24.4999062,26 L24.4999062,25 L25.4999062,25 C25.8605421,25.0051003 26.1959876,24.8156247 26.3777939,24.5041272 C26.5596003,24.1926296 26.5596003,23.8073704 26.3777939,23.4958728 C26.1959876,23.1843753 25.8605421,22.9948997 25.4999062,23 L24.4999062,23 L24.4999062,22 C24.5036077,21.7296997 24.3977295,21.4694133 24.2063965,21.2784483 C24.0150635,21.0874832 23.7545739,20.9821063 23.4842812,20.986328 Z" id="Shape" fill="#000000" fill-rule="nonzero"></path>
    </g>
</svg>