<?xml version="1.0" encoding="UTF-8"?>
<svg width="24px" height="24px" viewBox="0 0 24 24" version="1.1" xmlns="http://www.w3.org/2000/svg" xmlns:xlink="http://www.w3.org/1999/xlink">
    <title>Milk</title>
    <g id="Milk" stroke="none" stroke-width="1" fill="none" fill-rule="evenodd">
        <path d="M6.80488333,0 C6.31961437,0 5.92683333,0.393365854 5.92683333,0.87804878 L5.92683333,1.84184453 L3.33955838,7.0152439 C3.11558691,7.46277483 3,7.9557758 3,8.45464917 L3,21.9512195 C3,23.0721688 3.92783251,24 5.04878333,24 L18.5122167,24 C19.6331675,24 20.561,23.0721688 20.561,21.9512195 L20.561,8.45464917 C20.561,7.95445756 20.44373,7.4625682 20.2214417,7.01638712 C20.2214419,7.01600605 20.2214419,7.01562498 20.2214417,7.0152439 L17.6341667,1.84184453 L17.6341667,0.87804878 C17.6341667,0.393365854 17.2413856,0 16.7561167,0 L6.80488333,0 Z M7.34680467,2.92682927 L15.3350021,2.92682927 L13.2907917,7.0152439 C13.2893282,7.0181678 13.288816,7.02146224 13.287362,7.02439024 L5.29802134,7.02439024 L7.34680467,2.92682927 Z M16.7561167,4.01181401 L18.6505552,7.80068605 C18.7522293,8.00515727 18.8049,8.22819161 18.8049,8.45464917 L18.8049,21.9512195 C18.8049,22.1239288 18.6849262,22.2439024 18.5122167,22.2439024 L14.7073333,22.2439024 L14.7073333,8.45464917 C14.7073333,8.22687395 14.7605197,8.00264312 14.8616781,7.80068605 L16.7561167,4.01181401 Z M4.7561,8.7804878 L12.9512333,8.7804878 L12.9512333,22.2439024 L5.04878333,22.2439024 C4.87607383,22.2439024 4.7561,22.1239288 4.7561,21.9512195 L4.7561,8.7804878 Z M6.80488333,12.2926829 C6.31994971,12.2926829 5.92683333,12.6857988 5.92683333,13.1707317 C5.92683333,13.6556647 6.31994971,14.0487805 6.80488333,14.0487805 C7.28981696,14.0487805 7.68293333,13.6556647 7.68293333,13.1707317 C7.68293333,12.6857988 7.28981696,12.2926829 6.80488333,12.2926829 L6.80488333,12.2926829 Z M10.90245,12.2926829 C10.4175164,12.2926829 10.0244,12.6857988 10.0244,13.1707317 C10.0244,13.6556647 10.4175164,14.0487805 10.90245,14.0487805 C11.3873836,14.0487805 11.7805,13.6556647 11.7805,13.1707317 C11.7805,12.6857988 11.3873836,12.2926829 10.90245,12.2926829 Z M6.6665448,15.2869662 C6.30488024,15.2962099 5.98589977,15.526312 5.86303471,15.8665921 C5.74016966,16.2068722 5.8385696,16.5876775 6.11090364,16.8258386 C7.63560761,18.2378447 9.97405378,18.2376187 11.4992495,16.8258386 C11.7684895,16.5835668 11.86136,16.2008451 11.733104,15.862118 C11.604848,15.5233908 11.2817815,15.2981595 10.9195995,15.2949694 C10.6912171,15.292848 10.4709934,15.3797892 10.3056505,15.5373477 C9.40625748,16.3698603 8.20207396,16.3696338 7.30335934,15.5373477 C7.13367487,15.3712146 6.90393931,15.2808876 6.6665448,15.2869662 Z" id="Shape" fill="#FFFFFF" fill-rule="nonzero"></path>
    </g>
</svg>