<?xml version="1.0" encoding="UTF-8"?>
<svg width="50px" height="50px" viewBox="0 0 50 50" version="1.1" xmlns="http://www.w3.org/2000/svg" xmlns:xlink="http://www.w3.org/1999/xlink">
    <title>No photo</title>
    <g id="No-photo" stroke="none" stroke-width="1" fill="none" fill-rule="evenodd">
        <path d="M14.375,5 C12.472656,5 10.699219,6.414063 9.9375,8.375 L9.3125,10 L7,10 C3.144531,10 0,13.144531 0,17 L0,38 C0,41.855469 3.144531,45 7,45 L43,45 C46.855469,45 50,41.855469 50,38 L50,17 C50,13.144531 46.855469,10 43,10 L43,9 C43,8.449219 42.550781,8 42,8 L35,8 C34.96875,8 34.9375,8 34.90625,8 C34.390625,8.046875 33.996094,8.480469 34,9 L34,10 L30.6875,10 L30.0625,8.375 C29.300781,6.414063 27.53125,5 25.625,5 L14.375,5 Z M14.375,7 L25.625,7 C26.390625,7 27.710938,7.867188 28.1875,9.09375 L29.0625,11.375 C29.214844,11.757813 29.589844,12.003906 30,12 L43,12 C45.773438,12 48,14.226563 48,17 L48,38 C48,40.773438 45.773438,43 43,43 L7,43 C4.226563,43 2,40.773438 2,38 L2,17 C2,14.226563 4.226563,12 7,12 L10,12 C10.410156,12.003906 10.785156,11.757813 10.9375,11.375 L11.8125,9.09375 C12.289063,7.867188 13.609375,7 14.375,7 Z M36,16 L36,40 L6,40 L6,16 L36,16 Z M34,18 L8,18 L8,38 L34,38 L34,18 Z M42,16 C40.894531,16 40,16.894531 40,18 C40,19.105469 40.894531,20 42,20 C43.105469,20 44,19.105469 44,18 C44,16.894531 43.105469,16 42,16 Z M24.3430124,24.6564199 C24.6909002,24.5270434 25.1557823,24.4057143 25.678233,24.4057143 C25.8627002,24.4057143 26.0344775,24.4196424 26.1991361,24.4400703 C26.4455051,23.6842394 26.4520048,23.0605706 26.4520048,23.0166197 C26.4520048,22.7745805 26.2650615,22.5737065 26.0230257,22.5551358 C25.9762899,22.5514216 25.3284881,22.5074708 24.5472882,22.6944166 C24.57762,22.8900289 24.5949525,23.1001883 24.5949525,23.3258233 C24.5949525,23.8476623 24.4726966,24.3097653 24.3430124,24.6564199 Z M23.9759351,23.3217996 C23.9759351,23.6189321 23.9264137,23.8974939 23.8614168,24.1358189 C22.9483662,23.2444213 22.3262536,22.7089638 21.7381871,22.3065968 C21.7289018,22.3004065 21.7196166,22.2942163 21.7103313,22.2911211 C21.9734137,21.5792411 22.3850603,21.1613985 22.409821,21.1366374 C22.5707655,20.9756906 22.8214676,20.9540247 23.0071728,21.0871153 C23.0474089,21.1149715 23.9759351,21.78971 23.9759351,23.3217996 Z M27.8633645,26.5902575 C27.8386038,26.6150185 27.420767,27.0266709 26.708897,27.289757 C26.7058019,27.2804716 26.6996117,27.2711862 26.6934216,27.2619008 C26.2879651,26.673826 25.7525151,26.0517047 24.8642251,25.1386412 C25.1025468,25.0736435 25.3811046,25.0241214 25.678233,25.0241214 C27.2103011,25.0241214 27.8850301,25.9557557 27.9128859,25.9928973 C28.0459746,26.1786051 28.024309,26.4293107 27.8633645,26.5902575 Z M26.1842797,27.6128886 C25.7314685,26.9551734 25.0991422,26.2426743 23.9282707,25.0717864 C22.7570898,23.900589 22.0442912,23.2679443 21.3868947,22.8154362 C20.6555256,22.312168 19.7356657,22.1255316 18.8647082,22.3050492 C17.9897271,22.4845668 17.2472157,22.9965014 16.7736674,23.746761 C14.9546847,26.6283276 14.9918257,31.3864718 15.0020395,31.9194532 C15.0237051,33.0627945 15.9370653,33.975858 17.0803905,33.9975239 C17.1289834,33.9987619 17.2122412,34 17.3252119,34 C18.5257962,34 22.6453571,33.8721711 25.2526585,32.2264902 C26.0035266,31.7532447 26.515454,31.0104134 26.6949691,30.134801 C26.8738651,29.2629027 26.6878504,28.3439584 26.1842797,27.6128886 Z M18.0438911,32.1964674 C17.8724233,32.3670091 17.6480295,32.4521252 17.4236357,32.4521252 C17.1989323,32.4521252 16.9751575,32.3670091 16.8043087,32.1964674 C16.8043087,32.1964674 16.8039992,32.1964674 16.8039992,32.1961579 C16.4623016,31.8544555 16.4623016,31.2988796 16.8039992,30.9571772 C17.0336547,30.727209 17.5239165,30.6346646 17.8943984,30.5978325 C18.0321298,30.5835949 18.1707897,30.6328075 18.2689039,30.7315421 C18.3673277,30.8299673 18.4165396,30.9677006 18.4026117,31.1060529 C18.3654707,31.4768496 18.2732371,31.9668087 18.0438911,32.1964674 Z M18.662599,28.7915143 C18.4914407,28.962056 18.2670469,29.0471721 18.0426531,29.0471721 C17.8182593,29.0471721 17.594175,28.962056 17.4236357,28.7915143 C17.4236357,28.7915143 17.4233262,28.7915143 17.4233262,28.7912048 C17.0816285,28.4495024 17.0816285,27.8939265 17.4233262,27.552224 C17.6529816,27.3222558 18.1426244,27.2297114 18.5131063,27.1928794 C18.6511472,27.1798798 18.7894976,27.2281639 18.8876119,27.326589 C18.9860356,27.4250142 19.0352475,27.5627475 19.0213196,27.7010998 C18.9841786,28.0718965 18.891945,28.5618556 18.662599,28.7915143 Z M19.5911252,25.6963838 C19.4199668,25.8669255 19.195573,25.9520415 18.9711792,25.9520415 C18.7467854,25.9520415 18.5227011,25.8669255 18.3521618,25.6963838 C18.3521618,25.6963838 18.3518523,25.6963838 18.3518523,25.6960742 C18.0101547,25.3543718 18.0101547,24.7987959 18.3518523,24.4570935 C18.5815077,24.2271253 19.0711505,24.1345809 19.4416325,24.0977488 C19.5793638,24.0841303 19.7180237,24.1330333 19.816138,24.2314585 C19.9145618,24.3298836 19.9637737,24.4676169 19.9498458,24.6059693 C19.9127047,24.9767659 19.8204711,25.4667251 19.5911252,25.6963838 Z M21.4481774,31.5771318 C21.2770191,31.7476735 21.0526253,31.8327896 20.8282315,31.8327896 C20.6038377,31.8327896 20.3797534,31.7476735 20.2092141,31.5771318 C20.2092141,31.5771318 20.2089046,31.5771318 20.2089046,31.5768223 C19.8672069,31.2351199 19.8672069,30.6795439 20.2089046,30.3378415 C20.43856,30.1078733 20.9282028,30.0153289 21.2986847,29.9784969 C21.4361066,29.9648783 21.575076,30.0137814 21.6731903,30.1122065 C21.771614,30.2106317 21.8208259,30.348365 21.806898,30.4867173 C21.769757,30.857514 21.6775234,31.3474731 21.4481774,31.5771318 Z M22.0671949,28.1724882 C21.895727,28.3427204 21.6716427,28.4278365 21.4472489,28.4278365 C21.2228551,28.4278365 20.9990803,28.3427204 20.8282315,28.1727977 L20.827922,28.1724882 C20.6623348,28.0068987 20.5713393,27.7871444 20.5713393,27.5531526 C20.5713393,27.3191607 20.6623348,27.0994064 20.827922,26.933817 C21.0575774,26.7038488 21.5475297,26.6116139 21.9177021,26.5744723 C22.0548145,26.5608537 22.1937839,26.6097568 22.2922077,26.7081819 C22.3906315,26.8066071 22.4398433,26.9443404 22.4259154,27.0826927 C22.3887744,27.4531799 22.2962313,27.943139 22.0671949,28.1724882 Z M24.5432645,30.6485926 C24.3721062,30.8191343 24.1477124,30.9042504 23.9233186,30.9042504 C23.6989248,30.9042504 23.4748405,30.8191343 23.3043012,30.6485926 C23.3043012,30.6485926 23.3039917,30.6485926 23.3039917,30.6482831 C22.962294,30.3065807 22.962294,29.7510048 23.3039917,29.4093024 C23.5336471,29.1793342 24.0232899,29.0867898 24.3937718,29.0499577 C24.5318127,29.0363391 24.6701631,29.0852422 24.7682774,29.1836674 C24.8667011,29.2820925 24.915913,29.4198258 24.9019851,29.5581781 C24.8648441,29.9289748 24.7726105,30.418934 24.5432645,30.6485926 Z M42,23 C40.894531,23 40,23.894531 40,25 C40,26.105469 40.894531,27 42,27 C43.105469,27 44,26.105469 44,25 C44,23.894531 43.105469,23 42,23 Z M42,30 C40.894531,30 40,30.894531 40,32 C40,33.105469 40.894531,34 42,34 C43.105469,34 44,33.105469 44,32 C44,30.894531 43.105469,30 42,30 Z" id="Shape" fill="#FFFFFF" fill-rule="nonzero"></path>
    </g>
</svg>