<?xml version="1.0" encoding="UTF-8"?>
<svg width="20px" height="20px" viewBox="0 0 20 20" version="1.1" xmlns="http://www.w3.org/2000/svg" xmlns:xlink="http://www.w3.org/1999/xlink">
    <title>Nutrition facts</title>
    <g id="Nutrition-facts" stroke="none" stroke-width="1" fill="none" fill-rule="evenodd">
        <path d="M0,19.5 L0,17.5 L9,17.5 L9,6.325 C8.56666667,6.175 8.19166667,5.94166667 7.875,5.625 C7.55833333,5.30833333 7.325,4.93333333 7.175,4.5 L4,4.5 L7,11.5 C7,12.3333333 6.65833333,13.0416667 5.975,13.625 C5.29166667,14.2083333 4.46666667,14.5 3.5,14.5 C2.53333333,14.5 1.70833333,14.2083333 1.025,13.625 C0.341666667,13.0416667 0,12.3333333 0,11.5 L3,4.5 L1,4.5 L1,2.5 L7.175,2.5 C7.375,1.91666667 7.73333333,1.4375 8.25,1.0625 C8.76666667,0.6875 9.35,0.5 10,0.5 C10.65,0.5 11.2333333,0.6875 11.75,1.0625 C12.2666667,1.4375 12.625,1.91666667 12.825,2.5 L19,2.5 L19,4.5 L17,4.5 L20,11.5 C20,12.3333333 19.6583333,13.0416667 18.975,13.625 C18.2916667,14.2083333 17.4666667,14.5 16.5,14.5 C15.5333333,14.5 14.7083333,14.2083333 14.025,13.625 C13.3416667,13.0416667 13,12.3333333 13,11.5 L16,4.5 L12.825,4.5 C12.675,4.93333333 12.4416667,5.30833333 12.125,5.625 C11.8083333,5.94166667 11.4333333,6.175 11,6.325 L11,17.5 L20,17.5 L20,19.5 L0,19.5 Z M14.625,11.5 L18.375,11.5 L16.5,7.15 L14.625,11.5 Z M1.625,11.5 L5.375,11.5 L3.5,7.15 L1.625,11.5 Z M10,4.5 C10.2833333,4.5 10.5208333,4.40416667 10.7125,4.2125 C10.9041667,4.02083333 11,3.78333333 11,3.5 C11,3.21666667 10.9041667,2.97916667 10.7125,2.7875 C10.5208333,2.59583333 10.2833333,2.5 10,2.5 C9.71666667,2.5 9.47916667,2.59583333 9.2875,2.7875 C9.09583333,2.97916667 9,3.21666667 9,3.5 C9,3.78333333 9.09583333,4.02083333 9.2875,4.2125 C9.47916667,4.40416667 9.71666667,4.5 10,4.5 Z" id="Shape" fill="#000000" fill-rule="nonzero"></path>
    </g>
</svg>