<?xml version="1.0" encoding="UTF-8"?>
<svg width="25px" height="25px" viewBox="0 0 25 25" version="1.1" xmlns="http://www.w3.org/2000/svg" xmlns:xlink="http://www.w3.org/1999/xlink">
    <title>outdated</title>
    <g id="outdated" stroke="none" stroke-width="1" fill="none" fill-rule="evenodd" opacity="0.898181734">
        <path d="M10.0600372,2 C4.51360335,2 -1.77635684e-15,6.50278991 -1.77635684e-15,12.0359359 C-1.77635684e-15,17.1776804 3.89870101,21.4246063 8.90077506,22 C8.96560641,21.8316193 9.01758327,21.6595967 9.11035917,21.5012519 L9.44656706,20.9262764 L14.9874468,11.4478925 C15.5306888,10.5190111 16.5016925,9.93562014 17.5635853,9.82968526 C17.6720101,9.81853422 17.7760332,9.78830442 17.8866936,9.78830442 C18.1359589,9.78830442 18.3777844,9.82949357 18.6158719,9.88413367 C19.1233449,10.0067951 19.5964807,10.241176 20,10.5723619 C19.2868551,5.7316955 15.1079403,2 10.0600372,2 Z M9.83517764,6 C10.4781596,6 11,6.48622249 11,7.08531806 L11,11.4265903 C11,11.7141996 10.8777298,11.989904 10.6587432,12.1939438 L7.98784217,14.6825445 C7.53356144,15.1058185 6.79499126,15.1058185 6.34071054,14.6825445 C5.88642982,14.2592704 5.88642982,13.5711115 6.34071054,13.1478374 L8.67035527,10.9772013 L8.67035527,7.08531806 C8.67035527,6.48622249 9.19219569,6 9.83517764,6 Z M18,12 C17.6248957,12 17.2505953,12.1798471 17.0348125,12.5404258 L11.1541542,22.3617024 C10.7192345,23.0883067 11.2562105,24 12.1193417,24 L23.8806583,24 C24.7437895,24 25.2807655,23.0883067 24.8458458,22.3617024 L18.9651875,12.5404258 C18.7494047,12.1798471 18.3751043,12 18,12 Z M18,15 C18.552,15 19,15.448 19,16 L19,18 C19,18.552 18.552,19 18,19 C17.448,19 17,18.552 17,18 L17,16 C17,15.448 17.448,15 18,15 Z M18,21 C18.552,21 19,21.448 19,22 C19,22.552 18.552,23 18,23 C17.448,23 17,22.552 17,22 C17,21.448 17.448,21 18,21 Z" id="Shape" fill="#FFFFFF" fill-rule="nonzero"></path>
    </g>
</svg>