<?xml version="1.0" encoding="UTF-8"?>
<svg width="19px" height="19px" viewBox="0 0 19 19" version="1.1" xmlns="http://www.w3.org/2000/svg" xmlns:xlink="http://www.w3.org/1999/xlink">
    <title>Packaging</title>
    <g id="Packaging" stroke="none" stroke-width="1" fill="none" fill-rule="evenodd">
        <path d="M2.5,3 L0.5,7 L0.5,18 L1.5,19 L7.5,19 L8.5,18 L8.5,7 L6.441,3 L2.5,3 Z M1.5,9 L7.5,9 L7.5,14 L1.5,14 L1.5,9 Z M2.5,0 L6.5,0 L6.5,2 L2.5,2 L2.5,0 Z M10.5,11 L18.5,11 L18.5,19 L10.5,19 L10.5,12.063 L10.5,11 Z M10.5,8 L18.5,8 L18.5,10 L10.5,10 L10.5,8 Z" id="Shape" fill="#000000" fill-rule="nonzero"></path>
    </g>
</svg>