<?xml version="1.0" encoding="UTF-8"?>
<svg width="15px" height="15px" viewBox="0 0 15 15" version="1.1" xmlns="http://www.w3.org/2000/svg" xmlns:xlink="http://www.w3.org/1999/xlink">
    <title>Barcode rounded</title>
    <g id="Barcode-rounded" stroke="none" stroke-width="1" fill="none" fill-rule="evenodd">
        <g id="ic_edit" transform="translate(-0, 1)" fill="#24262B" fill-rule="nonzero">
            <path d="M12.0151515,13 C11.1878788,13 10.4886364,12.7143939 9.91742424,12.1431818 C9.34621212,11.5719697 9.06060606,10.8727273 9.06060606,10.0454545 C9.06060606,9.21818182 9.34621212,8.51893939 9.91742424,7.94772727 C10.4886364,7.37651515 11.1878788,7.09090909 12.0151515,7.09090909 C12.8424242,7.09090909 13.5416667,7.37651515 14.1128788,7.94772727 C14.6840909,8.51893939 14.969697,9.21818182 14.969697,10.0454545 C14.969697,10.8727273 14.6840909,11.5719697 14.1128788,12.1431818 C13.5416667,12.7143939 12.8424242,13 12.0151515,13 Z M12.0151515,11.4242424 C12.3959596,11.4242424 12.7209596,11.2896465 12.9901515,11.0204545 C13.2593434,10.7512626 13.3939394,10.4262626 13.3939394,10.0454545 C13.3939394,9.66464646 13.2593434,9.33964646 12.9901515,9.07045455 C12.7209596,8.80126263 12.3959596,8.66666667 12.0151515,8.66666667 C11.6343434,8.66666667 11.3093434,8.80126263 11.0401515,9.07045455 C10.7709596,9.33964646 10.6363636,9.66464646 10.6363636,10.0454545 C10.6363636,10.4262626 10.7709596,10.7512626 11.0401515,11.0204545 C11.3093434,11.2896465 11.6343434,11.4242424 12.0151515,11.4242424 Z M1.18181818,10.8333333 L1.18181818,9.25757576 L7.48484848,9.25757576 L7.48484848,10.8333333 L1.18181818,10.8333333 Z M2.95454545,5.90909091 C2.12727273,5.90909091 1.4280303,5.62348485 0.856818182,5.05227273 C0.285606061,4.48106061 0,3.78181818 0,2.95454545 C0,2.12727273 0.285606061,1.4280303 0.856818182,0.856818182 C1.4280303,0.285606061 2.12727273,0 2.95454545,0 C3.78181818,0 4.48106061,0.285606061 5.05227273,0.856818182 C5.62348485,1.4280303 5.90909091,2.12727273 5.90909091,2.95454545 C5.90909091,3.78181818 5.62348485,4.48106061 5.05227273,5.05227273 C4.48106061,5.62348485 3.78181818,5.90909091 2.95454545,5.90909091 Z M2.95454545,4.33333333 C3.33535354,4.33333333 3.66035354,4.19873737 3.92954545,3.92954545 C4.19873737,3.66035354 4.33333333,3.33535354 4.33333333,2.95454545 C4.33333333,2.57373737 4.19873737,2.24873737 3.92954545,1.97954545 C3.66035354,1.71035354 3.33535354,1.57575758 2.95454545,1.57575758 C2.57373737,1.57575758 2.24873737,1.71035354 1.97954545,1.97954545 C1.71035354,2.24873737 1.57575758,2.57373737 1.57575758,2.95454545 C1.57575758,3.33535354 1.71035354,3.66035354 1.97954545,3.92954545 C2.24873737,4.19873737 2.57373737,4.33333333 2.95454545,4.33333333 Z M7.48484848,3.74242424 L7.48484848,2.16666667 L13.7878788,2.16666667 L13.7878788,3.74242424 L7.48484848,3.74242424 Z" id="Shape"></path>
        </g>
    </g>
</svg>