<?xml version="1.0" encoding="UTF-8"?>
<svg width="58px" height="57px" viewBox="0 0 58 57" version="1.1" xmlns="http://www.w3.org/2000/svg" xmlns:xlink="http://www.w3.org/1999/xlink">
    <title>QRCode corners</title>
    <g id="QRCode-corners" stroke="none" stroke-width="1" fill="none" fill-rule="evenodd">
        <path d="M0.80952381,12.3650794 C1.26825397,12.3650794 1.61904762,12.0142857 1.61904762,11.5555556 L1.61904762,7.50793651 C1.61904762,6.45555556 2.45555556,5.61904762 3.50793651,5.61904762 L7.55555556,5.61904762 C8.01428571,5.61904762 8.36507937,5.26825397 8.36507937,4.80952381 C8.36507937,4.35079365 8.01428571,4 7.55555556,4 L3.50793651,4 C1.56507937,4 7.10542736e-14,5.56507937 7.10542736e-14,7.50793651 L7.10542736e-14,11.5555556 C7.10542736e-14,12.0142857 0.350793651,12.3650794 0.80952381,12.3650794 Z M3.50793651,54 L7.55555556,54 C8.01428571,54 8.36507937,53.6492063 8.36507937,53.1904762 C8.36507937,52.731746 8.01428571,52.3809524 7.55555556,52.3809524 L3.50793651,52.3809524 C2.45555556,52.3809524 1.61904762,51.5444444 1.61904762,50.4920635 L1.61904762,46.4444444 C1.61904762,45.9857143 1.26825397,45.6349206 0.80952381,45.6349206 C0.350793651,45.6349206 7.10542736e-14,45.9857143 7.10542736e-14,46.4444444 L7.10542736e-14,50.4920635 C7.10542736e-14,52.4349206 1.56507937,54 3.50793651,54 Z M57.1904762,45.6349206 C56.731746,45.6349206 56.3809524,45.9857143 56.3809524,46.4444444 L56.3809524,50.4920635 C56.3809524,51.5444444 55.5444444,52.3809524 54.4920635,52.3809524 L50.4444444,52.3809524 C49.9857143,52.3809524 49.6349206,52.731746 49.6349206,53.1904762 C49.6349206,53.6492063 49.9857143,54 50.4444444,54 L54.4920635,54 C56.4349206,54 58,52.4349206 58,50.4920635 L58,46.4444444 C58,45.9857143 57.6492063,45.6349206 57.1904762,45.6349206 Z M54.2871429,4 L50.2395238,4 C49.7807937,4 49.43,4.35079365 49.43,4.80952381 C49.43,5.26825397 49.7807937,5.61904762 50.2395238,5.61904762 L54.2871429,5.61904762 C55.3395238,5.61904762 56.1760317,6.45555556 56.1760317,7.50793651 L56.1760317,11.5555556 C56.1760317,12.0142857 56.5268254,12.3650794 56.9855556,12.3650794 C57.4442857,12.3650794 57.7950794,12.0142857 57.7950794,11.5555556 L57.7950794,7.50793651 C57.7950794,5.56507937 56.23,4 54.2871429,4 Z" id="Shape" fill="#FFFFFF" fill-rule="nonzero"></path>
        <g id="QR" transform="translate(7, 10)" fill="#FFFFFF">
            <path d="M16,15 L16,11 C16,10.4477153 16.4477153,10 17,10 L20,10 L20,7 L17,7 C16.4477153,7 16,6.55228475 16,6 L16,2 C16,1.44771525 16.4477153,1 17,1 L21,1 C21.5522847,1 22,1.44771525 22,2 L22,5 L25,5 C25.5522847,5 26,5.44771525 26,6 L26,11 C26,11.5522847 25.5522847,12 25,12 L22,12 L22,15 L33,15 C33.5522847,15 34,15.4477153 34,16 L34,20 C34,20.1826037 33.9510565,20.3537761 33.8655723,20.5011143 C33.9512743,20.6469864 34,20.817803 34,21 L35,21 L35,19 C35,18.4477153 35.4477153,18 36,18 L40,18 C40.5522847,18 41,18.4477153 41,19 L41,28 C41,28.5522847 40.5522847,29 40,29 L36,29 C35.817803,29 35.6469864,28.9512743 35.4998705,28.8661429 C35.3537761,28.9510565 35.1826037,29 35,29 L34,29 L34,30 L40,30 C40.5522847,30 41,30.4477153 41,31 L41,39 C41,39.5522847 40.5522847,40 40,40 L32,40 C31.4477153,40 31,39.5522847 31,39 L31,33 L26,33 L26,36 C26,36.5522847 25.5522847,37 25,37 L21,37 C20.4477153,37 20,36.5522847 20,36 L20,31 C20,30.4477153 20.4477153,30 21,30 L23,30 L23,27 C23,26.4477153 23.4477153,26 24,26 L31,26 L31,24 L27,24 C26.4477153,24 26,23.5522847 26,23 L26,21 L21,21 C20.4477153,21 20,20.5522847 20,20 L20,17 L18,17 L18,24 C18,24.5522847 17.5522847,25 17,25 L13,25 C12.4477153,25 12,24.5522847 12,24 L12,21 L9,21 L9,24 C9,24.5522847 8.55228475,25 8,25 L4,25 C3.44771525,25 3,24.5522847 3,24 L3,20 C3,19.4477153 3.44771525,19 4,19 L7,19 L7,16 C7,15.4477153 7.44771525,15 8,15 L16,15 Z" id="Combined-Shape"></path>
            <path d="M7.5,0 C8.32842712,-1.52179594e-16 9,0.671572875 9,1.5 L9,7.5 C9,8.32842712 8.32842712,9 7.5,9 L1.5,9 C0.671572875,9 -3.93362679e-16,8.32842712 -4.4408921e-16,7.5 L0,1.5 C-1.01453063e-16,0.671572875 0.671572875,-3.42636147e-16 1.5,-4.4408921e-16 L7.5,0 Z M7,1.5 L2,1.5 C1.72385763,1.5 1.5,1.72385763 1.5,2 L1.5,7 C1.5,7.27614237 1.72385763,7.5 2,7.5 L7,7.5 C7.27614237,7.5 7.5,7.27614237 7.5,7 L7.5,2 C7.5,1.72385763 7.27614237,1.5 7,1.5 Z M5.5,2.5 C6.05228475,2.5 6.5,2.94771525 6.5,3.5 L6.5,5.5 C6.5,6.05228475 6.05228475,6.5 5.5,6.5 L3.5,6.5 C2.94771525,6.5 2.5,6.05228475 2.5,5.5 L2.5,3.5 C2.5,2.94771525 2.94771525,2.5 3.5,2.5 L5.5,2.5 Z" id="Combined-Shape"></path>
            <path d="M42.5,0 C43.3284271,-1.52179594e-16 44,0.671572875 44,1.5 L44,7.5 C44,8.32842712 43.3284271,9 42.5,9 L36.5,9 C35.6715729,9 35,8.32842712 35,7.5 L35,1.5 C35,0.671572875 35.6715729,-3.42636147e-16 36.5,-4.4408921e-16 L42.5,0 Z M42,1.5 L37,1.5 C36.7238576,1.5 36.5,1.72385763 36.5,2 L36.5,7 C36.5,7.27614237 36.7238576,7.5 37,7.5 L42,7.5 C42.2761424,7.5 42.5,7.27614237 42.5,7 L42.5,2 C42.5,1.72385763 42.2761424,1.5 42,1.5 Z M40.5,2.5 C41.0522847,2.5 41.5,2.94771525 41.5,3.5 L41.5,5.5 C41.5,6.05228475 41.0522847,6.5 40.5,6.5 L38.5,6.5 C37.9477153,6.5 37.5,6.05228475 37.5,5.5 L37.5,3.5 C37.5,2.94771525 37.9477153,2.5 38.5,2.5 L40.5,2.5 Z" id="Combined-Shape"></path>
            <path d="M7.5,30 C8.32842712,30 9,30.6715729 9,31.5 L9,37.5 C9,38.3284271 8.32842712,39 7.5,39 L1.5,39 C0.671572875,39 -3.93362679e-16,38.3284271 -4.4408921e-16,37.5 L0,31.5 C-1.01453063e-16,30.6715729 0.671572875,30 1.5,30 L7.5,30 Z M7,31.5 L2,31.5 C1.72385763,31.5 1.5,31.7238576 1.5,32 L1.5,37 C1.5,37.2761424 1.72385763,37.5 2,37.5 L7,37.5 C7.27614237,37.5 7.5,37.2761424 7.5,37 L7.5,32 C7.5,31.7238576 7.27614237,31.5 7,31.5 Z M5.5,32.5 C6.05228475,32.5 6.5,32.9477153 6.5,33.5 L6.5,35.5 C6.5,36.0522847 6.05228475,36.5 5.5,36.5 L3.5,36.5 C2.94771525,36.5 2.5,36.0522847 2.5,35.5 L2.5,33.5 C2.5,32.9477153 2.94771525,32.5 3.5,32.5 L5.5,32.5 Z" id="Combined-Shape"></path>
        </g>
    </g>
</svg>