<?xml version="1.0" encoding="UTF-8"?>
<svg width="16px" height="16px" viewBox="0 0 16 16" version="1.1" xmlns="http://www.w3.org/2000/svg" xmlns:xlink="http://www.w3.org/1999/xlink">
    <title>Question circled</title>
    <g id="Question-circled" stroke="none" stroke-width="1" fill="none" fill-rule="evenodd">
        <g id="question" fill="#FF8C14" fill-rule="nonzero">
            <path d="M8,0 C3.582,0 0,3.582 0,8 C0,12.418 3.582,16 8,16 C12.418,16 16,12.418 16,8 C16,3.582 12.418,0 8,0 Z M8,13 C7.448,13 7,12.552 7,12 C7,11.448 7.448,11 8,11 C8.552,11 9,11.448 9,12 C9,12.552 8.552,13 8,13 Z M9.37866667,8.33333333 C8.93733333,8.74066667 8.66666667,9.008 8.66666667,9.33333333 L7.33333333,9.33333333 C7.33333333,8.40733333 7.966,7.82333333 8.474,7.35333333 C9.00666667,6.86133333 9.33333333,6.53266667 9.33333333,6 C9.33333333,5.26466667 8.73533333,4.66666667 8,4.66666667 C7.26466667,4.66666667 6.66666667,5.26466667 6.66666667,6 L5.33333333,6 C5.33333333,4.52933333 6.52933333,3.33333333 8,3.33333333 C9.47066667,3.33333333 10.6666667,4.52933333 10.6666667,6 C10.6666667,7.14333333 9.95266667,7.80266667 9.37866667,8.33333333 Z" id="Shape"></path>
        </g>
    </g>
</svg>