<?xml version="1.0" encoding="UTF-8"?>
<svg width="16px" height="16px" viewBox="0 0 16 16" version="1.1" xmlns="http://www.w3.org/2000/svg" xmlns:xlink="http://www.w3.org/1999/xlink">
    <title>Question</title>
    <g id="Question" stroke="none" stroke-width="1" fill="none" fill-rule="evenodd">
        <g id="icons8-question_mark" transform="translate(3.4748, 0)" fill="#FFFFFF" fill-rule="nonzero">
            <path d="M4.96395722,0.00584542934 C2.52780317,-0.113004457 0.459835164,1.59419809 0.0139329728,3.87625581 C-0.0804674912,4.35786799 0.318046947,4.79971669 0.809249442,4.79971669 C1.19645126,4.79971669 1.51362786,4.51953464 1.59362826,4.14032497 C1.93922996,2.49548336 3.55282549,1.31096596 5.36083437,1.66057481 C6.89844193,1.95818233 8.00742258,3.41304409 7.92022215,4.97628364 C7.85142181,6.21551498 7.05344269,7.00125958 6.13583818,7.90448242 C5.29503405,8.73250337 4.36367907,9.64886415 4.04207749,10.9904981 C3.91887689,11.501711 4.29304192,11.9998988 4.81864451,11.9998988 C5.20024638,11.9998988 5.51025991,11.7257791 5.60146036,11.3545697 C5.82386145,10.4553469 6.49851516,9.79079254 7.2577189,9.04357444 C8.3169241,8.00114807 9.5169172,6.82008059 9.52495881,4.82002968 C9.53371728,2.6303743 8.14483526,0.732288845 6.02802485,0.171474659 C5.66862309,0.0762722508 5.31197973,0.0228240188 4.96395722,0.00584542934 Z M4.32489168,14.3999595 C4.1040906,14.3999595 3.92488972,14.5791641 3.92488972,14.7999696 L3.92488972,15.5999899 C3.92488972,15.8207955 4.1040906,16 4.32489168,16 L5.12489561,16 C5.3456967,16 5.52489758,15.8207955 5.52489758,15.5999899 L5.52489758,14.7999696 C5.52489758,14.5791641 5.3456967,14.3999595 5.12489561,14.3999595 L4.32489168,14.3999595 Z" id="Shape"></path>
        </g>
    </g>
</svg>