<?xml version="1.0" encoding="UTF-8"?>
<svg width="23px" height="23px" viewBox="0 0 23 23" version="1.1" xmlns="http://www.w3.org/2000/svg" xmlns:xlink="http://www.w3.org/1999/xlink">
    <title>Salt</title>
    <g id="Salt" stroke="none" stroke-width="1" fill="none" fill-rule="evenodd">
        <g id="icons8-salt_shaker" transform="translate(2.75, 0)" fill="#FFFFFF" fill-rule="nonzero">
            <path d="M14.0254,9.25865 L12.65,7.316875 L12.65,6.2721 C12.984075,6.153075 13.225,5.8374 13.225,5.4625 L13.225,3.7375 C13.225,1.6767 11.5483,0 9.4875,0 L7.7625,0 C5.7017,0 4.025,1.6767 4.025,3.7375 L4.025,5.4625 C4.025,5.8374 4.265925,6.153075 4.6,6.2721 L4.6,7.295025 L3.68805,8.469175 C1.30985,11.53105 0,15.351925 0,19.228 L0,19.8375 C0,21.5809 1.4191,23 3.1625,23 L14.0875,23 C15.8309,23 17.25,21.5809 17.25,19.8375 L17.25,19.3936 C17.25,15.74235 16.135075,12.237725 14.0254,9.25865 Z M10.0625,1.15 C10.5386,1.15 10.925,1.5364 10.925,2.0125 C10.925,2.4886 10.5386,2.875 10.0625,2.875 C9.5864,2.875 9.2,2.4886 9.2,2.0125 C9.2,1.5364 9.5864,1.15 10.0625,1.15 Z M7.1875,1.15 C7.6636,1.15 8.05,1.5364 8.05,2.0125 C8.05,2.4886 7.6636,2.875 7.1875,2.875 C6.7114,2.875 6.325,2.4886 6.325,2.0125 C6.325,1.5364 6.7114,1.15 7.1875,1.15 Z M9.092475,19.55 L8.072425,19.55 C7.207625,19.55 6.45495,19.099775 6.158825,18.654725 C5.9386,18.324675 6.027725,17.8779 6.35835,17.65825 C6.68495,17.440325 7.12655,17.526 7.349075,17.848575 C7.41405,17.922175 7.6958,18.1125 8.073,18.1125 L9.09305,18.1125 C9.469675,18.1125 9.77615,17.822125 9.77615,17.465625 C9.77615,17.109125 9.47025,16.81875 9.09305,16.81875 L8.302425,16.81875 C7.13345,16.81875 6.181825,15.8838 6.181825,14.734375 C6.181825,13.58495 7.1323,12.65 8.30185,12.65 L9.056825,12.65 C10.212575,12.65 10.757675,13.469375 10.816325,13.562525 C11.026775,13.8989 10.924425,14.3428 10.58805,14.55325 C10.25225,14.76485 9.80835,14.661925 9.5979,14.324975 C9.589275,14.314625 9.417925,14.0875 9.0574,14.0875 L8.302425,14.0875 C7.9258,14.0875 7.619325,14.377875 7.619325,14.734375 C7.619325,15.090875 7.925225,15.38125 8.302425,15.38125 L9.09305,15.38125 C10.262025,15.38125 11.21365,16.3162 11.21365,17.465625 C11.21365,18.61505 10.26145,19.55 9.092475,19.55 Z M5.30495,9.2 L6.143875,8.12015 C6.261175,7.968925 6.325,7.782625 6.325,7.59115 L6.325,6.325 L10.925,6.325 L10.925,7.59115 C10.925,7.769975 10.980775,7.943625 11.083125,8.089675 L11.86915,9.2 L5.30495,9.2 Z" id="Shape"></path>
        </g>
    </g>
</svg>