<?xml version="1.0" encoding="UTF-8"?>
<svg width="23px" height="23px" viewBox="0 0 23 23" version="1.1" xmlns="http://www.w3.org/2000/svg" xmlns:xlink="http://www.w3.org/1999/xlink">
    <title>Soda happy</title>
    <g id="Soda-happy" stroke="none" stroke-width="1" fill="none" fill-rule="evenodd">
        <g id="icons8-kawaii_soda" transform="translate(3, -0)" fill="#FFFFFF" fill-rule="nonzero">
            <path d="M9.15625,0 L8.142578,4.0273438 L2.9960938,4.0273438 C1.3560938,4.0273438 0.023,5.349375 0,6.984375 L16.90625,6.984375 C16.88325,5.349375 15.550156,4.0273437 13.910156,4.0273438 L10.205078,4.0273438 L10.716797,2 L14.46875,2 L14.46875,0 L9.15625,0 Z M1.2285156,8.984375 L4.0878906,22.974609 L12.820313,22.974609 L15.634766,8.984375 L1.2285156,8.984375 Z M5.453125,12.984375 C6.005125,12.984375 6.453125,13.432375 6.453125,13.984375 C6.453125,14.536375 6.005125,14.984375 5.453125,14.984375 C4.901125,14.984375 4.453125,14.536375 4.453125,13.984375 C4.453125,13.432375 4.901125,12.984375 5.453125,12.984375 Z M11.453125,12.984375 C12.005125,12.984375 12.453125,13.432375 12.453125,13.984375 C12.453125,14.536375 12.005125,14.984375 11.453125,14.984375 C10.901125,14.984375 10.453125,14.536375 10.453125,13.984375 C10.453125,13.432375 10.901125,12.984375 11.453125,12.984375 Z M6.453125,16.984375 L10.453125,16.984375 C10.453125,18.089375 9.558125,18.984375 8.453125,18.984375 C7.348125,18.984375 6.453125,18.089375 6.453125,16.984375 Z" id="Shape"></path>
        </g>
    </g>
</svg>