<?xml version="1.0" encoding="UTF-8"?>
<svg width="23px" height="23px" viewBox="0 0 23 23" version="1.1" xmlns="http://www.w3.org/2000/svg" xmlns:xlink="http://www.w3.org/1999/xlink">
    <title>Soda unhappy</title>
    <g id="Soda-unhappy" stroke="none" stroke-width="1" fill="none" fill-rule="evenodd">
        <path d="M12.15625,-7.10542736e-15 L11.142578,4.0273438 L5.9960938,4.0273438 C4.3560938,4.0273438 3.023,5.349375 3,6.984375 L19.90625,6.984375 C19.88325,5.349375 18.550156,4.0273437 16.910156,4.0273438 L13.205078,4.0273438 L13.716797,2 L17.46875,2 L17.46875,-7.10542736e-15 L12.15625,-7.10542736e-15 Z M4.2285156,8.984375 L7.0878906,22.974609 L15.820313,22.974609 L18.634766,8.984375 L4.2285156,8.984375 Z M8.453125,12.984375 C9.005125,12.984375 9.453125,13.432375 9.453125,13.984375 C9.453125,14.536375 9.005125,14.984375 8.453125,14.984375 C7.901125,14.984375 7.453125,14.536375 7.453125,13.984375 C7.453125,13.432375 7.901125,12.984375 8.453125,12.984375 Z M14.453125,12.984375 C15.005125,12.984375 15.453125,13.432375 15.453125,13.984375 C15.453125,14.536375 15.005125,14.984375 14.453125,14.984375 C13.901125,14.984375 13.453125,14.536375 13.453125,13.984375 C13.453125,13.432375 13.901125,12.984375 14.453125,12.984375 Z M13.453125,18.984375 L9.453125,18.984375 C9.453125,17.879375 10.348125,16.984375 11.453125,16.984375 C12.558125,16.984375 13.453125,17.879375 13.453125,18.984375 Z" id="Shape" fill="#FFFFFF" fill-rule="nonzero"></path>
    </g>
</svg>