<?xml version="1.0" encoding="UTF-8"?>
<svg width="21px" height="21px" viewBox="0 0 21 21" version="1.1" xmlns="http://www.w3.org/2000/svg" xmlns:xlink="http://www.w3.org/1999/xlink">
    <title>Sound on</title>
    <g id="Sound-on" stroke="none" stroke-width="1" fill="none" fill-rule="evenodd">
        <path d="M9.54848022,2 L3.81939209,7.729 L1.90969604,7.729 C0.85458898,7.729 2.25597319e-13,8.58357583 2.25597319e-13,9.63866667 L2.25597319e-13,11.5483333 C2.25597319e-13,12.6034242 0.85458898,13.458 1.90969604,13.458 L3.81939209,13.458 L9.54848022,19.187 L9.54848022,2 Z M17.6497689,2.49233594 L16.2995536,3.84252995 C20.036698,7.57961556 20.036571,13.6083815 16.2995536,17.3444696 L17.6497689,18.6946641 C22.1168077,14.2287338 22.1166797,6.95917832 17.6497689,2.49233594 Z M14.9493393,5.19272396 L13.599125,6.54291797 C15.8448417,8.78860051 15.8446411,12.3994202 13.599125,14.6440825 L14.9493393,15.994276 C17.9249313,13.0198184 17.9247308,8.16806999 14.9493393,5.19272396 Z M12.2489098,7.89311198 L10.8986945,9.24330647 C11.6531104,9.99770978 11.6531104,11.1892912 10.8986945,11.9436935 L12.2489098,13.2957528 C13.7326577,11.8120277 13.7326577,9.37683704 12.2489098,7.89311198 Z" id="Shape" fill="#000000" fill-rule="nonzero"></path>
    </g>
</svg>