<?xml version="1.0" encoding="UTF-8"?>
<svg width="19px" height="19px" viewBox="0 0 19 19" version="1.1" xmlns="http://www.w3.org/2000/svg" xmlns:xlink="http://www.w3.org/1999/xlink">
    <title>Sparkles</title>
    <g id="Sparkles" stroke="none" stroke-width="1" fill="none" fill-rule="evenodd">
        <path d="M18.734,10.07 L14.478,8.702 L13.11,4.446 C13.072,4.294 12.92,4.18 12.73,4.18 C12.54,4.18 12.426,4.294 12.35,4.446 L10.982,8.702 L6.726,10.07 C6.574,10.108 6.46,10.26 6.46,10.45 C6.46,10.64 6.574,10.754 6.726,10.83 L10.982,12.198 L12.35,16.454 C12.388,16.606 12.54,16.72 12.73,16.72 C12.92,16.72 13.034,16.606 13.11,16.454 L14.478,12.198 L18.734,10.83 C18.886,10.792 19,10.64 19,10.45 C19,10.26 18.886,10.146 18.734,10.07 Z M0.646,5.282 L3.61,6.27 L4.598,9.234 C4.636,9.386 4.788,9.5 4.94,9.5 C5.092,9.5 5.244,9.386 5.282,9.234 L6.27,6.27 L9.234,5.282 C9.386,5.244 9.5,5.092 9.5,4.94 C9.5,4.788 9.386,4.636 9.234,4.598 L6.27,3.61 L5.282,0.646 C5.244,0.494 5.092,0.38 4.94,0.38 C4.788,0.38 4.636,0.494 4.598,0.646 L3.61,3.61 L0.646,4.598 C0.494,4.636 0.38,4.788 0.38,4.94 C0.38,5.092 0.494,5.244 0.646,5.282 Z M6.574,14.82 L4.484,14.136 L3.8,12.046 C3.724,11.894 3.572,11.78 3.42,11.78 C3.268,11.78 3.116,11.894 3.078,12.046 L2.394,14.136 L0.266,14.82 C0.114,14.896 0,15.048 0,15.2 C0,15.352 0.114,15.504 0.266,15.542 L2.356,16.226 L3.04,18.316 C3.116,18.506 3.268,18.62 3.42,18.62 C3.572,18.62 3.724,18.506 3.762,18.354 L4.446,16.264 L6.536,15.58 C6.688,15.542 6.802,15.39 6.802,15.238 C6.802,15.086 6.726,14.896 6.574,14.82 Z" id="Shape" fill="#000000" fill-rule="nonzero"></path>
    </g>
</svg>