<?xml version="1.0" encoding="UTF-8"?>
<svg width="24px" height="24px" viewBox="0 0 24 24" version="1.1" xmlns="http://www.w3.org/2000/svg" xmlns:xlink="http://www.w3.org/1999/xlink">
    <title>Toggle camera</title>
    <g id="Toggle-camera" stroke="none" stroke-width="1" fill="none" fill-rule="evenodd">
        <g id="toggle_camera" transform="translate(0, 0.5)" fill="#FFFFFF" fill-rule="nonzero">
            <path d="M1.8,23 C1.32,23 0.9,22.8083333 0.54,22.425 C0.18,22.0416667 0,21.5944444 0,21.0833333 L0,4.6958333 C0,4.2060185 0.18,3.7641204 0.54,3.3701389 C0.9,2.9761574 1.32,2.7791667 1.8,2.7791667 L6.21,2.7791667 L8.4,0 L15.6,0 L17.79,2.7791667 L22.2,2.7791667 C22.66,2.7791667 23.075,2.9761574 23.445,3.3701389 C23.815,3.7641204 24,4.2060185 24,4.6958333 L24,21.0833333 C24,21.5944444 23.815,22.0416667 23.445,22.425 C23.075,22.8083333 22.66,23 22.2,23 L1.8,23 Z M12,19.3902778 C13.7,19.3902778 15.12,18.7034722 16.26,17.3298611 C17.4,15.95625 18.02,14.3324074 18.12,12.4583333 L19.38,13.9277778 L20.25,12.7777778 L17.34,9.9027778 L14.64,12.7777778 L15.51,13.9277778 L16.62,12.7458333 C16.48,14.1300926 15.99,15.3173611 15.15,16.3076389 C14.31,17.2979167 13.26,17.7930556 12,17.7930556 L11.205,17.7930556 C10.955,17.7930556 10.7,17.7398148 10.44,17.6333333 L9.3,18.6236111 C9.74,18.8365741 10.185,19.0175926 10.635,19.1666667 C11.085,19.3157407 11.54,19.3902778 12,19.3902778 Z M6.66,15.8763889 L9.36,13.0013889 L8.49,11.8513889 L7.38,13.0333333 C7.52,11.6490741 8.01,10.4618056 8.85,9.4715278 C9.69,8.48125 10.74,7.9861111 12,7.9861111 L12.795,7.9861111 C13.045,7.9861111 13.3,8.0393519 13.56,8.1458333 L14.7,7.1555556 C14.26,6.9425926 13.815,6.7615741 13.365,6.6125 C12.915,6.4634259 12.46,6.3888889 12,6.3888889 C10.3,6.3888889 8.88,7.0756944 7.74,8.4493056 C6.6,9.8229167 5.98,11.4467593 5.88,13.3208333 L4.62,11.8513889 L3.75,13.0013889 L6.66,15.8763889 Z" id="Shape"></path>
        </g>
    </g>
</svg>