<?xml version="1.0" encoding="UTF-8"?>
<svg width="21px" height="21px" viewBox="0 0 21 21" version="1.1" xmlns="http://www.w3.org/2000/svg" xmlns:xlink="http://www.w3.org/1999/xlink">
    <title>Torch</title>
    <g id="Torch" stroke="none" stroke-width="1" fill="none" fill-rule="evenodd">
        <path d="M7.61541667,5 C7.27570667,5 7,5.27569231 7,5.61538462 L7,6.23076923 L14.385,6.23076923 L14.385,5.61538462 C14.385,5.27569231 14.1092933,5 13.7695833,5 L7.61541667,5 Z M7,6.84615385 L7,8.13341348 C7,8.49772117 7.10764019,8.85406732 7.31011227,9.15745194 L7.81735026,9.91826923 C8.08690276,10.3219612 8.23083333,10.7974997 8.23083333,11.2836542 L8.23083333,19.7692308 C8.23083333,20.4492308 8.78163125,21 9.46166667,21 L11.9233333,21 C12.6033687,21 13.1541667,20.4492308 13.1541667,19.7692308 L13.1541667,11.2836542 C13.1541667,10.7974997 13.2980972,10.3225766 13.5676497,9.91826923 L14.0748878,9.15745194 C14.2773599,8.85468271 14.385,8.49772117 14.385,8.13341348 L14.385,6.84615385 L7,6.84615385 Z M10.6925,11.1538462 C11.3725354,11.1538462 11.9233333,11.7046154 11.9233333,12.3846154 L11.9233333,13.6153846 C11.9233333,14.2953846 11.3725354,14.8461538 10.6925,14.8461538 C10.0124646,14.8461538 9.46166667,14.2953846 9.46166667,13.6153846 L9.46166667,12.3846154 C9.46166667,11.7046154 10.0124646,11.1538462 10.6925,11.1538462 Z M10.6925,13 C10.3526148,13 10.0770833,13.2755171 10.0770833,13.6153846 C10.0770833,13.9552522 10.3526148,14.2307692 10.6925,14.2307692 C11.0323852,14.2307692 11.3079167,13.9552522 11.3079167,13.6153846 C11.3079167,13.2755171 11.0323852,13 10.6925,13 Z" id="Shape" fill="#000000" fill-rule="nonzero"></path>
    </g>
</svg>