<?xml version="1.0" encoding="UTF-8"?>
<svg width="21px" height="21px" viewBox="0 0 21 21" version="1.1" xmlns="http://www.w3.org/2000/svg" xmlns:xlink="http://www.w3.org/1999/xlink">
    <title>Torch on</title>
    <g id="Torch-on" stroke="none" stroke-width="1" fill="none" fill-rule="evenodd">
        <path d="M7.61541667,5 C7.27570667,5 7,5.27569231 7,5.61538462 L7,6.23076923 L14.385,6.23076923 L14.385,5.61538462 C14.385,5.27569231 14.1092933,5 13.7695833,5 L7.61541667,5 Z M7,6.84615385 L7,8.13341348 C7,8.49772117 7.10764019,8.85406732 7.31011227,9.15745194 L7.81735026,9.91826923 C8.08690276,10.3219612 8.23083333,10.7974997 8.23083333,11.2836542 L8.23083333,19.7692308 C8.23083333,20.4492308 8.78163125,21 9.46166667,21 L11.9233333,21 C12.6033687,21 13.1541667,20.4492308 13.1541667,19.7692308 L13.1541667,11.2836542 C13.1541667,10.7974997 13.2980972,10.3225766 13.5676497,9.91826923 L14.0748878,9.15745194 C14.2773599,8.85468271 14.385,8.49772117 14.385,8.13341348 L14.385,6.84615385 L7,6.84615385 Z M10.6925,11.1538462 C11.3725354,11.1538462 11.9233333,11.7046154 11.9233333,12.3846154 L11.9233333,13.6153846 C11.9233333,14.2953846 11.3725354,14.8461538 10.6925,14.8461538 C10.0124646,14.8461538 9.46166667,14.2953846 9.46166667,13.6153846 L9.46166667,12.3846154 C9.46166667,11.7046154 10.0124646,11.1538462 10.6925,11.1538462 Z M10.6925,11.77 C10.3526148,11.77 10.0770833,12.0455171 10.0770833,12.3853846 C10.0770833,12.7252522 10.3526148,13.0007692 10.6925,13.0007692 C11.0323852,13.0007692 11.3079167,12.7252522 11.3079167,12.3853846 C11.3079167,12.0455171 11.0323852,11.77 10.6925,11.77 Z M10.6515,0 C10.3426912,0 10.1065432,0.236155962 10.1065432,0.544975339 L10.1065432,1.99824295 C10.1065432,2.3070623 10.3426912,2.54321828 10.6515,2.54321828 C10.9603088,2.54321828 11.1964568,2.3070623 11.1964568,1.99824295 L11.1964568,0.544975339 C11.1964568,0.236155962 10.9603088,0 10.6515,0 Z M5.54820674,1.74207602 C5.44166351,1.74303408 5.33348814,1.77372437 5.2381207,1.83503409 C4.98380753,1.9985267 4.92952475,2.34353587 5.09301178,2.59785769 L5.69225136,3.48805511 C5.80124271,3.65154771 5.96472975,3.72399819 6.14638201,3.72399819 C6.25537337,3.72399819 6.36457762,3.6876665 6.45540376,3.63316896 C6.70971692,3.46967636 6.76399971,3.12466719 6.60051267,2.87034536 L6.0012731,1.98014795 C5.8990937,1.82119681 5.72577891,1.74047942 5.54820674,1.74207602 Z M15.7594056,1.74207602 C15.5855586,1.74047942 15.4152596,1.82119681 15.3017269,1.98014795 L14.7024873,2.87034536 C14.5390003,3.12466719 14.6114483,3.46967636 14.8475962,3.63316896 C14.9384224,3.6876665 15.0476266,3.72399819 15.156618,3.72399819 C15.3382703,3.72399819 15.5017573,3.63338187 15.6107486,3.48805511 L16.2099882,2.59785769 C16.3734753,2.34353587 16.3191925,2.01669254 16.0648793,1.83503409 C15.9695119,1.77372437 15.8637136,1.74303408 15.7594056,1.74207602 Z" id="Shape" fill="#000000" fill-rule="nonzero"></path>
    </g>
</svg>