<?xml version="1.0" encoding="UTF-8"?>
<svg width="28px" height="28px" viewBox="0 0 28 28" version="1.1" xmlns="http://www.w3.org/2000/svg" xmlns:xlink="http://www.w3.org/1999/xlink">
    <title>Warning</title>
    <g id="Warning" stroke="none" stroke-width="1" fill="none" fill-rule="evenodd">
        <g id="warning" transform="translate(0, 2)" fill="#FFFFFF" fill-rule="nonzero">
            <path d="M27.678819,20.6423273 L15.9261458,1.09016498 C15.5159979,0.407475881 14.7959012,0 13.9996533,0 C13.2034053,0 12.4833086,0.407475881 12.0744967,1.08882899 L0.320487551,20.6423273 C-0.0963402362,21.3357043 -0.107028128,22.2027596 0.291095848,22.9068244 C0.687883837,23.6108893 1.43737226,24.0477569 2.24698008,24.0477569 L25.7536625,24.0477569 C26.5619343,24.0477569 27.3127587,23.6108893 27.7095467,22.9068244 C28.1076707,22.2027596 28.0956468,21.3357043 27.678819,20.6423273 Z M15.3356398,20.0397974 L12.6636668,20.0397974 L12.6636668,17.3678244 L15.3356398,17.3678244 L15.3356398,20.0397974 Z M15.3356398,14.6958514 L12.6636668,14.6958514 L12.6636668,8.01591897 L15.3356398,8.01591897 L15.3356398,14.6958514 Z" id="Shape"></path>
        </g>
    </g>
</svg>