<?xml version="1.0" encoding="iso-8859-1"?>
<!-- Generator: Adobe Illustrator 19.0.0, SVG Export Plug-In . SVG Version: 6.00 Build 0)  -->
<svg version="1.1" id="Layer_1" xmlns="http://www.w3.org/2000/svg" xmlns:xlink="http://www.w3.org/1999/xlink" x="0px" y="0px"
	 viewBox="0 0 24 24" style="enable-background:new 0 0 24 24;" xml:space="preserve">
<g>
	<g>
		<path d="M23.5,21.5h-23C0.224,21.5,0,21.276,0,21V3c0-0.276,0.224-0.5,0.5-0.5h23C23.776,2.5,24,2.723,24,3v18
			C24,21.276,23.776,21.5,23.5,21.5z M1,20.5h22v-17H1V20.5z"/>
	</g>
	<g>
		<path d="M23.5,21.5c-0.169,0-0.333-0.085-0.428-0.241l-8.06-13.274l-3.578,6.263c-0.078,0.135-0.214,0.227-0.368,0.248
			c-0.153,0.021-0.309-0.032-0.42-0.142l-2.593-2.592L0.9,21.3c-0.166,0.222-0.479,0.266-0.7,0.1
			c-0.221-0.166-0.266-0.479-0.101-0.7l7.5-10c0.087-0.116,0.221-0.188,0.365-0.199c0.146-0.009,0.286,0.042,0.389,0.145
			l2.537,2.537l3.675-6.432c0.088-0.154,0.251-0.25,0.428-0.252c0.154,0.028,0.343,0.089,0.435,0.241l8.5,14
			c0.143,0.236,0.067,0.543-0.168,0.687C23.679,21.476,23.589,21.5,23.5,21.5z"/>
	</g>
	<g>
		<path d="M8.5,9.5C7.121,9.5,6,8.378,6,7s1.121-2.5,2.5-2.5S11,5.621,11,7S9.879,9.5,8.5,9.5z M8.5,5.5C7.673,5.5,7,6.173,7,7
			s0.673,1.5,1.5,1.5S10,7.827,10,7S9.327,5.5,8.5,5.5z"/>
	</g>
</g>
<g>
</g>
<g>
</g>
<g>
</g>
<g>
</g>
<g>
</g>
<g>
</g>
<g>
</g>
<g>
</g>
<g>
</g>
<g>
</g>
<g>
</g>
<g>
</g>
<g>
</g>
<g>
</g>
<g>
</g>
</svg>
