<svg width="171" height="120" fill="none" xmlns="http://www.w3.org/2000/svg"><g clip-path="url(#a)"><path d="M144.647 72.09c-1.116-12.756-6.052-24.258-13.566-33.469l1.943-32.528c.234-3.87-3.894-6.456-7.246-4.542l-28.29 16.142a60.43 60.43 0 0 0-18.851-1.303 60.791 60.791 0 0 0-18.464 4.613l.047-.044L29.546 9.97c-3.633-1.302-7.243 1.966-6.347 5.732l7.587 31.801c-5.751 10.354-8.59 22.492-7.479 35.203l121.34-10.616Z" fill="#AAA"/><path d="m124.379 31.632 1.252-20.98a.445.445 0 0 0-.66-.416L106.755 20.63a60.961 60.961 0 0 1 17.618 11.003l.006-.001Z" fill="#FFE6DC"/><path d="M69.488 33.279a1.728 1.728 0 0 1-1.867-1.576l-1.09-12.454a1.728 1.728 0 0 1 1.566-1.875 1.728 1.728 0 0 1 1.867 1.575l1.089 12.448a1.728 1.728 0 0 1-1.565 1.876v.006ZM90.54 31.437a1.728 1.728 0 0 1-1.866-1.576l-1.09-12.453a1.728 1.728 0 0 1 1.565-1.876 1.728 1.728 0 0 1 1.867 1.575l1.089 12.449a1.728 1.728 0 0 1-1.565 1.875v.006ZM80.565 38.621a1.728 1.728 0 0 1-1.867-1.575l-1.717-19.63a1.728 1.728 0 0 1 1.564-1.876 1.728 1.728 0 0 1 1.867 1.575l1.718 19.63a1.728 1.728 0 0 1-1.565 1.876Z" fill="#000"/><path d="m51.645 25.475-19.791-7.092a.443.443 0 0 0-.577.524l4.9 20.527a61.082 61.082 0 0 1 15.473-13.96h-.005Z" fill="#FFE6DC"/><path d="M72.983 78.36c-.535-6.118 3.961-11.507 10.045-12.04 6.083-.531 11.447 3.995 11.982 10.113L72.99 78.36h-.006Z" fill="#000"/><path d="M92.664 60.589c4.774 7.209 14.477 9.171 21.642 4.384 7.165-4.793 9.107-14.548 4.339-21.758-4.773-7.209-14.477-9.171-21.642-4.384-7.165 4.793-9.107 14.549-4.339 21.758Z" fill="#fff"/><path d="M96.543 59.047c2.238 3.384 6.793 4.306 10.155 2.059 3.363-2.248 4.276-6.827 2.037-10.21-2.238-3.383-6.793-4.306-10.155-2.058-3.362 2.247-4.275 6.826-2.037 10.21Z" fill="#000"/><path d="M104.417 52.346a2.829 2.829 0 0 0 3.937.796 2.868 2.868 0 0 0 .788-3.958 2.83 2.83 0 0 0-3.938-.796 2.869 2.869 0 0 0-.787 3.958ZM72.459 62.357c-3.45 7.928-12.665 11.546-20.552 8.075-7.888-3.476-11.495-12.746-8.051-20.674 3.449-7.928 12.664-11.546 20.552-8.075 7.888 3.476 11.494 12.746 8.05 20.674Z" fill="#fff"/><path d="M68.371 61.512c-1.617 3.72-5.942 5.42-9.644 3.79-3.701-1.629-5.395-5.98-3.779-9.7 1.617-3.72 5.943-5.42 9.644-3.79 3.702 1.629 5.396 5.98 3.78 9.7Z" fill="#000"/><path d="M68.423 55.439a2.83 2.83 0 0 1-3.739 1.467 2.868 2.868 0 0 1-1.463-3.761 2.83 2.83 0 0 1 3.74-1.468 2.868 2.868 0 0 1 1.462 3.762Z" fill="#fff"/><path d="M59.865 75.545c-10.685.935-20.147-7.05-21.087-17.795-.94-10.745 6.991-20.251 17.676-21.186 10.685-.935 20.147 7.05 21.087 17.795.94 10.745-6.991 20.251-17.676 21.186ZM56.895 41.6c-7.922.693-13.806 7.739-13.108 15.71.697 7.973 7.71 13.89 15.637 13.197 7.928-.693 13.806-7.739 13.108-15.711-.697-7.972-7.71-13.89-15.637-13.196ZM107.357 71.39c-10.685.935-20.146-7.05-21.086-17.795-.94-10.745 6.99-20.251 17.676-21.186 10.685-.935 20.146 7.05 21.086 17.795.94 10.745-6.991 20.251-17.676 21.186Zm-2.97-33.944c-7.922.693-13.806 7.739-13.108 15.71.697 7.973 7.71 13.89 15.637 13.197 7.928-.693 13.806-7.739 13.109-15.711-.698-7.972-7.71-13.89-15.638-13.196Z" fill="#000"/><path d="M86.723 55.238a6.61 6.61 0 0 0-9.337.817l-3.71-3.13a11.36 11.36 0 0 1 7.784-4.074 11.36 11.36 0 0 1 8.373 2.66l-3.11 3.727Z" fill="#000"/></g><rect y="84.098" width="167.601" height="36" rx="5" transform="rotate(-5 0 84.098)" fill="#000"/><path d="m12.052 110.147.762-3.907-2.988.262-.283-3.238 3.91-.342.902-4.596-2.988.261-.283-3.237 3.91-.342.764-3.882 3.736-.327-.765 3.882 3.736-.327.74-3.88 3.736-.326-.74 3.88 2.988-.262.284 3.237-3.935.345-.878 4.594 2.988-.262.284 3.238-3.935.344-.738 3.904-3.736.327.738-3.904-3.71.325-.763 3.906-3.736.327Zm5.136-7.552 3.736-.327.878-4.594-3.71.325-.904 4.596Zm19.145-.345-.05-.572c-.065-.731-.02-1.379.13-1.944a5.894 5.894 0 0 1 .692-1.566c.294-.461.6-.881.918-1.26l1.182-1.409c.347-.431.498-.905.453-1.42a1.709 1.709 0 0 0-.33-.9 1.603 1.603 0 0 0-.803-.581c-.33-.139-.736-.187-1.218-.145a2.485 2.485 0 0 0-1.568.715c-.417.404-.647.926-.691 1.566l-3.539-.569c.069-.943.338-1.786.808-2.53a5.722 5.722 0 0 1 1.948-1.827c.829-.474 1.774-.757 2.837-.85 1.295-.114 2.405.049 3.33.487.94.42 1.67 1.008 2.187 1.766a4.94 4.94 0 0 1 .89 2.431c.056.631-.02 1.207-.225 1.726-.19.502-.45.977-.779 1.424-.33.43-.678.854-1.043 1.27a11.721 11.721 0 0 0-1.237 1.64c-.352.566-.497 1.206-.434 1.92l.028.323-3.486.305Zm.401 5.737-.327-3.735 3.736-.327.327 3.735-3.736.327Zm22.762-2.092-12.254-3.821-.323-3.686 11.403-5.916.33 3.76-8.402 4.374-.113-1.295 9.03 2.824.33 3.76Zm2.605 2.884 6.421-21.265 4.035-.353-6.421 21.265-4.035.353Zm14.33-4.365-.33-3.761 8.404-4.349.113 1.295-9.032-2.848-.33-3.76 12.257 3.846.323 3.685-11.405 5.892Zm17.527-10.417-2.331-1.403 1.514-2.49-2.848-.705.623-2.64 2.82.682-.273-3.113 2.74-.24.272 3.113 2.66-1.16 1.07 2.49-2.681 1.189 1.923 2.19-2.052 1.786-1.923-2.19-1.514 2.49Zm9.225 11.188 6.421-21.265 4.034-.353-6.421 21.265-4.034.353Zm12.258-1.072 6.421-21.266 4.035-.353-6.421 21.266-4.035.353Zm11.798-4.044 4.16-7.24-5.374-6.356 4.333-.379 4.049 4.966-1.893.166 3.124-5.594 4.334-.379-4.189 7.192 5.329 6.41-4.309.377-3.974-4.972 1.794-.157-3.05 5.587-4.334.379Zm16.837-1.473.762-3.906-2.988.261-.283-3.237 3.91-.343.902-4.596-2.988.262-.283-3.238 3.91-.342.764-3.881 3.736-.327-.765 3.881 3.736-.327.74-3.879 3.736-.327-.74 3.88 2.988-.262.284 3.238-3.935.344-.878 4.594 2.988-.261.284 3.237-3.935.344-.738 3.905-3.736.326.738-3.904-3.711.325-.762 3.906-3.736.327Zm5.136-7.551 3.736-.327.878-4.594-3.711.325-.903 4.596Z" fill="#fff"/><defs><clipPath id="a"><path fill="#fff" transform="rotate(-5 130.073 -189.374)" d="M0 0h121.803v72.365H0z"/></clipPath></defs></svg>