<?xml version="1.0" encoding="iso-8859-1"?>
<!-- Generator: Adobe Illustrator 19.0.0, SVG Export Plug-In . SVG Version: 6.00 Build 0)  -->
<svg version="1.1" id="Layer_1" xmlns="http://www.w3.org/2000/svg" xmlns:xlink="http://www.w3.org/1999/xlink" x="0px" y="0px"
	 viewBox="0 0 56 56" style="enable-background:new 0 0 56 56;" xml:space="preserve">
<g>
	<circle style="fill:#66CEDB;" cx="4" cy="50.854" r="2"/>
	<circle style="fill:#66CEDB;" cx="16" cy="43.854" r="2"/>
	<circle style="fill:#66CEDB;" cx="28" cy="49.854" r="2"/>
	<circle style="fill:#66CEDB;" cx="40" cy="41.854" r="2"/>
	<circle style="fill:#66CEDB;" cx="52" cy="46.854" r="2"/>
	<path style="fill:#FFFFFF;" d="M46.925,10.878c-0.059-0.083-0.11-0.243-0.163-0.33c-0.105-0.168-0.199-0.378-0.284-0.559
		c-0.045-0.098-0.089-0.213-0.128-0.314c-0.075-0.193-0.134-0.401-0.185-0.604c-0.023-0.094-0.053-0.189-0.071-0.285
		C46.037,8.484,46,8.171,46,7.854v-2c0-1.654-1.346-3-3-3s-3,1.346-3,3v5.292h7.002C46.973,10.146,46.953,10.917,46.925,10.878z"/>
	<path style="fill:#FFFFFF;" d="M51,10.854c1.654,0,3-1.346,3-3V7.146h-6v0.708C48,9.508,49.346,10.854,51,10.854z"/>
	<path style="fill:#FFFFFF;" d="M38,11.854v-6c0-0.318,0.037-0.626,0.094-0.927c0.018-0.096,0.047-0.187,0.071-0.281
		c0.051-0.204,0.11-0.402,0.185-0.595c0.039-0.101,0.082-0.198,0.128-0.296c0.084-0.181,0.179-0.354,0.284-0.522
		c0.054-0.087,0.105-0.027,0.163-0.11c0.028-0.04,0.048,0.023,0.077,0.023H19c-1.654,0-3,1.053-3,2.708v11.292h22V11.854z
		 M23,15.146h-4v-2h4V15.146z M23,11.146h-4v-2h4V11.146z M23,7.146h-4v-2h4V7.146z M29,15.146h-4v-2h4V15.146z M29,11.146h-4v-2h4
		V11.146z M29,7.146h-4v-2h4V7.146z M35,15.146h-4v-2h4V15.146z M35,11.146h-4v-2h4V11.146z M35,7.146h-4v-2h4V7.146z"/>
	<path style="fill:#EE8B26;" d="M15,19.146h-2v2.11l12.474,6.717C25.798,28.147,26,28.485,26,28.854v6.586l2-2v-4.586
		c0-0.368,0.202-0.706,0.526-0.881L41,21.256v-2.11h-2H15z"/>
	<g>
		<path d="M55,5.146h-7.101c-0.465-3-2.485-4-4.899-4H19c-2.757,0-5,1.951-5,4.708v11.292h-2c-0.552,0-1,0.155-1,0.708v4
			c0,0.368,0.202,0.706,0.526,0.881L24,29.451v8.402c0,0.404,0.244,0.77,0.617,0.924c0.124,0.052,0.254,0.076,0.383,0.076
			c0.26,0,0.516-0.102,0.707-0.293l4-4C29.894,34.373,30,34.119,30,33.854v-4.402l12.474-6.717C42.798,22.56,43,22.222,43,21.854v-4
			c0-0.553-0.448-0.708-1-0.708h-2v-4h11c2.757,0,5-2.536,5-5.292v-2C56,5.301,55.552,5.146,55,5.146z M41,21.256l-12.474,6.717
			C28.202,28.147,28,28.485,28,28.854v4.586l-2,2v-6.586c0-0.368-0.202-0.706-0.526-0.881L13,21.256v-2.11h2h24h2V21.256z
			 M16,17.146V5.854c0-1.655,1.346-2.708,3-2.708h20.002c-0.029,0-0.05-0.063-0.078-0.024c-0.059,0.083-0.11,0.097-0.163,0.184
			c-0.105,0.168-0.199,0.305-0.284,0.486c-0.045,0.098-0.089,0.177-0.128,0.277c-0.075,0.193-0.134,0.383-0.185,0.586
			c-0.023,0.094-0.053,0.18-0.071,0.276C38.037,5.232,38,5.536,38,5.854v6v5.292H16z M40,11.146V5.854c0-1.654,1.346-3,3-3
			s3,1.346,3,3v2c0,0.318,0.037,0.626,0.094,0.927c0.018,0.096,0.047,0.187,0.071,0.281c0.051,0.204,0.11,0.402,0.185,0.595
			c0.039,0.101,0.082,0.198,0.128,0.296c0.084,0.181,0.179,0.354,0.284,0.522c0.054,0.087,0.105,0.32,0.163,0.403
			c0.028,0.039,0.048-0.732,0.077,0.268L40,11.146L40,11.146z M54,7.854c0,1.654-1.346,3-3,3s-3-1.346-3-3V7.146h6V7.854z"/>
		<path d="M52,42.854c-1.365,0-2.57,0.689-3.292,1.736l-4.745-2.372C43.974,42.095,44,41.978,44,41.854c0-2.206-1.794-4-4-4
			s-4,1.794-4,4c0,0.468,0.096,0.91,0.244,1.328l-5.09,4.241c-0.732-0.948-1.867-1.569-3.154-1.569
			c-1.031,0-1.963,0.403-2.673,1.045l-5.364-2.682C19.974,44.095,20,43.978,20,43.854c0-2.206-1.794-4-4-4s-4,1.794-4,4
			c0,0.149,0.028,0.291,0.044,0.436l-5.391,3.594C5.946,47.25,5.022,46.854,4,46.854c-2.206,0-4,1.794-4,4s1.794,4,4,4s4-1.794,4-4
			c0-0.46-0.094-0.895-0.237-1.307l5.016-3.344c0.728,0.996,1.896,1.651,3.222,1.651c1.365,0,2.57-0.689,3.292-1.736l4.934,2.467
			C24.09,48.986,24,49.407,24,49.854c0,2.206,1.794,4,4,4s4-1.794,4-4c0-0.168-0.029-0.328-0.05-0.49l5.422-4.518
			c0.705,0.62,1.618,1.008,2.628,1.008c1.365,0,2.57-0.689,3.292-1.736l4.745,2.372C48.026,46.612,48,46.729,48,46.854
			c0,2.206,1.794,4,4,4s4-1.794,4-4S54.206,42.854,52,42.854z M4,52.854c-1.103,0-2-0.897-2-2s0.897-2,2-2s2,0.897,2,2
			S5.103,52.854,4,52.854z M16,45.854c-1.103,0-2-0.897-2-2s0.897-2,2-2s2,0.897,2,2S17.103,45.854,16,45.854z M28,51.854
			c-1.103,0-2-0.897-2-2s0.897-2,2-2s2,0.897,2,2S29.103,51.854,28,51.854z M40,43.854c-1.103,0-2-0.897-2-2s0.897-2,2-2
			s2,0.897,2,2S41.103,43.854,40,43.854z M52,48.854c-1.103,0-2-0.897-2-2s0.897-2,2-2s2,0.897,2,2S53.103,48.854,52,48.854z"/>
		<rect x="19" y="13.146" width="4" height="2"/>
		<rect x="25" y="13.146" width="4" height="2"/>
		<rect x="31" y="13.146" width="4" height="2"/>
		<rect x="19" y="9.146" width="4" height="2"/>
		<rect x="25" y="9.146" width="4" height="2"/>
		<rect x="31" y="9.146" width="4" height="2"/>
		<rect x="19" y="5.146" width="4" height="2"/>
		<rect x="25" y="5.146" width="4" height="2"/>
		<rect x="31" y="5.146" width="4" height="2"/>
		<rect x="34" y="30.854" width="2" height="2"/>
		<rect x="38" y="30.854" width="2" height="2"/>
		<rect x="42" y="30.854" width="2" height="2"/>
		<rect x="10" y="30.854" width="2" height="2"/>
		<rect x="14" y="30.854" width="2" height="2"/>
		<rect x="18" y="30.854" width="2" height="2"/>
	</g>
</g>
<g>
</g>
<g>
</g>
<g>
</g>
<g>
</g>
<g>
</g>
<g>
</g>
<g>
</g>
<g>
</g>
<g>
</g>
<g>
</g>
<g>
</g>
<g>
</g>
<g>
</g>
<g>
</g>
<g>
</g>
</svg>
