<svg width="72" height="64" fill="none" xmlns="http://www.w3.org/2000/svg"><g clip-path="url(#a)"><path d="m47.225 36.283-5.523.484-.588-6.728a1.813 1.813 0 0 1 1.641-1.968l1.923-.168a1.813 1.813 0 0 1 1.958 1.653l.589 6.727ZM38.143 37.078l-5.522.483-.876-10.018a1.813 1.813 0 0 1 1.64-1.968l1.924-.168a1.813 1.813 0 0 1 1.958 1.653l.876 10.018ZM28.975 37.88l-5.522.483-.423-4.83a1.813 1.813 0 0 1 1.641-1.969l1.924-.168a1.813 1.813 0 0 1 1.957 1.653l.423 4.83Z" fill="#fff"/><path d="M36.089 21.866c.145 1.666-.651 3.096-1.78 3.194-1.127.099-2.16-1.17-2.306-2.837-.146-1.666.55-4.255 1.678-4.354 1.128-.098 2.262 2.33 2.408 3.997ZM27.374 27.856c.146 1.666-.65 3.096-1.779 3.195-1.128.099-2.16-1.171-2.306-2.837-.146-1.666.55-4.255 1.677-4.354 1.128-.099 2.262 2.33 2.408 3.996ZM45.458 24.363c.146 1.666-.65 3.096-1.779 3.195-1.128.099-2.16-1.171-2.307-2.837-.145-1.666.55-4.255 1.678-4.354 1.128-.099 2.262 2.33 2.408 3.996Z" fill="#FFBE00"/><path d="m19.798 38.501 31.137-2.724c3.69-.323 6.95 2.43 7.275 6.144l1.223 13.978a2.687 2.687 0 0 1-2.432 2.917l-39.176 3.427a2.687 2.687 0 0 1-2.902-2.45L13.7 45.815c-.325-3.715 2.408-6.991 6.098-7.314Z" fill="#F1B0FF"/><path d="M25.974 44.819a.666.666 0 0 1-.414-.1.68.68 0 0 1-.215-.934l1.447-2.33a.67.67 0 0 1 .927-.216.68.68 0 0 1 .215.933l-1.447 2.33a.672.672 0 0 1-.513.317ZM50.93 41.7a.665.665 0 0 1-.415-.1.68.68 0 0 1-.215-.933l1.448-2.33a.671.671 0 0 1 .927-.216.68.68 0 0 1 .215.933l-1.448 2.33a.672.672 0 0 1-.513.317ZM37.986 43.57a.666.666 0 0 1-.414-.1.68.68 0 0 1-.215-.933l1.447-2.33a.671.671 0 0 1 .927-.216.68.68 0 0 1 .215.933l-1.447 2.33a.672.672 0 0 1-.513.316ZM46.257 44.508a.665.665 0 0 1-.414-.1l-2.318-1.46a.68.68 0 0 1-.215-.932.671.671 0 0 1 .927-.216l2.318 1.459a.68.68 0 0 1 .215.933.672.672 0 0 1-.513.316ZM20.68 43.967a.665.665 0 0 1-.414-.101l-2.318-1.459a.68.68 0 0 1-.215-.933.671.671 0 0 1 .928-.215l2.317 1.459a.68.68 0 0 1 .215.933.672.672 0 0 1-.512.316ZM19.732 48.658a.674.674 0 0 1-.713-.523.675.675 0 0 1 .503-.812l2.663-.616a.673.673 0 0 1 .807.507.676.676 0 0 1-.504.812l-2.662.616a.692.692 0 0 1-.094.016ZM51.316 45.173a.674.674 0 0 1-.713-.523.675.675 0 0 1 .504-.811l2.662-.617a.673.673 0 0 1 .807.508.675.675 0 0 1-.504.811l-2.662.617a.707.707 0 0 1-.093.015ZM35.105 47.444a.666.666 0 0 1-.528-.19l-1.958-1.919a.68.68 0 0 1-.014-.958.67.67 0 0 1 .952-.013l1.959 1.919a.68.68 0 0 1 .013.958.667.667 0 0 1-.424.201v.002Z" fill="#00A4FF"/><path d="M53.195 50.194c-3.43.3-6.606-1.186-8.621-3.693-1.55 2.819-4.42 4.834-7.85 5.134-3.429.3-6.605-1.186-8.62-3.693-1.55 2.819-4.42 4.834-7.85 5.134a9.87 9.87 0 0 1-6.042-1.425l.712 8.142a2.686 2.686 0 0 0 2.902 2.45l39.175-3.427a2.686 2.686 0 0 0 2.432-2.917l-.7-8.016a9.875 9.875 0 0 1-5.538 2.31Z" fill="#FFD8B8"/><path d="M15.77 25.153c-1.97.173-3.714-1.3-3.887-3.283-.173-1.982 1.289-3.735 3.259-3.908 1.97-.172 3.714 1.3 3.888 3.283.173 1.982-1.289 3.736-3.26 3.908Zm-.503-5.76a2.168 2.168 0 0 0-1.962 2.353 2.168 2.168 0 0 0 2.34 1.976 2.168 2.168 0 0 0 1.962-2.352 2.168 2.168 0 0 0-2.34-1.976ZM61.148 33.92c-2.145.188-4.044-1.416-4.233-3.574-.188-2.159 1.403-4.068 3.549-4.255 2.145-.188 4.044 1.416 4.233 3.574.188 2.159-1.403 4.067-3.549 4.255Zm-.56-6.397a2.488 2.488 0 0 0-2.25 2.7 2.488 2.488 0 0 0 2.685 2.267 2.487 2.487 0 0 0 2.251-2.7 2.487 2.487 0 0 0-2.685-2.267ZM6.466 52.522a2.448 2.448 0 0 1-2.642-2.23 2.448 2.448 0 0 1 2.214-2.656 2.448 2.448 0 0 1 2.642 2.23 2.448 2.448 0 0 1-2.214 2.656Zm-.302-3.455a1.014 1.014 0 0 0-.918 1.1c.05.558.54.973 1.095.924.554-.048.966-.542.917-1.1a1.013 1.013 0 0 0-1.094-.924Z" fill="#00A4FF"/><path d="M8.383 36.689a.696.696 0 0 1-.172-.007c-1.734-.272-3.127-1.428-4.141-3.435a.714.714 0 1 1 1.273-.65c.805 1.593 1.816 2.465 3.087 2.666a.719.719 0 0 1-.046 1.424v.002ZM51.282 19.137a.72.72 0 0 1-.39-1.355c1.982-1.022 3.088-2.328 3.378-3.987a.712.712 0 0 1 .827-.582.717.717 0 0 1 .579.832c-.368 2.104-1.757 3.79-4.131 5.016a.715.715 0 0 1-.264.076ZM65.522 48.672a.713.713 0 0 1-.575-.215.723.723 0 0 1 .013-1.016c1.401-1.37 2.894-2.147 4.438-2.308a.718.718 0 0 1 .148 1.43c-1.217.126-2.424.768-3.59 1.909a.707.707 0 0 1-.435.2h.001Z" fill="#F1B0FF"/><path d="m35.154 4.005 1.061 2.711a.69.69 0 0 0 .484.421l2.822.66c.554.13.72.842.281 1.206l-2.234 1.851a.692.692 0 0 0-.247.593l.252 2.903a.686.686 0 0 1-1.052.641l-2.443-1.567a.683.683 0 0 0-.636-.054l-2.666 1.135a.688.688 0 0 1-.932-.81l.725-2.82a.694.694 0 0 0-.147-.626l-1.898-2.202A.69.69 0 0 1 29 6.907l2.89-.176a.687.687 0 0 0 .546-.332l1.492-2.497a.684.684 0 0 1 1.226.105v-.002Z" fill="#FFBE00"/></g><defs><clipPath id="a"><path fill="#fff" transform="rotate(-5 75.41 3.292)" d="M0 0h66.5v57H0z"/></clipPath></defs></svg>