<svg width="122" height="192" fill="none" xmlns="http://www.w3.org/2000/svg"><g clip-path="url(#a)"><path d="M26.394 36.474c17.487-8.24 38.378-.733 46.619 16.754l47.697 101.208c3.162 6.71.281 14.723-6.43 17.885l-39.056 18.401c-6.711 3.162-14.725.281-17.888-6.429L9.64 83.085C1.4 65.6 8.907 44.713 26.396 36.473h-.002Z" fill="#00A05A"/><path d="M25.962 11.566 7.464 20.28l20.894 44.335L46.855 55.9 25.962 11.566Z" fill="#00A05A"/><path d="M21.076.317 1.896 9.353a3.303 3.303 0 0 0-1.58 4.397l2.409 5.11a3.304 3.304 0 0 0 4.397 1.58l19.18-9.036a3.303 3.303 0 0 0 1.58-4.396l-2.409-5.11a3.304 3.304 0 0 0-4.397-1.58Z" fill="#B3B3B3"/><path d="M63.707 66.294 25.64 84.23a4.025 4.025 0 0 0-1.926 5.357l30.138 63.951a4.027 4.027 0 0 0 5.358 1.926l38.067-17.935a4.025 4.025 0 0 0 1.926-5.357L69.065 68.22a4.026 4.026 0 0 0-5.358-1.926Z" fill="#fff"/><path d="M37.135 97.593a1.045 1.045 0 0 1-.453-1.99l28.841-13.834a1.045 1.045 0 0 1 1.397.492c.251.52.031 1.145-.492 1.396l-28.84 13.834c-.147.07-.3.102-.453.102ZM40.892 105.782c-.39 0-.764-.22-.945-.594a1.045 1.045 0 0 1 .492-1.396l28.84-13.834a1.045 1.045 0 0 1 1.397.492c.251.52.032 1.145-.492 1.397l-28.84 13.833c-.146.071-.3.102-.452.102ZM44.85 114.029a1.046 1.046 0 0 1-.453-1.991l28.84-13.833a1.045 1.045 0 0 1 1.397.492c.251.52.031 1.145-.492 1.396l-28.84 13.834c-.146.07-.3.102-.453.102Z" fill="#999"/><g style="mix-blend-mode:multiply" opacity=".3"><path d="M79.29 83.024c16.186 0 29.306-13.119 29.306-29.301 0-16.183-13.12-29.302-29.306-29.302-16.185 0-29.305 13.119-29.305 29.302 0 16.182 13.12 29.301 29.305 29.301Z" fill="#000" style="mix-blend-mode:multiply" opacity=".3"/><path d="M80.423 74.15c3.631-4.677 13.846.479 9.755-10.03-4.089-10.51 10.081-11.577 14.445-9.566 1.292.594 2.558 1.523 3.761 2.681a29.536 29.536 0 0 0-.235-8.642c-8.8-2.735-10.469-9.85-15.047-6.98-4.68 2.934-11.073-3.076-10.529-7.36.414-3.251 2.4-7.496 1.42-9.458a29.64 29.64 0 0 0-4.703-.377c-3.803 0-7.434.725-10.77 2.043 1.918 5.932 3.485 9.005-1.307 12.617-5.896 4.447-10.576 1.47-10.576 8.221 0 6.75 4.447 9.56 0 13.77-1.261 1.193-3.063 1.918-5.03 2.284a29.22 29.22 0 0 0 3.816 7.373c6.427-4.97 13.938 2.39 15.983 6.087.89 1.603.714 3.4.097 5.163a29.303 29.303 0 0 0 9.58.993c-1.722-3.567-2.245-6.776-.66-8.82Zm-6.082-4.25c-3.4.732-4.136-8.705-6.21-12.929s-4.934-7.315-2.488-9.918c2.444-2.6 4.923 0 9.096-3.306 4.462-3.536 8.41.123 9.15 3.49.74 3.365-2.082 7.02-2.694 8.813-.408 1.197-.477 3.156-.207 5.878.406 4.082-3.246 7.24-6.647 7.972Z" fill="#000" style="mix-blend-mode:multiply" opacity=".3"/><path d="M82.573 34.255c-.544 4.284 5.85 10.295 10.53 7.36 4.575-2.869 6.243 4.245 15.046 6.981-2.156-12.214-11.879-21.818-24.155-23.798.975 1.959-1.007 6.206-1.42 9.457ZM80.988 61.928c-.27-2.722-.201-4.681.207-5.877.612-1.795 3.435-5.449 2.694-8.815-.74-3.366-4.687-7.025-9.15-3.489-4.172 3.306-6.652.706-9.096 3.306-2.443 2.6.416 5.694 2.488 9.918 2.075 4.224 2.81 13.661 6.21 12.929 3.401-.733 7.053-3.89 6.647-7.972ZM71.409 76.815c-2.046-3.693-9.559-11.056-15.983-6.086a29.354 29.354 0 0 0 16.08 11.247c.617-1.76.792-3.558-.097-5.163v.002ZM56.64 47.302c0-6.75 4.68-3.777 10.576-8.22 4.792-3.613 3.225-6.686 1.308-12.618-10.856 4.292-18.537 14.88-18.537 27.259 0 3.374.573 6.614 1.622 9.633 1.967-.366 3.77-1.088 5.03-2.284 4.447-4.21 0-7.02 0-13.77ZM90.18 64.12c4.089 10.509-6.124 5.353-9.754 10.03-1.586 2.04-1.062 5.25.659 8.82 14.178-.856 25.636-11.789 27.302-25.732-1.203-1.159-2.469-2.087-3.762-2.68-4.366-2.012-18.533-.945-14.445 9.564v-.003Z" fill="#000" style="mix-blend-mode:multiply" opacity=".3"/></g><path d="M80.86 81.455c16.185 0 29.306-13.119 29.306-29.302S97.046 22.852 80.86 22.852c-16.185 0-29.306 13.118-29.306 29.301s13.12 29.302 29.306 29.302Z" fill="#78E6FF"/><path d="M81.993 72.58c3.63-4.676 13.846.48 9.754-10.03-4.088-10.51 10.082-11.576 14.445-9.565 1.293.594 2.559 1.522 3.762 2.681a29.535 29.535 0 0 0-.235-8.642c-8.8-2.736-10.47-9.85-15.047-6.98-4.68 2.934-11.073-3.076-10.529-7.36.413-3.252 2.399-7.497 1.42-9.458a29.641 29.641 0 0 0-4.703-.377c-3.803 0-7.434.725-10.77 2.043 1.918 5.932 3.485 9.005-1.308 12.617-5.896 4.447-10.576 1.47-10.576 8.22 0 6.751 4.447 9.56 0 13.771-1.26 1.193-3.063 1.918-5.03 2.284a29.215 29.215 0 0 0 3.817 7.373c6.427-4.97 13.937 2.39 15.983 6.086.89 1.604.714 3.4.097 5.163a29.299 29.299 0 0 0 9.579.994c-1.721-3.567-2.245-6.777-.66-8.82Zm-6.082-4.25c-3.4.733-4.136-8.704-6.21-12.928-2.075-4.224-4.934-7.316-2.488-9.918 2.443-2.6 4.923 0 9.095-3.306 4.463-3.536 8.41.123 9.15 3.489.741 3.366-2.082 7.02-2.694 8.814-.408 1.196-.477 3.155-.206 5.877.405 4.083-3.247 7.24-6.647 7.972Z" fill="#78E6FF"/><path d="M84.143 32.686c-.544 4.284 5.849 10.295 10.529 7.36 4.575-2.87 6.244 4.245 15.046 6.98-2.155-12.214-11.878-21.818-24.155-23.798.976 1.96-1.007 6.207-1.42 9.458ZM82.558 60.358c-.27-2.721-.202-4.68.206-5.877.612-1.794 3.435-5.448 2.695-8.814-.74-3.366-4.688-7.025-9.15-3.49-4.173 3.307-6.653.707-9.096 3.307-2.443 2.6.416 5.694 2.488 9.918 2.074 4.224 2.809 13.66 6.21 12.928 3.4-.732 7.052-3.889 6.647-7.972ZM72.978 75.246c-2.045-3.693-9.558-11.056-15.983-6.087a29.354 29.354 0 0 0 16.08 11.247c.617-1.76.793-3.557-.097-5.163v.003ZM58.21 45.732c0-6.75 4.679-3.776 10.575-8.22 4.793-3.612 3.226-6.686 1.308-12.617-10.856 4.292-18.536 14.88-18.536 27.259 0 3.373.573 6.614 1.622 9.632 1.967-.366 3.77-1.088 5.03-2.283 4.447-4.21 0-7.02 0-13.77ZM91.75 62.55c4.088 10.51-6.124 5.354-9.755 10.03-1.585 2.04-1.062 5.25.66 8.82 14.178-.855 25.635-11.788 27.302-25.731-1.204-1.159-2.47-2.087-3.762-2.681-4.366-2.012-18.534-.944-14.445 9.565v-.003Z" fill="#009664"/><path d="M42.859 181.036c17.49 0 31.668-14.177 31.668-31.664 0-17.487-14.178-31.663-31.668-31.663S11.19 131.885 11.19 149.372c0 17.487 14.178 31.664 31.668 31.664Z" fill="#000" style="mix-blend-mode:multiply" opacity=".2"/><path d="M44.952 182.082c17.49 0 31.668-14.176 31.668-31.664 0-17.487-14.179-31.663-31.668-31.663-17.49 0-31.668 14.176-31.668 31.663 0 17.488 14.178 31.664 31.668 31.664Z" fill="#fff"/><path d="M32.325 160.535c-.66 0-1.193-.533-1.193-1.192v-17.851a1.193 1.193 0 1 1 2.385 0v17.851c0 .659-.533 1.192-1.192 1.192ZM36.534 160.535c-.66 0-1.193-.533-1.193-1.192v-17.851a1.193 1.193 0 1 1 2.386 0v17.851c0 .659-.534 1.192-1.193 1.192ZM40.743 160.535c-.66 0-1.193-.533-1.193-1.192v-17.851a1.193 1.193 0 1 1 2.386 0v17.851c0 .659-.534 1.192-1.193 1.192ZM44.952 160.535c-.66 0-1.193-.533-1.193-1.192v-17.851a1.193 1.193 0 1 1 2.386 0v17.851c0 .659-.534 1.192-1.193 1.192ZM49.16 160.535c-.659 0-1.192-.533-1.192-1.192v-17.851a1.193 1.193 0 1 1 2.385 0v17.851c0 .659-.533 1.192-1.192 1.192ZM53.37 160.535c-.66 0-1.193-.533-1.193-1.192v-17.851a1.193 1.193 0 1 1 2.386 0v17.851c0 .659-.534 1.192-1.193 1.192ZM57.579 160.535c-.66 0-1.193-.533-1.193-1.192v-17.851a1.193 1.193 0 1 1 2.385 0v17.851c0 .659-.533 1.192-1.192 1.192ZM64.178 142.064H62.61v-4.76h-4.764v-1.569h6.334v6.329ZM27.294 142.064h-1.57v-6.329h6.331v1.569h-4.76v4.76ZM32.055 165.102h-6.33v-6.33h1.57v4.761h4.76v1.569ZM64.178 165.102h-6.332v-1.569h4.763v-4.761h1.57v6.33Z" fill="#000"/><path d="M106.463 20.026a7.733 7.733 0 0 0-5.504-2.28c-2.08 0-4.034.81-5.504 2.28l-.795.795-.795-.795a7.738 7.738 0 0 0-5.504-2.28c-2.077 0-4.034.81-5.504 2.28a7.736 7.736 0 0 0-2.281 5.503c0 2.077.81 4.033 2.281 5.503l11.455 11.454a.49.49 0 0 0 .35.143.49.49 0 0 0 .351-.143l11.455-11.454a7.736 7.736 0 0 0 2.281-5.503 7.736 7.736 0 0 0-2.281-5.503h-.005Z" fill="#000" style="mix-blend-mode:multiply" opacity=".3"/><path d="M107.509 18.98a7.733 7.733 0 0 0-5.504-2.28c-2.08 0-4.033.81-5.504 2.28l-.795.795-.795-.795a7.738 7.738 0 0 0-5.504-2.28c-2.077 0-4.033.81-5.504 2.28a7.735 7.735 0 0 0-2.28 5.503c0 2.077.81 4.033 2.28 5.503L95.358 41.44a.49.49 0 0 0 .35.144.49.49 0 0 0 .351-.144l11.455-11.453a7.732 7.732 0 0 0 2.281-5.503c0-2.077-.81-4.033-2.281-5.503h-.005Z" fill="#FF6E78"/></g><defs><clipPath id="a"><path fill="#fff" d="M0 0h122v192H0z"/></clipPath></defs></svg>