<svg width="74" height="33" viewBox="0 0 74 33" fill="none" xmlns="http://www.w3.org/2000/svg">
    <path d="M30.9611 0.00305302C31.533 -0.0451362 32.0629 0.484713 32.0146 1.05661C31.9444 1.87102 30.9301 20.3799 25.0072 26.3028C19.3302 31.9798 12.6411 30.6472 8.27328 27.5073C8.21305 27.4636 8.15399 27.4184 8.09616 27.3716L4.15872 31.3035C3.20733 32.2548 1.66487 32.2548 0.713542 31.3035C-0.237847 30.3521 -0.237847 28.8097 0.713542 27.8583L4.64612 23.9215C4.59914 23.8635 4.55368 23.8042 4.50977 23.7438C1.36983 19.376 0.0372135 12.6868 5.71421 7.00989C11.6371 1.0869 30.146 0.0726725 30.9611 0.00305302Z" fill="#1E8F4E"/>
    <path d="M22.9078 19.9383C23.0092 20.1665 23.0599 20.3694 23.0599 20.5469C23.0599 20.902 22.9142 21.2063 22.6225 21.4598C22.3435 21.7008 22.0202 21.8212 21.6525 21.8212C21.4116 21.8212 21.1833 21.7578 20.9678 21.631C20.7522 21.4915 20.5874 21.2887 20.4732 21.0224L19.4652 18.7781H13.0176L12.0095 21.0224C11.8954 21.2887 11.7306 21.4915 11.515 21.631C11.3121 21.7578 11.0839 21.8212 10.8303 21.8212C10.4626 21.8212 10.1329 21.7008 9.84127 21.4598C9.54965 21.2063 9.40381 20.902 9.40381 20.5469C9.40381 20.3694 9.45455 20.1665 9.55596 19.9383L14.6913 9.1541C14.8308 8.84979 15.04 8.62158 15.319 8.46943C15.5979 8.30459 15.8959 8.22217 16.2129 8.22217C16.5425 8.22217 16.8468 8.30459 17.1258 8.46943C17.4048 8.63427 17.6204 8.86247 17.7725 9.1541L22.9078 19.9383ZM14.0256 16.5338H18.4572L16.2509 11.5886L14.0256 16.5338Z" fill="white"/>
    <path d="M39.9325 17.6541C39.503 17.6541 39.1717 17.5376 38.9386 17.3044C38.7054 17.0713 38.5889 16.74 38.5889 16.3105V6.02148C38.5889 5.592 38.7054 5.2607 38.9386 5.02758C39.1717 4.79439 39.503 4.67786 39.9325 4.67786H46.4483C47.3563 4.67786 47.8103 5.04594 47.8103 5.78221C47.8103 6.53071 47.3563 6.90499 46.4483 6.90499H41.3866V9.94201H46.0801C46.9882 9.94201 47.4422 10.3162 47.4422 11.0648C47.4422 11.801 46.9882 12.1691 46.0801 12.1691H41.3866V15.427H46.4483C47.3563 15.427 47.8103 15.8013 47.8103 16.5498C47.8103 17.2861 47.3563 17.6541 46.4483 17.6541H39.9325ZM55.4632 17.8198C54.1866 17.8198 53.0705 17.5499 52.1131 17.0099C51.1563 16.47 50.4195 15.697 49.9046 14.6908C49.3892 13.6845 49.1314 12.5066 49.1314 11.1568C49.1314 9.807 49.3892 8.63516 49.9046 7.6412C50.4195 6.63502 51.1563 5.86197 52.1131 5.32204C53.0705 4.78211 54.1866 4.51221 55.4632 4.51221C57.0705 4.51221 58.4571 4.9539 59.623 5.83741C59.8072 5.98464 59.9358 6.13193 60.0093 6.27916C60.0829 6.42639 60.1199 6.61046 60.1199 6.83137C60.1199 7.15039 60.0278 7.42649 59.8437 7.65962C59.6722 7.88053 59.4573 7.99092 59.1996 7.99092C59.0276 7.99092 58.8741 7.9725 58.7391 7.93573C58.6169 7.88661 58.4756 7.80685 58.3163 7.69646C57.8252 7.37738 57.3711 7.15039 56.954 7.01544C56.537 6.86815 56.0887 6.79453 55.6103 6.79453C54.4322 6.79453 53.5426 7.16267 52.9414 7.89889C52.3523 8.62288 52.0581 9.70882 52.0581 11.1568C52.0581 14.0772 53.242 15.5375 55.6103 15.5375C56.0644 15.5375 56.4936 15.47 56.899 15.335C57.3039 15.1877 57.7759 14.9546 58.3163 14.6355C58.4999 14.5251 58.6534 14.4515 58.7762 14.4147C58.899 14.3656 59.0397 14.3411 59.1996 14.3411C59.4573 14.3411 59.6722 14.4576 59.8437 14.6908C60.0278 14.9116 60.1199 15.1816 60.1199 15.5006C60.1199 15.7215 60.0771 15.9117 59.9908 16.0712C59.9172 16.2185 59.7944 16.3596 59.623 16.4946C58.4571 17.3781 57.0705 17.8198 55.4632 17.8198ZM67.668 17.8198C66.3793 17.8198 65.2568 17.5499 64.2994 17.0099C63.3548 16.4577 62.6244 15.6847 62.1095 14.6908C61.594 13.6845 61.3363 12.5066 61.3363 11.1568C61.3363 9.807 61.594 8.63516 62.1095 7.6412C62.6244 6.63502 63.3548 5.86197 64.2994 5.32204C65.2568 4.78211 66.3793 4.51221 67.668 4.51221C68.9562 4.51221 70.0729 4.78211 71.0181 5.32204C71.975 5.86197 72.7111 6.63502 73.2266 7.6412C73.7421 8.63516 73.9998 9.807 73.9998 11.1568C73.9998 12.5066 73.7421 13.6845 73.2266 14.6908C72.7111 15.6847 71.975 16.4577 71.0181 17.0099C70.0729 17.5499 68.9562 17.8198 67.668 17.8198ZM67.668 15.5927C68.7477 15.5927 69.5944 15.2123 70.2078 14.4515C70.8339 13.6907 71.1467 12.5925 71.1467 11.1568C71.1467 9.7211 70.8397 8.62902 70.2264 7.88053C69.613 7.11969 68.7598 6.73934 67.668 6.73934C66.5757 6.73934 65.7231 7.11969 65.1097 7.88053C64.5079 8.62902 64.2073 9.7211 64.2073 11.1568C64.2073 12.5925 64.5143 13.6907 65.1277 14.4515C65.7416 15.2123 66.5878 15.5927 67.668 15.5927ZM41.6678 29.3899C41.1116 29.3899 40.5935 29.3308 40.1137 29.2126C39.6409 29.0874 39.2515 28.9171 38.9455 28.7015C38.8273 28.6111 38.7404 28.5172 38.6848 28.4199C38.6361 28.3225 38.6118 28.1974 38.6118 28.0444C38.6118 27.8358 38.6744 27.655 38.7995 27.502C38.9247 27.3491 39.0707 27.2726 39.2376 27.2726C39.328 27.2726 39.4149 27.2865 39.4983 27.3143C39.5818 27.3421 39.6861 27.3943 39.8113 27.4708C40.0963 27.6307 40.3779 27.7454 40.6561 27.8149C40.9412 27.8845 41.2611 27.9192 41.6156 27.9192C42.0259 27.9192 42.3353 27.8601 42.544 27.742C42.7595 27.6168 42.8673 27.436 42.8673 27.1995C42.8673 27.0396 42.7664 26.904 42.5648 26.7928C42.3701 26.6745 41.9946 26.5599 41.4383 26.4486C40.75 26.3026 40.2111 26.1287 39.8217 25.9271C39.4323 25.7254 39.1576 25.489 38.9977 25.2178C38.8447 24.9397 38.7682 24.6059 38.7682 24.2166C38.7682 23.7715 38.9004 23.3682 39.1646 23.0067C39.4288 22.6451 39.7904 22.3635 40.2493 22.1618C40.7152 21.9532 41.2367 21.8489 41.8138 21.8489C42.3214 21.8489 42.7734 21.9045 43.1697 22.0158C43.5661 22.127 43.9277 22.3009 44.2545 22.5373C44.3796 22.6277 44.4666 22.725 44.5152 22.8293C44.5709 22.9267 44.5987 23.0484 44.5987 23.1944C44.5987 23.403 44.5361 23.5838 44.411 23.7367C44.2927 23.8897 44.1502 23.9662 43.9833 23.9662C43.8929 23.9662 43.8095 23.9558 43.733 23.9349C43.6565 23.9071 43.5487 23.8515 43.4096 23.768C43.3749 23.7472 43.274 23.695 43.1072 23.6116C42.9473 23.5212 42.756 23.4517 42.5335 23.403C42.318 23.3473 42.0815 23.3195 41.8243 23.3195C41.4696 23.3195 41.1845 23.3891 40.969 23.5282C40.7534 23.6603 40.6457 23.8376 40.6457 24.0601C40.6457 24.1922 40.6839 24.3 40.7604 24.3834C40.8369 24.4669 40.9794 24.5503 41.188 24.6337C41.3966 24.7103 41.706 24.7902 42.1163 24.8736C42.7838 25.0197 43.3088 25.197 43.6912 25.4056C44.0737 25.6072 44.3449 25.8436 44.5048 26.1148C44.6648 26.386 44.7447 26.7059 44.7447 27.0744C44.7447 27.5333 44.616 27.9401 44.3588 28.2947C44.1015 28.6424 43.74 28.9135 43.2741 29.1083C42.8152 29.296 42.2797 29.3899 41.6678 29.3899ZM49.3139 29.3899C48.5767 29.3899 47.93 29.2369 47.3737 28.931C46.8244 28.625 46.3968 28.1869 46.0909 27.6168C45.7918 27.0466 45.6423 26.379 45.6423 25.6142C45.6423 24.8563 45.7918 24.1922 46.0909 23.622C46.3968 23.0518 46.8244 22.6138 47.3737 22.3078C47.93 22.0019 48.5767 21.8489 49.3139 21.8489C50.1966 21.8489 50.9721 22.0819 51.6399 22.5477C51.7581 22.6312 51.8415 22.7215 51.8901 22.8189C51.9457 22.9163 51.9735 23.0414 51.9735 23.1944C51.9735 23.41 51.911 23.5942 51.7859 23.7472C51.6677 23.8932 51.5212 23.9662 51.3474 23.9662C51.2432 23.9662 51.1493 23.9523 51.0659 23.9245C50.9825 23.8897 50.8852 23.8376 50.774 23.768C50.5308 23.622 50.3014 23.5177 50.0854 23.4551C49.8685 23.3924 49.6439 23.3608 49.4181 23.3612C48.7992 23.3612 48.3368 23.549 48.0308 23.9245C47.7318 24.293 47.5823 24.8563 47.5823 25.6142C47.5823 26.379 47.7318 26.9493 48.0308 27.3247C48.3368 27.6932 48.7992 27.8775 49.4181 27.8775C49.6266 27.8775 49.8282 27.8462 50.0228 27.7837C50.218 27.7141 50.4682 27.6098 50.774 27.4708C50.92 27.3943 51.0277 27.3421 51.0972 27.3143C51.1667 27.2865 51.2501 27.2726 51.3474 27.2726C51.5212 27.2726 51.6677 27.3491 51.7859 27.502C51.911 27.6481 51.9735 27.8288 51.9735 28.0444C51.9735 28.1904 51.9457 28.3156 51.8901 28.4199C51.8415 28.5172 51.7581 28.6076 51.6399 28.6911C50.9721 29.1569 50.1966 29.3899 49.3139 29.3899ZM56.2301 29.3899C55.4788 29.3899 54.8255 29.2369 54.2695 28.931C53.7198 28.618 53.2958 28.18 52.997 27.6168C52.6975 27.0466 52.5481 26.379 52.5481 25.6142C52.5481 24.8493 52.6975 24.1853 52.997 23.622C53.2958 23.0518 53.7198 22.6138 54.2695 22.3078C54.8255 22.0019 55.4788 21.8489 56.2301 21.8489C56.9813 21.8489 57.6311 22.0019 58.1808 22.3078C58.7368 22.6138 59.1608 23.0518 59.4527 23.622C59.7522 24.1853 59.9016 24.8493 59.9016 25.6142C59.9016 26.379 59.7522 27.0466 59.4527 27.6168C59.1538 28.18 58.7264 28.618 58.1704 28.931C57.6207 29.2369 56.9743 29.3899 56.2301 29.3899ZM56.2301 27.9192C56.7861 27.9192 57.2211 27.7245 57.5338 27.3351C57.8466 26.9388 58.003 26.3651 58.003 25.6142C58.003 24.8632 57.8431 24.293 57.5234 23.9036C57.2106 23.5142 56.7791 23.3195 56.2301 23.3195C55.674 23.3195 55.239 23.5142 54.9263 23.9036C54.6135 24.2861 54.4571 24.8563 54.4571 25.6142C54.4571 26.3721 54.6135 26.9458 54.9263 27.3351C55.239 27.7245 55.674 27.9192 56.2301 27.9192ZM67.2226 28.0757C67.3477 28.2635 67.4103 28.4408 67.4103 28.6076C67.4103 28.8301 67.3165 29.0179 67.1282 29.1708C66.9475 29.3169 66.7355 29.3899 66.4923 29.3899C66.3255 29.3899 66.1691 29.3517 66.0231 29.2751C65.8772 29.1987 65.7515 29.084 65.6472 28.931L64.2913 26.9493C64.194 26.8102 64.0898 26.7094 63.9786 26.6467C63.8743 26.5772 63.7492 26.5424 63.6032 26.5424H62.925V28.4095C62.925 28.7015 62.8416 28.9345 62.6748 29.1083C62.508 29.2751 62.2786 29.3586 61.9867 29.3586C61.6942 29.3586 61.4614 29.2751 61.2876 29.1083C61.1208 28.9345 61.0374 28.7015 61.0374 28.4095V22.8293C61.0374 22.5442 61.1138 22.3252 61.2667 22.1722C61.4197 22.0193 61.6386 21.9428 61.9241 21.9428H64.5421C65.4318 21.9428 66.0996 22.1375 66.5444 22.5269C66.9962 22.9093 67.2226 23.4656 67.2226 24.1957C67.2226 24.752 67.0691 25.2248 66.7633 25.6142C66.4575 25.9966 66.0266 26.2539 65.47 26.386C65.6993 26.4208 65.898 26.4973 66.0648 26.6155C66.2386 26.7337 66.4089 26.911 66.5757 27.1474L67.2226 28.0757ZM64.2392 25.1031C64.6637 25.1031 64.9661 25.037 65.1468 24.9049C65.3345 24.7728 65.4283 24.5572 65.4283 24.2583C65.4283 23.9523 65.3345 23.7333 65.1468 23.6012C64.9661 23.4621 64.6637 23.3926 64.2392 23.3926H62.9041V25.1031H64.2392ZM69.2985 29.296C69.0129 29.296 68.794 29.2195 68.6411 29.0666C68.4882 28.9136 68.4117 28.6946 68.4117 28.4095V22.8293C68.4117 22.5442 68.4882 22.3252 68.6411 22.1722C68.794 22.0193 69.0129 21.9428 69.2985 21.9428H72.9069C73.2063 21.9428 73.4322 22.0054 73.5851 22.1305C73.738 22.2557 73.8145 22.4364 73.8145 22.6729C73.8145 23.1735 73.5121 23.4239 72.9069 23.4239H70.2785V24.8215H72.6984C73.3036 24.8215 73.606 25.0683 73.606 25.562C73.606 25.7985 73.5295 25.9792 73.3766 26.1044C73.2237 26.2296 72.9978 26.2922 72.6984 26.2922H70.2785V27.8149H72.9069C73.5121 27.8149 73.8145 28.0653 73.8145 28.5659C73.8145 28.8023 73.738 28.9831 73.5851 29.1083C73.4322 29.2334 73.2063 29.296 72.9069 29.296H69.2985Z" fill="#4A4A4A"/>
</svg>
