<svg width="237" height="254" fill="none" xmlns="http://www.w3.org/2000/svg"><g clip-path="url(#a)"><path d="m205.416 30.176 5.082-5.076a2.189 2.189 0 0 0 0-3.095 2.195 2.195 0 0 0-3.099 0l-23.825 23.798a2.19 2.19 0 0 0 3.099 3.095l9.142-9.13C233.202 79 232.617 141.083 194.058 179.6l-.019.02c-38.559 38.515-100.712 39.1-139.989 1.754l9.141-9.131a2.188 2.188 0 0 0 0-3.095 2.195 2.195 0 0 0-3.099 0l-23.824 23.798a2.188 2.188 0 0 0 1.55 3.738c.561 0 1.123-.214 1.549-.643l5.082-5.076c21.455 20.523 48.972 31.026 76.637 31.525v12.917H109.31c-10.277 0-18.61 8.324-18.61 18.589h65.147c0-10.265-8.333-18.589-18.61-18.589h-11.772v-12.924c28.356-.574 56.536-11.662 78.175-33.272l.02-.02c43.863-43.814 44.448-114.483 1.76-159.019l-.004.004Z" fill="#784600"/><path d="M126.913 174.383c11.67-15.018 44.499 1.537 31.354-32.203-13.146-33.74 32.399-37.167 46.427-30.711 4.149 1.911 8.224 4.889 12.088 8.613.441-3.7.675-7.466.675-11.283 0-5.615-.496-11.116-1.44-16.46-28.286-8.785-33.649-31.624-48.359-22.415-15.043 9.42-35.593-9.88-33.844-23.634 1.327-10.441 7.705-24.075 4.566-30.367a95.119 95.119 0 0 0-15.116-1.213c-12.221 0-23.899 2.328-34.613 6.558 6.167 19.045 11.198 28.913-4.204 40.512C65.497 76.053 50.46 66.5 50.46 88.178s14.29 30.695 0 44.216c-4.047 3.832-9.847 6.152-16.166 7.33a93.75 93.75 0 0 0 12.267 23.677c20.655-15.958 44.796 7.68 51.373 19.54 2.857 5.151 2.295 10.921.308 16.574a94.458 94.458 0 0 0 30.788 3.185c-5.535-11.454-7.213-21.763-2.12-28.317h.004Zm-19.547-13.649c-10.928 2.351-13.294-27.954-19.956-41.514-6.663-13.564-15.855-23.494-7.998-31.845 7.857-8.351 15.828 0 29.235-10.616 14.34-11.35 27.032.393 29.409 11.205 2.377 10.81-6.693 22.542-8.664 28.305-1.312 3.841-1.534 10.131-.668 18.87 1.3 13.107-10.433 23.244-21.362 25.595h.004Z" fill="#78E6FF"/><path d="M133.826 46.29c-1.749 13.755 18.801 33.053 33.843 23.634 14.711-9.213 20.074 13.626 48.36 22.414-6.928-39.221-38.18-70.053-77.633-76.412 3.138 6.293-3.24 19.927-4.567 30.368l-.003-.004ZM128.728 135.142c-.869-8.738-.647-15.028.667-18.869 1.968-5.763 11.042-17.494 8.665-28.305-2.377-10.812-15.07-22.555-29.409-11.206C95.24 87.38 87.269 79.029 79.416 87.38c-7.857 8.351 1.335 18.281 7.998 31.845 6.662 13.564 9.031 43.865 19.956 41.514 10.925-2.351 22.662-12.488 21.362-25.596h-.004ZM97.94 182.941c-6.576-11.86-30.717-35.494-51.372-19.54 12.4 17.353 30.557 30.312 51.685 36.114 1.986-5.653 2.545-11.424-.309-16.574h-.004ZM50.467 88.178c0-21.681 15.043-12.125 33.988-26.398 15.402-11.603 10.37-21.467 4.204-40.512-34.894 13.778-59.577 47.775-59.577 87.527a93.806 93.806 0 0 0 5.215 30.928c6.319-1.173 12.119-3.497 16.166-7.329 14.29-13.521 0-22.539 0-44.216h.004ZM158.267 142.18c13.141 33.743-19.688 17.185-31.354 32.203-5.09 6.55-3.415 16.859 2.119 28.317 45.569-2.749 82.395-37.853 87.754-82.618-3.864-3.724-7.939-6.702-12.088-8.613-14.028-6.456-59.573-3.033-46.427 30.711h-.004Z" fill="#009664"/><path d="M32.458 115.36c-12.373-4.214-25.873 2.41-30.093 14.769-2.872 8.417-.71 17.353 4.867 23.529L0 161.806l4.496 3.985 7.295-8.219a23.74 23.74 0 0 0 5.36 2.616c12.372 4.215 25.873-2.409 30.092-14.768 4.22-12.359-2.412-25.845-14.785-30.06Zm9.098 28.122c-3.15 9.224-13.227 14.172-22.462 11.026-9.235-3.147-14.188-13.213-11.038-22.438 3.15-9.224 13.228-14.172 22.462-11.025 9.235 3.146 14.188 13.213 11.038 22.437Z" fill="#000"/><path d="M41.556 143.482c-3.15 9.224-13.227 14.172-22.462 11.026-9.235-3.147-14.188-13.213-11.038-22.438 3.15-9.224 13.228-14.172 22.462-11.025 9.235 3.146 14.188 13.212 11.038 22.437Z" fill="#fff"/><path d="M37.072 138.293c-1.48 4.331-6.21 6.651-10.543 5.173-4.336-1.477-6.658-6.202-5.18-10.53 1.48-4.332 6.21-6.651 10.543-5.174 4.336 1.478 6.659 6.203 5.18 10.531Z" fill="#000"/><path d="M37.821 133.599a3.584 3.584 0 0 1-4.543 2.23 3.577 3.577 0 0 1-2.233-4.538 3.582 3.582 0 0 1 4.544-2.23 3.577 3.577 0 0 1 2.232 4.538Z" fill="#fff"/><path d="M121.004 0c-13.072 0-23.708 10.624-23.708 23.681 0 8.893 4.934 16.652 12.209 20.698l-4.211 10.044 5.542 2.32 4.247-10.13c1.893.488 3.876.75 5.921.75 13.071 0 23.707-10.625 23.707-23.682C144.711 10.624 134.075 0 121.004 0ZM138.7 23.681c0 9.747-7.938 17.677-17.696 17.677-9.758 0-17.697-7.93-17.697-17.677s7.939-17.677 17.697-17.677 17.696 7.93 17.696 17.677Z" fill="#000"/><path d="M121.004 41.335c9.76 0 17.673-7.904 17.673-17.654s-7.913-17.653-17.673-17.653c-9.761 0-17.673 7.903-17.673 17.653s7.912 17.654 17.673 17.654Z" fill="#fff"/><path d="M111.535 31.26a.893.893 0 0 1-.894-.893V16.995a.893.893 0 0 1 1.788 0v13.372a.893.893 0 0 1-.894.893ZM114.692 31.26a.893.893 0 0 1-.893-.893V16.995a.893.893 0 0 1 1.787 0v13.372a.893.893 0 0 1-.894.893ZM117.846 31.26a.893.893 0 0 1-.894-.893V16.995a.893.893 0 0 1 1.788 0v13.372a.893.893 0 0 1-.894.893ZM121.004 31.26a.893.893 0 0 1-.894-.893V16.995a.893.893 0 0 1 1.788 0v13.372a.893.893 0 0 1-.894.893ZM124.157 31.26a.893.893 0 0 1-.893-.893V16.995a.893.893 0 0 1 1.787 0v13.372a.893.893 0 0 1-.894.893ZM127.315 31.26a.893.893 0 0 1-.894-.893V16.995a.893.893 0 0 1 1.788 0v13.372a.893.893 0 0 1-.894.893ZM130.469 31.26a.893.893 0 0 1-.894-.893V16.995a.893.893 0 0 1 1.788 0v13.372a.893.893 0 0 1-.894.893ZM180.218 168.968c6.264 11.463 20.698 15.693 32.169 9.435a23.674 23.674 0 0 0 4.836-3.489l8.591 6.858 3.751-4.691-8.517-6.799c4.442-7.037 5.051-16.207.785-24.012-6.265-11.463-20.699-15.693-32.17-9.435-11.475 6.257-15.71 20.675-9.445 32.133Zm5.273-2.877c-4.676-8.554-1.515-19.318 7.053-23.989 8.563-4.671 19.34-1.513 24.015 7.045 4.676 8.554 1.515 19.318-7.052 23.989-8.564 4.671-19.34 1.513-24.016-7.045Z" fill="#000"/><path d="M185.491 166.091c4.676 8.554 15.448 11.716 24.016 7.045 8.563-4.671 11.728-15.431 7.052-23.989-4.675-8.554-15.448-11.716-24.015-7.045-8.564 4.671-11.729 15.431-7.053 23.989Z" fill="#fff"/><path d="M190.026 159.256c2.194 4.016 7.252 5.498 11.272 3.307 4.021-2.192 5.504-7.244 3.31-11.26-2.193-4.016-7.252-5.497-11.272-3.306-4.02 2.191-5.503 7.244-3.31 11.259Z" fill="#000"/><path d="M189.936 152.55a3.585 3.585 0 0 0 4.86 1.423 3.574 3.574 0 0 0 1.424-4.853 3.584 3.584 0 0 0-4.859-1.424 3.577 3.577 0 0 0-1.425 4.854Z" fill="#fff"/></g><defs><clipPath id="a"><path fill="#fff" d="M0 0h237v254H0z"/></clipPath></defs></svg>