<svg width="193" height="192" viewBox="0 0 193 192" fill="none" xmlns="http://www.w3.org/2000/svg">
    <g clip-path="url(#clip0_2948_16840)">
        <path d="M46.793 153.498L53.8855 188.347L46.793 153.498Z" fill="#FFDCFF"/>
        <path d="M181.942 162.465L167.815 93.0413C161.235 101.948 151.454 108.549 139.745 110.915C125.651 113.763 111.728 109.879 101.341 101.49C101.394 105.48 102.429 109.565 104.658 113.562C114.813 131.77 106.585 148.759 84.059 147.876C68.469 147.266 56.1781 147.562 46.7903 153.5L53.8803 188.35C54.3823 190.816 56.796 192.41 59.2704 191.91L136.27 176.346L178.368 167.837C180.843 167.336 182.442 164.931 181.94 162.465H181.942Z" fill="white"/>
        <path d="M84.0617 147.874C106.59 148.756 114.815 131.767 104.661 113.559C102.431 109.562 101.397 105.477 101.344 101.488C93.2805 94.9744 87.3507 85.7409 85.1311 74.8357L160.993 59.501L149.628 3.6527C149.126 1.18659 146.712 -0.407209 144.237 0.0930527L65.2785 16.0512L64.9783 16.1115C64.3881 17.3508 63.2783 18.6932 61.7877 19.8446C58.8291 22.1272 55.5047 22.7858 54.3571 21.3102C53.7896 20.5786 53.8653 19.46 54.4479 18.2382L35.9271 21.9814C36.2827 22.3057 36.6308 22.6601 36.9687 23.0448C39.4254 25.8553 40.2754 29.1283 38.863 30.3526C37.453 31.5769 34.3179 30.2898 31.8587 27.4792C30.648 26.0916 29.8283 24.5958 29.4777 23.2861L25.1419 24.1634C22.6676 24.6637 21.0685 27.0695 21.5704 29.5356L42.7094 133.429L46.7929 153.497C56.1782 147.56 68.4691 147.263 84.0617 147.874Z" fill="#FF6E3C"/>
        <path d="M54.3572 21.3127C55.5023 22.7858 58.8291 22.1297 61.7877 19.8471C63.2783 18.6958 64.3881 17.3534 64.9783 16.114L54.448 18.2433C53.8653 19.4625 53.7896 20.5837 54.3572 21.3152V21.3127Z" fill="#FFC88C"/>
        <path d="M31.8612 27.482C34.3179 30.2925 37.4531 31.5796 38.8655 30.3553C40.2755 29.1311 39.428 25.858 36.9713 23.0475C36.6358 22.6629 36.2853 22.3109 35.9296 21.9841L29.4802 23.2863C29.8308 24.5961 30.6505 26.0943 31.8612 27.4795V27.482Z" fill="#FFC88C"/>
        <path d="M77.4135 92.1502C78.4387 90.5905 76.7327 87.6695 73.6029 85.6259C70.4731 83.5823 67.1049 83.19 66.0797 84.7497C65.0545 86.3094 66.7606 89.2304 69.8903 91.274C73.0201 93.3176 76.3883 93.7099 77.4135 92.1502Z" fill="#FFC88C"/>
        <path d="M101.458 149.443C102.483 147.883 100.777 144.962 97.6473 142.918C94.5176 140.875 91.1493 140.482 90.1241 142.042C89.0989 143.602 90.805 146.523 93.9348 148.566C97.0645 150.61 100.433 151.002 101.458 149.443Z" fill="#FFC88C"/>
        <path d="M56.8041 110.747C60.5393 110.529 63.4787 108.844 63.3693 106.982C63.26 105.121 60.1434 103.789 56.4082 104.007C52.673 104.224 49.7336 105.91 49.843 107.771C49.9523 109.633 53.0689 110.965 56.8041 110.747Z" fill="#FFC88C"/>
        <path d="M71.0122 65.5339C72.7261 64.7865 72.8998 61.411 71.4 57.9945C69.9003 54.578 67.2951 52.4143 65.5811 53.1616C63.8672 53.909 63.6936 57.2845 65.1933 60.701C66.693 64.1175 69.2982 66.2813 71.0122 65.5339Z" fill="#FFC88C"/>
        <path d="M65.8238 136.91C66.3852 133.223 65.3409 130.007 63.4913 129.727C61.6417 129.447 59.6871 132.209 59.1257 135.896C58.5643 139.583 59.6085 142.799 61.4582 143.079C63.3078 143.359 65.2623 140.597 65.8238 136.91Z" fill="#FFC88C"/>
        <path d="M56.51 74.9512C58.0092 71.5344 57.8349 68.159 56.1209 67.4119C54.4068 66.6648 51.802 68.829 50.3028 72.2458C48.8037 75.6625 48.9779 79.038 50.692 79.7851C52.406 80.5322 55.0109 78.368 56.51 74.9512Z" fill="#FFC88C"/>
        <path d="M85.9534 120.401C87.4525 116.984 87.2783 113.609 85.5642 112.862C83.8501 112.115 81.2453 114.279 79.7462 117.696C78.247 121.112 78.4213 124.488 80.1353 125.235C81.8494 125.982 84.4542 123.818 85.9534 120.401Z" fill="#FFC88C"/>
        <g style="mix-blend-mode:multiply" opacity="0.5">
            <g style="mix-blend-mode:multiply" opacity="0.3">
                <path d="M48.9344 52.075C47.4135 52.3817 45.9455 52.3918 44.5306 52.1077C43.1156 51.8211 41.8242 51.2831 40.6539 50.4938C39.4835 49.7044 38.4923 48.7014 37.6801 47.4847C36.868 46.268 36.303 44.8728 35.9827 43.2991C35.6623 41.7279 35.6321 40.217 35.8944 38.7741C36.1542 37.3311 36.6712 36.0214 37.4405 34.8499C38.2123 33.6785 39.1935 32.6905 40.3865 31.8886C41.5795 31.0841 42.9466 30.5286 44.4852 30.2168C46.0263 29.9051 47.4614 29.8825 48.7932 30.1464C50.1224 30.4104 51.3028 30.883 52.3319 31.5618C53.361 32.2405 54.163 33.0651 54.7356 34.0354L51.2095 36.7026C50.6395 35.7524 49.8349 35.0334 48.7957 34.5407C47.754 34.0505 46.5887 33.9349 45.2948 34.1963C44.0387 34.4502 42.997 34.9681 42.1647 35.7474C41.3324 36.5267 40.7623 37.487 40.4496 38.6258C40.1368 39.7645 40.1217 41.0265 40.4016 42.4092C40.6841 43.7918 41.1911 44.9532 41.9276 45.8884C42.6616 46.826 43.5645 47.4922 44.6365 47.8869C45.7059 48.2816 46.8687 48.352 48.1248 48.0981C49.4162 47.8366 50.4478 47.2785 51.2145 46.4238C51.9813 45.5691 52.4403 44.5937 52.5942 43.4951L56.8845 44.5811C56.7332 45.6973 56.3196 46.7682 55.636 47.7939C54.955 48.8195 54.0521 49.712 52.9297 50.4712C51.8073 51.2304 50.4755 51.7658 48.9344 52.0775V52.075Z" fill="black"/>
            </g>
            <g style="mix-blend-mode:multiply" opacity="0.3">
                <path d="M61.1799 49.2469L56.8694 28.0699L64.9986 26.4259C66.4615 26.1292 67.8134 26.1242 69.0468 26.4083C70.2802 26.6898 71.3244 27.2705 72.1769 28.1428C73.0269 29.0177 73.602 30.1917 73.9047 31.6698C74.1972 33.1103 74.114 34.4049 73.655 35.5538C73.1959 36.7026 72.4569 37.6453 71.4404 38.3844L78.0058 45.8456L73.042 46.8486L65.8915 38.5578L69.0846 39.6589L64.0376 40.6796L65.5989 48.3544L61.1799 49.2494V49.2469ZM63.2582 36.8409L66.9937 36.0867C67.6217 35.9585 68.1388 35.7272 68.5449 35.3878C68.951 35.0485 69.2385 34.6362 69.4075 34.1485C69.574 33.6608 69.6017 33.1329 69.4857 32.5648C69.3671 31.979 69.1326 31.4913 68.787 31.1067C68.4415 30.7221 68.0152 30.4531 67.5082 30.2998C67.0013 30.1464 66.4338 30.1313 65.8082 30.2595L62.0728 31.0137L63.2582 36.8409Z" fill="black"/>
            </g>
            <g style="mix-blend-mode:multiply" opacity="0.3">
                <path d="M80.9872 45.2422L76.6792 24.0653L81.1007 23.1729L85.4087 44.3498L80.9872 45.2422Z" fill="black"/>
            </g>
            <g style="mix-blend-mode:multiply" opacity="0.3">
                <path d="M97.4323 42.2735C96.1005 42.5424 94.8015 42.5525 93.5329 42.3061C92.2642 42.0598 91.1165 41.5771 90.09 40.8556C89.0634 40.1367 88.2159 39.2116 87.5501 38.0828L90.8416 35.7298C91.6084 36.7781 92.5315 37.5398 93.6085 38.0124C94.6855 38.485 95.7928 38.6057 96.9328 38.3769C97.5407 38.2538 98.0452 38.0552 98.4437 37.7761C98.8422 37.4996 99.1322 37.1703 99.3113 36.7882C99.4904 36.4061 99.5358 35.9888 99.4425 35.5337C99.3416 35.041 99.1045 34.6514 98.7287 34.3598C98.3529 34.0707 97.8207 33.8872 97.1321 33.8092L92.6904 33.2863C90.887 33.0802 89.4544 32.5548 88.3925 31.7127C87.3306 30.8705 86.6547 29.7393 86.3646 28.3189C86.1099 27.0695 86.1956 25.9081 86.6219 24.8347C87.0481 23.7638 87.7619 22.8487 88.7658 22.0945C89.7697 21.3379 90.9955 20.815 92.4407 20.5234C93.7145 20.267 94.9377 20.2468 96.1106 20.463C97.2834 20.6792 98.3453 21.1066 99.2962 21.7426C100.247 22.3786 101.037 23.2157 101.662 24.254L98.3983 26.6019C97.798 25.6969 97.0413 25.0458 96.1308 24.6487C95.2177 24.2515 94.2492 24.1559 93.2226 24.3621C92.6324 24.4802 92.1305 24.6813 91.7118 24.9629C91.2956 25.2444 90.998 25.5863 90.8214 25.986C90.6449 26.3857 90.6045 26.8131 90.6978 27.2681C90.7987 27.7608 91.0459 28.158 91.4444 28.4622C91.8429 28.7664 92.3878 28.9574 93.0763 29.0354L97.4196 29.5205C99.2432 29.7242 100.676 30.2345 101.725 31.0465C102.772 31.861 103.44 32.9796 103.728 34.4C103.977 35.6318 103.879 36.7907 103.428 37.8792C102.976 38.9677 102.24 39.8953 101.218 40.6646C100.197 41.4338 98.9355 41.9693 97.4323 42.2735Z" fill="black"/>
            </g>
            <g style="mix-blend-mode:multiply" opacity="0.3">
                <path d="M108.646 39.6513L104.338 18.4744L112.495 16.8253C113.961 16.5286 115.31 16.5236 116.546 16.8077C117.782 17.0892 118.823 17.6699 119.676 18.5423C120.526 19.4171 121.104 20.5911 121.404 22.0692C121.696 23.5097 121.618 24.7993 121.167 25.9356C120.715 27.0718 119.976 28.0146 118.952 28.7662C117.925 29.5179 116.69 30.0382 115.247 30.3298L111.511 31.084L113.073 38.7589L108.651 39.6513H108.646ZM110.724 27.2453L114.49 26.4836C115.118 26.3579 115.633 26.1241 116.041 25.7847C116.45 25.4454 116.735 25.0331 116.901 24.5454C117.07 24.0577 117.096 23.5298 116.98 22.9617C116.861 22.3759 116.627 21.8882 116.281 21.5036C115.935 21.119 115.509 20.85 115.002 20.6967C114.495 20.5433 113.928 20.5282 113.302 20.6564L109.536 21.4181L110.722 27.2453H110.724Z" fill="black"/>
            </g>
            <g style="mix-blend-mode:multiply" opacity="0.3">
                <path d="M132.592 34.8122L130.713 25.5737L121.212 15.0631L126.259 14.0425L133.22 21.9889L131.424 22.3509L134.701 12.3356L139.75 11.3149L135.13 24.6486L137.016 33.9147L132.595 34.8097L132.592 34.8122Z" fill="black"/>
            </g>
        </g>
        <path d="M130.043 68.5355L124.202 72.0208L96.2247 25.4481C95.2594 23.8412 95.7848 21.7551 97.397 20.793C99.0092 19.8309 101.102 20.3546 102.068 21.9614L130.045 68.5342L130.043 68.5355Z" fill="#C8C8C8"/>
        <path d="M134.72 82.3548C139.806 79.3194 140.226 70.6931 135.657 63.0873C131.088 55.4815 123.261 51.7765 118.174 54.8118C113.087 57.8472 112.668 66.4736 117.237 74.0793C121.806 81.6851 129.633 85.3901 134.72 82.3548Z" fill="#C8C8C8"/>
        <path d="M165.785 83.0585L164.617 77.3168L160.993 59.501L85.1311 74.8356C87.3507 85.7434 93.2805 94.9743 101.344 101.488C111.728 109.879 125.654 113.763 139.748 110.912C151.456 108.547 161.237 101.945 167.818 93.0386L165.788 83.056L165.785 83.0585Z" fill="#00C8FF"/>
        <path d="M42.8436 53.7047C45.8013 51.4206 47.27 48.3741 46.1242 46.9002C44.9783 45.4263 41.6518 46.0831 38.6942 48.3672C35.7365 50.6513 34.2678 53.6978 35.4136 55.1717C36.5595 56.6456 39.886 55.9888 42.8436 53.7047Z" fill="#FFC88C"/>
        <path d="M80.2871 37.2774C81.3123 35.7177 79.6062 32.7966 76.4764 30.7531C73.3467 28.7095 69.9784 28.3172 68.9532 29.8769C67.928 31.4366 69.6341 34.3576 72.7639 36.4012C75.8936 38.4448 79.2619 38.8371 80.2871 37.2774Z" fill="#FFC88C"/>
        <g style="mix-blend-mode:multiply" opacity="0.2">
            <g style="mix-blend-mode:multiply" opacity="0.2">
                <path d="M160.445 185.881C177.309 185.881 190.98 172.256 190.98 155.448C190.98 138.64 177.309 125.015 160.445 125.015C143.582 125.015 129.911 138.64 129.911 155.448C129.911 172.256 143.582 185.881 160.445 185.881Z" fill="black"/>
            </g>
        </g>
        <path d="M162.463 186.887C179.327 186.887 192.998 173.261 192.998 156.454C192.998 139.646 179.327 126.021 162.463 126.021C145.6 126.021 131.929 139.646 131.929 156.454C131.929 173.261 145.6 186.887 162.463 186.887Z" fill="white"/>
        <path d="M150.288 166.18C149.653 166.18 149.138 165.667 149.138 165.034V147.876C149.138 147.243 149.653 146.73 150.288 146.73C150.924 146.73 151.438 147.243 151.438 147.876V165.034C151.438 165.667 150.924 166.18 150.288 166.18Z" fill="black"/>
        <path d="M154.347 166.18C153.711 166.18 153.197 165.667 153.197 165.034V147.876C153.197 147.243 153.711 146.73 154.347 146.73C154.982 146.73 155.497 147.243 155.497 147.876V165.034C155.497 165.667 154.982 166.18 154.347 166.18Z" fill="black"/>
        <path d="M158.405 166.18C157.769 166.18 157.255 165.667 157.255 165.034V147.876C157.255 147.243 157.769 146.73 158.405 146.73C159.041 146.73 159.555 147.243 159.555 147.876V165.034C159.555 165.667 159.041 166.18 158.405 166.18Z" fill="black"/>
        <path d="M162.463 166.18C161.828 166.18 161.313 165.667 161.313 165.034V147.876C161.313 147.243 161.828 146.73 162.463 146.73C163.099 146.73 163.613 147.243 163.613 147.876V165.034C163.613 165.667 163.099 166.18 162.463 166.18Z" fill="black"/>
        <path d="M166.521 166.18C165.886 166.18 165.371 165.667 165.371 165.034V147.876C165.371 147.243 165.886 146.73 166.521 146.73C167.157 146.73 167.672 147.243 167.672 147.876V165.034C167.672 165.667 167.157 166.18 166.521 166.18Z" fill="black"/>
        <path d="M170.58 166.18C169.944 166.18 169.43 165.667 169.43 165.034V147.876C169.43 147.243 169.944 146.73 170.58 146.73C171.215 146.73 171.73 147.243 171.73 147.876V165.034C171.73 165.667 171.215 166.18 170.58 166.18Z" fill="black"/>
        <path d="M174.638 166.18C174.003 166.18 173.488 165.667 173.488 165.034V147.876C173.488 147.243 174.003 146.73 174.638 146.73C175.274 146.73 175.788 147.243 175.788 147.876V165.034C175.788 165.667 175.274 166.18 174.638 166.18Z" fill="black"/>
        <path d="M181.002 148.424H179.488V143.849H174.898V142.341H181.002V148.424Z" fill="black"/>
        <path d="M145.438 148.424H143.925V142.341H150.031V143.849H145.438V148.424Z" fill="black"/>
        <path d="M150.031 170.567H143.925V164.483H145.438V169.058H150.031V170.567Z" fill="black"/>
        <path d="M181.002 170.567H174.898V169.058H179.488V164.483H181.002V170.567Z" fill="black"/>
        <g style="mix-blend-mode:multiply" opacity="0.3">
            <g style="mix-blend-mode:multiply" opacity="0.3">
                <path d="M30.0225 129.583C45.6255 129.583 58.2742 116.976 58.2742 101.425C58.2742 85.8738 45.6255 73.2671 30.0225 73.2671C14.4195 73.2671 1.77075 85.8738 1.77075 101.425C1.77075 116.976 14.4195 129.583 30.0225 129.583Z" fill="black"/>
            </g>
        </g>
        <path d="M28.2568 127.823C43.8598 127.823 56.5086 115.216 56.5086 99.6653C56.5086 84.1141 43.8598 71.5073 28.2568 71.5073C12.6539 71.5073 0.00512695 84.1141 0.00512695 99.6653C0.00512695 115.216 12.6539 127.823 28.2568 127.823Z" fill="#FFC88C"/>
        <path d="M43.5684 117.8L43.3199 117.998C40.983 119.855 37.5732 119.472 35.7097 117.143L32.335 112.925L41.0493 105.999L44.424 110.217C46.2875 112.546 45.9032 115.945 43.5664 117.802L43.5684 117.8Z" fill="#FF6478"/>
        <path d="M26.683 113.922C22.723 113.922 18.7177 112.828 15.1462 110.54C14.6317 110.211 14.4829 109.53 14.8133 109.017C15.1437 108.504 15.8297 108.356 16.3418 108.685C25.2377 114.387 37.1301 111.81 42.8506 102.941C43.181 102.428 43.8645 102.28 44.3791 102.609C44.8936 102.938 45.0424 103.62 44.712 104.132C40.6285 110.462 33.7251 113.919 26.6805 113.919L26.683 113.922Z" fill="black"/>
        <path d="M12.3641 97.9359C12.1876 97.9359 12.0085 97.8882 11.8471 97.7851C11.4032 97.501 11.2745 96.9103 11.5595 96.4678C12.7702 94.5925 14.6392 93.2978 16.8209 92.8252C19.0027 92.3526 21.2425 92.7548 23.1266 93.9615C23.5705 94.2456 23.6991 94.8363 23.4141 95.2788C23.1291 95.7212 22.5364 95.8494 22.0924 95.5653C20.6396 94.6352 18.9119 94.3235 17.2296 94.688C15.5447 95.0525 14.1045 96.0505 13.1713 97.4985C12.9897 97.7826 12.6794 97.9359 12.3641 97.9359Z" fill="black"/>
        <path d="M31.3541 93.8231C31.1776 93.8231 30.9985 93.7754 30.8371 93.6723C30.3931 93.3882 30.2645 92.7975 30.5495 92.355C31.7602 90.4797 33.6292 89.185 35.8109 88.7124C37.9952 88.2398 40.2324 88.642 42.1166 89.8487C42.5605 90.1328 42.6891 90.7235 42.4041 91.166C42.1191 91.6084 41.5264 91.7366 41.0824 91.4526C39.6296 90.5224 37.9019 90.2107 36.2195 90.5752C34.5347 90.9397 33.0945 91.9377 32.1612 93.3857C31.9796 93.6698 31.6694 93.8231 31.3541 93.8231Z" fill="black"/>
        <path d="M40.119 114.032C40.0029 114.032 39.8894 113.982 39.8112 113.884L37.6169 111.141C37.4807 110.973 37.5084 110.726 37.6799 110.59C37.8489 110.455 38.0961 110.482 38.2323 110.653L40.4267 113.396C40.5629 113.564 40.5351 113.811 40.3636 113.946C40.2905 114.004 40.2047 114.032 40.119 114.032Z" fill="black"/>
        <path d="M40.5552 114.58C40.4392 114.58 40.3257 114.53 40.2475 114.432L37.1855 110.603C37.0493 110.435 37.077 110.188 37.2485 110.053C37.4175 109.917 37.6647 109.945 37.8009 110.115L40.8629 113.944C40.9991 114.113 40.9714 114.359 40.7999 114.495C40.7267 114.552 40.641 114.58 40.5552 114.58Z" fill="black"/>
        <g style="mix-blend-mode:multiply" opacity="0.3">
            <g style="mix-blend-mode:multiply" opacity="0.3">
                <path d="M156.892 52.5426C164.549 52.5426 170.756 46.3557 170.756 38.7238C170.756 31.0919 164.549 24.905 156.892 24.905C149.234 24.905 143.027 31.0919 143.027 38.7238C143.027 46.3557 149.234 52.5426 156.892 52.5426Z" fill="black"/>
            </g>
            <g style="mix-blend-mode:multiply" opacity="0.3">
                <path d="M155.04 45.8256C154.607 45.8256 154.17 45.6697 153.822 45.3555L147.789 39.8752C147.05 39.204 146.999 38.0652 147.67 37.3287C148.344 36.5921 149.486 36.5393 150.225 37.2105L154.924 41.4791L162.423 33.2235C163.096 32.4894 164.242 32.4392 164.978 33.1104C165.715 33.7816 165.765 34.9229 165.092 35.6569L156.375 45.2398C156.019 45.627 155.53 45.8256 155.04 45.8256Z" fill="black"/>
            </g>
        </g>
        <path d="M157.898 51.5421C165.555 51.5421 171.763 45.3552 171.763 37.7233C171.763 30.0914 165.555 23.9045 157.898 23.9045C150.241 23.9045 144.033 30.0914 144.033 37.7233C144.033 45.3552 150.241 51.5421 157.898 51.5421Z" fill="#038141"/>
        <path d="M156.047 44.8251C155.613 44.8251 155.177 44.6692 154.828 44.355L148.795 38.8747C148.056 38.2035 148.006 37.0647 148.677 36.3282C149.35 35.5916 150.493 35.5388 151.232 36.21L155.931 40.4786L163.429 32.223C164.103 31.489 165.248 31.4387 165.984 32.1099C166.721 32.7811 166.771 33.9224 166.098 34.6564L157.381 44.2393C157.025 44.6265 156.536 44.8251 156.047 44.8251Z" fill="white"/>
    </g>
    <defs>
        <clipPath id="clip0_2948_16840">
            <rect width="193" height="192" fill="white"/>
        </clipPath>
    </defs>
</svg>
