<svg width="193" height="192" fill="none" xmlns="http://www.w3.org/2000/svg"><g clip-path="url(#a)"><path d="m46.793 153.498 7.093 34.849-7.093-34.849Z" fill="#FFDCFF"/><path d="m181.942 162.465-14.127-69.424c-6.58 8.907-16.361 15.508-28.07 17.874-14.094 2.848-28.017-1.036-38.404-9.425.053 3.99 1.088 8.075 3.317 12.072 10.155 18.208 1.927 35.197-20.599 34.314-15.59-.61-27.88-.314-37.269 5.624l7.09 34.85c.502 2.466 2.916 4.06 5.39 3.56l77-15.564 42.098-8.509a4.558 4.558 0 0 0 3.572-5.372h.002Z" fill="#fff"/><path d="M84.062 147.874c22.528.882 30.753-16.107 20.599-34.315-2.23-3.997-3.264-8.082-3.317-12.071-8.063-6.514-13.993-15.747-16.213-26.652L160.993 59.5 149.628 3.653c-.502-2.466-2.916-4.06-5.391-3.56L65.278 16.051l-.3.06c-.59 1.24-1.7 2.582-3.19 3.734-2.959 2.282-6.283 2.94-7.43 1.465-.568-.731-.493-1.85.09-3.072l-18.52 3.743c.355.325.703.68 1.04 1.064 2.457 2.81 3.307 6.083 1.895 7.308-1.41 1.224-4.545-.063-7.004-2.874-1.211-1.387-2.03-2.883-2.381-4.193l-4.336.877a4.558 4.558 0 0 0-3.572 5.373l21.14 103.893 4.083 20.068c9.385-5.937 21.676-6.234 37.269-5.623Z" fill="#FF6E3C"/><path d="M54.357 21.313c1.145 1.473 4.472.817 7.43-1.466 1.491-1.151 2.601-2.494 3.191-3.733l-10.53 2.13c-.583 1.218-.658 2.34-.09 3.071v-.002ZM31.861 27.482c2.457 2.81 5.592 4.098 7.004 2.873 1.41-1.224.563-4.497-1.894-7.308a13.468 13.468 0 0 0-1.041-1.063l-6.45 1.302c.35 1.31 1.17 2.808 2.381 4.194v.002ZM77.413 92.15c1.026-1.56-.68-4.48-3.81-6.524-3.13-2.044-6.498-2.436-7.523-.876-1.025 1.56.68 4.48 3.81 6.524 3.13 2.044 6.498 2.436 7.523.876ZM101.458 149.443c1.025-1.56-.681-4.481-3.81-6.525-3.13-2.043-6.499-2.436-7.524-.876-1.025 1.56.681 4.481 3.81 6.524 3.13 2.044 6.499 2.436 7.524.877ZM56.804 110.747c3.735-.218 6.675-1.903 6.565-3.765-.109-1.861-3.226-3.193-6.96-2.975-3.736.217-6.675 1.903-6.566 3.764.11 1.862 3.226 3.194 6.961 2.976ZM71.012 65.534c1.714-.748 1.888-4.123.388-7.54-1.5-3.416-4.105-5.58-5.819-4.832-1.714.747-1.887 4.123-.388 7.539 1.5 3.417 4.105 5.58 5.82 4.833ZM65.824 136.91c.561-3.687-.483-6.903-2.333-7.183-1.85-.28-3.804 2.482-4.365 6.169-.562 3.687.483 6.903 2.332 7.183 1.85.28 3.804-2.482 4.366-6.169ZM56.51 74.951c1.5-3.417 1.325-6.792-.39-7.54-1.713-.746-4.318 1.418-5.817 4.835-1.5 3.416-1.325 6.792.389 7.54 1.714.746 4.319-1.418 5.818-4.835ZM85.953 120.401c1.5-3.417 1.325-6.792-.389-7.539-1.714-.747-4.319 1.417-5.818 4.834-1.499 3.416-1.325 6.792.39 7.539 1.713.747 4.318-1.417 5.817-4.834Z" fill="#FFC88C"/><g style="mix-blend-mode:multiply" opacity=".5"><path d="M48.934 52.075c-1.52.307-2.988.317-4.403.033a10.635 10.635 0 0 1-3.877-1.614 10.85 10.85 0 0 1-2.974-3.01c-.812-1.216-1.377-2.611-1.697-4.185-.32-1.571-.35-3.082-.089-4.525.26-1.443.777-2.753 1.547-3.924a10.505 10.505 0 0 1 2.945-2.961c1.194-.805 2.56-1.36 4.1-1.672 1.54-.312 2.975-.334 4.307-.07 1.33.263 2.51.736 3.539 1.415 1.029.678 1.831 1.503 2.404 2.473l-3.526 2.668c-.57-.95-1.375-1.67-2.414-2.162-1.042-.49-2.207-.606-3.501-.345-1.256.254-2.298.772-3.13 1.551-.833.78-1.403 1.74-1.715 2.879-.313 1.139-.328 2.4-.048 3.783.282 1.383.79 2.544 1.526 3.48.734.937 1.637 1.603 2.709 1.998 1.069.395 2.232.465 3.488.211 1.291-.261 2.323-.82 3.09-1.674.766-.855 1.225-1.83 1.38-2.929l4.29 1.086c-.152 1.116-.565 2.187-1.249 3.213-.681 1.026-1.584 1.918-2.706 2.677-1.123.76-2.455 1.295-3.996 1.607v-.003ZM61.18 49.247 56.87 28.07l8.129-1.644c1.463-.297 2.814-.302 4.048-.018 1.233.282 2.277.862 3.13 1.735.85.875 1.425 2.049 1.728 3.527.292 1.44.209 2.735-.25 3.884a6.356 6.356 0 0 1-2.215 2.83l6.566 7.462-4.964 1.003-7.15-8.291 3.193 1.1-5.047 1.022 1.56 7.674-4.418.895v-.002Zm2.078-12.406 3.736-.754c.628-.129 1.145-.36 1.55-.7.407-.339.695-.75.864-1.239.166-.487.194-1.015.078-1.583-.119-.586-.353-1.074-.699-1.458a2.757 2.757 0 0 0-1.279-.807c-.507-.154-1.074-.169-1.7-.04l-3.735.754 1.185 5.827ZM80.987 45.242 76.68 24.065l4.422-.892 4.308 21.177-4.422.892ZM97.432 42.273a9.942 9.942 0 0 1-3.9.033 8.845 8.845 0 0 1-3.442-1.45 8.782 8.782 0 0 1-2.54-2.773l3.292-2.353c.766 1.048 1.69 1.81 2.767 2.282a5.427 5.427 0 0 0 3.324.365c.608-.123 1.112-.322 1.51-.6.4-.277.69-.607.868-.989.18-.382.225-.8.131-1.254a1.917 1.917 0 0 0-.713-1.174c-.376-.29-.908-.473-1.597-.55l-4.442-.524c-1.803-.206-3.236-.731-4.297-1.573-1.062-.843-1.738-1.974-2.028-3.394-.255-1.25-.17-2.41.257-3.484.426-1.071 1.14-1.986 2.144-2.74 1.004-.757 2.23-1.28 3.675-1.572 1.273-.256 2.497-.276 3.67-.06a8.406 8.406 0 0 1 3.185 1.28 7.83 7.83 0 0 1 2.366 2.511l-3.264 2.348c-.6-.905-1.357-1.556-2.267-1.953-.913-.398-1.882-.493-2.908-.287-.59.118-1.093.32-1.511.6-.416.282-.714.624-.89 1.024a2.07 2.07 0 0 0-.124 1.282c.1.493.348.89.746 1.194.399.304.944.495 1.632.573l4.344.485c1.823.204 3.256.715 4.305 1.527 1.047.814 1.715 1.933 2.003 3.353.249 1.232.151 2.39-.3 3.48-.452 1.088-1.188 2.015-2.21 2.785-1.021.769-2.282 1.304-3.786 1.608ZM108.646 39.651l-4.308-21.177 8.157-1.649c1.466-.296 2.815-.301 4.051-.017 1.236.281 2.277.862 3.13 1.734.85.875 1.428 2.05 1.728 3.527.292 1.44.214 2.73-.237 3.867-.452 1.136-1.191 2.079-2.215 2.83-1.027.752-2.262 1.272-3.705 1.564l-3.736.754 1.562 7.675-4.422.892h-.005Zm2.078-12.406 3.766-.761c.628-.126 1.143-.36 1.551-.7.409-.339.694-.75.86-1.239.169-.487.195-1.015.079-1.583-.119-.586-.353-1.074-.699-1.458a2.76 2.76 0 0 0-1.279-.807c-.507-.154-1.074-.169-1.7-.04l-3.766.761 1.186 5.827h.002ZM132.592 34.812l-1.879-9.238-9.501-10.51 5.047-1.021 6.961 7.946-1.796.362 3.277-10.015 5.049-1.021-4.62 13.334 1.886 9.266-4.421.895-.003.002Z" fill="#000" style="mix-blend-mode:multiply" opacity=".3"/></g><path d="m130.043 68.535-5.841 3.486-27.977-46.573a3.39 3.39 0 0 1 1.172-4.655 3.414 3.414 0 0 1 4.671 1.168l27.977 46.573-.002.001Z" fill="#C8C8C8"/><path d="M134.72 82.355c5.086-3.036 5.506-11.662.937-19.268s-12.396-11.31-17.483-8.275-5.506 11.662-.937 19.267c4.569 7.606 12.396 11.311 17.483 8.276Z" fill="#C8C8C8"/><path d="m165.785 83.058-1.168-5.741-3.624-17.816-75.862 15.335c2.22 10.907 8.15 20.138 16.213 26.652 10.384 8.391 24.31 12.275 38.404 9.424 11.708-2.365 21.489-8.967 28.07-17.873l-2.03-9.983-.003.002Z" fill="#00C8FF"/><path d="M42.844 53.705c2.957-2.284 4.426-5.33 3.28-6.805-1.146-1.474-4.472-.817-7.43 1.467-2.958 2.284-4.426 5.33-3.28 6.805 1.145 1.474 4.472.817 7.43-1.467ZM80.287 37.277c1.025-1.56-.68-4.48-3.81-6.524-3.13-2.044-6.499-2.436-7.524-.876-1.025 1.56.681 4.48 3.81 6.524 3.13 2.044 6.499 2.436 7.524.876Z" fill="#FFC88C"/><path d="M160.445 185.881c16.864 0 30.535-13.625 30.535-30.433s-13.671-30.433-30.535-30.433c-16.863 0-30.534 13.625-30.534 30.433s13.671 30.433 30.534 30.433Z" fill="#000" style="mix-blend-mode:multiply" opacity=".2"/><path d="M162.463 186.887c16.864 0 30.535-13.626 30.535-30.433 0-16.808-13.671-30.433-30.535-30.433-16.863 0-30.534 13.625-30.534 30.433 0 16.807 13.671 30.433 30.534 30.433Z" fill="#fff"/><path d="M150.288 166.18c-.635 0-1.15-.513-1.15-1.146v-17.158c0-.633.515-1.146 1.15-1.146.636 0 1.15.513 1.15 1.146v17.158c0 .633-.514 1.146-1.15 1.146ZM154.347 166.18c-.636 0-1.15-.513-1.15-1.146v-17.158c0-.633.514-1.146 1.15-1.146.635 0 1.15.513 1.15 1.146v17.158c0 .633-.515 1.146-1.15 1.146ZM158.405 166.18c-.636 0-1.15-.513-1.15-1.146v-17.158c0-.633.514-1.146 1.15-1.146.636 0 1.15.513 1.15 1.146v17.158c0 .633-.514 1.146-1.15 1.146ZM162.463 166.18c-.635 0-1.15-.513-1.15-1.146v-17.158c0-.633.515-1.146 1.15-1.146.636 0 1.15.513 1.15 1.146v17.158c0 .633-.514 1.146-1.15 1.146ZM166.521 166.18c-.635 0-1.15-.513-1.15-1.146v-17.158c0-.633.515-1.146 1.15-1.146.636 0 1.151.513 1.151 1.146v17.158c0 .633-.515 1.146-1.151 1.146ZM170.58 166.18c-.636 0-1.15-.513-1.15-1.146v-17.158c0-.633.514-1.146 1.15-1.146.635 0 1.15.513 1.15 1.146v17.158c0 .633-.515 1.146-1.15 1.146ZM174.638 166.18c-.635 0-1.15-.513-1.15-1.146v-17.158c0-.633.515-1.146 1.15-1.146.636 0 1.15.513 1.15 1.146v17.158c0 .633-.514 1.146-1.15 1.146ZM181.002 148.424h-1.514v-4.575h-4.59v-1.508h6.104v6.083ZM145.438 148.424h-1.513v-6.083h6.106v1.508h-4.593v4.575ZM150.031 170.567h-6.106v-6.084h1.513v4.575h4.593v1.509ZM181.002 170.567h-6.104v-1.509h4.59v-4.575h1.514v6.084Z" fill="#000"/><path d="M30.023 129.583c15.603 0 28.251-12.607 28.251-28.158 0-15.551-12.648-28.158-28.252-28.158-15.602 0-28.251 12.607-28.251 28.158 0 15.551 12.648 28.158 28.252 28.158Z" fill="#000" style="mix-blend-mode:multiply" opacity=".3"/><path d="M28.257 127.823c15.603 0 28.252-12.607 28.252-28.158 0-15.55-12.65-28.158-28.252-28.158C12.654 71.507.005 84.114.005 99.665c0 15.551 12.649 28.158 28.252 28.158Z" fill="#FFC88C"/><path d="m43.568 117.8-.248.198a5.43 5.43 0 0 1-7.61-.855l-3.375-4.218 8.714-6.926 3.375 4.218a5.388 5.388 0 0 1-.858 7.585l.002-.002Z" fill="#FF6478"/><path d="M26.683 113.922a21.33 21.33 0 0 1-11.537-3.382 1.099 1.099 0 0 1-.333-1.523 1.108 1.108 0 0 1 1.529-.332c8.896 5.702 20.788 3.125 26.509-5.744a1.108 1.108 0 0 1 1.528-.332 1.1 1.1 0 0 1 .333 1.523c-4.084 6.33-10.987 9.787-18.032 9.787l.003.003ZM12.364 97.936a.952.952 0 0 1-.805-1.468 8.321 8.321 0 0 1 5.262-3.643 8.344 8.344 0 0 1 6.306 1.136.952.952 0 0 1 .287 1.318.96.96 0 0 1-1.322.286 6.437 6.437 0 0 0-4.862-.877 6.407 6.407 0 0 0-4.059 2.81.955.955 0 0 1-.807.438ZM31.354 93.823a.952.952 0 0 1-.805-1.468 8.321 8.321 0 0 1 5.262-3.643 8.342 8.342 0 0 1 6.306 1.137.952.952 0 0 1 .287 1.317.96.96 0 0 1-1.322.287 6.437 6.437 0 0 0-4.863-.878 6.407 6.407 0 0 0-4.058 2.81.955.955 0 0 1-.807.438Z" fill="#000"/><path d="M40.119 114.032a.39.39 0 0 1-.308-.148l-2.194-2.743a.393.393 0 1 1 .615-.488l2.195 2.743a.388.388 0 0 1-.063.55.391.391 0 0 1-.245.086Z" fill="#000"/><path d="M40.555 114.58a.39.39 0 0 1-.307-.148l-3.063-3.829a.388.388 0 0 1 .063-.55.392.392 0 0 1 .553.062l3.062 3.829a.39.39 0 0 1-.063.551.397.397 0 0 1-.245.085Z" fill="#000"/><g style="mix-blend-mode:multiply" opacity=".3"><path d="M156.892 52.543c7.657 0 13.864-6.187 13.864-13.82 0-7.631-6.207-13.818-13.864-13.818-7.658 0-13.865 6.187-13.865 13.819 0 7.632 6.207 13.819 13.865 13.819Z" fill="#000" style="mix-blend-mode:multiply" opacity=".3"/><path d="M155.04 45.826c-.433 0-.87-.156-1.218-.47l-6.033-5.48a1.8 1.8 0 0 1-.119-2.547 1.812 1.812 0 0 1 2.555-.118l4.699 4.268 7.499-8.255a1.814 1.814 0 0 1 2.555-.114 1.8 1.8 0 0 1 .114 2.547l-8.717 9.583a1.81 1.81 0 0 1-1.335.586Z" fill="#000" style="mix-blend-mode:multiply" opacity=".3"/></g><path d="M157.898 51.542c7.657 0 13.865-6.187 13.865-13.819 0-7.632-6.208-13.819-13.865-13.819s-13.865 6.187-13.865 13.82c0 7.631 6.208 13.818 13.865 13.818Z" fill="#038141"/><path d="M156.047 44.825c-.434 0-.87-.156-1.219-.47l-6.033-5.48a1.8 1.8 0 0 1-.118-2.547 1.812 1.812 0 0 1 2.555-.118l4.699 4.269 7.498-8.256a1.814 1.814 0 0 1 2.555-.113 1.8 1.8 0 0 1 .114 2.546l-8.717 9.583a1.81 1.81 0 0 1-1.334.586Z" fill="#fff"/></g><defs><clipPath id="a"><path fill="#fff" d="M0 0h193v192H0z"/></clipPath></defs></svg>