<svg width="62" height="32" viewBox="0 0 62 32" fill="none" xmlns="http://www.w3.org/2000/svg">
    <path fill-rule="evenodd" clip-rule="evenodd" d="M44.3818 8.14795H56.0597V27.0084H44.3818V8.14795Z" fill="#E63E11"/>
    <path fill-rule="evenodd" clip-rule="evenodd" d="M10.3743 8.14795H22.0519V27.0084H10.374L10.3743 8.14795Z" fill="#038141"/>
    <path fill-rule="evenodd" clip-rule="evenodd" d="M7.99814 8.14795H10.9141C13.341 8.14795 15.295 10.102 15.295 12.5289V22.6271C15.295 25.0543 13.3413 27.0084 10.9141 27.0084H7.99814C7.42247 27.0096 6.85222 26.8972 6.32013 26.6775C5.78803 26.4577 5.30458 26.1351 4.89751 25.728C4.49045 25.321 4.1678 24.8375 3.94809 24.3054C3.72838 23.7733 3.61593 23.2031 3.6172 22.6274V12.5292C3.6172 10.102 5.57123 8.14795 7.99814 8.14795Z" fill="#038141"/>
    <path d="M7.92325 13.1729H9.70568L12.8247 21.7228H10.8014L10.1392 19.8081H7.47797L6.8275 21.7228H4.8042L7.92325 13.1729ZM9.81401 18.4472L8.8146 15.4248L7.79097 18.4472H9.81401Z" fill="white" fill-opacity="0.446"/>
    <path fill-rule="evenodd" clip-rule="evenodd" d="M54.7032 8.14795H57.6192C60.0461 8.14795 62.0001 10.102 62.0001 12.5289V22.6271C62.0001 25.0543 60.0463 27.0084 57.6192 27.0084H54.7032C54.1276 27.0096 53.5573 26.8972 53.0252 26.6775C52.4931 26.4577 52.0097 26.1351 51.6026 25.728C51.1955 25.321 50.8729 24.8375 50.6532 24.3054C50.4335 23.7733 50.321 23.2031 50.3223 22.6274V12.5292C50.3223 10.102 52.2763 8.14795 54.7032 8.14795Z" fill="#E63E11"/>
    <path d="M59.166 19.989V21.7233H53.1567V13.1729H59.0574V14.9068H55.1319V16.5687H58.504V18.1702H55.1319V19.9888L59.166 19.989Z" fill="white" fill-opacity="0.446"/>
    <path fill-rule="evenodd" clip-rule="evenodd" d="M15.689 8.14795H27.3668V27.0084H15.6892L15.689 8.14795ZM38.6644 8.14795H50.342V27.0084H38.6644V8.14795Z" fill="#EE8100"/>
    <path d="M40.7764 21.7228V13.1729H43.9676C44.6741 13.1729 45.2923 13.2852 45.8221 13.5098C46.3521 13.7346 46.7937 14.0397 47.147 14.4251C47.5081 14.8105 47.777 15.2641 47.9537 15.786C48.1384 16.2998 48.2308 16.8498 48.2308 17.4358C48.2308 18.0861 48.1305 18.6762 47.9298 19.206C47.7289 19.7279 47.4399 20.1775 47.0626 20.5549C46.6932 20.9241 46.2436 21.2132 45.7138 21.422C45.1919 21.6225 44.6099 21.7228 43.9676 21.7228H40.7764ZM46.2197 17.4358C46.2197 17.0584 46.1675 16.7172 46.063 16.4122C45.9666 16.099 45.8222 15.83 45.6297 15.6052C45.437 15.3804 45.2001 15.2079 44.919 15.0876C44.638 14.9671 44.3208 14.9068 43.9676 14.9068H42.7515V19.9888H43.9676C44.329 19.9888 44.6501 19.9246 44.931 19.7961C45.2121 19.6676 45.445 19.491 45.6297 19.2662C45.8224 19.0336 45.9668 18.7646 46.063 18.4595C46.1675 18.1463 46.2197 17.8051 46.2197 17.4358Z" fill="white" fill-opacity="0.446"/>
    <path fill-rule="evenodd" clip-rule="evenodd" d="M26.354 8.14795H38.6847V27.0084H26.354V8.14795Z" fill="#FECB02"/>
    <path fill-rule="evenodd" clip-rule="evenodd" d="M26.9527 8.14795H15.2749V27.0084H26.9527V8.14795Z" fill="#85BB2F"/>
    <path d="M28.6237 17.3033C28.6237 16.7894 28.72 16.2796 28.9127 15.7739C29.1054 15.2601 29.3864 14.8025 29.7556 14.4011C30.1249 13.9996 30.5745 13.6744 31.1045 13.4257C31.6343 13.1767 32.2364 13.0522 32.9109 13.0522C33.7136 13.0522 34.408 13.2249 34.994 13.5702C35.5881 13.9153 36.0296 14.3649 36.3187 14.919L34.8013 15.9786C34.705 15.7538 34.5806 15.5692 34.4282 15.4247C34.2836 15.272 34.123 15.1515 33.9465 15.0633C33.7697 14.967 33.5891 14.9027 33.4046 14.8706C33.2199 14.8305 33.0392 14.8105 32.8627 14.8105C32.4853 14.8105 32.156 14.8868 31.875 15.0393C31.5941 15.1918 31.3613 15.3885 31.1766 15.6294C30.9919 15.8702 30.8554 16.1432 30.7673 16.4484C30.6787 16.7534 30.6345 17.0624 30.6345 17.3754C30.6345 17.7127 30.6867 18.0378 30.7912 18.3508C30.8955 18.664 31.0441 18.941 31.2368 19.1818C31.4374 19.4227 31.6743 19.6154 31.9474 19.7599C32.2283 19.8965 32.5414 19.9648 32.8866 19.9648C33.0632 19.9648 33.2438 19.9446 33.4285 19.9044C33.6212 19.8563 33.8019 19.7881 33.9704 19.6997C34.1471 19.6034 34.3077 19.483 34.4522 19.3385C34.5968 19.1859 34.7132 19.0012 34.8013 18.7844L36.415 19.7359C36.2866 20.0489 36.0939 20.3299 35.837 20.5788C35.5882 20.8277 35.2991 21.0365 34.9698 21.2051C34.6409 21.3736 34.2917 21.5021 33.9222 21.5905C33.553 21.6786 33.1917 21.7227 32.8385 21.7227C32.2205 21.7227 31.6504 21.5984 31.1284 21.3496C30.6146 21.0927 30.169 20.7554 29.7918 20.3379C29.4224 19.9204 29.1333 19.4468 28.9247 18.9169C28.724 18.3871 28.6237 17.8492 28.6237 17.3033ZM25.27 19.5312C25.27 19.9005 25.1936 20.2216 25.0408 20.4947C24.8884 20.7676 24.6797 20.9963 24.4148 21.1808C24.1499 21.3576 23.8408 21.4941 23.4876 21.5905C23.1343 21.6786 22.761 21.7227 22.3678 21.7227H18.2007V13.1728H22.9574C23.2544 13.1728 23.5234 13.237 23.7644 13.3655C24.0051 13.494 24.2098 13.6625 24.3784 13.8712C24.5469 14.0719 24.6754 14.3047 24.7638 14.5696C24.8601 14.8265 24.9083 15.0914 24.9083 15.3643C24.9083 15.7738 24.804 16.1592 24.5953 16.5205C24.3946 16.8818 24.0895 17.1547 23.68 17.3394C24.1697 17.4839 24.5551 17.7408 24.8362 18.1102C25.1252 18.4795 25.2697 18.9531 25.2697 19.5312H25.27ZM23.2587 19.1339C23.2587 18.8688 23.1825 18.644 23.03 18.4594C22.8774 18.2747 22.6847 18.1824 22.4519 18.1824H20.1761V20.0489H22.3676C22.6245 20.0489 22.8373 19.9647 23.0058 19.7963C23.1744 19.6276 23.2587 19.4068 23.2587 19.1339ZM20.1758 14.8586V16.6288H22.1147C22.3316 16.6288 22.5243 16.5566 22.6928 16.4122C22.8612 16.2676 22.9454 16.0427 22.9454 15.7377C22.9454 15.4567 22.8692 15.2399 22.7168 15.0875C22.5723 14.9349 22.3957 14.8586 22.1869 14.8586H20.1758Z" fill="white" fill-opacity="0.446"/>
    <path fill-rule="evenodd" clip-rule="evenodd" d="M8.31155 5.69728H9.57657C10.4059 5.6955 11.2274 5.85753 11.994 6.17409C12.7605 6.49064 13.457 6.95548 14.0434 7.54192C14.6298 8.12836 15.0946 8.82485 15.4111 9.59141C15.7277 10.358 15.8897 11.1795 15.8878 12.0088V23.0726C15.8897 23.902 15.7277 24.7235 15.4111 25.49C15.0946 26.2566 14.6298 26.9531 14.0434 27.5395C13.457 28.126 12.7605 28.5908 11.994 28.9074C11.2274 29.2239 10.4059 29.386 9.57657 29.3842H8.31155C7.4822 29.386 6.66065 29.224 5.89408 28.9074C5.12751 28.5909 4.43101 28.1261 3.84456 27.5396C3.25812 26.9532 2.79329 26.2567 2.47675 25.4901C2.16021 24.7235 1.9982 23.902 2.00002 23.0726V12.0088C1.9982 11.1795 2.16021 10.3579 2.47675 9.59135C2.79329 8.82478 3.25812 8.12827 3.84456 7.54183C4.43101 6.95539 5.12751 6.49055 5.89408 6.17401C6.66065 5.85747 7.4822 5.69546 8.31155 5.69728Z" fill="#0039FF" fill-opacity="0.63" stroke="white" stroke-width="4" stroke-linecap="round" stroke-linejoin="round"/>
    <path fill-rule="evenodd" clip-rule="evenodd" d="M8.31155 5.69728H9.57657C10.4059 5.6955 11.2274 5.85753 11.994 6.17409C12.7605 6.49064 13.457 6.95548 14.0434 7.54192C14.6298 8.12836 15.0946 8.82485 15.4111 9.59141C15.7277 10.358 15.8897 11.1795 15.8878 12.0088V23.0726C15.8897 23.902 15.7277 24.7235 15.4111 25.49C15.0946 26.2566 14.6298 26.9531 14.0434 27.5395C13.457 28.126 12.7605 28.5908 11.994 28.9074C11.2274 29.2239 10.4059 29.386 9.57657 29.3842H8.31155C7.4822 29.386 6.66065 29.224 5.89408 28.9074C5.12751 28.5909 4.43101 28.1261 3.84456 27.5396C3.25812 26.9532 2.79329 26.2567 2.47675 25.4901C2.16021 24.7235 1.9982 23.902 2.00002 23.0726V12.0088C1.9982 11.1795 2.16021 10.3579 2.47675 9.59135C2.79329 8.82478 3.25812 8.12827 3.84456 7.54183C4.43101 6.95539 5.12751 6.49055 5.89408 6.17401C6.66065 5.85747 7.4822 5.69546 8.31155 5.69728Z" fill="#038141"/>
    <path d="M7.86637 12.1357H10.0217L13.7938 23.4084H11.3471L10.5461 20.8838H7.32761L6.5412 23.4084H4.09424L7.86637 12.1357ZM10.1527 19.0899L8.94416 15.1048L7.70623 19.0899H10.1527Z" fill="white"/>
    <path d="M6.03548 1.88685V4.35803H5.03711V0.0364559H5.81622L7.83118 2.57456V0.0364559H8.82929V4.35803H8.02596L6.03548 1.88685ZM11.5184 3.50601C11.6887 3.50601 11.8328 3.47146 11.9507 3.40237C12.0682 3.32946 12.1635 3.23415 12.2366 3.11645C12.3095 2.99875 12.3602 2.86482 12.3887 2.71465C12.4211 2.5605 12.4374 2.40426 12.4374 2.24594V0.0364559H13.4357V2.24594C13.4357 2.54626 13.3972 2.82628 13.3201 3.08598C13.2472 3.34569 13.1315 3.57293 12.973 3.76771C12.8189 3.96248 12.6201 4.11664 12.3767 4.23017C12.1371 4.33989 11.851 4.39475 11.5184 4.39475C11.1735 4.39475 10.8792 4.3359 10.6357 4.2182C10.3923 4.1005 10.1935 3.94426 10.0394 3.74948C9.8892 3.55053 9.77758 3.32121 9.70449 3.06151C9.6354 2.8018 9.60085 2.52995 9.60085 2.24594V0.0364559H10.5992V2.24594C10.5992 2.41225 10.6155 2.57048 10.6479 2.72064C10.6804 2.87081 10.7332 3.00474 10.8062 3.12244C10.8791 3.24014 10.9725 3.33345 11.0862 3.40237C11.2039 3.47146 11.348 3.50601 11.5184 3.50601ZM17.4961 0.912957H16.1814V4.35803H15.1833V0.912957H13.8623V0.0364559H17.4964L17.4961 0.912957ZM17.9839 4.35803V0.0364559H19.9316C20.1346 0.0364559 20.3212 0.0789876 20.4915 0.164051C20.6661 0.249288 20.8163 0.360912 20.942 0.498924C21.0678 0.636935 21.1652 0.793174 21.2342 0.967641C21.3072 1.14211 21.3438 1.31866 21.3438 1.49729C21.3438 1.63114 21.3276 1.76099 21.2951 1.88685C21.2626 2.00854 21.2159 2.12416 21.155 2.2337C21.0942 2.34324 21.0192 2.44271 20.93 2.53211C20.8448 2.61718 20.7474 2.69018 20.6378 2.75111L21.5873 4.35803H20.4613L19.6332 2.96412H18.9822V4.35803H17.9839ZM18.982 2.09386H19.8952C20.0129 2.09386 20.1143 2.03909 20.1993 1.92955C20.2846 1.81585 20.3272 1.67176 20.3272 1.49729C20.3272 1.31866 20.2786 1.17665 20.1814 1.07128C20.0838 0.965731 19.9783 0.912957 19.8647 0.912957H18.982V2.09386ZM22.0617 4.35803V0.0364559H23.0598V4.35803H22.0617ZM23.8072 3.1227V2.24594H25.682V3.12244L23.8072 3.1227ZM29.0177 1.30251C29.0056 1.2862 28.963 1.25582 28.8901 1.21137C28.8169 1.16659 28.7255 1.11989 28.6159 1.07128C28.5066 1.02267 28.3869 0.980053 28.2568 0.943424C28.127 0.906968 27.9971 0.88874 27.8673 0.88874C27.5102 0.88874 27.3316 1.00835 27.3316 1.24757C27.3316 1.32065 27.3499 1.38159 27.3863 1.43037C27.427 1.47898 27.4838 1.52359 27.5569 1.56421C27.634 1.60067 27.7294 1.63513 27.8431 1.66759C27.9566 1.70006 28.0884 1.7366 28.2386 1.77722C28.4455 1.83399 28.6322 1.89692 28.7985 1.96601C28.965 2.03093 29.105 2.11409 29.2185 2.21547C29.3362 2.31286 29.4255 2.43264 29.4864 2.57482C29.5514 2.71665 29.5838 2.88704 29.5838 3.08598C29.5838 3.32937 29.5371 3.5363 29.4437 3.70677C29.3545 3.87325 29.2348 4.00918 29.0846 4.11456C28.9345 4.21611 28.762 4.29119 28.5672 4.3398C28.3725 4.38442 28.1716 4.40672 27.9647 4.40672C27.8064 4.40672 27.644 4.39457 27.4777 4.37027C27.3114 4.34596 27.1491 4.31151 26.9908 4.26689C26.8325 4.21828 26.6782 4.16143 26.5281 4.09633C26.3821 4.0314 26.2461 3.95632 26.1203 3.87108L26.5585 3.00083C26.5748 3.02097 26.6276 3.05951 26.7168 3.11645C26.8061 3.17322 26.9156 3.22998 27.0455 3.28675C27.1795 3.34352 27.3277 3.39429 27.49 3.43908C27.6523 3.4837 27.8166 3.50601 27.9829 3.50601C28.336 3.50601 28.5126 3.39837 28.5126 3.18311C28.5126 3.10204 28.4862 3.0352 28.4334 2.9826C28.3806 2.92983 28.3075 2.88313 28.2141 2.84251C28.1209 2.79789 28.0094 2.75727 27.8795 2.72064C27.7537 2.68419 27.6157 2.64365 27.4655 2.59904C27.2667 2.53828 27.0942 2.47335 26.9481 2.40426C26.8021 2.33117 26.6804 2.24793 26.583 2.15454C26.4896 2.06131 26.4186 1.95377 26.37 1.8319C26.3254 1.71038 26.3031 1.56838 26.3031 1.40589C26.3031 1.17865 26.3456 0.977796 26.4307 0.803329C26.5159 0.628862 26.6316 0.482779 26.7778 0.365079C26.9238 0.243386 27.0922 0.152073 27.283 0.0911396C27.4777 0.0303799 27.6826 0 27.8975 0C28.0478 0 28.196 0.0141483 28.342 0.042445C28.4882 0.0709152 28.6282 0.107371 28.762 0.151812C28.896 0.196601 29.0198 0.247379 29.1333 0.304146C29.251 0.361086 29.3586 0.41794 29.456 0.474706L29.0177 1.30251ZM29.92 2.16079C29.92 1.90108 29.9687 1.64337 30.0661 1.38766C30.1635 1.12796 30.3055 0.896639 30.4921 0.693702C30.6789 0.490938 30.9061 0.326627 31.1738 0.200767C31.4417 0.074908 31.7461 0.0119785 32.087 0.0119785C32.4927 0.0119785 32.8438 0.0992117 33.1401 0.273679C33.4404 0.448319 33.6636 0.67556 33.8096 0.955402L33.0427 1.49104C32.9941 1.37751 32.9312 1.2842 32.8539 1.21111C32.781 1.13404 32.6998 1.07319 32.6104 1.02857C32.5212 0.979966 32.4299 0.947503 32.3365 0.931185C32.2431 0.910874 32.1518 0.900719 32.0626 0.900719C31.872 0.900719 31.7056 0.939258 31.5634 1.01634C31.4214 1.09341 31.3038 1.19289 31.2105 1.31475C31.1171 1.43627 31.0481 1.57428 31.0035 1.72879C30.9589 1.88277 30.9366 2.03892 30.9366 2.19724C30.9366 2.36772 30.963 2.53203 31.0158 2.69018C31.0685 2.8485 31.1436 2.98851 31.241 3.1102C31.3424 3.23207 31.4621 3.32946 31.6001 3.40237C31.7421 3.47146 31.9003 3.50601 32.0748 3.50601C32.164 3.50601 32.2553 3.49585 32.3487 3.47554C32.446 3.45123 32.5373 3.41669 32.6227 3.3719C32.7119 3.32329 32.7931 3.26253 32.8662 3.18962C32.9391 3.11237 32.9979 3.01897 33.0427 2.90943L33.8583 3.39039C33.7933 3.54854 33.696 3.69054 33.5661 3.8164C33.4402 3.94226 33.2942 4.04772 33.1279 4.13278C32.9615 4.21802 32.785 4.28295 32.5982 4.32756C32.4116 4.37235 32.229 4.39475 32.0503 4.39475C31.7378 4.39475 31.4498 4.33182 31.1861 4.20596C30.9264 4.0761 30.7011 3.90563 30.5103 3.69453C30.3237 3.48361 30.1776 3.24422 30.0721 2.97635C29.9707 2.70849 29.92 2.43664 29.92 2.16079ZM36.1998 4.39475C35.8793 4.39475 35.5871 4.33182 35.3233 4.20596C35.0594 4.0801 34.8342 3.91579 34.6475 3.71302C34.4609 3.50592 34.3148 3.27052 34.2093 3.00682C34.1079 2.74295 34.0572 2.4711 34.0572 2.19125C34.0572 1.90707 34.11 1.63313 34.2155 1.36944C34.3251 1.10557 34.4752 0.874245 34.666 0.675474C34.8608 0.472536 35.09 0.312218 35.3537 0.194518C35.6176 0.0729983 35.9058 0.0122387 36.2183 0.0122387C36.5387 0.0122387 36.8308 0.0750815 37.0945 0.200767C37.3584 0.326627 37.5836 0.493021 37.7702 0.699951C37.9569 0.906881 38.1009 1.14219 38.2025 1.40589C38.3039 1.66976 38.3546 1.93763 38.3546 2.20948C38.3546 2.49349 38.2998 2.76734 38.1903 3.03104C38.0847 3.29491 37.9366 3.52831 37.746 3.73125C37.5552 3.93002 37.328 4.09025 37.0643 4.21195C36.8004 4.33381 36.5123 4.39475 36.1998 4.39475ZM35.0738 2.20323C35.0738 2.36971 35.0981 2.53203 35.1467 2.69018C35.1953 2.84451 35.2663 2.98252 35.3597 3.10421C35.4571 3.2259 35.5769 3.32329 35.7191 3.39638C35.8611 3.46929 36.0234 3.50575 36.206 3.50575C36.3966 3.50575 36.5629 3.46729 36.7049 3.39039C36.8471 3.31314 36.9648 3.21366 37.0581 3.09197C37.1514 2.96629 37.2205 2.82628 37.2651 2.67195C37.3137 2.5138 37.338 2.35357 37.338 2.19125C37.338 2.02477 37.3137 1.86445 37.2651 1.7103C37.2165 1.55198 37.1434 1.41396 37.0458 1.29626C36.9486 1.17474 36.8289 1.07944 36.6867 1.01035C36.5489 0.937261 36.3887 0.900719 36.206 0.900719C36.0152 0.900719 35.8488 0.939258 35.7068 1.01634C35.5688 1.08925 35.4511 1.18664 35.3537 1.3085C35.2603 1.4302 35.1893 1.5702 35.1407 1.72853C35.0961 1.88268 35.0738 2.04092 35.0738 2.20323ZM38.9314 4.35803V0.0364559H40.8791C41.0822 0.0364559 41.269 0.0789876 41.4393 0.164051C41.6137 0.249288 41.7639 0.360912 41.8897 0.498924C42.0154 0.636935 42.1128 0.793174 42.1819 0.967641C42.2548 1.14211 42.2913 1.31866 42.2913 1.49729C42.2913 1.63114 42.2751 1.76099 42.2428 1.88685C42.2104 2.00854 42.1637 2.12416 42.1027 2.2337C42.042 2.34324 41.9669 2.44271 41.8775 2.53211C41.7924 2.61718 41.695 2.69018 41.5853 2.75111L42.535 4.35803H41.4088L40.581 2.96412H39.9297V4.35803H38.9314ZM39.9297 2.09386H40.8427C40.9604 2.09386 41.0618 2.03909 41.1471 1.92955C41.2322 1.81585 41.2747 1.67176 41.2747 1.49729C41.2747 1.31866 41.2261 1.17665 41.1289 1.07128C41.0315 0.965731 40.9259 0.912957 40.8122 0.912957H39.9295L39.9297 2.09386ZM46.0465 3.48153V4.35803H43.0092V0.0364559H45.9918V0.912957H44.0076V1.753H45.7119V2.56258H44.0076V3.48179L46.0465 3.48153Z" fill="#7D7D7D"/>
</svg>
