<svg width="216" height="165" fill="none" xmlns="http://www.w3.org/2000/svg"><path opacity=".15" d="M212.503 34.414H3.056A3.048 3.048 0 0 1 0 31.375a3.048 3.048 0 0 1 3.056-3.039h209.447a3.048 3.048 0 0 1 3.056 3.04 3.048 3.048 0 0 1-3.056 3.038ZM212.503 85.332H3.056A3.048 3.048 0 0 1 0 82.293a3.048 3.048 0 0 1 3.056-3.039h209.447a3.048 3.048 0 0 1 3.056 3.04 3.048 3.048 0 0 1-3.056 3.038ZM212.503 136.25H3.056A3.048 3.048 0 0 1 0 133.211a3.048 3.048 0 0 1 3.056-3.039h209.447a3.048 3.048 0 0 1 3.056 3.039 3.048 3.048 0 0 1-3.056 3.039Z" fill="#000"/><path d="M51.972 60.866c16.864 0 30.535-13.625 30.535-30.433S68.836 0 51.972 0C35.11 0 21.438 13.625 21.438 30.433s13.67 30.433 30.534 30.433Z" fill="#505050"/><path d="m48.005 32.915-13.538-3.2L33.42 17.42l13.538 3.201 1.047 12.294Z" fill="#fff"/><path d="M46.958 20.616 33.42 17.418 41.167 10l13.537 3.199-7.746 7.417Z" fill="#E2E2E2"/><path d="m55.751 25.495-7.746 7.42-1.047-12.294 7.747-7.422 1.046 12.296Z" fill="#C4C4C4"/><path d="m62.96 41.738-12.402-6.274 1.888-12.196 12.403 6.274-1.888 12.196Z" fill="#fff"/><path d="M64.851 29.537 52.45 23.263l9.283-5.399 12.402 6.274-9.283 5.4Z" fill="#E2E2E2"/><path d="m72.244 36.334-9.283 5.403 1.888-12.195 9.285-5.404-1.89 12.196Z" fill="#C4C4C4"/><path d="m50.16 48.66-13.518-3.284-.968-12.301 13.517 3.284.968 12.3Z" fill="#fff"/><path d="M49.191 36.354 35.674 33.07l7.794-7.368 13.517 3.283-7.794 7.37Z" fill="#E2E2E2"/><path d="M57.953 41.287 50.16 48.66l-.968-12.301 7.794-7.373.968 12.3Z" fill="#C4C4C4"/><path d="M162.955 111.866c16.863 0 30.534-13.625 30.534-30.433S179.818 51 162.955 51c-16.864 0-30.535 13.625-30.535 30.433s13.671 30.433 30.535 30.433Z" fill="#505050"/><path d="m140.413 70.2 11.279-11.214a3.396 3.396 0 0 1 5.013.25l16.783 20.44-12.268 12.198-20.556-16.688a3.35 3.35 0 0 1-.251-4.985Z" fill="#AFFAFF"/><path d="M176.243 94.615c-3.374 3.355-8.852 3.355-12.225 0l-1.746-1.736 12.224-12.154 1.745 1.736a8.564 8.564 0 0 1 0 12.156l.002-.002Z" fill="#A29F9F"/><path d="m162.014 93.177 12.781-12.709a.751.751 0 0 0 0-1.064.76.76 0 0 0-1.071 0l-12.781 12.708a.751.751 0 0 0 0 1.065.76.76 0 0 0 1.071 0Z" fill="#A29F9F"/><path d="M171.493 95.23a.584.584 0 1 0 0-1.166.585.585 0 0 0-.587.583c0 .322.263.583.587.583ZM171.064 92.427a.585.585 0 0 0 .586-.583.585.585 0 0 0-.586-.583.585.585 0 0 0-.587.583c0 .322.263.583.587.583ZM176.274 90.475a.584.584 0 1 0 0-1.166.584.584 0 1 0 0 1.166ZM173.884 92.851a.585.585 0 0 0 .587-.583.585.585 0 0 0-.587-.583.584.584 0 1 0 0 1.166Z" fill="#4D4D4D"/><path d="M175.591 98.697a.585.585 0 0 0 .808-.177.585.585 0 0 0-.181-.807.585.585 0 0 0-.808.177.585.585 0 0 0 .181.807ZM179.161 98.3a.583.583 0 1 0 .627-.983.585.585 0 0 0-.808.176.585.585 0 0 0 .181.807ZM177.327 101.177a.585.585 0 0 0 .808-.177.585.585 0 0 0-.181-.807.585.585 0 0 0-.808.177.585.585 0 0 0 .181.807ZM176.915 105.299a.585.585 0 0 0 .808-.177.585.585 0 0 0-.989-.63.585.585 0 0 0 .181.807ZM172.846 99.352a.585.585 0 0 0 .808-.177.585.585 0 0 0-.181-.807.585.585 0 0 0-.808.176.585.585 0 0 0 .181.808ZM177.117 96.304a.585.585 0 0 0 .808-.176.585.585 0 0 0-.181-.807.585.585 0 0 0-.808.176.585.585 0 0 0 .181.807ZM179.165 103.04a.584.584 0 1 0 .627-.983.585.585 0 0 0-.808.176.585.585 0 0 0 .181.807ZM173.803 102.592a.585.585 0 0 0 .808-.177.585.585 0 0 0-.181-.807.585.585 0 0 0-.808.177.585.585 0 0 0 .181.807Z" fill="#fff"/><path d="M173.456 90.049a.584.584 0 1 0 0-1.167.585.585 0 0 0-.587.584c0 .322.263.583.587.583ZM175.847 87.672a.585.585 0 0 0 .587-.583.585.585 0 0 0-.587-.583.584.584 0 1 0 0 1.166ZM168.674 94.805a.584.584 0 1 0 0-1.166.585.585 0 0 0-.587.583c0 .322.263.583.587.583Z" fill="#4D4D4D"/><path d="M84.955 162.866c16.863 0 30.534-13.625 30.534-30.433S101.818 102 84.955 102c-16.864 0-30.535 13.625-30.535 30.433s13.671 30.433 30.535 30.433Z" fill="#505050"/><path d="M99.407 136.124c0 7.96-6.49 14.411-14.493 14.411-8.004 0-14.494-6.453-14.494-14.411 0-9.092 9.674-18.497 13.216-21.637.729-.647 1.83-.65 2.564-.005 3.547 3.119 13.21 12.459 13.21 21.642h-.003Z" fill="#FFD250"/><path d="M93.991 131.812a.955.955 0 0 1-.873-.564c-.828-1.843-2.106-3.79-3.797-5.786a.95.95 0 0 1 .115-1.341.963.963 0 0 1 1.348.115c1.806 2.131 3.179 4.231 4.08 6.235a.947.947 0 0 1-.483 1.255.94.94 0 0 1-.39.083v.003ZM93.447 142.192a.957.957 0 0 1-.617-.223.948.948 0 0 1-.114-1.341c.935-1.105 1.359-2.922 1.434-3.473a.953.953 0 0 1 1.077-.813.95.95 0 0 1 .818 1.071c-.125.922-.677 3.038-1.866 4.441a.953.953 0 0 1-.732.338Z" fill="#fff"/></svg>