<svg width="375" height="375" fill="none" xmlns="http://www.w3.org/2000/svg"><g clip-path="url(#a)"><path fill="#2D9CDB" d="M0 0h375v375H0z"/><path fill="#DFF4FF" d="M0 0h375v375H0z"/><path d="M375 290.631C292 264.5 148.5 276 54.5 375H375v-84.369Z" fill="#027E54"/><path d="M57.477 94c23.227 0 40.07 18.734 41.303 39.22 14.061 4.728 24.22 17.862 24.22 33.401C123 186.116 107.03 202 87.43 202H-2.43C-23.104 202-38 187.892-38 170.345c0-13.799 9.07-27.166 22.816-30.901.896-10.78 6.215-19.082 13.63-23.508 7.157-4.273 15.946-5.014 23.869-2.211C29.06 102.732 41.407 94 57.477 94Z" fill="#fff"/><path d="M222.085 209.061c-3.605 0-7.415 2.059-9.053 4.903l-16.952 29.362c-2.081 3.61-5.207 5.674-8.578 5.674-3.37 0-6.492-2.068-8.578-5.674l-16.952-29.362c-1.642-2.839-5.448-4.903-9.053-4.903a8.19 8.19 0 0 0-2.134.27l-32.75 8.774c-1.21.322-2.395.488-3.518.488-3.031 0-5.613-1.189-7.268-3.345-1.829-2.386-2.308-5.678-1.345-9.275l8.774-32.75c1.054-3.927-1.11-9.157-4.633-11.191L80.683 145.08c-3.61-2.081-5.674-5.207-5.674-8.578 0-3.37 2.068-6.497 5.674-8.578l29.362-16.952c3.523-2.034 5.687-7.263 4.633-11.191l-8.774-32.75c-.963-3.593-.484-6.889 1.345-9.27 1.655-2.16 4.237-3.35 7.272-3.35 1.124 0 2.308.166 3.519.488l32.75 8.775a8.25 8.25 0 0 0 2.133.27c3.606 0 7.416-2.06 9.053-4.904l16.944-29.366c2.081-3.61 5.207-5.674 8.578-5.674 3.37 0 6.497 2.068 8.578 5.674l16.952 29.362c1.642 2.84 5.448 4.903 9.057 4.903.754 0 1.468-.091 2.134-.27l32.75-8.774c1.211-.322 2.395-.488 3.519-.488 3.03 0 5.612 1.19 7.271 3.345 1.829 2.386 2.308 5.678 1.346 9.27l-8.774 32.75c-1.054 3.928 1.11 9.153 4.633 11.191l29.362 16.957c3.61 2.081 5.674 5.207 5.674 8.578 0 3.37-2.068 6.492-5.678 8.578l-29.362 16.952c-3.523 2.034-5.687 7.263-4.634 11.191l8.775 32.75c.962 3.593.487 6.889-1.346 9.271-1.655 2.16-4.237 3.348-7.272 3.348-1.123 0-2.308-.165-3.518-.487l-32.75-8.775a8.458 8.458 0 0 0-2.134-.265h.004Z" fill="#FFBE00"/><path d="M368.477 61c23.227 0 40.069 18.734 41.303 39.22 14.061 4.728 24.22 17.862 24.22 33.401C434 153.116 418.03 169 398.43 169h-89.86c-20.673 0-35.57-14.108-35.57-31.655 0-13.799 9.07-27.166 22.816-30.901.896-10.78 6.215-19.082 13.63-23.508 7.157-4.273 15.946-5.014 23.869-2.211C340.061 69.732 352.407 61 368.477 61Z" fill="#fff"/><g filter="url(#b)"><path d="m227.605 80.248-70.498-6.168c-13.133-1.149-24.71 8.566-25.859 21.698l-6.168 70.499c-1.149 13.132 8.566 24.71 21.699 25.858l70.498 6.168c13.132 1.149 24.71-8.565 25.858-21.698l6.168-70.498c1.149-13.132-8.565-24.71-21.698-25.859Z" fill="#F5F5F5"/></g><path d="M153.093 132.909c1.65-18.864 18.282-32.82 37.146-31.17 18.864 1.65 32.82 18.282 31.17 37.147l-68.316-5.977Z" fill="#FF8C14"/><path d="M212.748 138.128c-1.232 14.082-13.646 24.499-27.728 23.267-14.082-1.232-24.499-13.647-23.267-27.728l50.995 4.461Z" fill="#fff"/><path d="M200.586 116.73a1.887 1.887 0 1 0 .33-3.76 1.887 1.887 0 0 0-.33 3.76ZM208.996 125.934a1.887 1.887 0 1 0 .329-3.761 1.888 1.888 0 0 0-.329 3.761ZM198.467 127.078a1.888 1.888 0 1 0 .329-3.761 1.888 1.888 0 0 0-.329 3.761Z" fill="#8C3C00"/><path d="m168.074 164.301-7.335 13.956 7.692 4.048 7.397-14.076a34.094 34.094 0 0 0 8.434 1.826c18.835 1.648 35.499-12.335 37.147-31.169l-8.661-.758c-1.23 14.06-13.668 24.497-27.728 23.267-14.06-1.231-24.497-13.669-23.267-27.729l-8.66-.757c-1.122 12.826 5.009 24.643 14.981 31.392Z" fill="#000"/><path d="M205.866 85.822c-6.714-.587-12.881 2.641-16.368 7.895a17.772 17.772 0 0 1 4.256 8.455c7.97-1.071 14.443-7.463 15.303-15.767a17.968 17.968 0 0 0-3.198-.583h.007Z" fill="#00641E"/><path d="M177.866 87.91a18.241 18.241 0 0 0-3.908.088c1.492 7.57 7.821 13.564 15.895 14.27 1.329.116 2.636.075 3.908-.088-1.492-7.57-7.822-13.564-15.895-14.27Z" fill="#00961E"/><path d="M303 375c-71.609-94.269-179.5-110-303-94.27V375h303Z" fill="#009664"/></g><defs><clipPath id="a"><path fill="#fff" d="M0 0h375v375H0z"/></clipPath><filter id="b" x="117.168" y="70.078" width="140.047" height="140.047" filterUnits="userSpaceOnUse" color-interpolation-filters="sRGB"><feFlood flood-opacity="0" result="BackgroundImageFix"/><feColorMatrix in="SourceAlpha" values="0 0 0 0 0 0 0 0 0 0 0 0 0 0 0 0 0 0 127 0" result="hardAlpha"/><feOffset dy="3.91"/><feGaussianBlur stdDeviation="3.91"/><feColorMatrix values="0 0 0 0 0 0 0 0 0 0 0 0 0 0 0 0 0 0 0.3 0"/><feBlend in2="BackgroundImageFix" result="effect1_dropShadow_3346_4459"/><feBlend in="SourceGraphic" in2="effect1_dropShadow_3346_4459" result="shape"/></filter></defs></svg>