<svg width="375" height="768" viewBox="0 0 375 768" fill="none" xmlns="http://www.w3.org/2000/svg">
    <rect width="375" height="768" fill="#DFF4FF"/>
    <path d="M375 683.631C292 657.5 148.5 669 54.5 768L375 768V683.631Z" fill="#027E54"/>
    <path d="M57.4767 487C80.7041 487 97.5462 505.734 98.7798 526.22C112.841 530.948 123 544.082 123 559.621C123 579.116 107.03 595 87.4302 595H-2.43023C-23.1035 595 -38 580.892 -38 563.345C-38 549.546 -28.9304 536.179 -15.1839 532.444C-14.2879 521.664 -8.96919 513.362 -1.55436 508.936C5.60305 504.663 14.3919 503.922 22.3148 506.725C29.0611 495.732 41.4068 487 57.4767 487Z" fill="white"/>
    <path d="M222.085 602.061C218.48 602.061 214.67 604.12 213.032 606.964L196.08 636.326C193.999 639.936 190.873 642 187.502 642C184.132 642 181.01 639.932 178.924 636.326L161.972 606.964C160.33 604.125 156.524 602.061 152.919 602.061C152.166 602.061 151.447 602.152 150.785 602.331L118.035 611.105C116.825 611.427 115.64 611.593 114.517 611.593C111.486 611.593 108.904 610.404 107.249 608.248C105.42 605.862 104.941 602.57 105.904 598.973L114.678 566.223C115.732 562.296 113.568 557.066 110.045 555.032L80.6826 538.08C77.0727 535.999 75.0087 532.873 75.0087 529.502C75.0087 526.132 77.0771 523.005 80.6826 520.924L110.045 503.972C113.568 501.938 115.732 496.709 114.678 492.781L105.904 460.031C104.941 456.438 105.42 453.142 107.249 450.76C108.904 448.6 111.486 447.412 114.521 447.412C115.645 447.412 116.829 447.577 118.04 447.899L150.79 456.674C151.456 456.852 152.174 456.944 152.923 456.944C156.529 456.944 160.339 454.884 161.976 452.04L178.92 422.674C181.001 419.064 184.127 417 187.498 417C190.868 417 193.995 419.068 196.076 422.674L213.028 452.036C214.67 454.875 218.476 456.939 222.085 456.939C222.839 456.939 223.553 456.848 224.219 456.669L256.969 447.895C258.18 447.573 259.364 447.407 260.488 447.407C263.518 447.407 266.1 448.596 267.759 450.752C269.588 453.138 270.067 456.43 269.105 460.022L260.331 492.772C259.277 496.7 261.441 501.925 264.964 503.963L294.326 520.92C297.936 523.001 300 526.127 300 529.498C300 532.868 297.932 535.99 294.322 538.076L264.96 555.028C261.437 557.062 259.273 562.291 260.326 566.219L269.101 598.969C270.063 602.562 269.588 605.858 267.755 608.24C266.1 610.4 263.518 611.588 260.483 611.588C259.36 611.588 258.175 611.423 256.965 611.101L224.215 602.326C223.549 602.152 222.83 602.061 222.081 602.061H222.085Z" fill="#FFBE00"/>
    <path d="M368.477 454C391.704 454 408.546 472.734 409.78 493.22C423.841 497.948 434 511.082 434 526.621C434 546.116 418.03 562 398.43 562H308.57C287.897 562 273 547.892 273 530.345C273 516.546 282.07 503.179 295.816 499.444C296.712 488.664 302.031 480.362 309.446 475.936C316.603 471.663 325.392 470.922 333.315 473.725C340.061 462.732 352.407 454 368.477 454Z" fill="white"/>
    <g filter="url(#filter0_d_155_1991)">
        <path d="M227.605 473.248L157.107 467.08C143.974 465.931 132.397 475.646 131.248 488.779L125.08 559.277C123.931 572.409 133.646 583.987 146.779 585.135L217.277 591.303C230.409 592.452 241.987 582.738 243.135 569.605L249.303 499.107C250.452 485.974 240.738 474.397 227.605 473.248Z" fill="#F5F5F5"/>
    </g>
    <path d="M153.093 525.909C154.743 507.045 171.375 493.089 190.239 494.739C209.103 496.389 223.059 513.021 221.409 531.886L153.093 525.909Z" fill="#FF8C14"/>
    <path d="M212.748 531.128C211.516 545.21 199.102 555.627 185.02 554.395C170.938 553.163 160.521 540.748 161.753 526.667L212.748 531.128Z" fill="white"/>
    <path d="M200.586 509.73C201.625 509.821 202.54 509.053 202.631 508.014C202.722 506.976 201.954 506.06 200.915 505.969C199.876 505.878 198.961 506.647 198.87 507.685C198.779 508.724 199.547 509.639 200.586 509.73Z" fill="#8C3C00"/>
    <path d="M208.996 518.934C210.035 519.025 210.951 518.257 211.041 517.218C211.132 516.18 210.364 515.264 209.325 515.173C208.287 515.082 207.371 515.85 207.28 516.889C207.189 517.928 207.958 518.843 208.996 518.934Z" fill="#8C3C00"/>
    <path d="M198.467 520.078C199.505 520.169 200.421 519.401 200.512 518.362C200.603 517.324 199.834 516.408 198.796 516.317C197.757 516.226 196.842 516.995 196.751 518.033C196.66 519.072 197.428 519.987 198.467 520.078Z" fill="#8C3C00"/>
    <path d="M168.074 557.301L160.739 571.257L168.431 575.305L175.828 561.229C178.492 562.173 181.317 562.798 184.262 563.055C203.097 564.703 219.761 550.72 221.409 531.886L212.748 531.128C211.518 545.188 199.08 555.625 185.02 554.395C170.96 553.164 160.523 540.726 161.753 526.666L153.093 525.909C151.971 538.735 158.102 550.552 168.074 557.301Z" fill="black"/>
    <path d="M205.866 478.822C199.152 478.235 192.985 481.463 189.498 486.717C191.623 489.072 193.123 491.979 193.754 495.172C201.724 494.101 208.197 487.709 209.057 479.405C208.031 479.123 206.961 478.918 205.859 478.822L205.866 478.822Z" fill="#00641E"/>
    <path d="M177.866 480.91C176.537 480.794 175.23 480.835 173.958 480.998C175.45 488.567 181.779 494.562 189.853 495.268C191.182 495.384 192.488 495.343 193.761 495.18C192.269 487.611 185.939 481.617 177.866 480.91Z" fill="#00961E"/>
    <path d="M303 768C231.391 673.731 123.5 658 0 673.73V768L303 768Z" fill="#009664"/>
    <defs>
        <filter id="filter0_d_155_1991" x="117.168" y="463.078" width="140.047" height="140.047" filterUnits="userSpaceOnUse" color-interpolation-filters="sRGB">
            <feFlood flood-opacity="0" result="BackgroundImageFix"/>
            <feColorMatrix in="SourceAlpha" type="matrix" values="0 0 0 0 0 0 0 0 0 0 0 0 0 0 0 0 0 0 127 0" result="hardAlpha"/>
            <feOffset dy="3.91"/>
            <feGaussianBlur stdDeviation="3.91"/>
            <feColorMatrix type="matrix" values="0 0 0 0 0 0 0 0 0 0 0 0 0 0 0 0 0 0 0.3 0"/>
            <feBlend mode="normal" in2="BackgroundImageFix" result="effect1_dropShadow_155_1991"/>
            <feBlend mode="normal" in="SourceGraphic" in2="effect1_dropShadow_155_1991" result="shape"/>
        </filter>
    </defs>
</svg>
