<svg width="298" height="238" viewBox="0 0 298 238" fill="none" xmlns="http://www.w3.org/2000/svg">
    <rect x="41.7417" y="95.3633" width="244.606" height="20.5874" transform="rotate(-13.0814 41.7417 95.3633)" fill="black" fill-opacity="0.2"/>
    <rect x="32.7417" y="55.3633" width="244.606" height="20.5874" transform="rotate(-13.0814 32.7417 55.3633)" fill="black" fill-opacity="0.2"/>
    <rect x="53" y="150.35" width="112" height="58" transform="rotate(-13.0814 53 150.35)" fill="white"/>
    <rect x="77.4961" y="193.333" width="82.8246" height="5.7877" transform="rotate(-13.0814 77.4961 193.333)" fill="black"/>
    <rect x="190" y="159.746" width="62.213" height="10.6102" transform="rotate(-13.0814 190 159.746)" fill="black"/>
    <rect x="185" y="140.081" width="62.213" height="10.6102" transform="rotate(-13.0814 185 140.081)" fill="black"/>
    <rect x="151.175" y="127.537" width="3.36471" height="44.7506" transform="rotate(-13.0814 151.175 127.537)" fill="black"/>
    <rect x="120.175" y="134.537" width="3.36471" height="44.7506" transform="rotate(-13.0814 120.175 134.537)" fill="black"/>
    <rect x="141.175" y="129.537" width="2.36" height="44.7506" transform="rotate(-13.0814 141.175 129.537)" fill="black"/>
    <rect x="136.175" y="130.537" width="2.36" height="44.7506" transform="rotate(-13.0814 136.175 130.537)" fill="black"/>
    <rect x="130.175" y="132.537" width="1" height="44.7506" transform="rotate(-13.0814 130.175 132.537)" fill="black"/>
    <rect x="113.175" y="136.537" width="1" height="44.7506" transform="rotate(-13.0814 113.175 136.537)" fill="black"/>
    <rect x="108.175" y="137.537" width="1" height="44.7506" transform="rotate(-13.0814 108.175 137.537)" fill="black"/>
    <rect x="125.175" y="133.537" width="2" height="44.7506" transform="rotate(-13.0814 125.175 133.537)" fill="black"/>
    <rect x="103" y="138.762" width="3.36471" height="44.7506" transform="rotate(-13.0814 103 138.762)" fill="black"/>
    <rect x="72" y="145.762" width="3.36471" height="44.7506" transform="rotate(-13.0814 72 145.762)" fill="black"/>
    <rect x="93" y="140.762" width="2.36" height="44.7506" transform="rotate(-13.0814 93 140.762)" fill="black"/>
    <rect x="88" y="141.762" width="2.36" height="44.7506" transform="rotate(-13.0814 88 141.762)" fill="black"/>
    <rect x="82" y="143.762" width="1" height="44.7506" transform="rotate(-13.0814 82 143.762)" fill="black"/>
    <rect x="65" y="147.762" width="1" height="44.7506" transform="rotate(-13.0814 65 147.762)" fill="black"/>
    <rect x="60" y="148.762" width="1" height="44.7506" transform="rotate(-13.0814 60 148.762)" fill="black"/>
    <rect x="77" y="144.762" width="2" height="44.7506" transform="rotate(-13.0814 77 144.762)" fill="black"/>
    <line x1="26.5" y1="104" x2="26.5" y2="120" stroke="white" stroke-width="3"/>
    <line x1="25" y1="102.5" x2="43" y2="102.5" stroke="white" stroke-width="3"/>
    <line x1="269" y1="101.5" x2="253" y2="101.5" stroke="white" stroke-width="3"/>
    <line x1="270.5" y1="100" x2="270.5" y2="118" stroke="white" stroke-width="3"/>
    <line x1="270.5" y1="235" x2="270.5" y2="219" stroke="white" stroke-width="3"/>
    <line x1="272" y1="236.5" x2="254" y2="236.5" stroke="white" stroke-width="3"/>
    <line x1="28" y1="236.5" x2="44" y2="236.5" stroke="white" stroke-width="3"/>
    <line x1="26.5" y1="238" x2="26.5" y2="220" stroke="white" stroke-width="3"/>
    <line y1="170.5" x2="298" y2="170.5" stroke="white" stroke-opacity="0.3"/>
</svg>
