<svg width="286" height="218" fill="none" xmlns="http://www.w3.org/2000/svg"><g clip-path="url(#a)"><path d="M126.523 196.432h32.389c11.908 0 21.577 9.665 21.577 21.568h-75.543c0-11.903 9.669-21.568 21.577-21.568Z" fill="#784600"/><path d="M142.789 202.929a3.272 3.272 0 0 1-3.273-3.271V28.055a3.272 3.272 0 0 1 6.545 0v171.603a3.272 3.272 0 0 1-3.272 3.271ZM154.887 17.968a3.272 3.272 0 0 1-3.24-2.852 3.272 3.272 0 0 1 2.827-3.661L243.23.025a3.272 3.272 0 0 1 .835 6.488l-88.755 11.43c-.142.018-.284.025-.423.025ZM41.928 32.513a3.272 3.272 0 0 1-3.24-2.851A3.274 3.274 0 0 1 41.515 26l88.51-11.396a3.275 3.275 0 0 1 3.663 2.825 3.274 3.274 0 0 1-2.827 3.662l-88.51 11.397a3.14 3.14 0 0 1-.423.025Z" fill="#784600"/><path d="M142.789 29.7c-7.417 0-13.451-6.032-13.451-13.445S135.372 2.81 142.789 2.81c7.416 0 13.451 6.032 13.451 13.445S150.205 29.7 142.789 29.7Zm0-21.53c-4.46 0-8.088 3.627-8.088 8.085 0 4.458 3.628 8.084 8.088 8.084 4.46 0 8.087-3.626 8.087-8.084s-3.627-8.084-8.087-8.084ZM41.931 86.788a1.166 1.166 0 0 1-1.165-1.164v-56.56c0-.641.523-1.164 1.165-1.164.643 0 1.165.523 1.165 1.165v56.559c0 .642-.522 1.164-1.165 1.164ZM243.649 60.991a1.166 1.166 0 0 1-1.165-1.164V3.27c0-.642.523-1.165 1.165-1.165s1.165.523 1.165 1.165v56.556c0 .642-.523 1.164-1.165 1.164Z" fill="#784600"/><path d="M41.931 157.809c23.158 0 41.932-18.766 41.932-41.914 0-23.148-18.774-41.913-41.932-41.913S0 92.747 0 115.895c0 23.148 18.773 41.914 41.931 41.914Z" fill="#FFC88C"/><path d="M41.931 136.867c-8.132 0-16.265-3.094-22.455-9.281a1.642 1.642 0 1 1 2.324-2.323c11.102 11.097 29.161 11.097 40.263 0a1.642 1.642 0 1 1 2.323 2.323c-6.19 6.187-14.322 9.281-22.455 9.281ZM35.29 108.405c-.365 0-.726-.139-1.004-.416a9.524 9.524 0 0 0-6.777-2.807 9.53 9.53 0 0 0-6.777 2.807 1.42 1.42 0 0 1-2.008-2.007 12.342 12.342 0 0 1 8.785-3.639c3.317 0 6.435 1.294 8.784 3.639a1.418 1.418 0 0 1-1.003 2.423ZM64.131 108.405c-.364 0-.726-.139-1.003-.416a9.524 9.524 0 0 0-6.777-2.807 9.53 9.53 0 0 0-6.778 2.807 1.42 1.42 0 0 1-2.007-2.007 12.342 12.342 0 0 1 8.785-3.639c3.317 0 6.435 1.294 8.784 3.639a1.418 1.418 0 0 1-1.004 2.423Z" fill="#000"/><path d="M238.13 196.096h-8.164c.258 1.891 1.875 2.846 3.472 2.846 2.346 0 3.518-1.139 3.518-1.139v2.277s-1.172 1.139-3.518 1.139c-3.518 0-5.864-2.277-5.864-5.694 0-3.416 2.346-5.693 5.28-5.693s5.28 2.277 5.28 5.693v.571h-.004Zm-8.093-1.706h5.631c-.329-1.526-1.384-2.278-2.814-2.278-1.43 0-2.485.752-2.814 2.278h-.003ZM247.544 190.406v2.277s-1.707-.567-2.846-.567c-1.707 0-3.418 1.138-3.418 3.416 0 2.277 1.707 3.416 3.418 3.416 1.139 0 2.846-.568 2.846-.568v2.278s-1.139.567-2.846.567c-3.418 0-5.696-2.277-5.696-5.693 0-3.416 2.278-5.694 5.696-5.694 1.707 0 2.846.571 2.846.571v-.003ZM259.801 195.529c0 3.416-2.278 5.693-5.696 5.693-3.417 0-5.696-2.277-5.696-5.693 0-3.417 2.279-5.694 5.696-5.694 3.418 0 5.696 2.277 5.696 5.694Zm-9.11 0c0 2.277 1.707 3.416 3.417 3.416 1.711 0 3.418-1.139 3.418-3.416 0-2.278-1.707-3.417-3.418-3.417-1.71 0-3.417 1.139-3.417 3.417ZM230.079 218c-1.159 0-2.321-.387-2.321-.387v-1.545s1.159.387 2.321.387c.771 0 1.158-.387 1.158-.771 0-1.158-3.659-.387-3.659-3.091 0-1.545.955-2.319 2.501-2.319 1.158 0 2.32.387 2.32.387v1.545s-1.159-.387-2.32-.387c-.772 0-1.159.387-1.159.771 0 1.158 3.866.387 3.866 3.09 0 1.546-1.162 2.32-2.704 2.32h-.003ZM239.044 210.661v1.545s-1.159-.387-1.933-.387c-1.159 0-2.321.771-2.321 2.319 0 1.549 1.159 2.32 2.321 2.32.771 0 1.933-.387 1.933-.387v1.545s-.771.387-1.933.387c-2.321 0-3.866-1.545-3.866-3.865 0-2.319 1.545-3.864 3.866-3.864 1.158 0 1.933.387 1.933.387ZM247.406 214.138c0 2.32-1.546 3.865-3.867 3.865-2.32 0-3.866-1.545-3.866-3.865 0-2.319 1.546-3.864 3.866-3.864 2.321 0 3.867 1.545 3.867 3.864Zm-6.184 0c0 1.546 1.159 2.32 2.321 2.32 1.161 0 2.32-.771 2.32-2.32 0-1.548-1.159-2.319-2.32-2.319-1.162 0-2.321.774-2.321 2.319ZM252.708 210.274v1.545c-1.546 0-3.092.387-3.092 2.319v3.865h-1.546v-7.726h1.546v3.091c0-1.933 1.159-3.091 3.092-3.091v-.003ZM259.743 214.526h-5.379c.171 1.283 1.236 1.932 2.288 1.932 1.545 0 2.32-.771 2.32-.771v1.545s-.771.771-2.32.771c-2.321 0-3.867-1.545-3.867-3.865 0-2.319 1.546-3.864 3.479-3.864s3.479 1.545 3.479 3.864v.388Zm-5.334-1.158h3.711c-.216-1.036-.913-1.546-1.856-1.546-.942 0-1.639.51-1.855 1.546Z" fill="#1D1D1B"/><path d="M260.76 205.667a2.435 2.435 0 0 0-2.434-2.432h-7.012a2.435 2.435 0 0 0-2.434 2.432 2.435 2.435 0 0 0 2.434 2.433h7.012a2.433 2.433 0 0 0 2.434-2.433Z" fill="#D93726"/><path d="M261.066 205.667a2.742 2.742 0 0 1-2.739 2.739h-7.013a2.743 2.743 0 0 1-2.74-2.739 2.742 2.742 0 0 1 2.74-2.738h7.013a2.742 2.742 0 0 1 2.739 2.738Zm-2.739 2.126a2.13 2.13 0 0 0 2.126-2.126 2.13 2.13 0 0 0-2.126-2.125h-7.013a2.13 2.13 0 0 0-2.127 2.125 2.13 2.13 0 0 0 2.127 2.126h7.013Z" fill="#fff"/><path d="M254.328 205.667a2.434 2.434 0 0 0-2.433-2.432h-6.732a2.435 2.435 0 0 0-2.434 2.432 2.435 2.435 0 0 0 2.434 2.433h6.732a2.433 2.433 0 0 0 2.433-2.433Z" fill="#EF7E1A"/><path d="M254.635 205.667c0 1.51-1.23 2.739-2.74 2.739h-6.719a2.743 2.743 0 0 1-2.74-2.739 2.742 2.742 0 0 1 2.74-2.738h6.719c1.51 0 2.74 1.229 2.74 2.738Zm-2.74 2.126a2.13 2.13 0 0 0 2.126-2.126 2.13 2.13 0 0 0-2.126-2.125h-6.719a2.13 2.13 0 0 0-2.127 2.125 2.13 2.13 0 0 0 2.127 2.126h6.719Z" fill="#fff"/><path d="M248.27 205.667a2.434 2.434 0 0 0-2.433-2.432h-6.8a2.434 2.434 0 0 0-2.433 2.432 2.435 2.435 0 0 0 2.433 2.433h6.8a2.433 2.433 0 0 0 2.433-2.433Z" fill="#F5C100"/><path d="M248.577 205.667a2.743 2.743 0 0 1-2.74 2.739h-6.8a2.743 2.743 0 0 1-2.74-2.739 2.743 2.743 0 0 1 2.74-2.738h6.8a2.742 2.742 0 0 1 2.74 2.738Zm-2.74 2.126a2.13 2.13 0 0 0 2.127-2.126 2.13 2.13 0 0 0-2.127-2.125h-6.8a2.13 2.13 0 0 0-2.126 2.125 2.13 2.13 0 0 0 2.126 2.126h6.8Z" fill="#fff"/><path d="M242.129 205.667a2.434 2.434 0 0 0-2.433-2.432h-6.8a2.434 2.434 0 0 0 0 4.865h6.8a2.435 2.435 0 0 0 2.433-2.433Z" fill="#2ECC71"/><path d="M242.436 205.667c0 1.51-1.23 2.739-2.74 2.739h-6.8a2.743 2.743 0 0 1-2.74-2.739 2.743 2.743 0 0 1 2.74-2.738h6.8c1.51 0 2.74 1.229 2.74 2.738Zm-2.74 2.126a2.13 2.13 0 0 0 2.126-2.126 2.13 2.13 0 0 0-2.126-2.125h-6.8a2.13 2.13 0 0 0-2.127 2.125 2.13 2.13 0 0 0 2.127 2.126h6.8Z" fill="#fff"/><path d="M236.001 205.667a2.435 2.435 0 0 0-2.434-2.432h-4.599a2.434 2.434 0 0 0-2.433 2.432 2.435 2.435 0 0 0 2.433 2.433h4.599a2.435 2.435 0 0 0 2.434-2.433Z" fill="#1E8F4E"/><path d="M236.307 205.667a2.743 2.743 0 0 1-2.74 2.739h-4.599a2.742 2.742 0 0 1-2.739-2.739 2.742 2.742 0 0 1 2.739-2.738h4.599a2.742 2.742 0 0 1 2.74 2.738Zm-2.74 2.126a2.13 2.13 0 0 0 2.127-2.126 2.13 2.13 0 0 0-2.127-2.125h-4.599a2.13 2.13 0 0 0-2.126 2.125 2.13 2.13 0 0 0 2.126 2.126h4.599Z" fill="#fff"/><path d="M256.639 158.809c.497-.042.958.419.916.916-.061.706-.942 16.781-6.086 21.923-4.932 4.929-10.744 3.774-14.539 1.045-.045-.032-.097-.074-.155-.119l-3.421 3.412a2.115 2.115 0 0 1-2.991-2.99l3.417-3.419-.119-.155c-2.727-3.794-3.886-9.6 1.045-14.533 5.148-5.145 21.226-6.026 21.933-6.084v.004Z" fill="#1E8F4E"/><path d="M247.796 178.493c.742 0 1.272-.497 1.272-1.197 0-.252-.042-.481-.162-.81l-3.337-9.045c-.361-.993-.952-1.432-1.946-1.432s-1.558.455-1.913 1.439l-3.318 9.035c-.11.313-.168.597-.168.81 0 .732.497 1.197 1.288 1.197.674 0 1.052-.336 1.287-1.146l.639-1.893h4.389l.639 1.919c.226.791.607 1.12 1.324 1.12l.006.003Zm-2.553-5.01H242l1.575-4.977h.058l1.61 4.977Z" fill="#fff"/><path fill-rule="evenodd" clip-rule="evenodd" d="M56.57 190.477h14.474v23.365H56.57v-23.365Z" fill="#E63E11"/><path fill-rule="evenodd" clip-rule="evenodd" d="M14.422 190.477h14.475v23.365H14.423v-23.365Z" fill="#038141"/><path fill-rule="evenodd" clip-rule="evenodd" d="M11.48 190.477h3.614a5.414 5.414 0 0 1 5.428 5.426v12.51a5.414 5.414 0 0 1-5.428 5.425h-3.615a5.414 5.414 0 0 1-5.428-5.425v-12.51a5.414 5.414 0 0 1 5.428-5.426Z" fill="#038141"/><path d="M11.386 196.703h2.207l3.866 10.59h-2.507l-.82-2.371h-3.298l-.807 2.371H7.519l3.867-10.59Zm2.343 6.535-1.24-3.745-1.268 3.745h2.508Z" fill="#000"/><path fill-rule="evenodd" clip-rule="evenodd" d="M69.363 190.477h3.614a5.414 5.414 0 0 1 5.428 5.426v12.51a5.414 5.414 0 0 1-5.428 5.425h-3.614a5.414 5.414 0 0 1-5.428-5.425v-12.51a5.414 5.414 0 0 1 5.428-5.426Z" fill="#E63E11"/><path d="M74.113 205.145v2.148h-7.448v-10.59h7.313v2.148H69.11v2.058h4.18v1.984h-4.18v2.252h5.002Z" fill="#fff" fill-opacity=".5"/><path d="M9.046 182.722v3.061H7.81v-5.355h.965l2.498 3.145v-3.145h1.236v5.355h-.998l-2.465-3.061ZM15.842 184.725c.21 0 .39-.042.536-.129.145-.09.265-.21.355-.355.09-.145.155-.313.187-.497.04-.19.062-.383.062-.58v-2.739h1.236v2.739c0 .371-.049.719-.142 1.042-.09.322-.233.603-.43.845-.19.242-.438.432-.739.574-.297.136-.651.203-1.065.203-.413 0-.79-.074-1.094-.219a2.043 2.043 0 0 1-.739-.581 2.497 2.497 0 0 1-.416-.851 3.992 3.992 0 0 1-.129-1.01v-2.739H14.7v2.739c0 .206.02.403.061.587.04.187.107.352.197.497.09.145.207.261.349.348.145.084.326.129.535.129v-.003ZM23.252 181.515h-1.63v4.268h-1.236v-4.268H18.75v-1.087h4.505v1.087h-.003ZM23.856 185.783v-5.355h2.414c.251 0 .484.052.693.158a1.854 1.854 0 0 1 .92.997c.09.216.136.436.136.655 0 .164-.02.326-.062.484a1.726 1.726 0 0 1-.174.429 1.588 1.588 0 0 1-.639.642l1.178 1.99h-1.394l-1.026-1.726h-.807v1.726H23.856Zm1.236-2.806h1.132c.146 0 .271-.068.378-.204a.863.863 0 0 0 .158-.535.767.767 0 0 0-.18-.529c-.12-.132-.252-.197-.394-.197h-1.094v1.465ZM28.91 185.783v-5.355h1.235v5.355H28.91ZM31.072 184.251v-1.087h2.323v1.087h-2.323ZM37.53 181.996a.822.822 0 0 0-.159-.113 3.15 3.15 0 0 0-.784-.332 1.795 1.795 0 0 0-.484-.068c-.442 0-.665.149-.665.445 0 .091.023.165.068.226.052.061.12.116.21.165.096.045.213.087.355.129.142.038.303.084.49.135.255.071.487.149.694.232.207.081.38.184.52.31.145.119.255.268.332.445.08.178.12.387.12.633 0 .303-.059.558-.175.767a1.43 1.43 0 0 1-.445.507 1.95 1.95 0 0 1-.642.277c-.242.055-.49.084-.746.084a4.628 4.628 0 0 1-1.207-.174 6.467 6.467 0 0 1-.574-.21 3.594 3.594 0 0 1-.507-.277l.542-1.078c.02.026.084.075.197.142.11.071.245.142.407.21.164.071.348.132.552.187.2.055.403.084.61.084.438 0 .655-.132.655-.4 0-.1-.033-.184-.097-.248a.892.892 0 0 0-.271-.175 2.73 2.73 0 0 0-.417-.151l-.513-.152a4.483 4.483 0 0 1-.642-.242 1.762 1.762 0 0 1-.452-.31 1.18 1.18 0 0 1-.264-.4 1.538 1.538 0 0 1-.084-.529c0-.28.051-.529.158-.745.106-.216.248-.397.43-.542.18-.151.39-.264.625-.338.242-.075.494-.113.762-.113.187 0 .37.016.552.051a4.026 4.026 0 0 1 .981.323c.145.071.277.142.4.21l-.542 1.025.01.01ZM38.65 183.061c0-.323.06-.642.18-.958.12-.323.297-.61.53-.858.232-.252.512-.455.845-.61a2.65 2.65 0 0 1 1.133-.232c.503 0 .939.109 1.303.325.372.217.649.497.83.846l-.952.664a1.088 1.088 0 0 0-.233-.348 1.02 1.02 0 0 0-.303-.226c-.11-.061-.223-.1-.339-.119a1.55 1.55 0 0 0-.339-.039c-.235 0-.442.048-.62.142a1.316 1.316 0 0 0-.438.371c-.116.151-.2.322-.255.513-.055.19-.084.384-.084.58 0 .21.032.416.097.61.064.194.158.371.277.519.126.152.275.271.446.362.177.084.37.129.587.129.11 0 .223-.013.339-.039.12-.029.232-.074.339-.129.11-.061.21-.136.303-.226.09-.097.165-.21.22-.348l1.01.597c-.081.196-.2.37-.362.529a2.172 2.172 0 0 1-.542.393 2.882 2.882 0 0 1-.655.242 2.942 2.942 0 0 1-.678.084c-.387 0-.745-.077-1.071-.232a2.794 2.794 0 0 1-1.378-1.523 2.823 2.823 0 0 1-.188-1.01l-.003-.009ZM46.43 185.828c-.397 0-.758-.077-1.087-.232a2.672 2.672 0 0 1-1.379-1.484 2.78 2.78 0 0 1 .01-2.029 2.75 2.75 0 0 1 .559-.858c.242-.251.526-.448.852-.597a2.52 2.52 0 0 1 1.07-.225 2.548 2.548 0 0 1 1.924.851c.233.255.41.549.536.874a2.699 2.699 0 0 1-.016 2.017 2.743 2.743 0 0 1-.552.867c-.236.246-.52.446-.845.597a2.506 2.506 0 0 1-1.072.226v-.007Zm-1.394-2.716c0 .207.029.407.09.604.062.19.149.361.265.512.12.152.268.271.445.362.178.09.378.135.604.135.235 0 .442-.048.62-.142.177-.096.322-.219.438-.371.117-.155.2-.329.255-.519.062-.197.09-.394.09-.597 0-.203-.028-.403-.09-.597a1.515 1.515 0 0 0-.27-.513 1.267 1.267 0 0 0-.446-.354 1.255 1.255 0 0 0-.597-.136c-.226 0-.442.049-.62.142-.17.09-.316.21-.439.361a1.684 1.684 0 0 0-.264.52c-.055.19-.084.387-.084.587l.003.006ZM49.815 185.783v-5.355h2.414c.252 0 .485.052.694.158a1.853 1.853 0 0 1 .92.997c.09.216.135.436.135.655 0 .164-.019.326-.06.484a1.73 1.73 0 0 1-.175.429 1.731 1.731 0 0 1-.278.371c-.11.113-.226.197-.361.271l1.178 1.99h-1.394l-1.026-1.726h-.807v1.726h-1.24Zm1.236-2.806h1.133c.145 0 .271-.068.378-.204a.863.863 0 0 0 .158-.535.767.767 0 0 0-.18-.529c-.12-.132-.252-.197-.395-.197h-1.094v1.465ZM58.636 184.696v1.087h-3.763v-5.355h3.695v1.087h-2.46v1.042h2.114v1.004H56.11v1.138h2.526v-.003Z" fill="#7D7D7D"/><path fill-rule="evenodd" clip-rule="evenodd" d="M21.012 190.477h14.475v23.365H21.012v-23.365ZM49.486 190.477H63.96v23.365H49.486v-23.365Z" fill="#EE8100"/><path d="M52.104 207.293v-10.59h3.956c.875 0 1.643.139 2.298.416A4.667 4.667 0 0 1 60 198.251a4.57 4.57 0 0 1 1 1.687c.23.636.342 1.32.342 2.046 0 .806-.126 1.535-.374 2.193a4.746 4.746 0 0 1-1.075 1.671 4.811 4.811 0 0 1-1.672 1.074c-.645.249-1.368.375-2.165.375H52.1l.004-.004Zm6.745-5.309a3.9 3.9 0 0 0-.194-1.268 2.757 2.757 0 0 0-.536-1 2.366 2.366 0 0 0-.88-.642 2.973 2.973 0 0 0-1.179-.223h-1.507v6.297h1.507c.449 0 .846-.08 1.194-.239.349-.158.636-.377.865-.654a2.94 2.94 0 0 0 .536-1c.129-.388.194-.81.194-1.268v-.003Z" fill="#fff" fill-opacity=".5"/><path fill-rule="evenodd" clip-rule="evenodd" d="M34.228 190.477h15.28v23.365h-15.28v-23.365Z" fill="#FECB02"/><path fill-rule="evenodd" clip-rule="evenodd" d="M34.97 190.477H20.496v23.365H34.97v-23.365Z" fill="#85BB2F"/><path d="M37.042 201.819c0-.635.12-1.268.358-1.894a5.172 5.172 0 0 1 1.046-1.7 5.326 5.326 0 0 1 1.672-1.209c.655-.31 1.404-.462 2.24-.462.993 0 1.855.213 2.581.642.736.429 1.285.984 1.643 1.671L44.7 200.18a2.097 2.097 0 0 0-.461-.687 2.081 2.081 0 0 0-.597-.448c-.22-.12-.442-.2-.672-.239a3.266 3.266 0 0 0-.67-.074c-.469 0-.875.093-1.224.284-.348.19-.636.432-.865.732-.229.297-.397.636-.506 1.013-.11.377-.165.761-.165 1.148 0 .416.065.82.194 1.21.129.387.313.732.551 1.029.249.297.543.536.882.716.348.168.735.255 1.164.255.22 0 .443-.026.672-.074a2.592 2.592 0 0 0 1.268-.703c.178-.191.323-.416.433-.687l2 1.177a3.061 3.061 0 0 1-.716 1.045c-.31.31-.668.568-1.075.774-.406.21-.842.368-1.297.478a5.8 5.8 0 0 1-1.343.164 4.907 4.907 0 0 1-2.12-.461 5.59 5.59 0 0 1-1.655-1.252 5.842 5.842 0 0 1-1.075-1.761 5.604 5.604 0 0 1-.374-2h-.007ZM32.885 204.58c0 .458-.093.855-.284 1.194-.19.339-.448.623-.774.852a3.89 3.89 0 0 1-1.149.506c-.439.11-.9.165-1.388.165h-5.163v-10.591h5.896c.368 0 .7.081 1 .239.297.158.552.368.762.626.21.248.368.535.478.864a2.824 2.824 0 0 1-.21 2.416c-.249.449-.626.787-1.133 1.013.607.178 1.084.497 1.433.955.358.458.536 1.045.536 1.761h-.004Zm-2.491-.493c0-.329-.094-.607-.284-.836a.892.892 0 0 0-.716-.342h-2.821v2.313h2.717c.32 0 .581-.103.79-.313.21-.209.314-.483.314-.819v-.003Zm-3.821-5.297v2.194h2.404c.268 0 .507-.091.717-.268.21-.178.313-.458.313-.836 0-.348-.094-.616-.284-.806a.858.858 0 0 0-.655-.284h-2.495Z" fill="#fff" fill-opacity=".5"/><path fill-rule="evenodd" clip-rule="evenodd" d="M11.867 187.441h1.568a7.804 7.804 0 0 1 7.823 7.82v13.707a7.803 7.803 0 0 1-7.823 7.819h-1.569a7.803 7.803 0 0 1-7.822-7.819v-13.707a7.804 7.804 0 0 1 7.823-7.82Z" fill="#000"/><path d="M13.435 218h-1.569c-4.982 0-9.039-4.052-9.039-9.036v-13.706c0-4.981 4.053-9.036 9.04-9.036h1.568c4.983 0 9.04 4.052 9.04 9.036v13.706c0 4.981-4.054 9.036-9.04 9.036Zm-1.569-29.343a6.612 6.612 0 0 0-6.606 6.604v13.706a6.612 6.612 0 0 0 6.607 6.604h1.568a6.612 6.612 0 0 0 6.606-6.604v-13.706a6.612 6.612 0 0 0-6.606-6.604h-1.569Z" fill="#fff"/><path fill-rule="evenodd" clip-rule="evenodd" d="M11.867 187.441h1.568a7.804 7.804 0 0 1 7.823 7.82v13.707a7.803 7.803 0 0 1-7.823 7.819h-1.569a7.803 7.803 0 0 1-7.822-7.819v-13.707a7.804 7.804 0 0 1 7.823-7.82Z" fill="#038141"/><path d="M11.315 195.416h2.672l4.676 13.964H15.63l-.993-3.125h-3.99l-.974 3.125H6.638l4.677-13.964Zm2.833 8.616-1.497-4.936-1.533 4.936h3.033-.003Z" fill="#fff"/><path d="M245.259 120.076c5.251-6.761 20.022.693 14.107-14.5-5.916-15.194 14.577-16.733 20.89-13.826 1.868.861 3.701 2.2 5.437 3.877a42.594 42.594 0 0 0-.345-12.49c-12.725-3.955-15.139-14.24-21.758-10.09-6.767 4.241-16.013-4.45-15.226-10.643.597-4.7 3.466-10.839 2.056-13.671a42.572 42.572 0 0 0-6.8-.545 42.33 42.33 0 0 0-15.575 2.951c2.776 8.575 5.038 13.017-1.891 18.24-8.526 6.425-15.294 2.125-15.294 11.883 0 9.759 6.429 13.82 0 19.907-1.82 1.726-4.431 2.771-7.274 3.3a42.32 42.32 0 0 0 5.519 10.662c9.294-7.184 20.154 3.458 23.113 8.797 1.285 2.319 1.033 4.916.139 7.461a42.489 42.489 0 0 0 13.851 1.432c-2.491-5.158-3.243-9.797-.955-12.748l.006.003Zm-8.794-6.145c-4.915 1.058-5.98-12.584-8.978-18.691-2.998-6.106-7.132-10.578-3.598-14.336 3.534-3.758 7.119 0 13.154-4.777 6.451-5.11 12.163.177 13.232 5.045 1.068 4.868-3.011 10.149-3.899 12.746-.589 1.728-.689 4.56-.3 8.496.584 5.9-4.696 10.465-9.611 11.523v-.006Z" fill="#78E6FF"/><path d="M248.37 62.404c-.787 6.194 8.459 14.88 15.227 10.642 6.619-4.148 9.029 6.136 21.758 10.09-3.118-17.658-17.179-31.538-34.929-34.403 1.414 2.832-1.458 8.971-2.056 13.671ZM246.079 102.408c-.389-3.934-.289-6.766.3-8.497.885-2.594 4.967-7.878 3.899-12.745-1.068-4.868-6.781-10.155-13.232-5.046-6.032 4.778-9.62 1.02-13.154 4.778-3.534 3.758.6 8.229 3.598 14.336 2.998 6.106 4.063 19.748 8.978 18.69 4.916-1.058 10.195-5.623 9.611-11.523v.007ZM232.225 123.928c-2.96-5.339-13.819-15.981-23.114-8.797 5.58 7.813 13.748 13.648 23.252 16.258.894-2.545 1.146-5.145-.138-7.461ZM210.867 81.266c0-9.762 6.767-5.459 15.294-11.884 6.929-5.223 4.666-9.665 1.891-18.24-15.701 6.204-26.805 21.51-26.805 39.408 0 4.877.829 9.564 2.346 13.926 2.843-.529 5.454-1.575 7.274-3.3 6.429-6.088 0-10.146 0-19.907v-.003ZM259.369 105.576c5.912 15.19-8.859 7.739-14.106 14.5-2.292 2.948-1.536 7.59.955 12.748 20.503-1.235 37.071-17.042 39.482-37.197-1.74-1.674-3.573-3.016-5.438-3.877-6.312-2.907-26.802-1.365-20.89 13.826h-.003Z" fill="#009664"/></g><defs><clipPath id="a"><path fill="#fff" d="M0 0h286v218H0z"/></clipPath></defs></svg>