<svg width="286" height="218" viewBox="0 0 286 218" fill="none" xmlns="http://www.w3.org/2000/svg">
    <g clip-path="url(#clip0_3143_2095)">
        <path d="M126.523 196.432H158.912C170.82 196.432 180.489 206.097 180.489 218H104.946C104.946 206.097 114.615 196.432 126.523 196.432Z" fill="#784600"/>
        <path d="M142.789 202.929C140.981 202.929 139.516 201.464 139.516 199.658V28.0552C139.516 26.2487 140.981 24.7842 142.789 24.7842C144.596 24.7842 146.061 26.2487 146.061 28.0552V199.658C146.061 201.464 144.596 202.929 142.789 202.929Z" fill="#784600"/>
        <path d="M154.887 17.9679C153.267 17.9679 151.86 16.7647 151.647 15.1163C151.415 13.3259 152.683 11.6872 154.474 11.4549L243.23 0.025735C245.021 -0.206527 246.66 1.06123 246.892 2.85158C247.125 4.64193 245.857 6.28067 244.065 6.51293L155.31 17.9421C155.168 17.9615 155.026 17.9679 154.887 17.9679Z" fill="#784600"/>
        <path d="M41.9281 32.5134C40.308 32.5134 38.9009 31.3102 38.6879 29.6617C38.4588 27.8714 39.7239 26.2327 41.515 26.0004L130.025 14.6035C131.816 14.3744 133.455 15.639 133.688 17.4293C133.917 19.2197 132.652 20.8584 130.861 21.0906L42.3508 32.4876C42.2088 32.5069 42.0668 32.5134 41.9281 32.5134Z" fill="#784600"/>
        <path d="M142.789 29.7003C135.372 29.7003 129.338 23.6679 129.338 16.2549C129.338 8.84192 135.372 2.80957 142.789 2.80957C150.205 2.80957 156.24 8.84192 156.24 16.2549C156.24 23.6679 150.205 29.7003 142.789 29.7003ZM142.789 8.17094C138.329 8.17094 134.701 11.7968 134.701 16.2549C134.701 20.7131 138.329 24.3389 142.789 24.3389C147.249 24.3389 150.876 20.7131 150.876 16.2549C150.876 11.7968 147.249 8.17094 142.789 8.17094Z" fill="#784600"/>
        <path d="M41.9314 86.7884C41.2892 86.7884 40.7664 86.2658 40.7664 85.6238V29.0649C40.7664 28.423 41.2892 27.9004 41.9314 27.9004C42.5736 27.9004 43.0964 28.423 43.0964 29.0649V85.6238C43.0964 86.2658 42.5736 86.7884 41.9314 86.7884Z" fill="#784600"/>
        <path d="M243.649 60.9912C243.007 60.9912 242.484 60.4686 242.484 59.8267V3.27098C242.484 2.62903 243.007 2.10645 243.649 2.10645C244.291 2.10645 244.814 2.62903 244.814 3.27098V59.8267C244.814 60.4686 244.291 60.9912 243.649 60.9912Z" fill="#784600"/>
        <path d="M41.9313 157.809C65.0894 157.809 83.8627 139.043 83.8627 115.895C83.8627 92.747 65.0894 73.9817 41.9313 73.9817C18.7733 73.9817 0 92.747 0 115.895C0 139.043 18.7733 157.809 41.9313 157.809Z" fill="#FFC88C"/>
        <path d="M41.9313 136.867C33.7987 136.867 25.6661 133.773 19.4763 127.586C18.8341 126.944 18.8341 125.905 19.4763 125.263C20.1185 124.621 21.1577 124.621 21.7999 125.263C32.9016 136.36 50.9611 136.36 62.0628 125.263C62.705 124.621 63.7442 124.621 64.3864 125.263C65.0286 125.905 65.0286 126.944 64.3864 127.586C58.1965 133.773 50.0639 136.867 41.9313 136.867Z" fill="black"/>
        <path d="M35.2898 108.405C34.9251 108.405 34.5636 108.266 34.2861 107.989C32.4756 106.179 30.0681 105.182 27.5089 105.182C24.9497 105.182 22.5455 106.179 20.7318 107.989C20.1767 108.543 19.2795 108.543 18.7244 107.989C18.1693 107.434 18.1693 106.537 18.7244 105.982C21.0738 103.634 24.1913 102.343 27.5089 102.343C30.8265 102.343 33.944 103.637 36.2934 105.982C36.8485 106.537 36.8485 107.437 36.2934 107.989C36.0159 108.266 35.6512 108.405 35.2898 108.405Z" fill="black"/>
        <path d="M64.1314 108.405C63.7668 108.405 63.4053 108.266 63.1278 107.989C61.3173 106.179 58.9098 105.182 56.3506 105.182C53.7914 105.182 51.3871 106.179 49.5734 107.989C49.0183 108.543 48.1212 108.543 47.5661 107.989C47.011 107.434 47.011 106.537 47.5661 105.982C49.9155 103.634 53.033 102.343 56.3506 102.343C59.6682 102.343 62.7857 103.637 65.1351 105.982C65.6902 106.537 65.6902 107.437 65.1351 107.989C64.8576 108.266 64.4929 108.405 64.1314 108.405Z" fill="black"/>
        <path d="M238.13 196.096H229.966C230.224 197.987 231.841 198.942 233.438 198.942C235.784 198.942 236.956 197.803 236.956 197.803V200.08C236.956 200.08 235.784 201.219 233.438 201.219C229.92 201.219 227.574 198.942 227.574 195.525C227.574 192.109 229.92 189.832 232.854 189.832C235.788 189.832 238.134 192.109 238.134 195.525V196.096H238.13ZM230.037 194.39H235.668C235.339 192.864 234.284 192.112 232.854 192.112C231.424 192.112 230.369 192.864 230.04 194.39H230.037Z" fill="#1D1D1B"/>
        <path d="M247.544 190.406V192.683C247.544 192.683 245.837 192.116 244.698 192.116C242.991 192.116 241.28 193.254 241.28 195.532C241.28 197.809 242.987 198.948 244.698 198.948C245.837 198.948 247.544 198.38 247.544 198.38V200.658C247.544 200.658 246.405 201.225 244.698 201.225C241.28 201.225 239.002 198.948 239.002 195.532C239.002 192.116 241.28 189.838 244.698 189.838C246.405 189.838 247.544 190.409 247.544 190.409V190.406Z" fill="#1D1D1B"/>
        <path d="M259.801 195.529C259.801 198.945 257.523 201.222 254.105 201.222C250.688 201.222 248.409 198.945 248.409 195.529C248.409 192.112 250.688 189.835 254.105 189.835C257.523 189.835 259.801 192.112 259.801 195.529ZM250.691 195.529C250.691 197.806 252.398 198.945 254.108 198.945C255.819 198.945 257.526 197.806 257.526 195.529C257.526 193.251 255.819 192.112 254.108 192.112C252.398 192.112 250.691 193.251 250.691 195.529Z" fill="#1D1D1B"/>
        <path d="M230.079 218C228.92 218 227.758 217.613 227.758 217.613V216.068C227.758 216.068 228.917 216.455 230.079 216.455C230.85 216.455 231.237 216.068 231.237 215.684C231.237 214.526 227.578 215.297 227.578 212.593C227.578 211.048 228.533 210.274 230.079 210.274C231.237 210.274 232.399 210.661 232.399 210.661V212.206C232.399 212.206 231.24 211.819 230.079 211.819C229.307 211.819 228.92 212.206 228.92 212.59C228.92 213.748 232.786 212.977 232.786 215.68C232.786 217.226 231.624 218 230.082 218H230.079Z" fill="#1D1D1B"/>
        <path d="M239.044 210.661V212.206C239.044 212.206 237.885 211.819 237.111 211.819C235.952 211.819 234.79 212.59 234.79 214.138C234.79 215.687 235.949 216.458 237.111 216.458C237.882 216.458 239.044 216.071 239.044 216.071V217.616C239.044 217.616 238.273 218.003 237.111 218.003C234.79 218.003 233.245 216.458 233.245 214.138C233.245 211.819 234.79 210.274 237.111 210.274C238.269 210.274 239.044 210.661 239.044 210.661Z" fill="#1D1D1B"/>
        <path d="M247.406 214.138C247.406 216.458 245.86 218.003 243.539 218.003C241.219 218.003 239.673 216.458 239.673 214.138C239.673 211.819 241.219 210.274 243.539 210.274C245.86 210.274 247.406 211.819 247.406 214.138ZM241.222 214.138C241.222 215.684 242.381 216.458 243.543 216.458C244.704 216.458 245.863 215.687 245.863 214.138C245.863 212.59 244.704 211.819 243.543 211.819C242.381 211.819 241.222 212.593 241.222 214.138Z" fill="#1D1D1B"/>
        <path d="M252.708 210.274V211.819C251.162 211.819 249.616 212.206 249.616 214.138V218.003H248.07V210.277H249.616V213.368C249.616 211.435 250.775 210.277 252.708 210.277V210.274Z" fill="#1D1D1B"/>
        <path d="M259.743 214.526H254.364C254.535 215.809 255.6 216.458 256.652 216.458C258.197 216.458 258.972 215.687 258.972 215.687V217.232C258.972 217.232 258.201 218.003 256.652 218.003C254.331 218.003 252.785 216.458 252.785 214.138C252.785 211.819 254.331 210.274 256.264 210.274C258.197 210.274 259.743 211.819 259.743 214.138V214.526ZM254.409 213.368H258.12C257.904 212.332 257.207 211.822 256.264 211.822C255.322 211.822 254.625 212.332 254.409 213.368Z" fill="#1D1D1B"/>
        <path d="M260.76 205.667C260.76 204.325 259.669 203.235 258.326 203.235H251.314C249.971 203.235 248.88 204.325 248.88 205.667C248.88 207.009 249.971 208.1 251.314 208.1H258.326C259.672 208.1 260.76 207.009 260.76 205.667Z" fill="#D93726"/>
        <path d="M261.066 205.667C261.066 207.177 259.837 208.406 258.327 208.406H251.314C249.803 208.406 248.574 207.177 248.574 205.667C248.574 204.158 249.803 202.929 251.314 202.929H258.327C259.837 202.929 261.066 204.158 261.066 205.667ZM258.327 207.793C259.498 207.793 260.453 206.838 260.453 205.667C260.453 204.496 259.498 203.542 258.327 203.542H251.314C250.142 203.542 249.187 204.496 249.187 205.667C249.187 206.838 250.142 207.793 251.314 207.793H258.327Z" fill="white"/>
        <path d="M254.328 205.667C254.328 204.325 253.237 203.235 251.895 203.235H245.163C243.82 203.235 242.729 204.325 242.729 205.667C242.729 207.009 243.82 208.1 245.163 208.1H251.895C253.24 208.1 254.328 207.009 254.328 205.667Z" fill="#EF7E1A"/>
        <path d="M254.635 205.667C254.635 207.177 253.405 208.406 251.895 208.406H245.176C243.665 208.406 242.436 207.177 242.436 205.667C242.436 204.158 243.665 202.929 245.176 202.929H251.895C253.405 202.929 254.635 204.158 254.635 205.667ZM251.895 207.793C253.066 207.793 254.021 206.838 254.021 205.667C254.021 204.496 253.066 203.542 251.895 203.542H245.176C244.004 203.542 243.049 204.496 243.049 205.667C243.049 206.838 244.004 207.793 245.176 207.793H251.895Z" fill="white"/>
        <path d="M248.27 205.667C248.27 204.325 247.18 203.235 245.837 203.235H239.037C237.695 203.235 236.604 204.325 236.604 205.667C236.604 207.009 237.695 208.1 239.037 208.1H245.837C247.183 208.1 248.27 207.009 248.27 205.667Z" fill="#F5C100"/>
        <path d="M248.577 205.667C248.577 207.177 247.348 208.406 245.837 208.406H239.037C237.527 208.406 236.297 207.177 236.297 205.667C236.297 204.158 237.527 202.929 239.037 202.929H245.837C247.348 202.929 248.577 204.158 248.577 205.667ZM245.837 207.793C247.009 207.793 247.964 206.838 247.964 205.667C247.964 204.496 247.009 203.542 245.837 203.542H239.037C237.866 203.542 236.911 204.496 236.911 205.667C236.911 206.838 237.866 207.793 239.037 207.793H245.837Z" fill="white"/>
        <path d="M242.129 205.667C242.129 204.325 241.038 203.235 239.696 203.235H232.896C231.553 203.235 230.463 204.325 230.463 205.667C230.463 207.009 231.553 208.1 232.896 208.1H239.696C241.038 208.1 242.129 207.009 242.129 205.667Z" fill="#2ECC71"/>
        <path d="M242.436 205.667C242.436 207.177 241.206 208.406 239.696 208.406H232.896C231.386 208.406 230.156 207.177 230.156 205.667C230.156 204.158 231.386 202.929 232.896 202.929H239.696C241.206 202.929 242.436 204.158 242.436 205.667ZM239.696 207.793C240.867 207.793 241.822 206.838 241.822 205.667C241.822 204.496 240.867 203.542 239.696 203.542H232.896C231.724 203.542 230.769 204.496 230.769 205.667C230.769 206.838 231.724 207.793 232.896 207.793H239.696Z" fill="white"/>
        <path d="M236.001 205.667C236.001 204.325 234.91 203.235 233.567 203.235H228.968C227.626 203.235 226.535 204.325 226.535 205.667C226.535 207.009 227.626 208.1 228.968 208.1H233.567C234.91 208.1 236.001 207.009 236.001 205.667Z" fill="#1E8F4E"/>
        <path d="M236.307 205.667C236.307 207.177 235.078 208.406 233.567 208.406H228.968C227.458 208.406 226.229 207.177 226.229 205.667C226.229 204.158 227.458 202.929 228.968 202.929H233.567C235.078 202.929 236.307 204.158 236.307 205.667ZM233.567 207.793C234.739 207.793 235.694 206.838 235.694 205.667C235.694 204.496 234.739 203.542 233.567 203.542H228.968C227.797 203.542 226.842 204.496 226.842 205.667C226.842 206.838 227.797 207.793 228.968 207.793H233.567Z" fill="white"/>
        <path d="M256.639 158.809C257.136 158.767 257.597 159.228 257.555 159.725C257.494 160.431 256.613 176.506 251.469 181.648C246.537 186.577 240.725 185.422 236.93 182.693C236.885 182.661 236.833 182.619 236.775 182.574L233.354 185.986C232.528 186.812 231.189 186.812 230.363 185.986C229.536 185.161 229.536 183.822 230.363 182.996L233.78 179.577C233.735 179.519 233.696 179.467 233.661 179.422C230.934 175.628 229.775 169.822 234.706 164.889C239.854 159.744 255.932 158.863 256.639 158.805V158.809Z" fill="#1E8F4E"/>
        <path d="M247.796 178.493C248.538 178.493 249.068 177.996 249.068 177.296C249.068 177.044 249.026 176.815 248.906 176.486L245.569 167.441C245.208 166.448 244.617 166.009 243.623 166.009C242.629 166.009 242.065 166.464 241.71 167.448L238.392 176.483C238.282 176.796 238.224 177.08 238.224 177.293C238.224 178.025 238.721 178.49 239.512 178.49C240.186 178.49 240.564 178.154 240.799 177.344L241.438 175.451H245.827L246.466 177.37C246.692 178.161 247.073 178.49 247.79 178.49L247.796 178.493ZM245.243 173.483H242L243.575 168.506H243.633L245.243 173.483Z" fill="white"/>
        <path fill-rule="evenodd" clip-rule="evenodd" d="M56.5701 190.477H71.0442V213.842H56.5701V190.477Z" fill="#E63E11"/>
        <path fill-rule="evenodd" clip-rule="evenodd" d="M14.4225 190.477H28.8966V213.842H14.4225V190.477Z" fill="#038141"/>
        <path fill-rule="evenodd" clip-rule="evenodd" d="M11.4792 190.477H15.0937C18.1015 190.477 20.5219 192.896 20.5219 195.903V208.413C20.5219 211.419 18.1015 213.838 15.0937 213.838H11.4792C8.47145 213.838 6.05103 211.419 6.05103 208.413V195.903C6.05103 192.896 8.47145 190.477 11.4792 190.477Z" fill="#038141"/>
        <path d="M11.3856 196.703H13.593L17.4593 207.293H14.9517L14.132 204.922H10.8338L10.027 207.293H7.51941L11.3856 196.703ZM13.7286 203.238L12.4893 199.493L11.221 203.238H13.7286Z" fill="black"/>
        <path fill-rule="evenodd" clip-rule="evenodd" d="M69.3628 190.477H72.9773C75.985 190.477 78.4054 192.896 78.4054 195.903V208.413C78.4054 211.419 75.985 213.838 72.9773 213.838H69.3628C66.355 213.838 63.9346 211.419 63.9346 208.413V195.903C63.9346 192.896 66.355 190.477 69.3628 190.477Z" fill="#E63E11"/>
        <path d="M74.1132 205.145V207.293H66.6648V196.703H73.9777V198.851H69.111V200.909H73.2903V202.893H69.111V205.145H74.11H74.1132Z" fill="white" fill-opacity="0.5"/>
        <path d="M9.04584 182.722V185.783H7.80981V180.428H8.77475L11.2726 183.573V180.428H12.5087V185.783H11.5114L9.04584 182.722Z" fill="#7D7D7D"/>
        <path d="M15.8425 184.725C16.0522 184.725 16.2329 184.683 16.3782 184.596C16.5234 184.506 16.6428 184.386 16.7332 184.241C16.8235 184.096 16.8881 183.928 16.9203 183.744C16.9591 183.554 16.9817 183.361 16.9817 183.164V180.425H18.2177V183.164C18.2177 183.535 18.1693 183.883 18.0757 184.206C17.9853 184.528 17.8433 184.809 17.6465 185.051C17.4561 185.293 17.2076 185.483 16.9074 185.625C16.6105 185.761 16.2555 185.828 15.8425 185.828C15.4294 185.828 15.0518 185.754 14.7484 185.609C14.4451 185.464 14.1998 185.27 14.0094 185.028C13.8222 184.783 13.6834 184.499 13.5931 184.177C13.5092 183.854 13.464 183.519 13.464 183.167V180.428H14.7V183.167C14.7 183.373 14.7194 183.57 14.7613 183.754C14.8001 183.941 14.8678 184.106 14.9582 184.251C15.0486 184.396 15.1647 184.512 15.3067 184.599C15.452 184.683 15.6327 184.728 15.8425 184.728V184.725Z" fill="#7D7D7D"/>
        <path d="M23.2521 181.515H21.6224V185.783H20.3863V181.515H18.7501V180.428H23.2553V181.515H23.2521Z" fill="#7D7D7D"/>
        <path d="M23.8556 185.783V180.428H26.2696C26.5213 180.428 26.7536 180.48 26.9634 180.586C27.1796 180.693 27.3668 180.831 27.5217 181.002C27.6766 181.173 27.7993 181.367 27.8832 181.583C27.9735 181.799 28.0187 182.019 28.0187 182.238C28.0187 182.402 27.9993 182.564 27.9574 182.722C27.9187 182.873 27.8606 183.015 27.7831 183.151C27.7089 183.286 27.6153 183.409 27.5056 183.522C27.3991 183.628 27.2797 183.719 27.1441 183.793L28.3221 185.783H26.9279L25.9017 184.057H25.0948V185.783H23.8588H23.8556ZM25.0916 182.977H26.2244C26.3696 182.977 26.4955 182.909 26.602 182.773C26.7085 182.631 26.7601 182.454 26.7601 182.238C26.7601 182.022 26.6988 181.841 26.5794 181.709C26.46 181.577 26.3276 181.512 26.1856 181.512H25.0916V182.973V182.977Z" fill="#7D7D7D"/>
        <path d="M28.9094 185.783V180.428H30.1455V185.783H28.9094Z" fill="#7D7D7D"/>
        <path d="M31.0717 184.251V183.164H33.3953V184.251H31.0717Z" fill="#7D7D7D"/>
        <path d="M37.5294 181.996C37.5133 181.977 37.4616 181.938 37.3713 181.883C37.2809 181.828 37.1679 181.77 37.0324 181.709C36.8969 181.648 36.7484 181.596 36.587 181.551C36.4257 181.506 36.2643 181.483 36.103 181.483C35.6608 181.483 35.4381 181.632 35.4381 181.928C35.4381 182.019 35.4607 182.093 35.5059 182.154C35.5576 182.215 35.6253 182.27 35.7157 182.319C35.8125 182.364 35.9287 182.406 36.0707 182.448C36.2127 182.486 36.374 182.532 36.5612 182.583C36.8162 182.654 37.0485 182.732 37.2551 182.815C37.4616 182.896 37.6359 182.999 37.7747 183.125C37.9199 183.244 38.0296 183.393 38.1071 183.57C38.1877 183.748 38.2265 183.957 38.2265 184.203C38.2265 184.506 38.1684 184.761 38.0522 184.97C37.9425 185.177 37.794 185.345 37.6068 185.477C37.4197 185.603 37.2067 185.696 36.9646 185.754C36.7226 185.809 36.4741 185.838 36.2191 185.838C36.0223 185.838 35.8222 185.822 35.6156 185.793C35.4091 185.764 35.209 185.719 35.0122 185.664C34.8153 185.603 34.6249 185.532 34.4377 185.454C34.257 185.374 34.0892 185.28 33.931 185.177L34.4732 184.099C34.4926 184.125 34.5571 184.174 34.6701 184.241C34.7798 184.312 34.9153 184.383 35.0767 184.451C35.2413 184.522 35.4252 184.583 35.6286 184.638C35.8286 184.693 36.032 184.722 36.2385 184.722C36.6774 184.722 36.8936 184.59 36.8936 184.322C36.8936 184.222 36.8614 184.138 36.7968 184.074C36.7323 184.009 36.6419 183.951 36.5257 183.899C36.4095 183.845 36.2708 183.793 36.1094 183.748C35.9545 183.703 35.7835 183.651 35.5963 183.596C35.351 183.522 35.1348 183.441 34.9541 183.354C34.7733 183.264 34.6217 183.161 34.5023 183.044C34.3861 182.928 34.2989 182.796 34.2376 182.644C34.1828 182.493 34.1537 182.319 34.1537 182.115C34.1537 181.835 34.2053 181.586 34.3118 181.37C34.4183 181.154 34.5603 180.973 34.7411 180.828C34.9218 180.677 35.1316 180.564 35.3671 180.49C35.6092 180.415 35.8609 180.377 36.1288 180.377C36.3159 180.377 36.4999 180.393 36.6806 180.428C36.8614 180.464 37.0356 180.509 37.2002 180.564C37.3648 180.619 37.5197 180.683 37.6617 180.751C37.8069 180.822 37.9392 180.893 38.0619 180.961L37.5197 181.986L37.5294 181.996Z" fill="#7D7D7D"/>
        <path d="M38.6493 183.061C38.6493 182.738 38.7106 182.419 38.83 182.103C38.9494 181.78 39.1269 181.493 39.3593 181.245C39.5916 180.993 39.8724 180.79 40.2048 180.635C40.5372 180.48 40.9148 180.403 41.3376 180.403C41.841 180.403 42.2767 180.512 42.6414 180.728C43.0125 180.945 43.29 181.225 43.4708 181.574L42.5187 182.238C42.4574 182.096 42.38 181.983 42.2864 181.89C42.196 181.793 42.096 181.719 41.983 181.664C41.8733 181.603 41.7603 181.564 41.6442 181.545C41.528 181.519 41.415 181.506 41.3053 181.506C41.0697 181.506 40.8632 181.554 40.6857 181.648C40.5082 181.741 40.3629 181.867 40.2468 182.019C40.1306 182.17 40.0467 182.341 39.9918 182.532C39.937 182.722 39.9079 182.916 39.9079 183.112C39.9079 183.322 39.9402 183.528 40.0047 183.722C40.0693 183.916 40.1629 184.093 40.2823 184.241C40.4081 184.393 40.5566 184.512 40.7276 184.603C40.9051 184.687 41.0988 184.732 41.315 184.732C41.4247 184.732 41.5377 184.719 41.6538 184.693C41.7732 184.664 41.8862 184.619 41.9927 184.564C42.1024 184.503 42.2025 184.428 42.2961 184.338C42.3864 184.241 42.4606 184.128 42.5155 183.99L43.5256 184.587C43.4449 184.783 43.3255 184.957 43.1642 185.116C43.0093 185.27 42.8286 185.403 42.622 185.509C42.4155 185.616 42.196 185.696 41.9669 185.751C41.7345 185.806 41.5086 185.835 41.2892 185.835C40.9019 185.835 40.5437 185.758 40.2177 185.603C39.895 185.441 39.6175 185.232 39.3819 184.97C39.1495 184.709 38.9688 184.412 38.8397 184.08C38.7138 183.748 38.6525 183.412 38.6525 183.07L38.6493 183.061Z" fill="#7D7D7D"/>
        <path d="M46.4301 185.828C46.0332 185.828 45.6717 185.751 45.3426 185.596C45.0166 185.441 44.7358 185.238 44.5067 184.987C44.2743 184.732 44.0936 184.438 43.9645 184.112C43.8387 183.787 43.7773 183.448 43.7773 183.103C43.7773 182.757 43.8419 182.412 43.9742 182.083C44.1097 181.757 44.2969 181.47 44.5325 181.225C44.7746 180.974 45.0586 180.777 45.3845 180.628C45.7105 180.477 46.0687 180.403 46.4559 180.403C46.8432 180.403 47.2143 180.48 47.5435 180.635C47.8695 180.79 48.1502 180.996 48.3794 181.254C48.6117 181.509 48.7892 181.803 48.9151 182.128C49.041 182.454 49.1023 182.786 49.1023 183.125C49.1023 183.464 49.0345 183.816 48.899 184.145C48.7666 184.47 48.5859 184.761 48.3471 185.012C48.1115 185.258 47.8275 185.458 47.5016 185.609C47.1756 185.761 46.8174 185.835 46.4301 185.835V185.828ZM45.036 183.112C45.036 183.319 45.065 183.519 45.1263 183.716C45.1876 183.906 45.2748 184.077 45.391 184.228C45.5104 184.38 45.6588 184.499 45.8363 184.59C46.0138 184.68 46.2139 184.725 46.4398 184.725C46.6754 184.725 46.8819 184.677 47.0594 184.583C47.2369 184.487 47.3822 184.364 47.4983 184.212C47.6145 184.057 47.6984 183.883 47.7533 183.693C47.8146 183.496 47.8437 183.299 47.8437 183.096C47.8437 182.893 47.8146 182.693 47.7533 182.499C47.692 182.303 47.6016 182.132 47.4822 181.986C47.3628 181.835 47.2143 181.719 47.0368 181.632C46.8658 181.541 46.6657 181.496 46.4398 181.496C46.2139 181.496 45.9977 181.545 45.8202 181.638C45.6491 181.728 45.5039 181.848 45.3813 181.999C45.2651 182.151 45.178 182.325 45.1166 182.519C45.0618 182.709 45.0327 182.906 45.0327 183.106L45.036 183.112Z" fill="#7D7D7D"/>
        <path d="M49.8154 185.783V180.428H52.2294C52.4811 180.428 52.7135 180.48 52.9232 180.586C53.1395 180.693 53.3267 180.831 53.4816 181.002C53.6365 181.173 53.7591 181.367 53.843 181.583C53.9334 181.799 53.9785 182.019 53.9785 182.238C53.9785 182.402 53.9592 182.564 53.9172 182.722C53.8785 182.873 53.8204 183.015 53.743 183.151C53.6687 183.286 53.5751 183.409 53.4654 183.522C53.3557 183.635 53.2395 183.719 53.104 183.793L54.2819 185.783H52.8878L51.8615 184.057H51.0547V185.783H49.8187H49.8154ZM51.0515 182.977H52.1842C52.3294 182.977 52.4553 182.909 52.5618 182.773C52.6683 182.631 52.7199 182.454 52.7199 182.238C52.7199 182.022 52.6586 181.841 52.5392 181.709C52.4198 181.577 52.2875 181.512 52.1455 181.512H51.0515V182.973V182.977Z" fill="#7D7D7D"/>
        <path d="M58.6355 184.696V185.783H54.8726V180.428H58.5677V181.515H56.1086V182.557H58.2224V183.561H56.1086V184.699H58.6355V184.696Z" fill="#7D7D7D"/>
        <path fill-rule="evenodd" clip-rule="evenodd" d="M21.0125 190.477H35.4866V213.842H21.0125V190.477Z" fill="#EE8100"/>
        <path fill-rule="evenodd" clip-rule="evenodd" d="M49.4862 190.477H63.9603V213.842H49.4862V190.477Z" fill="#EE8100"/>
        <path d="M52.1036 207.293V196.703H56.0601C56.9347 196.703 57.7028 196.842 58.3579 197.119C59.0131 197.396 59.5617 197.774 60.0006 198.251C60.4492 198.729 60.7816 199.29 61.001 199.938C61.2302 200.574 61.3431 201.258 61.3431 201.984C61.3431 202.79 61.2173 203.519 60.9688 204.177C60.7203 204.822 60.362 205.38 59.8941 205.848C59.4358 206.306 58.8807 206.664 58.2224 206.922C57.5769 207.171 56.854 207.297 56.0569 207.297H52.1003L52.1036 207.293ZM58.8485 201.984C58.8485 201.516 58.7839 201.093 58.6548 200.716C58.5354 200.329 58.3579 199.993 58.1191 199.716C57.8803 199.438 57.5866 199.222 57.2381 199.074C56.8895 198.925 56.4958 198.851 56.0601 198.851H54.553V205.148H56.0601C56.5087 205.148 56.9057 205.068 57.2542 204.909C57.6028 204.751 57.89 204.532 58.1191 204.255C58.3579 203.967 58.5354 203.632 58.6548 203.255C58.7839 202.867 58.8485 202.445 58.8485 201.987V201.984Z" fill="white" fill-opacity="0.5"/>
        <path fill-rule="evenodd" clip-rule="evenodd" d="M34.2279 190.477H49.5088V213.842H34.2279V190.477Z" fill="#FECB02"/>
        <path fill-rule="evenodd" clip-rule="evenodd" d="M34.9702 190.477H20.4961V213.842H34.9702V190.477Z" fill="#85BB2F"/>
        <path d="M37.0421 201.819C37.0421 201.184 37.1615 200.551 37.4003 199.925C37.6392 199.29 37.9877 198.722 38.446 198.225C38.9042 197.729 39.4593 197.325 40.1177 197.016C40.7728 196.706 41.5215 196.554 42.3574 196.554C43.3513 196.554 44.213 196.767 44.9391 197.196C45.6749 197.625 46.2236 198.18 46.5818 198.867L44.7003 200.18C44.5809 199.903 44.426 199.674 44.2388 199.493C44.0613 199.303 43.8612 199.154 43.6418 199.045C43.4223 198.925 43.1997 198.845 42.9705 198.806C42.7414 198.758 42.5187 198.732 42.2993 198.732C41.8313 198.732 41.4247 198.825 41.0761 199.016C40.7276 199.206 40.4404 199.448 40.2112 199.748C39.9821 200.045 39.8143 200.384 39.7046 200.761C39.5948 201.138 39.54 201.522 39.54 201.909C39.54 202.325 39.6045 202.729 39.7336 203.119C39.8627 203.506 40.0467 203.851 40.2855 204.148C40.534 204.445 40.8276 204.684 41.1665 204.864C41.515 205.032 41.9023 205.119 42.3315 205.119C42.551 205.119 42.7737 205.093 43.0028 205.045C43.2416 204.987 43.4643 204.9 43.6741 204.79C43.8935 204.671 44.0904 204.522 44.2711 204.342C44.4486 204.151 44.5938 203.926 44.7036 203.655L46.7044 204.832C46.5463 205.219 46.3075 205.567 45.988 205.877C45.6782 206.187 45.3199 206.445 44.9133 206.651C44.5067 206.861 44.071 207.019 43.616 207.129C43.1577 207.238 42.7091 207.293 42.2734 207.293C41.5086 207.293 40.8018 207.138 40.1532 206.832C39.5174 206.513 38.9655 206.097 38.4976 205.58C38.0393 205.064 37.6811 204.477 37.4229 203.819C37.1744 203.164 37.0486 202.496 37.0486 201.819H37.0421Z" fill="white" fill-opacity="0.5"/>
        <path d="M32.8854 204.58C32.8854 205.038 32.7918 205.435 32.6014 205.774C32.411 206.113 32.1528 206.397 31.8269 206.626C31.4977 206.845 31.1169 207.013 30.678 207.132C30.2391 207.242 29.7776 207.297 29.2903 207.297H24.1267V196.706H30.0228C30.3908 196.706 30.7232 196.787 31.0233 196.945C31.3202 197.103 31.5751 197.313 31.7849 197.571C31.9947 197.819 32.1528 198.106 32.2625 198.435C32.382 198.754 32.44 199.08 32.44 199.419C32.44 199.925 32.311 200.403 32.0528 200.851C31.8043 201.3 31.4267 201.638 30.92 201.864C31.5267 202.042 32.0044 202.361 32.3529 202.819C32.7111 203.277 32.8886 203.864 32.8886 204.58H32.8854ZM30.394 204.087C30.394 203.758 30.3004 203.48 30.11 203.251C29.9196 203.022 29.6808 202.909 29.3935 202.909H26.5729V205.222H29.2903C29.6098 205.222 29.8712 205.119 30.0809 204.909C30.2907 204.7 30.394 204.426 30.394 204.09V204.087ZM26.5729 198.79V200.984H28.9772C29.2451 200.984 29.4839 200.893 29.6937 200.716C29.9034 200.538 30.0067 200.258 30.0067 199.88C30.0067 199.532 29.9131 199.264 29.7227 199.074C29.5452 198.883 29.3258 198.79 29.0676 198.79H26.5762H26.5729Z" fill="white" fill-opacity="0.5"/>
        <path fill-rule="evenodd" clip-rule="evenodd" d="M11.8665 187.441H13.4349C17.7691 187.441 21.2577 190.929 21.2577 195.261V208.968C21.2577 213.3 17.7691 216.787 13.4349 216.787H11.8665C7.53233 216.787 4.0437 213.3 4.0437 208.968V195.261C4.0437 190.929 7.53233 187.441 11.8665 187.441Z" fill="black"/>
        <path d="M13.4349 218H11.8665C6.88365 218 2.82703 213.948 2.82703 208.964V195.258C2.82703 190.277 6.88042 186.222 11.8665 186.222H13.4349C18.4178 186.222 22.4744 190.274 22.4744 195.258V208.964C22.4744 213.945 18.421 218 13.4349 218ZM11.8665 188.657C8.22295 188.657 5.26035 191.619 5.26035 195.261V208.967C5.26035 212.609 8.22295 215.571 11.8665 215.571H13.4349C17.0785 215.571 20.0411 212.609 20.0411 208.967V195.261C20.0411 191.619 17.0785 188.657 13.4349 188.657H11.8665Z" fill="white"/>
        <path fill-rule="evenodd" clip-rule="evenodd" d="M11.8665 187.441H13.4349C17.7691 187.441 21.2577 190.929 21.2577 195.261V208.968C21.2577 213.3 17.7691 216.787 13.4349 216.787H11.8665C7.53233 216.787 4.0437 213.3 4.0437 208.968V195.261C4.0437 190.929 7.53233 187.441 11.8665 187.441Z" fill="#038141"/>
        <path d="M11.3147 195.416H13.9868L18.6631 209.38H15.6295L14.6355 206.255H10.6466L9.67202 209.38H6.63843L11.3147 195.416ZM14.1482 204.032L12.6508 199.096L11.1178 204.032H14.1514H14.1482Z" fill="white"/>
        <path d="M245.259 120.076C250.51 113.315 265.281 120.769 259.366 105.576C253.45 90.3819 273.943 88.8432 280.256 91.7497C282.124 92.611 283.957 93.9497 285.693 95.6272C285.893 93.9626 285.997 92.2658 285.997 90.5464C285.997 88.0174 285.774 85.5431 285.348 83.1366C272.623 79.1817 270.209 68.8977 263.59 73.0462C256.823 77.2882 247.577 68.5977 248.364 62.4041C248.961 57.704 251.83 51.5652 250.42 48.7329C248.206 48.3748 245.934 48.1877 243.62 48.1877C238.121 48.1877 232.867 49.2361 228.045 51.1394C230.821 59.7137 233.083 64.1557 226.154 69.3784C217.628 75.8043 210.86 71.5042 210.86 81.2624C210.86 91.0206 217.289 95.082 210.86 101.169C209.04 102.895 206.429 103.94 203.586 104.469C204.922 108.302 206.788 111.885 209.105 115.131C218.399 107.947 229.259 118.589 232.218 123.928C233.503 126.247 233.251 128.844 232.357 131.389C235.942 132.373 239.718 132.902 243.617 132.902C244.488 132.902 245.35 132.873 246.208 132.821C243.717 127.663 242.965 123.024 245.253 120.073L245.259 120.076ZM236.465 113.931C231.55 114.989 230.485 101.347 227.487 95.24C224.489 89.1335 220.355 84.6625 223.889 80.9044C227.423 77.1462 231.008 80.9044 237.043 76.1269C243.494 71.0171 249.206 76.3043 250.275 81.1721C251.343 86.0399 247.264 91.3206 246.376 93.9175C245.787 95.6465 245.687 98.4788 246.076 102.414C246.66 108.314 241.38 112.879 236.465 113.937V113.931Z" fill="#78E6FF"/>
        <path d="M248.37 62.4041C247.583 68.5977 256.829 77.2849 263.597 73.0462C270.216 68.8977 272.626 79.1817 285.355 83.1366C282.237 65.4783 268.176 51.5975 250.426 48.7329C251.84 51.5652 248.968 57.704 248.37 62.4041Z" fill="#009664"/>
        <path d="M246.079 102.408C245.69 98.4744 245.79 95.6421 246.379 93.9109C247.264 91.3173 251.346 86.0334 250.278 81.1656C249.21 76.2978 243.497 71.0106 237.046 76.1203C231.014 80.8978 227.426 77.1397 223.892 80.8978C220.358 84.6559 224.492 89.127 227.49 95.2335C230.488 101.34 231.553 114.982 236.468 113.924C241.384 112.866 246.663 108.301 246.079 102.401V102.408Z" fill="#009664"/>
        <path d="M232.225 123.928C229.265 118.589 218.406 107.947 209.111 115.131C214.691 122.944 222.859 128.779 232.363 131.389C233.257 128.844 233.509 126.244 232.225 123.928Z" fill="#009664"/>
        <path d="M210.867 81.2656C210.867 71.5042 217.634 75.8075 226.161 69.3816C233.09 64.1589 230.827 59.7169 228.052 51.1426C212.351 57.3459 201.247 72.6526 201.247 90.5496C201.247 95.4271 202.076 100.114 203.593 104.476C206.436 103.947 209.047 102.901 210.867 101.176C217.296 95.0884 210.867 91.0303 210.867 81.2688V81.2656Z" fill="#009664"/>
        <path d="M259.369 105.576C265.281 120.766 250.51 113.315 245.263 120.076C242.971 123.024 243.727 127.666 246.218 132.824C266.721 131.589 283.289 115.782 285.7 95.6272C283.96 93.953 282.127 92.611 280.262 91.7497C273.95 88.8432 253.46 90.3852 259.372 105.576H259.369Z" fill="#009664"/>
    </g>
    <defs>
        <clipPath id="clip0_3143_2095">
            <rect width="286" height="218" fill="white"/>
        </clipPath>
    </defs>
</svg>
