<svg width="338" height="112" fill="none" xmlns="http://www.w3.org/2000/svg"><path d="m225.676 38.03-73.197 6.37c-2.715.236-4.723 2.616-4.486 5.317l1.729 19.647c.237 2.7 2.63 4.698 5.345 4.461l73.197-6.37c2.715-.236 4.724-2.616 4.486-5.317l-1.728-19.647c-.238-2.7-2.631-4.697-5.346-4.461Z" fill="#FF8714"/><path d="m155.871 68.07-1.603-18.215 12.537-1.092.29 3.3-8.727.76.407 4.623 7.499-.65.29 3.3-7.498.651.614 6.994-3.809.332v-.003ZM178.834 66.369c-1.376.12-2.674-.007-3.896-.375a9.427 9.427 0 0 1-3.262-1.724 9.344 9.344 0 0 1-2.317-2.816c-.591-1.099-.948-2.314-1.065-3.653-.117-1.334.017-2.596.397-3.779a9.005 9.005 0 0 1 1.78-3.161 9.434 9.434 0 0 1 2.911-2.248c1.138-.575 2.404-.923 3.796-1.046s2.701 0 3.923.372a9.465 9.465 0 0 1 3.258 1.713 9.004 9.004 0 0 1 2.304 2.806c.584 1.1.935 2.318 1.052 3.653.117 1.338-.02 2.597-.411 3.78a9.322 9.322 0 0 1-1.789 3.174 9.34 9.34 0 0 1-2.912 2.261c-1.138.575-2.397.924-3.772 1.043h.003Zm-.301-3.424a6.077 6.077 0 0 0 2.284-.64 5.819 5.819 0 0 0 1.773-1.399 5.51 5.51 0 0 0 1.088-2.002c.231-.76.307-1.577.231-2.46-.077-.88-.297-1.671-.655-2.372a5.637 5.637 0 0 0-3.408-2.859 6.232 6.232 0 0 0-2.361-.226 6.182 6.182 0 0 0-2.283.631 5.624 5.624 0 0 0-1.773 1.398 5.685 5.685 0 0 0-1.089 2.003c-.23.75-.307 1.567-.23 2.447a6.49 6.49 0 0 0 .654 2.381 5.6 5.6 0 0 0 1.419 1.787 5.92 5.92 0 0 0 1.99 1.072 6.035 6.035 0 0 0 2.36.24ZM199.73 64.55c-1.375.119-2.674-.007-3.896-.376a9.429 9.429 0 0 1-3.262-1.723 9.374 9.374 0 0 1-2.317-2.816c-.591-1.1-.948-2.315-1.065-3.653-.116-1.335.017-2.597.398-3.78a9.018 9.018 0 0 1 1.779-3.16 9.447 9.447 0 0 1 2.911-2.249c1.139-.574 2.404-.923 3.796-1.046 1.393-.12 2.701 0 3.923.372a9.479 9.479 0 0 1 3.259 1.714 9.033 9.033 0 0 1 2.304 2.806c.584 1.099.934 2.317 1.051 3.652.117 1.339-.02 2.597-.41 3.78a9.292 9.292 0 0 1-4.701 5.436c-1.139.574-2.397.923-3.773 1.042h.003Zm-.3-3.424a6.08 6.08 0 0 0 2.284-.641 5.828 5.828 0 0 0 1.772-1.398 5.512 5.512 0 0 0 1.089-2.003c.23-.76.307-1.577.23-2.46-.077-.88-.297-1.67-.654-2.372a5.65 5.65 0 0 0-3.409-2.859 6.231 6.231 0 0 0-2.36-.226c-.835.073-1.6.283-2.287.631a5.625 5.625 0 0 0-2.862 3.4c-.23.751-.307 1.568-.23 2.448.077.88.297 1.674.654 2.381a5.603 5.603 0 0 0 1.419 1.787c.588.481 1.252.84 1.99 1.072a6.042 6.042 0 0 0 2.361.24h.003ZM211.649 63.218l-1.602-18.215 5.973-.521c1.983-.173 3.739.07 5.265.724 1.525.654 2.751 1.634 3.675 2.932.922 1.299 1.463 2.83 1.616 4.59.154 1.76-.11 3.363-.791 4.811s-1.719 2.627-3.108 3.537c-1.389.91-3.075 1.451-5.058 1.624l-5.973.521.003-.003Zm3.519-3.633 2.261-.196c1.195-.103 2.206-.435 3.034-.99a5.137 5.137 0 0 0 1.85-2.205c.407-.913.558-1.959.454-3.131-.103-1.19-.437-2.195-.995-3.019a5.108 5.108 0 0 0-2.203-1.83c-.912-.398-1.964-.544-3.159-.438l-2.26.196 1.022 11.613h-.004Z" fill="#fff"/><path d="M246.141 42.812c-1.245 0-2.324.225-3.242.677a4.867 4.867 0 0 0-2.117 1.96c-.494.853-.741 1.899-.741 3.137v.502H237.2v3.447h2.841V65.11h3.88V52.535h3.582v-3.447h-3.582v-.502c0-.823.237-1.428.711-1.81.474-.381 1.145-.574 2.013-.574.137 0 .29.007.457.013.167.01.351.033.548.073v-3.327a8.018 8.018 0 0 0-.725-.103 7.569 7.569 0 0 0-.784-.043v-.003ZM258.988 49.453c-1.008-.482-2.174-.72-3.496-.72-1.085 0-2.093.175-3.021.53a7.53 7.53 0 0 0-2.414 1.459 5.575 5.575 0 0 0-1.496 2.195l3.169 1.53a3.964 3.964 0 0 1 1.405-1.736c.641-.452 1.376-.678 2.207-.678.888 0 1.599.233 2.133.691.535.462.798 1.036.798 1.724v.517l-4.767.778c-1.266.195-2.311.53-3.138 1.002-.828.472-1.446 1.056-1.85 1.754-.404.697-.608 1.488-.608 2.37 0 .884.227 1.734.681 2.432.454.697 1.102 1.232 1.94 1.604.838.372 1.82.56 2.948.56.888 0 1.693-.115 2.414-.351a6.054 6.054 0 0 0 1.953-1.06 7.08 7.08 0 0 0 .668-.627v1.69h3.672V54.454c0-1.119-.28-2.112-.844-2.975-.565-.864-1.349-1.538-2.354-2.02v-.006Zm-1.215 11.118a3.596 3.596 0 0 1-1.436 1.428c-.621.345-1.339.515-2.147.515-.631 0-1.158-.163-1.586-.485-.424-.326-.637-.76-.637-1.312 0-.551.187-1.026.564-1.368.374-.342.948-.584 1.716-.72l4.026-.711v.68a4 4 0 0 1-.504 1.973h.004ZM270.409 52.9c.661-.402 1.416-.604 2.267-.604.908 0 1.713.239 2.414.72a3.916 3.916 0 0 1 1.496 1.96l3.405-1.502a6.167 6.167 0 0 0-1.556-2.473 7.841 7.841 0 0 0-2.56-1.664 8.414 8.414 0 0 0-3.199-.605c-1.619 0-3.065.362-4.337 1.09a7.973 7.973 0 0 0-3.004 2.975c-.732 1.255-1.095 2.68-1.095 4.27 0 1.591.37 3.02 1.111 4.284a8.256 8.256 0 0 0 3.005 3.006c1.262.737 2.704 1.106 4.324 1.106 1.165 0 2.24-.203 3.228-.605a7.539 7.539 0 0 0 2.547-1.68 6.415 6.415 0 0 0 1.54-2.431l-3.406-1.53c-.317.823-.814 1.48-1.496 1.972-.681.491-1.485.737-2.413.737-.848 0-1.606-.206-2.267-.618a4.31 4.31 0 0 1-1.556-1.707c-.374-.727-.564-1.56-.564-2.504 0-.943.187-1.753.564-2.487.374-.737.891-1.305 1.556-1.707l-.004-.003ZM290.231 61.9c-.631 0-1.152-.1-1.556-.296a1.875 1.875 0 0 1-.888-.854c-.187-.371-.28-.823-.28-1.355v-6.864h3.702v-3.447h-3.702v-3.652h-3.91v1.238c0 .787-.214 1.385-.638 1.797-.424.412-1.031.617-1.819.617h-.297v3.447h2.754v7.07c0 1.807.504 3.205 1.509 4.198 1.008.993 2.417 1.488 4.233 1.488.298 0 .621-.02.979-.06.354-.04.671-.08.948-.116v-3.298l-.548.06c-.187.02-.35.03-.487.03v-.004ZM301.118 55.919l-2.577-.767a7.533 7.533 0 0 1-.992-.382 1.718 1.718 0 0 1-.668-.532 1.223 1.223 0 0 1-.237-.737c0-.491.187-.88.565-1.162.374-.286.888-.429 1.539-.429.808 0 1.539.213 2.19.635a3.478 3.478 0 0 1 1.392 1.723l2.961-1.385c-.494-1.315-1.322-2.337-2.487-3.061-1.165-.728-2.507-1.09-4.026-1.09-1.165 0-2.197.206-3.095.618-.898.412-1.599.986-2.104 1.724-.504.737-.754 1.593-.754 2.577 0 1.099.351 2.055 1.052 2.872.701.814 1.722 1.408 3.064 1.783l2.635.738c.354.1.671.222.948.368.277.146.497.325.668.531.167.206.25.469.25.78 0 .512-.207.924-.621 1.24-.414.315-.968.471-1.659.471a4.258 4.258 0 0 1-2.474-.767c-.741-.511-1.319-1.219-1.733-2.122l-2.931 1.385c.494 1.394 1.375 2.5 2.651 3.314 1.272.813 2.767 1.222 4.487 1.222 1.225 0 2.29-.206 3.198-.618.908-.412 1.619-.986 2.133-1.723.515-.737.772-1.584.772-2.547 0-1.14-.361-2.102-1.082-2.886-.721-.784-1.743-1.375-3.065-1.767v-.006ZM86.314 49.822c-1.282-.728-2.725-1.09-4.324-1.09-1.599 0-3.011.362-4.293 1.09a8.403 8.403 0 0 0-3.079 2.975c-.77 1.255-1.155 2.69-1.155 4.3 0 1.611.384 3.046 1.156 4.3a8.398 8.398 0 0 0 3.094 2.976c1.293.728 2.718 1.09 4.28 1.09 1.563 0 3.012-.362 4.294-1.09a8.4 8.4 0 0 0 3.078-2.975c.772-1.255 1.155-2.69 1.155-4.3 0-1.611-.38-3.069-1.138-4.314a8.348 8.348 0 0 0-3.065-2.959l-.003-.003Zm-.431 9.763a4.35 4.35 0 0 1-1.57 1.723c-.66.412-1.435.618-2.323.618-.888 0-1.64-.206-2.31-.618a4.34 4.34 0 0 1-1.586-1.723c-.384-.738-.578-1.564-.578-2.488 0-.923.194-1.746.578-2.474a4.313 4.313 0 0 1 1.586-1.706c.67-.412 1.442-.618 2.31-.618.868 0 1.663.206 2.324.618a4.393 4.393 0 0 1 1.569 1.706c.384.728.578 1.551.578 2.474 0 .924-.194 1.754-.578 2.488ZM105.578 49.852c-1.226-.748-2.598-1.12-4.117-1.12-1.242 0-2.34.24-3.285.721a5.735 5.735 0 0 0-1.896 1.528v-1.897h-3.673v21.914h3.91V63.57a5.49 5.49 0 0 0 1.702 1.215c.979.452 2.047.678 3.212.678 1.559 0 2.951-.37 4.177-1.106a7.998 7.998 0 0 0 2.901-3.019c.711-1.275 1.065-2.69 1.065-4.24 0-1.551-.361-2.986-1.082-4.241a8.3 8.3 0 0 0-2.918-3.005h.004Zm-.621 9.75a4.402 4.402 0 0 1-1.613 1.706c-.681.412-1.466.618-2.354.618-.888 0-1.612-.206-2.293-.618a4.319 4.319 0 0 1-1.6-1.707c-.383-.727-.577-1.56-.577-2.504 0-.943.194-1.746.578-2.474a4.297 4.297 0 0 1 1.599-1.706c.68-.412 1.445-.618 2.293-.618.848 0 1.673.206 2.354.618a4.426 4.426 0 0 1 1.613 1.706c.394.728.591 1.551.591 2.474 0 .924-.197 1.777-.591 2.504ZM124.768 51.06a7.081 7.081 0 0 0-2.444-1.707c-.958-.411-2.066-.617-3.332-.617-1.519 0-2.881.362-4.086 1.09a8.054 8.054 0 0 0-2.871 2.958c-.712 1.248-1.065 2.676-1.065 4.284 0 1.607.343 2.965 1.035 4.24a7.791 7.791 0 0 0 2.917 3.036c1.252.747 2.711 1.119 4.367 1.119 1.085 0 2.094-.166 3.022-.502.928-.332 1.726-.793 2.397-1.385.671-.587 1.165-1.265 1.479-2.032l-3.138-1.53a4.039 4.039 0 0 1-1.466 1.5c-.621.372-1.375.561-2.267.561-.891 0-1.673-.206-2.354-.617a3.861 3.861 0 0 1-1.539-1.754 4.668 4.668 0 0 1-.39-1.487h11.598c.08-.236.134-.495.164-.78.03-.286.043-.575.043-.87 0-1.08-.177-2.086-.534-3.02a7.582 7.582 0 0 0-1.539-2.487h.003Zm-9.655 4.181c.067-.338.16-.65.284-.943.327-.767.804-1.355 1.435-1.767.631-.411 1.352-.617 2.16-.617s1.573.206 2.177.617a3.468 3.468 0 0 1 1.302 1.68c.12.323.194.668.217 1.03h-7.579.004ZM140.37 49.5c-.919-.512-1.97-.768-3.155-.768-1.186 0-2.147.25-3.005.75a4.171 4.171 0 0 0-1.556 1.575v-1.97h-3.673V65.11h3.91v-9.394c0-.707.137-1.315.414-1.826a2.897 2.897 0 0 1 1.155-1.18c.494-.275 1.055-.411 1.689-.411.635 0 1.196.136 1.69.412.494.275.878.667 1.155 1.179.277.511.414 1.119.414 1.826v9.395h3.879V54.803c0-1.199-.257-2.255-.771-3.165a5.468 5.468 0 0 0-2.146-2.135v-.004Z" fill="#000"/><path d="M32.709 56.968c0-8.983 7.321-16.265 16.352-16.265s16.353 7.282 16.353 16.265H32.709Z" fill="#FF8C14"/><path d="M61.27 56.968c0 6.708-5.465 12.144-12.209 12.144s-12.21-5.436-12.21-12.144h24.42Z" fill="#fff"/><path d="M54.6 47.358c.496 0 .898-.4.898-.894a.896.896 0 0 0-.898-.893c-.496 0-.898.4-.898.893 0 .494.402.894.898.894ZM58.98 51.356c.496 0 .898-.4.898-.893a.896.896 0 0 0-.898-.894c-.496 0-.898.4-.898.894 0 .493.402.893.898.893ZM54.026 52.336c.496 0 .898-.4.898-.894a.896.896 0 0 0-.898-.893c-.496 0-.898.4-.898.893 0 .494.402.894.898.894Z" fill="#8C3C00"/><path d="m41.132 71.188-2.905 6.9 3.823 1.594 2.931-6.96c1.306.335 2.675.515 4.084.515 9.017 0 16.352-7.296 16.352-16.266h-4.146c0 6.695-5.476 12.145-12.21 12.145-6.734 0-12.21-5.447-12.21-12.145h-4.146c0 6.107 3.406 11.437 8.424 14.22l.003-.003Z" fill="#000"/><path d="M55.825 32.534a8.486 8.486 0 0 0-7.448 4.406 8.407 8.407 0 0 1 2.374 3.82c3.742-.838 6.55-4.125 6.617-8.084a8.431 8.431 0 0 0-1.543-.142Z" fill="#00641E"/><path d="M42.608 34.679c-.638 0-1.256.073-1.853.203a8.48 8.48 0 0 0 8.146 6.087 8.72 8.72 0 0 0 1.853-.203 8.48 8.48 0 0 0-8.146-6.087Z" fill="#00961E"/></svg>