<svg width="338" height="112" viewBox="0 0 338 112" fill="none" xmlns="http://www.w3.org/2000/svg">
    <path d="M225.676 38.0297L152.479 44.3994C149.764 44.6356 147.756 47.0162 147.993 49.7166L149.722 69.3637C149.959 72.064 152.352 74.0616 155.067 73.8253L228.264 67.4557C230.979 67.2194 232.988 64.8388 232.75 62.1384L231.022 42.4914C230.784 39.791 228.391 37.7935 225.676 38.0297Z" fill="#FF8714"/>
    <path d="M155.871 68.0695L154.268 49.855L166.805 48.7625L167.095 52.0633L158.368 52.8238L158.775 57.4463L166.274 56.7954L166.564 60.0963L159.066 60.7472L159.68 67.7407L155.871 68.0728V68.0695Z" fill="white"/>
    <path d="M178.834 66.369C177.458 66.4886 176.16 66.3624 174.938 65.9938C173.716 65.6252 172.631 65.0474 171.676 64.2703C170.724 63.4899 169.953 62.5535 169.359 61.4543C168.768 60.3551 168.411 59.1397 168.294 57.8014C168.177 56.4665 168.311 55.2046 168.691 54.0224C169.075 52.8402 169.666 51.7875 170.471 50.861C171.272 49.9378 172.243 49.1873 173.382 48.6128C174.52 48.0383 175.786 47.6896 177.178 47.5668C178.57 47.4439 179.879 47.5668 181.101 47.9387C182.323 48.3106 183.408 48.8785 184.359 49.6522C185.311 50.4226 186.079 51.3591 186.663 52.4583C187.247 53.5575 187.598 54.7762 187.715 56.1111C187.832 57.4494 187.695 58.708 187.304 59.8902C186.913 61.0724 186.316 62.1317 185.515 63.0649C184.713 63.998 183.742 64.7518 182.603 65.3263C181.465 65.9008 180.206 66.2495 178.831 66.369H178.834ZM178.533 62.9453C179.368 62.8723 180.129 62.6597 180.817 62.3044C181.505 61.9491 182.096 61.4842 182.59 60.9064C183.084 60.3285 183.448 59.6611 183.678 58.9039C183.909 58.1435 183.985 57.3266 183.909 56.4432C183.832 55.5632 183.612 54.7729 183.254 54.0722C182.897 53.3715 182.423 52.7771 181.835 52.2856C181.248 51.7941 180.583 51.4388 179.846 51.213C179.108 50.9905 178.32 50.9141 177.485 50.9872C176.65 51.0602 175.889 51.2694 175.202 51.6181C174.514 51.9668 173.923 52.4317 173.429 53.0162C172.935 53.6006 172.574 54.2681 172.34 55.0186C172.11 55.7691 172.033 56.586 172.11 57.466C172.187 58.346 172.407 59.1397 172.764 59.847C173.125 60.5544 173.599 61.1488 174.183 61.6336C174.771 62.1151 175.435 62.4738 176.173 62.7062C176.911 62.9387 177.699 63.0184 178.533 62.9453Z" fill="white"/>
    <path d="M199.73 64.5493C198.355 64.6688 197.056 64.5426 195.834 64.174C194.612 63.8054 193.527 63.2276 192.572 62.4506C191.621 61.6702 190.85 60.7337 190.255 59.6345C189.664 58.5354 189.307 57.3199 189.19 55.9817C189.074 54.6467 189.207 53.3848 189.588 52.2026C189.972 51.0204 190.563 49.9677 191.367 49.0412C192.168 48.1181 193.14 47.3676 194.278 46.7931C195.417 46.2186 196.682 45.8699 198.074 45.747C199.467 45.6275 200.775 45.747 201.997 46.1189C203.219 46.4909 204.304 47.0587 205.256 47.8325C206.207 48.6029 206.975 49.5394 207.56 50.6385C208.144 51.7377 208.494 52.9564 208.611 54.2914C208.728 55.6297 208.591 56.8882 208.201 58.0704C207.81 59.256 207.212 60.312 206.411 61.2451C205.61 62.1782 204.638 62.9321 203.5 63.5066C202.361 64.0811 201.103 64.4297 199.727 64.5493H199.73ZM199.43 61.1256C200.265 61.0525 201.026 60.84 201.714 60.4847C202.401 60.1293 202.992 59.6644 203.486 59.0866C203.981 58.5088 204.344 57.8413 204.575 57.0842C204.805 56.3237 204.882 55.5068 204.805 54.6235C204.728 53.7435 204.508 52.9531 204.151 52.2524C203.794 51.5517 203.319 50.9573 202.732 50.4659C202.144 49.9744 201.48 49.6191 200.742 49.3932C200.004 49.1707 199.216 49.0944 198.382 49.1674C197.547 49.2405 196.782 49.4497 196.095 49.7984C195.407 50.1471 194.816 50.612 194.322 51.1964C193.828 51.7809 193.467 52.4484 193.233 53.1989C193.003 53.9494 192.926 54.7663 193.003 55.6463C193.08 56.5263 193.3 57.3199 193.657 58.0273C194.018 58.7346 194.492 59.329 195.076 59.8139C195.664 60.2954 196.328 60.654 197.066 60.8865C197.804 61.1189 198.592 61.1986 199.427 61.1256H199.43Z" fill="white"/>
    <path d="M211.649 63.2177L210.047 45.0032L216.02 44.4819C218.003 44.3092 219.759 44.5516 221.285 45.2058C222.81 45.86 224.036 46.8396 224.96 48.1381C225.882 49.4365 226.423 50.9674 226.576 52.7274C226.73 54.4874 226.466 56.0913 225.785 57.5392C225.104 58.9871 224.066 60.1659 222.677 61.0758C221.288 61.9857 219.602 62.527 217.619 62.6997L211.646 63.2211L211.649 63.2177ZM215.168 59.5848L217.429 59.3889C218.624 59.2859 219.635 58.9539 220.463 58.3993C221.288 57.8414 221.906 57.1075 222.313 56.1943C222.72 55.2811 222.871 54.235 222.767 53.0628C222.664 51.8739 222.33 50.8677 221.772 50.0442C221.211 49.224 220.477 48.6129 219.569 48.2144C218.657 47.816 217.605 47.6698 216.41 47.7761L214.15 47.972L215.172 59.5848H215.168Z" fill="white"/>
    <path d="M246.141 42.8115C244.896 42.8115 243.817 43.0373 242.899 43.489C241.981 43.9406 241.276 44.5948 240.782 45.4482C240.288 46.3017 240.041 47.3477 240.041 48.5864V49.0878H237.2V52.5348H240.041V65.1106H243.921V52.5348H247.503V49.0878H243.921V48.5864C243.921 47.7628 244.158 47.1584 244.632 46.7765C245.106 46.3946 245.777 46.202 246.645 46.202C246.782 46.202 246.935 46.2087 247.102 46.2153C247.269 46.2253 247.453 46.2485 247.65 46.2884V42.961C247.453 42.9211 247.209 42.8879 246.925 42.858C246.638 42.8281 246.378 42.8148 246.141 42.8148V42.8115Z" fill="black"/>
    <path d="M258.988 49.453C257.98 48.9715 256.814 48.7324 255.492 48.7324C254.407 48.7324 253.399 48.9084 252.471 49.2637C251.543 49.6158 250.738 50.1039 250.057 50.7216C249.376 51.3392 248.878 52.0731 248.561 52.9166L251.73 54.4475C252.027 53.7402 252.494 53.1623 253.135 52.7107C253.776 52.2591 254.511 52.0333 255.342 52.0333C256.23 52.0333 256.941 52.2657 257.475 52.724C258.01 53.1856 258.273 53.7601 258.273 54.4475V54.9655L253.506 55.7426C252.24 55.9385 251.195 56.2739 250.368 56.7455C249.54 57.217 248.922 57.8015 248.518 58.4988C248.114 59.1962 247.91 59.9866 247.91 60.8699C247.91 61.7532 248.137 62.6033 248.591 63.3007C249.045 63.9981 249.693 64.5327 250.531 64.9046C251.369 65.2766 252.351 65.4658 253.479 65.4658C254.367 65.4658 255.172 65.3496 255.893 65.1138C256.614 64.8781 257.265 64.5261 257.846 64.0545C258.083 63.8619 258.303 63.6494 258.514 63.4269V65.1172H262.186V54.4541C262.186 53.335 261.906 52.3421 261.342 51.4787C260.777 50.6153 259.993 49.9412 258.988 49.4597V49.453ZM257.773 60.571C257.435 61.1787 256.958 61.6569 256.337 61.9989C255.716 62.3443 254.998 62.5137 254.19 62.5137C253.559 62.5137 253.032 62.3509 252.604 62.0288C252.18 61.7034 251.967 61.2684 251.967 60.7171C251.967 60.1659 252.154 59.691 252.531 59.349C252.905 59.0069 253.479 58.7645 254.247 58.6284L258.273 57.9177V58.5985C258.273 59.3058 258.106 59.9633 257.769 60.571H257.773Z" fill="black"/>
    <path d="M270.409 52.9C271.07 52.4982 271.825 52.2956 272.676 52.2956C273.584 52.2956 274.389 52.5347 275.09 53.0162C275.791 53.4977 276.289 54.1486 276.586 54.9755L279.991 53.4745C279.674 52.5314 279.157 51.7078 278.435 51.0005C277.714 50.2932 276.86 49.7386 275.875 49.3368C274.886 48.935 273.821 48.7324 272.676 48.7324C271.057 48.7324 269.611 49.0944 268.339 49.8216C267.067 50.5489 266.062 51.5385 265.335 52.7971C264.603 54.0523 264.24 55.4769 264.24 57.0676C264.24 58.6582 264.61 60.0862 265.351 61.3514C266.092 62.6166 267.094 63.6195 268.356 64.3567C269.618 65.0939 271.06 65.4625 272.68 65.4625C273.845 65.4625 274.92 65.26 275.908 64.8581C276.896 64.4563 277.744 63.8951 278.455 63.1778C279.167 62.4605 279.681 61.6503 279.995 60.747L276.589 59.2161C276.272 60.0397 275.775 60.6972 275.093 61.1887C274.412 61.6801 273.608 61.9259 272.68 61.9259C271.832 61.9259 271.074 61.72 270.413 61.3082C269.752 60.8964 269.234 60.3253 268.857 59.6013C268.483 58.8741 268.293 58.0406 268.293 57.0975C268.293 56.1544 268.48 55.3441 268.857 54.6102C269.231 53.873 269.748 53.3051 270.413 52.9033L270.409 52.9Z" fill="black"/>
    <path d="M290.231 61.8994C289.6 61.8994 289.079 61.7998 288.675 61.6038C288.271 61.4079 287.974 61.1223 287.787 60.7504C287.6 60.3785 287.507 59.9269 287.507 59.3955V52.5315H291.209V49.0845H287.507V45.4316H283.597V46.6703C283.597 47.4573 283.383 48.0551 282.959 48.4668C282.535 48.8786 281.928 49.0845 281.14 49.0845H280.843V52.5315H283.597V59.6014C283.597 61.4079 284.101 62.806 285.106 63.7989C286.114 64.7918 287.523 65.2866 289.339 65.2866C289.637 65.2866 289.96 65.2667 290.318 65.2268C290.672 65.187 290.989 65.1471 291.266 65.1106V61.8131C291.089 61.833 290.905 61.8529 290.718 61.8728C290.531 61.8928 290.368 61.9027 290.231 61.9027V61.8994Z" fill="black"/>
    <path d="M301.118 55.9186L298.541 55.1515C298.167 55.0353 297.836 54.9058 297.549 54.7696C297.262 54.6334 297.042 54.4575 296.881 54.2383C296.724 54.0224 296.644 53.7767 296.644 53.5011C296.644 53.0096 296.831 52.6211 297.209 52.3388C297.583 52.0532 298.097 51.9104 298.748 51.9104C299.556 51.9104 300.287 52.1229 300.938 52.5447C301.589 52.9664 302.053 53.5409 302.33 54.2682L305.291 52.8834C304.797 51.5684 303.969 50.5456 302.804 49.8216C301.639 49.0944 300.297 48.7324 298.778 48.7324C297.613 48.7324 296.581 48.9383 295.683 49.3501C294.785 49.7619 294.084 50.3364 293.579 51.0736C293.075 51.8108 292.825 52.6675 292.825 53.6505C292.825 54.7497 293.176 55.7061 293.877 56.523C294.578 57.3366 295.599 57.931 296.941 58.3062L299.576 59.0435C299.93 59.1431 300.247 59.2659 300.524 59.4121C300.801 59.5582 301.021 59.7375 301.192 59.9434C301.359 60.1493 301.442 60.4116 301.442 60.7238C301.442 61.2352 301.235 61.6469 300.821 61.9624C300.407 62.2779 299.853 62.434 299.162 62.434C298.254 62.434 297.429 62.1783 296.688 61.6669C295.947 61.1555 295.369 60.4481 294.955 59.5449L292.024 60.9297C292.518 62.3244 293.399 63.4302 294.675 64.2438C295.947 65.0574 297.442 65.4658 299.162 65.4658C300.387 65.4658 301.452 65.26 302.36 64.8482C303.268 64.4364 303.979 63.8619 304.493 63.1247C305.008 62.3875 305.265 61.5407 305.265 60.5777C305.265 59.4386 304.904 58.4756 304.183 57.6919C303.462 56.9082 302.44 56.3171 301.118 55.9252V55.9186Z" fill="black"/>
    <path d="M86.3137 49.8216C85.0317 49.0944 83.5894 48.7324 81.9902 48.7324C80.391 48.7324 78.9787 49.0944 77.6967 49.8216C76.4147 50.5489 75.3864 51.5385 74.6185 52.7971C73.8473 54.0523 73.4633 55.4869 73.4633 57.0975C73.4633 58.7081 73.8473 60.1426 74.6185 61.3979C75.3897 62.6531 76.418 63.6461 77.7134 64.3733C79.0055 65.1006 80.431 65.4625 81.9935 65.4625C83.556 65.4625 85.005 65.1006 86.287 64.3733C87.5691 63.6461 88.5974 62.6565 89.3652 61.3979C90.1365 60.1426 90.5204 58.7081 90.5204 57.0975C90.5204 55.4869 90.1398 54.0291 89.3819 52.7838C88.6207 51.5385 87.5991 50.5489 86.3171 49.825L86.3137 49.8216ZM85.883 59.5847C85.4991 60.3219 84.9749 60.8964 84.3139 61.3082C83.6528 61.72 82.8783 61.9259 81.9902 61.9259C81.1021 61.9259 80.3509 61.72 79.6799 61.3082C79.0088 60.8964 78.4813 60.3219 78.094 59.5847C77.7101 58.8475 77.5164 58.0206 77.5164 57.0975C77.5164 56.1743 77.7101 55.3507 78.094 54.6235C78.478 53.8962 79.0055 53.3284 79.6799 52.9166C80.3509 52.5048 81.1221 52.2989 81.9902 52.2989C82.8582 52.2989 83.6528 52.5048 84.3139 52.9166C84.9749 53.3284 85.4991 53.8996 85.883 54.6235C86.267 55.3507 86.4606 56.1743 86.4606 57.0975C86.4606 58.0206 86.267 58.8508 85.883 59.5847Z" fill="black"/>
    <path d="M105.578 49.8515C104.352 49.1043 102.98 48.7324 101.461 48.7324C100.219 48.7324 99.1207 48.9715 98.1759 49.453C97.418 49.8382 96.787 50.3496 96.2796 50.9806V49.0844H92.6071V70.9983H96.5166V63.5697C96.9907 64.0711 97.5582 64.4796 98.2193 64.7851C99.1975 65.2367 100.266 65.4625 101.431 65.4625C102.99 65.4625 104.382 65.0939 105.608 64.3567C106.833 63.6195 107.798 62.6133 108.509 61.3381C109.22 60.0629 109.574 58.6483 109.574 57.0975C109.574 55.5467 109.213 54.1121 108.492 52.8568C107.771 51.6016 106.8 50.5987 105.574 49.8515H105.578ZM104.957 59.6013C104.563 60.3286 104.025 60.8964 103.344 61.3082C102.663 61.72 101.878 61.9259 100.99 61.9259C100.102 61.9259 99.3778 61.72 98.6967 61.3082C98.0156 60.8964 97.4815 60.3253 97.0975 59.6013C96.7136 58.8741 96.5199 58.0406 96.5199 57.0975C96.5199 56.1544 96.7136 55.3507 97.0975 54.6235C97.4815 53.8962 98.0156 53.3284 98.6967 52.9166C99.3778 52.5048 100.142 52.2989 100.99 52.2989C101.838 52.2989 102.663 52.5048 103.344 52.9166C104.025 53.3284 104.563 53.8996 104.957 54.6235C105.351 55.3507 105.548 56.1743 105.548 57.0975C105.548 58.0206 105.351 58.8741 104.957 59.6013Z" fill="black"/>
    <path d="M124.768 51.0604C124.097 50.3331 123.282 49.7653 122.324 49.3535C121.366 48.9417 120.258 48.7358 118.992 48.7358C117.473 48.7358 116.111 49.0978 114.906 49.8251C113.701 50.5523 112.746 51.5386 112.035 52.7839C111.323 54.0325 110.97 55.4604 110.97 57.0677C110.97 58.6749 111.313 60.0331 112.005 61.3083C112.696 62.5835 113.667 63.5963 114.922 64.3435C116.174 65.0907 117.633 65.4626 119.289 65.4626C120.374 65.4626 121.383 65.2966 122.311 64.9612C123.239 64.6291 124.037 64.1675 124.708 63.5764C125.379 62.9886 125.873 62.3112 126.187 61.5441L123.049 60.0132C122.695 60.6408 122.204 61.1423 121.583 61.5142C120.962 61.8861 120.208 62.0754 119.316 62.0754C118.425 62.0754 117.643 61.8695 116.962 61.4578C116.281 61.046 115.767 60.4615 115.423 59.7044C115.216 59.2494 115.086 58.7546 115.033 58.2167H126.631C126.711 57.9809 126.765 57.7219 126.795 57.4363C126.825 57.1507 126.838 56.8618 126.838 56.5662C126.838 55.487 126.661 54.4808 126.304 53.5477C125.95 52.6145 125.436 51.7843 124.765 51.0604H124.768ZM115.113 55.2413C115.18 54.9025 115.273 54.5904 115.397 54.2981C115.724 53.531 116.201 52.9433 116.832 52.5315C117.463 52.1197 118.184 51.9138 118.992 51.9138C119.8 51.9138 120.565 52.1197 121.169 52.5315C121.77 52.9433 122.204 53.5045 122.471 54.2118C122.591 54.5339 122.665 54.8793 122.688 55.2413H115.109H115.113Z" fill="black"/>
    <path d="M140.37 49.4995C139.451 48.9881 138.4 48.7324 137.215 48.7324C136.029 48.7324 135.068 48.9815 134.21 49.4829C133.545 49.8681 133.031 50.3961 132.654 51.057V49.0877H128.981V65.1105H132.891V55.716C132.891 55.0087 133.028 54.401 133.305 53.8896C133.582 53.3782 133.966 52.9863 134.46 52.7107C134.954 52.4351 135.515 52.2989 136.149 52.2989C136.784 52.2989 137.345 52.4351 137.839 52.7107C138.333 52.9863 138.717 53.3782 138.994 53.8896C139.271 54.401 139.408 55.0087 139.408 55.716V65.1105H143.287V54.8028C143.287 53.604 143.03 52.548 142.516 51.6381C142.002 50.7249 141.288 50.0142 140.37 49.5028V49.4995Z" fill="black"/>
    <path d="M32.7086 56.9681C32.7086 47.9854 40.0302 40.7029 49.0612 40.7029C58.0923 40.7029 65.4139 47.9854 65.4139 56.9681H32.7086Z" fill="#FF8C14"/>
    <path d="M61.2706 56.968C61.2706 63.676 55.8053 69.1121 49.0613 69.1121C42.3172 69.1121 36.8519 63.676 36.8519 56.968H61.2673H61.2706Z" fill="white"/>
    <path d="M54.6001 47.3576C55.0961 47.3576 55.4981 46.9577 55.4981 46.4643C55.4981 45.971 55.0961 45.571 54.6001 45.571C54.1041 45.571 53.702 45.971 53.702 46.4643C53.702 46.9577 54.1041 47.3576 54.6001 47.3576Z" fill="#8C3C00"/>
    <path d="M58.9803 51.3559C59.4763 51.3559 59.8784 50.956 59.8784 50.4626C59.8784 49.9693 59.4763 49.5693 58.9803 49.5693C58.4843 49.5693 58.0822 49.9693 58.0822 50.4626C58.0822 50.956 58.4843 51.3559 58.9803 51.3559Z" fill="#8C3C00"/>
    <path d="M54.0258 52.3357C54.5218 52.3357 54.9239 51.9357 54.9239 51.4424C54.9239 50.949 54.5218 50.5491 54.0258 50.5491C53.5298 50.5491 53.1277 50.949 53.1277 51.4424C53.1277 51.9357 53.5298 52.3357 54.0258 52.3357Z" fill="#8C3C00"/>
    <path d="M41.132 71.1877L38.2274 78.0883L42.0501 79.6823L44.9814 72.7219C46.2868 73.0573 47.6557 73.2366 49.0646 73.2366C58.0822 73.2366 65.4172 65.9409 65.4172 56.9714H61.2706C61.2706 63.6661 55.7953 69.1155 49.0612 69.1155C42.3272 69.1155 36.8518 63.6695 36.8518 56.9714H32.7053C32.7053 63.0784 36.1107 68.4082 41.1286 71.191L41.132 71.1877Z" fill="black"/>
    <path d="M55.8253 32.5337C52.6102 32.5337 49.8158 34.3169 48.3768 36.9404C49.4853 37.9632 50.3166 39.2749 50.7506 40.7593C54.4932 39.9224 57.301 36.6349 57.3678 32.6765C56.867 32.5835 56.3528 32.5337 55.8253 32.5337Z" fill="#00641E"/>
    <path d="M42.6076 34.679C41.97 34.679 41.3523 34.752 40.7547 34.8815C41.7797 38.3982 45.0382 40.9685 48.901 40.9685C49.5386 40.9685 50.1563 40.8955 50.7539 40.7659C49.7289 37.2492 46.4704 34.679 42.6076 34.679Z" fill="#00961E"/>
</svg>
