<svg xmlns="http://www.w3.org/2000/svg" width="274" height="130" viewBox="0 0 1377.6 652.8" fill="none">
  <rect width="1377.6" height="652.8" ry="47.2" fill="#fff"/>
  <g clip-path="url(#clip0)" transform="translate(-105 -48)">
    <g clip-path="url(#clip1)">
      <path d="M690 98c9 0 19 9 18 19-1 14-19 333-121 435-98 98-214 75-289 21l-3-2-68 68a42 42 0 01-60-60l68-68-2-3c-54-75-77-191 21-289C356 117 675 100 690 98z" fill="#df1f1f"/>
      <path d="M385 474c-8 0-14-2-18-7-4-4-6-10-6-17V266c0-7 2-13 6-18 4-4 10-6 18-6h116c16 0 24 7 24 20s-8 20-24 20h-90v54h83c17 0 25 7 25 20s-8 20-25 20h-83v58h90c16 0 24 7 24 20s-8 20-24 20z" fill="#fff"/>
    </g>
    <path d="M844 403c-7 0-13-2-17-6s-6-10-6-17V202c0-7 2-13 6-17s10-6 17-6h113c16 0 23 6 23 19s-7 20-23 20h-87v52h81c15 0 23 6 23 19s-8 19-23 19h-81v57h87c16 0 23 6 23 19s-7 19-23 19zm269 3c-22 0-42-5-58-14-17-9-29-23-38-40s-14-38-14-61 5-44 14-61 21-30 38-40c16-9 36-14 58-14 27 0 51 8 71 23 4 3 6 5 7 8l2 9c0 6-2 11-5 15-3 3-6 5-11 5l-8-1-7-4-24-12c-7-2-15-3-23-3-20 0-36 6-46 19-10 12-15 31-15 56 0 50 20 76 61 76 8 0 15-2 22-4s16-7 25-12l8-4 7-1c5 0 8 2 11 6s5 8 5 14l-2 10-7 7c-20 15-44 23-71 23zm210 0c-22 0-41-5-58-14a97 97 0 01-38-40c-9-17-13-38-13-61s4-44 13-61 22-30 38-40c17-9 36-14 58-14 23 0 42 5 58 14 17 10 29 23 38 40s14 38 14 61-5 44-14 61-21 30-38 40c-16 9-35 14-58 14zm0-38c19 0 34-7 44-20 11-13 16-32 16-57s-5-44-16-57a54 54 0 00-44-19c-19 0-33 6-44 19a89 89 0 00-15 57c0 25 5 44 15 57 11 13 26 20 44 20zM874 606c-9 0-18-1-26-3-9-3-15-5-21-9l-4-5-1-7 3-9c2-3 5-4 7-4l5 1 5 3a59 59 0 0032 7c7 0 12-1 16-3 3-2 5-5 5-9 0-3-2-5-5-7s-10-4-20-6l-27-9c-7-4-12-8-15-12-2-5-4-11-4-18s3-14 7-20c5-7 11-12 19-15a87 87 0 0150-3c7 2 13 5 19 9a13 13 0 016 12l-3 9c-2 3-5 4-8 4h-4l-6-3-5-3-10-4-12-1c-6 0-11 1-15 4-3 2-5 5-5 9 0 2 0 4 2 5 1 2 4 3 7 5l16 4c12 2 21 5 27 9 7 3 12 7 14 12 3 5 5 10 5 17 0 8-3 15-7 21-5 6-11 10-19 14-8 3-17 5-28 5zm132 0c-12 0-23-3-33-8s-17-13-22-23-8-21-8-34c0-14 3-25 8-35s12-17 22-23c10-5 21-7 33-7 16 0 29 4 41 12l4 4 1 7c0 3-1 7-3 9-2 3-4 4-7 4l-5-1-5-2-12-6-12-1c-10 0-18 3-24 9-5 7-7 16-7 30 0 13 2 23 7 29a34 34 0 0034 8 176 176 0 0019-8l5-1c3 0 5 1 7 4l3 9-1 7-4 5c-12 8-25 12-41 12zm120 0c-13 0-24-3-34-8-10-6-17-13-22-23s-8-21-8-34c0-14 3-25 8-35s12-17 22-23c10-5 21-7 34-7s24 2 33 7c10 6 17 13 22 23 6 10 8 21 8 35 0 13-2 24-8 34-5 10-12 17-22 23-9 5-20 8-33 8zm0-26c9 0 17-3 22-10 6-7 8-17 8-29 0-13-2-23-8-30-5-7-13-10-22-10-10 0-17 3-23 10-5 7-8 16-8 30 0 13 3 23 8 29 6 7 13 10 23 10zm190 3l3 9c0 4-2 7-5 10-3 2-7 4-11 4a17 17 0 01-15-8l-23-34-5-6-7-1h-12v32c0 5-1 9-4 12s-7 4-12 4-9-1-12-4-4-7-4-12v-97c0-4 1-8 4-11 2-3 6-4 11-4h45c16 0 27 4 35 10 8 7 12 16 12 29 0 10-3 18-8 25-6 6-13 11-23 13 4 0 8 2 11 4s6 5 8 9zm-52-51c7 0 13-1 16-4 3-2 5-6 5-11s-2-9-5-11c-3-3-9-4-16-4h-23v30zm87 72c-4 0-8-1-11-4s-4-6-4-11v-97c0-4 1-8 4-11s7-4 11-4h63c5 0 9 1 11 3 3 3 4 6 4 10 0 8-5 13-15 13h-46v24h42c11 0 16 4 16 13 0 4-2 7-4 9-3 2-7 3-12 3h-42v27h46c10 0 15 4 15 12 0 5-1 8-4 10-2 2-6 3-11 3z" fill="#4a4a4a"/>
  </g>
  <defs id="defs114">
    <clipPath id="clip0">
      <path fill="#fff" transform="translate(1)" id="rect108" d="M0 0h1600v752H0z"/>
    </clipPath>
    <clipPath id="clip1">
      <path fill="#fff" transform="translate(149 85)" id="rect111" d="M0 0h572v572H0z"/>
    </clipPath>
  </defs>
</svg>
