<svg xmlns="http://www.w3.org/2000/svg" width="68" height="130">
  <path d="M0 36h68v90H0z" fill="red"/>
  <g aria-label="NOVA" style="line-height:0%;-inkscape-font-specification:'Raleway Ultra-Bold'" font-weight="800" font-size="268" font-family="Raleway" letter-spacing="0" word-spacing="0" fill="#7d7d7d" stroke-width="22.3">
    <path d="M5 20v9H1V12h3l8 10V12h4v17h-3zM27 30l-3-1-3-2-2-3-1-3 1-4 2-2q1-2 3-2l3-1 4 1 2 2q2 1 2 3l1 3-1 3-2 3-2 2-4 1zm-4-9v2l1 1 1 2h4l2-2v-1l1-2-1-2-1-2-1-1h-4l-1 1-1 2v2zM40 12l4 12 4-12h4l-6 17h-4l-6-17zM57 12h4l6 17h-4l-1-3h-6l-1 3h-4zm4 11l-2-6-2 6z" style="-inkscape-font-specification:'Raleway Ultra-Bold'"/>
  </g>
  <g style="line-height:1.25">
    <path d="M54 97h-6v11H37V97H14v-8l23-35h11v34h6zm-17-9v-9-7-5l-3 6-10 15z" style="-inkscape-font-specification:'Open Sans Bold'" font-weight="700" font-family="Open Sans" aria-label="4" font-size="829.6" letter-spacing="0" word-spacing="0" fill="#fff" stroke-width="20.7"/>
  </g>
</svg>
