<svg xmlns="http://www.w3.org/2000/svg" width="24" height="24"><rect width="24" height="24" ry="5" fill="red"/><path d="M15 2l-1 1v5l5 11v2l-1 1H6l-1-1v-2l5-11V3L9 2z" fill="#fff"/><path d="M12.427 13.826q-.805 0-1.213.796-.403.79-.403 2.38 0 1.586.403 2.381.408.79 1.213.79.811 0 1.214-.79.408-.795.408-2.38 0-1.591-.408-2.381-.403-.796-1.214-.796zm0-.826q1.297 0 1.978 1.028.687 1.022.687 2.975 0 1.947-.687 2.974Q13.724 21 12.427 21q-1.296 0-1.983-1.023-.682-1.027-.682-2.974 0-1.953.682-2.975Q11.131 13 12.427 13z" style="line-height:1.25;-inkscape-font-specification:sans-serif" font-weight="400" font-size="10.577" font-family="sans-serif"/><rect width="1" height="8" x="8" y="13" ry="0"/><rect width="3" height="1" x="15" y="19" ry="0"/><rect width="1" height="3" x="16" y="18" ry="0"/></svg>