<svg xmlns="http://www.w3.org/2000/svg" width="24" height="24"><rect width="24" height="24" ry="5" fill="red"/><path d="M15 2l-1 1v5l5 11v2l-1 1H6l-1-1v-2l5-11V3L9 2z" fill="#fff"/><g style="line-height:1.25"><path d="M9.792 12h4.169v.894h-3.196v1.923q.231-.079.462-.115.232-.042.463-.042 1.314 0 2.081.72.768.72.768 1.95 0 1.267-.789 1.97-.788.7-2.223.7-.494 0-1.01-.084-.51-.084-1.056-.252v-1.067q.473.257.978.383.504.126 1.067.126.91 0 1.44-.478.531-.478.531-1.298 0-.82-.53-1.298-.532-.479-1.441-.479-.426 0-.852.095-.42.094-.862.294z" style="-inkscape-font-specification:sans-serif" aria-label="5" font-weight="400" font-size="10.765" font-family="sans-serif" stroke-width=".269"/></g></svg>