<svg xmlns="http://www.w3.org/2000/svg" width="76" height="90"><path d="M75 66V0H1v66h74zm0 24v-2H1v2h74zM5 73H3l1-3 1 3zm0 1 1 1h1l-3-7H3l-2 7h1v-1h3zm10-2c0 2-1 4-3 4s-3-2-3-4 1-4 3-4l3 2h-1l-2-1c-1 0-2 1-2 3l2 2 2-1h-2v-1h3zm4 0v-3h1l1 1-1 2h-1zm2 0 1-2-2-2h-2v7h1v-2l2 2h2l-2-3zm5 3h-1v-7h1v7zm8-5-1-1c-2 0-3 1-3 3 0 1 1 2 3 2l1-1v2l-1 1c-2 0-4-2-4-4s2-4 4-4l1 1v1zm4 2v2h3v-6h1v7l-3 1-2-1v-7h1v4zm8 2h2v1h-3v-7h1v6zm5 1v-6h-1v-1h4v1h-2v6h-1zm7-3v2h2v-6h1v7l-2 1-2-1-1-2v-5h2v4zm8 0v-3l1 1-1 2zm1 0 2-2c0-1-1-2-3-2h-1v7h1v-2l2 2h1l-2-3zm6-3v2h2v1h-2v2h2v1h-3v-7h3v1h-2zM2 82v-2h1l1 1-1 1H2zm-1 4h2c2 0 2 0 2-2l-1-1 1-2-1-1-1-1H1v7zm1-1v-2h1l1 1-1 1H2zm8 1H9v-7h1v7zm7-6c1 0 2 1 2 3l-2 2-2-2c0-2 1-3 2-3zm0-1c-2 0-4 2-4 4s2 3 4 3 3-1 3-3-1-4-3-4zm8 6h2v1h-4v-7h2v6zm7-5c2 0 3 1 3 3 0 1-1 2-3 2l-2-2c0-2 1-3 2-3zm0-1c-1 0-3 2-3 4s2 3 3 3c2 0 4-1 4-3s-2-4-4-4zm13 4c0 2-1 3-3 3s-3-1-3-3 1-4 3-4l3 2h-1l-2-1c-1 0-2 1-2 3l2 2 2-1h-2v-1h3zm5 3h-1v-7h1v7zm7-3-1 1 1 1h-1l-2-2c0-2 1-3 2-3 2 0 3 1 3 3l-1 1-1-1zm3 3-1-1 1-2c0-2-2-4-4-4-1 0-3 2-3 4s2 3 3 3h2l1 1 1-1zm4-3v2h3v-6h1v6l-2 1-2-1-1-1v-5h1v4zm9-3v2h2v1h-2v2h2v1h-3v-7h3v1h-2z" fill="#009901"/><path d="M45 20c10 0 15 4 15 11s-4 9-4 9 7 2 7 11c0 11-12 11-12 11H40V20h5zm0 5v14h4c2 0 6-1 6-7s-4-7-7-7h-3zm0 18v14h6c1 0 7 0 7-7 0-6-7-7-8-7h-5zm-9 19h-5V52H13l-1 10H7c0-11 5-30 21-41 7-3 8 2 8 3v38zm-5-36C17 37 15 47 15 47h16V26zM47 3s10 4 8 15c0 0 5-7 14-5 0 0-4 11-15 7-11-3-8-16-7-17z" fill="#FFF"/></svg>