<svg xmlns="http://www.w3.org/2000/svg" width="24" height="24"><rect width="24" height="24" ry="5" fill="red"/><path d="M10 22l1-16h2l1 16z" fill="#fff"/><g fill="#fff"><path d="M8 5c0 3.2 1 4 5 4 0-2.4-2-4-5-4z"/><path d="M16 5c0 3.2-1 4-5 4 0-2.4 2-4 5-4z"/><path d="M12 1.929C9.879 4.05 9.879 6.879 12 9c2.121-2.121 2.121-4.95 0-7.071z"/></g><g fill="#fff"><path d="M4.583 14.418c2.449 1.414 3.15 1.217 4.917-1.844-1.836-1.06-3.592-.452-4.917 1.844z"/><path d="M8.117 8.296c2.45 1.414 2.62 2.532.852 5.593-1.836-1.06-2.177-3.297-.852-5.593z"/><path d="M4 10c.686 2.56 2.85 3.81 5.411 3.124C8.725 10.564 6.561 9.314 4 10z"/><path d="M8 13l2 8.714L12 20l-2.28-7.719L9 13z"/></g><g fill="#fff"><path d="M19.417 14.418c-2.449 1.414-3.15 1.217-4.917-1.844 1.836-1.06 3.592-.452 4.917 1.844z"/><path d="M15.883 8.296c-2.45 1.414-2.62 2.532-.852 5.593 1.836-1.06 2.177-3.297.852-5.593z"/><path d="M20 10c-.686 2.56-2.85 3.81-5.411 3.124.686-2.56 2.85-3.81 5.411-3.124z"/><path d="M16 13l-2 8.714L12 20l2.28-7.719L15 13z"/></g></svg>