<svg xmlns="http://www.w3.org/2000/svg" width="274" height="130" viewBox="0 0 1377.625 652.782" fill="none"><rect width="1377.625" height="652.782" ry="47.219" fill="#fff"/><g clip-path="url(#clip0)" transform="translate(-104.995 -48.292)"><g clip-path="url(#clip1)"><path d="M689.547 98.344c9.874-.832 19.022 8.316 18.189 18.19-1.213 14.061-18.724 333.622-120.986 435.883-98.014 98.014-213.504 75.007-288.915 20.795a73.265 73.265 0 01-3.058-2.343l-67.981 67.886c-16.426 16.425-43.057 16.425-59.482 0-16.425-16.426-16.425-43.057 0-59.482l67.898-67.97a74.609 74.609 0 01-2.355-3.069c-54.212-75.411-77.219-190.901 20.795-288.915C355.913 117.057 675.474 99.546 689.547 98.344z" fill="#df1f1f"/><path d="M384.707 473.727c-7.662 0-13.573-2.08-17.732-6.239-4.16-4.16-6.239-10.071-6.239-17.733V266.191c0-7.662 2.079-13.573 6.239-17.733 4.159-4.159 10.07-6.239 17.732-6.239h116.247c16.2 0 24.3 6.568 24.3 19.703 0 13.354-8.1 20.031-24.3 20.031h-90.305v54.183h83.737c16.2 0 24.3 6.677 24.3 20.031 0 13.135-8.1 19.703-24.3 19.703h-83.737v58.123h90.305c16.2 0 24.3 6.677 24.3 20.031 0 13.135-8.1 19.703-24.3 19.703z" fill="#fff"/></g><path d="M844.443 403.098c-7.415 0-13.135-2.012-17.16-6.038-4.025-4.025-6.038-9.745-6.038-17.16V202.257c0-7.415 2.013-13.135 6.038-17.16 4.025-4.026 9.745-6.038 17.16-6.038H956.94c15.677 0 23.516 6.355 23.516 19.067 0 12.923-7.839 19.385-23.516 19.385h-87.391v52.435h81.035c15.678 0 23.516 6.461 23.516 19.385 0 12.711-7.838 19.067-23.516 19.067h-81.035v56.248h87.391c15.677 0 23.516 6.462 23.516 19.385 0 12.712-7.839 19.067-23.516 19.067zm268.137 2.86c-22.03 0-41.31-4.66-57.83-13.982-16.53-9.322-29.24-22.669-38.14-40.041-8.9-17.373-13.35-37.711-13.35-61.015 0-23.305 4.45-43.537 13.35-60.698 8.9-17.372 21.61-30.719 38.14-40.041 16.52-9.322 35.8-13.982 57.83-13.982 27.76 0 51.7 7.626 71.82 22.88 3.18 2.542 5.41 5.085 6.68 7.627 1.27 2.542 1.9 5.72 1.9 9.534 0 5.508-1.59 10.275-4.76 14.3-2.97 3.814-6.68 5.72-11.13 5.72-2.96 0-5.61-.318-7.94-.953-2.12-.848-4.56-2.225-7.31-4.131-8.47-5.509-16.31-9.428-23.52-11.758-7.2-2.543-14.93-3.814-23.19-3.814-20.34 0-35.7 6.356-46.08 19.067-10.17 12.5-15.26 31.249-15.26 56.249 0 50.422 20.45 75.633 61.34 75.633 7.83 0 15.25-1.165 22.24-3.496 6.99-2.542 15.15-6.567 24.47-12.076 3.18-1.906 5.83-3.178 7.95-3.813 2.11-.848 4.55-1.271 7.3-1.271 4.45 0 8.16 2.012 11.13 6.038 3.17 3.813 4.76 8.474 4.76 13.982 0 3.814-.74 7.098-2.22 9.852-1.27 2.542-3.39 4.978-6.36 7.309-20.12 15.254-44.06 22.88-71.82 22.88zm210.72 0c-22.24 0-41.63-4.66-58.15-13.982-16.31-9.534-28.92-22.881-37.82-40.041-8.9-17.373-13.35-37.711-13.35-61.015 0-23.305 4.45-43.537 13.35-60.698 8.9-17.372 21.51-30.719 37.82-40.041 16.52-9.322 35.91-13.982 58.15-13.982 22.25 0 41.53 4.66 57.84 13.982 16.53 9.322 29.24 22.669 38.14 40.041 8.89 17.161 13.34 37.393 13.34 60.698 0 23.304-4.45 43.642-13.34 61.015-8.9 17.16-21.61 30.507-38.14 40.041-16.31 9.322-35.59 13.982-57.84 13.982zm0-38.452c18.65 0 33.27-6.567 43.86-19.703 10.8-13.135 16.21-32.096 16.21-56.883 0-24.788-5.3-43.643-15.89-56.566-10.6-13.136-25.32-19.703-44.18-19.703-18.85 0-33.58 6.567-44.17 19.703-10.38 12.923-15.57 31.778-15.57 56.566 0 24.787 5.3 43.748 15.89 56.883 10.59 13.136 25.21 19.703 43.85 19.703zM874.404 605.719c-9.604 0-18.548-1.02-26.832-3.061-8.163-2.161-14.886-5.102-20.168-8.824-2.041-1.561-3.542-3.182-4.502-4.862-.841-1.681-1.261-3.842-1.261-6.483 0-3.602 1.08-6.723 3.241-9.364 2.161-2.641 4.682-3.962 7.564-3.962 1.56 0 3.061.24 4.502.72 1.44.481 3.241 1.381 5.402 2.702 4.922 2.761 9.784 4.742 14.586 5.942 4.923 1.201 10.445 1.801 16.568 1.801 7.083 0 12.425-1.021 16.027-3.061 3.721-2.161 5.582-5.283 5.582-9.365 0-2.761-1.74-5.102-5.222-7.023-3.361-2.041-9.844-4.021-19.449-5.942-11.885-2.521-21.189-5.523-27.912-9.004-6.723-3.482-11.465-7.564-14.226-12.246-2.641-4.802-3.962-10.564-3.962-17.287 0-7.684 2.281-14.647 6.843-20.889 4.562-6.243 10.805-11.105 18.728-14.587 8.044-3.601 17.048-5.402 27.012-5.402 8.764 0 16.568.96 23.411 2.881 6.843 1.921 13.085 4.922 18.728 9.004 2.161 1.561 3.661 3.241 4.502 5.042.96 1.681 1.44 3.782 1.44 6.303 0 3.602-1.08 6.723-3.241 9.364-2.041 2.641-4.502 3.962-7.383 3.962-1.561 0-3.002-.18-4.322-.54-1.321-.481-3.182-1.441-5.583-2.882-.6-.36-2.341-1.26-5.222-2.701-2.761-1.56-6.063-2.761-9.904-3.601-3.722-.961-7.804-1.441-12.246-1.441-6.122 0-11.044 1.201-14.766 3.602-3.722 2.281-5.583 5.342-5.583 9.184 0 2.281.661 4.141 1.981 5.582 1.321 1.441 3.782 2.881 7.384 4.322 3.601 1.321 8.943 2.701 16.027 4.142 11.525 2.521 20.589 5.582 27.192 9.184 6.602 3.481 11.285 7.563 14.046 12.245 2.761 4.682 4.142 10.205 4.142 16.568 0 7.923-2.221 14.946-6.663 21.069-4.442 6.002-10.685 10.684-18.729 14.046-7.923 3.241-17.167 4.862-27.732 4.862zm132.006 0c-12.722 0-23.887-2.641-33.491-7.923-9.484-5.283-16.868-12.846-22.15-22.69-5.162-9.845-7.743-21.37-7.743-34.576 0-13.085 2.581-24.55 7.743-34.395 5.282-9.844 12.666-17.407 22.15-22.69 9.604-5.282 20.769-7.923 33.491-7.923 15.25 0 28.64 4.022 40.16 12.065 2.04 1.441 3.48 3.001 4.32 4.682.96 1.681 1.44 3.842 1.44 6.483 0 3.722-1.08 6.903-3.24 9.544-2.04 2.521-4.56 3.782-7.56 3.782-1.8 0-3.42-.24-4.86-.72-1.44-.601-3.12-1.501-5.05-2.702-4.2-2.521-8.16-4.322-11.88-5.402a41.127 41.127 0 00-11.53-1.621c-10.68 0-18.664 3.242-23.946 9.725-5.163 6.362-7.744 16.087-7.744 29.172 0 13.206 2.581 23.051 7.744 29.533 5.282 6.363 13.266 9.545 23.946 9.545 3.61 0 7.09-.541 10.45-1.621 3.36-1.201 7.68-3.001 12.96-5.402 2.53-1.321 4.39-2.221 5.59-2.702 1.2-.48 2.64-.72 4.32-.72 3 0 5.52 1.321 7.56 3.962 2.16 2.521 3.24 5.642 3.24 9.364 0 2.521-.48 4.682-1.44 6.483-.84 1.68-2.28 3.241-4.32 4.682-11.52 8.043-24.91 12.065-40.16 12.065zm119.42 0c-12.97 0-24.25-2.641-33.86-7.923-9.48-5.403-16.81-12.966-21.97-22.69-5.16-9.845-7.74-21.37-7.74-34.576 0-13.205 2.58-24.67 7.74-34.395 5.16-9.844 12.49-17.407 21.97-22.69 9.61-5.282 20.89-7.923 33.86-7.923 12.96 0 24.19 2.641 33.67 7.923 9.6 5.283 16.93 12.846 21.97 22.69 5.16 9.725 7.74 21.19 7.74 34.395 0 13.206-2.58 24.731-7.74 34.576-5.16 9.724-12.55 17.287-22.15 22.69-9.48 5.282-20.65 7.923-33.49 7.923zm0-25.391c9.6 0 17.1-3.362 22.51-10.085 5.4-6.843 8.1-16.747 8.1-29.713 0-12.965-2.76-22.81-8.28-29.533-5.41-6.723-12.85-10.084-22.33-10.084-9.61 0-17.11 3.361-22.51 10.084-5.41 6.603-8.11 16.448-8.11 29.533 0 13.086 2.7 22.991 8.11 29.713 5.4 6.723 12.9 10.085 22.51 10.085zm189.78 2.701c2.16 3.242 3.24 6.303 3.24 9.184 0 3.842-1.62 7.083-4.86 9.724-3.12 2.522-6.78 3.782-10.98 3.782-2.89 0-5.59-.66-8.11-1.981-2.52-1.32-4.68-3.301-6.48-5.942l-23.41-34.215c-1.68-2.401-3.48-4.142-5.4-5.223-1.8-1.2-3.97-1.801-6.49-1.801h-11.7v32.235c0 5.042-1.44 9.064-4.32 12.065-2.88 2.881-6.85 4.322-11.89 4.322-5.04 0-9.06-1.441-12.06-4.322-2.89-3.001-4.33-7.023-4.33-12.065v-96.343c0-4.922 1.32-8.704 3.97-11.345 2.64-2.641 6.42-3.961 11.34-3.961h45.2c15.37 0 26.89 3.361 34.58 10.084 7.8 6.603 11.7 16.207 11.7 28.813 0 9.604-2.64 17.767-7.92 24.49-5.28 6.603-12.73 11.045-22.33 13.326 3.96.601 7.38 1.921 10.26 3.962 3 2.041 5.94 5.102 8.83 9.184zm-51.5-51.322c7.32 0 12.54-1.141 15.67-3.422 3.24-2.281 4.86-6.003 4.86-11.165 0-5.282-1.62-9.064-4.86-11.345-3.13-2.401-8.35-3.601-15.67-3.601h-23.05v29.533zm87.34 72.391c-4.92 0-8.7-1.32-11.34-3.961-2.64-2.642-3.96-6.423-3.96-11.345v-96.343c0-4.922 1.32-8.704 3.96-11.345 2.64-2.641 6.42-3.961 11.34-3.961h62.31c5.16 0 9.06 1.08 11.7 3.241 2.65 2.161 3.97 5.282 3.97 9.364 0 8.644-5.23 12.966-15.67 12.966h-45.38v24.13h41.78c10.44 0 15.67 4.262 15.67 12.786 0 4.082-1.33 7.203-3.97 9.364-2.64 2.161-6.54 3.242-11.7 3.242h-41.78v26.291h45.38c10.44 0 15.67 4.322 15.67 12.966 0 4.082-1.32 7.203-3.97 9.364-2.64 2.161-6.54 3.241-11.7 3.241z" fill="#4a4a4a"/></g><defs id="defs114"><clipPath id="clip0"><path fill="#fff" transform="translate(.768 .426)" id="rect108" d="M0 0h1599.53v752.096H0z"/></clipPath><clipPath id="clip1"><path fill="#fff" transform="translate(149.068 85.17)" id="rect111" d="M0 0h572.016v572.016H0z"/></clipPath></defs></svg>