<svg xmlns="http://www.w3.org/2000/svg" width="274" height="130" viewBox="0 0 1377.625 652.782" fill="none"><rect width="1377.625" height="652.782" ry="47.219" fill="#fff"/><g clip-path="url(#clip0)" transform="translate(-111.188 -50.109)"><g clip-path="url(#clip1)"><path d="M688.832 98.344c9.874-.832 19.022 8.316 18.189 18.19-1.213 14.061-18.725 333.622-120.986 435.883-98.014 98.014-213.504 75.007-288.915 20.795a72.61 72.61 0 01-3.058-2.343l-67.981 67.886c-16.426 16.425-43.057 16.425-59.482 0-16.426-16.426-16.426-43.057 0-59.482l67.897-67.97a74.51 74.51 0 01-2.354-3.069c-54.212-75.411-77.22-190.901 20.795-288.915C355.198 117.057 674.758 99.546 688.832 98.344z" fill="#1e8f4e"/><path d="M549.79 442.531c1.751 3.94 2.627 7.443 2.627 10.508 0 6.13-2.517 11.384-7.553 15.762-4.816 4.16-10.398 6.239-16.747 6.239-4.159 0-8.1-1.094-11.822-3.283-3.721-2.409-6.567-5.911-8.538-10.509L490.353 422.5h-111.32l-17.405 38.748c-1.97 4.598-4.816 8.1-8.537 10.509-3.503 2.189-7.444 3.283-11.822 3.283-6.349 0-12.041-2.079-17.076-6.239-5.035-4.378-7.553-9.632-7.553-15.762 0-3.065.876-6.568 2.627-10.508l88.663-186.192c2.408-5.254 6.02-9.194 10.837-11.821 4.816-2.846 9.96-4.269 15.433-4.269 5.692 0 10.946 1.423 15.763 4.269 4.816 2.846 8.538 6.786 11.165 11.821zm-153.353-58.78h76.512l-38.092-85.379z" fill="#fff"/></g><path d="M843.728 403.098c-7.415 0-13.135-2.012-17.16-6.038-4.026-4.025-6.038-9.745-6.038-17.16V202.257c0-7.415 2.012-13.135 6.038-17.16 4.025-4.026 9.745-6.038 17.16-6.038h112.497c15.677 0 23.516 6.355 23.516 19.067 0 12.923-7.839 19.385-23.516 19.385h-87.392v52.435h81.036c15.677 0 23.516 6.461 23.516 19.385 0 12.711-7.839 19.067-23.516 19.067h-81.036v56.248h87.392c15.677 0 23.516 6.462 23.516 19.385 0 12.712-7.839 19.067-23.516 19.067zm268.142 2.86c-22.04 0-41.31-4.66-57.84-13.982-16.52-9.322-29.24-22.669-38.13-40.041-8.9-17.373-13.35-37.711-13.35-61.015 0-23.305 4.45-43.537 13.35-60.698 8.89-17.372 21.61-30.719 38.13-40.041 16.53-9.322 35.8-13.982 57.84-13.982 27.75 0 51.69 7.626 71.82 22.88 3.18 2.542 5.4 5.085 6.67 7.627 1.27 2.542 1.91 5.72 1.91 9.534 0 5.508-1.59 10.275-4.77 14.3-2.96 3.814-6.67 5.72-11.12 5.72-2.97 0-5.62-.318-7.95-.953-2.11-.848-4.55-2.225-7.3-4.131-8.48-5.509-16.32-9.428-23.52-11.758-7.2-2.543-14.94-3.814-23.2-3.814-20.34 0-35.7 6.356-46.08 19.067-10.17 12.5-15.25 31.249-15.25 56.249 0 50.422 20.44 75.633 61.33 75.633 7.84 0 15.25-1.165 22.25-3.496 6.99-2.542 15.14-6.567 24.47-12.076 3.17-1.906 5.82-3.178 7.94-3.813 2.12-.848 4.55-1.271 7.31-1.271 4.45 0 8.16 2.012 11.12 6.038 3.18 3.813 4.77 8.474 4.77 13.982 0 3.814-.74 7.098-2.23 9.852-1.27 2.542-3.39 4.978-6.35 7.309-20.13 15.254-44.07 22.88-71.82 22.88zm210.72 0c-22.25 0-41.63-4.66-58.16-13.982-16.31-9.534-28.92-22.881-37.81-40.041-8.9-17.373-13.35-37.711-13.35-61.015 0-23.305 4.45-43.537 13.35-60.698 8.89-17.372 21.5-30.719 37.81-40.041 16.53-9.322 35.91-13.982 58.16-13.982 22.24 0 41.52 4.66 57.84 13.982 16.52 9.322 29.23 22.669 38.13 40.041 8.9 17.161 13.35 37.393 13.35 60.698 0 23.304-4.45 43.642-13.35 61.015-8.9 17.16-21.61 30.507-38.13 40.041-16.32 9.322-35.6 13.982-57.84 13.982zm0-38.452c18.64 0 33.26-6.567 43.85-19.703 10.81-13.135 16.21-32.096 16.21-56.883 0-24.788-5.3-43.643-15.89-56.566-10.59-13.136-25.32-19.703-44.17-19.703-18.86 0-33.58 6.567-44.17 19.703-10.39 12.923-15.58 31.778-15.58 56.566 0 24.787 5.3 43.748 15.89 56.883 10.6 13.136 25.21 19.703 43.86 19.703zM873.689 605.719c-9.604 0-18.548-1.02-26.832-3.061-8.164-2.161-14.887-5.102-20.169-8.824-2.041-1.561-3.541-3.182-4.502-4.862-.84-1.681-1.26-3.842-1.26-6.483 0-3.602 1.08-6.723 3.241-9.364 2.161-2.641 4.682-3.962 7.563-3.962 1.561 0 3.062.24 4.502.72 1.441.481 3.242 1.381 5.403 2.702 4.922 2.761 9.784 4.742 14.586 5.942 4.922 1.201 10.445 1.801 16.567 1.801 7.084 0 12.426-1.021 16.028-3.061 3.721-2.161 5.582-5.283 5.582-9.365 0-2.761-1.741-5.102-5.222-7.023-3.362-2.041-9.845-4.021-19.449-5.942-11.885-2.521-21.189-5.523-27.912-9.004-6.723-3.482-11.465-7.564-14.226-12.246-2.642-4.802-3.962-10.564-3.962-17.287 0-7.684 2.281-14.647 6.843-20.889 4.562-6.243 10.805-11.105 18.728-14.587 8.044-3.601 17.048-5.402 27.012-5.402 8.764 0 16.567.96 23.41 2.881 6.843 1.921 13.086 4.922 18.729 9.004 2.16 1.561 3.661 3.241 4.501 5.042.961 1.681 1.441 3.782 1.441 6.303 0 3.602-1.08 6.723-3.241 9.364-2.041 2.641-4.502 3.962-7.384 3.962-1.56 0-3.001-.18-4.321-.54-1.321-.481-3.182-1.441-5.583-2.882-.6-.36-2.341-1.26-5.222-2.701-2.761-1.56-6.063-2.761-9.905-3.601-3.721-.961-7.803-1.441-12.245-1.441-6.123 0-11.045 1.201-14.766 3.602-3.722 2.281-5.583 5.342-5.583 9.184 0 2.281.66 4.141 1.981 5.582 1.321 1.441 3.782 2.881 7.383 4.322 3.602 1.321 8.944 2.701 16.027 4.142 11.525 2.521 20.589 5.582 27.192 9.184 6.603 3.481 11.285 7.563 14.046 12.245 2.762 4.682 4.142 10.205 4.142 16.568 0 7.923-2.221 14.946-6.663 21.069-4.442 6.002-10.684 10.684-18.728 14.046-7.923 3.241-17.167 4.862-27.732 4.862zm132.011 0c-12.727 0-23.892-2.641-33.497-7.923-9.484-5.283-16.867-12.846-22.149-22.69-5.163-9.845-7.744-21.37-7.744-34.576 0-13.085 2.581-24.55 7.744-34.395 5.282-9.844 12.665-17.407 22.149-22.69 9.605-5.282 20.77-7.923 33.497-7.923 15.24 0 28.63 4.022 40.16 12.065 2.04 1.441 3.48 3.001 4.32 4.682.96 1.681 1.44 3.842 1.44 6.483 0 3.722-1.08 6.903-3.24 9.544-2.04 2.521-4.57 3.782-7.57 3.782-1.8 0-3.42-.24-4.86-.72-1.44-.601-3.12-1.501-5.04-2.702-4.2-2.521-8.16-4.322-11.89-5.402a41.109 41.109 0 00-11.52-1.621c-10.686 0-18.669 3.242-23.952 9.725-5.162 6.362-7.743 16.087-7.743 29.172 0 13.206 2.581 23.051 7.743 29.533 5.283 6.363 13.266 9.545 23.952 9.545 3.6 0 7.08-.541 10.44-1.621 3.37-1.201 7.69-3.001 12.97-5.402 2.52-1.321 4.38-2.221 5.58-2.702 1.2-.48 2.64-.72 4.32-.72 3 0 5.53 1.321 7.57 3.962 2.16 2.521 3.24 5.642 3.24 9.364 0 2.521-.48 4.682-1.44 6.483-.84 1.68-2.28 3.241-4.32 4.682-11.53 8.043-24.92 12.065-40.16 12.065zm119.41 0c-12.97 0-24.25-2.641-33.85-7.923-9.49-5.403-16.81-12.966-21.97-22.69-5.17-9.845-7.75-21.37-7.75-34.576 0-13.205 2.58-24.67 7.75-34.395 5.16-9.844 12.48-17.407 21.97-22.69 9.6-5.282 20.88-7.923 33.85-7.923 12.97 0 24.19 2.641 33.68 7.923 9.6 5.283 16.92 12.846 21.96 22.69 5.17 9.725 7.75 21.19 7.75 34.395 0 13.206-2.58 24.731-7.75 34.576-5.16 9.724-12.54 17.287-22.14 22.69-9.49 5.282-20.65 7.923-33.5 7.923zm0-25.391c9.6 0 17.11-3.362 22.51-10.085 5.4-6.843 8.1-16.747 8.1-29.713 0-12.965-2.76-22.81-8.28-29.533-5.4-6.723-12.85-10.084-22.33-10.084-9.6 0-17.11 3.361-22.51 10.084-5.4 6.603-8.1 16.448-8.1 29.533 0 13.086 2.7 22.991 8.1 29.713 5.4 6.723 12.91 10.085 22.51 10.085zm189.79 2.701c2.16 3.242 3.24 6.303 3.24 9.184 0 3.842-1.62 7.083-4.87 9.724-3.12 2.522-6.78 3.782-10.98 3.782-2.88 0-5.58-.66-8.1-1.981-2.52-1.32-4.69-3.301-6.49-5.942l-23.41-34.215c-1.68-2.401-3.48-4.142-5.4-5.223-1.8-1.2-3.96-1.801-6.48-1.801h-11.71v32.235c0 5.042-1.44 9.064-4.32 12.065-2.88 2.881-6.84 4.322-11.88 4.322-5.05 0-9.07-1.441-12.07-4.322-2.88-3.001-4.32-7.023-4.32-12.065v-96.343c0-4.922 1.32-8.704 3.96-11.345 2.64-2.641 6.42-3.961 11.35-3.961h45.2c15.36 0 26.89 3.361 34.57 10.084 7.8 6.603 11.71 16.207 11.71 28.813 0 9.604-2.65 17.767-7.93 24.49-5.28 6.603-12.72 11.045-22.33 13.326 3.96.601 7.39 1.921 10.27 3.962 3 2.041 5.94 5.102 8.82 9.184zm-51.51-51.322c7.33 0 12.55-1.141 15.67-3.422 3.24-2.281 4.86-6.003 4.86-11.165 0-5.282-1.62-9.064-4.86-11.345-3.12-2.401-8.34-3.601-15.67-3.601h-23.05v29.533zm87.35 72.391c-4.93 0-8.71-1.32-11.35-3.961-2.64-2.642-3.96-6.423-3.96-11.345v-96.343c0-4.922 1.32-8.704 3.96-11.345 2.64-2.641 6.42-3.961 11.35-3.961h62.3c5.17 0 9.07 1.08 11.71 3.241 2.64 2.161 3.96 5.282 3.96 9.364 0 8.644-5.22 12.966-15.67 12.966h-45.38v24.13h41.78c10.45 0 15.67 4.262 15.67 12.786 0 4.082-1.32 7.203-3.96 9.364-2.64 2.161-6.54 3.242-11.71 3.242h-41.78v26.291h45.38c10.45 0 15.67 4.322 15.67 12.966 0 4.082-1.32 7.203-3.96 9.364-2.64 2.161-6.54 3.241-11.71 3.241z" fill="#4a4a4a"/></g><defs id="defs18"><clipPath id="clip0"><path fill="#fff" transform="translate(.052 .426)" id="rect12" d="M0 0h1599.53v752.096H0z"/></clipPath><clipPath id="clip1"><path fill="#fff" transform="translate(148.353 85.17)" id="rect15" d="M0 0h572.016v572.016H0z"/></clipPath></defs></svg>