<svg xmlns="http://www.w3.org/2000/svg" width="24" height="24"><path d="M14 20c-3.864 1.035-6.876-1.464-7-3 2.898-.776 6.224.102 7 3z" fill="#fff"/><path d="M9.5 6C7 6 4 7 2 12c2 5 5 6 7.5 6 4.142 0 7.5-2.686 7.5-6s-3.358-6-7.5-6zM5.398 8.967a1 1 0 011 1 1 1 0 01-1 1 1 1 0 01-1-1 1 1 0 011-1zM22 7c-3 0-5 2-5 5s2 5 5 5c-.271-2.503-1-5-2.984-5.021C21 12 22 10.46 22 7z" fill="#fff"/><path d="M14 4c-3.864-1.035-6.876 1.464-7 3 2.898.776 6.224-.102 7-3z" fill="#fff"/><path fill="#b3b3b3" d="M0 0h24v24H0z"/><circle cx="12" cy="12" r="10" fill="#e6e6e6"/><path d="M11.98 2A10 10 0 002 12a10 10 0 0010 10V2a10 10 0 00-.02 0z" fill="#ccc"/><circle cx="8" cy="9.867" r="2" fill="#e6e6e6"/><circle cx="16" cy="9.867" r="2" fill="#ccc"/><path d="M12 16a3 3 0 01-3-3H8a4 4 0 004 4z" fill="#e6e6e6"/><path d="M12 16v1a4 4 0 004-4h-1a3 3 0 01-3 3z" fill="#ccc"/><path d="M11.98 2A10 10 0 002 12a10 10 0 0010 10 10 10 0 0010-10A10 10 0 0012 2a10 10 0 00-.02 0zM12 4a8 8 0 018 8 8 8 0 01-8 8 8 8 0 01-8-8 8 8 0 018-8z" fill="#f2f2f2"/></svg>