<svg xmlns="http://www.w3.org/2000/svg" width="24" height="24"><rect width="24" height="24" ry="3" rx="3" fill="#fff"/><path d="M17.86 2a2.24 2.24 0 00-1.27.419c-1.03.74-1.247 2.233-.651 3.164.596.931 2.06 1.263 3.09.523 1.03-.74 1.235-2.274.64-3.205-.373-.582-1.08-.914-1.81-.9zm-6.715.227c-.314-.016-.604.137-.829.448-.36.496-.235 1.527.29 1.888.527.362 1.054.266 1.413-.23.36-.497.236-1.528-.29-1.889a1.143 1.143 0 00-.584-.217zm2.764.06a1.268 1.268 0 00-.236.016c-.634.104-1.04.991-.935 1.582.105.59.704.984 1.339.88.635-.103 1.04-.99.935-1.58-.091-.517-.562-.884-1.103-.898zm-5.128.925c-.448-.009-.846.319-.934.803-.101.553.324 1.392.846 1.516.523.123 1.028-.225 1.13-.779.1-.553-.325-1.392-.847-1.516a.921.921 0 00-.195-.024zM6.664 4.963a.637.637 0 00-.62.437c-.155.447.11 1.048.592 1.343.483.295 1 .171 1.157-.276.155-.447-.11-1.049-.592-1.343a1.015 1.015 0 00-.537-.16zm5.653.213c-.795-.003-1.566.15-2.192.423-2.533 1.106-3.206 2.519-3.57 5.282-.364 2.762.857 10.069 3.79 10.886 2.622.731 3.634-.686 3.35-2.031-.29-1.381-1.727-3.17-1.82-4.387-.22-2.844 2.986-3.088 2.986-3.088 2.895-.344 2.483-5.141.073-6.418-.785-.46-1.716-.664-2.617-.667z" fill="#b3b3b3"/></svg>