<svg xmlns="http://www.w3.org/2000/svg" width="24" height="24"><rect width="24" height="24" ry="5" fill="#b3b3b3"/><path d="M12 21l9-11c1.285 0 1 2 1 2zM12 21l-5 1c-1.244-1.433-.545-2.19 0-3zM12 21l9-13c-.294-1.112-.953-1.787-2-2zM12 21L3 10c-1.285 0-1 2-1 2zM12 21l3-17c1.227-.412 2.7.18 3 1zM12 21L3 8c.294-1.112.953-1.787 2-2zM12 21l9-5c1-1 1-2 0-2zM12 21L9 4c-1.227-.412-2.7.18-3 1zM12 21l2-18c-1.57-1.133-2.38-1.124-4 0zM12 21l-9-5c-1-1-1-2 0-2zM12 21l5 1c1.244-1.433.545-2.19 0-3z" fill="#fff"/></svg>