<svg xmlns="http://www.w3.org/2000/svg" width="24" height="24"><rect width="24" height="24" ry="5" fill="green"/><path d="M2 5c0 4 1 5 5 5 0-3-2-5-5-5z" fill="#fff"/><path d="M7 3c2.828 2.828 2.828 4.243 0 7.071C4.879 7.95 4.879 5.121 7 3zM22 5c0 4-1 5-5 5 0-3 2-5 5-5z" fill="#fff"/><path d="M17 3c-2.828 2.828-2.828 4.243 0 7.071C19.121 7.95 19.121 5.121 17 3zM12 9a7.061 6 0 00-1.402.121 1 1 0 01.525.879 1 1 0 01-1 1 1 1 0 01-1-1 1 1 0 01.156-.535A7.061 6 0 004.94 15 7.061 6 0 0012 21a7.061 6 0 007.06-6 7.061 6 0 00-4.34-5.535 1 1 0 01.157.535 1 1 0 01-1 1 1 1 0 01-1-1 1 1 0 01.523-.879A7.061 6 0 0012 9z" fill="#fff"/><path d="M21.377.623L.623 21.377a4.964 4.964 0 002 2L23.377 2.623a4.964 4.964 0 00-2-2z" fill="#0f0" opacity=".5"/></svg>