<svg xmlns="http://www.w3.org/2000/svg" width="24" height="24"><rect width="24" height="24" ry="5" fill="green"/><g fill="#fff"><path d="M7 7c0 4 1 5 5 5 0-3-2-5-5-5zM7 12c0 4 1 5 5 5 0-3-2-5-5-5zM7 17c0 4 1 5 5 5 0-3-2-5-5-5zM17 7c0 4-1 5-5 5 0-3 2-5 5-5zM17 12c0 4-1 5-5 5 0-3 2-5 5-5zM17 17c0 4-1 5-5 5 0-3 2-5 5-5z"/><path d="M12 2c-2.121 2.121-2.121 4.95 0 7.071C14.121 6.95 14.121 4.121 12 2z"/></g><path d="M21.377.623L.623 21.377a4.964 4.964 0 002 2L23.377 2.623a4.964 4.964 0 00-2-2z" fill="#0f0" opacity=".5"/></svg>