<svg xmlns="http://www.w3.org/2000/svg" width="24" height="24"><rect width="24" height="24" ry="5" fill="green"/><path d="M3 5c.382-1.828 5.44-1.89 7.403-1.64 1.69.215 2.25 4.048 1.211 5.466-.607.828-6.379 2.369-7.403 1.64C3.189 9.739 2.58 7.004 3 5zM13 21c-3.566.634-6.58-1.382-6.896-2.454-.47-1.592.988-4.767 1.96-5.202.937-.42 6.626 1.52 7.12 2.677.571 1.335-.48 2.153-.76 3.009-.355 1.081-.299 1.77-1.424 1.97zM13 9c-.074 1.623 2.937 6.875 5.037 5.667 1.477-.848 3.51-1.965 3.547-3.721.023-1.05-3.09-5.638-4.497-5.531C15.836 5.51 13.093 6.955 13 9z" fill="#fff"/><path d="M21.377.623L.623 21.377a4.964 4.964 0 002 2L23.377 2.623a4.964 4.964 0 00-2-2z" fill="#0f0" opacity=".5"/></svg>