<svg xmlns="http://www.w3.org/2000/svg" width="24" height="24"><rect width="24" height="24" ry="5" fill="green"/><g fill="#fff" fill-rule="evenodd"><path d="M12 3c9.747 1.076 11.148 11.886 1.202 18.275C15.646 20.16 21 17.991 21 10.472 21 4.917 16.97 3 12 3zm0 0c6.647 4.402 5.096 14.212.222 18.78.014-.01.035-.021.05-.031C22.411 12.913 18.686 5.214 12 3zm0 0c1.125 3.353 1.125 13.412 0 19 4.164-6.706 3.375-14.53 0-19zm0 0c-3.375 4.47-4.164 12.294 0 19-1.125-5.588-1.125-15.647 0-19zm0 0c-6.686 2.214-10.41 9.913-.272 18.749.015.01.036.02.05.03C6.904 17.213 5.353 7.403 12 3zm0 0c-4.97 0-9 1.917-9 7.472 0 7.519 5.354 9.688 7.798 10.803C.852 14.885 2.253 4.076 12 3z"/><path d="M12 3c-3.171 0-5.953.787-7.556 2.794C6.047 7.802 8.829 8.588 12 8.588c3.171 0 5.953-.786 7.556-2.794C17.953 3.787 15.171 3 12 3z"/></g><path d="M21.377.623L.623 21.377a4.964 4.964 0 002 2L23.377 2.623a4.964 4.964 0 00-2-2z" fill="#0f0" opacity=".5"/></svg>