<svg xmlns="http://www.w3.org/2000/svg" width="68" height="130"><path d="M0 36h68v90H0z" fill="#fc0"/><g aria-label="NOVA" style="line-height:0%;-inkscape-font-specification:'Raleway Ultra-Bold'" font-weight="800" font-size="267.972" font-family="Raleway" letter-spacing="0" word-spacing="0" fill="#7d7d7d" stroke-width="22.331"><path d="M4.865 19.555v9.942H.85V12.11h3.135l8.105 10.212V12.11h4.017v17.387h-3.233zM27.071 29.644q-1.935 0-3.526-.76-1.592-.758-2.719-1.983-1.126-1.249-1.763-2.84-.612-1.592-.612-3.282 0-1.714.637-3.306.66-1.592 1.812-2.792 1.175-1.224 2.767-1.934 1.592-.735 3.477-.735 1.935 0 3.527.76 1.592.758 2.718 2.007 1.127 1.25 1.739 2.841.612 1.592.612 3.233 0 1.714-.661 3.306-.637 1.591-1.788 2.816-1.15 1.2-2.743 1.934-1.591.735-3.477.735zm-4.53-8.816q0 1.004.293 1.96.294.93.857 1.664.588.735 1.445 1.176.857.44 1.96.44 1.15 0 2.008-.465.857-.465 1.42-1.2.563-.759.833-1.69.293-.954.293-1.934 0-1.004-.293-1.935-.294-.955-.882-1.665-.588-.735-1.445-1.15-.833-.442-1.935-.442-1.15 0-2.008.466-.832.44-1.42 1.175-.563.735-.857 1.69-.27.93-.27 1.91zM39.961 12.11l4.09 12.342 4.04-12.342h4.237l-6.587 17.387h-3.38l-6.66-17.387zM57.184 12.11h3.624l6.343 17.387h-4.114l-1.347-3.894h-5.412l-1.323 3.894h-4.114zm3.845 10.726l-2.033-6.147-2.081 6.147z" style="-inkscape-font-specification:'Raleway Ultra-Bold'"/></g><g style="line-height:1.25"><path d="M55.01 108.06H17.179v-7.959l13.586-13.734q6.034-6.182 7.885-8.55 1.85-2.407 2.665-4.443.814-2.036.814-4.22 0-3.258-1.814-4.85-1.776-1.592-4.775-1.592-3.147 0-6.108 1.444-2.962 1.444-6.182 4.11l-6.22-7.367q3.999-3.406 6.627-4.813 2.628-1.407 5.738-2.147 3.11-.777 6.96-.777 5.071 0 8.958 1.85 3.887 1.852 6.034 5.183 2.147 3.332 2.147 7.626 0 3.739-1.333 7.034-1.295 3.257-4.072 6.7-2.739 3.443-9.699 9.81l-6.959 6.552v.519h23.58z" style="-inkscape-font-specification:'Open Sans Bold'" font-weight="700" font-family="Open Sans" aria-label="2" font-size="829.604" letter-spacing="0" word-spacing="0" fill="#fff" stroke-width="20.74"/></g></svg>