<svg xmlns="http://www.w3.org/2000/svg" width="240" height="130"><path d="M22.242 0h195.516A22.193 22.193 0 01240 22.242v78.131a22.193 22.193 0 01-22.242 22.242H22.242A22.193 22.193 0 010 100.373V22.242A22.193 22.193 0 0122.242 0z" fill="#fff" fill-rule="evenodd"/><path d="M35.93 44.198h44.845v72.429H35.929z" fill="#038141" fill-rule="evenodd"/><path d="M166.528 44.198h44.846v72.429h-44.846z" fill="#e63e11" fill-rule="evenodd"/><path d="M26.804 44.198h11.198c9.32 0 16.824 7.504 16.824 16.824v38.78c0 9.321-7.503 16.825-16.824 16.825H26.804A16.787 16.787 0 019.98 99.803v-38.78c0-9.321 7.504-16.825 16.824-16.825z" fill="#038141" fill-rule="evenodd"/><path d="M144.572 44.198h44.845v72.429h-44.845z" fill="#ee8100" fill-rule="evenodd"/><path style="line-height:90%;-inkscape-font-specification:'Raleway Ultra-Bold'" d="M148.17 96.33V63.495h12.255q4.07 0 7.122 1.295 3.052 1.295 5.087 3.515 2.08 2.22 3.098 5.226 1.064 2.96 1.064 6.336 0 3.746-1.156 6.798-1.156 3.006-3.33 5.18-2.127 2.127-5.18 3.33-3.006 1.155-6.705 1.155zm20.903-16.463q0-2.174-.601-3.931-.555-1.804-1.665-3.099-1.11-1.295-2.729-1.988-1.618-.694-3.653-.694h-4.671V89.67h4.67q2.082 0 3.7-.74 1.619-.74 2.683-2.035 1.11-1.341 1.665-3.098.6-1.804.6-3.931z" font-weight="800" font-family="Raleway" letter-spacing="0" word-spacing="0" fill="#fff" fill-opacity=".446"/><path d="M97.296 44.198h47.353v72.429H97.296z" fill="#fecb02" fill-rule="evenodd"/><path d="M99.595 44.198H54.749v72.429h44.846z" fill="#85bb2f" fill-rule="evenodd"/><path style="line-height:90%;-inkscape-font-specification:'Raleway Ultra-Bold'" d="M106.012 79.358q0-2.96 1.11-5.873 1.11-2.96 3.237-5.272 2.127-2.313 5.18-3.746 3.052-1.434 6.937-1.434 4.624 0 8 1.989 3.422 1.988 5.087 5.18l-5.827 4.069q-.555-1.295-1.433-2.127-.833-.88-1.85-1.388-1.018-.555-2.081-.74-1.064-.231-2.081-.231-2.174 0-3.793.879-1.618.878-2.682 2.266-1.064 1.387-1.572 3.144-.51 1.758-.51 3.561 0 1.943.602 3.746.601 1.804 1.711 3.191 1.156 1.388 2.729 2.22 1.618.786 3.607.786 1.017 0 2.081-.23 1.11-.278 2.081-.787 1.018-.555 1.85-1.387.832-.88 1.341-2.128l6.197 3.654q-.74 1.803-2.22 3.237-1.433 1.434-3.33 2.405-1.895.971-4.023 1.48-2.127.508-4.162.508-3.56 0-6.567-1.433-2.96-1.48-5.133-3.885-2.128-2.405-3.33-5.457-1.156-3.052-1.156-6.197zM90.745 87.914q0 2.127-.878 3.7-.88 1.572-2.405 2.635-1.526 1.018-3.561 1.573-2.035.508-4.301.508H63.599V63.495h18.267q1.711 0 3.098.74 1.388.74 2.359 1.943.971 1.156 1.48 2.682.555 1.48.555 3.052 0 2.359-1.203 4.44-1.156 2.081-3.514 3.145 2.82.832 4.44 2.96 1.664 2.127 1.664 5.457zm-7.723-1.527q0-1.526-.879-2.59-.878-1.063-2.22-1.063h-8.74v7.168H79.6q1.48 0 2.45-.971.972-.971.972-2.544zM71.183 69.97v6.798h7.446q1.248 0 2.22-.832.97-.833.97-2.59 0-1.619-.878-2.497-.832-.88-2.035-.88z" font-weight="800" font-family="Raleway" letter-spacing="0" word-spacing="0" fill="#fff" fill-opacity=".446"/><path d="M206.916 34.788h4.858a24.185 24.185 0 0124.238 24.238v42.488a24.185 24.185 0 01-24.238 24.238h-4.858a24.185 24.185 0 01-24.238-24.238V59.026a24.185 24.185 0 0124.238-24.238z" fill="#0039ff" fill-opacity=".63" fill-rule="evenodd" stroke="#fff" stroke-width="7.5392829599999995" stroke-linecap="round" stroke-linejoin="round"/><path style="line-height:90%;-inkscape-font-specification:'Raleway Ultra-Bold'" d="M28.98 63.495h6.845L47.803 96.33h-7.77l-2.543-7.353H27.27l-2.498 7.353h-7.769zm7.262 20.256l-3.839-11.607-3.93 11.607z" font-weight="800" font-family="Raleway" letter-spacing="0" word-spacing="0" fill="#fff" fill-opacity=".446"/><path d="M206.164 44.198h11.198c9.32 0 16.824 7.504 16.824 16.824v38.78c0 9.321-7.503 16.825-16.824 16.825h-11.198a16.787 16.787 0 01-16.824-16.824v-38.78c0-9.321 7.504-16.825 16.824-16.825z" fill="#e63e11" fill-rule="evenodd"/><path style="line-height:90%;-inkscape-font-specification:'Raleway Ultra-Bold'" d="M220.883 89.67v6.66h-23.077V63.495h22.661v6.66h-15.076v6.382h12.949v6.15h-12.95v6.984z" font-weight="800" font-family="Raleway" letter-spacing="0" word-spacing="0" fill="#fff" fill-opacity=".446"/><path d="M206.916 34.788h4.858a24.185 24.185 0 0124.238 24.238v42.488a24.185 24.185 0 01-24.238 24.238h-4.858a24.185 24.185 0 01-24.238-24.238V59.026a24.185 24.185 0 0124.238-24.238z" fill="#e63e11" fill-rule="evenodd"/><path style="line-height:90%;-inkscape-font-specification:'Raleway Ultra-Bold'" d="M223.3 94.022v8.78h-27.91v-43.29h27.406v8.78h-18.233v8.414h15.66v8.11h-15.66v9.206z" font-weight="800" font-family="Raleway" letter-spacing="0" word-spacing="0" fill="#fff"/><path style="line-height:90%;-inkscape-font-specification:'Raleway Ultra-Bold'" d="M19.268 20.154v9.49h-3.834V13.048h2.992l7.738 9.747v-9.747h3.833v16.596h-3.085zM40.324 26.372q.981 0 1.66-.398.677-.42 1.098-1.098.42-.678.584-1.543.187-.888.187-1.8v-8.485h3.834v8.485q0 1.73-.444 3.226-.42 1.496-1.333 2.618-.888 1.122-2.29 1.776-1.38.632-3.296.632-1.987 0-3.39-.678-1.402-.678-2.29-1.8-.865-1.146-1.286-2.642-.398-1.496-.398-3.132v-8.485h3.834v8.485q0 .958.187 1.823t.608 1.543q.42.678 1.075 1.075.678.398 1.66.398zM63.28 16.414h-5.049v13.23h-3.833v-13.23h-5.073v-3.366h13.956zM65.153 29.644V13.048h7.48q1.169 0 2.15.49 1.006.491 1.73 1.286.725.795 1.122 1.8.421 1.005.421 2.034 0 .771-.187 1.496-.187.701-.538 1.332-.35.631-.864 1.146-.491.49-1.122.841l3.646 6.171h-4.324l-3.18-5.353h-2.5v5.353zm3.833-8.695h3.507q.678 0 1.168-.632.491-.654.491-1.66 0-1.028-.56-1.635-.562-.608-1.216-.608h-3.39zM80.813 29.644V13.048h3.833v16.596zM87.516 24.9v-3.367h7.2v3.366zM107.526 17.91q-.07-.094-.49-.35-.422-.258-1.053-.538-.63-.281-1.379-.491-.748-.21-1.496-.21-2.057 0-2.057 1.378 0 .421.21.702.234.28.655.514.444.21 1.099.397.654.187 1.519.421 1.192.327 2.15.725.959.374 1.613.958.678.561 1.029 1.38.374.817.374 1.963 0 1.402-.538 2.384-.514.959-1.379 1.566-.865.585-1.987.865-1.122.257-2.314.257-.912 0-1.87-.14-.958-.14-1.87-.397-.912-.28-1.777-.655-.841-.374-1.566-.865l1.683-3.342q.094.116.608.444.514.327 1.262.654.772.327 1.707.585.935.257 1.893.257 2.034 0 2.034-1.24 0-.467-.304-.77-.304-.304-.842-.538-.537-.257-1.285-.468-.725-.21-1.59-.467-1.145-.35-1.987-.748-.841-.421-1.402-.959-.538-.537-.818-1.239-.257-.7-.257-1.636 0-1.309.49-2.314.491-1.005 1.333-1.683.841-.701 1.94-1.052 1.122-.35 2.36-.35.866 0 1.707.163.842.164 1.613.42.772.258 1.426.585.678.327 1.239.655zM110.991 21.206q0-1.496.561-2.969.561-1.496 1.636-2.665 1.076-1.169 2.618-1.893 1.543-.725 3.507-.725 2.337 0 4.044 1.005 1.73 1.005 2.571 2.618l-2.945 2.057q-.28-.654-.725-1.075-.42-.444-.935-.701-.514-.28-1.052-.374-.538-.117-1.052-.117-1.098 0-1.917.444-.818.444-1.355 1.146-.538.7-.795 1.59-.257.887-.257 1.799 0 .982.304 1.893.304.912.865 1.613.584.702 1.379 1.122.818.398 1.823.398.514 0 1.052-.117.56-.14 1.052-.397.514-.281.935-.702.42-.444.678-1.075l3.132 1.847q-.374.911-1.122 1.636-.725.725-1.683 1.215-.958.491-2.034.748-1.075.258-2.104.258-1.8 0-3.319-.725-1.496-.748-2.595-1.964-1.075-1.215-1.683-2.758-.584-1.543-.584-3.132zM135.107 29.785q-1.846 0-3.366-.725t-2.595-1.893q-1.075-1.193-1.683-2.712-.584-1.52-.584-3.132 0-1.637.608-3.156.631-1.52 1.73-2.665 1.122-1.169 2.641-1.847 1.52-.7 3.32-.7 1.846 0 3.365.724 1.52.724 2.595 1.917 1.075 1.192 1.66 2.711.584 1.52.584 3.086 0 1.636-.631 3.155-.608 1.52-1.706 2.689-1.099 1.145-2.618 1.846-1.52.702-3.32.702zm-4.324-8.416q0 .959.28 1.87.28.889.818 1.59.561.701 1.38 1.122.818.42 1.87.42 1.098 0 1.916-.443.819-.445 1.356-1.146.538-.724.795-1.613.28-.911.28-1.846 0-.959-.28-1.847-.28-.912-.842-1.59-.56-.7-1.379-1.098-.794-.421-1.846-.421-1.099 0-1.917.444-.795.42-1.356 1.122-.538.701-.818 1.613-.257.888-.257 1.823zM145.597 29.644V13.048h7.48q1.17 0 2.151.49 1.005.491 1.73 1.286.724.795 1.122 1.8.42 1.005.42 2.034 0 .771-.186 1.496-.187.701-.538 1.332-.35.631-.865 1.146-.49.49-1.122.841l3.647 6.171h-4.325l-3.179-5.353h-2.501v5.353zm3.834-8.695h3.506q.678 0 1.169-.632.49-.654.49-1.66 0-1.028-.56-1.635-.561-.608-1.216-.608h-3.39zM172.921 26.278v3.366h-11.664V13.048h11.454v3.366h-7.62v3.226h6.545v3.109h-6.545v3.53z" font-weight="800" font-family="Raleway" letter-spacing="0" word-spacing="0" fill="#7d7d7d"/></svg>