<svg xmlns="http://www.w3.org/2000/svg" width="24" height="24"><path d="M14 20c-3.864 1.035-6.876-1.464-7-3 2.898-.776 6.224.102 7 3z" fill="#fff"/><path d="M9.5 6C7 6 4 7 2 12c2 5 5 6 7.5 6 4.142 0 7.5-2.686 7.5-6s-3.358-6-7.5-6zM5.398 8.967a1 1 0 011 1 1 1 0 01-1 1 1 1 0 01-1-1 1 1 0 011-1zM22 7c-3 0-5 2-5 5s2 5 5 5c-.271-2.503-1-5-2.984-5.021C21 12 22 10.46 22 7z" fill="#fff"/><path d="M14 4c-3.864-1.035-6.876 1.464-7 3 2.898.776 6.224-.102 7-3z" fill="#fff"/><g transform="translate(26)"><rect width="24" height="24" x="-26" ry="0" fill="#00d400"/><circle cx="-14" cy="12" r="10" fill="#fff"/><circle cx="-14" cy="12" r="8" fill="#5df"/><path d="M-21.414 15A8 8 0 00-14 20a8 8 0 007.416-5z" fill="#784421"/><path d="M-8 8c-4 0-7 1-7 6 4 0 7-1 7-6z" fill="green"/><path fill="#0a0" d="M-15 14h1v5h-1zM-20 9c3 0 6 1 6 5-4 0-6-2-6-5z"/></g></svg>