<svg width="247" height="200" fill="none" xmlns="http://www.w3.org/2000/svg"><g clip-path="url(#a)"><path d="M211.659 19.725H35.341C15.823 19.725 0 35.565 0 55.105v73.723c0 19.54 15.823 35.38 35.341 35.38H211.66c19.518 0 35.341-15.84 35.341-35.38V55.105c0-19.54-15.823-35.38-35.341-35.38Z" fill="#fff"/><path d="M50.848 192.22v-68.879h90.398l-77.257 74.477c-4.926 4.749-13.137 1.254-13.137-5.594l-.004-.004Z" fill="#fff"/><path d="M212.622 67.141H34.374a2.577 2.577 0 0 1-2.576-2.578 2.577 2.577 0 0 1 2.576-2.579h178.248a2.578 2.578 0 0 1 2.576 2.579 2.578 2.578 0 0 1-2.576 2.578ZM212.622 94.547H34.374a2.577 2.577 0 0 1-2.576-2.579 2.577 2.577 0 0 1 2.576-2.578h178.248a2.578 2.578 0 0 1 2.576 2.578 2.578 2.578 0 0 1-2.576 2.579ZM157.716 121.949H34.374a2.578 2.578 0 0 1-2.576-2.579 2.578 2.578 0 0 1 2.576-2.579h123.342a2.578 2.578 0 0 1 2.576 2.579 2.578 2.578 0 0 1-2.576 2.579Z" fill="#AFAFAF"/><path d="m198.731.27 14.29 4.538a6.024 6.024 0 0 1 3.913 7.557L189.247 99.74l-25.755-8.179 27.687-87.376A6.015 6.015 0 0 1 198.727.27l.004.001Z" fill="#0064C8"/><path d="m189.237 99.752-25.751-8.18 2.231 17.364 11.694 3.714 11.826-12.898Z" fill="#FFC88C"/><path d="m172.323 118.2 5.088-5.55-11.694-3.714.963 7.474c.38 2.944 3.638 3.98 5.643 1.794v-.004Z" fill="#333"/><path d="m212.318 4.585-6.441-2.046-29.504 93.113 6.44 2.045 29.505-93.112ZM198.728.271l.706.224-29.504 93.11-6.44-2.046 27.686-87.372A6.014 6.014 0 0 1 198.724.27l.004.001Z" fill="#5CB5FF"/></g><path d="M83.585 8.188a9.734 9.734 0 0 0-6.928-2.871 9.735 9.735 0 0 0-6.928 2.87l-1 1.002-1.002-1.001A9.74 9.74 0 0 0 60.8 5.317a9.74 9.74 0 0 0-6.928 2.87A9.737 9.737 0 0 0 51 15.116a9.738 9.738 0 0 0 2.871 6.927l14.42 14.416c.121.122.28.182.44.182.162 0 .32-.06.442-.181l14.419-14.417a9.738 9.738 0 0 0 2.87-6.927 9.737 9.737 0 0 0-2.87-6.927h-.007Z" fill="#000" style="mix-blend-mode:multiply" opacity=".3"/><path d="M84.902 6.87A9.734 9.734 0 0 0 77.975 4a9.735 9.735 0 0 0-6.928 2.87l-1.001 1.002-1.002-1.001A9.74 9.74 0 0 0 62.117 4a9.74 9.74 0 0 0-6.928 2.87 9.737 9.737 0 0 0-2.872 6.928 9.737 9.737 0 0 0 2.872 6.927l14.419 14.417c.121.121.28.18.44.18.162 0 .32-.059.442-.18L84.91 20.725a9.738 9.738 0 0 0 2.871-6.927A9.737 9.737 0 0 0 84.91 6.87h-.007Z" fill="#FF6E78"/><defs><clipPath id="a"><path fill="#fff" d="M0 0h247v200H0z"/></clipPath></defs></svg>