<svg width="375" height="241" fill="none" xmlns="http://www.w3.org/2000/svg"><path d="M186.145 192.668c2.185.533 4.377.325 6.315-.452l-2.405 9.872c-1.312 5.374 1.989 10.794 7.367 12.104l36.165 8.803c5.378 1.31 10.801-1.989 12.112-7.363l8.808-36.14c1.312-5.375-1.989-10.794-7.367-12.105l-9.815-2.388c.744 1.912.934 4.063.41 6.208-1.357 5.564-6.97 8.977-12.541 7.625-5.567-1.356-8.983-6.965-7.629-12.532a10.312 10.312 0 0 1 3.219-5.323l-9.815-2.389c-5.378-1.31-10.801 1.988-12.112 7.363l-2.406 9.871a10.32 10.32 0 0 0-5.399-3.301c-5.57-1.356-11.183 2.057-12.54 7.624-1.356 5.567 2.059 11.176 7.63 12.532l.003-.009Z" fill="#F5C100"/><path d="M134.302 140.36a10.3 10.3 0 0 0 1.127 6.226l-10.077-1.331c-5.49-.726-10.527 3.133-11.251 8.619l-4.877 36.875c-.726 5.486 3.135 10.52 8.625 11.243l36.9 4.874c5.489.726 10.527-3.133 11.25-8.619l1.323-10.007a10.33 10.33 0 0 1-6.131 1.072c-5.682-.75-9.68-5.961-8.929-11.643.751-5.678 5.966-9.673 11.651-8.923a10.332 10.332 0 0 1 5.643 2.63l1.323-10.007c.727-5.486-3.135-10.52-8.624-11.243l-10.077-1.331a10.328 10.328 0 0 0 2.707-5.721c.75-5.679-3.247-10.89-8.929-11.643-5.683-.75-10.898 3.244-11.651 8.923l-.003.006Z" fill="#1E8F4E"/><path d="M283.54 63.256a10.32 10.32 0 0 0-1.932-6.025h10.165c5.537 0 10.023-4.486 10.023-10.017V10.016c0-5.53-4.489-10.016-10.023-10.016H254.55c-5.538 0-10.027 4.486-10.027 10.016v10.095a10.34 10.34 0 0 1 5.939-1.867c5.731 0 10.379 4.642 10.379 10.371 0 5.73-4.645 10.372-10.379 10.372a10.34 10.34 0 0 1-5.939-1.867v10.094c0 5.534 4.489 10.017 10.024 10.017h10.165a10.322 10.322 0 0 0-1.933 6.025c0 5.73 4.646 10.372 10.379 10.372 5.734 0 10.379-4.643 10.379-10.372h.003ZM193.178 75.474c-2.204 0-4.245.687-5.924 1.859V67.247c0-5.495-4.425-9.953-9.908-10.013H167.157a10.32 10.32 0 0 1 1.932 6.025c0 5.73-4.645 10.372-10.379 10.372-5.733 0-10.379-4.643-10.379-10.372 0-2.248.718-4.326 1.933-6.025h-10.28c-5.525.015-9.999 4.491-9.999 10.016v10.158a10.338 10.338 0 0 0-6.029-1.93c-5.734 0-10.379 4.641-10.379 10.371s4.645 10.372 10.379 10.372c2.249 0 4.329-.717 6.029-1.93v10.157c0 5.534 4.489 10.017 10.023 10.017h10.102a10.32 10.32 0 0 1-1.869-5.935c0-5.727 4.645-10.372 10.379-10.372 5.733 0 10.379 4.642 10.379 10.372 0 2.208-.694 4.254-1.869 5.935h10.101c5.538 0 10.023-4.486 10.023-10.017V94.362a10.341 10.341 0 0 0 5.924 1.86c5.73 0 10.379-4.643 10.379-10.373 0-5.73-4.646-10.372-10.379-10.372v-.003Z" fill="#EF7E1A"/><path d="M136.017 18.244c-2.204 0-4.245.686-5.924 1.858V10.016C130.09 4.486 125.605 0 120.067 0H82.844C77.31 0 72.821 4.486 72.821 10.016v10.158a10.338 10.338 0 0 0-6.029-1.93c-5.734 0-10.379 4.642-10.379 10.371 0 5.73 4.645 10.372 10.379 10.372 2.249 0 4.329-.717 6.029-1.93v10.157c0 5.534 4.489 10.017 10.023 10.017h10.102a10.321 10.321 0 0 1-1.87-5.935c0-5.727 4.646-10.372 10.38-10.372 5.733 0 10.379 4.642 10.379 10.372 0 2.208-.694 4.254-1.869 5.935h10.101c5.538 0 10.023-4.486 10.023-10.017V37.13a10.341 10.341 0 0 0 5.924 1.858c5.73 0 10.379-4.642 10.379-10.372 0-5.73-4.646-10.371-10.379-10.371h.003Z" fill="#F5C100"/><path d="M250.501 18.244a10.31 10.31 0 0 0-5.923 1.858V10.016c0-5.53-4.489-10.016-10.026-10.016h-37.223c-5.535 0-10.024 4.486-10.024 10.016v10.158a10.337 10.337 0 0 0-6.029-1.93c-5.733 0-10.379 4.642-10.379 10.371 0 5.73 4.646 10.372 10.379 10.372 2.249 0 4.329-.717 6.029-1.93v10.157c0 5.534 4.489 10.017 10.024 10.017h10.101a10.318 10.318 0 0 1-1.869-5.935c0-5.727 4.645-10.372 10.379-10.372s10.379 4.642 10.379 10.372c0 2.208-.693 4.254-1.869 5.935h10.102c5.537 0 10.023-4.486 10.023-10.017V37.13a10.34 10.34 0 0 0 5.923 1.858c5.731 0 10.379-4.642 10.379-10.372 0-5.73-4.645-10.371-10.379-10.371h.003Z" fill="#D93726"/><path d="M238.549 96.218c-5.734 0-10.379-4.642-10.379-10.372 0-5.73 4.645-10.372 10.379-10.372 2.228 0 4.287.705 5.978 1.898V67.247c0-5.534-4.489-10.016-10.024-10.016h-10.137a10.305 10.305 0 0 0 1.95-6.05c0-5.726-4.645-10.371-10.379-10.371-5.733 0-10.379 4.642-10.379 10.372 0 2.26.724 4.347 1.951 6.049h-10.228c-5.538 0-10.024 4.485-10.024 10.016v10.095a10.338 10.338 0 0 1 5.939-1.868c5.73 0 10.379 4.642 10.379 10.372 0 5.73-4.646 10.372-10.379 10.372-2.21 0-4.257-.693-5.939-1.868v10.095c0 5.534 4.489 10.017 10.024 10.017h10.164a10.326 10.326 0 0 0-1.932 6.024c0 5.727 4.645 10.372 10.379 10.372s10.379-4.642 10.379-10.372c0-2.247-.718-4.325-1.932-6.024h10.164c5.538 0 10.024-4.486 10.024-10.017V94.32a10.331 10.331 0 0 1-5.978 1.898Z" fill="#1E8F4E"/><path d="M307.774 75.474c-2.204 0-4.245.687-5.924 1.859V67.247c0-5.495-4.425-9.953-9.909-10.013H281.752a10.322 10.322 0 0 1 1.933 6.025c0 5.73-4.646 10.372-10.379 10.372-5.734 0-10.379-4.643-10.379-10.372 0-2.248.717-4.326 1.932-6.025H254.58c-5.526.015-9.999 4.491-9.999 10.016v10.158a10.338 10.338 0 0 0-6.029-1.93c-5.734 0-10.379 4.641-10.379 10.371s4.645 10.372 10.379 10.372c2.249 0 4.329-.717 6.029-1.93v10.157c0 5.534 4.488 10.017 10.023 10.017h10.102a10.32 10.32 0 0 1-1.869-5.935c0-5.727 4.645-10.372 10.378-10.372 5.734 0 10.379 4.642 10.379 10.372a10.32 10.32 0 0 1-1.869 5.935h10.102c5.538 0 10.023-4.486 10.023-10.017V94.362a10.341 10.341 0 0 0 5.924 1.86c5.73 0 10.378-4.643 10.378-10.373 0-5.73-4.645-10.372-10.378-10.372v-.003Z" fill="#F5C100"/><path d="M124.291 96.218c-5.734 0-10.379-4.642-10.379-10.372 0-5.73 4.645-10.372 10.379-10.372 2.227 0 4.286.705 5.977 1.898V67.247c0-5.534-4.488-10.016-10.023-10.016h-10.138a10.305 10.305 0 0 0 1.951-6.05c0-5.726-4.646-10.371-10.379-10.371-5.734 0-10.379 4.642-10.379 10.372 0 2.26.724 4.347 1.95 6.049H83.022C77.485 57.23 73 61.716 73 67.247v10.095a10.337 10.337 0 0 1 5.939-1.868c5.73 0 10.379 4.642 10.379 10.372 0 5.73-4.646 10.372-10.38 10.372-2.21 0-4.256-.693-5.938-1.868v10.095c0 5.534 4.489 10.017 10.023 10.017h10.165a10.32 10.32 0 0 0-1.932 6.024c0 5.727 4.645 10.372 10.379 10.372 5.733 0 10.379-4.642 10.379-10.372a10.32 10.32 0 0 0-1.933-6.024h10.165c5.538 0 10.023-4.486 10.023-10.017V94.32a10.33 10.33 0 0 1-5.977 1.898Z" fill="#D93726"/><path d="M181.322 38.987c-5.734 0-10.379-4.642-10.379-10.372 0-5.73 4.645-10.371 10.379-10.371 2.245 0 4.322.716 6.02 1.927V10.016C187.345 4.486 182.856 0 177.318 0h-37.223c-5.534 0-10.023 4.486-10.023 10.016v10.095a10.337 10.337 0 0 1 5.939-1.867c5.73 0 10.379 4.642 10.379 10.371 0 5.73-4.646 10.372-10.379 10.372-2.21 0-4.257-.693-5.939-1.867v10.094c0 5.534 4.489 10.017 10.023 10.017h10.165a10.32 10.32 0 0 0-1.932 6.025c0 5.73 4.645 10.372 10.379 10.372s10.379-4.643 10.379-10.372c0-2.248-.718-4.326-1.932-6.025h10.164c5.538 0 10.024-4.486 10.024-10.017V37.06a10.334 10.334 0 0 1-6.02 1.928Z" fill="#1E8F4E"/><path d="M160.7 204.974c-.097-2.558-2.358-4.546-5.047-4.443l-30.503 1.165-.082-2.163 30.362-1.159c2.689-.103 4.787-2.26 4.691-4.817-.097-2.558-2.354-4.546-5.043-4.441l-30.362 1.16-.082-2.163 30.576-1.169c2.689-.102 4.787-2.259 4.691-4.817-.097-2.554-2.355-4.545-5.046-4.44l-30.576 1.169-.082-2.163 30.754-1.175c2.689-.102 4.787-2.259 4.691-4.817-.097-2.557-2.355-4.546-5.044-4.443l-30.781 1.175v-.03l-15.642.596 8.118-8.76a5.093 5.093 0 0 0-.274-7.2 5.101 5.101 0 0 0-7.205.274l-15.045 16.231c.048 0 .096 0 .144-.003l-.147.006a105.706 105.706 0 0 1-75.697-28.058L0 123.77v57.36a167.194 167.194 0 0 0 103.093 30.682l22.385-.855h.024l30.507-1.166c2.689-.103 4.79-2.262 4.691-4.817Z" fill="#FFC88C"/><path d="m375 144.098-33.328 28.492a105.704 105.704 0 0 1-76.746 25.046l-.148-.009.145.009-14.392-16.813a5.097 5.097 0 0 0-7.186-.56 5.089 5.089 0 0 0-.561 7.181l7.765 9.074-15.606-1.214v.03l-30.711-2.389c-2.683-.208-5.016 1.69-5.215 4.239-.199 2.548 1.814 4.79 4.494 4.997l30.685 2.389-.169 2.16-30.507-2.374c-2.683-.207-5.019 1.69-5.215 4.239-.199 2.551 1.815 4.79 4.498 4.998l30.507 2.373-.169 2.157-30.293-2.358c-2.683-.208-5.016 1.687-5.215 4.238-.199 2.552 1.815 4.79 4.495 4.998l30.292 2.356-.169 2.156-30.434-2.367c-2.683-.208-5.019 1.687-5.218 4.241-.199 2.549 1.815 4.787 4.498 4.998l30.437 2.368h.024l22.334 1.741a167.203 167.203 0 0 0 121.017-39.09l.088-.994v-56.315l.003.003Z" fill="#A0643C"/><path d="m135.429 146.586-10.077-1.331c-5.49-.726-10.527 3.133-11.25 8.619l-1.601 12.092 22.928-19.38Z" fill="#1E8F4E"/><path d="m250.447 196.147 4.061-16.658c1.311-5.375-1.99-10.794-7.368-12.105l-7.777-1.891-2.595 22.18 13.682 8.474h-.003Z" fill="#F5C100"/></svg>