<svg width="223" height="226" fill="none" xmlns="http://www.w3.org/2000/svg"><path d="M193.993 87.283c-22.795-8.49-48.159 3.102-56.651 25.896-8.491 22.791 3.103 48.151 25.901 56.64 10.359 3.86 21.249 3.567 30.845-.035l14.394 7.426c3.056 1.577 6.601-1.019 6.018-4.409l-2.64-15.344a43.918 43.918 0 0 0 8.034-13.533c8.491-22.792-3.103-48.15-25.901-56.64Z" fill="#5CDCFF"/><path d="M78.86 119.455C72.431 98.339 50.1 86.431 28.98 92.859c-21.118 6.425-33.028 28.754-26.602 49.87a39.838 39.838 0 0 0 6.765 13.013l-2.869 16.666c-.472 2.753 2.405 4.861 4.888 3.58l14.502-7.481-.622-.608a39.798 39.798 0 0 0 27.216 1.427c21.121-6.427 33.031-28.754 26.602-49.871Z" fill="#F4BDFF"/><path d="m173.356 133.736 10.531-29.778 8.612 3.233-11.679 29.347-7.464-2.802Zm-5.533 12.987 3.234-8.611 8.612 3.233-3.234 8.611-8.612-3.233ZM38.414 138.431l-.375-1.231c-.478-1.569-.675-3.017-.593-4.347a12.68 12.68 0 0 1 .77-3.711 26.923 26.923 0 0 1 1.428-3.179c.72-1.348 1.362-2.566 1.927-3.654.565-1.087.68-2.183.344-3.29-.229-.747-.609-1.364-1.146-1.841-.536-.481-1.202-.784-2-.909-.8-.126-1.716-.034-2.749.282-1.32.401-2.347 1.153-3.082 2.252-.737 1.102-1.004 2.36-.806 3.78l-8.004.391c-.288-2.093-.08-4.066.624-5.917.701-1.849 1.842-3.482 3.419-4.897 1.574-1.415 3.503-2.468 5.787-3.164 2.781-.848 5.29-1.014 7.528-.509 2.237.509 4.097 1.462 5.574 2.861 1.48 1.4 2.504 3.046 3.08 4.933.413 1.356.518 2.638.323 3.845a13.26 13.26 0 0 1-1.074 3.482 49.943 49.943 0 0 1-1.687 3.29 26.174 26.174 0 0 0-1.95 4.157c-.508 1.402-.529 2.869-.061 4.402l.21.696-7.487 2.278Zm3.53 12.362-2.443-8.02 8.021-2.442 2.443 8.02-8.022 2.442Z" fill="#000"/><path d="M111.771 226c29.501 0 53.417-23.911 53.417-53.407 0-29.496-23.916-53.407-53.417-53.407s-53.417 23.911-53.417 53.407c0 29.496 23.916 53.407 53.417 53.407Z" fill="#FFC88C"/><path d="M111.771 199.313c-10.359 0-20.717-3.942-28.605-11.828a2.093 2.093 0 0 1 2.959-2.959c14.142 14.14 37.15 14.14 51.293 0a2.093 2.093 0 0 1 2.958 2.959c-7.885 7.884-18.246 11.828-28.605 11.828Z" fill="#000"/><path d="M123.958 161.653c4.958 9.076 16.375 12.427 25.452 7.471 9.077-4.957 12.429-16.372 7.471-25.447-4.957-9.075-16.374-12.427-25.451-7.47-9.077 4.956-12.429 16.371-7.472 25.446Z" fill="#fff"/><path d="M128.767 160.223c2.327 4.26 7.685 5.832 11.944 3.505 4.261-2.326 5.833-7.683 3.506-11.941-2.327-4.26-7.685-5.832-11.944-3.505-4.261 2.326-5.833 7.683-3.506 11.941Z" fill="#000"/><path d="M138.892 153.068a3.42 3.42 0 0 0 4.634 1.361 3.42 3.42 0 0 0 1.361-4.632 3.42 3.42 0 0 0-4.634-1.361 3.418 3.418 0 0 0-1.361 4.632ZM99.587 161.653c-4.958 9.076-16.375 12.427-25.452 7.471-9.077-4.957-12.429-16.372-7.472-25.447 4.958-9.075 16.375-12.427 25.452-7.47 9.077 4.956 12.429 16.371 7.472 25.446Z" fill="#fff"/><path d="M94.778 160.223c-2.327 4.26-7.685 5.832-11.943 3.505-4.261-2.326-5.833-7.683-3.506-11.941 2.327-4.26 7.685-5.832 11.943-3.505 4.261 2.326 5.833 7.683 3.506 11.941Z" fill="#000"/><path d="M95.477 152.996a3.42 3.42 0 0 1-4.634 1.361 3.419 3.419 0 0 1-1.361-4.632 3.42 3.42 0 0 1 4.633-1.361 3.418 3.418 0 0 1 1.362 4.632Z" fill="#fff"/><path d="M83.124 176.039c-12.89 0-23.378-10.485-23.378-23.374s10.487-23.374 23.378-23.374c12.892 0 23.379 10.485 23.379 23.374s-10.487 23.374-23.379 23.374Zm0-40.708c-9.56 0-17.337 7.776-17.337 17.334s7.778 17.334 17.337 17.334c9.56 0 17.338-7.776 17.338-17.334s-7.778-17.334-17.338-17.334ZM140.42 176.039c-12.891 0-23.378-10.485-23.378-23.374s10.487-23.374 23.378-23.374c12.892 0 23.379 10.485 23.379 23.374s-10.487 23.374-23.379 23.374Zm0-40.708c-9.56 0-17.337 7.776-17.337 17.334s7.777 17.334 17.337 17.334c9.56 0 17.338-7.776 17.338-17.334s-7.778-17.334-17.338-17.334Z" fill="#000"/><path d="M117.404 154.66c-3.105-3.104-8.157-3.104-11.262 0l-4.115-4.113a13.698 13.698 0 0 1 9.745-4.04c3.678 0 7.14 1.433 9.745 4.04l-4.115 4.113h.002Z" fill="#000"/><path d="m125.004 108.675-25.66 4.486 1.051 6.009c1.24 7.086 7.988 11.824 15.074 10.583 7.087-1.24 11.826-7.986 10.585-15.071l-1.05-6.01v.003Z" fill="#545454"/><path d="m121.893 90.898-25.66 4.486 4.03 23.045 25.661-4.487-4.031-23.044Z" fill="#999"/><path d="M61.796 71.444C57.72 48.152 73.303 25.967 96.599 21.89c23.296-4.075 45.485 11.505 49.562 34.797L61.796 71.444Z" fill="#FFCD1E"/><path d="M146.16 56.688c4.076 23.292-11.507 45.477-34.803 49.552-23.296 4.076-45.485-11.504-49.562-34.796l84.365-14.756Z" fill="#FFCD1E"/><path d="M129.948 46.734a1.924 1.924 0 0 1-1.872-.74c-6.848-9.108-18.07-13.548-29.286-11.586a1.925 1.925 0 0 1-2.23-1.567 1.924 1.924 0 0 1 1.567-2.229c12.652-2.213 25.31 2.794 33.031 13.069a1.926 1.926 0 0 1-1.207 3.053h-.003Z" fill="#fff"/><path d="M95.263 14.257a1.927 1.927 0 0 1-2.23-1.567L91.284 2.688a1.926 1.926 0 1 1 3.796-.663l1.75 10.003a1.925 1.925 0 0 1-1.567 2.229ZM133.89 22.985a1.926 1.926 0 0 1-1.908-3.005l5.835-8.31a1.927 1.927 0 0 1 3.154 2.214l-5.835 8.31a1.93 1.93 0 0 1-1.246.791ZM60.429 35.833a1.92 1.92 0 0 1-1.439-.32l-8.311-5.835a1.927 1.927 0 1 1 2.214-3.154l8.311 5.834a1.927 1.927 0 0 1-.775 3.475ZM105.355 71.932l-19.212-13.49a1.926 1.926 0 1 1 2.214-3.154l16.058 11.277 11.278-16.056a1.927 1.927 0 0 1 3.154 2.214l-13.492 19.209Z" fill="#000"/><path d="m106.78 68.922-3.796.663 4.972 28.42 3.795-.663-4.971-28.42Z" fill="#000"/><path d="M111.358 106.24c17.391-3.04 30.48-16.175 34.304-32.33l-77.55 13.563c9.082 13.896 25.854 21.811 43.246 18.767Z" fill="#999"/></svg>