<svg width="121" height="121" fill="none" xmlns="http://www.w3.org/2000/svg"><g clip-path="url(#a)"><path d="M120.421.582A1.974 1.974 0 0 0 119.023 0H95.285c-.52 0-1.02.205-1.39.571L51.573 42.516a39.671 39.671 0 0 0-12.767-1.72C16.762 41.42-.604 59.875.017 82.018c.62 22.143 18.986 39.59 41.026 38.967 22.041-.623 39.406-19.078 38.786-41.218a40.39 40.39 0 0 0-1.572-10.107l6.606-6.645c.37-.372.58-.877.58-1.405v-.008l-.041-9.93h9.916c.525 0 1.028-.21 1.398-.581.37-.372.58-.877.58-1.405v-.005l-.028-9.932h9.903c.524 0 1.028-.21 1.397-.582.37-.372.58-.877.58-1.405l-.014-9.937h9.889c.525 0 1.028-.21 1.398-.582.37-.372.579-.877.579-1.405V1.987c0-.528-.209-1.033-.579-1.405Z" fill="#BEBEBE"/><path d="M18.793 70.32a1.232 1.232 0 0 1-.89-2.074c4.431-4.71 11.853-4.918 16.54-.467.492.467.514 1.246.048 1.738a1.22 1.22 0 0 1-1.73.049c-3.706-3.522-9.573-3.355-13.078.369a1.218 1.218 0 0 1-.89.385ZM46.243 69.544a1.231 1.231 0 0 1-.89-2.074 11.604 11.604 0 0 1 8.174-3.678 11.587 11.587 0 0 1 8.365 3.211c.493.467.514 1.246.05 1.738a1.223 1.223 0 0 1-1.73.049 9.133 9.133 0 0 0-6.615-2.538 9.158 9.158 0 0 0-6.462 2.907 1.218 1.218 0 0 1-.889.385h-.003Z" fill="#000"/><path d="M69.306 80.892c0 16.304-13.155 29.52-29.383 29.52-16.229 0-29.384-13.216-29.384-29.52h58.767Z" fill="#fff"/><path d="M67.525 44.199a1.231 1.231 0 0 1-.86-2.104l31.22-30.99a1.217 1.217 0 0 1 1.73.01c.476.484.47 1.263-.01 1.738l-31.22 30.99c-.24.238-.55.356-.86.356Z" fill="#000"/></g><defs><clipPath id="a"><path fill="#fff" d="M0 0h121v121H0z"/></clipPath></defs></svg>