<svg width="174" height="162" fill="none" xmlns="http://www.w3.org/2000/svg"><path d="m173.443 53.238-12.51-1.926-.209-.88c-.817-3.467-2.276-6.969-4.343-10.412l-.458-.768 7.462-10.105c.189-.34.355-.851-.127-1.537l-8.92-8.919c-.219-.219-.822-.364-1.173-.102l-10.404 7.499-.758-.453c-2.889-1.73-6.124-3.078-10.482-4.362l-.817-.238-1.921-12.498c-.127-.574-.574-.7-.929-.7h-12.593c-.462 0-.837.423-.939.74l-1.926 12.507-.88.209c-3.468.817-6.97 2.276-10.414 4.343l-.759.452-10.384-7.484c-.438-.326-.993-.03-1.27.16l-8.92 8.919c-.22.219-.365.822-.103 1.172l7.505 10.402-.452.758c-2.067 3.443-3.526 6.945-4.343 10.412l-.205.875-12.325 1.931c-.579.127-.7.574-.7.929v12.59c0 .467.428.837.744.939l12.058 1.93.204.876c.841 3.584 2.31 7.25 4.363 10.893l.423.754-7.257 9.915c-.321.433-.024.983.165 1.26l8.92 8.918c.22.219.823.365 1.173.103l9.927-7.266.754.423c4.217 2.374 7.68 3.828 10.896 4.586l.87.204 1.941 11.871c.126.579.574.7.934.7h12.593c.466 0 .836-.428.938-.744l1.936-11.841.885-.195c3.415-.758 7.063-2.295 10.847-4.561l.764-.457 9.937 7.27c.432.321.982.024 1.259-.165l8.921-8.92c.219-.218.365-.821.102-1.171l-7.267-9.926.423-.753c2.189-3.89 3.575-7.348 4.358-10.874l.2-.89 12.111-1.935c.579-.127.701-.574.701-.93V54.04l.024-.131c.063-.32-.292-.593-.54-.671h-.01ZM121.569 86.33c-14.348 0-25.978-11.628-25.978-25.974s11.63-25.973 25.978-25.973c14.349 0 25.979 11.627 25.979 25.973 0 14.346-11.63 25.974-25.979 25.974Z" fill="#BEBEBE"/><path d="m75.877 33.169-9.1-1.401-.15-.642c-.594-2.524-1.66-5.072-3.157-7.572l-.336-.559 5.428-7.353c.141-.248.258-.617-.092-1.118L61.98 8.037c-.16-.161-.598-.263-.851-.073l-7.568 5.456-.55-.33c-2.101-1.26-4.455-2.238-7.627-3.172l-.593-.175-1.4-9.093c-.093-.419-.42-.506-.677-.506h-9.164c-.335 0-.608.306-.68.54L31.47 9.782l-.642.151c-2.525.593-5.073 1.658-7.573 3.156l-.55.33-7.559-5.446c-.32-.238-.72-.024-.924.117l-6.488 6.487c-.16.16-.263.598-.073.851l5.457 7.567-.33.55c-1.504 2.504-2.569 5.052-3.157 7.571l-.151.637L.51 33.16c-.418.092-.51.418-.51.676v9.162c0 .34.311.608.54.68l8.774 1.406.151.637c.613 2.606 1.683 5.271 3.171 7.927l.307.544-5.277 7.212c-.234.316-.02.715.121.92l6.489 6.486c.16.16.598.263.85.073l7.224-5.286.545.307c3.069 1.726 5.588 2.786 7.928 3.336l.632.15 1.41 8.637c.093.423.419.51.677.51h9.163c.34 0 .608-.31.681-.54l1.406-8.616.642-.141c2.486-.555 5.141-1.668 7.89-3.322l.554-.33 7.228 5.29c.316.234.715.02.919-.121l6.488-6.487c.161-.16.263-.599.073-.851L63.3 54.196l.307-.545c1.59-2.83 2.597-5.344 3.171-7.912l.146-.646 8.813-1.41c.424-.093.511-.419.511-.677v-9.259l.02-.097c.048-.233-.214-.433-.394-.491l.004.01ZM38.139 57.245c-10.438 0-18.901-8.461-18.901-18.897 0-10.436 8.463-18.898 18.901-18.898S57.04 27.912 57.04 38.348s-8.463 18.897-18.9 18.897Z" fill="#BEBEBE"/><path d="M72.332 161.629c33.191 0 60.098-26.902 60.098-60.087s-26.907-60.087-60.099-60.087c-33.191 0-60.098 26.902-60.098 60.087s26.907 60.087 60.099 60.087Z" fill="#FFC88C"/><path d="M72.331 131.61c-11.654 0-23.313-4.435-32.184-13.305a2.356 2.356 0 0 1 0-3.331 2.352 2.352 0 0 1 3.326 0c15.91 15.907 41.801 15.907 57.711 0a2.352 2.352 0 0 1 3.327 0 2.357 2.357 0 0 1 0 3.331c-8.872 8.87-20.53 13.305-32.185 13.305h.005ZM62.813 90.805c-.52 0-1.041-.2-1.44-.598-5.355-5.354-14.067-5.354-19.422 0a2.035 2.035 0 1 1-2.88-2.879c6.942-6.94 18.24-6.94 25.181 0a2.04 2.04 0 0 1-1.44 3.477ZM104.151 90.805c-.52 0-1.041-.2-1.44-.598-5.355-5.354-14.066-5.354-19.421 0a2.04 2.04 0 0 1-2.88 0 2.04 2.04 0 0 1 0-2.88c6.94-6.939 18.24-6.939 25.181 0a2.041 2.041 0 0 1 0 2.88c-.399.398-.92.598-1.44.598Z" fill="#000"/></svg>